<svg width="24" height="24" viewBox="0 0 24 24" fill="none" xmlns="http://www.w3.org/2000/svg">
<path fill-rule="evenodd" clip-rule="evenodd" d="M14.1213 11.2312H16.8891C17.3088 11.2312 17.6386 10.8843 17.6386 10.466C17.6386 10.0374 17.3088 9.7007 16.8891 9.7007H14.1213C13.7016 9.7007 13.3719 10.0374 13.3719 10.466C13.3719 10.8843 13.7016 11.2312 14.1213 11.2312ZM20.1766 5.92649C20.7861 5.92649 21.1858 6.14076 21.5855 6.61011C21.9852 7.07947 22.0551 7.75289 21.9652 8.36407L21.0159 15.0575C20.8361 16.3441 19.7569 17.292 18.4879 17.292H7.58639C6.25742 17.292 5.15828 16.2523 5.04837 14.9054L4.12908 3.78276L2.62026 3.51748C2.22057 3.44605 1.94079 3.04812 2.01073 2.63999C2.08068 2.22267 2.47038 1.94616 2.88006 2.0084L5.2632 2.3747C5.60293 2.43694 5.85274 2.72162 5.88272 3.06853L6.07257 5.35408C6.10254 5.68161 6.36234 5.92649 6.68209 5.92649H20.1766ZM7.42631 18.9046C6.58697 18.9046 5.9075 19.5985 5.9075 20.4555C5.9075 21.3024 6.58697 21.9963 7.42631 21.9963C8.25567 21.9963 8.93514 21.3024 8.93514 20.4555C8.93514 19.5985 8.25567 18.9046 7.42631 18.9046ZM18.6676 18.9046C17.8282 18.9046 17.1487 19.5985 17.1487 20.4555C17.1487 21.3024 17.8282 21.9963 18.6676 21.9963C19.4969 21.9963 20.1764 21.3024 20.1764 20.4555C20.1764 19.5985 19.4969 18.9046 18.6676 18.9046Z" fill="#130F26"/>
</svg>
