<svg width="36" height="36" viewBox="0 0 36 36" fill="none" xmlns="http://www.w3.org/2000/svg">
<g clip-path="url(#clip0)">
<path d="M16.1716 2.39087C17.7248 2.39087 18.984 3.65008 18.984 5.20333V6.32831H13.3591V5.20333C13.3591 3.65001 14.6183 2.39087 16.1716 2.39087Z" fill="#FBEAC0"/>
<path d="M1.33587 13.0852H31.0073C31.3568 13.0852 31.6401 12.8019 31.6401 12.4524V6.96117C31.6401 6.61165 31.3568 6.32837 31.0073 6.32837H1.33587C0.986349 6.32837 0.703064 6.61165 0.703064 6.96117V12.4524C0.703064 12.8019 0.986349 13.0852 1.33587 13.0852Z" fill="#FBEAC0"/>
<path d="M2.96503 13.0852H29.3781V31.078C29.3781 31.8546 28.7486 32.4842 27.9719 32.4842H4.37125C3.5946 32.4842 2.96503 31.8546 2.96503 31.078V13.0852Z" fill="#FBEAC0"/>
<path d="M18.984 32.4841H13.3591V13.0851H18.984V32.4841Z" fill="white"/>
<path d="M18.984 13.0852H13.3591V6.32835H18.984V13.0852Z" fill="white"/>
<path d="M25.8751 35.2968C31.0786 35.2968 35.2968 31.0786 35.2968 25.8751C35.2968 20.6716 31.0786 16.4534 25.8751 16.4534C20.6716 16.4534 16.4534 20.6716 16.4534 25.8751C16.4534 31.0786 20.6716 35.2968 25.8751 35.2968Z" fill="white"/>
<path d="M13.359 22.7449C13.5439 22.7449 13.7253 22.6703 13.8561 22.5389C13.9869 22.4081 14.0621 22.2274 14.0621 22.0417C14.0621 21.8568 13.9869 21.6754 13.8561 21.5446C13.7253 21.4139 13.5446 21.3386 13.359 21.3386C13.1741 21.3386 12.9927 21.4139 12.8619 21.5446C12.7311 21.6754 12.6559 21.8568 12.6559 22.0417C12.6559 22.2274 12.7311 22.4081 12.8619 22.5389C12.9927 22.6703 13.1741 22.7449 13.359 22.7449Z" fill="#E96E34"/>
<path d="M30.0813 16.6665V13.7885H31.0073C31.744 13.7885 32.3432 13.1892 32.3432 12.4526V6.96132C32.3432 6.22466 31.744 5.6254 31.0073 5.6254H26.6238C27.5325 4.73406 28.0976 3.4937 28.0976 2.12333C28.0976 1.735 27.7828 1.42022 27.3945 1.42022C27.0062 1.42022 26.6914 1.735 26.6914 2.12333C26.6914 3.43696 25.964 4.58332 24.8912 5.18251C25.1595 4.68625 25.3121 4.1187 25.3121 3.51606C25.3121 1.57757 23.735 0.000488281 21.7965 0.000488281C20.2074 0.000488281 18.8619 1.06057 18.4283 2.51053C17.8172 1.99761 17.0301 1.68796 16.1716 1.68796C15.3132 1.68796 14.5261 1.99761 13.915 2.51053C13.4814 1.06057 12.1358 0.000488281 10.5467 0.000488281C8.60822 0.000488281 7.03114 1.57757 7.03114 3.51606C7.03114 4.1187 7.18372 4.68632 7.45202 5.18251C6.37921 4.58332 5.65184 3.43689 5.65184 2.12326C5.65184 1.73493 5.33706 1.42015 4.94873 1.42015C4.5604 1.42015 4.24561 1.73493 4.24561 2.12326C4.24561 3.49363 4.81078 4.73399 5.71948 5.62533H1.33592C0.599264 5.62533 0 6.22459 0 6.96125V12.4525C0 13.1892 0.599264 13.7884 1.33592 13.7884H2.26192V31.0781C2.26192 32.2411 3.20817 33.1874 4.37126 33.1874H18.8793C20.6986 34.9286 23.164 35.9999 25.8752 35.9999C31.458 35.9999 36 31.4579 36 25.875C36 21.7922 33.5704 18.2665 30.0813 16.6665ZM19.6872 5.20353V3.51606C19.6872 2.35297 20.6334 1.40672 21.7965 1.40672C22.9596 1.40672 23.9059 2.35297 23.9059 3.51606C23.9059 4.67915 22.9596 5.6254 21.7965 5.6254H19.6872V5.20353ZM19.6872 7.03163H30.937V12.3823H19.6872V7.03163ZM19.6872 13.7885H28.6751V16.1443C27.7855 15.888 26.8462 15.7502 25.8752 15.7502C23.5467 15.7502 21.3996 16.5408 19.6872 17.867V13.7885ZM14.0623 5.20353C14.0623 4.04044 15.0085 3.09419 16.1716 3.09419C17.3347 3.09419 18.281 4.04044 18.281 5.20353V5.6254H14.0623V5.20353ZM14.0623 7.03163H18.281V12.3823H14.0623V7.03163ZM10.5467 1.40672C11.7098 1.40672 12.6561 2.35297 12.6561 3.51606V5.20353V5.6254H10.5467C9.38362 5.6254 8.43737 4.67915 8.43737 3.51606C8.43737 2.35297 9.38362 1.40672 10.5467 1.40672ZM1.40623 12.3823V7.03163H12.6561V12.3823H2.96503H1.40623ZM14.0623 31.7812V25.206C14.0623 24.8177 13.7475 24.5029 13.3592 24.5029C12.9708 24.5029 12.6561 24.8177 12.6561 25.206V31.7812H4.37126C3.98356 31.7812 3.66815 31.4658 3.66815 31.0781V13.7885H12.6561V18.878C12.6561 19.2663 12.9708 19.5811 13.3592 19.5811C13.7475 19.5811 14.0623 19.2663 14.0623 18.878V13.7885H18.281V19.1866C16.7069 20.9717 15.7503 23.3136 15.7503 25.8751C15.7503 28.0776 16.4576 30.1177 17.6565 31.7812H14.0623ZM25.8752 34.5937C21.0677 34.5937 17.1565 30.6826 17.1565 25.8751C17.1565 21.0676 21.0677 17.1565 25.8752 17.1565C30.6826 17.1565 34.5938 21.0676 34.5938 25.8751C34.5938 30.6826 30.6826 34.5937 25.8752 34.5937Z" fill="#E96E34"/>
<path d="M28.1678 21.2476C27.8183 21.0779 27.3978 21.2236 27.2281 21.5729L23.3593 29.5396C23.1897 29.8889 23.3353 30.3096 23.6847 30.4792C23.7836 30.5273 23.8882 30.55 23.9913 30.55C24.2521 30.55 24.5027 30.4043 24.6243 30.1539L28.4931 22.1872C28.6628 21.8379 28.5171 21.4172 28.1678 21.2476Z" fill="#E96E34"/>
<path d="M24.0981 20.853C23.673 20.4279 23.1079 20.1938 22.5068 20.1938C21.9057 20.1938 21.3406 20.4279 20.9156 20.853C20.0381 21.7304 20.0381 23.1581 20.9156 24.0355C21.3543 24.4743 21.9305 24.6936 22.5068 24.6936C23.083 24.6936 23.6595 24.4741 24.0981 24.0355C24.9754 23.1581 24.9754 21.7304 24.0981 20.853ZM23.1037 23.0411C22.7746 23.3703 22.239 23.3702 21.9099 23.0411C21.5808 22.712 21.5808 22.1765 21.9099 21.8472C22.0693 21.6878 22.2813 21.6 22.5068 21.6C22.7323 21.6 22.9442 21.6878 23.1037 21.8473C23.4328 22.1764 23.4328 22.712 23.1037 23.0411Z" fill="#E96E34"/>
<path d="M27.7775 27.7144C26.9 28.5919 26.9 30.0196 27.7775 30.897C28.2025 31.322 28.7677 31.5561 29.3687 31.5561C29.9698 31.5561 30.5349 31.322 30.9599 30.897C31.8374 30.0196 31.8374 28.5919 30.9599 27.7144C30.0825 26.837 28.6549 26.8371 27.7775 27.7144ZM29.9656 29.9026C29.8062 30.0621 29.5942 30.1499 29.3687 30.1499C29.1432 30.1499 28.9313 30.062 28.7718 29.9026C28.4427 29.5734 28.4427 29.0379 28.7718 28.7088C28.9364 28.5442 29.1526 28.4619 29.3687 28.4619C29.5848 28.4619 29.8011 28.5442 29.9656 28.7088C30.2947 29.0379 30.2947 29.5735 29.9656 29.9026Z" fill="#E96E34"/>
</g>
<defs>
<clipPath id="clip0">
<rect width="36" height="36" fill="white"/>
</clipPath>
</defs>
</svg>
