<svg width="36" height="36" viewBox="0 0 36 36" fill="none" xmlns="http://www.w3.org/2000/svg">
<g clip-path="url(#clip0)">
<path d="M16.7397 24.2492L10.3614 35.2967L9.12359 30.6773L4.48718 31.9196L10.8717 20.8613L16.7397 24.2492Z" fill="#FBEAC0"/>
<path d="M25.1284 20.8613L31.5128 31.9196L26.8764 30.6773L25.6386 35.2967L19.2604 24.2492L25.1284 20.8613Z" fill="#FBEAC0"/>
<path d="M19.2538 0.952399C20.6551 0.378913 22.2668 0.810768 23.1935 2.00802C23.7344 2.70668 24.528 3.16491 25.4035 3.28396C26.9038 3.48797 28.0836 4.66778 28.2876 6.16806C28.4066 7.04351 28.8649 7.83725 29.5635 8.37804C30.7608 9.30483 31.1926 10.9165 30.6192 12.3178C30.2845 13.1355 30.2845 14.0519 30.6192 14.8696C31.1926 16.2709 30.7608 17.8826 29.5635 18.8094C28.8649 19.3502 28.4066 20.1439 28.2876 21.0193C28.0836 22.5196 26.9038 23.6994 25.4035 23.9034C24.528 24.0225 23.7343 24.4807 23.1935 25.1794C22.2667 26.3766 20.6551 26.8085 19.2538 26.235C18.4361 25.9003 17.5196 25.9003 16.7019 26.235C15.3006 26.8085 13.6889 26.3766 12.7622 25.1794C12.2213 24.4807 11.4277 24.0225 10.5522 23.9034C9.05194 23.6994 7.87213 22.5196 7.66812 21.0193C7.54906 20.1439 7.09084 19.3501 6.39218 18.8094C5.19492 17.8826 4.76307 16.2709 5.33655 14.8696C5.67122 14.0519 5.67122 13.1355 5.33655 12.3178C4.76307 10.9165 5.19492 9.30476 6.39218 8.37804C7.09084 7.83718 7.54906 7.04351 7.66812 6.16806C7.87213 4.66778 9.05194 3.48797 10.5522 3.28396C11.4277 3.16491 12.2214 2.70668 12.7622 2.00802C13.689 0.810768 15.3006 0.378913 16.7019 0.952399C17.5196 1.28707 18.4361 1.28707 19.2538 0.952399Z" fill="#FBEAC0"/>
<path d="M17.9999 22.2692C22.6606 22.2692 26.4387 18.491 26.4387 13.8304C26.4387 9.16978 22.6606 5.3916 17.9999 5.3916C13.3393 5.3916 9.56116 9.16978 9.56116 13.8304C9.56116 18.491 13.3393 22.2692 17.9999 22.2692Z" fill="white"/>
<path d="M17.1949 17.7814L13.0913 13.6778L15.2793 11.4899L17.1949 13.4055L20.7207 9.87964L22.9086 12.0676L17.1949 17.7814Z" fill="#E96E34"/>
<path d="M32.1219 31.5681L27.5677 23.6801C28.3231 23.044 28.8451 22.1394 28.9845 21.1143C29.0792 20.4172 29.4378 19.7962 29.994 19.3656C31.436 18.2494 31.9607 16.2911 31.2701 14.6034C31.0036 13.9523 31.0036 13.2352 31.2701 12.5843C31.9607 10.8965 31.436 8.93828 29.994 7.82204C29.4378 7.39145 29.0792 6.77043 28.9845 6.07339C28.7387 4.2665 27.3051 2.83289 25.4983 2.58725C24.8013 2.49246 24.1803 2.13395 23.7497 1.57769C22.6334 0.135647 20.6753 -0.389035 18.9874 0.301609C18.3364 0.568064 17.6193 0.568064 16.9683 0.301609C15.2807 -0.389105 13.3224 0.135647 12.2061 1.57769C11.7755 2.13395 11.1545 2.49246 10.4575 2.58725C8.6505 2.83296 7.21696 4.2665 6.97132 6.07346C6.87653 6.7705 6.51802 7.39153 5.96176 7.82211C4.51971 8.93836 3.99503 10.8966 4.68568 12.5843C4.95213 13.2353 4.95213 13.9525 4.68568 14.6035C3.99496 16.2911 4.51971 18.2494 5.96176 19.3657C6.51802 19.7963 6.87653 20.4173 6.97132 21.1143C7.11253 22.1529 7.64671 23.0676 8.41808 23.7048L3.87815 31.5681C3.73596 31.8144 3.75607 32.1222 3.92928 32.3478C4.10242 32.5734 4.39433 32.6726 4.66922 32.599L8.62638 31.5386L9.68214 35.4788C9.75577 35.7535 9.98762 35.9568 10.2696 35.9939C10.3004 35.998 10.3312 36 10.3616 36C10.6104 36 10.8437 35.8678 10.9704 35.6484L15.8692 27.1634C16.2407 27.1234 16.6106 27.0324 16.9683 26.886C17.6193 26.6196 18.3365 26.6196 18.9874 26.886C19.3603 27.0387 19.7465 27.1317 20.1339 27.1689L25.0295 35.6484C25.1563 35.8679 25.3895 36 25.6383 36C25.6689 36 25.6995 35.998 25.7304 35.9939C26.0124 35.9568 26.2442 35.7535 26.3179 35.4788L27.3737 31.5386L31.3309 32.599C31.6054 32.6726 31.8976 32.5735 32.0707 32.3478C32.2439 32.1222 32.264 31.8144 32.1219 31.5681ZM10.6012 33.4749L9.80281 30.4954C9.7545 30.3152 9.63671 30.1616 9.47518 30.0684C9.31365 29.9751 9.1218 29.9499 8.94157 29.9981L5.94502 30.801L9.64002 24.4011C9.90127 24.4946 10.1748 24.562 10.4574 24.6005C11.1544 24.6953 11.7755 25.0538 12.206 25.61C12.7525 26.316 13.501 26.8016 14.3206 27.0328L10.6012 33.4749ZM16.4355 25.5844C15.3308 26.0366 14.0489 25.6931 13.3182 24.7492C12.6604 23.8994 11.7117 23.3516 10.6468 23.2069C9.46407 23.046 8.5256 22.1076 8.36485 20.9248C8.22005 19.86 7.6723 18.9113 6.82252 18.2534C5.87857 17.5228 5.53511 16.2409 5.98722 15.1362C6.39432 14.1416 6.39432 13.0461 5.98722 12.0516C5.53511 10.9469 5.87857 9.66493 6.82252 8.93428C7.6723 8.27647 8.22005 7.32781 8.36485 6.26291C8.52567 5.08014 9.46407 4.14168 10.6468 3.98085C11.7117 3.83612 12.6604 3.28838 13.3182 2.43859C13.8335 1.77284 14.6228 1.40582 15.4309 1.40582C15.7687 1.40582 16.1098 1.47003 16.4354 1.60329C17.4301 2.01032 18.5256 2.01032 19.5201 1.60329C20.6247 1.15111 21.9067 1.49464 22.6374 2.43859C23.2952 3.28838 24.2438 3.83612 25.3086 3.98085C26.4914 4.14168 27.4298 5.08007 27.5906 6.26291C27.7354 7.32781 28.2832 8.27647 29.133 8.93428C30.0769 9.66493 30.4204 10.9468 29.9683 12.0516C29.5612 13.0461 29.5612 14.1416 29.9683 15.1362C30.4204 16.2409 30.0769 17.5228 29.133 18.2534C28.2832 18.9112 27.7354 19.8599 27.5906 20.9247C27.4298 22.1076 26.4914 23.046 25.3087 23.2068C24.2438 23.3515 23.2951 23.8993 22.6373 24.7491C21.9066 25.6931 20.6247 26.0365 19.5201 25.5844C18.5255 25.1774 17.4301 25.1774 16.4355 25.5844ZM27.0584 29.9981C26.6831 29.8975 26.2977 30.1203 26.1971 30.4954L25.3987 33.4749L21.673 27.0217C22.4777 26.7862 23.2115 26.3051 23.7497 25.61C24.1802 25.0537 24.8012 24.6952 25.4982 24.6005C25.794 24.5602 26.0797 24.4876 26.3519 24.3872L30.0548 30.801L27.0584 29.9981Z" fill="#E96E34"/>
<path d="M14.782 10.9927L12.594 13.1806C12.4622 13.3124 12.3881 13.4913 12.3881 13.6778C12.3881 13.8643 12.4622 14.0432 12.594 14.1751L16.6976 18.2787C16.8295 18.4106 17.0084 18.4847 17.1949 18.4847C17.3814 18.4847 17.5603 18.4106 17.6921 18.2787L23.4059 12.565C23.6805 12.2904 23.6805 11.8451 23.4059 11.5705L21.218 9.38249C21.0861 9.25063 20.9072 9.17651 20.7207 9.17651C20.5342 9.17651 20.3553 9.25063 20.2235 9.38249L17.1949 12.4111L15.7767 10.9928C15.6448 10.8609 15.4659 10.7868 15.2794 10.7868C15.0928 10.7867 14.9139 10.8608 14.782 10.9927ZM16.6975 13.9029C16.8294 14.0347 17.0083 14.1088 17.1948 14.1088C17.3813 14.1088 17.5602 14.0347 17.6921 13.9029L20.7206 10.8743L21.9141 12.0677L17.1948 16.787L14.0858 13.6779L15.2793 12.4845L16.6975 13.9029Z" fill="#E96E34"/>
<path d="M27.142 13.8305C27.142 11.9625 26.5822 10.1659 25.5231 8.63493C24.4888 7.14007 23.0522 5.99697 21.3685 5.32932C21.0074 5.18621 20.5988 5.3628 20.4556 5.72383C20.3124 6.08487 20.4891 6.49359 20.85 6.63677C23.8179 7.81363 25.7356 10.6374 25.7356 13.8305C25.7356 18.0959 22.2654 21.5661 18.0001 21.5661C13.7347 21.5661 10.2645 18.0959 10.2645 13.8305C10.2645 10.6373 12.1822 7.81356 15.1501 6.6367C15.5111 6.49352 15.6878 6.0848 15.5446 5.72376C15.4014 5.36273 14.9926 5.18607 14.6316 5.32925C12.9479 5.99697 11.5113 7.14 10.477 8.63486C9.41788 10.1658 8.85803 11.9624 8.85803 13.8305C8.85803 18.8714 12.9591 22.9725 18.0001 22.9725C23.041 22.9726 27.142 18.8715 27.142 13.8305Z" fill="#E96E34"/>
<path d="M18 6.09469C18.1849 6.09469 18.3664 6.02015 18.4971 5.88865C18.6279 5.75785 18.7032 5.57712 18.7032 5.39146C18.7032 5.20651 18.628 5.02508 18.4971 4.89428C18.3664 4.76348 18.1849 4.68823 18 4.68823C17.815 4.68823 17.6336 4.76348 17.5028 4.89428C17.372 5.02508 17.2968 5.20651 17.2968 5.39146C17.2968 5.57712 17.372 5.75785 17.5028 5.88865C17.6336 6.02015 17.815 6.09469 18 6.09469Z" fill="#E96E34"/>
</g>
<defs>
<clipPath id="clip0">
<rect width="36" height="36" fill="white"/>
</clipPath>
</defs>
</svg>
