<svg width="36" height="36" viewBox="0 0 36 36" fill="none" xmlns="http://www.w3.org/2000/svg">
<path d="M10.1249 2.60181H28.6871C30.2404 2.60181 31.4996 3.86101 31.4996 5.41426V23.9765C31.4996 25.5297 30.2404 26.7889 28.6871 26.7889H10.1249C8.57165 26.7889 7.31244 25.5297 7.31244 23.9765V5.41426C7.31244 3.86094 8.57165 2.60181 10.1249 2.60181Z" fill="#FBEAC0"/>
<path d="M19.406 6.76797L16.0311 9.18689V2.60181H22.781V9.18689L19.406 6.76797Z" fill="white"/>
<path d="M8.69162 31.9926H18.2991C21.8692 31.9926 25.3907 31.1648 28.587 29.5744L34.1206 26.8208C35.2738 26.247 35.6535 24.7863 34.9259 23.7235C34.3561 22.8914 33.2792 22.5755 32.3503 22.968L24.7516 26.1782C24.285 26.3753 23.7836 26.4769 23.277 26.4769H22.7086H17.1141H23.1023C24.2363 26.4769 25.1556 25.5576 25.1556 24.4236C25.1556 23.2895 24.2363 22.3703 23.1023 22.3703H18.9011L16.4479 21.2835C15.4823 20.8558 14.4378 20.6348 13.3817 20.6348C11.6994 20.6348 10.0621 21.1775 8.71292 22.1824L0.703186 28.1679L8.69162 31.9926Z" fill="white"/>
<path d="M0.703186 19.9688H8.71798V33.3982H0.703186V19.9688Z" fill="#E96E34"/>
<path d="M26.7485 18.8984C27.1367 18.8984 27.4516 18.5836 27.4516 18.1953C27.4516 17.807 27.1367 17.4922 26.7485 17.4922H22.0208C21.6325 17.4922 21.3177 17.807 21.3177 18.1953C21.3177 18.5836 21.6325 18.8984 22.0208 18.8984H26.7485Z" fill="#E96E34"/>
<path d="M35.506 23.3262C34.7762 22.2603 33.4055 21.8296 32.2026 22.2707V5.41425C32.2026 3.47577 30.6255 1.89868 28.687 1.89868H10.1248C8.18636 1.89868 6.60927 3.47577 6.60927 5.41425V9.18688C6.60927 9.57514 6.92413 9.88999 7.31239 9.88999C7.70064 9.88999 8.0155 9.57514 8.0155 9.18688V5.41425C8.0155 4.25116 8.96175 3.30491 10.1248 3.30491H15.3279V9.18681C15.3279 9.45041 15.4753 9.69186 15.7098 9.8123C15.9444 9.93267 16.2265 9.91186 16.4406 9.7583L19.4059 7.63293L22.3713 9.7583C22.493 9.84556 22.6366 9.88992 22.781 9.88992C22.8907 9.88992 23.0009 9.86426 23.1021 9.8123C23.3366 9.69186 23.484 9.45048 23.484 9.18681V3.30491H28.687C29.8501 3.30491 30.7964 4.25116 30.7964 5.41425V22.861L25.804 24.9702C25.8397 24.7934 25.8586 24.6106 25.8586 24.4235C25.8586 22.9036 24.6221 21.6671 23.1022 21.6671H19.0498L16.7326 20.6406C15.6707 20.1702 14.5432 19.9316 13.3817 19.9316C12.0056 19.9316 10.6377 20.2741 9.42102 20.9107V19.9687C9.42102 19.5805 9.10617 19.2656 8.71791 19.2656H8.0155V15.5148C8.0155 15.1266 7.70064 14.8117 7.31239 14.8117C6.92413 14.8117 6.60927 15.1266 6.60927 15.5148V19.2656H0.703114C0.314854 19.2656 0 19.5805 0 19.9687V33.3982C0 33.7864 0.314854 34.1013 0.703114 34.1013H8.71791C9.10617 34.1013 9.42102 33.7864 9.42102 33.3982V32.6956H18.299C21.9582 32.6956 25.624 31.834 28.9002 30.2038L34.4338 27.4503C35.1656 27.0861 35.7034 26.4235 35.9089 25.6324C36.1147 24.8412 35.9678 24.0007 35.506 23.3262ZM22.0778 7.81778L19.8155 6.1964C19.6931 6.10865 19.5495 6.06477 19.4059 6.06477C19.2624 6.06477 19.1188 6.10865 18.9964 6.1964L16.7341 7.81778V3.30491H22.0778V7.81778ZM1.40623 32.6951V20.6718H8.0148V32.6951H1.40623ZM34.548 25.2785C34.4447 25.6757 34.1748 26.0083 33.8073 26.1911L28.2737 28.9447C25.1911 30.4785 21.742 31.2893 18.299 31.2893H9.42102V22.5439C10.586 21.7645 11.9787 21.3377 13.3817 21.3377C14.3458 21.3377 15.2815 21.5357 16.1631 21.9262L18.6163 23.0129C18.706 23.0526 18.803 23.0732 18.9011 23.0732H23.1023C23.8468 23.0732 24.4525 23.6788 24.4525 24.4234C24.4525 25.1679 23.8468 25.7736 23.1023 25.7736H17.1141C16.7258 25.7736 16.411 26.0885 16.411 26.4767C16.411 26.865 16.7258 27.1798 17.1141 27.1798H23.277C23.8808 27.1798 24.4689 27.0607 25.0252 26.8257L32.6239 23.6155C33.2423 23.354 33.9664 23.5667 34.3456 24.1206C34.5775 24.4593 34.6513 24.8813 34.548 25.2785Z" fill="#E96E34"/>
<path d="M7.31219 13.0544C7.49712 13.0544 7.67852 12.9792 7.80923 12.8484C7.94072 12.7169 8.01532 12.5362 8.01532 12.3513C8.01532 12.1656 7.94072 11.985 7.80923 11.8535C7.67852 11.7227 7.49712 11.6482 7.31219 11.6482C7.1272 11.6482 6.94587 11.7227 6.81509 11.8535C6.6843 11.985 6.60907 12.1656 6.60907 12.3513C6.60907 12.5362 6.68423 12.7176 6.81509 12.8484C6.94587 12.9792 7.1272 13.0544 7.31219 13.0544Z" fill="#E96E34"/>
</svg>
