<svg width="36" height="36" viewBox="0 0 36 36" fill="none" xmlns="http://www.w3.org/2000/svg">
<path d="M26.2969 35.2969H0.703125V2.60156H26.2969V19.9688V35.2969Z" fill="white"/>
<path d="M30.6713 23.3438H21.9525C21.9525 21.4798 23.4635 19.9688 25.3275 19.9688H27.2963C29.1602 19.9688 30.6713 21.4798 30.6713 23.3438Z" fill="white"/>
<path d="M7.24219 28.125H10.6172V31.5H7.24219V28.125Z" fill="#E46F4A"/>
<path d="M7.24219 21.375H10.6172V24.75H7.24219V21.375Z" fill="#E46F4A"/>
<path d="M17.0859 0.703125H9.91406C8.86556 0.703125 8.01562 1.55306 8.01562 2.60156C8.01562 3.65006 8.86556 4.5 9.91406 4.5H17.0859C18.1344 4.5 18.9844 3.65006 18.9844 2.60156C18.9844 1.55306 18.1344 0.703125 17.0859 0.703125Z" fill="#E96E34"/>
<path d="M17.4375 23.3438H35.2969V26.7151H17.4375V23.3438Z" fill="#FBEAC0"/>
<path d="M32.5548 35.2968H20.0691L18.6766 26.7151H33.9472L32.5548 35.2968Z" fill="#FBEAC0"/>
<path d="M10.6172 27.4219H7.24219C6.85385 27.4219 6.53906 27.7367 6.53906 28.125V31.5C6.53906 31.8883 6.85385 32.2031 7.24219 32.2031H10.6172C11.0055 32.2031 11.3203 31.8883 11.3203 31.5V28.125C11.3203 27.7367 11.0055 27.4219 10.6172 27.4219ZM9.91406 30.7969H7.94531V28.8281H9.91406V30.7969Z" fill="#E96E34"/>
<path d="M11.3203 21.375C11.3203 20.9867 11.0055 20.6719 10.6172 20.6719H7.24219C6.85385 20.6719 6.53906 20.9867 6.53906 21.375V24.75C6.53906 25.1383 6.85385 25.4531 7.24219 25.4531H10.6172C11.0055 25.4531 11.3203 25.1383 11.3203 24.75V21.375ZM9.91406 24.0469H7.94531V22.0781H9.91406V24.0469Z" fill="#E96E34"/>
<path d="M21.2344 15.8909H14.3438C13.9554 15.8909 13.6406 16.2057 13.6406 16.594C13.6406 16.9823 13.9554 17.2971 14.3438 17.2971H21.2344C21.6227 17.2971 21.9375 16.9823 21.9375 16.594C21.9375 16.2057 21.6227 15.8909 21.2344 15.8909Z" fill="#E96E34"/>
<path d="M11.1144 15.2632C10.8398 14.9887 10.3946 14.9887 10.12 15.2632L8.37753 17.0057L7.73938 16.3676C7.46481 16.0931 7.01959 16.0931 6.74502 16.3676C6.47045 16.6421 6.47038 17.0874 6.74502 17.362L7.88035 18.4973C8.01219 18.6292 8.19107 18.7033 8.37753 18.7033C8.564 18.7033 8.74288 18.6292 8.87471 18.4973L11.1144 16.2576C11.389 15.983 11.389 15.5378 11.1144 15.2632Z" fill="#E96E34"/>
<path d="M21.2344 9.14087H14.3438C13.9554 9.14087 13.6406 9.45573 13.6406 9.84399C13.6406 10.2323 13.9554 10.5471 14.3438 10.5471H21.2344C21.6227 10.5471 21.9375 10.2323 21.9375 9.84399C21.9375 9.45573 21.6227 9.14087 21.2344 9.14087Z" fill="#E96E34"/>
<path d="M11.1143 8.51322C10.8398 8.23879 10.3946 8.23872 10.12 8.51322L8.3775 10.2557L7.73935 9.61755C7.46478 9.34305 7.01956 9.34305 6.74499 9.61755C6.47042 9.89212 6.47042 10.3373 6.74499 10.612L7.88032 11.7472C8.01764 11.8845 8.19757 11.9532 8.3775 11.9532C8.55743 11.9532 8.73743 11.8845 8.87468 11.7472L11.1143 9.50758C11.3889 9.23301 11.389 8.78779 11.1143 8.51322Z" fill="#E96E34"/>
<path d="M35.2969 22.6407H31.3125C30.9782 20.7261 29.3052 19.2657 27.2964 19.2657H27V15.3386C27 14.9503 26.6852 14.6355 26.2969 14.6355C25.9085 14.6355 25.5938 14.9503 25.5938 15.3386V19.2657H25.3275C23.3187 19.2657 21.6456 20.7261 21.3114 22.6407H14.3438C13.9554 22.6407 13.6406 22.9556 13.6406 23.3438C13.6406 23.7321 13.9554 24.0469 14.3438 24.0469H16.7344V26.7152C16.7344 27.1034 17.0492 27.4183 17.4375 27.4183H18.0785L18.3985 29.3906H14.3438C13.9554 29.3906 13.6406 29.7055 13.6406 30.0938C13.6406 30.482 13.9554 30.7969 14.3438 30.7969H18.6266L19.2427 34.5938H1.40625V3.30469H7.40981C7.71736 4.39861 8.72318 5.20312 9.91406 5.20312H17.0859C18.2768 5.20312 19.2826 4.39861 19.5902 3.30469H25.5938V9.01041C25.5938 9.39867 25.9085 9.71353 26.2969 9.71353C26.6852 9.71353 27 9.39867 27 9.01041V2.60156C27 2.2133 26.6852 1.89844 26.2969 1.89844H19.5902C19.2826 0.804516 18.2768 0 17.0859 0H9.91406C8.72318 0 7.71743 0.804516 7.40981 1.89844H0.703125C0.314789 1.89844 0 2.2133 0 2.60156V35.2969C0 35.6851 0.314789 36 0.703125 36H32.5549C32.8998 36 33.1937 35.7499 33.249 35.4095L34.5456 27.4184H35.2969C35.6852 27.4184 36 27.1035 36 26.7152V23.3439C36 22.9556 35.6852 22.6407 35.2969 22.6407ZM9.91406 1.40625H17.0859C17.7449 1.40625 18.281 1.94231 18.2812 2.60121V2.60156C18.2812 2.60156 18.2812 2.60177 18.2812 2.60191C18.281 3.26081 17.7449 3.79688 17.0859 3.79688H9.91406C9.25495 3.79688 8.71875 3.26067 8.71875 2.60156C8.71875 1.94245 9.25495 1.40625 9.91406 1.40625ZM34.5938 26.012H18.1406V24.0469H34.5938V26.012ZM25.3275 20.6719H27.2963C28.5263 20.6719 29.5649 21.5074 29.8743 22.6407H22.7495C23.059 21.5074 24.0975 20.6719 25.3275 20.6719ZM31.9567 34.5938H26.2969H20.6674L19.5031 27.4183H33.1209L31.9567 34.5938Z" fill="#E96E34"/>
<path d="M22.9467 32.9351C23.335 32.9351 23.6498 32.6202 23.6498 32.232V29.78C23.6498 29.3918 23.335 29.0769 22.9467 29.0769C22.5583 29.0769 22.2435 29.3918 22.2435 29.78V32.232C22.2435 32.6203 22.5583 32.9351 22.9467 32.9351Z" fill="#E96E34"/>
<path d="M26.3119 32.9351C26.7002 32.9351 27.015 32.6202 27.015 32.232V29.78C27.015 29.3918 26.7002 29.0769 26.3119 29.0769C25.9236 29.0769 25.6088 29.3918 25.6088 29.78V32.232C25.6088 32.6203 25.9236 32.9351 26.3119 32.9351Z" fill="#E96E34"/>
<path d="M29.6772 32.9351C30.0656 32.9351 30.3804 32.6202 30.3804 32.232V29.78C30.3804 29.3918 30.0656 29.0769 29.6772 29.0769C29.2889 29.0769 28.9741 29.3918 28.9741 29.78V32.232C28.9741 32.6203 29.2889 32.9351 29.6772 32.9351Z" fill="#E96E34"/>
<path d="M26.2969 11.4714C26.112 11.4714 25.9305 11.5467 25.7998 11.6775C25.669 11.8082 25.5938 11.9896 25.5938 12.1746C25.5938 12.3596 25.669 12.5409 25.7998 12.6717C25.9305 12.8025 26.112 12.8777 26.2969 12.8777C26.4818 12.8777 26.6632 12.8025 26.794 12.6717C26.9248 12.5408 27 12.3596 27 12.1746C27 11.9896 26.9248 11.8082 26.794 11.6775C26.6632 11.5467 26.4818 11.4714 26.2969 11.4714Z" fill="#E96E34"/>
</svg>
