<svg width="24" height="24" viewBox="0 0 24 24" fill="none" xmlns="http://www.w3.org/2000/svg">
<path d="M23.6 18.6667H6.8C6.69391 18.6667 6.59217 18.6152 6.51716 18.5235C6.44214 18.4318 6.4 18.3074 6.4 18.1778V14.011L5.2456 14.5756C4.95959 14.7158 4.64041 14.7158 4.3544 14.5756L3.2 14.011V15.2444C3.2 15.3741 3.15786 15.4985 3.08284 15.5901C3.00783 15.6818 2.90609 15.7333 2.8 15.7333H0.4C0.293913 15.7333 0.192171 15.6818 0.117157 15.5901C0.0421429 15.4985 0 15.3741 0 15.2444V4.48889C0 4.35923 0.0421429 4.23488 0.117157 4.14319C0.192171 4.05151 0.293913 4 0.4 4H2.8C2.90609 4 3.00783 4.05151 3.08284 4.14319C3.15786 4.23488 3.2 4.35923 3.2 4.48889V4.97778H11.6C11.7061 4.97781 11.8078 5.02933 11.8828 5.12102L13.3656 6.93333H23.6C23.7061 6.93333 23.8078 6.98484 23.8828 7.07653C23.9579 7.16821 24 7.29256 24 7.42222V18.1778C24 18.3074 23.9579 18.4318 23.8828 18.5235C23.8078 18.6152 23.7061 18.6667 23.6 18.6667ZM2.4 4.97778H0.799999V14.7556H2.4V4.97778ZM11.4344 5.95556H3.2V12.9579L4.6512 13.6673C4.74654 13.7142 4.85306 13.7142 4.9484 13.6673L6.6512 12.8362C6.69849 12.8128 6.74898 12.8005 6.8 12.8H10.4C10.6122 12.8 10.8157 12.697 10.9657 12.5136C11.1157 12.3302 11.2 12.0815 11.2 11.8222C11.2 11.5629 11.1157 11.3142 10.9657 11.1308C10.8157 10.9475 10.6122 10.8444 10.4 10.8444H5.2V9.86667H6.4V7.42222C6.4 7.29256 6.44214 7.16821 6.51716 7.07653C6.59217 6.98484 6.69391 6.93333 6.8 6.93333H12.2344L11.4344 5.95556ZM23.2 7.91111H7.2V9.86667H10.4C10.8243 9.86667 11.2313 10.0727 11.5314 10.4394C11.8314 10.8062 12 11.3036 12 11.8222C12 12.3409 11.8314 12.8383 11.5314 13.205C11.2313 13.5717 10.8243 13.7778 10.4 13.7778H7.2V17.6889H23.2V7.91111Z" fill="black"/>
<path d="M22.4001 9.37777V11.3333H21.6001V9.86666H20.4001V8.88889H22.0001C22.1062 8.88889 22.208 8.94039 22.283 9.03208C22.358 9.12376 22.4001 9.24811 22.4001 9.37777Z" fill="black"/>
<path d="M21.6001 14.2667H22.4001V16.2222C22.4001 16.3519 22.358 16.4762 22.283 16.5679C22.208 16.6596 22.1062 16.7111 22.0001 16.7111H20.4001V15.7333H21.6001V14.2667Z" fill="black"/>
<path d="M8.8 15.7333H10V16.7111H8.4C8.29391 16.7111 8.19217 16.6596 8.11716 16.5679C8.04214 16.4762 8 16.3519 8 16.2222V14.2667H8.8V15.7333Z" fill="black"/>
<circle cx="15.3333" cy="12.6667" r="3.33333" fill="#E96E34"/>
</svg>
