<?xml version="1.0" encoding="utf-8"?>
<!-- Generator: Adobe Illustrator 25.0.0, SVG Export Plug-In . SVG Version: 6.00 Build 0)  -->
<svg version="1.1" id="Layer_1" xmlns="http://www.w3.org/2000/svg" xmlns:xlink="http://www.w3.org/1999/xlink" x="0px" y="0px"
	 viewBox="0 0 69.4 35" style="enable-background:new 0 0 69.4 35;" xml:space="preserve">
<style type="text/css">
	.st0{fill:#E56D30;}
	.st1{fill:#FFFFFF;}
	.st2{fill:url(#SVGID_1_);}
	.st3{fill:#D77443;}
	.st4{fill:#DB7443;}
</style>
<g>
	<path class="st1" d="M29.6,13.14c0.05,1.64,0.49,3.26,1.31,4.69c0.24,0.45,0.59,0.84,0.88,1.26c0.38,0.44,0.79,0.87,1.24,1.24
		c5.25,4.55,14.04,3.09,17.21-2.81c0-0.01,0-0.03,0-0.04c-0.01-0.53-0.06-1.05-0.16-1.57c-0.1-0.51-0.25-1.01-0.44-1.5
		c-0.19-0.48-0.42-0.95-0.7-1.39c-0.27-0.44-0.59-0.86-0.94-1.24c-0.35-0.39-0.74-0.76-1.16-1.07c-0.45-0.32-0.93-0.62-1.42-0.88
		c-0.48-0.25-0.98-0.47-1.49-0.66C43.41,9,42.89,8.86,42.36,8.76c-0.53-0.1-1.06-0.16-1.6-0.16c-0.54-0.01-1.08,0.03-1.61,0.11
		c-0.54,0.09-1.06,0.23-1.57,0.41c-0.53,0.19-1.03,0.44-1.51,0.74c0,0-1.07,0.9-0.36,1.64c0.59,0.62,1.78-0.21,1.78-0.21
		c3.07-1.86,7.37,0.31,7.38,3.98c0.07,3.58-3.35,5.55-6.61,4.83c-3.83-1.01-5.61-5.38-4.51-9c1.3-4.77,6.68-7.21,10.4-4.31
		c1.05,0.77,1.87,1.87,2.28,3.12c2.38,1.48,3.93,3.99,4.16,6.78c0.47-1.11,0.71-2.32,0.74-3.52C51.02,0.14,29.95,0.11,29.6,13.14"/>
	<path class="st1" d="M52.51,9.41c0,0.02,0.01,0.04,0.01,0.04c-5.74-14.05-29.21-7.42-24.12,7.93c0.49,1.34,1.26,2.54,2.16,3.63
		l0.78,0.79l0.06,0.05c-4.37,2.51-8.98-0.97-8.98-0.97c-0.06-0.51,4.4,0.08,4.12-1.91c-0.28-1.99-1.8-1.81-2.4-1.45
		c-4.89,2.93-6.48,0.38-8.05-2.1c2.06,0.27,3.24,0.64,3.99,0.24c0.55-0.29,1.09-0.59,1.21-1.24c0.52-2.75-1.11-3.61-3.97-2.44
		c-5.17,2.1-8.23-1.79-8.23-1.79c5.23,1.52,5.4-6.12,12.97-1.6c2.94,1.39,4.54-3.85-2.55-3.62c3.15-4.96,8.85,1.46,11.1-1.32
		c-2.53-0.17-3.79-2.09-3.98-2.39c0.32,0.06,0.66,0.06,0.98,0.06c0.6,0.02,1.2,0.01,1.8-0.01c0.8-0.02,1.6-0.07,2.39-0.16
		c0.75-0.09,1.44-0.26,2.18-0.43c3.67-0.87,7.46-1.26,11.06,0.14c0.28,0.11,0.56,0.23,0.83,0.35c0.33,0.16,0.66,0.33,0.98,0.52
		c0.87,0.51,1.67,1.12,2.39,1.83c0.61,0.6,1.15,1.27,1.62,1.99c0.38,0.59,0.71,1.2,0.99,1.84c0.2,0.45,0.37,0.92,0.51,1.4
		C52.41,9,52.47,9.21,52.51,9.41"/>
	<path class="st1" d="M11.58,26.23c-2.36,0-4.22,1.82-4.22,4.02c0,1.78,1.29,3.01,3.27,3.01c1.14,0,2.68-0.35,2.88-1.42l0.44-2.21
		h-2.62l-0.25,1.24h1.1l-0.09,0.47c-0.08,0.38-0.81,0.5-1.29,0.5c-1.29,0-1.69-0.73-1.69-1.65c0-1.15,0.85-2.53,2.44-2.53
		c0.38,0,1.08,0.09,1.01,0.51l-0.1,0.49h1.5l0.22-1.1C14.42,26.5,12.51,26.23,11.58,26.23"/>
	<polygon class="st1" points="15.06,29.7 14.78,31.13 17.77,31.13 18.04,29.7 	"/>
	<path class="st1" d="M24.24,26.56c-0.46-0.15-0.92-0.22-1.53-0.22h-2.86l-0.24,1.24h0.75l-0.84,4.33h-0.75l-0.24,1.24h3.34
		c0.57,0,1.04-0.07,1.53-0.25c1.52-0.58,2.5-2.15,2.5-3.81C25.9,27.79,25.31,26.94,24.24,26.56 M22.89,31.58
		c-0.3,0.15-0.66,0.23-1.06,0.23h-0.59l0.8-4.14h0.59c0.33,0,0.58,0.04,0.82,0.14c0.49,0.22,0.74,0.67,0.74,1.4
		C24.19,30.22,23.68,31.18,22.89,31.58"/>
	<path class="st1" d="M29.08,28.13c-1.62,0-2.83,1.28-2.83,2.99c0,1.15,0.83,2.14,2.5,2.14c0.57,0,1.06-0.16,1.41-0.32
		c0.21-0.09,0.4-0.2,0.57-0.31l-0.42-1.22c-0.14,0.1-0.3,0.18-0.46,0.25c-0.28,0.12-0.63,0.25-1,0.25c-0.58,0-0.96-0.31-0.96-0.81
		c0-0.03,0.01-0.04,0.01-0.07v-0.03h3.08c0.04-0.1,0.07-0.2,0.09-0.3c0.05-0.18,0.09-0.42,0.09-0.64
		C31.17,28.92,30.47,28.13,29.08,28.13 M29.56,30.01c-0.01,0.03-0.01,0.05-0.01,0.08h-1.45c0.15-0.39,0.46-0.72,0.94-0.72
		c0.33,0,0.52,0.23,0.52,0.53C29.57,29.93,29.57,29.98,29.56,30.01"/>
	<path class="st1" d="M33.87,31.88c-0.27,0-0.37-0.09-0.37-0.31c0-0.1,0.02-0.23,0.05-0.37l0.93-4.85h-2.31l-0.23,1.19h0.67
		l-0.74,3.81c-0.05,0.22-0.07,0.43-0.07,0.62c0,1.08,0.77,1.24,1.52,1.24c0.14,0,0.25,0,0.35-0.01l0.14-0.02l0.26-1.29h-0.06
		C33.98,31.87,33.94,31.88,33.87,31.88"/>
	<path class="st1" d="M36.28,26.34l-0.25,1.28h1.61l0.25-1.28H36.28z M37.27,31.96c-0.27,0-0.37-0.12-0.37-0.34
		c0-0.1,0.01-0.21,0.04-0.31l0.6-3.06h-2.31L35,29.43h0.67l-0.39,2c-0.05,0.24-0.08,0.43-0.08,0.61c0,1.07,0.78,1.13,1.53,1.13
		c0.14,0,0.25,0,0.35-0.01l0.14-0.02l0.23-1.19h-0.06C37.36,31.96,37.31,31.96,37.27,31.96"/>
	<path class="st1" d="M41.57,28.24l-0.24,1.19h0.44l-0.9,1.77c-0.08,0.14-0.14,0.31-0.19,0.44c-0.03,0.07-0.05,0.14-0.07,0.21h-0.04
		c0.01-0.07,0.01-0.14,0.01-0.21c0-0.12,0.01-0.29-0.02-0.44l-0.22-1.77h0.44l0.24-1.19h-2.56l-0.24,1.19h0.55l0.64,3.71h1.94
		l2.08-3.71h0.55l0.24-1.19H41.57z"/>
	<path class="st1" d="M46.89,28.13c-1.62,0-2.83,1.28-2.83,2.99c0,1.15,0.83,2.14,2.5,2.14c0.57,0,1.06-0.16,1.41-0.32
		c0.21-0.09,0.4-0.2,0.57-0.31l-0.42-1.22c-0.14,0.1-0.3,0.18-0.46,0.25c-0.28,0.12-0.63,0.25-1,0.25c-0.58,0-0.96-0.31-0.96-0.81
		c0-0.03,0.01-0.04,0.01-0.07v-0.03h3.08c0.04-0.1,0.07-0.2,0.09-0.3c0.05-0.18,0.09-0.42,0.09-0.64
		C48.98,28.92,48.28,28.13,46.89,28.13 M47.37,30.01c-0.01,0.03-0.01,0.05-0.01,0.08h-1.45c0.15-0.39,0.46-0.72,0.94-0.72
		c0.33,0,0.52,0.23,0.52,0.53C47.38,29.93,47.38,29.98,47.37,30.01"/>
	<path class="st1" d="M53.85,28.17c-0.03-0.01-0.1-0.01-0.2-0.01c-0.69,0-1.38,0.55-1.69,1.22h-0.02c0.07-0.22,0.13-0.54,0.13-0.68
		c0-0.3-0.2-0.45-0.59-0.45h-1.55l-0.24,1.19h0.46c0.16,0,0.2,0.1,0.17,0.21l-0.68,3.5h1.65l0.33-1.75
		c0.23-1.29,1.19-1.63,1.67-1.63c0.1,0,0.17,0,0.24,0.01l0.09,0.02l0.31-1.62C53.91,28.18,53.88,28.18,53.85,28.17"/>
	<path class="st1" d="M57.34,28.24l-0.23,1.19h0.45l-0.93,1.82c-0.09,0.16-0.15,0.31-0.2,0.43l-0.08,0.21h-0.04l0.02-0.21
		c0.01-0.12,0.02-0.28-0.01-0.43l-0.25-1.82h0.48l0.23-1.19h-2.64l-0.23,1.19h0.55l0.85,3.94l-0.03,0.05
		c-0.19,0.3-0.54,0.4-0.88,0.4c-0.26,0-0.49,1.32-0.03,1.32c0.89,0,1.73-0.34,2.45-1.57l2.39-4.14h0.5l0.23-1.19H57.34z"/>
</g>
</svg>
