<svg width="24" height="24" viewBox="0 0 24 24" fill="none" xmlns="http://www.w3.org/2000/svg">
<g clip-path="url(#clip0)">
<rect x="0.5" y="4.5" width="21" height="15" rx="2.5" stroke="black"/>
<rect x="13" y="7" width="6" height="2" rx="1" fill="#E96E34"/>
<path d="M6.99997 16.9999C6.75464 16.9999 6.55553 16.8319 6.55553 16.625V12.8758C6.55553 12.2556 5.95731 11.751 5.22221 11.751C4.4871 11.751 3.88888 12.2556 3.88888 12.8758V16.625C3.88888 16.8319 3.68977 16.9999 3.44444 16.9999C3.19911 16.9999 3 16.8319 3 16.625V12.8758C3 11.8425 3.99644 11.0012 5.22221 11.0012C6.44798 11.0012 7.44441 11.8425 7.44441 12.8758V16.625C7.44441 16.8319 7.2453 16.9999 6.99997 16.9999Z" fill="black"/>
<path d="M6.99997 14.7502H3.44444C3.19911 14.7502 3 14.5822 3 14.3753C3 14.1683 3.19911 14.0004 3.44444 14.0004H6.99997C7.2453 14.0004 7.44441 14.1683 7.44441 14.3753C7.44441 14.5822 7.2453 14.7502 6.99997 14.7502Z" fill="black"/>
<path d="M10.5555 16.9998C10.3102 16.9998 10.1111 16.8318 10.1111 16.6249V11.376C10.1111 11.169 10.3102 11.0011 10.5555 11.0011C10.8009 11.0011 11 11.169 11 11.376V16.6249C11 16.8318 10.8009 16.9998 10.5555 16.9998Z" fill="black"/>
<path d="M12.3335 11.7509H8.77794C8.53261 11.7509 8.3335 11.583 8.3335 11.376C8.3335 11.169 8.53261 11.0011 8.77794 11.0011H12.3335C12.5788 11.0011 12.7779 11.169 12.7779 11.376C12.7779 11.583 12.5788 11.7509 12.3335 11.7509Z" fill="black"/>
<path d="M18.5556 16.9998C18.3103 16.9998 18.1112 16.8318 18.1112 16.6249V12.614L17.1476 13.8332C16.9823 14.0417 16.5734 14.0417 16.4081 13.8332L15.4445 12.614V16.6249C15.4445 16.8318 15.2454 16.9998 15.0001 16.9998C14.7548 16.9998 14.5557 16.8318 14.5557 16.6249V11.376C14.5557 11.211 14.6846 11.0648 14.8712 11.0168C15.0605 10.9696 15.2605 11.031 15.3699 11.1675L16.7779 12.9491L18.1858 11.1675C18.2943 11.0303 18.4943 10.9673 18.6845 11.0168C18.8712 11.0648 19.0001 11.211 19.0001 11.376V16.6249C19.0001 16.8318 18.801 16.9998 18.5556 16.9998Z" fill="black"/>
</g>
<defs>
<clipPath id="clip0">
<rect width="24" height="24" fill="white"/>
</clipPath>
</defs>
</svg>
