<svg width="20" height="20" viewBox="0 0 20 20" fill="none" xmlns="http://www.w3.org/2000/svg">
<path fill-rule="evenodd" clip-rule="evenodd" d="M10.0004 7.33333C9.24003 7.33333 8.62152 7.97743 8.62152 8.77005C8.62152 9.56184 9.24003 10.2051 10.0004 10.2051C10.7607 10.2051 11.3792 9.56184 11.3792 8.77005C11.3792 7.97743 10.7607 7.33333 10.0004 7.33333ZM10.0004 11.4359C8.58846 11.4359 7.4397 10.2404 7.4397 8.77006C7.4397 7.29888 8.58846 6.10257 10.0004 6.10257C11.4123 6.10257 12.5611 7.29888 12.5611 8.77006C12.5611 10.2404 11.4123 11.4359 10.0004 11.4359Z" fill="#E96E34"/>
<mask id="mask0" mask-type="alpha" maskUnits="userSpaceOnUse" x="3" y="2" width="14" height="16">
<path fill-rule="evenodd" clip-rule="evenodd" d="M3.5 2H16.5V18H3.5V2Z" fill="white"/>
</mask>
<g mask="url(#mask0)">
<path fill-rule="evenodd" clip-rule="evenodd" d="M9.99967 3.23077C7.0671 3.23077 4.68133 5.73908 4.68133 8.82093C4.68133 12.7422 9.1125 16.5625 9.99967 16.766C10.8869 16.5616 15.318 12.7413 15.318 8.82093C15.318 5.73908 12.9322 3.23077 9.99967 3.23077ZM9.99971 18C8.58621 18 3.49951 13.4445 3.49951 8.82092C3.49951 5.05969 6.41554 2 9.99971 2C13.5839 2 16.4999 5.05969 16.4999 8.82092C16.4999 13.4445 11.4132 18 9.99971 18Z" fill="#E96E34"/>
</g>
</svg>
