<svg width="24" height="24" viewBox="0 0 24 24" fill="none" xmlns="http://www.w3.org/2000/svg">
<g clip-path="url(#clip0)">
<rect x="0.5" y="4.70001" width="20" height="14" rx="2.5" stroke="black"/>
<path fill-rule="evenodd" clip-rule="evenodd" d="M6.5001 2H20.5001C21.8808 2 23.0001 3.11929 23.0001 4.5V12.5C23.0001 13.3179 22.6073 14.0441 22.0001 14.5002V15.6632C23.1826 15.1015 24.0001 13.8962 24.0001 12.5V4.5C24.0001 2.567 22.4331 1 20.5001 1H6.5001C5.1039 1 3.89865 1.81753 3.33691 3H4.49992C4.95602 2.39278 5.68219 2 6.5001 2Z" fill="black"/>
<rect x="12" y="12" width="3.80758" height="3.80758" rx="1.90379" fill="#E96E34"/>
<rect opacity="0.5" x="14.1924" y="12" width="3.80758" height="3.80758" rx="1.90379" fill="#E96E34"/>
<rect x="3" y="12" width="6" height="1" fill="black"/>
<rect x="3" y="14" width="3" height="1" fill="black"/>
</g>
<defs>
<clipPath id="clip0">
<rect width="24" height="24" fill="white"/>
</clipPath>
</defs>
</svg>
