<svg width="48" height="32" viewBox="0 0 48 32" fill="none" xmlns="http://www.w3.org/2000/svg">
<g clip-path="url(#clip0)">
<path d="M20.3044 12.0137C20.3501 13.5131 20.7518 14.9943 21.5004 16.3017C21.7195 16.7131 22.0391 17.0697 22.3038 17.4537C22.6508 17.856 23.0251 18.2491 23.4359 18.5874C28.229 22.7474 36.254 21.4125 39.1481 16.0183C39.1481 16.0091 39.1481 15.9908 39.1481 15.9817C39.139 15.4971 39.0933 15.0217 39.002 14.5463C38.9107 14.08 38.7738 13.6228 38.6003 13.1748C38.4269 12.736 38.2169 12.3063 37.9613 11.904C37.7147 11.5017 37.4226 11.1177 37.1031 10.7703C36.7835 10.4137 36.4275 10.0754 36.044 9.79197C35.6332 9.4994 35.195 9.22511 34.7476 8.9874C34.3094 8.75883 33.8529 8.55768 33.3873 8.38397C32.9125 8.22854 32.4378 8.10054 31.9539 8.00911C31.47 7.91768 30.9862 7.86283 30.4932 7.86283C30.0002 7.85368 29.5072 7.89026 29.0233 7.9634C28.5303 8.04568 28.0555 8.17368 27.5899 8.33826C27.1061 8.51197 26.6496 8.74054 26.2113 9.01483C26.2113 9.01483 25.2345 9.83768 25.8827 10.5143C26.4213 11.0811 27.5078 10.3223 27.5078 10.3223C30.3106 8.62168 34.2363 10.6057 34.2455 13.9611C34.3094 17.2343 31.187 19.0354 28.2107 18.3771C24.7141 17.4537 23.089 13.4583 24.0933 10.1485C25.2801 5.7874 30.1919 3.55654 33.5881 6.20797C34.5468 6.91197 35.2954 7.91768 35.6697 9.06054C37.8426 10.4137 39.2577 12.7085 39.4676 15.2594C39.8967 14.2445 40.1159 13.1383 40.1432 12.0411C39.8602 0.12797 20.624 0.100541 20.3044 12.0137Z" fill="white"/>
<path d="M41.2204 8.60341C41.2204 8.6217 41.2296 8.63999 41.2296 8.63999C35.9891 -4.20573 14.5618 1.85598 19.2088 15.8903C19.6561 17.1154 20.3591 18.2126 21.1808 19.2091L21.8929 19.9314L21.9477 19.9771C17.958 22.272 13.7492 19.0903 13.7492 19.0903C13.6944 18.624 17.7663 19.1634 17.5106 17.344C17.255 15.5246 15.8673 15.6891 15.3195 16.0183C10.8551 18.6971 9.40348 16.3657 7.97012 14.0983C9.85084 14.3451 10.9281 14.6834 11.6129 14.3177C12.115 14.0526 12.608 13.7783 12.7176 13.184C13.1923 10.6697 11.7042 9.88341 9.09307 10.9531C4.37303 12.8731 1.57935 9.31656 1.57935 9.31656C6.35417 10.7063 6.50937 3.72113 13.4205 7.8537C16.1047 9.12456 17.5654 4.3337 11.0925 4.54399C13.9683 0.00912867 19.1722 5.87884 21.2264 3.33713C18.9166 3.1817 17.7663 1.42627 17.5928 1.15199C17.885 1.20684 18.1954 1.20684 18.4875 1.20684C19.0353 1.22513 19.5831 1.21599 20.1309 1.1977C20.8612 1.17941 21.5916 1.1337 22.3129 1.05141C22.9976 0.969129 23.6275 0.8137 24.3031 0.658272C27.6537 -0.137157 31.1139 -0.493728 34.4006 0.786272C34.6562 0.886843 34.9118 0.996557 35.1583 1.10627C35.4596 1.25256 35.7609 1.40799 36.053 1.5817C36.8473 2.04799 37.5777 2.6057 38.235 3.25484C38.7919 3.80341 39.2849 4.41599 39.714 5.07427C40.061 5.6137 40.3622 6.17141 40.6179 6.75656C40.8005 7.16799 40.9557 7.5977 41.0835 8.03656C41.1291 8.22856 41.1839 8.42056 41.2204 8.60341Z" fill="white"/>
<path d="M3.85273 23.9817C1.69812 23.9817 0 25.6457 0 27.6571C0 29.2845 1.17773 30.4091 2.98541 30.4091C4.02619 30.4091 5.43216 30.0891 5.61476 29.1108L6.01646 27.0903H3.62448L3.39624 28.224H4.40051L4.31834 28.6537C4.2453 29.0011 3.57884 29.1108 3.14061 29.1108C1.96288 29.1108 1.59769 28.4434 1.59769 27.6023C1.59769 26.5508 2.37372 25.2891 3.82534 25.2891C4.17227 25.2891 4.81134 25.3714 4.74744 25.7554L4.65614 26.2034H6.02559L6.22644 25.1977C6.44556 24.2285 4.70179 23.9817 3.85273 23.9817Z" fill="white"/>
<path d="M7.0298 27.1543L6.77417 28.4617H9.50395L9.75045 27.1543H7.0298Z" fill="white"/>
<path d="M15.411 24.2834C14.9911 24.1463 14.5711 24.0823 14.0142 24.0823H11.4031L11.184 25.216H11.8687L11.1018 29.1748H10.4171L10.198 30.3086H13.2473C13.7677 30.3086 14.1968 30.2446 14.6442 30.08C16.0319 29.5497 16.9266 28.1143 16.9266 26.5966C16.9266 25.408 16.3879 24.6308 15.411 24.2834ZM14.1785 28.8731C13.9046 29.0103 13.576 29.0834 13.2108 29.0834H12.6721L13.4025 25.2983H13.9412C14.2424 25.2983 14.4707 25.3348 14.6898 25.4263C15.1372 25.6274 15.3654 26.0388 15.3654 26.7063C15.3654 27.6297 14.8998 28.5074 14.1785 28.8731Z" fill="white"/>
<path d="M19.8298 25.7188C18.3508 25.7188 17.2461 26.889 17.2461 28.4525C17.2461 29.5039 18.0039 30.409 19.5285 30.409C20.0489 30.409 20.4963 30.2627 20.8158 30.1165C21.0075 30.0342 21.181 29.9336 21.3362 29.833L20.9527 28.7176C20.8249 28.809 20.6789 28.8822 20.5328 28.9462C20.2771 29.0559 19.9576 29.1748 19.6198 29.1748C19.0903 29.1748 18.7434 28.8913 18.7434 28.4342C18.7434 28.4068 18.7525 28.3976 18.7525 28.3702V28.3428H21.5644C21.601 28.2513 21.6283 28.1599 21.6466 28.0685C21.6922 27.9039 21.7288 27.6845 21.7288 27.4833C21.7379 26.441 21.0988 25.7188 19.8298 25.7188ZM20.268 27.4376C20.2589 27.465 20.2589 27.4833 20.2589 27.5108H18.9351C19.072 27.1542 19.3551 26.8525 19.7933 26.8525C20.0946 26.8525 20.268 27.0628 20.268 27.337C20.2771 27.3645 20.2771 27.4102 20.268 27.4376Z" fill="white"/>
<path d="M24.2028 29.1473C23.9563 29.1473 23.865 29.065 23.865 28.8639C23.865 28.7724 23.8833 28.6536 23.9107 28.5256L24.7597 24.0913H22.6508L22.4408 25.1793H23.0525L22.3769 28.6627C22.3312 28.8639 22.313 29.0559 22.313 29.2296C22.313 30.217 23.016 30.3633 23.7007 30.3633C23.8285 30.3633 23.9289 30.3633 24.0202 30.3542L24.1481 30.3359L24.3854 29.1564H24.3306C24.3033 29.1382 24.2667 29.1473 24.2028 29.1473Z" fill="white"/>
<path d="M26.403 24.0823L26.1747 25.2526H27.6446L27.8729 24.0823H26.403ZM27.3068 29.2206C27.0603 29.2206 26.969 29.1108 26.969 28.9097C26.969 28.8183 26.9781 28.7177 27.0055 28.6263L27.5533 25.8286H25.4444L25.2344 26.9074H25.8461L25.49 28.736C25.4444 28.9554 25.417 29.1291 25.417 29.2937C25.417 30.272 26.1291 30.3268 26.8138 30.3268C26.9416 30.3268 27.0421 30.3268 27.1333 30.3177L27.2612 30.2994L27.4711 29.2114H27.4164C27.389 29.2206 27.3433 29.2206 27.3068 29.2206Z" fill="white"/>
<path d="M31.2325 25.8193L31.0134 26.9073H31.4151L30.5934 28.5256C30.5204 28.6536 30.4656 28.809 30.42 28.9279C30.3926 28.9919 30.3743 29.0559 30.3561 29.1199H30.3195C30.3287 29.0559 30.3287 28.9919 30.3287 28.9279C30.3287 28.8182 30.3378 28.6628 30.3104 28.5256L30.1096 26.9073H30.5113L30.7304 25.8193H28.3932L28.1741 26.9073H28.6762L29.2605 30.2993H31.0317L32.9306 26.9073H33.4328L33.6519 25.8193H31.2325Z" fill="white"/>
<path d="M36.0896 25.7188C34.6105 25.7188 33.5059 26.889 33.5059 28.4525C33.5059 29.5039 34.2636 30.409 35.7883 30.409C36.3087 30.409 36.756 30.2627 37.0756 30.1165C37.2673 30.0342 37.4408 29.9336 37.596 29.833L37.2125 28.7176C37.0847 28.809 36.9386 28.8822 36.7925 28.9462C36.5369 29.0559 36.2174 29.1748 35.8796 29.1748C35.3501 29.1748 35.0031 28.8913 35.0031 28.4342C35.0031 28.4068 35.0123 28.3976 35.0123 28.3702V28.3428H37.8242C37.8607 28.2513 37.8881 28.1599 37.9064 28.0685C37.952 27.9039 37.9885 27.6845 37.9885 27.4833C37.9977 26.441 37.3586 25.7188 36.0896 25.7188ZM36.5278 27.4376C36.5187 27.465 36.5187 27.4833 36.5187 27.5108H35.1949C35.3318 27.1542 35.6148 26.8525 36.053 26.8525C36.3543 26.8525 36.5278 27.0628 36.5278 27.337C36.5369 27.3645 36.5369 27.4102 36.5278 27.4376Z" fill="white"/>
<path d="M42.4439 25.7555C42.4165 25.7463 42.3526 25.7463 42.2613 25.7463C41.6314 25.7463 41.0014 26.2492 40.7184 26.8618H40.7002C40.7641 26.6606 40.8189 26.3681 40.8189 26.2401C40.8189 25.9658 40.6363 25.8286 40.2802 25.8286H38.8651L38.646 26.9166H39.066C39.212 26.9166 39.2485 27.0081 39.2212 27.1086L38.6003 30.3086H40.1067L40.408 28.7086C40.618 27.5292 41.4944 27.2183 41.9327 27.2183C42.024 27.2183 42.0879 27.2183 42.1518 27.2275L42.234 27.2458L42.517 25.7646C42.4987 25.7646 42.4713 25.7646 42.4439 25.7555Z" fill="white"/>
<path d="M45.6303 25.8193L45.4203 26.9073H45.8311L44.9821 28.5713C44.8999 28.7176 44.8451 28.8548 44.7995 28.9645L44.7264 29.1565H44.6899L44.7082 28.9645C44.7173 28.8548 44.7264 28.7085 44.699 28.5713L44.4708 26.9073H44.909L45.119 25.8193H42.7088L42.4988 26.9073H43.0009L43.7769 30.5096L43.7495 30.5553C43.5761 30.8296 43.2565 30.9211 42.9461 30.9211C42.7088 30.9211 42.4988 32.1279 42.9187 32.1279C43.7313 32.1279 44.4982 31.817 45.1555 30.6925L47.3375 26.9073H47.794L48.004 25.8193H45.6303Z" fill="white"/>
</g>
<defs>
<clipPath id="clip0">
<rect width="48" height="32" fill="white"/>
</clipPath>
</defs>
</svg>
