<svg width="60" height="60" viewBox="0 0 60 60" fill="none" xmlns="http://www.w3.org/2000/svg">
<path d="M52.8455 5H7.32762C6.0345 5 5 6.03093 5 7.31959V52.6804C5 53.9691 6.0345 55 7.32762 55H52.8455C54.1387 55 55.1732 53.9691 55.1732 52.6804V7.31959C55.1732 6.03093 54.1387 5 52.8455 5Z" fill="url(#paint0_radial)"/>
<path d="M33.0177 48.9863C32.6728 48.9863 32.328 48.9004 31.9832 48.6426C31.6383 48.3849 31.4659 47.9553 31.4659 47.4399H36.2074C36.2074 46.7526 36.1212 46.1512 35.8625 45.6358C35.6901 45.1203 35.2591 44.6048 34.7418 44.2612C34.2246 43.9176 33.6211 43.7457 32.8452 43.7457C31.8107 43.7457 31.0349 44.0894 30.3452 44.6907C29.6555 45.378 29.3969 46.1512 29.3969 47.1821C29.3969 48.1272 29.7417 48.9004 30.3452 49.5017C30.9487 50.1031 31.8107 50.3608 33.0177 50.3608C34.397 50.3608 35.4315 49.8454 36.1212 48.8145L34.5694 48.299C33.9659 48.7285 33.5349 48.9863 33.0177 48.9863ZM32.759 45.0344C33.1901 45.0344 33.4487 45.1203 33.7073 45.378C33.9659 45.6358 34.0522 45.8935 34.1384 46.323H31.4659C31.5521 45.378 31.9832 45.0344 32.759 45.0344Z" fill="white"/>
<path d="M40.7764 48.9863C40.4316 48.9863 40.0867 48.9004 39.7419 48.6426C39.3971 48.3849 39.1384 47.9553 39.1384 47.4399H43.8799C43.8799 46.7526 43.7937 46.1512 43.5351 45.6358C43.3626 45.1203 42.9316 44.6048 42.4143 44.2612C41.8971 43.9176 41.2936 43.7457 40.5178 43.7457C39.4833 43.7457 38.7074 44.0894 38.0177 44.6907C37.3281 45.378 37.0694 46.1512 37.0694 47.1821C37.0694 48.1272 37.4143 48.9004 38.0177 49.5017C38.6212 50.1031 39.4833 50.3608 40.6902 50.3608C42.0695 50.3608 43.104 49.8454 43.7937 48.8145L42.2419 48.299C41.7247 48.7285 41.2074 48.9863 40.7764 48.9863ZM40.5178 45.0344C40.9488 45.0344 41.2074 45.1203 41.4661 45.378C41.7247 45.6358 41.8109 45.8935 41.8971 46.323H39.1384C39.3109 45.378 39.7419 45.0344 40.5178 45.0344Z" fill="white"/>
<path d="M34.828 13.0756C34.6556 13.0756 34.4832 12.9897 34.3108 12.9897C34.1384 12.9897 33.9659 12.9038 33.7935 12.9038H33.7073C33.5349 12.9038 33.3625 12.8179 33.1901 12.8179C33.1901 12.8179 33.1901 12.8179 33.1039 12.8179C31.9832 12.646 30.69 12.4742 29.2245 12.4742C31.2073 15.0515 34.7418 13.1615 34.828 13.0756Z" fill="white"/>
<path d="M48.1041 45.2921V43.8316H46.9834V23.9003C46.9834 23.9003 46.9834 22.268 46.811 21.4089C46.5523 19.6907 45.6041 16.6839 42.9316 14.1924C40.0867 11.4433 35.9487 9.811 30.6038 9.72509C29.5693 9.72509 29.0521 9.811 28.4486 10.756C28.19 11.0997 27.9314 11.7869 27.9314 11.7869C33.8797 11.6151 38.4488 12.9038 41.3798 15.6529C43.3626 17.457 44.1385 19.6048 44.4833 21.0653C44.742 22.0962 44.742 23.7285 44.742 23.7285V43.7457H43.9661V45.2062H44.742V48.5567C44.742 49.6735 45.2592 50.189 46.3799 50.189C46.8972 50.189 47.4144 50.1031 47.9317 49.8454V48.4708C47.673 48.5567 47.5006 48.6426 47.3282 48.6426C47.0696 48.6426 46.9834 48.6426 46.8972 48.5567C46.811 48.4708 46.811 48.299 46.811 48.0412V45.2921H48.1041Z" fill="white"/>
<path d="M26.9831 44.3471C26.552 44.6907 26.2934 45.1203 26.2072 45.5498V43.9175H23.2761V45.378H24.3968V48.8144H23.1899V50.2749H27.6728V48.8144H26.3796V48.0412C26.3796 47.5258 26.4658 47.0962 26.7245 46.6667C26.8969 46.323 27.2417 46.0653 27.5003 45.8935C27.8452 45.8076 28.2762 45.7217 28.7935 45.7217V43.8316C28.7072 43.8316 28.5348 43.8316 28.4486 43.8316C27.9314 43.8316 27.4141 44.0034 26.9831 44.3471Z" fill="white"/>
<path d="M21.2933 41.4261L19.2243 42.8866V43.9175H18.4485V45.378H19.2243V48.7285C19.2243 49.8454 19.7416 50.3608 20.8623 50.3608C21.3795 50.3608 21.8968 50.2749 22.414 50.0172V48.6426C22.1554 48.7285 21.983 48.8144 21.8106 48.8144C21.552 48.8144 21.4658 48.8144 21.3795 48.7285C21.2933 48.6426 21.2933 48.4708 21.2933 48.2131V45.4639H22.5003V44.0035H21.2933V41.4261V41.4261Z" fill="white"/>
<path d="M16.3795 46.4089C15.9484 46.2371 15.4312 46.1512 14.6553 45.9794C14.1381 45.8935 13.8794 45.8076 13.707 45.7217C13.6208 45.6358 13.5346 45.5498 13.5346 45.4639C13.5346 45.1203 13.7932 44.9485 14.3967 44.9485C15.1726 44.9485 15.6898 45.2062 15.776 45.6357H17.2416V43.7457H15.8622V44.0034C15.345 43.8316 14.8277 43.6598 14.2243 43.6598C13.5346 43.6598 12.9312 43.8316 12.5001 44.1753C12.0691 44.5189 11.8104 44.9485 11.8104 45.5498C11.8104 46.1512 12.0691 46.5808 12.5001 46.9244C12.9312 47.2681 13.707 47.5258 14.7415 47.6976C15.2588 47.7835 15.6036 47.8694 15.776 47.9553C15.9484 48.0412 16.0346 48.2131 16.0346 48.3849C16.0346 48.5567 15.9484 48.7285 15.776 48.8144C15.6036 48.9004 15.345 48.9863 15.0002 48.9863C14.6553 48.9863 14.3105 48.9004 14.0519 48.7285C13.7932 48.5567 13.6208 48.299 13.6208 48.0412H12.1553V50.3608H13.6208V49.9313C13.8794 50.2749 14.3967 50.3608 15.1726 50.3608C15.9484 50.3608 16.6381 50.189 17.0691 49.7595C17.5002 49.3299 17.7588 48.8144 17.7588 48.2131C17.7588 47.7835 17.6726 47.4399 17.414 47.0962C17.1554 46.7526 16.8105 46.4949 16.3795 46.4089Z" fill="white"/>
<path d="M26.121 32.2337C25.5176 31.4605 24.7417 31.0309 23.621 30.7732C24.4831 30.5155 25.0865 30.0859 25.6038 29.3986C26.121 28.7113 26.3796 28.0241 26.3796 27.165C26.3796 25.7904 25.7762 24.5876 24.6555 23.6426C23.5348 22.6976 21.7244 22.2681 19.3968 22.2681C17.2416 22.2681 15.5174 22.6976 14.2243 23.5567C13.1036 24.3299 12.5001 25.3608 12.2415 26.7354C12.2415 26.9931 12.1553 27.2509 12.1553 27.5086V27.8522H16.8967C16.8967 27.7663 16.8967 27.6804 16.8967 27.6804C16.8967 26.5636 17.7588 25.7045 18.8795 25.7045C20.0002 25.7045 20.8623 26.5636 20.8623 27.6804C20.8623 27.9382 20.7761 28.2818 20.6899 28.5395C20.0864 29.4845 18.3623 29.6564 18.3623 29.6564V32.0619C20.7761 32.0619 21.2934 33.6942 21.3796 33.9519C21.3796 34.1237 21.4658 34.2955 21.4658 34.4674C21.4658 35.1546 21.2071 35.756 20.7761 36.1856C20.7761 36.1856 20.7761 36.1856 20.7761 36.2715L20.6899 36.3574C20.6037 36.4433 20.6037 36.4433 20.5175 36.5292C20.5175 36.5292 20.4313 36.5292 20.4313 36.6151C20.0002 36.9588 19.483 37.1306 18.9657 37.1306C17.5864 37.1306 16.4657 36.0138 16.4657 34.6392C16.4657 34.4674 16.4657 34.2955 16.5519 34.1237H11.9829V34.2096C11.9829 34.4674 11.9829 34.6392 12.0691 34.8969C12.2415 36.701 12.9312 37.9897 14.0519 38.8488C15.345 39.8797 17.1554 40.3952 19.483 40.3952C21.8106 40.3952 23.621 39.8797 25.0003 38.9347C26.3796 37.9897 27.0693 36.6151 27.0693 34.9828C26.9831 33.866 26.6383 32.921 26.121 32.2337Z" fill="white"/>
<path d="M43.0178 37.2165V36.2715H42.5868V36.5292H41.3799V36.2715H40.9488V37.2165H41.3799V36.9588H41.7247V37.6461H41.3799V37.3883H40.9488V38.3333H41.3799V38.1615H42.5868V38.3333H43.0178V37.3883H42.5868V37.6461H42.1557V37.0447H42.5868V37.3024H43.0178V37.2165ZM42.5868 39.1924H41.3799V39.0206H41.8971V38.5911H40.9488V40.3093H41.8971V39.8797H41.3799V39.7079H42.5868V39.9656H43.0178V39.0206H42.5868V39.1924Z" fill="white"/>
<path d="M27.9314 28.7113H31.4659V26.3058H37.7591C35.1729 29.3986 33.1901 32.7491 31.9832 36.3574H29.6555V40.3952H39.1384V36.3574H36.8108C37.2419 33.7801 39.3109 30.2577 43.1902 26.134V22.4399H27.9314V28.7113Z" fill="white"/>
<defs>
<radialGradient id="paint0_radial" cx="0" cy="0" r="1" gradientUnits="userSpaceOnUse" gradientTransform="translate(31.7986 13.3052) scale(47.3504 47.1869)">
<stop stop-color="white"/>
<stop offset="0.00738025" stop-color="#F6F6F8"/>
<stop offset="0.0476763" stop-color="#C8C9D4"/>
<stop offset="0.0930898" stop-color="#9D9FB3"/>
<stop offset="0.1419" stop-color="#777A96"/>
<stop offset="0.195" stop-color="#575A7D"/>
<stop offset="0.2537" stop-color="#3B3F68"/>
<stop offset="0.32" stop-color="#252A57"/>
<stop offset="0.3974" stop-color="#14194A"/>
<stop offset="0.4931" stop-color="#090D41"/>
<stop offset="0.6274" stop-color="#02073B"/>
<stop offset="1" stop-color="#00053A"/>
</radialGradient>
</defs>
</svg>
