<svg width="109" height="109" viewBox="0 0 109 109" fill="none" xmlns="http://www.w3.org/2000/svg">
<rect width="109" height="109" rx="19" fill="#FFFCFC"/>
<path d="M41.8005 39.616L42.6361 38.86L37.5391 33.064L41.8005 39.616Z" fill="#787878"/>
<path d="M41.2992 33.904L40.2965 32.392L40.6307 33.736L41.2992 33.904Z" fill="#787878"/>
<path d="M43.6388 53.5599C43.5552 53.7279 43.5552 53.8119 43.5552 54.1479C43.5552 54.4839 43.5552 54.5679 43.6388 54.6519C43.7224 54.7359 43.8059 54.6519 43.8059 54.4839C43.8059 54.2319 43.8059 53.9799 43.973 53.8119C44.0566 53.6439 44.0566 53.7279 44.2237 53.8119C44.3908 53.8959 44.8922 53.8119 45.1428 53.4759C45.4771 53.1399 45.9784 52.2999 45.31 52.2159C44.8922 52.2159 44.0566 52.3839 43.6388 53.5599Z" fill="#787878"/>
<path d="M80.1536 25H27.8464C25.1725 25 23 27.268 23 29.956V83.044C23 85.732 25.1725 88 27.8464 88H80.1536C82.8275 88 85 85.732 85 83.044V29.956C85 27.268 82.8275 25 80.1536 25ZM39.0431 80.944H38.3747C37.7898 80.944 37.372 80.776 36.9542 80.356C36.5364 79.936 36.3693 79.516 36.3693 78.928V74.056H32.7763V78.928C32.7763 79.516 32.6092 80.02 32.1914 80.356C31.7736 80.776 31.3558 80.944 30.7709 80.944H30.186V79.516H30.7709C30.938 79.516 31.1051 79.432 31.1887 79.348C31.2722 79.18 31.3558 79.096 31.3558 78.844V67.924H31.9407C32.5256 67 33.4447 66.496 34.531 66.496C35.6173 66.496 36.5364 67 37.1213 67.924H37.7062V78.844C37.7062 79.18 37.8733 79.432 38.124 79.432C38.2075 79.432 38.5418 79.432 38.9596 79.432V80.944H39.0431ZM44.6415 78.172C44.6415 78.928 44.3908 79.6 43.8895 80.104C43.3881 80.608 42.7197 80.944 41.9677 80.944C41.2156 80.944 40.6307 80.692 40.0458 80.188C39.5445 79.684 39.2938 79.012 39.2938 78.256V76.996H41.0485V76.072H41.5499V77.5H40.7143V78.256C40.7143 78.592 40.8814 78.928 41.1321 79.18C41.3828 79.432 41.717 79.6 42.0512 79.6C42.3854 79.6 42.7197 79.432 42.9704 79.18C43.221 78.928 43.3046 78.592 43.3046 78.256V75.652C43.3046 75.232 43.1375 74.896 42.8032 74.56C42.6361 74.392 42.3019 74.224 41.717 73.888C40.8814 73.468 40.3801 73.048 40.0458 72.712C39.5445 72.208 39.3774 71.62 39.3774 70.864V69.352C39.3774 68.596 39.628 67.924 40.1294 67.42C40.6307 66.916 41.2992 66.58 42.0512 66.58C42.8032 66.58 43.3881 66.832 43.973 67.42C44.4744 67.924 44.7251 68.596 44.7251 69.352V71.032H42.7197V70.36H43.3881V69.184C43.3881 68.848 43.221 68.512 42.9704 68.26C42.7197 68.008 42.3854 67.84 42.0512 67.84C41.717 67.84 41.3828 68.008 41.1321 68.26C40.8814 68.512 40.7143 68.848 40.7143 69.184V70.696C40.7143 71.032 40.8814 71.368 41.1321 71.62C41.3828 71.872 41.8005 72.124 42.469 72.544C43.1375 72.88 43.6388 73.216 43.8895 73.468C44.4744 74.056 44.7251 74.728 44.7251 75.484V78.172H44.6415ZM53.9164 80.86H53.248C52.6631 80.86 52.2453 80.692 51.8275 80.272C51.4097 79.852 51.2426 79.348 51.2426 78.844V73.972H47.6496V78.844C47.6496 79.432 47.4825 79.936 47.0647 80.272C46.6469 80.692 46.2291 80.86 45.6442 80.86H44.8922V78.508H45.3935V79.516H45.6442C45.8113 79.516 45.9784 79.432 46.062 79.348C46.1456 79.18 46.2291 79.096 46.2291 78.844V68.512C46.2291 68.344 46.1456 68.176 46.062 68.092C45.9784 68.008 45.8113 67.924 45.6442 67.924H45.3935V68.932H44.9757V66.58H45.7278C46.2291 66.58 46.7305 66.748 47.1482 67.168C47.566 67.588 47.7332 68.008 47.7332 68.596V72.628H51.3261V68.596C51.3261 68.008 51.4933 67.588 51.9111 67.168C52.3288 66.748 52.7466 66.58 53.3315 66.58H53.9164V68.932H53.4987V67.924H53.248C53.0809 67.924 52.9137 68.008 52.8302 68.092C52.7466 68.176 52.6631 68.344 52.6631 68.512V78.844C52.6631 79.012 52.7466 79.18 52.8302 79.348C52.9973 79.516 53.0809 79.516 53.248 79.516H53.4987V78.508H53.9164V80.86ZM53.9164 61.204C53.7493 60.868 50.9919 55.072 46.4798 54.82C46.2291 54.82 46.062 54.82 45.9784 55.072C45.8949 55.324 45.3935 55.996 44.558 55.912C43.7224 55.828 42.8868 54.988 43.221 53.56C43.5553 52.132 45.2264 51.544 45.8949 51.544C46.2291 51.544 46.2291 51.376 45.8949 51.208C45.6442 51.04 44.0566 49.864 43.8059 48.856L44.9757 47.68C44.1402 48.1 43.3881 48.436 42.7197 48.688C42.6361 48.688 42.5526 48.604 42.469 48.52C44.3073 47.848 46.3962 46.168 46.3962 46.168C44.4744 47.092 42.9704 47.596 41.8841 47.848C41.8005 47.764 41.8005 47.68 41.717 47.512C44.3908 47.176 47.7332 44.656 47.7332 44.656C44.558 46.168 42.6361 46.504 41.4663 46.504C41.4663 46.336 41.4663 46.168 41.4663 46C44.558 46.42 49.0701 43.144 49.0701 43.144C44.8922 45.16 42.8032 45.076 41.9677 44.992C41.9677 44.992 41.5499 43.9 41.4663 42.388C41.4663 41.716 41.3828 40.876 41.5499 39.952L37.1213 32.812L40.3801 33.736L40.0458 32.14L45.4771 35.248L47.2318 35.752C48.3181 34.744 49.9892 33.652 52.2453 33.148C53.9164 32.728 55.2534 32.98 56.5067 33.568C55.4205 34.24 54.5849 34.744 54.5849 34.744L59.9326 32.392C59.9326 32.392 60.2668 32.224 60.2668 32.308C60.434 32.308 60.5175 32.308 60.6011 32.56C60.6011 32.56 60.8518 33.148 61.186 33.82L48.4016 40.708L61.6038 34.744C61.7709 34.996 61.8545 35.332 62.0216 35.584C56.0054 38.356 51.5768 40.54 51.5768 40.54C51.5768 40.54 56.1725 38.608 62.1051 35.836C62.1887 36.004 62.2722 36.172 62.3558 36.34C56.3396 39.112 51.9111 41.212 51.9111 41.296C51.9111 41.38 56.5067 39.364 62.5229 36.592C62.6065 36.76 62.69 36.928 62.7736 37.096C56.7574 39.868 52.3288 41.968 52.3288 42.052C52.3288 42.136 56.841 40.12 62.9407 37.348C63.0243 37.516 63.1078 37.684 63.1914 37.936C57.1752 40.708 52.6631 42.892 52.7466 42.976C52.7466 43.06 57.3423 41.044 63.3585 38.272C63.5256 38.524 63.6092 38.776 63.6927 39.028L50.5741 45.58L64.1105 39.952C64.6119 40.96 64.9461 41.632 64.9461 41.716C64.9461 41.968 63.9434 42.388 63.1914 42.64C63.1914 42.724 63.1914 42.724 63.2749 42.808C63.3585 42.892 63.0243 43.564 62.9407 43.816C62.8571 43.984 62.8571 44.068 63.0243 44.068C63.1914 44.068 63.4421 43.984 63.4421 43.984C63.4421 43.984 63.6092 43.984 63.4421 44.068C63.2749 44.152 63.0243 44.152 62.9407 44.236C62.7736 44.32 62.2722 44.992 62.7736 45.58C63.2749 46.168 63.9434 46.924 64.1941 47.008C64.3612 47.176 64.6954 47.26 64.8625 47.26C65.0297 47.344 65.1132 48.352 64.6954 48.688C64.2776 49.024 64.1105 48.94 63.9434 49.024C63.8598 49.108 63.7763 49.276 63.7763 49.276C63.7763 49.276 63.9434 49.276 63.9434 49.36C63.9434 49.444 63.9434 49.696 64.027 49.78C64.027 49.864 64.1941 50.032 64.2776 50.116C64.3612 50.2 64.6119 50.2 64.5283 50.536C64.5283 50.788 64.3612 50.956 64.2776 51.04C64.1941 51.124 64.1105 51.124 64.2776 51.292C64.4447 51.376 64.8625 51.796 64.779 52.048C64.6954 52.3 64.6119 52.468 64.4447 52.552C64.2776 52.72 64.2776 52.72 64.1941 52.72C64.1105 52.804 64.1941 52.804 64.1941 52.972C64.2776 53.14 65.1132 54.232 64.027 54.904C63.6092 55.156 63.3585 55.24 63.1078 55.156C62.8571 55.072 62.7736 55.156 62.6065 55.156C62.4394 55.24 61.6873 55.324 60.7682 55.156C59.7655 54.904 58.5957 54.568 58.0943 54.904C57.593 55.24 56.841 56.164 56.2561 56.668C55.7547 57.172 55.5876 57.424 55.4205 57.676C55.3369 57.844 54.4178 59.692 54.3342 59.86C54.2507 60.028 54.4178 60.112 54.5014 60.448C54.5014 60.784 54.4178 60.868 54.2507 61.204C54.1671 61.456 54.0836 61.54 53.9164 61.204ZM57.0916 80.86H55.0863V66.916H54.4178V66.496H56.5067L56.4232 80.44H57.0916V80.86ZM67.8706 80.86C67.2857 80.86 66.8679 80.692 66.4501 80.272C66.0323 79.852 65.8652 79.432 65.8652 78.844V69.016C65.8652 68.68 65.7817 68.428 65.531 68.26C65.2803 68.008 65.0297 67.84 64.779 67.84C64.5283 67.84 64.2776 67.924 64.027 68.176C63.8598 68.428 63.6927 68.68 63.6927 68.932V77.92H64.6119V78.34H61.4367V77.92H62.3558V69.016C62.3558 68.68 62.2722 68.428 62.0216 68.26C61.7709 68.092 61.5202 67.924 61.2695 67.924C61.0189 67.924 60.7682 68.008 60.5175 68.26C60.2668 68.512 60.1833 68.764 60.1833 69.016V78.844C60.1833 79.432 60.0162 79.852 59.5984 80.272C59.1806 80.692 58.7628 80.86 58.1779 80.86H57.593V79.432H58.1779C58.345 79.432 58.5121 79.348 58.5957 79.264C58.7628 79.096 58.7628 79.012 58.7628 78.844V69.016C58.7628 68.344 59.0135 67.756 59.4313 67.252C59.9326 66.748 60.434 66.496 61.1024 66.496C61.7709 66.496 62.3558 66.748 62.8571 67.252C63.3585 66.748 63.9434 66.496 64.6119 66.496C65.2803 66.496 65.8652 66.748 66.3666 67.252C66.8679 67.756 67.1186 68.344 67.1186 69.016V78.844C67.1186 79.012 67.2022 79.18 67.2857 79.264C67.3693 79.348 67.5364 79.432 67.7035 79.432H68.2884V80.86H67.8706ZM77.814 80.86H77.1456C76.6442 80.86 76.1429 80.692 75.7251 80.272C75.3073 79.852 75.1402 79.432 75.1402 78.844V73.972H71.5472V78.76C71.5472 79.348 71.3801 79.852 70.9623 80.188C70.5445 80.608 70.1267 80.776 69.5418 80.776H68.9569V79.348H69.5418C69.7089 79.348 69.876 79.264 69.9596 79.18C70.0431 79.012 70.1267 78.928 70.1267 78.676V67.756H70.7116C71.2965 66.832 72.2156 66.328 73.3019 66.328C74.3881 66.328 75.3073 66.748 75.8922 67.756H76.4771V78.676C76.4771 79.012 76.6442 79.264 76.8949 79.264C76.9784 79.264 77.2291 79.264 77.7305 79.264V80.86H77.814Z" fill="#787878"/>
<path d="M74.6388 68.344C74.3046 68.008 73.8868 67.84 73.3855 67.84C72.8841 67.84 72.4663 68.008 72.1321 68.344C71.7979 68.68 71.6307 69.1 71.6307 69.604V72.46H75.2237V69.52C75.2237 69.1 75.0566 68.68 74.6388 68.344Z" fill="#787878"/>
<path d="M55.337 50.6201C54.5849 50.7041 54 51.4601 54.1671 52.2161C54.2507 52.9721 55.0027 53.5601 55.7547 53.3921C56.089 53.3081 56.4232 53.1401 56.6739 52.8041C56.9245 52.4681 57.0081 52.1321 56.9245 51.7121C56.7574 51.0401 56.089 50.4521 55.337 50.6201ZM56.2561 52.5521C56.089 52.7201 55.9219 52.8881 55.6712 52.8881C55.1698 52.9721 54.752 52.6361 54.6685 52.1321C54.5849 51.6281 54.9192 51.1241 55.4205 51.0401C55.9219 50.9561 56.3396 51.3761 56.4232 51.8801C56.4232 52.1321 56.4232 52.3841 56.2561 52.5521Z" fill="#787878"/>
<path d="M35.8679 68.428C35.5337 68.092 35.1159 67.924 34.6146 67.924C34.1132 67.924 33.6954 68.092 33.3612 68.428C33.027 68.764 32.8599 69.184 32.8599 69.688V72.544H36.4529V69.52C36.3693 69.1 36.2022 68.764 35.8679 68.428Z" fill="#787878"/>
<path d="M58.4286 51.544C58.2615 50.704 57.8437 50.032 57.2588 49.528C56.9246 49.276 56.5068 49.108 56.1725 49.024C56.4232 48.688 56.5068 48.352 56.4232 47.932C56.3397 47.092 55.5876 46.504 54.7521 46.672C54.3343 46.756 54 46.924 53.7494 47.26C53.4987 47.596 53.4151 48.016 53.4987 48.352C53.4987 48.772 53.7494 49.108 54.0836 49.36C53.0809 49.948 52.4124 51.208 52.5795 52.468C52.8302 54.148 54.3343 55.324 55.9219 55.072C57.593 54.82 58.6793 53.224 58.4286 51.544ZM54.9192 47.344C55.337 47.344 55.7547 47.68 55.7547 48.184C55.7547 48.688 55.4205 49.024 54.9192 49.024C54.5014 49.024 54.0836 48.604 54.0836 48.184C54.0836 47.68 54.5014 47.344 54.9192 47.344ZM53.3316 52.3C53.1645 51.04 54 49.948 55.1698 49.78C55.7547 49.696 56.3397 49.864 56.7574 50.2C57.2588 50.536 57.5095 51.124 57.593 51.712C57.7601 52.972 56.9246 54.064 55.7547 54.232C54.5849 54.4 53.4987 53.56 53.3316 52.3Z" fill="#787878"/>
</svg>
