<svg width="48" height="48" viewBox="0 0 48 48" fill="none" xmlns="http://www.w3.org/2000/svg">
<g clip-path="url(#clip0)">
<rect y="8" width="48" height="32" rx="3" fill="#797979"/>
<rect x="26" y="14" width="16" height="4" rx="1" fill="#030303"/>
<path d="M15.9999 33.9998C15.5093 33.9998 15.1111 33.6639 15.1111 33.25V25.7515C15.1111 24.5113 13.9146 23.502 12.4444 23.502C10.9742 23.502 9.77777 24.5113 9.77777 25.7515V33.25C9.77777 33.6639 9.37955 33.9998 8.88888 33.9998C8.39822 33.9998 8 33.6639 8 33.25V25.7515C8 23.685 9.99288 22.0023 12.4444 22.0023C14.896 22.0023 16.8888 23.685 16.8888 25.7515V33.25C16.8888 33.6639 16.4906 33.9998 15.9999 33.9998Z" fill="#FFFCFC"/>
<path d="M15.9999 29.5004H8.88888C8.39822 29.5004 8 29.1645 8 28.7506C8 28.3367 8.39822 28.0007 8.88888 28.0007H15.9999C16.4906 28.0007 16.8888 28.3367 16.8888 28.7506C16.8888 29.1645 16.4906 29.5004 15.9999 29.5004Z" fill="#FFFCFC"/>
<path d="M23.1112 33.9996C22.6205 33.9996 22.2223 33.6636 22.2223 33.2497V22.7519C22.2223 22.338 22.6205 22.0021 23.1112 22.0021C23.6018 22.0021 24 22.338 24 22.7519V33.2497C24 33.6636 23.6018 33.9996 23.1112 33.9996Z" fill="#FFFCFC"/>
<path d="M26.667 23.5018H19.556C19.0653 23.5018 18.6671 23.1658 18.6671 22.7519C18.6671 22.338 19.0653 22.0021 19.556 22.0021H26.667C27.1577 22.0021 27.5559 22.338 27.5559 22.7519C27.5559 23.1658 27.1577 23.5018 26.667 23.5018Z" fill="#FFFCFC"/>
<path d="M39.1112 33.9995C38.6206 33.9995 38.2224 33.6636 38.2224 33.2497V25.2279L36.2953 27.6663C35.9646 28.0833 35.1468 28.0833 34.8162 27.6663L32.8891 25.2279V33.2497C32.8891 33.6636 32.4909 33.9995 32.0002 33.9995C31.5095 33.9995 31.1113 33.6636 31.1113 33.2497V22.7519C31.1113 22.4219 31.3691 22.1295 31.7424 22.0335C32.1211 21.939 32.5211 22.062 32.7398 22.335L35.5557 25.8982L38.3717 22.335C38.5886 22.0605 38.9886 21.9345 39.369 22.0335C39.7424 22.1295 40.0001 22.4219 40.0001 22.7519V33.2497C40.0001 33.6636 39.6019 33.9995 39.1112 33.9995Z" fill="#FFFCFC"/>
</g>
<defs>
<clipPath id="clip0">
<rect width="48" height="48" fill="white"/>
</clipPath>
</defs>
</svg>
