<svg width="48" height="31" viewBox="0 0 48 31" fill="none" xmlns="http://www.w3.org/2000/svg">
<rect width="48" height="31" rx="4" fill="white"/>
<path d="M8.3877 20.6694H6.42773V26H5.10938V20.6694H3.17578V19.6016H8.3877V20.6694ZM10.5454 26H9.22705V19.6016H10.5454V26ZM15.6211 23.2271H13.0898V24.9409H16.0605V26H11.7715V19.6016H16.0518V20.6694H13.0898V22.1943H15.6211V23.2271ZM15.5991 19.2456H14.6543L13.9907 18.6875L13.3271 19.2456H12.3779L13.6304 18.2305H14.3467L15.5991 19.2456ZM12.7031 18.6523H11.9692L10.9761 17.4614H11.9868L12.7031 18.6523ZM22.0371 26H20.7188L18.1523 21.79V26H16.834V19.6016H18.1523L20.7231 23.8203V19.6016H22.0371V26ZM27.1523 19.6016L28.7959 24.2422L30.4307 19.6016H32.1621V26H30.8394V24.251L30.9712 21.2319L29.2441 26H28.3389L26.6162 21.2363L26.748 24.251V26H25.4297V19.6016H27.1523ZM37.0049 24.6816H34.6934L34.2539 26H32.8521L35.2339 19.6016H36.4556L38.8506 26H37.4487L37.0049 24.6816ZM35.0493 23.6138H36.6489L35.8447 21.2188L35.0493 23.6138ZM37.3872 17.9316C37.3872 18.3213 37.2466 18.6362 36.9653 18.8765C36.687 19.1167 36.3208 19.2368 35.8667 19.2368C35.4126 19.2368 35.0449 19.1182 34.7637 18.8809C34.4854 18.6436 34.3462 18.3271 34.3462 17.9316H35.2471C35.2471 18.1162 35.3013 18.2598 35.4097 18.3623C35.521 18.4619 35.6733 18.5117 35.8667 18.5117C36.0571 18.5117 36.2065 18.4619 36.3149 18.3623C36.4233 18.2598 36.4775 18.1162 36.4775 17.9316H37.3872ZM35.1768 27.002C35.1768 26.8262 35.2427 26.6812 35.3745 26.5669C35.5063 26.4526 35.6763 26.3955 35.8843 26.3955C36.0952 26.3955 36.2666 26.4526 36.3984 26.5669C36.5303 26.6812 36.5962 26.8262 36.5962 27.002C36.5962 27.1748 36.5303 27.3198 36.3984 27.437C36.2695 27.5542 36.0981 27.6128 35.8843 27.6128C35.6704 27.6128 35.499 27.5542 35.3701 27.437C35.2412 27.3198 35.1768 27.1748 35.1768 27.002ZM43.7373 20.6694H41.7773V26H40.459V20.6694H38.5254V19.6016H43.7373V20.6694Z" fill="#4F4F4F"/>
<path d="M25 9.2V6.1C25.6 6.3 26 6.9 26 7.5C26 8.1 26.4 8.5 27 8.5C27.6 8.5 28 8.1 28 7.5C28 5.7 26.7 4.3 25 4.1V3C25 2.4 24.6 2 24 2C23.4 2 23 2.4 23 3V4.1C21.3 4.3 20 5.7 20 7.5C20 9.6 21.6 10.4 23 10.8V13.9C22.4 13.7 22 13.1 22 12.5C22 11.9 21.6 11.5 21 11.5C20.4 11.5 20 11.9 20 12.5C20 14.3 21.3 15.7 23 15.9V17C23 17.6 23.4 18 24 18C24.6 18 25 17.6 25 17V15.9C26.7 15.7 28 14.2 28 12.5C28 10.4 26.4 9.6 25 9.2ZM22 7.5C22 6.8 22.4 6.3 23 6.1V8.7C22.3 8.4 22 8.1 22 7.5ZM25 13.9V11.3C25.7 11.6 26 11.9 26 12.5C26 13.2 25.6 13.7 25 13.9Z" fill="#323130"/>
</svg>
