<svg width="60" height="60" viewBox="0 0 60 60" fill="none" xmlns="http://www.w3.org/2000/svg">
<path d="M18.8961 38.3532C18.8961 39.2062 18.1899 39.913 17.3377 39.913H1.55844C0.706169 39.913 0 39.2062 0 38.3532V22.5598C0 21.7068 0.706169 21 1.55844 21H17.3377C18.1899 21 18.8961 21.7068 18.8961 22.5598V38.3532Z" fill="#E71E25"/>
<path d="M16.7289 28.1168C16.6315 27.8487 16.461 27.4587 16.4123 27.3612C15.9497 26.2401 15.3409 25.2164 14.6104 24.2415C13.7825 23.1448 12.5649 22.3892 11.2257 22.0968C9.49675 21.7068 7.74351 22.1943 7.11039 22.3892C6.47727 22.5842 4.72403 23.0717 3.45779 24.3147C2.45942 25.2652 1.85065 26.5569 1.70455 27.9218C1.58279 29.116 1.60714 30.3347 1.80195 31.5289C1.8263 31.6508 1.875 32.0651 1.94805 32.3576C2.11851 33.1375 2.62987 34.7948 3.75 36.0866C3.75 36.1109 5.96591 38.6944 9.20455 39.06C10.0568 39.1087 10.9334 39.0113 11.737 38.7432C12.5893 38.5482 13.3685 38.1582 14.0747 37.6708C16.6558 35.6235 17.1916 32.2357 17.1672 32.2113C17.4351 30.554 16.9968 28.8723 16.7289 28.1168Z" fill="white"/>
<path d="M11.3718 23.1448C10.4465 23.4129 8.62016 24.0953 7.67048 24.339C6.74516 24.6071 4.82146 24.9971 3.89613 25.2652C2.16724 25.7526 2.21594 29.2866 2.92211 31.7726C3.48217 33.7468 5.99029 33.04 6.81821 32.7963C8.01139 32.4551 8.13315 32.3088 9.78899 31.8214C11.4448 31.3583 11.6396 31.407 12.8085 31.0902C13.6607 30.8465 16.1445 30.1397 15.5844 28.1655C14.927 25.6795 13.1007 22.6573 11.3718 23.1448Z" fill="#E71E25"/>
<path d="M6.86688 31.9433C6.84253 31.9676 6.84253 32.0164 6.86688 32.0407C7.01298 32.2601 7.57305 31.9676 7.62175 31.9433C7.86526 31.8214 8.13311 31.7483 8.40097 31.7483C8.74188 31.7483 9.03409 31.4802 9.05844 31.1146L7.81656 31.4558C7.6948 31.7239 7.42695 31.8945 7.13474 31.9189C7.01298 31.9433 6.91558 31.8945 6.86688 31.9433Z" fill="white"/>
<path d="M5.23541 29.0185C4.82145 28.4092 4.96755 27.5562 5.57632 27.1419C6.18509 26.7275 7.03736 26.8738 7.45132 27.4831C7.86528 28.0924 7.71918 28.9454 7.11041 29.3598C6.50164 29.7985 5.64937 29.6522 5.23541 29.0185Z" fill="white"/>
<path d="M5.47887 28.7504C5.13796 28.263 5.25972 27.5806 5.77108 27.2393C6.25809 26.8981 6.93991 27.02 7.28082 27.5318C7.62173 28.0193 7.49998 28.7017 6.98861 29.0429C6.5016 29.3841 5.81978 29.2623 5.47887 28.7504Z" fill="#E71E25"/>
<path d="M6.96428 25.6308C6.96428 25.6308 6.98863 26.0207 6.23376 25.972C6.23376 25.972 6.55032 26.1182 6.64772 26.1913C7.28084 26.6057 7.20779 26.7275 7.08603 26.7275C6.96428 26.7275 6.81818 26.6544 6.42856 26.4351C5.28408 25.777 4.28571 25.5333 3.72564 26.0451C3.01947 26.6544 3.38473 27.8487 3.72564 28.3849C3.96915 28.7748 4.01785 28.6042 4.0422 28.3605C4.1396 27.7512 4.50486 27.215 5.04058 26.9225V26.8982C5.04058 26.8982 5.04058 26.8982 5.01623 26.8982C4.55357 26.9713 4.28571 26.9225 4.26136 26.8007C4.21266 26.6057 4.96753 26.4107 5.60064 26.5326C6.11201 26.6301 6.96428 26.9713 7.18344 26.8007C7.32954 26.6788 7.40259 26.4594 6.96428 25.6308Z" fill="white"/>
<path d="M7.96264 29.116C7.54868 29.1891 7.25647 29.5791 7.28082 30.0178C7.28082 30.0422 7.30517 30.0909 7.30517 30.1153C7.37822 30.1884 7.47563 30.2128 7.54868 30.1397L7.57303 30.1153C7.59738 30.0666 7.62173 30.0178 7.62173 29.9447C7.69478 29.6035 8.01134 29.1404 8.474 29.3597C8.64446 29.4572 8.79056 29.6278 8.88796 29.8228C8.79056 29.311 8.40095 29.0185 7.96264 29.116Z" fill="white"/>
<path d="M6.03895 30.5053C6.0633 30.4809 6.03895 30.4809 6.03895 30.4809C5.72239 30.2615 5.30843 30.2859 5.04057 30.5296C4.82142 30.7246 4.74836 31.0415 4.82142 31.3339C4.96752 31.797 5.28408 31.9189 5.52759 31.8458C5.77109 31.7726 5.94155 31.5777 5.99025 31.3339C6.0146 31.2608 6.0633 31.2121 6.112 31.1633C5.9172 31.2121 5.9172 31.2852 5.79544 31.3827C5.67369 31.4802 5.33278 31.5289 5.23538 31.1146C5.16233 30.8952 5.28408 30.6515 5.47888 30.554C5.67369 30.5053 5.84414 30.4809 6.03895 30.5053Z" fill="white"/>
<path d="M12.3458 30.3834C12.3945 30.3834 12.4189 30.4321 12.3945 30.4809C12.3945 30.749 11.7614 30.7734 11.6883 30.7977C11.4205 30.8221 11.1526 30.8952 10.9091 31.0414C10.6169 31.2121 10.2273 31.1389 10.0325 30.8465L11.2744 30.5053C11.5179 30.6515 11.8344 30.6759 12.1023 30.554C12.1997 30.4809 12.2971 30.3834 12.3458 30.3834Z" fill="white"/>
<path d="M12.1997 27.0444C12.2484 26.2888 11.664 25.6551 10.9091 25.6308C10.1542 25.582 9.52113 26.167 9.49678 26.9225C9.44808 27.6781 10.0325 28.3117 10.7874 28.3361C11.5422 28.3605 12.1753 27.7999 12.1997 27.0444Z" fill="white"/>
<path d="M11.8588 26.9469C11.8831 26.3376 11.4205 25.8258 10.8117 25.8014C10.2029 25.777 9.69156 26.2401 9.66721 26.8494C9.64286 27.4587 10.1055 27.9705 10.7143 27.9949C11.2987 28.0193 11.8101 27.5562 11.8588 26.9469Z" fill="#E71E25"/>
<path d="M8.93666 25.0702C8.93666 25.0702 9.13147 25.4114 9.74023 24.9727C9.74023 24.9727 9.54543 25.2652 9.52108 25.3627C9.20452 26.0451 9.32627 26.1182 9.42367 26.0451C9.52108 25.972 9.61848 25.8257 9.81328 25.4358C10.4464 24.2659 11.1769 23.5347 11.9074 23.681C12.8328 23.8516 13.125 25.0458 13.1493 25.6795C13.1493 26.1426 13.0032 26.0207 12.8571 25.8257C12.4432 25.3627 11.8587 25.0946 11.25 25.1189C11.2256 25.1189 11.2256 25.0946 11.25 25.0946C11.6883 24.8996 11.8831 24.729 11.8344 24.6071C11.7613 24.4121 11.0308 24.6559 10.5438 25.0702C10.1542 25.4114 9.61848 26.1426 9.35062 26.1426C9.18017 26.1426 9.03406 25.9964 8.93666 25.0702Z" fill="white"/>
<path d="M9.93506 28.5311C10.349 28.3849 10.7873 28.5555 10.9821 28.9454C11.0308 29.0185 10.9821 29.116 10.9091 29.1648C10.8604 29.1891 10.8117 29.1891 10.763 29.1648C10.7143 29.1404 10.6656 29.0917 10.6412 29.0429C10.4221 28.7748 9.88636 28.5798 9.6185 28.9942C9.5211 29.1648 9.4724 29.3841 9.5211 29.5791C9.35064 29.1404 9.5211 28.7017 9.93506 28.5311Z" fill="white"/>
<path d="M12.3214 28.7261C12.2971 28.7261 12.2971 28.7261 12.3214 28.7261C12.2971 28.7261 12.2971 28.7017 12.3214 28.7261C12.4432 28.3605 12.8085 28.1655 13.1737 28.2143C13.4659 28.263 13.7094 28.4824 13.7581 28.7748C13.8799 29.2379 13.6851 29.506 13.4172 29.5791C13.1737 29.6522 12.9302 29.5791 12.7598 29.3841C12.7111 29.3354 12.638 29.311 12.5649 29.311C12.7598 29.2623 12.7841 29.3354 12.9546 29.3354C13.125 29.3598 13.4172 29.2379 13.2955 28.8236C13.2468 28.6042 13.0276 28.458 12.7841 28.4824C12.6136 28.5311 12.4432 28.6042 12.3214 28.7261Z" fill="white"/>
<path d="M12.9789 26.7763C12.6623 27.1175 12.3701 27.5075 12.1509 27.9462C12.1266 27.9705 12.1509 27.9949 12.1753 28.0193C12.1996 28.0193 12.224 28.0193 12.2483 28.0193C12.6379 27.6049 13.3928 27.1175 13.8068 27.9462C14.2938 28.9211 14.3181 29.3598 13.9285 29.7741C13.5146 30.0666 12.9545 30.0422 12.5649 29.7497C12.2483 29.5304 11.8344 29.4329 11.4448 29.5304C11.2256 29.5791 9.81328 30.1397 9.35061 30.2615C8.88795 30.3834 7.40256 30.6759 7.18341 30.749C6.81815 30.8709 6.50159 31.1633 6.35548 31.5289C6.18503 31.992 5.72237 32.3088 5.211 32.2845C4.65094 32.1382 4.45613 31.7483 4.35873 30.6759C4.26133 29.7497 5.1623 29.7741 5.72237 29.9203C5.74672 29.9203 5.77107 29.9203 5.79542 29.896C5.79542 29.8716 5.79542 29.8472 5.77107 29.8228C5.35711 29.5791 4.9188 29.3841 4.45613 29.2623C3.0438 28.8723 3.16555 30.8709 3.72561 31.8214C4.40743 32.9425 5.60061 32.4063 5.69802 32.3576C5.99022 32.2113 6.25808 32.0164 6.50159 31.8214C7.67042 30.8465 8.06003 31.0658 9.44802 30.6271C10.8604 30.2615 11.0795 29.8716 12.5892 30.0909C12.9058 30.1397 13.2224 30.1641 13.5389 30.1397C13.6363 30.1153 14.9513 29.9447 14.9269 28.6286C14.9269 27.4831 13.9772 25.7039 12.9789 26.7763Z" fill="white"/>
<path d="M14.8052 31.2364H14.7808C14.6347 31.3096 14.3912 31.4558 14.2208 31.5533C14.1964 31.5533 14.1964 31.5776 14.1964 31.602C14.1964 31.602 14.1964 31.602 14.2208 31.6264C15.8523 32.4794 14.9026 35.2091 14.5617 36.0378C14.5617 36.0622 14.5617 36.0866 14.586 36.0866C14.6104 36.0866 14.6347 36.0866 14.6347 36.0622C16.0958 34.1368 16.2175 31.5045 14.8052 31.2364Z" fill="#E71E25"/>
<path d="M13.6607 31.8457H13.6363C13.5633 31.8701 13.125 32.0407 12.9058 32.1382C12.8815 32.1382 12.8815 32.187 12.8815 32.2113C12.8815 32.2113 12.8815 32.2357 12.9058 32.2357C14.5373 33.1619 13.6607 36.0134 13.3685 36.9152C13.3685 36.9396 13.3685 36.964 13.3928 36.964C13.4172 36.964 13.4415 36.964 13.4415 36.9396C14.8295 34.9167 15.073 32.1626 13.6607 31.8457Z" fill="#E71E25"/>
<path d="M15.3166 30.8709C15.2922 30.8709 15.2922 30.8952 15.3166 30.9196L15.3409 30.944C16.1201 31.0658 16.2419 31.8214 16.2419 32.1139C16.2419 32.1382 16.2662 32.1382 16.2906 32.1382C16.2906 32.1382 16.3149 32.1382 16.3149 32.1139C16.5098 31.8214 16.6315 31.2852 16.3393 30.944C15.9984 30.554 15.5114 30.749 15.3166 30.8709Z" fill="#E71E25"/>
<path d="M5.18671 33.9662H5.21106C5.38151 33.9662 5.67372 33.9418 5.84418 33.9418C5.86853 33.9418 5.89288 33.9418 5.89288 33.9662V33.9905C4.9432 35.5747 7.20781 37.4027 7.91398 37.9389C7.93833 37.9389 7.93833 37.9632 7.93833 37.9876C7.93833 38.012 7.91398 38.012 7.88963 38.012C5.62502 37.1102 4.13963 34.9411 5.18671 33.9662Z" fill="#E71E25"/>
<path d="M6.50159 33.8687C6.50159 33.8687 6.52594 33.8687 6.50159 33.8687C6.59899 33.8443 7.06166 33.7468 7.28081 33.7224C7.30516 33.7224 7.32951 33.7468 7.32951 33.7712V33.7955C6.42854 35.4529 8.6688 37.4027 9.42367 38.012C9.44802 38.0364 9.44802 38.0607 9.42367 38.0851C9.39932 38.1095 9.39932 38.1095 9.37497 38.1095C7.11036 37.1346 5.45451 34.9167 6.50159 33.8687Z" fill="#E71E25"/>
<path d="M4.57795 33.9418C4.60231 33.9418 4.60231 33.9662 4.60231 33.9662C4.60231 33.9662 4.60231 33.9905 4.57795 33.9905C3.99354 34.5024 4.28575 35.2092 4.43185 35.4529C4.43185 35.4773 4.43185 35.5016 4.4075 35.5016H4.38315C4.06659 35.3554 3.70133 34.9654 3.75003 34.5267C3.82308 33.9905 4.3588 33.9418 4.57795 33.9418Z" fill="#E71E25"/>
<path d="M13.5633 37.9633C13.4659 37.8414 13.3442 37.7439 13.1981 37.6952C13.2468 37.6708 13.2955 37.6464 13.3442 37.5977C13.4172 37.5489 13.4659 37.4758 13.4903 37.4271C13.539 37.3539 13.5633 37.2808 13.5633 37.2077C13.5633 37.159 13.612 36.8177 13.612 36.6471V36.5984V36.5496C13.612 36.4034 13.5633 36.2572 13.4659 36.1597C13.3929 36.0622 13.2711 36.0135 13.1737 35.9647C13.0276 35.916 12.8572 35.8672 12.711 35.8672C12.6867 35.8428 12.638 35.8185 12.6136 35.7697C12.4675 35.6479 12.2727 35.5748 12.0779 35.5504C11.9805 35.526 11.8831 35.5504 11.8101 35.5748C11.6396 35.6235 11.5179 35.7454 11.4692 35.916C11.4448 35.9891 11.4448 36.0622 11.4448 36.1353L10.5438 36.4522C10.5195 36.379 10.4951 36.3303 10.4708 36.2572C10.4221 36.1597 10.3247 36.0622 10.2516 35.9891C10.1542 35.916 10.0568 35.8428 9.95942 35.7941C9.83767 35.721 9.71592 35.6966 9.59416 35.6722C9.44806 35.6479 9.32631 35.6479 9.1802 35.6966C9.0828 35.721 8.9854 35.7697 8.888 35.8185C8.81494 35.8428 8.76624 35.8916 8.69319 35.916C8.62014 35.9403 8.52274 36.0135 8.42533 36.0622L8.32793 36.1353H8.13313C8.10878 36.1109 8.10878 36.0622 8.08442 36.0378C8.01137 35.916 7.91397 35.7941 7.79222 35.721C7.67046 35.6235 7.50001 35.5748 7.32955 35.5748H7.3052C7.2078 35.5748 7.08605 35.6235 6.98865 35.6722C6.81819 35.6722 6.64774 35.7697 6.55033 35.916C6.50163 36.0135 6.47728 36.1109 6.47728 36.2328H6.37988C6.33118 36.1109 6.25813 36.0135 6.16072 35.916C6.03897 35.8185 5.91722 35.721 5.77111 35.6722C5.64936 35.6235 5.52761 35.6235 5.40585 35.6479C5.138 35.6966 4.96754 35.9891 5.01624 36.2572C5.01624 36.3059 5.04059 36.3303 5.06494 36.379C5.06494 36.4034 5.0893 36.4278 5.0893 36.4278L4.72404 36.5984C4.55358 36.7203 4.48053 36.9152 4.52923 37.1346C4.55358 37.2808 4.65098 37.4027 4.74839 37.4758C4.79709 37.5245 4.84579 37.5489 4.89449 37.5733L4.87014 37.6952C4.84579 37.7683 4.79709 37.8658 4.74839 37.9389V37.9633C4.69969 38.0364 4.67533 38.1339 4.65098 38.207C4.62663 38.3288 4.62663 38.4751 4.65098 38.5969C4.69969 38.7675 4.79709 38.8894 4.94319 39.0113C5.06494 39.1088 5.2354 39.1819 5.40585 39.1819C5.60066 39.1819 5.79546 39.0844 5.89287 38.9138C6.01462 39.0113 6.16072 39.06 6.30683 39.0844C6.40423 39.1088 6.47728 39.1331 6.57468 39.1331H6.64774H6.81819C6.86689 39.1331 6.91559 39.1331 6.9643 39.1331H7.013C7.1104 39.1331 7.18345 39.1331 7.28085 39.1088C7.37826 39.0844 7.50001 39.06 7.59741 39.0113C7.74352 38.9625 7.88962 38.8894 8.03572 38.7919C8.25488 38.8894 8.35228 38.9625 8.52274 39.0356C8.57144 39.06 8.64449 39.0844 8.69319 39.1088C8.74189 39.1331 8.81494 39.1331 8.86365 39.1575H8.91235C9.00975 39.1819 9.10715 39.1819 9.20455 39.1819H9.22891H9.35066H9.37501L9.54546 39.1575C9.64287 39.1331 9.76462 39.1331 9.86202 39.0844C10.0812 39.0113 10.3003 38.9869 10.5195 38.9869C10.7143 38.9869 10.9335 39.0113 11.1283 39.06C11.3231 39.1575 11.5422 39.2062 11.7614 39.2062H11.7857C11.8588 39.2062 11.9562 39.2062 12.0292 39.1819C12.1753 39.1575 12.3214 39.1088 12.4675 39.0356C12.5162 39.0113 12.5893 38.9625 12.638 38.9138L12.711 38.9625C12.7841 39.0113 12.8815 39.06 12.9789 39.0844C13.0276 39.1088 13.1007 39.1088 13.1494 39.1088V39.1088C13.2711 39.1088 13.3685 39.06 13.4659 39.0113C13.5633 38.9382 13.6364 38.865 13.6851 38.7675C13.7338 38.6701 13.7581 38.5726 13.7581 38.4507C13.7581 38.2801 13.6851 38.1095 13.5633 37.9633Z" fill="#E71E25"/>
<path d="M6.25812 37.8414C6.28247 37.817 6.33117 37.7683 6.35552 37.7439C6.40423 37.6951 6.45293 37.6708 6.50163 37.6464C6.57468 37.622 6.62338 37.5977 6.69643 37.5733C6.76949 37.5489 6.84254 37.5489 6.91559 37.5489H6.96429C7.01299 37.5489 7.06169 37.5733 7.11039 37.5977C7.1591 37.622 7.18345 37.622 7.23215 37.6464C7.2565 37.6464 7.28085 37.6708 7.3052 37.6708C7.32955 37.6708 7.3539 37.6708 7.37825 37.6464C7.4513 37.622 7.5 37.5733 7.54871 37.5245C7.59741 37.4514 7.62176 37.3783 7.62176 37.3052C7.62176 37.2808 7.62176 37.2808 7.62176 37.2564C7.62176 37.2077 7.59741 37.1346 7.59741 37.0858C7.54871 36.964 7.5 36.8665 7.4026 36.7934C7.3539 36.7446 7.28085 36.6959 7.2078 36.6471C7.11039 36.5984 7.01299 36.5496 6.89124 36.5496H6.84254C6.79384 36.5496 6.76949 36.5496 6.72078 36.574C6.64773 36.5984 6.57468 36.6471 6.50163 36.6715C6.35552 36.769 6.23377 36.8665 6.11202 36.9883C6.03897 37.0615 5.99026 37.1102 5.91721 37.1833L5.84416 37.2564V37.3296C5.86851 37.2564 5.89286 37.1833 5.89286 37.1102C5.89286 37.1102 5.89286 37.0858 5.91721 37.0858L6.01462 37.0127L6.20942 36.8909C6.23377 36.8665 6.28247 36.8421 6.28247 36.7934C6.33117 36.7202 6.30682 36.6228 6.23377 36.574C6.18507 36.5253 6.11202 36.5009 6.03897 36.4765H6.01462C6.01462 36.4278 6.01462 36.379 5.99026 36.3547C5.96591 36.2815 5.94156 36.2328 5.86851 36.1597C5.79546 36.0866 5.69806 36.0378 5.60065 36.0134C5.5763 36.0134 5.55195 35.9891 5.50325 35.9891C5.4789 35.9891 5.4789 35.9891 5.45455 35.9891C5.40585 35.9891 5.35715 36.0622 5.35715 36.1109V36.1353C5.3815 36.1597 5.40585 36.2084 5.4302 36.2084C5.4789 36.2328 5.50325 36.2572 5.55195 36.3059C5.5763 36.3059 5.5763 36.3303 5.5763 36.3303C5.5763 36.4034 5.55195 36.4765 5.55195 36.5496C5.55195 36.574 5.5276 36.574 5.5276 36.5984L5.2841 36.7934L5.08929 36.9396C5.06494 36.9396 5.04059 36.9152 5.01624 36.9152C4.99189 36.9152 4.99189 36.9152 4.96754 36.9152C4.91884 36.9152 4.89449 36.9883 4.89449 37.0371C4.89449 37.0858 4.94319 37.1346 4.96754 37.159C5.04059 37.2077 5.11364 37.2564 5.18669 37.2564C5.21104 37.2564 5.25975 37.2564 5.2841 37.2564C5.30845 37.2564 5.3328 37.2564 5.35715 37.2564H5.4302V37.2808L5.23539 37.8414C5.18669 37.9389 5.13799 38.0364 5.08929 38.1339C5.06494 38.1826 5.04059 38.2557 5.01624 38.3045C4.99189 38.3532 4.99189 38.4263 5.01624 38.4751C5.04059 38.5482 5.08929 38.6213 5.16234 38.67C5.23539 38.7188 5.30845 38.7432 5.3815 38.7432C5.45455 38.7432 5.5276 38.6944 5.55195 38.6213C5.5763 38.5726 5.5763 38.5238 5.5763 38.4994C5.60065 38.3776 5.625 38.2801 5.67371 38.1582C5.69806 38.0851 5.72241 38.012 5.77111 37.9389C5.84416 37.7926 5.91721 37.6464 5.99026 37.5002C6.06332 37.3783 6.16072 37.2808 6.25812 37.1833C6.35552 37.0858 6.42858 37.0127 6.55033 36.9152C6.59903 36.8665 6.64773 36.8421 6.72078 36.8177C6.74513 36.8177 6.76949 36.7934 6.79384 36.7934C6.81819 36.7934 6.84254 36.7934 6.86689 36.8177C6.89124 36.8421 6.91559 36.8421 6.93994 36.8665C6.98864 36.9152 7.03734 36.9883 7.08604 37.0615V37.0858H7.06169C6.89124 37.1346 6.72078 37.1833 6.55033 37.2808C6.37987 37.3783 6.23377 37.4758 6.11202 37.622C6.06332 37.6708 6.03897 37.7195 5.99026 37.7683C5.91721 37.8658 5.89286 37.9876 5.89286 38.1095C5.89286 38.1339 5.89286 38.1339 5.89286 38.1582C5.89286 38.207 5.91721 38.2801 5.91721 38.3288C5.94156 38.4263 6.01462 38.5238 6.11202 38.5726C6.20942 38.6213 6.28247 38.67 6.40423 38.6944C6.47728 38.7188 6.52598 38.7188 6.59903 38.7188C6.67208 38.7188 6.74513 38.7432 6.81819 38.7432H6.84254H6.98864C7.06169 38.7432 7.13475 38.7432 7.2078 38.7188C7.28085 38.7188 7.3539 38.6944 7.42695 38.6457C7.47565 38.6213 7.52436 38.5969 7.54871 38.5238C7.57306 38.4751 7.59741 38.4019 7.57306 38.3532C7.54871 38.3045 7.52436 38.2801 7.5 38.2557C7.4513 38.207 7.4026 38.1826 7.3539 38.1582C7.3052 38.1339 7.2565 38.1339 7.2078 38.1339C7.18345 38.1339 7.1591 38.1339 7.13474 38.1339L6.89124 38.1826C6.81819 38.1826 6.74513 38.207 6.67208 38.207H6.45293C6.37987 38.207 6.33117 38.1826 6.25812 38.1826C6.20942 38.1582 6.16072 38.1339 6.16072 38.0607C6.16072 38.012 6.16072 37.9876 6.16072 37.9389C6.20942 37.9145 6.20942 37.8901 6.25812 37.8414Z" fill="white"/>
<path d="M13.2468 38.2313C13.1737 38.1582 13.0763 38.0851 12.9789 38.0364C12.8572 37.9876 12.7598 37.9389 12.638 37.9145L12.5406 37.8901C12.5406 37.7683 12.5406 37.622 12.5406 37.5002L12.6867 37.4514C12.7598 37.4271 12.8572 37.4027 12.9302 37.3783C13.0033 37.3539 13.052 37.3296 13.1007 37.2808C13.125 37.2565 13.1494 37.2321 13.1494 37.2077C13.1737 37.159 13.1737 37.1102 13.1737 37.0615C13.1737 37.0371 13.1494 36.9884 13.125 36.964C13.1007 36.9396 13.0763 36.9396 13.052 36.9152C12.9546 36.8665 12.8815 36.8177 12.8085 36.7446C12.7841 36.7446 12.7841 36.7203 12.7841 36.7203H12.8328C12.8815 36.7203 12.9302 36.7203 12.9789 36.7203H13.0276C13.052 36.7203 13.1007 36.7203 13.125 36.6959C13.1494 36.6959 13.1981 36.6715 13.1981 36.6471C13.2468 36.574 13.2468 36.4765 13.1737 36.4278C13.125 36.379 13.0763 36.3547 13.0276 36.3303C12.9059 36.2816 12.7841 36.2572 12.6624 36.2572H12.6137C12.5893 36.2572 12.5406 36.2572 12.5163 36.2816V36.2572C12.4919 36.1841 12.4432 36.1353 12.3945 36.0866C12.2971 36.0135 12.1754 35.9647 12.0536 35.9403H12.0293C12.0049 35.9403 11.9805 35.9403 11.9562 35.9403C11.9318 35.9403 11.9075 35.9647 11.9075 35.9891C11.8831 36.0378 11.9075 36.0866 11.9318 36.1109C11.9562 36.1109 11.9562 36.1353 11.9805 36.1353C12.0049 36.1597 12.0293 36.1597 12.078 36.1841C12.078 36.1841 12.1023 36.1841 12.1023 36.2084V36.4034C12.1023 36.4034 12.1023 36.4278 12.078 36.4278H12.0536C11.9318 36.4765 11.8344 36.5009 11.7127 36.5496C11.5422 36.6228 11.3961 36.6715 11.2257 36.7446L11.1039 36.7934L11.0796 36.769C11.0552 36.7446 11.0309 36.7446 11.0065 36.7446C10.9578 36.7446 10.9335 36.7934 10.9335 36.8177C10.9335 36.8665 10.9578 36.8909 10.9822 36.9396C11.0552 37.0127 11.1283 37.0371 11.2013 37.0615C11.25 37.0615 11.2987 37.0858 11.3231 37.0858C11.2987 37.1102 11.2987 37.1346 11.2744 37.159C11.2257 37.2321 11.2013 37.3052 11.177 37.4027C11.1526 37.4758 11.177 37.5489 11.2257 37.622C11.2987 37.6952 11.3961 37.7683 11.5179 37.7683H11.5909C11.664 37.7683 11.737 37.7683 11.8101 37.7439L12.1023 37.6464H12.1267C12.1267 37.6708 12.1267 37.6952 12.1267 37.7195C12.1267 37.7439 12.1267 37.7926 12.1267 37.8414V37.8658H12.1023H11.8101C11.7614 37.8658 11.6883 37.8658 11.6396 37.8901C11.5422 37.8901 11.4205 37.9389 11.3231 37.9876C11.25 38.012 11.2013 38.0607 11.1526 38.1095C11.1283 38.1339 11.1039 38.1826 11.0796 38.207C11.0552 38.2557 11.0552 38.3045 11.0552 38.3776C11.0552 38.4507 11.1039 38.5482 11.1526 38.5969C11.2013 38.6701 11.2744 38.7188 11.3718 38.7432C11.5179 38.8163 11.664 38.8407 11.8101 38.8407C11.8831 38.8407 11.9318 38.8407 12.0049 38.8163C12.1023 38.7919 12.1997 38.7675 12.2971 38.7188C12.3945 38.6701 12.4676 38.5969 12.5163 38.4994C12.5163 38.4751 12.5406 38.4507 12.5406 38.4263L12.565 38.4507C12.6624 38.4994 12.7598 38.5482 12.8328 38.5969C12.8572 38.6213 12.9059 38.6457 12.9302 38.6701C12.9789 38.6944 13.0276 38.7188 13.0763 38.7432C13.1007 38.7432 13.125 38.7432 13.1494 38.7432C13.1981 38.7432 13.2224 38.7188 13.2711 38.6944C13.2955 38.6701 13.3442 38.6457 13.3442 38.5969C13.3685 38.5482 13.3685 38.4994 13.3685 38.4507C13.3442 38.3776 13.2955 38.3045 13.2468 38.2313ZM12.638 36.7934L12.7598 36.769C12.7841 36.7934 12.7841 36.8177 12.7841 36.8421C12.7841 36.8665 12.7841 36.9152 12.7841 36.9396C12.7841 36.964 12.7598 36.9884 12.7354 37.0127L12.6137 37.0615C12.6137 36.9396 12.6137 36.8665 12.638 36.7934ZM12.0049 38.3532C11.9562 38.402 11.8831 38.4263 11.8344 38.4263C11.8101 38.4263 11.7614 38.4263 11.737 38.4263C11.664 38.4263 11.6153 38.4263 11.5422 38.402C11.4935 38.402 11.4448 38.3776 11.4205 38.3288C11.3961 38.3045 11.3961 38.2801 11.3961 38.2557C11.3961 38.2314 11.4205 38.2313 11.4205 38.2313C11.4448 38.207 11.4935 38.207 11.5179 38.207C11.5909 38.207 11.6396 38.1826 11.7127 38.1826H11.737C11.8344 38.1826 11.9562 38.207 12.0536 38.2313H12.078C12.078 38.2801 12.0536 38.3288 12.0049 38.3532ZM12.1267 37.2077L11.8344 37.3539L11.5666 37.4758C11.5422 37.4758 11.5422 37.4758 11.5179 37.5002C11.4935 37.5002 11.4935 37.5002 11.4935 37.4758C11.4935 37.4514 11.4935 37.4514 11.4935 37.4271C11.5179 37.4027 11.5179 37.3783 11.5422 37.3539C11.5666 37.3052 11.6153 37.2808 11.664 37.2321C11.7614 37.159 11.8831 37.0858 11.9805 37.0371L12.1754 36.964V36.964V36.9884C12.1754 37.0615 12.1754 37.1102 12.1754 37.1833C12.1754 37.1833 12.151 37.2077 12.1267 37.2077Z" fill="white"/>
<path d="M7.54867 36.0135C7.47562 35.9647 7.40257 35.9403 7.32951 35.9403H7.30516C7.25646 35.9403 7.20776 35.9647 7.15906 36.0135C7.13471 36.0378 7.11036 36.0622 7.08601 36.0866H7.06166C7.03731 36.0866 7.01296 36.0622 6.98861 36.0622H6.96425C6.9399 36.0622 6.8912 36.0866 6.86685 36.1109C6.86685 36.1353 6.86685 36.1353 6.86685 36.1597C6.86685 36.1841 6.8912 36.2084 6.91555 36.2328C6.9399 36.2328 6.98861 36.2572 6.98861 36.3059C7.01296 36.379 7.06166 36.4278 7.08601 36.5009C7.11036 36.5496 7.13471 36.574 7.18341 36.5984C7.20776 36.5984 7.23211 36.6228 7.25646 36.6228C7.32951 36.6228 7.35386 36.5496 7.35386 36.5009C7.35386 36.4522 7.32951 36.4278 7.30516 36.379L7.20776 36.2084C7.18341 36.1841 7.18341 36.1597 7.18341 36.1353C7.18341 36.1109 7.18341 36.1109 7.20776 36.1109H7.23211L7.25646 36.1353C7.28081 36.1597 7.28081 36.1597 7.30516 36.1841C7.35386 36.2572 7.40257 36.3059 7.45127 36.4034C7.45127 36.4278 7.47562 36.4522 7.49997 36.4765C7.52432 36.5009 7.54867 36.5253 7.59737 36.5253C7.62172 36.5253 7.64607 36.5009 7.67042 36.5009C7.69477 36.4765 7.71912 36.4522 7.71912 36.4034C7.71912 36.3547 7.71912 36.3059 7.69477 36.2816C7.64607 36.1353 7.59737 36.0622 7.54867 36.0135Z" fill="white"/>
<path d="M10.276 37.2321C10.1299 37.1346 9.98377 37.0858 9.81332 37.0858H9.78897C9.74027 37.0858 9.71592 37.0858 9.66722 37.0858H9.56981C9.69157 36.9883 9.81332 36.8909 9.95942 36.8177C10.0081 36.7934 10.0325 36.769 10.0812 36.7203C10.1055 36.6959 10.1299 36.6471 10.1299 36.5984C10.1299 36.5496 10.1055 36.5009 10.0812 36.4765C10.0325 36.4034 9.98377 36.3547 9.93507 36.3059C9.86202 36.2572 9.81332 36.2084 9.71592 36.1597C9.64287 36.1109 9.54546 36.0866 9.44806 36.0622C9.42371 36.0622 9.37501 36.0622 9.35066 36.0622C9.30196 36.0622 9.25325 36.0622 9.2289 36.0866C9.15585 36.1109 9.0828 36.1353 9.00975 36.1841C8.9367 36.2084 8.88799 36.2572 8.83929 36.2815L8.59579 36.4278L8.35228 36.574H8.32793C8.32793 36.574 8.32793 36.574 8.30358 36.574C8.27923 36.5496 8.23053 36.5496 8.20618 36.5496C8.15747 36.5496 8.10877 36.5984 8.10877 36.6471C8.10877 36.6715 8.10877 36.7203 8.13312 36.7446C8.15748 36.7934 8.20618 36.8421 8.23053 36.8665C8.30358 36.9152 8.35228 36.9396 8.42533 36.964C8.47403 36.9883 8.52273 36.9883 8.54708 36.9883C8.57144 36.9883 8.62014 36.9883 8.64449 36.964C8.69319 36.9396 8.76624 36.9152 8.81494 36.8909L9.0341 36.7203L9.25325 36.5496L9.42371 36.4278L9.52111 36.3547H9.54546C9.54546 36.3547 9.56981 36.3547 9.56981 36.379C9.56981 36.4034 9.56981 36.4034 9.56981 36.4278C9.56981 36.4522 9.54546 36.4522 9.54546 36.4765C9.52111 36.5009 9.49676 36.5253 9.47241 36.5496L9.2289 36.7934C9.15585 36.8665 9.0828 36.9396 9.00975 36.9883C8.9367 37.0615 8.81494 37.159 8.69319 37.2321C8.47403 37.4027 8.23053 37.5733 7.98702 37.7195C7.93832 37.7439 7.91397 37.7926 7.88962 37.8414C7.88962 37.8658 7.88962 37.8901 7.88962 37.9145C7.88962 37.9389 7.88962 37.9876 7.88962 38.012C7.88962 38.1095 7.93832 38.1826 8.01137 38.2313C8.06007 38.2801 8.10877 38.3045 8.15747 38.3045H8.18183C8.20618 38.3045 8.25488 38.3045 8.27923 38.2801C8.27923 38.3045 8.27923 38.3288 8.27923 38.3532C8.27923 38.4263 8.30358 38.4751 8.35228 38.5482C8.40098 38.6213 8.49838 38.6944 8.57144 38.7432C8.66884 38.7919 8.76624 38.8163 8.86364 38.8407C8.9367 38.8407 9.0341 38.865 9.10715 38.865H9.1315H9.2289L9.49676 38.7919C9.59416 38.7675 9.69157 38.7675 9.76462 38.7432C9.91072 38.6944 10.0568 38.6213 10.2029 38.5482C10.276 38.4994 10.3247 38.4507 10.3734 38.3776C10.4708 38.2557 10.5195 38.1095 10.5438 37.9389C10.5438 37.8414 10.5438 37.7195 10.5195 37.622C10.4708 37.4514 10.3977 37.3296 10.276 37.2321ZM8.9854 38.3045H8.91234C8.86364 38.3045 8.81494 38.3045 8.76624 38.2801C8.71754 38.2801 8.69319 38.2557 8.64449 38.207C8.62014 38.1826 8.59579 38.1339 8.62014 38.1095C8.62014 38.0851 8.64449 38.0851 8.64449 38.0851C8.66884 38.0851 8.66884 38.0851 8.69319 38.0851H8.74189C8.83929 38.1095 8.91234 38.1582 8.96105 38.2313C8.9854 38.2557 8.9854 38.2801 9.00975 38.2801C9.00975 38.2801 9.00975 38.3045 8.9854 38.3045ZM10.0812 37.6952C10.0568 37.7926 10.0081 37.8901 9.95942 37.9632C9.88637 38.0607 9.76462 38.1339 9.64286 38.1826C9.61851 38.1826 9.59416 38.207 9.56981 38.207L9.52111 38.1339C9.47241 38.0607 9.42371 38.012 9.37501 37.9389C9.32631 37.8901 9.25325 37.8414 9.1802 37.817C9.10715 37.7926 9.0341 37.7683 8.96105 37.7683H8.88799H8.83929L8.91234 37.7195C9.00975 37.6464 9.10715 37.5733 9.2289 37.5245C9.35066 37.4514 9.47241 37.4027 9.61851 37.3539C9.66722 37.3296 9.71592 37.3296 9.76462 37.3296H9.81332C9.86202 37.3296 9.93507 37.3539 9.98377 37.3783C10.0325 37.4271 10.0812 37.4758 10.0812 37.5489C10.0812 37.622 10.0812 37.6708 10.0812 37.6952Z" fill="white"/>
<path d="M26.4935 27.7999C26.3231 27.3612 26.0309 26.9713 25.6656 26.7032C25.4465 26.5325 25.2273 26.3619 25.0081 26.2157C24.7646 26.0695 24.4724 25.9964 24.2046 25.9964C23.9124 25.9964 23.6202 26.0695 23.3767 26.1913C23.2062 26.2888 23.0114 26.3376 22.8166 26.3863C22.6461 26.3376 22.5 26.3376 22.3296 26.3132C22.1591 26.3132 22.0374 26.4594 22.013 26.63V33.0644C22.2322 33.2594 22.4757 33.4056 22.7435 33.5274C23.0357 33.6737 23.3767 33.7712 23.7176 33.7712C23.8393 33.7712 23.9367 33.7468 24.0585 33.7224C24.2533 33.6493 24.5455 33.3812 24.9594 32.8938C25.3978 32.3576 25.7874 31.7726 26.0796 31.1633C26.4205 30.5053 26.6153 29.7741 26.6396 29.0429C26.6396 28.6042 26.5909 28.1899 26.4935 27.7999ZM24.7159 29.9934C24.4237 30.8465 24.0828 31.407 23.6932 31.6508V27.7268C24.0341 27.5074 24.4481 27.3612 24.862 27.3368C24.9107 27.3368 24.9594 27.3368 25.0081 27.3612C25.0568 27.3856 25.1299 27.4831 25.1299 27.8974C25.1055 28.6042 24.9594 29.311 24.7159 29.9934Z" fill="#E71E25"/>
<path d="M31.6802 29.6279C31.4854 28.653 31.3393 27.6537 31.2419 26.6544V26.63C31.1202 26.5082 30.7792 26.3863 30.2435 26.2401C29.8296 26.1182 29.3913 26.0451 28.9529 26.0207C28.8555 26.0207 28.7825 26.0207 28.7094 26.0695C28.6364 26.1182 28.6364 26.2157 28.6364 26.4107C28.6607 26.5326 28.6607 26.6544 28.6364 26.8007L27.4189 30.7246C26.9075 30.9684 26.8344 31.0658 26.8344 31.1146C26.8344 31.139 26.8344 31.1877 26.8344 31.2121C26.8344 31.3583 26.9075 31.5045 27.0292 31.602C26.9805 31.7239 26.8831 31.992 26.6883 32.4551C26.4935 32.9181 26.4935 33.04 26.5179 33.0888C26.5422 33.1375 26.6153 33.2106 27.1023 33.4056C27.3458 33.5275 27.6137 33.6006 27.8815 33.6249C27.9059 33.6249 27.9546 33.625 27.9789 33.6006C28.0763 33.5518 28.125 33.4787 28.1737 33.4056C28.1981 33.3325 28.2224 33.235 28.2224 33.1862C28.3685 32.8207 28.5146 32.5038 28.612 32.2601C28.9042 32.1139 29.1965 32.0164 29.4887 31.9432C29.8296 31.8458 30.1705 31.7483 30.5114 31.6995C30.6088 32.0164 30.6818 32.3332 30.7305 32.6501C30.8036 33.0644 30.8523 33.1619 30.901 33.2106C31.0958 33.3812 31.3393 33.5031 31.6072 33.5518C31.8507 33.6493 32.1185 33.6981 32.3864 33.6981C32.4594 33.6981 32.5081 33.6981 32.5568 33.6737C32.6055 33.6006 32.6299 33.5031 32.6299 33.4056C32.6542 33.2106 32.6542 33.0888 32.6786 33.0156C32.3133 32.382 31.9968 31.2364 31.6802 29.6279ZM29.1477 30.4809C29.2208 30.1641 29.3182 29.8472 29.44 29.5304C29.5861 29.0917 29.7078 28.7261 29.8296 28.458C29.8539 28.8479 29.9026 29.2135 29.9757 29.5547C30 29.6766 30.0487 29.896 30.1218 30.2615C29.6104 30.359 29.2939 30.4322 29.1477 30.4809Z" fill="#E71E25"/>
<path d="M53.1819 32.7231V27.2637C53.1819 27.1906 53.2062 27.1175 53.2306 27.0444C53.2549 26.9712 53.2793 26.8738 53.2793 26.7763C53.2793 26.7275 53.2793 26.6788 53.2549 26.63C53.2062 26.4838 53.0357 26.3619 52.7192 26.3132C52.6461 26.3132 52.3783 26.2888 51.8426 26.2401C51.6478 26.2157 51.453 26.1913 51.2582 26.1426C51.0877 26.0938 50.8929 26.0695 50.6981 26.0695C50.6494 26.0695 50.6007 26.0695 50.5276 26.0938C50.4302 26.1182 50.2598 26.2888 49.9432 27.4099C49.4806 28.9698 49.1883 29.9934 48.9935 30.5296L47.7517 27.3612C47.7273 27.3125 47.7273 27.2881 47.7273 27.2393C47.7273 27.215 47.7273 27.1662 47.7517 27.02C47.776 26.9469 47.7517 26.8738 47.7517 26.8006C47.7273 26.7031 47.5569 26.5569 46.5341 26.2888C45.5601 26.0451 45.3409 26.0451 45.2679 26.0695C45.1705 26.1182 45.0974 26.167 45.0487 26.2644C45 26.3376 44.9513 26.4351 44.9513 26.5325V32.845C44.9513 32.9181 44.927 32.9669 44.927 33.04C44.9026 33.1131 44.9026 33.1619 44.9026 33.235C44.9026 33.3081 44.927 33.3568 44.9513 33.4056C45.0244 33.5031 45.2192 33.5762 45.5845 33.6493C45.8523 33.7224 46.1445 33.7712 46.4367 33.7712C46.5098 33.7712 46.6072 33.7712 46.6802 33.7224C46.7776 33.6737 46.802 33.5274 46.8263 33.3325C46.8507 33.1862 46.8263 33.04 46.802 32.8938C46.7776 32.7963 46.7289 32.6744 46.7046 32.5769C46.6559 32.4794 46.6315 32.3819 46.6315 32.2601V28.8479C46.7776 29.1648 47.0455 29.8472 47.4351 30.9196C47.6056 31.407 47.8247 31.992 48.0682 32.6988C48.0682 32.7719 48.0682 32.8694 48.0682 32.9425C48.0439 33.04 48.0682 33.1375 48.1413 33.1862C48.4578 33.4543 49.0422 33.6006 49.8702 33.6006C49.9919 33.6006 50.0893 33.6006 50.2111 33.5762C50.3328 33.5518 50.4059 33.4543 50.4302 33.3325C50.4546 33.2106 50.4546 33.0887 50.4546 32.9669C50.4546 32.8694 50.4302 32.7963 50.4302 32.6988C50.4059 32.6013 50.4059 32.5038 50.4059 32.4307C50.4059 32.4063 50.4059 32.3819 50.4059 32.3576C50.8685 30.5784 51.2338 29.3841 51.5017 28.7992V32.6988C51.5017 32.7719 51.5017 32.8206 51.4773 32.8938C51.453 32.9425 51.453 33.0156 51.453 33.0644C51.453 33.1131 51.453 33.1619 51.4773 33.2106C51.5504 33.3325 51.8182 33.4543 52.2809 33.5762C52.5731 33.6737 52.8653 33.7224 53.1819 33.698C53.3036 33.6737 53.3767 33.5274 53.4254 33.235C53.4254 33.1375 53.401 33.0156 53.328 32.9425C53.2549 32.8938 53.2062 32.8206 53.1819 32.7231Z" fill="#E71E25"/>
<path d="M38.6689 32.2845C38.5958 32.2357 38.5228 32.187 38.4497 32.1382C38.3767 32.0895 38.2792 32.0651 38.2062 32.0407C37.3296 31.1877 36.7452 30.6515 36.4773 30.4321C37.7435 29.3598 38.3767 28.458 38.3523 27.7755C38.328 27.5562 38.2305 27.3368 38.0844 27.1662C37.914 26.9956 37.7192 26.825 37.5244 26.6788C37.4026 26.5569 37.2809 26.4594 37.1104 26.3132C36.9643 26.1913 36.7939 26.1182 36.5991 26.0938C36.5017 26.0695 36.4043 26.0695 36.3068 26.0695C35.9903 26.0938 35.6981 26.167 35.4302 26.3132C35.2354 26.4351 35.0163 26.5082 34.7728 26.5569C34.578 26.5569 34.3831 26.5082 34.2127 26.4594C34.0422 26.4107 33.8718 26.3863 33.677 26.3619C33.4091 26.3863 33.263 26.5082 33.263 26.6788C33.263 26.7032 33.2874 26.7519 33.2874 26.7763C33.3117 26.8006 33.3117 26.8494 33.3117 26.8738V33.0887C33.3117 33.1619 33.3117 33.2106 33.2874 33.2837C33.263 33.3325 33.263 33.3568 33.263 33.4056C33.263 33.5275 33.4578 33.6249 33.8961 33.6981C34.1396 33.7468 34.3831 33.7955 34.6267 33.7955C34.6754 33.7955 34.6997 33.7955 34.7484 33.7955C35.0163 33.7712 35.1624 33.6737 35.1624 33.4787C35.1624 33.4056 35.1137 33.3081 35.065 33.235C35.0163 33.1619 34.9919 33.0887 34.9919 33.0156V31.4314L36.94 33.1375C36.9887 33.2106 37.0374 33.3081 37.0861 33.3812C37.1835 33.5762 37.3783 33.6981 37.5974 33.6981C37.7922 33.6981 38.0601 33.5031 38.3279 33.0887C38.7419 32.5282 38.7176 32.3819 38.6689 32.2845ZM35.0163 29.506V28.2143C35.7468 27.6537 36.2825 27.3612 36.5747 27.3612C36.6721 27.3612 36.6965 27.41 36.6965 27.5074C36.6965 27.7512 36.4773 28.1168 36.039 28.6286C35.7468 28.9942 35.4059 29.2866 35.0163 29.506Z" fill="#E71E25"/>
<path d="M60 32.9913C59.6834 32.382 59.3425 31.2608 59.026 29.6279C58.8312 28.653 58.6851 27.6537 58.5877 26.6544V26.63C58.4659 26.5082 58.125 26.3863 57.5893 26.2401C57.1753 26.1182 56.737 26.0451 56.2987 26.0207C56.1769 26.0207 56.0795 26.0451 56.0552 26.0695C56.0308 26.0939 55.9578 26.2157 55.9821 26.4107C56.0065 26.5326 56.0065 26.6544 55.9821 26.8007L54.7646 30.7246C54.2532 30.9684 54.1802 31.0658 54.1802 31.1146C54.1802 31.139 54.1802 31.1877 54.1802 31.2121C54.1802 31.3583 54.2532 31.5045 54.375 31.602C54.3263 31.7239 54.2289 32.0164 54.0341 32.4551C53.888 32.7963 53.8149 32.9913 53.8393 33.0888C53.8393 33.1375 53.9123 33.1862 54.4237 33.4056C54.6672 33.5275 54.9351 33.6006 55.2029 33.6249C55.2273 33.6249 55.276 33.625 55.3003 33.6006C55.3977 33.5518 55.4464 33.4787 55.4951 33.4056C55.5195 33.3325 55.5438 33.2594 55.5438 33.1862C55.6899 32.8207 55.836 32.5038 55.9334 32.2601C56.2256 32.1139 56.5179 32.0164 56.8101 31.9432C57.151 31.8458 57.4919 31.7483 57.8328 31.6995C57.9302 32.0164 58.0032 32.3332 58.0519 32.6501C58.125 33.0644 58.1737 33.1619 58.2224 33.2106C58.4172 33.3812 58.6607 33.5031 58.9286 33.5518C59.1721 33.6493 59.4399 33.6981 59.7078 33.6981C59.7808 33.6981 59.8295 33.6981 59.8782 33.6737C59.9269 33.6006 59.9513 33.5031 59.9513 33.4056C59.9756 33.2106 59.9756 33.0888 60 33.0156V32.9913ZM56.4692 30.5053C56.5422 30.1884 56.6396 29.8716 56.7614 29.5547C56.9075 29.116 57.0292 28.7505 57.151 28.4824C57.1753 28.8479 57.224 29.2135 57.2727 29.5791C57.2971 29.701 57.3458 29.9447 57.4188 30.2859C56.9562 30.359 56.6396 30.4322 56.4692 30.5053Z" fill="#E71E25"/>
<path d="M43.8799 26.3863C43.6851 26.2644 43.4903 26.1913 43.2711 26.167C43.0033 26.0938 42.7354 26.0451 42.4675 26.0207C42.4188 26.0207 42.3458 26.0207 42.2971 26.0451C42.1266 26.1426 42.0292 26.3376 42.0779 26.5325C42.1023 26.6057 42.1266 26.6788 42.1753 26.7519C42.224 26.8494 42.224 26.9469 42.1997 27.02C42.2484 27.4587 42.2727 27.8974 42.2727 28.3117C42.2727 29.2379 42.224 30.1397 42.1023 31.0658C41.9562 32.0651 41.737 32.5769 41.4448 32.6013C41.2987 32.6013 41.1039 32.3088 40.9334 31.0171C40.836 30.0666 40.7873 29.116 40.7873 28.1899C40.763 27.873 40.7873 27.5318 40.836 27.215C40.836 27.1175 40.8604 26.9956 40.9091 26.9225C40.9578 26.825 41.0065 26.7032 41.0065 26.5813C41.0065 26.5325 40.9821 26.4594 40.9578 26.4107C40.8847 26.3376 40.6412 26.2401 40.2029 26.1182C39.6429 25.972 39.4968 25.972 39.4481 25.9964C39.2776 26.0451 39.1559 26.1913 39.1559 26.3863C39.0584 27.0687 39.0097 27.7512 39.0341 28.4336C39.0341 29.3598 39.1071 30.2859 39.2533 31.1877C39.4237 32.0895 39.6185 32.6744 39.8864 32.9425C40.0325 33.0887 40.2029 33.1862 40.3977 33.2106C40.6169 33.2837 40.8604 33.3325 41.0309 33.3568L41.7614 33.5762C41.9318 33.6249 42.1266 33.6737 42.3214 33.6737C42.3458 33.6737 42.3945 33.6737 42.4188 33.6737C43.4659 33.5518 43.9529 31.8457 43.9529 28.4092C43.9529 27.1662 43.9529 26.825 43.9286 26.7032C43.9286 26.5569 43.9286 26.4351 43.8799 26.3863Z" fill="#E71E25"/>
</svg>
