<?xml version="1.0" encoding="utf-8"?>
<!-- Generator: Adobe Illustrator 24.2.1, SVG Export Plug-In . SVG Version: 6.00 Build 0)  -->
<svg version="1.1" id="Layer_1" xmlns="http://www.w3.org/2000/svg" xmlns:xlink="http://www.w3.org/1999/xlink" x="0px" y="0px"
	 viewBox="0 0 1024 176" style="enable-background:new 0 0 1024 176;" xml:space="preserve">
<style type="text/css">
	.st0{fill:#FFFFFF;}
</style>
<g>
	<path class="st0" d="M143.7,97.7c0.3,10.7,3.2,21.2,8.5,30.5c1.6,2.9,3.8,5.4,5.7,8.2c2.4,2.8,5.1,5.7,8,8
		c34.1,29.6,91.3,20.1,111.9-18.3c0-0.1,0-0.2,0-0.3c0-3.4-0.4-6.8-1.1-10.2c-0.7-3.3-1.6-6.6-2.9-9.7c-1.2-3.1-2.8-6.2-4.5-9
		c-1.8-2.9-3.8-5.6-6.1-8.1c-2.3-2.5-4.8-5-7.6-6.9c-2.9-2.1-6-4-9.2-5.7c-3.1-1.7-6.3-3.1-9.7-4.3c-3.3-1.2-6.7-2.1-10.2-2.7
		c-3.4-0.6-6.9-1-10.4-1.1c-3.5-0.1-7,0.2-10.4,0.7c-3.5,0.6-6.9,1.5-10.2,2.7c-3.4,1.3-6.7,2.9-9.8,4.8c0,0-7,5.9-2.3,10.7
		c3.9,4,11.6-1.4,11.6-1.4c19.9-12.1,47.9,2,48,25.9c0.5,23.3-21.8,36.1-43,31.4c-24.9-6.6-36.5-35-29.3-58.6
		c8.4-31,43.4-46.9,67.6-28c6.8,5,12.2,12.2,14.9,20.3c15.5,9.6,25.5,26,27.1,44.1c3.1-7.2,4.6-15.1,4.8-22.9
		C283,13.1,146,12.9,143.7,97.7"/>
	<path class="st0" d="M292.7,73.4c0,0.1,0,0.2,0,0.3c-37.3-91.3-189.9-48.2-156.9,51.5c3.2,8.7,8.2,16.5,14,23.6l5.1,5.2l0.4,0.3
		C126.9,170.6,97,148,97,148c-0.4-3.3,28.6,0.5,26.8-12.4c-1.8-13-11.7-11.8-15.6-9.5c-31.8,19-42.1,2.4-52.4-13.6
		c13.4,1.7,21.1,4.2,25.9,1.6c3.6-1.9,7.1-3.8,7.9-8c3.4-17.9-7.2-23.4-25.8-15.9c-33.6,13.6-53.5-11.7-53.5-11.7
		c34,9.9,35.1-39.8,84.4-10.4c19.1,9.1,29.5-25.1-16.6-23.5c20.5-32.3,57.6,9.5,72.2-8.6c-16.4-1.1-24.6-13.6-25.9-15.6
		c2.1,0.4,4.3,0.4,6.4,0.4c3.9,0.1,7.8,0.1,11.7,0c5.2-0.2,10.4-0.4,15.5-1c4.9-0.6,9.4-1.7,14.2-2.8c23.9-5.7,48.5-8.2,71.9,0.9
		c1.8,0.7,3.6,1.5,5.4,2.3c2.2,1,4.3,2.2,6.4,3.4c5.6,3.3,10.9,7.3,15.5,11.9c4,3.9,7.5,8.3,10.5,12.9c2.5,3.8,4.6,7.8,6.5,12
		c1.3,3,2.4,6,3.3,9.1C292.1,70.7,292.4,72.1,292.7,73.4"/>
</g>
<g>
	<path class="st0" d="M386.3,45.9c-30.6,0-54.9,23.6-54.9,52.3c0,23.1,16.8,39,42.5,39c14.8,0,34.8-4.6,37.4-18.4l5.7-28.7h-34
		l-3.2,16.1h14.3l-1.2,6.1c-1,4.9-10.5,6.4-16.7,6.4c-16.8,0-22-9.5-22-21.4c0-14.9,11-32.9,31.6-32.9c4.9,0,14.1,1.1,13.1,6.7
		l-1.2,6.4h19.5l2.8-14.3C423.1,49.5,398.2,45.9,386.3,45.9"/>
	<polygon class="st0" points="431.4,91 427.8,109.6 466.6,109.6 470.2,91 	"/>
	<path class="st0" d="M550.6,50.3c-5.9-2-12-2.8-19.9-2.8h-37.2l-3.1,16.1h9.8l-10.9,56.2h-9.8l-3.1,16.1h43.4
		c7.4,0,13.5-0.9,19.9-3.2c19.8-7.5,32.5-27.9,32.5-49.4C572.2,66.2,564.5,55.2,550.6,50.3 M533,115.5c-4,2-8.5,3-13.7,3h-7.7
		L522,64.7h7.7c4.3,0,7.5,0.5,10.6,1.9c6.3,2.8,9.6,8.6,9.6,18.2C550,97.8,543.4,110.3,533,115.5"/>
	<path class="st0" d="M613.5,70.7c-21,0-36.7,16.7-36.7,38.8c0,14.9,10.8,27.8,32.5,27.8c7.4,0,13.7-2.1,18.3-4.2
		c2.7-1.2,5.2-2.6,7.4-4.1l-5.4-15.8c-1.8,1.2-3.8,2.4-5.9,3.2c-3.6,1.6-8.2,3.2-13,3.2c-7.5,0-12.5-4.1-12.5-10.5
		c0-0.4,0.1-0.5,0.1-0.9v-0.4h40c0.5-1.2,0.9-2.6,1.2-4c0.6-2.4,1.1-5.4,1.1-8.3C640.6,80.9,631.5,70.7,613.5,70.7 M619.8,95.1
		c-0.1,0.4-0.1,0.6-0.1,1h-18.8c2-5.1,5.9-9.4,12.2-9.4c4.3,0,6.8,3,6.8,6.9C619.9,94,619.9,94.6,619.8,95.1"/>
	<path class="st0" d="M675.7,119.3c-3.5,0-4.8-1.1-4.8-4.1c0-1.4,0.3-3,0.6-4.8l12.1-63h-30l-3,15.4h8.6l-9.6,49.4
		c-0.6,2.8-0.9,5.6-0.9,8c0,14.1,10,16.1,19.8,16.1c1.8,0,3.2,0,4.6-0.1l1.8-0.3l3.3-16.8h-0.7C677.1,119.2,676.6,119.3,675.7,119.3
		"/>
	<path class="st0" d="M707,47.4l-3.2,16.7h20.9l3.2-16.7H707z M719.8,120.4c-3.5,0-4.8-1.6-4.8-4.4c0-1.4,0.1-2.7,0.5-4.1l7.8-39.8
		h-30l-3,15.4h8.6l-5.1,25.9c-0.6,3.1-1,5.6-1,7.9c0,13.8,10.1,14.7,19.9,14.7c1.9,0,3.2,0,4.6-0.1l1.9-0.2l3-15.4h-0.7
		C720.9,120.3,720.3,120.4,719.8,120.4"/>
	<path class="st0" d="M775.7,72.1l-3.1,15.4h5.7l-11.7,23c-1,1.9-1.8,4.1-2.5,5.7c-0.4,0.9-0.6,1.9-0.9,2.7h-0.5
		c0.1-0.9,0.1-1.8,0.1-2.7c0-1.6,0.1-3.8-0.3-5.7l-2.8-23h5.7l3.1-15.4h-33.2l-3.1,15.4h7.2l8.3,48.2h25.2l27.1-48.2h7.2l3.1-15.4
		H775.7z"/>
	<path class="st0" d="M844.7,70.7c-21,0-36.7,16.7-36.7,38.8c0,14.9,10.8,27.8,32.5,27.8c7.4,0,13.7-2.1,18.3-4.2
		c2.7-1.2,5.2-2.6,7.4-4.1l-5.4-15.8c-1.9,1.2-3.8,2.4-5.9,3.2c-3.6,1.6-8.2,3.2-13,3.2c-7.5,0-12.5-4.1-12.5-10.5
		c0-0.4,0.1-0.5,0.1-0.9v-0.4h40c0.5-1.2,0.9-2.6,1.2-4c0.6-2.4,1.1-5.4,1.1-8.3C871.9,80.9,862.8,70.7,844.7,70.7 M851,95.1
		c-0.1,0.4-0.1,0.6-0.1,1h-18.8c2-5.1,5.9-9.4,12.2-9.4c4.3,0,6.8,3,6.8,6.9C851.2,94,851.2,94.6,851,95.1"/>
	<path class="st0" d="M935.2,71.2c-0.4-0.1-1.2-0.1-2.6-0.1c-9,0-17.9,7.2-22,15.8h-0.2c0.9-2.8,1.7-7,1.7-8.9
		c0-3.8-2.6-5.8-7.7-5.8h-20.1l-3.1,15.4h5.9c2.1,0,2.6,1.4,2.2,2.7l-8.8,45.5h21.4l4.3-22.7c3-16.8,15.4-21.1,21.7-21.1
		c1.4,0,2.2,0,3.1,0.1l1.1,0.3l4.1-21C935.9,71.3,935.5,71.3,935.2,71.2"/>
	<path class="st0" d="M980.4,72.1l-3,15.4h5.8l-12.1,23.6c-1.1,2.1-2,4-2.6,5.6l-1,2.7H967l0.3-2.7c0.1-1.6,0.2-3.7-0.1-5.6
		L964,87.6h6.2l3-15.4h-34.3l-3,15.4h7.2l11,51.1l-0.4,0.6c-2.5,4-7,5.2-11.5,5.2c-3.3,0-6.3,17.2-0.4,17.2
		c11.6,0,22.5-4.4,31.8-20.4l31-53.7h6.5l3-15.4H980.4z"/>
</g>
</svg>
