<?xml version="1.0" encoding="utf-8"?>
<!-- Generator: Adobe Illustrator 25.0.1, SVG Export Plug-In . SVG Version: 6.00 Build 0)  -->
<svg version="1.1" id="Layer_1" xmlns="http://www.w3.org/2000/svg" xmlns:xlink="http://www.w3.org/1999/xlink" x="0px" y="0px"
	 viewBox="0 0 200 35" style="enable-background:new 0 0 200 35;" xml:space="preserve">
<style type="text/css">
	.st0{fill:#FFFFFF;}
	.st1{fill:#E56D30;}
	.st2{fill:#D97443;}
</style>
<rect class="st0" width="200" height="35"/>
<g>
	<path class="st1" d="M105.5,19.16c-0.11,0.04-0.22,0.07-0.32,0.11C105.26,19.25,105.37,19.2,105.5,19.16 M94.32,13.01
		c0,0.14,0,0.29,0.02,0.43c0,0.04,0,0.09,0.02,0.13c0,0.09,0.02,0.19,0.02,0.28l0.02,0.15c0.01,0.1,0.02,0.19,0.04,0.28
		c0,0.04,0.02,0.09,0.02,0.15c0.02,0.11,0.04,0.19,0.07,0.3c0,0.04,0.02,0.06,0.02,0.11c0.03,0.13,0.06,0.26,0.11,0.39
		c0,0.04,0.02,0.06,0.02,0.11c0.02,0.09,0.07,0.2,0.09,0.28l0.04,0.15c0.02,0.09,0.06,0.15,0.09,0.24c0.01,0.05,0.04,0.1,0.07,0.15
		c0.02,0.04,0.07,0.15,0.11,0.24l0.06,0.15c0.04,0.11,0.11,0.19,0.15,0.3l0.06,0.13c0.04,0.09,0.11,0.19,0.15,0.28
		c0.02,0.04,0.06,0.11,0.09,0.15c0.02,0.04,0.09,0.13,0.13,0.19c0.03,0.05,0.07,0.1,0.11,0.15c0.04,0.04,0.09,0.13,0.13,0.17
		c0.04,0.04,0.08,0.1,0.11,0.15c0.02,0.04,0.09,0.11,0.13,0.17l0.11,0.15c0.09,0.09,0.17,0.18,0.24,0.28l0.15,0.15l0.13,0.13
		l0.17,0.17l0.13,0.13l0.17,0.15l0.13,0.11c0.06,0.06,0.13,0.11,0.19,0.17l0.09,0.06c0.15,0.13,0.31,0.24,0.48,0.35l0.06,0.04
		c0.09,0.04,0.15,0.11,0.24,0.15l0.11,0.07l0.24,0.15l0.11,0.07c0.09,0.04,0.18,0.09,0.26,0.15l0.09,0.04
		c0.3,0.15,0.61,0.3,0.93,0.43l0.07,0.02l0.28,0.11l0.11,0.04c0.1,0.04,0.2,0.07,0.3,0.09l0.09,0.02c1.02,0.32,2.09,0.48,3.16,0.48
		c3.88,0,7.23-2.04,8.86-5c-0.02-2.51-1.24-4.86-3.27-6.32v0.02c-1.54-1.15-3.41-1.77-5.33-1.78c-1.56,0-2.79,0.11-4.29,1.1
		c0,0-0.97,0.82-0.32,1.49c0.54,0.56,1.62-0.19,1.62-0.19c0.69-0.39,1.46-0.6,2.25-0.61c2.4-0.07,4.4,1.83,4.47,4.23
		c0.05,1.96-1.21,3.71-3.08,4.28c-0.02,0-0.03,0.01-0.04,0.02c-0.09,0.02-0.17,0.04-0.24,0.06c-0.29,0.06-0.57,0.11-0.87,0.13h-0.45
		l-0.02,0.02l-0.32-0.02h-0.04l-0.32,0.02h-0.06c-0.09-0.02-0.17-0.02-0.26-0.04l-0.11-0.04c-0.11-0.02-0.22-0.05-0.32-0.09
		c-3.21-0.91-4.98-4.55-3.96-8.14c1.02-3.6,4.44-5.76,7.65-4.85c0.12,0.03,0.23,0.06,0.35,0.11c0.04,0,0.07,0.02,0.11,0.04
		l0.24,0.11c0.04,0.02,0.06,0.02,0.11,0.04l0.26,0.13l0.06,0.04c0.11,0.06,0.22,0.11,0.3,0.17c0.02,0.02,0.04,0.02,0.07,0.04
		c0.09,0.05,0.17,0.1,0.24,0.17l0.09,0.07c0.06,0.06,0.15,0.11,0.22,0.17l0.07,0.04c0.18,0.15,0.36,0.32,0.52,0.5l0.04,0.04
		c0.07,0.08,0.14,0.16,0.22,0.24l0.04,0.04c0.23,0.3,0.43,0.62,0.61,0.95l0.02,0.02c0.14,0.26,0.25,0.54,0.35,0.82
		c2.17,1.34,3.57,3.63,3.79,6.17c0.14-0.34,0.26-0.69,0.37-1.04v-0.04c0.04-0.15,0.07-0.28,0.11-0.43c0-0.04,0.02-0.09,0.02-0.13
		c0.02-0.13,0.04-0.24,0.06-0.37c0-0.04,0.02-0.11,0.02-0.15c0.02-0.13,0.02-0.24,0.04-0.37c0-0.05,0-0.1,0.02-0.15
		c0.02-0.17,0.03-0.35,0.02-0.52c0-4.98-4.44-9.01-9.9-9.01C98.76,4.02,94.32,8.03,94.32,13.01"/>
	<path class="st1" d="M80.34,26.48c0.84,0,2.57,0.25,2.36,1.21l-0.2,1h-1.36l0.09-0.45c0.07-0.39-0.57-0.47-0.91-0.47
		c-1.44,0-2.21,1.25-2.21,2.29c0,0.83,0.36,1.49,1.54,1.49c0.43,0,1.1-0.1,1.16-0.45l0.09-0.42h-1l0.22-1.12h2.37l-0.4,2
		c-0.18,0.97-1.58,1.28-2.61,1.28c-1.79,0-2.97-1.11-2.97-2.73C76.51,28.12,78.2,26.48,80.34,26.48"/>
	<path class="st1" d="M86.85,31.62h0.68l0.76-3.92h-0.68l0.22-1.12h2.6c0.55,0,0.97,0.06,1.39,0.2c0.97,0.34,1.51,1.11,1.51,2.29
		c0,1.5-0.89,2.92-2.27,3.45c-0.45,0.16-0.87,0.22-1.39,0.22h-3.03L86.85,31.62z M89.62,31.54c0.36,0,0.68-0.07,0.96-0.21
		c0.72-0.36,1.18-1.23,1.18-2.15c0-0.66-0.23-1.07-0.67-1.27c-0.22-0.09-0.44-0.13-0.74-0.13h-0.53l-0.72,3.75H89.62z"/>
	<path class="st1" d="M96.19,28.2c1.26,0,1.9,0.72,1.9,1.74c0,0.2-0.03,0.41-0.08,0.58c-0.03,0.09-0.05,0.19-0.09,0.28h-2.79v0.03
		c0,0.03-0.01,0.03-0.01,0.06c0,0.45,0.34,0.73,0.87,0.73c0.34,0,0.66-0.11,0.91-0.22c0.15-0.06,0.28-0.14,0.41-0.22l0.38,1.1
		c-0.16,0.1-0.33,0.2-0.52,0.28c-0.32,0.15-0.76,0.29-1.28,0.29c-1.52,0-2.27-0.9-2.27-1.94C93.63,29.37,94.73,28.2,96.19,28.2
		 M96.63,29.98c0-0.03,0-0.04,0.01-0.07c0.01-0.03,0.01-0.08,0.01-0.1c0-0.28-0.17-0.48-0.47-0.48c-0.44,0-0.72,0.3-0.85,0.66H96.63
		z"/>
	<path class="st1" d="M98.72,31.11l0.67-3.45h-0.6L99,26.58h2.1l-0.85,4.4c-0.03,0.13-0.04,0.24-0.04,0.34
		c0,0.21,0.1,0.28,0.34,0.28c0.06,0,0.09-0.01,0.13-0.01h0.05l-0.23,1.17l-0.13,0.02c-0.09,0.01-0.19,0.01-0.32,0.01
		c-0.68,0-1.38-0.14-1.38-1.12C98.66,31.5,98.68,31.31,98.72,31.11"/>
	<path class="st1" d="M101.81,31.19l0.35-1.81h-0.6l0.21-1.08h2.1l-0.54,2.78c-0.03,0.09-0.03,0.19-0.03,0.28
		c0,0.2,0.1,0.31,0.34,0.31c0.03,0,0.08-0.01,0.11-0.01h0.05l-0.21,1.08l-0.13,0.02c-0.1,0.01-0.19,0.01-0.32,0.01
		c-0.68,0-1.39-0.06-1.39-1.03C101.74,31.58,101.76,31.41,101.81,31.19 M102.72,26.58h1.46l-0.22,1.16h-1.46L102.72,26.58z"/>
	<path class="st1" d="M104.98,29.38h-0.5l0.22-1.08h2.32l-0.22,1.08h-0.4l0.2,1.6c0.03,0.13,0.02,0.28,0.02,0.4
		c0,0.06,0,0.13-0.01,0.19h0.03c0.02-0.06,0.03-0.13,0.06-0.19c0.04-0.11,0.1-0.27,0.17-0.4l0.82-1.6h-0.4l0.22-1.08h2.41
		l-0.22,1.08h-0.5l-1.89,3.36h-1.76L104.98,29.38z"/>
	<path class="st1" d="M112.34,28.2c1.26,0,1.9,0.72,1.9,1.74c0,0.2-0.03,0.41-0.08,0.58c-0.03,0.09-0.05,0.19-0.09,0.28h-2.79v0.03
		c0,0.03-0.01,0.03-0.01,0.06c0,0.45,0.34,0.73,0.87,0.73c0.34,0,0.66-0.11,0.91-0.22c0.15-0.06,0.28-0.14,0.41-0.22l0.38,1.1
		c-0.16,0.1-0.33,0.2-0.52,0.28c-0.32,0.15-0.76,0.29-1.28,0.29c-1.52,0-2.27-0.9-2.27-1.94C109.77,29.37,110.87,28.2,112.34,28.2
		 M112.77,29.98c0-0.03,0-0.04,0.01-0.07c0.01-0.03,0.01-0.08,0.01-0.1c0-0.28-0.17-0.48-0.47-0.48c-0.44,0-0.72,0.3-0.85,0.66
		H112.77z"/>
	<path class="st1" d="M115.45,29.57c0.03-0.09-0.01-0.19-0.16-0.19h-0.41l0.22-1.08h1.41c0.35,0,0.53,0.14,0.53,0.41
		c0,0.13-0.06,0.42-0.12,0.62h0.02c0.28-0.6,0.91-1.1,1.53-1.1c0.09,0,0.16,0,0.18,0.01c0.03,0.01,0.05,0.01,0.08,0.01l-0.28,1.47
		l-0.08-0.02c-0.06-0.01-0.12-0.01-0.22-0.01c-0.44,0-1.31,0.3-1.52,1.47l-0.3,1.59h-1.49L115.45,29.57z"/>
	<path class="st1" d="M119.13,33.36c0.31,0,0.63-0.09,0.8-0.36l0.03-0.04l-0.77-3.57h-0.5l0.21-1.08h2.4l-0.21,1.08h-0.43l0.22,1.65
		c0.03,0.13,0.02,0.28,0.01,0.39l-0.02,0.19h0.03l0.07-0.19c0.04-0.11,0.1-0.24,0.18-0.39l0.84-1.65h-0.41l0.21-1.08h2.35
		l-0.21,1.08h-0.46l-2.16,3.75c-0.65,1.11-1.41,1.42-2.22,1.42C118.69,34.56,118.9,33.36,119.13,33.36"/>
	<g>
		<path class="st1" d="M91.62,2.19c-0.01-0.02-0.02-0.04-0.02-0.04C91.54,2.16,91.55,2.18,91.62,2.19z"/>
		<path class="st1" d="M95.19,20.17l-0.08-0.11c-0.02-0.03-0.05-0.06-0.08-0.09l-0.09-0.1l-0.18-0.26
			c-0.05-0.06-0.11-0.14-0.18-0.25c-0.05-0.07-0.1-0.13-0.13-0.17c-0.08-0.1-0.15-0.2-0.21-0.3l-0.01-0.01
			c-0.05-0.08-0.12-0.18-0.19-0.3c-0.05-0.08-0.08-0.15-0.11-0.2c-0.01-0.02-0.02-0.04-0.04-0.07c-0.04-0.07-0.08-0.15-0.11-0.21
			l-0.1-0.2l-0.01-0.02c-0.04-0.07-0.1-0.18-0.16-0.33l-0.04-0.1c-0.03-0.06-0.05-0.12-0.08-0.17c-0.07-0.13-0.13-0.27-0.17-0.42
			c-0.03-0.08-0.07-0.18-0.11-0.31l-0.05-0.17l-0.01-0.03c-0.03-0.09-0.06-0.19-0.08-0.27l-0.02-0.1c-0.05-0.15-0.09-0.31-0.12-0.47
			c-0.01-0.05-0.03-0.11-0.04-0.18c0-0.02-0.01-0.04-0.01-0.05c-0.01-0.06-0.03-0.12-0.04-0.19l-0.03-0.18v-0.03
			c-0.03-0.13-0.04-0.25-0.05-0.38l-0.03-0.22v-0.07c0-0.01,0-0.03,0-0.04c-0.02-0.1-0.03-0.21-0.04-0.31
			c-0.02-0.19-0.03-0.38-0.02-0.57c0.01-5.92,5.18-10.73,11.54-10.73c0.01,0,0.03,0,0.04,0c0.03,0,0.05,0,0.08,0
			c5.03,0,9.33,2.96,10.96,7.09c-0.77-3.88-3.12-7.61-7.97-8.69c-2.03-0.58-5.07-0.47-8.73,0.71c-2.18,0.7-6.3,0.62-6.85,0.52
			c0.17,0.28,1.32,2.02,3.62,2.18c0,0-0.66,1.28-2.92,0.4c-4.02-1.57-5.89-1.13-7.19,0.8c0,0,5.18-0.09,4.52,2.46
			c-0.28,1.09-1.27,1.32-2.2,0.84c-3.02-1.59-3.87-1.49-5.72-0.91c-1.28,0.4-3.82,3.59-6.08,2.37c0,0,2.78,3.54,7.49,1.63
			c2.61-1.06,4.09-0.28,3.62,2.23c-0.11,0.59-0.61,0.86-1.11,1.12c-0.68,0.36-1.76,0.02-3.63-0.22c0,0,1.49,2.58,2.57,2.79
			c0.93,0.19,1.65,0.94,4.76-0.88c0.55-0.32,1.94-0.49,2.19,1.32c0.25,1.81-3.81,1.27-3.75,1.74c0,0,4.19,3.17,8.17,0.89l-0.05-0.05
			L95.19,20.17z"/>
	</g>
	<path class="st1" d="M105.5,19.16c-0.11,0.04-0.22,0.07-0.32,0.11C105.26,19.25,105.37,19.2,105.5,19.16 M94.32,13.01
		c0,0.14,0,0.29,0.02,0.43c0,0.04,0,0.09,0.02,0.13c0,0.09,0.02,0.19,0.02,0.28l0.02,0.15c0.01,0.1,0.02,0.19,0.04,0.28
		c0,0.04,0.02,0.09,0.02,0.15c0.02,0.11,0.04,0.19,0.07,0.3c0,0.04,0.02,0.06,0.02,0.11c0.03,0.13,0.06,0.26,0.11,0.39
		c0,0.04,0.02,0.06,0.02,0.11c0.02,0.09,0.07,0.2,0.09,0.28l0.04,0.15c0.02,0.09,0.06,0.15,0.09,0.24c0.01,0.05,0.04,0.1,0.07,0.15
		c0.02,0.04,0.07,0.15,0.11,0.24l0.06,0.15c0.04,0.11,0.11,0.19,0.15,0.3l0.06,0.13c0.04,0.09,0.11,0.19,0.15,0.28
		c0.02,0.04,0.06,0.11,0.09,0.15c0.02,0.04,0.09,0.13,0.13,0.19c0.03,0.05,0.07,0.1,0.11,0.15c0.04,0.04,0.09,0.13,0.13,0.17
		c0.04,0.04,0.08,0.1,0.11,0.15c0.02,0.04,0.09,0.11,0.13,0.17l0.11,0.15c0.09,0.09,0.17,0.18,0.24,0.28l0.15,0.15l0.13,0.13
		l0.17,0.17l0.13,0.13l0.17,0.15l0.13,0.11c0.06,0.06,0.13,0.11,0.19,0.17l0.09,0.06c0.15,0.13,0.31,0.24,0.48,0.35l0.06,0.04
		c0.09,0.04,0.15,0.11,0.24,0.15l0.11,0.07l0.24,0.15l0.11,0.07c0.09,0.04,0.18,0.09,0.26,0.15l0.09,0.04
		c0.3,0.15,0.61,0.3,0.93,0.43l0.07,0.02l0.28,0.11l0.11,0.04c0.1,0.04,0.2,0.07,0.3,0.09l0.09,0.02c1.02,0.32,2.09,0.48,3.16,0.48
		c3.88,0,7.23-2.04,8.86-5c-0.02-2.51-1.24-4.86-3.27-6.32v0.02c-1.54-1.15-3.41-1.77-5.33-1.78c-1.56,0-2.79,0.11-4.29,1.1
		c0,0-0.97,0.82-0.32,1.49c0.54,0.56,1.62-0.19,1.62-0.19c0.69-0.39,1.46-0.6,2.25-0.61c2.4-0.07,4.4,1.83,4.47,4.23
		c0.05,1.96-1.21,3.71-3.08,4.28c-0.02,0-0.03,0.01-0.04,0.02c-0.09,0.02-0.17,0.04-0.24,0.06c-0.29,0.06-0.57,0.11-0.87,0.13h-0.45
		l-0.02,0.02l-0.32-0.02h-0.04l-0.32,0.02h-0.06c-0.09-0.02-0.17-0.02-0.26-0.04l-0.11-0.04c-0.11-0.02-0.22-0.05-0.32-0.09
		c-3.21-0.91-4.98-4.55-3.96-8.14c1.02-3.6,4.44-5.76,7.65-4.85c0.12,0.03,0.23,0.06,0.35,0.11c0.04,0,0.07,0.02,0.11,0.04
		l0.24,0.11c0.04,0.02,0.06,0.02,0.11,0.04l0.26,0.13l0.06,0.04c0.11,0.06,0.22,0.11,0.3,0.17c0.02,0.02,0.04,0.02,0.07,0.04
		c0.09,0.05,0.17,0.1,0.24,0.17l0.09,0.07c0.06,0.06,0.15,0.11,0.22,0.17l0.07,0.04c0.18,0.15,0.36,0.32,0.52,0.5l0.04,0.04
		c0.07,0.08,0.14,0.16,0.22,0.24l0.04,0.04c0.23,0.3,0.43,0.62,0.61,0.95l0.02,0.02c0.14,0.26,0.25,0.54,0.35,0.82
		c2.17,1.34,3.57,3.63,3.79,6.17c0.14-0.34,0.26-0.69,0.37-1.04v-0.04c0.04-0.15,0.07-0.28,0.11-0.43c0-0.04,0.02-0.09,0.02-0.13
		c0.02-0.13,0.04-0.24,0.06-0.37c0-0.04,0.02-0.11,0.02-0.15c0.02-0.13,0.02-0.24,0.04-0.37c0-0.05,0-0.1,0.02-0.15
		c0.02-0.17,0.03-0.35,0.02-0.52c0-4.98-4.44-9.01-9.9-9.01C98.76,4.02,94.32,8.03,94.32,13.01"/>
	<g>
		<path class="st2" d="M111.17,22.71c-0.4-0.01-0.79-0.02-1.19-0.03c-1.06,0.55-2.21,0.95-3.43,1.18c1.54-0.02,3.08-0.06,4.62-0.1
			c3.39-0.1,6.78-0.25,10.16-0.52C117.94,22.96,114.56,22.82,111.17,22.71z"/>
		<path class="st2" d="M100.61,23.53c-0.2-0.04-0.39-0.1-0.57-0.17l-0.1-0.04l-0.23-0.09l-0.08-0.03l-0.05-0.02
			c-0.39-0.16-0.75-0.34-1.06-0.49l-0.22-0.11l-0.01-0.01c-2.49,0.02-4.97,0.06-7.46,0.13c-3.39,0.1-6.78,0.25-10.16,0.52
			c3.39,0.28,6.78,0.42,10.16,0.52c3.39,0.1,6.78,0.14,10.16,0.14c0.39,0,0.77,0,1.16,0C101.64,23.81,101.12,23.69,100.61,23.53z"/>
	</g>
</g>
</svg>
