<svg width="109" height="109" viewBox="0 0 109 109" fill="none" xmlns="http://www.w3.org/2000/svg">
<rect width="109" height="109" rx="19" fill="#FFFCFC"/>
<path d="M75.3508 65.9411C75.4704 66.1815 75.5303 66.4219 75.5303 66.6021C75.5303 66.6622 75.5303 66.6622 75.5303 66.7223L75.4106 67.9842C75.4704 68.1043 75.4704 68.2245 75.4704 68.4048C75.4704 68.525 75.4704 68.585 75.4704 68.585C75.4106 68.585 75.3508 68.6451 75.3508 68.7052L75.2312 68.7653L74.9919 68.585C74.8125 68.4048 74.7527 68.2846 74.7527 68.1644C74.6929 68.1043 74.6331 67.9241 74.6331 67.7438C74.6331 67.6837 74.6331 67.6236 74.6331 67.6236L74.6929 66.6021V66.542C74.6929 66.3017 74.5732 66.1815 74.3938 66.1815C74.3938 66.1815 74.334 66.1815 74.2742 66.1815C73.7957 66.2416 73.2574 66.6021 72.5396 67.4434C72.4798 67.5034 72.3602 67.5635 72.1209 67.6837L72.0611 67.7438L72.0013 67.6837H71.9415H71.8817C71.8817 67.6837 71.8817 67.6236 71.8218 67.5635C71.762 67.5635 71.7022 67.5635 71.7022 67.6236C71.7022 67.5635 71.6424 67.5635 71.5826 67.5635C71.5228 67.2631 71.463 67.0828 71.463 66.9627V66.3618C71.463 66.3017 71.463 66.3017 71.463 66.3017L71.5228 65.0398C71.5228 64.9797 71.5228 64.9196 71.5228 64.8596C71.5228 64.7995 71.5228 64.7995 71.5228 64.7394C71.5228 64.6793 71.5228 64.6793 71.5228 64.6192C71.5228 64.6192 71.5228 64.5591 71.5228 64.4389C71.5228 64.3188 71.5826 63.8381 71.6424 63.0569C71.6424 62.9968 71.7022 62.9367 71.8218 62.8766H71.8817C71.9415 62.8766 72.0611 62.9367 72.1807 63.0569C72.2405 63.117 72.3004 63.1771 72.3602 63.2372C72.42 63.4775 72.42 63.6578 72.42 63.778L72.3602 64.6192V64.8596V65.16V66.0613C72.42 66.0012 72.5994 65.8811 72.7789 65.821C72.7789 65.821 72.9583 65.7008 73.1975 65.4604C73.3172 65.4004 73.377 65.4004 73.4966 65.3403C73.7957 65.2201 74.0349 65.0999 74.334 65.0999C74.4536 65.16 74.5134 65.16 74.5134 65.16C74.8125 65.2201 75.0518 65.4604 75.3508 65.9411ZM79.4779 66.2416C79.4779 66.3618 79.5377 66.542 79.5377 66.6622C79.5377 66.8425 79.4779 66.9627 79.4181 67.0828C79.4181 67.0828 79.4181 67.1429 79.3583 67.203C79.2985 67.3232 79.1788 67.4434 79.0592 67.6236C78.82 67.7438 78.6405 67.9241 78.4013 68.0442C77.9228 68.2245 77.5639 68.2846 77.3246 68.2846H77.1452H77.0854C77.0256 68.2846 76.8461 68.2245 76.6069 68.1644C76.4873 68.1043 76.3078 67.9842 76.1284 67.8039C76.1284 67.7438 76.0686 67.6837 76.0088 67.5635C75.9489 67.3232 75.8891 67.1429 75.8891 67.0227V66.7223V66.3017C75.8891 66.3017 75.8891 66.2416 75.9489 66.1214C76.0088 66.0012 76.0088 65.9411 76.0088 65.8811C76.0686 65.7609 76.1882 65.6407 76.4873 65.4604C76.5471 65.4604 76.6069 65.4004 76.7265 65.4004C76.7265 65.4004 76.7863 65.3403 76.8461 65.3403L77.0256 65.2802C77.1452 65.2201 77.2648 65.2201 77.3246 65.2201H77.9228C77.9826 65.2201 78.0424 65.2201 78.162 65.2802C78.2817 65.2802 78.5807 65.4004 78.9994 65.7008V65.7609C79.0592 65.821 79.1788 65.8811 79.2985 65.9411C79.2985 65.821 79.3583 65.9411 79.4779 66.2416ZM78.82 66.3618C78.6405 66.1214 78.5209 65.9411 78.4013 65.9411H78.3415C78.2817 65.8811 78.2218 65.821 78.0424 65.821H77.9826H77.6237L76.906 65.9411L76.8461 66.0012V66.2416C76.8461 66.2416 76.8461 66.3017 76.8461 66.3618C76.8461 66.3618 76.8461 66.4219 76.7863 66.4219C76.7863 66.4819 76.7863 66.4819 76.8461 66.4819C76.7863 66.542 76.7863 66.542 76.7265 66.542C76.7265 66.542 76.7265 66.6021 76.6667 66.7223C76.6069 66.8425 76.6069 66.9026 76.6069 66.9026C76.6069 66.9026 76.6069 66.9026 76.6069 66.9627C76.6667 67.0227 76.7863 67.0828 76.906 67.1429C77.0256 67.203 77.1452 67.203 77.2648 67.203C77.5041 67.1429 77.6237 67.1429 77.6835 67.1429L78.162 66.9627C78.4013 66.8425 78.5807 66.7824 78.6405 66.7223C78.7602 66.6622 78.7602 66.542 78.7602 66.4819V66.3618H78.82ZM82.9471 66.0012C82.9471 65.9411 82.9471 65.9411 82.9471 65.8811C82.9471 65.821 82.9471 65.821 82.9471 65.821C82.8873 65.7008 82.8274 65.5806 82.7676 65.5205C82.7078 65.4604 82.7078 65.4604 82.7078 65.4604H82.5882C82.5882 65.4604 82.5882 65.4604 82.5284 65.4604H82.4686C82.4088 65.5205 82.3489 65.7008 82.2891 65.8811C82.1695 66.1815 82.1097 66.4219 82.1097 66.4819C82.1097 66.6021 81.9901 66.7824 81.8704 66.9026C81.8106 66.9627 81.6312 67.0828 81.4517 67.203C81.3321 67.2631 81.2125 67.2631 81.2125 67.2631H81.0929C81.0929 67.2631 81.0331 67.203 80.8536 67.1429C80.734 66.9627 80.6742 66.8425 80.6742 66.7223C80.6742 66.4819 80.5545 66.3017 80.3153 66.1815C80.2555 66.1815 80.1957 66.2416 80.076 66.3017C80.0162 66.4819 80.0162 66.6021 80.0162 66.6622C80.0162 66.7824 80.0162 66.9026 80.076 67.1429C80.4349 67.864 80.7938 68.2245 81.2723 68.2245C81.3321 68.2245 81.3919 68.2245 81.6312 68.1644C81.7508 68.1043 81.8106 68.0442 81.8704 68.0442C81.9901 67.9842 82.1695 67.9241 82.2891 67.7438C82.3489 67.6837 82.4686 67.5034 82.5882 67.3232C82.7078 67.0828 82.8274 66.9026 82.8274 66.7824C82.8873 66.4819 82.9471 66.2416 82.9471 66.1214C82.9471 66.1214 82.9471 66.1214 82.9471 66.0012ZM84.6218 66.1214C84.562 66.0613 84.562 66.0613 84.5022 66.0613C84.5022 66.0613 84.5022 66.0613 84.5022 66.0012L84.9209 65.9411C84.9807 65.9411 85.1003 65.9411 85.3994 66.0012C85.6387 66.0613 85.7583 66.1214 85.7583 66.1214H85.8181L85.9975 66.0012V65.9411C85.9975 65.9411 85.9975 65.8811 86.0573 65.821C86.0573 65.7609 86.1172 65.7609 86.1172 65.7609C86.0574 65.5806 85.9377 65.4604 85.7583 65.4004C85.6985 65.3403 85.519 65.2802 85.2798 65.2201C84.9209 65.16 84.7415 65.16 84.7415 65.16C83.9639 65.16 83.5452 65.2802 83.5452 65.4604C83.4854 65.5205 83.4854 65.5806 83.4854 65.5806V65.8811C83.4854 65.9411 83.5452 65.9411 83.5452 66.0012C83.605 66.3017 83.9639 66.6021 84.562 66.9026C84.7415 66.9627 84.8611 67.0227 84.9209 67.0227C84.9807 67.0828 84.9807 67.0828 84.9807 67.0828C84.9807 67.0828 84.9807 67.0828 84.9209 67.1429L84.4424 67.203H84.263L83.9639 67.2631H83.7246C83.6648 67.2631 83.605 67.2631 83.4256 67.3232C83.4256 67.3833 83.4854 67.3833 83.4854 67.4434C83.4854 67.5034 83.4854 67.5034 83.4854 67.5635L83.5452 67.6236C83.5452 67.6236 83.5452 67.6236 83.5452 67.6837C83.605 67.7438 83.605 67.8039 83.605 67.8039C83.6648 67.8039 83.7246 67.864 83.8443 67.864C83.9639 67.9241 84.0835 67.9241 84.0835 67.9241H84.3228L84.6218 67.9842C84.6816 67.9842 84.6816 67.9842 84.8013 67.9842H84.8611C84.9807 67.9842 85.1003 68.0442 85.1003 68.0442C85.22 68.0442 85.4592 67.9842 85.6985 67.864C85.9377 67.7438 86.1172 67.6837 86.1172 67.6236C86.177 67.5034 86.177 67.4434 86.177 67.3232C86.1172 66.9627 85.5788 66.542 84.6218 66.1214ZM89.5863 67.6236C89.5863 67.6236 89.5265 67.6236 89.4667 67.6837C89.5265 67.6837 89.5863 67.7438 89.6461 67.7438C89.6461 67.7438 89.5863 67.8039 89.4667 67.864C89.4069 67.9241 89.2274 67.9241 89.1078 67.9842C89.048 68.0442 89.048 68.0442 88.9882 68.1043L88.2106 68.2245C87.6723 68.1644 87.1938 68.0442 86.8947 67.864C86.6555 67.6236 86.5359 67.3232 86.4162 67.0227C86.4162 66.9627 86.3564 66.9627 86.3564 66.9026C86.3564 66.7223 86.4162 66.4819 86.5957 66.1815C86.7751 65.8811 87.0144 65.6407 87.1938 65.5806C87.1938 65.5806 87.2536 65.5806 87.3134 65.5806C87.4331 65.5205 87.5527 65.4004 87.8517 65.3403C88.091 65.2802 88.2704 65.2802 88.3901 65.2802C88.5097 65.2802 88.6891 65.3403 88.8686 65.4004V65.4604C88.9284 65.4604 88.9284 65.4604 88.9882 65.5205C88.9882 65.5205 88.9882 65.5806 89.048 65.5806C89.048 65.6407 89.048 65.7609 89.1078 65.8811V66.0012C89.1078 66.0012 89.1078 66.0613 89.048 66.0613V66.1214C89.048 66.1815 89.048 66.2416 88.9882 66.3017C88.9882 66.3017 88.9882 66.3618 88.9882 66.4219C88.9284 66.4819 88.8686 66.6021 88.8087 66.7223L88.1508 67.203C88.2106 67.2631 88.3901 67.2631 88.6891 67.2631H89.4667C89.5265 67.3232 89.5863 67.3833 89.6461 67.4434C89.6461 67.5034 89.5863 67.5635 89.5265 67.6236C89.6461 67.6236 89.6461 67.6236 89.5863 67.6236ZM88.3302 66.0613C88.1508 66.0613 88.0312 66.1214 87.9714 66.1214C87.8517 66.1815 87.7321 66.3017 87.6723 66.3618C87.6723 66.3618 87.6723 66.3618 87.7321 66.3618C88.0312 66.3618 88.2106 66.2416 88.3302 66.0613ZM59.3209 55.4858C59.6798 55.8463 59.8592 56.3871 59.8592 57.1081C59.8592 57.5888 59.6798 58.37 58.8424 58.9108C58.663 59.031 58.4835 59.1511 58.2443 59.3314C58.3041 59.6319 58.3639 59.9323 58.3639 60.2327C58.3639 61.6148 57.2873 63.1771 55.0144 65.16C53.3994 66.542 52.1434 67.4434 51.2462 67.864C50.7677 68.1043 50.0499 68.2245 49.0331 68.2245C46.1022 68.2245 43.8293 67.3232 42.2144 65.5205C40.7789 63.9582 40.0611 61.8551 40.0611 59.3915C40.0611 58.6704 40.3004 57.5888 40.7191 56.1467C40.7789 55.8463 41.0181 55.3656 42.0948 53.9235L42.1546 53.8634L42.2144 53.8033C44.0088 52.3611 45.3845 51.3997 46.4013 50.8589C47.777 50.1379 49.2723 49.7773 50.8275 49.7773C51.3658 49.7773 51.7845 50.1379 52.1433 50.5585C52.5022 50.9791 52.6817 51.3396 52.7415 51.6401C52.9209 52.1208 53.1004 52.6616 52.9209 53.1423L52.8013 53.5028C52.8013 53.5629 52.7415 53.5629 52.7415 53.5629L52.4424 53.6831C52.3826 53.6831 52.263 53.8033 52.1433 53.8634C51.9041 54.0436 51.605 54.1638 51.3658 54.284C51.306 54.3441 51.1265 54.4642 50.8873 54.6445L50.8275 54.7046L50.7677 54.7647C50.2293 55.005 49.8106 55.2454 49.4518 55.5458C49.9303 55.3656 50.4686 55.2454 51.0667 55.0651C51.5452 54.945 52.1433 54.8849 52.9807 54.945C53.1602 54.945 53.2798 54.945 53.4592 54.945C53.9377 54.945 54.177 54.945 54.2966 54.8849C54.9546 54.6445 56.0312 54.4042 57.5863 54.0436L58.0648 53.9235C58.1247 53.9235 58.1845 53.9234 58.1845 53.9835L58.4835 54.3441C58.5433 54.4642 58.6032 54.4642 58.6032 54.5243L58.8424 54.7046C58.9022 54.7046 58.9022 54.7647 58.9022 54.7647L58.962 55.005C59.0219 55.1252 59.0817 55.2454 59.3209 55.4858ZM59.62 57.0481C59.62 56.4472 59.4405 55.9665 59.1415 55.666C58.8424 55.3656 58.7826 55.2454 58.7228 55.1853C58.7228 55.1853 58.7228 55.1853 58.7228 55.1252L58.663 54.8849L58.4835 54.7647C58.4237 54.7046 58.3639 54.7046 58.3041 54.5844L58.0648 54.284L57.6461 54.3441C56.1508 54.6445 55.0742 54.945 54.4162 55.1853C54.0574 55.2454 53.6387 55.2454 52.9807 55.2454C52.2032 55.2454 51.605 55.2454 51.1265 55.3656C50.1097 55.6059 49.2125 55.9064 48.4948 56.2068C48.4349 56.2669 48.3153 56.2068 48.3153 56.1467C48.2555 56.0866 48.3153 55.9665 48.3751 55.9665L49.0331 55.4858C49.4518 55.0651 49.9901 54.7647 50.648 54.4642L50.7677 54.4042C51.0069 54.2239 51.1863 54.1037 51.306 54.0436C51.5452 53.9235 51.8443 53.7432 52.0835 53.623C52.2032 53.5629 52.3228 53.4427 52.3826 53.4427L52.6817 53.3226L52.7415 53.0221C52.9209 52.6015 52.7415 52.1809 52.562 51.7002C52.562 51.7002 52.562 51.7002 52.562 51.6401C52.5022 51.3396 52.3826 51.0392 52.0237 50.6787C51.7247 50.3782 51.3658 50.0177 50.9471 50.0177C49.4518 50.0177 47.9564 50.3782 46.6405 51.0392C45.6237 51.58 44.248 52.4813 42.5135 53.9235L42.4536 53.9835L42.3938 54.0436C41.377 55.4257 41.1377 55.9064 41.0779 56.2068C40.6592 57.6489 40.42 58.6704 40.42 59.3314C40.42 61.735 41.1378 63.778 42.5135 65.2802C44.0686 67.0227 46.2817 67.9241 49.0929 67.9241C49.9901 67.9241 50.7078 67.8039 51.1863 67.5635C52.1434 67.1429 53.3396 66.2416 54.8948 64.9196C57.1078 62.9968 58.1247 61.4946 58.1247 60.2327C58.1247 59.9323 58.0648 59.6319 58.005 59.3314C58.005 59.2713 58.005 59.2112 58.0648 59.1511C58.3041 58.9709 58.4835 58.8507 58.7228 58.6704C59.4405 58.1296 59.62 57.5288 59.62 57.0481ZM58.005 55.4257C57.9452 55.3656 57.8256 55.2454 57.706 55.1252C56.2106 55.4257 55.134 55.7261 54.4761 55.9064C54.177 56.0265 53.6387 56.0265 52.8611 56.0265C52.1433 56.0265 51.605 56.0265 51.2462 56.1467C49.392 56.5673 48.0761 57.1682 47.2387 57.8893C46.9994 58.1296 46.8798 58.4301 46.8798 58.7305C46.8798 58.9108 47.2387 59.5117 47.9564 60.6534C48.1359 60.7134 48.4948 60.8336 48.9134 61.0139C49.3321 61.1942 49.5714 61.2542 49.6312 61.2542C49.7508 61.2542 50.349 61.074 51.5452 60.6534C52.7415 60.2928 53.3994 60.0525 53.4592 60.0525C53.519 60.0525 53.5789 60.1727 53.5789 60.3529C51.9639 61.9753 50.5284 62.8165 49.2125 62.9367C49.1527 62.9367 49.0331 62.9968 48.9134 63.0569C48.7938 63.117 48.6742 63.1771 48.5546 63.1771C47.5976 63.1771 46.7602 62.8766 46.162 62.2758C45.4443 61.5547 45.0854 60.5933 45.0854 59.3314C45.0854 58.4301 45.205 57.8292 45.4443 57.5288C45.863 56.988 46.4611 56.5073 47.1789 56.0265L48.4349 55.1853C48.9134 54.7046 49.5714 54.3441 50.2891 54.0436C50.5882 53.8634 50.7677 53.7432 50.8275 53.6831C51.1863 53.5629 51.7845 53.0822 51.9639 53.0221C52.0835 52.7818 51.7247 52.1208 51.7247 52.0607C51.7247 51.9405 51.605 51.7002 51.3658 51.3997C51.1265 51.0993 50.9471 50.919 50.8275 50.919C49.392 50.919 48.0761 51.2195 46.82 51.8804C45.863 52.3611 44.4873 53.3226 42.8125 54.7046C42.0948 55.7261 41.6761 56.3871 41.6163 56.6274C41.1976 57.9494 40.9583 58.9709 40.9583 59.5718C40.9583 61.795 41.6163 63.6578 42.8723 65.0398C44.3078 66.6622 46.3415 67.4434 48.9733 67.4434C49.8106 67.4434 50.4088 67.3232 50.7677 67.1429C51.605 66.7223 52.8013 65.8811 54.3564 64.5591C56.3901 62.8165 57.3471 61.4345 57.3471 60.3529C57.3471 59.8722 57.2275 59.4516 56.9882 59.1511C57.4069 58.8507 57.8256 58.5503 58.2443 58.2498C58.663 57.9494 58.8424 57.6489 58.8424 57.2283C58.8424 56.8077 58.7228 56.5073 58.5433 56.327C58.3041 55.9064 58.0648 55.6059 58.005 55.4257ZM89.7059 54.8849C89.7658 55.1853 89.8256 55.4858 89.8256 55.7862C89.8256 57.1682 88.7489 58.7305 86.476 60.7134C84.8611 62.0955 83.605 62.9968 82.7078 63.4174C82.2293 63.6578 81.5116 63.778 80.4947 63.778C77.5639 63.778 75.291 62.8766 73.676 61.074C72.2405 59.5117 71.5228 57.4086 71.5228 54.945C71.5228 54.2239 71.762 53.1423 72.1807 51.7002C72.2405 51.3997 72.4798 50.919 73.5564 49.4769L73.6162 49.4168L73.676 49.3567C75.4704 47.9146 76.8461 46.9532 77.863 46.4124C79.2387 45.6913 80.734 45.3308 82.2891 45.3308C82.8274 45.3308 83.2461 45.6913 83.605 46.1119C83.9639 46.5326 84.1433 46.8931 84.2031 47.1935C84.3826 47.6742 84.562 48.215 84.3826 48.6958L84.263 49.0563C84.263 49.1164 84.2031 49.1164 84.2031 49.1164L83.9041 49.2365C83.8443 49.2365 83.7246 49.3567 83.605 49.4168C83.3658 49.5971 83.0667 49.7173 82.8274 49.8374C82.7676 49.8975 82.5882 50.0177 82.3489 50.198L82.2891 50.2581L82.2293 50.3181C81.691 50.5585 81.2723 50.7988 80.9134 51.0993C81.3919 50.919 81.9303 50.7988 82.5284 50.6186C83.0069 50.4984 83.605 50.4383 84.4424 50.4984C84.6218 50.4984 84.7415 50.4984 84.9209 50.4984C85.3994 50.4984 85.6387 50.4984 85.7583 50.4383C86.4162 50.198 87.4929 49.9576 89.048 49.5971L89.5265 49.4769C89.5863 49.4769 89.6461 49.4769 89.6461 49.537L89.9452 49.8975C90.005 50.0177 90.0648 50.0177 90.0648 50.0778L90.3041 50.2581C90.3639 50.2581 90.3639 50.3181 90.3639 50.3181L90.4237 50.6186C90.4237 50.6787 90.5433 50.7988 90.7826 51.0392C91.1415 51.3997 91.3209 51.9405 91.3209 52.6616C91.3209 53.1423 91.1415 53.9235 90.3041 54.4642C90.0648 54.5844 89.8854 54.7046 89.7059 54.8849ZM89.5265 55.7862C89.5265 55.4858 89.4667 55.1853 89.4069 54.8849C89.4069 54.8248 89.4069 54.7647 89.4667 54.7046C89.7059 54.5243 89.8854 54.4042 90.1246 54.2239C90.9022 53.6831 91.0218 53.0822 91.0218 52.6616C91.0218 52.0607 90.8424 51.58 90.5433 51.2796C90.3041 51.0392 90.1844 50.8589 90.1246 50.7988C90.1246 50.7988 90.1246 50.7988 90.1246 50.7388L90.0648 50.4984L89.8854 50.3782C89.8256 50.3181 89.7658 50.3181 89.7059 50.198L89.4667 49.8975L89.048 49.9576C87.5527 50.2581 86.476 50.5585 85.8181 50.7988C85.4592 50.8589 85.0405 50.8589 84.3826 50.8589C83.605 50.8589 83.0069 50.8589 82.5284 50.9791C81.5116 51.2195 80.6144 51.5199 79.8966 51.8204C79.8368 51.8804 79.7172 51.8204 79.7172 51.7603C79.6574 51.7002 79.7172 51.58 79.777 51.58L80.4349 51.0993C80.8536 50.6787 81.3919 50.3782 82.0499 50.0778L82.1695 50.0177C82.4087 49.8374 82.5882 49.7173 82.7078 49.6572C82.9471 49.537 83.2461 49.3567 83.4854 49.2365C83.605 49.1765 83.7246 49.0563 83.7845 49.0563L84.0835 48.9361L84.2031 48.6357C84.3826 48.215 84.2031 47.7944 84.0237 47.3137C84.0237 47.3137 84.0237 47.3137 84.0237 47.2536C83.9639 46.9532 83.8443 46.6527 83.4854 46.2922C83.1863 45.9317 82.8274 45.5711 82.4088 45.5711C80.9134 45.5711 79.4181 45.9317 78.1022 46.5927C77.0854 47.1335 75.7097 48.0348 73.9751 49.4769L73.9153 49.537L73.8555 49.5971C72.8387 50.9791 72.5994 51.4598 72.5396 51.7603C72.1209 53.2024 71.8817 54.2239 71.8817 54.8849C71.8817 57.2884 72.5994 59.3314 73.9751 60.8336C75.5303 62.5762 77.7433 63.4775 80.5545 63.4775C81.4517 63.4775 82.1695 63.3573 82.648 63.117C83.605 62.6964 84.8013 61.795 86.3564 60.4731C88.5097 58.5503 89.5265 57.0481 89.5265 55.7862ZM89.7059 53.7432C90.1246 53.4427 90.3041 53.1423 90.3041 52.7217C90.3041 52.3011 90.1844 52.0006 90.005 51.8204C89.6461 51.4598 89.4667 51.2195 89.4069 51.0392C89.3471 50.9791 89.2274 50.8589 89.1078 50.7388C87.6125 51.0392 86.5359 51.3396 85.8779 51.5199C85.519 51.58 84.9807 51.6401 84.263 51.58C83.5452 51.58 83.0069 51.58 82.648 51.7002C80.7938 52.1208 79.4779 52.7217 78.6405 53.4427C78.4013 53.6831 78.2816 53.9835 78.2816 54.284C78.2816 54.4642 78.6405 55.0651 79.3583 56.2068C79.5377 56.2669 79.8966 56.3871 80.3153 56.5673C80.734 56.7476 80.9732 56.8077 81.0331 56.8077C81.0929 56.8077 81.7508 56.6274 82.9471 56.2068C84.1433 55.8463 84.7415 55.6059 84.8611 55.6059C84.9209 55.6059 84.9807 55.7261 84.9807 55.9064C83.3658 57.5288 81.9303 58.37 80.6144 58.4902C80.5546 58.4902 80.4349 58.5503 80.3153 58.6104C80.1957 58.6704 80.076 58.7305 79.9564 58.7305C78.9994 58.7305 78.162 58.4301 77.5639 57.8292C76.8461 57.1081 76.4873 56.1467 76.4873 54.8849C76.4873 53.9835 76.6069 53.3827 76.8461 53.0822C77.2648 52.5414 77.863 52.0607 78.5807 51.58L79.8368 50.7388C80.3153 50.2581 80.9732 49.8975 81.691 49.5971C81.9901 49.4168 82.1695 49.2966 82.2293 49.2365C82.5882 49.1164 83.1863 48.6357 83.3658 48.5756C83.4854 48.3352 83.1265 47.6742 83.1265 47.6142C83.1265 47.494 83.0069 47.2536 82.7676 46.9532C82.5284 46.6527 82.3489 46.4725 82.2293 46.4725C80.7938 46.4725 79.4779 46.7729 78.2218 47.4339C77.2648 47.9146 75.8891 48.876 74.2144 50.2581C73.4966 51.2796 73.0779 51.9405 73.0181 52.1809C72.5994 53.5028 72.3602 54.5243 72.3602 55.1252C72.3602 57.3485 73.0181 59.2112 74.2742 60.5933C75.7097 62.2157 77.7433 62.9968 80.3751 62.9968C81.2125 62.9968 81.8106 62.8766 82.1695 62.6964C83.0069 62.2757 84.2031 61.4345 85.7583 60.1126C87.7919 58.37 88.7489 56.988 88.7489 55.9064C88.7489 55.4257 88.6293 55.005 88.3901 54.7046C88.8686 54.3441 89.2873 54.0436 89.7059 53.7432ZM70.7452 56.8678C71.1639 57.4086 71.3433 58.2498 71.3433 59.5117C71.3433 59.6319 71.3433 59.8121 71.2835 60.0525C71.2237 60.2327 71.2237 60.2928 71.2237 60.2928C71.2237 60.5933 71.1041 60.9538 70.9246 61.4345C70.8648 61.6148 70.805 61.735 70.805 61.735V61.795C70.7452 62.0955 70.7452 62.2157 70.7452 62.2758L70.8648 62.5762C70.8648 62.6363 70.8648 62.6964 70.8648 62.6964L70.6854 63.0569C70.4461 63.4775 70.1471 64.0183 69.6088 64.7394C69.4293 65.0398 69.0704 65.4604 68.4723 66.0613C68.1134 66.4219 67.5751 66.8425 66.8574 67.3232C65.8405 68.0442 65.4817 68.1644 65.1826 68.1644H64.106C63.149 68.1644 61.8331 67.7438 60.8761 65.7008C60.3377 64.5591 60.0387 63.3573 60.0387 62.2157C60.0387 60.6534 60.2779 59.0911 60.7564 57.5888C61.0555 56.6875 61.534 55.9665 62.1919 55.5458C63.0293 55.005 63.9863 54.7647 65.063 54.7647C65.1826 54.7647 65.3022 54.7647 65.8405 54.8849C66.2592 54.945 66.3789 54.945 66.4387 54.945H66.6181H66.6779L66.8574 55.005C66.9172 55.0651 67.3359 55.1853 68.891 55.4858H69.0106C69.0106 55.4858 69.0106 55.4858 69.0704 55.4858L69.1901 55.5458C69.6088 55.7862 70.0873 56.0866 70.6256 56.5673L70.6854 56.6274L70.7452 56.8678ZM71.0443 59.5117C71.0443 58.37 70.8648 57.5888 70.506 57.0481L70.4461 56.988L70.3863 56.9279C69.848 56.5073 69.3695 56.1467 69.0106 55.9665L68.891 55.9064H68.7714C67.2162 55.6059 66.7976 55.4858 66.6779 55.4257L66.5583 55.3656H66.4387C66.3789 55.3656 66.1994 55.3656 65.7807 55.2454C65.2424 55.1252 65.1228 55.1252 65.063 55.1252C64.0461 55.1252 63.0891 55.3656 62.3714 55.8463C61.7732 56.2669 61.3546 56.8678 61.0555 57.709C60.577 59.1511 60.3377 60.7135 60.3377 62.2758C60.3377 63.3573 60.6368 64.499 61.1153 65.6407C62.0125 67.5034 63.2088 67.9241 64.0461 67.9241H65.1228C65.4218 67.9241 65.7209 67.8039 66.6779 67.1429C67.3359 66.6622 67.8742 66.3017 68.2331 65.9411C68.8312 65.3403 69.1901 64.9196 69.3695 64.6793C69.848 63.9582 70.2069 63.4174 70.3863 63.0569L70.5658 62.7565L70.4461 62.456V62.3959C70.4461 62.3358 70.4461 62.1556 70.506 61.8551V61.795C70.506 61.735 70.5658 61.6148 70.6854 61.3744C70.8648 60.9538 70.9845 60.6534 70.9845 60.3529C70.9845 60.3529 70.9845 60.2928 71.0443 60.0525C71.0443 59.752 71.0443 59.6319 71.0443 59.5117ZM69.9676 57.5888C70.2667 57.9494 70.3863 58.6104 70.3863 59.6319C70.3863 59.6919 70.3863 59.8121 70.3265 59.9924C70.2667 60.1727 70.2667 60.2928 70.2667 60.413C70.2667 60.5933 70.2069 60.8336 70.0275 61.1341C69.848 61.4345 69.7882 61.6749 69.7882 61.795C69.7284 62.2757 69.7284 62.5762 69.7882 62.7565C69.6088 63.117 69.2499 63.6578 68.7714 64.3788C68.5919 64.6192 68.2331 64.9797 67.6947 65.5806C67.3957 65.8811 66.9172 66.3017 66.2592 66.7223C65.6013 67.1429 65.2424 67.3833 65.1228 67.3833H64.106C63.149 67.3833 62.3714 66.7824 61.7733 65.5205C61.2947 64.499 61.0555 63.4775 61.0555 62.456C61.0555 60.9538 61.2947 59.5117 61.7134 58.1296C61.9527 57.4086 62.2518 56.9279 62.7303 56.6274C63.3882 56.2068 64.1658 56.0265 65.063 56.0265C65.1228 56.0265 65.3022 56.0866 65.6611 56.1467C66.02 56.2068 66.2592 56.2669 66.4387 56.2669C66.7377 56.3871 67.4555 56.5673 68.6518 56.8077C69.0106 56.8678 69.4293 57.1682 69.9676 57.5888ZM67.8742 59.0911H67.5153C66.977 59.1511 66.4985 59.2112 66.02 59.2713C65.4218 59.3915 65.0032 59.6319 64.7041 59.9323C64.4648 60.2928 64.3452 60.8937 64.405 61.8551C64.405 62.0354 64.4648 62.2157 64.5247 62.5161C64.5845 62.8165 64.6443 62.9968 64.6443 63.0569C65.362 62.8766 66.0798 62.2757 66.7975 61.2542C67.4555 60.413 67.8144 59.6919 67.8742 59.0911ZM101.011 60.7134L100.831 61.6749C100.771 62.0955 100.532 62.5762 100.113 62.9968C99.8742 63.3573 99.7545 63.4775 99.7545 63.4775C99.6349 63.8381 99.3957 64.3788 99.0966 65.0398L99.0368 65.16C98.6181 65.7609 98.02 66.4819 97.063 67.203L96.9433 67.2631C96.7041 67.4434 96.3452 67.6837 95.8667 67.9842L95.7471 68.0442C95.5078 68.1644 95.3284 68.1644 94.7302 68.1644C92.577 68.1644 90.005 67.1429 90.005 62.2758C90.005 61.074 90.3639 59.8121 91.0816 58.4902L91.1415 58.37C91.3807 58.0696 91.6798 57.5888 92.1583 56.9279L92.3377 56.6875L92.3975 56.6274L93.2349 56.327C92.9358 56.0866 92.6966 55.8463 92.4573 55.4257C91.8592 54.5243 91.7396 54.1638 91.7396 53.8634C91.7396 52.9019 92.2181 52.0006 93.1153 51.2195L93.1751 51.1594C93.7732 50.7388 94.4312 50.2581 95.0891 49.8374L95.2686 49.7173H95.3284H95.5676C96.8835 49.6572 97.8405 49.5971 98.4386 49.4769L99.0966 49.3567C99.1564 49.3567 99.2162 49.3567 99.276 49.4168L99.5153 49.8975C99.5751 49.9576 99.6349 50.0177 99.8742 50.198C100.233 50.4984 100.652 50.9791 100.712 51.58V51.6401V51.7002C100.712 51.7603 100.712 51.8204 100.652 51.9405C100.652 51.9405 100.652 51.9405 100.652 52.0006C100.652 52.0006 100.592 52.241 100.353 53.3226L100.293 53.623C100.293 53.6831 100.293 53.6831 100.233 53.7432L99.934 53.9235C99.934 53.9235 99.6947 54.0436 98.1396 55.3656C97.0031 56.3871 96.5246 56.5673 96.0461 56.5673C95.9863 56.5673 95.7471 56.5673 95.2686 56.6875C95.1489 56.6875 95.0293 56.7476 94.9097 56.7476C95.0891 56.8077 95.2686 56.9279 95.448 56.988L95.7471 57.1081C95.8069 57.1081 95.8069 57.1682 95.8069 57.1682L95.9863 57.4086C96.5844 58.3099 96.8237 59.031 96.8237 59.6319C96.8237 60.0525 96.7639 60.4731 96.7041 60.8937C96.7639 60.8336 96.8237 60.8336 96.9433 60.7735C97.9003 60.2928 98.1994 60.1727 98.4386 60.1727C98.7377 60.1727 99.0966 60.2928 99.276 60.5332H99.3358H100.712C100.771 60.5332 100.771 60.5332 100.831 60.5933C101.011 60.5933 101.011 60.6534 101.011 60.7134ZM100.652 60.8336H99.3358C99.276 60.8336 99.276 60.8336 99.2162 60.7735C99.0368 60.5933 98.7975 60.4731 98.5583 60.4731C98.319 60.4731 98.0798 60.5332 97.1826 61.0139C96.9433 61.1341 96.7639 61.2542 96.6442 61.3143C96.5844 61.3143 96.5246 61.3143 96.4648 61.3143C96.405 61.2542 96.405 61.1942 96.405 61.1341C96.5246 60.5933 96.5844 60.1126 96.5844 59.6319C96.5844 59.0911 96.3452 58.4301 95.7471 57.5888L95.6274 57.4086L95.3882 57.3485C95.0891 57.2283 94.7302 57.1081 94.4312 56.8678C94.3714 56.8077 94.3714 56.7476 94.3714 56.6875C94.3714 56.6274 94.4312 56.5673 94.491 56.5673C94.7302 56.5673 94.9695 56.5073 95.2686 56.4472C95.7471 56.3871 95.9863 56.327 96.0461 56.327C96.405 56.327 96.8237 56.1467 97.9602 55.1853C99.5153 53.9234 99.7545 53.7432 99.7545 53.7432L99.9938 53.5629L100.054 53.3226C100.233 52.4813 100.293 52.1809 100.353 52.0607C100.353 52.0607 100.353 52.0607 100.353 52.0006C100.412 51.8204 100.412 51.7603 100.412 51.7002C100.412 51.1594 99.9938 50.7388 99.6947 50.4984C99.4555 50.2581 99.3358 50.198 99.276 50.1379C99.276 50.1379 99.276 50.1379 99.276 50.0778L99.0966 49.6572L98.5583 49.7773C97.9601 49.8975 96.9433 50.0177 95.6274 50.0177H95.448L95.2686 50.1379C94.6106 50.6186 93.9527 51.0392 93.3545 51.4598L93.2947 51.5199C92.4573 52.3011 91.9788 53.0822 91.9788 53.9835C91.9788 54.284 92.0985 54.5844 92.6368 55.3656C92.9358 55.8463 93.2349 56.1467 93.5938 56.327C93.6536 56.327 93.6536 56.3871 93.6536 56.4472C93.6536 56.5073 93.5938 56.5673 93.534 56.5673L92.4573 56.9279L92.3377 57.1081C91.8592 57.7691 91.5602 58.2498 91.3209 58.5503L91.2611 58.6104C90.5433 59.8722 90.1844 61.1341 90.1844 62.2758C90.1844 66.9026 92.577 67.864 94.6106 67.864C95.0891 67.864 95.3284 67.864 95.448 67.7438L95.5078 67.6837C95.9863 67.3833 96.3452 67.1429 96.6442 66.9627L96.7041 66.9026C97.6013 66.1815 98.1994 65.5205 98.6181 64.9196L98.6779 64.8596C98.977 64.1986 99.2162 63.6578 99.3358 63.2973C99.3957 63.2372 99.4555 63.0569 99.7545 62.7565C100.113 62.3358 100.353 61.9753 100.412 61.5547L100.652 60.8336ZM98.7975 61.3744C98.7377 61.2542 98.6779 61.1942 98.6181 61.1942C98.4985 61.1942 98.1396 61.3744 97.5415 61.6749C96.9433 61.9753 96.6443 62.1556 96.5246 62.1556C95.8667 62.1556 95.5078 62.1556 95.3882 62.1556C95.8069 61.2542 95.9863 60.413 95.9863 59.6919C95.9863 59.2713 95.7471 58.7305 95.2686 58.0095C94.8499 57.8893 94.3714 57.6489 93.9527 57.3485C93.534 57.4687 93.2349 57.5888 92.9957 57.6489C92.5172 58.3099 92.1583 58.8507 91.919 59.1511C91.2611 60.3529 90.962 61.4345 90.962 62.456C90.962 65.7008 92.2181 67.3232 94.7302 67.3232C95.0293 67.3232 95.2686 67.3232 95.2686 67.2631C95.7471 66.9627 96.1059 66.6622 96.405 66.542C97.2424 65.8811 97.7807 65.2802 98.1396 64.7394C98.4386 64.0784 98.6779 63.5376 98.7975 63.1771C98.8573 63.0569 99.0368 62.8165 99.3358 62.456C99.6349 62.1556 99.7545 61.8551 99.8144 61.6148C99.7545 61.6148 99.5751 61.6148 99.3957 61.6148C99.1564 61.6148 99.0368 61.5547 98.9172 61.5547C98.8573 61.5547 98.7975 61.4946 98.7975 61.3744ZM95.2686 55.8463C95.6872 55.7862 95.9863 55.7261 96.1658 55.7261C96.405 55.7261 96.8835 55.3656 97.6013 54.7046C98.6779 53.8033 99.276 53.3226 99.4555 53.2024C99.6947 52.1208 99.8144 51.6401 99.8144 51.7603C99.8144 51.58 99.6349 51.3396 99.3358 51.0392C98.977 50.7388 98.7975 50.5585 98.7377 50.4984C98.0798 50.6186 97.063 50.7388 95.6872 50.7988C95.0293 51.2796 94.3714 51.7002 93.7732 52.1809C93.0555 52.7818 92.6966 53.4427 92.6966 54.1037C92.6966 54.2239 92.876 54.5844 93.2349 55.1252C93.5938 55.666 93.9527 55.9665 94.3115 55.9665C94.5508 55.9064 94.8499 55.9064 95.2686 55.8463ZM27.2611 53.5028C27.1415 53.5028 27.0817 53.623 27.1415 53.6831C27.1415 53.8033 27.2611 53.8634 27.3209 53.8033C27.3209 53.8033 27.3807 53.8033 27.5602 53.8033L29.8929 55.3656C29.9527 55.4257 29.9527 55.5458 30.0125 55.6059C30.0125 55.666 30.1321 55.7261 30.192 55.7261H30.2518C30.3116 55.666 30.3714 55.6059 30.3714 55.4858C29.2948 53.2625 27.2611 53.5028 27.2611 53.5028ZM36.3527 52.6015C34.4387 53.3226 34.6181 55.0651 34.6181 55.0651C34.6181 55.1252 34.6779 55.2454 34.7976 55.2454C34.9172 55.2454 34.977 55.1252 34.977 55.0651C34.977 55.0651 34.977 54.945 34.977 54.8248L36.2331 53.0822C36.2929 53.0221 36.4125 53.0221 36.4723 52.962C36.5321 52.9019 36.592 52.8419 36.592 52.7217C36.5321 52.6015 36.4723 52.5414 36.3527 52.6015ZM24.3901 46.3523C24.2705 46.4725 24.2705 46.7729 24.5097 47.1335C24.749 47.494 24.9882 47.6742 25.1677 47.5541C25.2873 47.4339 25.2873 47.1335 25.048 46.7729C24.8686 46.4124 24.5695 46.2321 24.3901 46.3523ZM27.0219 46.172C26.8424 46.1119 26.6032 46.3523 26.4237 46.6527C26.2443 47.0133 26.2443 47.3738 26.3639 47.4339C26.5434 47.494 26.7826 47.2536 26.9621 46.9532C27.1415 46.6527 27.2013 46.2922 27.0219 46.172ZM24.091 67.203H24.2705V66.0012H24.091V67.203ZM12.0088 66.3618C12.1284 66.3618 12.1882 66.3017 12.248 66.2416C12.3079 66.1815 12.3677 66.1214 12.3677 66.0012C12.3677 65.8811 12.3677 65.821 12.3079 65.7609C12.248 65.7008 12.1882 65.6407 12.0686 65.6407C11.949 65.6407 11.8892 65.7008 11.8294 65.7609C11.7695 65.821 11.7097 65.8811 11.7097 66.0012C11.7097 66.1214 11.7695 66.1815 11.8294 66.2416C11.8294 66.3618 11.8892 66.3618 12.0088 66.3618ZM38.2069 50.4984C38.8649 52.9019 38.6256 54.945 37.6686 56.6274C37.4293 57.048 37.0705 57.4687 36.592 57.9494V70.1473C36.592 70.9285 35.934 71.5895 35.1564 71.5895H11.1116C10.334 71.6496 9.67609 70.9886 9.67609 70.2074V42.5667C9.67609 41.7856 10.334 41.1246 11.1116 41.1246H15.1789C15.0593 40.704 14.9994 40.4035 14.9994 40.2233C14.9994 40.2233 14.9994 40.1632 14.9994 40.1031C14.9396 39.2619 14.9994 38.661 15.3583 38.3004C15.5378 38.1202 15.777 38 16.1359 38C16.3751 38 16.6144 38.0601 16.9135 38.1803C17.3322 38.3605 17.7508 38.7812 17.8705 38.9013C18.8873 40.1632 20.4424 40.5237 20.8013 40.5838C22.0574 40.1031 23.1938 39.8627 24.2107 39.8627C24.9882 39.8627 26.1247 39.9829 27.0219 40.6439C28.7564 40.5838 29.5938 39.0215 29.7135 38.7812C29.7733 38.5408 29.9527 38.4206 30.192 38.4206C30.2518 38.4206 30.3714 38.4206 30.4312 38.4807C31.149 38.9013 31.5078 39.5623 31.3882 40.4035C31.3882 40.5838 31.2686 40.8242 31.2088 41.0645H35.2163C35.9938 41.0645 36.6518 41.7255 36.6518 42.5066V49.537C37.2499 49.5971 37.7882 49.8374 38.1471 50.2581C38.2069 50.3181 38.2069 50.3181 38.2667 50.3782C38.2069 50.4383 38.2069 50.4984 38.2069 50.4984ZM11.291 66.7223C11.4705 66.9026 11.7097 66.9627 12.0088 66.9627C12.3079 66.9627 12.5471 66.9026 12.7266 66.7223C12.9658 66.542 13.0256 66.3017 13.0256 66.0613C13.0256 65.8811 12.9658 65.7008 12.7864 65.5205C12.6667 65.4004 12.5471 65.3403 12.4873 65.3403H12.9658V64.7394H12.4873V64.499H11.6499V64.7394H11.0518V65.3403H11.4705C11.291 65.4004 11.1714 65.5205 11.1116 65.6407C11.0518 65.7609 10.992 65.9411 10.992 66.0613C10.992 66.3618 11.1116 66.542 11.291 66.7223ZM13.9826 67.5635H12.0088V67.0227H11.2312V67.8039C11.2312 67.9241 11.291 68.0442 11.4107 68.1043C11.4705 68.1644 11.5901 68.1644 11.7695 68.1644H14.0424V67.5635H13.9826ZM14.2219 65.4004H13.9228V64.4389H13.1452V67.2631H13.9228V65.8811H14.2817V65.4004H14.2219ZM17.8107 66.7824H14.9994V67.4434H16.9733V68.2245H17.8107V66.7824ZM17.8705 65.9411H14.8798V66.542H15.9565V66.7223H16.7938V66.542H17.8705V65.9411ZM16.9733 65.0999V65.3403C16.9733 65.4604 16.9733 65.5205 16.9733 65.5806C16.9733 65.6407 16.9733 65.7008 16.9135 65.821H17.691C17.7508 65.5806 17.7508 65.4004 17.7508 65.2802C17.7508 65.16 17.7508 64.9797 17.7508 64.7394V64.4389H14.9994V65.0999H16.9733ZM21.5789 64.6192H20.8611V65.6407H20.4424V64.6192H19.6649V67.3232C19.6649 67.6236 19.6649 67.8039 19.7247 67.864C19.7845 67.9241 19.9639 67.9842 20.2032 67.9842H21.5789V64.6192ZM22.835 65.4604H22.5359V64.4389H21.7583V68.1644H22.5359V66.0613H22.835V65.4604ZM25.7658 64.4389H25.1079V65.6407H24.9882V64.499H24.3303V65.3403H24.1508V64.499H23.4331V67.1429C23.4331 67.4434 23.4929 67.6236 23.5527 67.6236C23.6125 67.6837 23.7322 67.6837 24.0312 67.6837H24.9882V66.2416H25.1079V68.1644H25.7658V64.4389ZM26.4836 64.4389H25.8256V68.1644H26.4836V64.4389ZM30.3116 66.3017H30.0125C30.0723 66.1815 30.0723 66.0012 30.0723 65.7609C30.0723 65.5205 30.0723 65.2201 30.0723 64.9196V64.6192H27.4406V65.2201H29.2948V65.4004H27.5004V66.0012H29.2948V66.0613C29.2948 66.1815 29.235 66.2416 29.235 66.3017H27.2611V66.9026H27.7396V68.2245H28.5172V66.9026H29.0555V68.2245H29.8331V66.9026H30.3116V66.3017ZM33.3022 65.16V65.2201C33.3022 65.3403 33.3022 65.4604 33.3022 65.5806C33.3022 65.7008 33.3022 65.821 33.2424 65.9411H33.9602C33.9602 65.7609 34.02 65.5205 34.02 65.3403C34.02 65.16 34.02 64.9196 34.02 64.6793V64.499H32.106V65.16H33.3022ZM32.0462 66.0613V66.6622H34.1396V66.0613H33.1228V65.4004H32.405V66.0613H32.0462ZM34.977 67.5635H33.0032V66.9026H32.2256V67.6837C32.2256 67.9241 32.2854 68.0442 32.3452 68.1043C32.405 68.1644 32.5845 68.2245 32.8237 68.2245H34.977V67.5635ZM35.2761 65.2201H34.9172V64.4389H34.1994V67.0828H34.977V65.821H35.3359V65.2201H35.2761ZM37.4293 50.7988C37.3097 50.6186 36.9508 50.3782 36.3527 50.3782C36.0536 50.3782 35.2761 50.6787 34.7378 50.919C34.4985 50.9791 34.3789 51.0392 34.3191 51.0993C34.1396 51.1594 33.9004 51.1594 33.7209 51.1594C33.3022 51.1594 33.1228 51.0392 33.063 50.9791C32.9434 50.919 32.9434 50.7988 33.0032 50.6787C33.063 50.6186 33.1228 50.6186 33.1826 50.6186C33.2424 50.6186 33.2424 50.6186 33.3022 50.6787C33.3022 50.6787 33.4219 50.7388 33.7209 50.7388C33.9004 50.7388 34.1396 50.6787 34.3789 50.6186C33.1826 49.7773 30.4312 47.6142 29.7733 44.5496L29.7135 44.129H30.1321C30.192 44.129 30.2518 44.129 30.3714 44.1891C31.3284 44.6698 32.2256 44.9102 33.063 44.9102C33.6013 44.9102 34.0798 44.79 34.5583 44.6097C33.9602 43.9488 32.6443 42.8071 30.6107 42.8071C30.491 42.8071 30.3714 42.8071 30.192 42.8071C30.0125 42.8071 29.8331 42.8071 29.7135 42.8071C29.6536 42.8071 29.6536 42.8071 29.6536 42.8071C29.4742 42.8071 29.4144 42.6869 29.4144 42.6268C29.3546 42.5066 29.4742 42.3865 29.534 42.2663C29.5938 42.2062 29.5938 42.2062 29.6536 42.1461C29.7733 42.0259 30.6705 40.8842 30.5508 39.9829C30.5508 39.8027 30.4312 39.6224 30.3116 39.5022C30.0125 40.043 29.1153 41.2448 27.5602 41.5452C27.7396 41.6654 28.0387 41.9058 28.2181 42.2663C28.2181 42.3264 28.2181 42.3865 28.2181 42.3865L28.1583 42.4465C27.9789 42.5667 27.4406 42.8672 26.663 42.8672C26.4237 42.8672 26.1247 42.8071 25.8854 42.747C26.2443 43.1676 26.4237 43.5882 26.4237 44.0689C26.4237 44.129 26.4237 44.1891 26.3639 44.1891C26.3041 44.1891 26.1845 44.2492 26.0649 44.2492C25.6462 44.2492 24.5097 44.129 23.4929 42.8071L23.6723 42.6869C24.6293 43.8887 25.6462 44.0088 26.0649 44.0088C26.0649 44.0088 26.0649 44.0088 26.1247 44.0088C26.1247 43.4681 25.7658 42.9873 25.1677 42.5667C25.1079 42.5066 25.048 42.5066 25.048 42.3865C25.048 42.3264 25.048 42.2663 25.1079 42.2663C25.1079 42.2663 25.1677 42.2663 25.2275 42.2663C25.2275 42.2663 25.2275 42.2663 25.2873 42.2663C25.7658 42.5066 26.2443 42.6268 26.7228 42.6268C27.3209 42.6268 27.7396 42.4465 27.9789 42.3264C27.7396 41.9658 27.4406 41.7856 27.3209 41.7255C27.0817 41.6053 27.0817 41.6053 27.0219 41.6053C26.9621 41.6053 26.9022 41.5452 26.8424 41.5452H26.7826C26.663 41.5452 26.6032 41.4851 26.5434 41.425C25.8256 40.8242 24.8686 40.704 24.1508 40.704C23.2536 40.704 22.177 40.9443 21.0406 41.365V41.4851H20.8013C20.5621 41.4851 18.4088 41.0645 17.1527 39.4421C17.0929 39.382 16.7938 39.0816 16.5546 38.9614C16.3751 38.8412 16.1957 38.8412 16.1359 38.8412C16.0163 38.8412 16.0163 38.8412 15.9565 38.9013C15.8966 38.9614 15.7172 39.2619 15.8368 40.1031V40.2834C15.8966 40.6439 16.1359 41.8457 16.8537 42.5066C17.0331 42.5667 17.0929 42.6869 17.0929 42.8672C17.0929 43.1075 16.9135 43.2277 16.6742 43.2277C16.5546 43.2277 16.4948 43.1676 16.435 43.1075C16.2555 43.0474 15.9565 43.0474 15.5378 43.0474C14.4013 43.0474 12.7864 43.408 11.6499 45.1505C12.0686 45.2707 12.6667 45.3909 13.5041 45.3909C14.5808 45.3909 15.6574 45.2106 16.8537 44.79L17.9901 44.3694C17.9901 44.3694 17.9901 44.3694 17.9901 44.4295L17.2125 45.3308C17.1527 45.3909 15.9565 47.1335 14.9994 49.537C14.2219 51.7002 13.3247 54.7046 14.1621 57.2283V57.2884C14.3415 57.8292 16.1359 62.3358 22.1172 62.3358C23.792 62.3358 25.6462 61.9753 27.6798 61.2542L27.9191 61.1942L27.9789 61.2542C28.0985 61.2542 28.6368 61.3744 29.1751 61.3744C29.7135 61.3744 30.3714 61.3143 30.7303 60.8937C30.9097 60.7134 31.0293 60.413 31.0293 60.1126V60.0525C30.192 60.1727 29.3546 60.2928 28.577 60.2928C27.6798 60.2928 26.7826 60.1727 25.9452 59.9924C24.6293 59.6919 23.3733 59.1511 22.3565 58.3099C20.5621 56.988 19.8443 55.4257 19.7845 55.3656C19.6051 55.6059 19.5452 55.9064 19.5452 56.3871C19.5452 56.5673 19.4256 56.6875 19.2462 56.6875C19.0667 56.6875 18.9471 56.5673 18.9471 56.3871C18.9471 55.5458 19.1864 55.005 19.6051 54.7046C19.8443 54.5844 20.0836 54.4642 20.3826 54.4642C20.8013 54.4642 21.22 54.6445 21.22 54.6445C21.2798 54.7046 21.3396 54.7046 21.3994 54.8248C21.3994 54.8849 21.3994 55.005 21.3994 55.0651C21.3396 55.1853 21.22 55.2454 21.1602 55.2454C21.1004 55.2454 21.1004 55.2454 21.0406 55.2454C21.0406 55.2454 20.7415 55.1252 20.4424 55.1252C20.3228 55.1252 20.2032 55.1252 20.0836 55.1853C20.1434 55.1853 20.1434 55.2454 20.1434 55.2454C20.2032 55.3055 20.9209 56.8077 22.5957 58.0696C23.0742 58.4301 23.6723 58.7906 24.4499 59.0911C25.5265 59.5718 26.9022 59.9323 28.6368 59.9323C29.534 59.9323 30.4312 59.8121 31.3882 59.6319H31.448C31.5078 59.6319 31.5078 59.6319 31.5677 59.6319C34.7976 58.8507 36.2929 57.3485 36.9508 56.2669C37.7882 54.7647 37.9677 52.962 37.4293 50.7988ZM20.4424 67.3232H20.8611V66.2416H20.4424V67.3232Z" fill="#787878"/>
</svg>
