<svg width="109" height="109" viewBox="0 0 109 109" fill="none" xmlns="http://www.w3.org/2000/svg">
<rect width="109" height="109" rx="19" fill="#FFFCFC"/>
<g clip-path="url(#clip0)">
<path d="M27.8888 86.8146C27.8888 87.5014 27.8888 88.1023 27.8888 88.7032C27.8888 89.0466 27.8888 90.1625 29.0877 90.1625C29.4302 90.1625 29.6015 90.0767 29.7727 90.0767C29.8584 90.0767 29.944 90.0767 30.0296 89.9908C30.1153 89.9908 30.2009 89.905 30.2865 89.8191C30.3722 89.7333 30.3722 89.6475 30.3722 89.5616C30.2865 89.0466 30.2009 86.042 30.2009 84.2393C30.2009 83.6384 30.2009 83.1234 30.2009 82.5225C30.2009 81.9216 30.2009 81.3206 30.2009 80.7197C30.2009 80.033 29.6015 79.5179 28.7451 79.5179C28.4882 79.5179 28.1457 79.6038 27.8888 79.6896C27.8031 79.6896 27.7175 79.7755 27.6319 79.8613C27.6319 79.9472 27.6319 80.033 27.6319 80.1188C27.6319 80.1188 27.7175 80.4622 27.7175 81.4065C27.7175 82.0074 27.8031 82.78 27.8031 83.7243C27.2037 83.7243 26.3474 83.7243 25.491 83.7243C24.8916 83.7243 24.2065 83.7243 23.6071 83.7243C23.6071 82.4366 23.6071 81.149 23.6071 80.7197C23.6071 80.033 23.0076 79.5179 22.1513 79.5179C21.8944 79.5179 21.5519 79.6038 21.295 79.6896C21.2093 79.6896 21.1237 79.7755 21.0381 79.8613C21.0381 79.9472 21.0381 80.033 21.0381 80.1188C21.0381 80.1188 21.1237 80.4622 21.1237 81.4923C21.1237 82.1791 21.2093 85.0119 21.2093 85.8703C21.2093 88.9607 21.0381 89.4758 21.0381 89.4758C20.9524 89.5616 21.0381 89.6475 21.0381 89.8191C21.1237 89.905 21.2093 89.9908 21.295 89.9908C21.3806 89.9908 21.4662 89.9908 21.5519 90.0767C21.8088 90.1625 21.98 90.1625 22.2369 90.1625C23.0076 90.1625 23.4358 89.7333 23.4358 88.8749C23.4358 88.4456 23.4358 87.9306 23.4358 87.5014C23.4358 87.0722 23.4358 86.7288 23.4358 86.3854V85.3553C24.0352 85.3553 24.806 85.3553 25.5767 85.3553C26.1761 85.3553 26.9468 85.3553 27.5462 85.3553C27.8888 85.8703 27.8888 86.2996 27.8888 86.8146ZM40.8195 79.6038C40.5626 79.6038 40.2201 79.6896 40.1344 79.7755C39.9632 79.8613 39.8775 79.9472 39.8775 80.1188C40.0488 81.7499 40.0488 83.6384 40.0488 85.6128C40.0488 87.5872 39.2781 88.7032 37.908 88.7032C36.5378 88.7032 35.6815 87.5872 35.6815 85.6128C35.6815 85.0119 35.6815 83.9818 35.6815 83.0375C35.6815 82.1791 35.6815 81.3207 35.6815 80.8056C35.6815 80.1188 35.082 79.6038 34.2257 79.6038C33.9688 79.6038 33.455 79.6896 33.3694 79.7755C33.1981 79.7755 33.1125 79.9472 33.1125 80.1188V80.2047C33.1981 80.9773 33.2837 83.5526 33.2837 85.527C33.2837 88.5315 34.7395 90.2484 37.4798 90.2484C39.3637 90.2484 41.5902 89.3899 41.5902 85.4411C41.5902 84.8402 41.5902 83.9818 41.6759 83.2092C41.6759 82.3508 41.7615 81.4923 41.7615 80.8914C41.6759 80.2905 41.6759 79.6038 40.8195 79.6038ZM51.695 79.6896C51.6094 79.6038 51.5238 79.6038 51.4381 79.6038C50.9243 79.6896 50.4962 79.7755 49.9824 79.7755C48.6122 79.7755 44.0736 79.6896 43.988 79.6896C43.8167 79.6896 43.3029 79.7755 43.3029 80.6339C43.3029 80.8914 43.3029 81.2348 43.3885 81.2348C43.3885 81.3207 43.4742 81.4065 43.5598 81.4923C43.6454 81.5782 43.7311 81.5782 43.8167 81.5782C44.0736 81.5782 44.673 81.4923 45.3581 81.4923C45.5294 81.4923 45.7863 81.4923 46.4714 81.4923V81.5782V81.664C46.4714 82.6083 46.557 83.7243 46.557 84.7544V88.9607C46.557 89.7333 46.9852 90.2484 47.7559 90.2484C48.0128 90.2484 48.184 90.2484 48.4409 90.1625C48.5266 90.1625 48.6122 90.1625 48.6978 90.0767C48.8691 90.0767 49.0404 89.905 48.9547 89.7333C48.6978 87.9306 48.6978 86.1279 48.6978 84.411C48.6978 83.8101 48.6978 83.2092 48.6978 82.5225C48.6978 82.1791 48.6978 81.8357 48.6978 81.5782C50.068 81.5782 51.1812 81.5782 51.1812 81.5782C51.4381 81.5782 51.7807 81.4065 51.7807 80.8056C51.7807 80.4622 51.695 80.1188 51.695 80.033C51.7807 79.7755 51.7807 79.6896 51.695 79.6896ZM58.2032 79.5179C55.6342 79.5179 52.8939 81.2348 52.8939 85.0978C52.8939 87.5872 54.521 90.2484 58.0319 90.2484C60.601 90.2484 63.3413 88.4457 63.3413 84.411C63.2556 82.0074 61.6286 79.5179 58.2032 79.5179ZM58.2032 88.789C56.3193 88.789 55.3773 86.8146 55.3773 84.8402C55.3773 82.9517 56.3193 81.0631 58.0319 81.0631C59.9159 81.0631 60.8579 82.9517 60.8579 84.7544C60.7722 86.7288 59.9159 88.789 58.2032 88.789ZM67.3661 88.8749C67.3661 87.7589 67.3661 86.6429 67.2804 85.527C67.2804 84.8402 67.2804 84.1535 67.1948 83.4667C67.3661 83.7243 67.623 83.9818 67.9655 84.411L70.7058 87.6731C71.3909 88.5315 71.9047 89.1324 72.1616 89.6475C72.4185 89.9908 72.761 90.1625 73.1035 90.1625C73.5317 90.1625 73.8742 90.0767 73.8742 90.0767C74.0455 89.9908 74.1311 89.8191 74.1311 89.6475C74.0455 89.1324 74.0455 87.158 74.0455 86.2137C74.0455 85.0978 74.0455 84.0676 74.0455 83.2092C74.0455 82.4366 74.0455 81.664 74.0455 80.8914C74.0455 80.4622 74.0455 79.7755 73.1035 79.7755C72.761 79.7755 72.5041 79.9472 72.4185 79.9472C72.3328 80.033 72.2472 80.033 72.2472 80.1188C72.2472 80.2047 72.2472 80.2905 72.2472 80.3764C72.2472 80.3764 72.3328 80.7197 72.3328 81.7499C72.3328 82.5225 72.4185 83.6384 72.4185 84.8402C72.4185 85.3553 72.4185 85.8703 72.4185 86.2996C72.2472 86.042 71.9903 85.6987 71.6478 85.3553L68.9931 82.1791C68.4793 81.5782 67.9655 80.8914 67.5373 80.2905C67.2804 79.8613 66.7666 79.8613 66.5097 79.8613C66.1672 79.8613 65.8246 79.9472 65.739 79.9472C65.6534 79.9472 65.5677 80.033 65.4821 80.1188C65.4821 80.2047 65.4821 80.2905 65.4821 80.3764C65.4821 80.3764 65.5677 80.7198 65.5677 81.664C65.5677 82.3508 65.6534 85.1836 65.6534 86.042C65.6534 89.0466 65.4821 89.6475 65.4821 89.6475C65.4821 89.7333 65.4821 89.8191 65.4821 89.905C65.4821 89.9908 65.5677 90.0767 65.6534 90.0767C65.6534 90.0767 66.0815 90.2484 66.4241 90.2484C67.3661 90.1625 67.3661 89.5616 67.3661 88.8749ZM85.0067 90.0767C85.0923 90.0767 85.2636 90.0767 85.3492 89.9908L85.4348 89.905C85.5205 89.8191 85.5205 89.7333 85.5205 89.6475C85.5205 89.6475 85.5205 88.9607 85.5205 88.5315C85.5205 88.1881 85.5205 87.7589 85.5205 87.3297C85.5205 86.9005 85.5205 86.4713 85.5205 86.1279C85.5205 85.7845 85.3492 84.8402 83.979 84.8402C83.7221 84.8402 83.4652 84.8402 83.2083 84.9261C83.1227 85.0119 83.0371 85.0978 82.9514 85.1836C82.9514 85.2694 82.9514 85.3553 83.0371 85.4411C83.1227 85.6987 83.1227 86.9863 83.1227 87.5014C83.1227 87.8447 83.1227 88.1881 83.1227 88.5315C82.7802 88.6173 82.352 88.7032 81.9238 88.7032C79.8686 88.7032 78.7554 86.6429 78.7554 84.5827C78.7554 82.1791 80.0399 81.0631 81.41 81.0631C82.352 81.0631 83.294 81.664 83.979 82.6083C84.0647 82.6941 84.1503 82.78 84.236 82.78H84.3216C84.4072 82.78 84.4929 82.78 84.5785 82.6941C84.8354 82.4366 85.1779 81.7499 85.1779 81.3207C85.1779 80.1188 82.7802 79.6896 81.6669 79.6896C79.0979 79.6896 76.3576 81.664 76.3576 85.3553C76.3576 87.8447 77.9847 90.42 81.5813 90.42C81.9238 90.42 82.352 90.42 82.8658 90.3342C83.3796 90.2484 84.0647 90.2484 84.4929 90.2484C84.8354 89.9908 85.0067 90.0767 85.0067 90.0767Z" fill="#787878"/>
<path d="M51.3525 50.5887H52.4657V49.2152H51.3525V50.5887ZM55.6342 47.7559H54.7778C54.7778 48.271 54.7778 48.6143 54.7778 48.786H55.7198V47.7559H55.6342ZM55.6342 46.1249H54.7778V47.0692H55.6342V46.1249ZM80.7249 45.0089C79.3548 29.9005 65.9959 18.7408 50.9243 20.1143C35.8527 21.5737 24.7203 34.8794 26.1761 49.9878C27.1181 60.8899 34.3113 69.646 43.9023 73.2514C43.1316 72.4788 42.4465 71.7062 41.9327 70.7619C43.1316 71.6204 44.4161 72.6505 45.7863 73.3372C49.6398 75.3116 53.579 74.9683 57.4325 73.3372C61.8855 71.4487 65.4821 68.7017 66.9379 63.6369C68.9931 56.5119 67.2804 50.1595 61.6286 45.3523C61.1148 44.9231 60.601 44.4939 60.0015 44.0646C60.1728 43.9788 60.2584 43.9788 60.2584 43.9788C64.1976 45.3523 67.2804 47.6701 68.9931 51.533C70.3632 54.5375 70.5345 57.6279 70.7914 60.8899C70.9627 63.9803 70.0207 66.4698 68.1367 68.7875C66.7666 70.4186 65.3108 71.8779 63.6838 73.0797C66.5097 71.9637 69.1643 70.3327 71.4765 68.3583C74.6449 62.521 74.1311 56.3402 69.5069 49.6445C69.7638 49.7303 69.8494 49.8161 69.9351 49.902C72.9322 52.5631 74.5593 55.911 74.9018 59.8598C75.0731 61.5767 75.0731 63.2077 74.8162 64.6671C79.0979 59.3448 81.41 52.3915 80.7249 45.0089ZM68.9931 35.5661C68.7362 35.5661 67.1091 35.3945 66.1672 35.3945C65.2252 35.3945 65.9959 35.7378 66.3384 35.8237C66.5953 35.9095 67.4517 35.9954 69.25 36.5963C71.1339 37.1113 72.3328 37.8839 73.8742 39.3433C75.4156 40.8026 74.1311 40.2875 74.1311 40.2875C74.1311 40.2875 73.9599 40.1158 73.4461 39.8583C72.9322 39.6008 70.4489 38.3131 69.6782 37.9698C68.9074 37.7122 68.9931 38.1415 69.6782 38.5707C72.0759 40.03 75.1587 44.0646 76.272 46.2107C77.3852 48.3568 77.4708 49.8162 77.7278 50.8463C77.899 51.8764 77.9846 52.649 77.4708 51.3613C76.8714 50.0737 75.4156 47.4125 73.2748 44.3222C71.1339 41.2318 68.6505 39.7725 66.3384 38.2273C64.0263 36.6821 60.0871 35.7378 59.0595 35.4803C57.9463 35.2228 54.9491 34.7077 54.4353 34.6219C53.9215 34.536 53.2364 34.536 53.579 34.1068C54.4353 33.0767 56.8331 33.9351 58.0319 34.021C59.2308 34.1927 60.3441 34.3643 61.8855 34.3643C63.4269 34.3643 64.9683 34.3643 64.9683 34.3643C64.9683 34.3643 65.8246 34.2785 67.9655 34.7936C69.9351 35.3945 69.25 35.652 68.9931 35.5661ZM63.4269 61.2333C63.9407 60.0315 64.1976 58.7439 64.1976 57.4562C64.1976 55.5677 63.9407 53.6791 63.7694 51.8764C63.7694 51.8764 63.855 51.9622 63.9407 52.0481C64.0263 52.2198 64.1119 52.3915 64.1976 52.5631C66.5097 57.8854 65.8246 62.8643 62.5705 67.5857C60.8579 70.161 58.3745 71.7062 55.3773 72.393C51.8663 73.1655 48.3553 73.2514 45.0156 71.7921C40.2201 69.646 39.9632 64.3237 42.7891 60.8899C42.5322 61.9201 42.1896 62.9502 42.0184 64.0662C41.5902 67.1565 43.1316 69.3884 46.0432 70.0752C47.5846 70.4186 49.2116 70.5044 50.8387 70.4186C56.7474 69.7318 61.1148 66.8131 63.4269 61.2333ZM45.9575 65.5255C47.1564 66.5556 48.5266 66.9848 49.9823 67.1565C51.2668 67.2424 52.5514 67.2424 54.0071 67.3282C51.4381 68.2725 49.0404 69.1309 46.4713 68.4442C44.3305 67.8433 42.5322 65.783 43.046 63.036C43.5598 60.7183 45.1868 59.2589 47.0708 57.9713C46.8139 58.4863 46.3001 58.9156 46.0432 59.4306C45.5294 60.4607 45.0156 61.5767 44.7587 62.6927C44.673 63.8086 45.1012 64.7529 45.9575 65.5255ZM53.4933 46.5541V47.3267H52.4657V48.3568H53.4077V51.1896C53.579 50.7604 53.6646 50.3312 53.7502 49.902C53.8359 49.3869 53.8359 48.9577 53.8359 48.4427V45.3523H56.5762V50.9321C56.5762 51.1038 56.4905 51.2755 56.3193 51.3613C56.148 51.533 55.9767 51.533 55.8054 51.533H54.9491L54.8635 50.6746H55.4629C55.5485 50.6746 55.5485 50.6746 55.6342 50.5887L55.7198 50.5029V49.3011H54.6922C54.6066 50.2454 54.3497 51.018 54.0928 51.6189L53.4077 51.2755V51.4472H52.4657V51.1896H51.3525V51.533H50.4105V48.3568H51.4381V47.3267H50.2392V46.5541H51.4381V45.3523H52.3801V46.5541H53.4933ZM51.7806 57.4562H55.1204V59.9457H52.7226V60.2032H51.7806V57.4562ZM51.4381 56.1686H55.2916V56.9412H51.4381V56.1686ZM55.3773 60.2032C55.4629 60.2032 55.4629 60.2032 55.5485 60.1174C55.6342 60.1174 55.6342 60.0315 55.6342 59.9457V55.6535H51.2668V61.2333H50.2392V54.9668H56.5762V60.3749C56.5762 60.5466 56.4905 60.8041 56.3193 60.8899C56.148 61.0616 55.9767 61.1475 55.7198 61.1475H54.6922L54.6066 60.289H55.3773V60.2032ZM64.4545 42.6053C60.601 40.5451 55.8054 40.03 54.6922 39.7725C53.579 39.6008 53.579 39.8583 53.579 40.2875C53.7502 41.4893 51.3525 40.8026 49.8111 40.4592C48.184 40.1158 47.6702 40.2017 45.7863 40.2017C43.9023 40.2017 43.2173 41.2318 42.8747 41.7469C42.6178 42.2619 44.1592 42.8628 44.1592 42.8628C43.8167 43.4637 39.535 42.0902 39.2781 42.2619C39.1068 42.4336 39.535 43.2062 39.535 43.2062C38.7643 43.2921 38.0792 42.8628 37.2229 42.0902C36.4522 41.2318 37.0516 40.6309 37.3941 40.2875C37.7367 39.9442 37.9936 40.2017 38.9356 40.1158C39.8775 40.03 39.6206 40.1158 40.3913 40.03C41.162 39.9442 41.4189 39.7725 41.162 39.6866C40.9051 39.6008 40.2201 39.6866 39.7063 39.6008C39.1925 39.5149 38.6786 39.3433 38.3361 39.3433C37.9079 39.4291 37.8223 39.0857 38.593 38.914C40.3057 38.5707 40.3057 38.914 40.7339 39.0857C41.162 39.2574 41.4189 38.914 42.9603 38.6565C44.5018 38.399 44.4161 38.1415 44.3305 37.8839C44.2449 37.6264 42.7034 37.9698 42.0184 38.0556C41.3333 38.1415 39.7919 38.4848 39.1925 38.399C38.593 38.399 37.9079 38.0556 37.651 38.0556C37.3941 38.0556 37.2229 38.2273 37.2229 38.2273V38.5707C36.3665 37.7122 35.1677 38.0556 34.9108 37.7122C33.9688 36.1671 35.1677 35.1369 35.5102 34.7936C35.8527 34.4502 36.5378 34.6219 37.3085 34.8794C38.0792 35.1369 38.0792 34.9652 38.8499 34.9652C39.6206 35.0511 39.9632 34.7077 40.7339 34.536C41.5046 34.3643 41.2477 34.3643 41.4189 34.1927C41.5046 33.9351 42.2753 33.1625 42.7891 32.6475C43.3029 32.1324 43.7311 31.7032 44.0736 31.4457C44.4161 31.1881 46.8139 30.6731 47.499 30.5014C48.184 30.3297 47.9271 30.2439 48.0128 30.158C48.184 30.0722 48.4409 29.7288 48.5266 30.0722C48.6978 31.0165 45.2725 31.6174 44.5018 31.789C43.6454 32.0466 42.8747 33.4201 42.5322 34.021C42.1896 34.536 41.162 35.1369 40.6482 35.3086C40.2201 35.4803 38.9356 35.4803 38.593 35.3945C38.2505 35.3086 38.0792 35.4803 37.8223 35.5661C37.4798 35.652 37.7367 35.8237 37.9936 35.9095C38.2505 35.9095 38.4217 35.8237 38.9356 35.7378C39.3637 35.5661 39.535 35.8237 39.9632 35.9095C40.477 35.9954 40.6482 36.1671 41.0764 36.0812C41.5046 35.9954 41.8471 35.652 42.3609 35.3945C42.8747 35.1369 43.1316 35.7378 43.4742 35.9954C43.9023 36.2529 44.0736 35.9954 44.7587 35.8237C45.4437 35.652 45.1012 35.7378 45.5294 35.8237C45.8719 35.9095 46.0432 36.0812 46.557 36.0812C48.0128 35.9954 47.7559 34.7936 47.3277 34.2785C46.8995 33.7634 46.557 34.1068 46.3857 34.3643C46.1288 34.6219 46.6426 34.6219 46.8995 34.536C47.0708 34.4502 47.4133 34.9652 47.0708 35.3086C46.0432 36.0812 44.8443 34.9652 44.8443 34.9652C43.5598 35.7378 43.2173 34.6219 43.2173 34.6219C43.2173 33.5918 43.7311 32.6475 46.3001 31.7032C48.8691 30.7589 50.753 31.0165 51.695 31.1023C52.637 31.1881 53.8359 31.6174 55.6342 31.789C57.3469 32.0466 58.717 31.6174 59.4877 31.274C60.2584 30.9306 60.3441 31.1881 60.2584 31.4457C60.1728 31.7032 60.0871 32.2183 60.344 32.3899C61.8855 32.7333 63.0843 32.1324 64.1976 31.3598C65.3108 30.5872 65.9103 31.7032 65.6534 32.0466C64.2832 33.5059 61.286 34.1927 60.601 34.021C55.8055 32.8192 52.8939 33.6776 52.0376 34.2785C51.0956 34.8794 51.7806 34.8794 52.637 34.9652C59.8302 35.9954 67.366 37.3689 73.0179 45.4381C78.6697 53.4216 76.7858 61.2333 76.7858 61.2333C75.0731 48.5285 68.3936 44.6655 64.4545 42.6053ZM54.0928 58.2288H52.7226V59.0872H54.0928V58.2288Z" fill="#787878"/>
</g>
<defs>
<clipPath id="clip0">
<rect width="67" height="73" fill="white" transform="translate(19 17)"/>
</clipPath>
</defs>
</svg>
