<svg width="17" height="23" viewBox="0 0 17 23" fill="none" xmlns="http://www.w3.org/2000/svg">
<g clip-path="url(#clip0)">
<path d="M8.72905 22.6242C4.47593 22.6242 1.01703 19.2342 1.01703 15.0658C1.01703 12.9561 1.92626 10.9296 3.51193 9.50165C3.62148 9.38892 3.72555 9.30034 3.82961 9.23324C3.87069 9.20908 3.90356 9.18761 3.93642 9.17151C3.99393 9.14198 4.05692 9.12588 4.11717 9.12588C4.22124 9.12588 4.32257 9.16614 4.39925 9.24398C4.51701 9.36745 4.53618 9.55533 4.44307 9.70027C4.19112 10.0975 4.14182 10.6236 4.31162 11.1443C4.37734 11.3456 4.47046 11.5362 4.58822 11.7133C4.50332 11.3134 4.46772 10.8679 4.48415 10.3955C4.50606 9.77006 4.67586 9.15809 5.00175 8.52464C5.34956 7.85093 5.82335 7.24433 6.28344 6.6592L6.50801 6.36931C7.34603 5.29299 8.21144 4.17641 8.46888 2.89073C8.60581 2.2036 8.51543 1.51916 8.2087 0.917919C8.13202 0.76761 8.16762 0.582408 8.30182 0.469676C8.37302 0.407942 8.4634 0.375732 8.55377 0.375732C8.63046 0.375732 8.7044 0.397205 8.77013 0.442835C11.5334 2.30023 10.857 5.27152 10.3613 7.44027C10.312 7.64963 10.2654 7.8563 10.2243 8.04956C10.1285 8.50585 10.0792 8.82258 10.0655 9.08025C10.0217 9.88011 10.4215 10.3713 10.9282 10.6907C10.7776 10.382 10.6625 10.0599 10.5886 9.7298C10.4708 9.19835 10.4653 8.6669 10.5749 8.14887C10.794 7.12891 11.4513 6.28342 12.3797 5.82981C12.4344 5.80297 12.4919 5.78955 12.5522 5.78955C12.648 5.78955 12.7439 5.82444 12.8151 5.89155C12.9329 6.00159 12.9685 6.16801 12.9027 6.31563C12.7576 6.64309 12.7192 6.98397 12.7822 7.35706C12.7822 7.36243 12.7877 7.39195 12.7877 7.39195C12.8288 7.62547 12.9082 7.86704 13.0315 8.1274C13.2177 8.59174 13.4012 8.81721 13.8941 9.31108L13.9215 9.33792C14.7376 10.1539 16.4328 11.8502 16.4328 15.0685C16.4356 19.2342 12.9794 22.6242 8.72905 22.6242Z" fill="url(#paint0_radial)"/>
<path d="M8.55382 0.75423C11.3582 2.64115 10.312 5.80838 9.85194 7.97444C9.76704 8.37437 9.70131 8.74209 9.68488 9.0615C9.57807 11.0611 11.8402 11.4503 11.9497 11.5282C11.9497 11.5309 11.9525 11.5309 11.9525 11.5336C11.9525 11.5336 11.9497 11.5309 11.9497 11.5282C11.476 10.994 11.1254 10.3418 10.9666 9.64663C10.8598 9.16618 10.857 8.68304 10.9556 8.22675C11.1418 7.3571 11.6868 6.59213 12.555 6.16805C12.3688 6.58945 12.3386 7.01085 12.4098 7.42152C12.4071 7.4242 12.4071 7.4242 12.4098 7.4242C12.4126 7.43494 12.4126 7.44299 12.4153 7.45373C12.418 7.45641 12.418 7.45641 12.418 7.4591C12.4673 7.73824 12.5632 8.0147 12.6892 8.2858C12.8973 8.80114 13.1191 9.06955 13.6258 9.57685C14.4309 10.3821 16.055 11.9711 16.055 15.0712C16.055 19.0356 12.7741 22.2511 8.73183 22.2511C4.68686 22.2511 1.40596 19.0356 1.40596 15.0712C1.40596 12.9749 2.32341 11.0907 3.78311 9.77815L3.78584 9.77547C3.87348 9.68153 3.96112 9.60906 4.04328 9.55537C4.07066 9.53927 4.09531 9.52316 4.11996 9.50974C3.41065 10.621 4.03232 12.3737 5.65086 13.0313C5.6536 13.0313 5.6536 13.0313 5.6536 13.0313C5.68372 13.0313 4.80188 12.3817 4.87035 10.4143C4.89226 9.78889 5.07575 9.22791 5.34687 8.69915C5.7248 7.96907 6.26706 7.30879 6.77097 6.66192C7.6309 5.55607 8.56751 4.36702 8.84686 2.97129C9.00022 2.21438 8.90711 1.44404 8.55382 0.75423ZM8.55382 0C8.37307 0 8.19232 0.0617342 8.04717 0.185202C7.78426 0.410666 7.70758 0.783755 7.86642 1.08974C8.13755 1.61582 8.21423 2.21438 8.09373 2.82098C7.85273 4.02077 7.0147 5.09978 6.20407 6.14389L6.16025 6.20026L5.9795 6.43109C5.51119 7.02964 5.02645 7.64967 4.66221 8.35558C4.58279 8.51126 4.50885 8.66694 4.44586 8.82262C4.35001 8.77699 4.2432 8.75283 4.13091 8.75014C4.12544 8.75014 4.1227 8.75014 4.11722 8.75014C4.09257 8.75014 4.06792 8.75015 4.04054 8.75283C3.93099 8.76357 3.82692 8.79577 3.73655 8.84677C3.70369 8.86556 3.66808 8.88435 3.63248 8.90582C3.627 8.90851 3.62153 8.91119 3.61879 8.91387C3.49281 8.9944 3.36683 9.09908 3.24085 9.2306C1.58398 10.731 0.633667 12.8568 0.633667 15.0658C0.633667 19.4409 4.26511 23 8.72909 23C13.1903 23 16.8218 19.4409 16.8218 15.0658C16.8218 11.6946 15.0499 9.92309 14.2009 9.07224L14.1735 9.0454C13.7079 8.57836 13.5601 8.39585 13.4012 8.00397C13.3957 7.99323 13.3903 7.97981 13.3848 7.96907C13.278 7.73556 13.2068 7.5262 13.1712 7.32221C13.1712 7.31952 13.1712 7.31416 13.1684 7.31147C13.1684 7.30342 13.1657 7.29805 13.1657 7.29C13.1137 6.98938 13.1438 6.71829 13.2588 6.46061C13.3875 6.17073 13.3163 5.83254 13.0808 5.61512C12.9356 5.48092 12.7439 5.40845 12.5522 5.40845C12.4345 5.40845 12.3167 5.43529 12.2099 5.48897C11.7197 5.72786 11.3007 6.06605 10.9666 6.47135C11.3664 4.41533 11.5143 1.82518 8.992 0.128836C8.85781 0.0429455 8.70445 0 8.55382 0Z" fill="#FFF5F5"/>
</g>
<defs>
<radialGradient id="paint0_radial" cx="0" cy="0" r="1" gradientUnits="userSpaceOnUse" gradientTransform="translate(9.08805 -1.80372) scale(29.067 28.4881)">
<stop offset="0.0664" stop-color="#FF8C00"/>
<stop offset="1" stop-color="#FF3D00"/>
</radialGradient>
<clipPath id="clip0">
<rect width="16.1881" height="23" fill="white" transform="translate(0.633667)"/>
</clipPath>
</defs>
</svg>
