<svg width="17" height="22" viewBox="0 0 17 22" fill="none" xmlns="http://www.w3.org/2000/svg">
<g clip-path="url(#clip0)">
<path d="M8.72905 21.6406C4.47593 21.6406 1.01703 18.3979 1.01703 14.4108C1.01703 12.3928 1.92626 10.4544 3.51193 9.08858C3.62148 8.98075 3.72555 8.89602 3.82961 8.83184C3.87069 8.80873 3.90356 8.78819 3.93642 8.77279C3.99393 8.74454 4.05692 8.72914 4.11717 8.72914C4.22124 8.72914 4.32257 8.76765 4.39925 8.8421C4.51701 8.96021 4.53618 9.13992 4.44307 9.27856C4.19112 9.65854 4.14182 10.1617 4.31162 10.6598C4.37734 10.8524 4.47046 11.0347 4.58822 11.2041C4.50332 10.8216 4.46772 10.3954 4.48415 9.94352C4.50606 9.34531 4.67586 8.75995 5.00175 8.15404C5.34956 7.50963 5.82335 6.9294 6.28344 6.36971L6.50801 6.09243C7.34603 5.0629 8.21144 3.99487 8.46888 2.76508C8.60581 2.10783 8.51543 1.45315 8.2087 0.87805C8.13202 0.734276 8.16762 0.557125 8.30182 0.449295C8.37302 0.390245 8.4634 0.359436 8.55377 0.359436C8.63046 0.359436 8.7044 0.379975 8.77013 0.423621C11.5334 2.20026 10.857 5.04236 10.3613 7.11682C10.312 7.31707 10.2654 7.51476 10.2243 7.69962C10.1285 8.13607 10.0792 8.43902 10.0655 8.6855C10.0217 9.45058 10.4215 9.92041 10.9282 10.2259C10.7776 9.93068 10.6625 9.62259 10.5886 9.3068C10.4708 8.79846 10.4653 8.29012 10.5749 7.79461C10.794 6.819 11.4513 6.01027 12.3797 5.57638C12.4344 5.55071 12.4919 5.53787 12.5522 5.53787C12.648 5.53787 12.7439 5.57125 12.8151 5.63543C12.9329 5.74069 12.9685 5.89987 12.9027 6.04108C12.7576 6.3543 12.7192 6.68036 12.7822 7.03723C12.7822 7.04236 12.7877 7.0706 12.7877 7.0706C12.8288 7.29397 12.9082 7.52503 13.0315 7.77407C13.2177 8.21823 13.4012 8.43389 13.8941 8.90629L13.9215 8.93196C14.7376 9.71245 16.4328 11.335 16.4328 14.4134C16.4356 18.3979 12.9794 21.6406 8.72905 21.6406Z" fill="#FFD600"/>
<path d="M8.55382 0.721438C11.3582 2.52632 10.312 5.55584 9.85194 7.62773C9.76704 8.01027 9.70131 8.362 9.68488 8.66752C9.57807 10.5802 11.8402 10.9525 11.9497 11.027C11.9497 11.0295 11.9525 11.0295 11.9525 11.0321C11.9525 11.0321 11.9497 11.0295 11.9497 11.027C11.476 10.516 11.1254 9.89217 10.9666 9.22721C10.8598 8.76765 10.857 8.30552 10.9556 7.86906C11.1418 7.03723 11.6868 6.30552 12.555 5.89987C12.3688 6.30295 12.3386 6.70603 12.4098 7.09884C12.4071 7.10141 12.4071 7.10141 12.4098 7.10141C12.4126 7.11168 12.4126 7.11938 12.4153 7.12965C12.418 7.13222 12.418 7.13222 12.418 7.13479C12.4673 7.4018 12.5632 7.66624 12.6892 7.92555C12.8973 8.41849 13.1191 8.67522 13.6258 9.16046C14.4309 9.93068 16.055 11.4506 16.055 14.4159C16.055 18.208 12.7741 21.2837 8.73183 21.2837C4.68686 21.2837 1.40596 18.208 1.40596 14.4159C1.40596 12.4108 2.32341 10.6085 3.78311 9.35302L3.78584 9.35045C3.87348 9.26059 3.96112 9.19127 4.04328 9.13992C4.07066 9.12452 4.09531 9.10911 4.11996 9.09628C3.41065 10.1592 4.03232 11.8357 5.65086 12.4647C5.6536 12.4647 5.6536 12.4647 5.6536 12.4647C5.68372 12.4647 4.80188 11.8434 4.87035 9.96149C4.89226 9.36329 5.07575 8.8267 5.34687 8.32092C5.7248 7.62259 6.26706 6.99101 6.77097 6.37227C7.6309 5.31451 8.56751 4.17715 8.84686 2.84211C9.00022 2.1181 8.90711 1.38126 8.55382 0.721438ZM8.55382 0C8.37307 0 8.19232 0.0590501 8.04717 0.17715C7.78426 0.392811 7.70758 0.749679 7.86642 1.04236C8.13755 1.54557 8.21423 2.1181 8.09373 2.69833C7.85273 3.84596 7.0147 4.87805 6.20407 5.87676L6.16025 5.93068L5.9795 6.15148C5.51119 6.724 5.02645 7.31707 4.66221 7.9923C4.58279 8.14121 4.50885 8.29012 4.44586 8.43902C4.35001 8.39538 4.2432 8.37227 4.13091 8.3697C4.12544 8.3697 4.1227 8.3697 4.11722 8.3697C4.09257 8.3697 4.06792 8.36971 4.04054 8.37227C3.93099 8.38254 3.82692 8.41335 3.73655 8.46213C3.70369 8.4801 3.66808 8.49807 3.63248 8.51861C3.627 8.52118 3.62153 8.52375 3.61879 8.52632C3.49281 8.60334 3.36683 8.70347 3.24085 8.82927C1.58398 10.2644 0.633667 12.2978 0.633667 14.4108C0.633667 18.5956 4.26511 22 8.72909 22C13.1903 22 16.8218 18.5956 16.8218 14.4108C16.8218 11.1861 15.0499 9.49166 14.2009 8.67779L14.1735 8.65212C13.7079 8.20539 13.5601 8.03081 13.4012 7.65597C13.3957 7.6457 13.3903 7.63286 13.3848 7.62259C13.278 7.39923 13.2068 7.19897 13.1712 7.00385C13.1712 7.00128 13.1712 6.99615 13.1684 6.99358C13.1684 6.98588 13.1657 6.98074 13.1657 6.97304C13.1137 6.68549 13.1438 6.42619 13.2588 6.17972C13.3875 5.90244 13.3163 5.57895 13.0808 5.37099C12.9356 5.24262 12.7439 5.1733 12.5522 5.1733C12.4345 5.1733 12.3167 5.19897 12.2099 5.25032C11.7197 5.47882 11.3007 5.80231 10.9666 6.18999C11.3664 4.22336 11.5143 1.74583 8.992 0.123235C8.85781 0.0410783 8.70445 0 8.55382 0Z" fill="white"/>
</g>
<defs>
<clipPath id="clip0">
<rect width="16.1881" height="22" fill="white" transform="translate(0.633667)"/>
</clipPath>
</defs>
</svg>
