<svg width="64" height="64" viewBox="0 0 64 64" fill="none" xmlns="http://www.w3.org/2000/svg">
<path fill-rule="evenodd" clip-rule="evenodd" d="M32 0C14.3269 0 0 14.3269 0 32C0 49.6731 14.3269 64 32 64C49.6731 64 64 49.6731 64 32C64 14.3269 49.6731 0 32 0Z" fill="#EF4949"/>
<path d="M28 44C28 41.7909 29.784 40 31.9847 40C34.1854 40 35.9694 41.7909 35.9694 44C35.9694 46.2091 34.1854 48 31.9847 48C29.784 48 28 46.2091 28 44Z" fill="white"/>
<path d="M28.3903 19.9802C28.1781 17.8491 29.8451 16 31.9785 16C34.112 16 35.779 17.8491 35.5667 19.9801L34.1691 34.0099C34.0566 35.1397 33.1096 36 31.9785 36C30.8475 36 29.9005 35.1397 29.788 34.0099L28.3903 19.9802Z" fill="white"/>
</svg>
