<svg width="64" height="64" viewBox="0 0 64 64" fill="none" xmlns="http://www.w3.org/2000/svg">
<path fill-rule="evenodd" clip-rule="evenodd" d="M32 0C14.3269 0 0 14.3269 0 32C0 49.6731 14.3269 64 32 64C49.6731 64 64 49.6731 64 32C64 14.3269 49.6731 0 32 0Z" fill="#47C751"/>
<path fill-rule="evenodd" clip-rule="evenodd" d="M26.8445 42.8698L24.8242 40.8496L44.4014 21.2009C45.0709 20.5314 46.1563 20.5314 46.8258 21.2009L47.6339 22.009C48.3034 22.6785 48.3034 23.7639 47.6339 24.4334L29.2689 42.8698C28.5994 43.5393 27.514 43.5393 26.8445 42.8698Z" fill="white"/>
<path fill-rule="evenodd" clip-rule="evenodd" d="M31.2854 40.8499L29.2651 42.8702C28.5956 43.5397 27.5102 43.5397 26.8408 42.8702L18.7961 34.8255C18.1266 34.1561 18.1266 33.0706 18.7961 32.4011L19.6041 31.5931C20.2736 30.9236 21.3591 30.9236 22.0286 31.5931L31.2854 40.8499Z" fill="white"/>
</svg>
