<svg width="20" height="16" viewBox="0 0 20 16" fill="none" xmlns="http://www.w3.org/2000/svg">
<path d="M9.81787 15.3267C9.88566 15.3653 9.94602 15.3994 9.99833 15.4286C10.0509 15.3989 10.1115 15.3642 10.1797 15.3248C10.4485 15.1697 10.8338 14.9415 11.2967 14.651C12.2234 14.0694 13.4563 13.2411 14.6867 12.252C15.9197 11.2609 17.1347 10.1204 18.0375 8.91703C18.9449 7.70762 19.5 6.48397 19.5 5.31608C19.5 2.66716 17.2992 0.500161 14.56 0.500175L14.5562 0.500146C12.8825 0.487392 11.3227 1.31011 10.4164 2.6742L10.0024 3.29741L9.58501 2.67644C8.67171 1.31771 7.11458 0.496398 5.44179 0.500158C2.70759 0.513486 0.513817 2.67304 0.5 5.31741C0.500412 6.50588 1.05676 7.73929 1.96287 8.95057C2.86531 10.1569 4.07982 11.2946 5.31233 12.2806C6.54229 13.2646 7.77482 14.0854 8.70127 14.6608C9.164 14.9481 9.54915 15.1735 9.81787 15.3267Z" fill="#FFCB11" stroke="white"/>
</svg>
