<svg width="18" height="27" viewBox="0 0 18 27" fill="none" xmlns="http://www.w3.org/2000/svg">
<path d="M9.00149 26.5589C4.27234 26.5589 0.426292 22.5793 0.426292 17.6859C0.426292 15.2093 1.43729 12.8304 3.20044 11.1541C3.32225 11.0218 3.43797 10.9178 3.55368 10.839C3.59936 10.8107 3.6359 10.7855 3.67244 10.7666C3.73639 10.7319 3.80643 10.713 3.87342 10.713C3.98914 10.713 4.10181 10.7603 4.18708 10.8517C4.31802 10.9966 4.33934 11.2172 4.2358 11.3873C3.95564 11.8536 3.90083 12.4712 4.08963 13.0825C4.16272 13.3188 4.26625 13.5425 4.39719 13.7505C4.30279 13.281 4.26321 12.7579 4.28148 12.2034C4.30584 11.4692 4.49464 10.7508 4.85701 10.0072C5.24375 9.21634 5.77057 8.50424 6.28215 7.81734L6.53186 7.47704C7.46368 6.21354 8.42595 4.90277 8.7122 3.39349C8.86446 2.58686 8.76397 1.78338 8.42291 1.07758C8.33764 0.901131 8.37723 0.68372 8.52644 0.551382C8.60562 0.478912 8.70611 0.441101 8.8066 0.441101C8.89186 0.441101 8.97408 0.466308 9.04717 0.519873C12.1197 2.70029 11.3676 6.18833 10.8164 8.73425C10.7616 8.98002 10.7098 9.22264 10.6642 9.4495C10.5576 9.98516 10.5028 10.357 10.4875 10.6594C10.4388 11.5984 10.8834 12.175 11.4468 12.55C11.2793 12.1876 11.1514 11.8095 11.0692 11.422C10.9382 10.7981 10.9321 10.1742 11.0539 9.56609C11.2975 8.36875 12.0284 7.37622 13.0607 6.84372C13.1216 6.81221 13.1856 6.79645 13.2525 6.79645C13.3591 6.79645 13.4657 6.83741 13.5449 6.91619C13.6758 7.04537 13.7154 7.24073 13.6423 7.41403C13.4809 7.79844 13.4383 8.1986 13.5083 8.63657C13.5083 8.64288 13.5144 8.67754 13.5144 8.67754C13.5601 8.95166 13.6484 9.23524 13.7855 9.54088C13.9925 10.086 14.1965 10.3507 14.7447 10.9304L14.7751 10.9619C15.6826 11.9198 17.5676 13.9112 17.5676 17.6891C17.5706 22.5793 13.7276 26.5589 9.00149 26.5589Z" fill="url(#paint0_radial)"/>
<path d="M8.80663 0.885401C11.9249 3.10048 10.7616 6.81853 10.25 9.3613C10.1556 9.83078 10.0826 10.2625 10.0643 10.6374C9.94553 12.9848 12.4608 13.4417 12.5826 13.5331C12.5826 13.5362 12.5857 13.5362 12.5857 13.5394C12.5857 13.5394 12.5826 13.5362 12.5826 13.5331C12.0558 12.9061 11.666 12.1404 11.4894 11.3243C11.3707 10.7603 11.3676 10.1931 11.4772 9.65749C11.6843 8.6366 12.2903 7.73859 13.2556 7.24075C13.0486 7.73544 13.0151 8.23013 13.0942 8.71222C13.0912 8.71537 13.0912 8.71537 13.0942 8.71537C13.0973 8.72797 13.0973 8.73742 13.1003 8.75003C13.1034 8.75318 13.1034 8.75318 13.1034 8.75633C13.1582 9.08402 13.2648 9.40857 13.4048 9.72681C13.6363 10.3318 13.8829 10.6469 14.4463 11.2424C15.3416 12.1877 17.1474 14.053 17.1474 17.6923C17.1474 22.3461 13.4992 26.1209 9.00457 26.1209C4.50685 26.1209 0.858738 22.3461 0.858738 17.6923C0.858738 15.2314 1.87887 13.0195 3.50195 11.4787L3.50499 11.4755C3.60244 11.3653 3.69988 11.2802 3.79124 11.2172C3.82169 11.1983 3.84909 11.1794 3.8765 11.1636C3.0878 12.4681 3.77906 14.5256 5.57875 15.2976C5.5818 15.2976 5.5818 15.2976 5.5818 15.2976C5.61529 15.2976 4.63475 14.5351 4.71088 12.2255C4.73524 11.4913 4.93927 10.8328 5.24074 10.212C5.66097 9.355 6.26391 8.57988 6.82423 7.82052C7.78041 6.52235 8.82186 5.1265 9.13246 3.48804C9.30299 2.59949 9.19946 1.69518 8.80663 0.885401ZM8.80663 0C8.60565 0 8.40467 0.0724705 8.24327 0.217412C7.95094 0.482087 7.86567 0.920061 8.04229 1.27926C8.34377 1.89684 8.42903 2.59949 8.29504 3.31159C8.02707 4.72004 7.09525 5.9867 6.19388 7.21239L6.14515 7.27856L5.94417 7.54954C5.42345 8.25219 4.88445 8.98004 4.47944 9.80873C4.39114 9.99148 4.30892 10.1742 4.23888 10.357C4.1323 10.3034 4.01353 10.2751 3.88868 10.2719C3.88259 10.2719 3.87955 10.2719 3.87346 10.2719C3.84605 10.2719 3.81864 10.2719 3.78819 10.2751C3.66638 10.2877 3.55067 10.3255 3.45018 10.3853C3.41364 10.4074 3.37405 10.4295 3.33446 10.4547C3.32837 10.4578 3.32228 10.461 3.31924 10.4641C3.17916 10.5586 3.03908 10.6815 2.899 10.8359C1.05667 12.5973 0 15.0928 0 17.686C0 22.8219 4.0379 27 9.00152 27C13.9621 27 18 22.8219 18 17.686C18 13.7284 16.0298 11.6488 15.0858 10.65L15.0553 10.6185C14.5376 10.0703 14.3732 9.85599 14.1966 9.39596C14.1905 9.38336 14.1844 9.3676 14.1783 9.355C14.0596 9.08087 13.9804 8.8351 13.9408 8.59564C13.9408 8.59248 13.9408 8.58618 13.9377 8.58303C13.9377 8.57358 13.9347 8.56728 13.9347 8.55782C13.8768 8.20492 13.9103 7.88668 14.0382 7.5842C14.1814 7.2439 14.1022 6.84689 13.8403 6.59167C13.6789 6.43412 13.4657 6.34905 13.2526 6.34905C13.1216 6.34905 12.9907 6.38056 12.8719 6.44358C12.3268 6.724 11.8609 7.12102 11.4894 7.5968C11.934 5.18322 12.0985 2.14261 9.29386 0.151243C9.14465 0.0504143 8.97412 0 8.80663 0Z" fill="white"/>
<defs>
<radialGradient id="paint0_radial" cx="0" cy="0" r="1" gradientUnits="userSpaceOnUse" gradientTransform="translate(9.40068 -2.11739) scale(32.3204 33.4425)">
<stop offset="0.0664" stop-color="#FF8C00"/>
<stop offset="1" stop-color="#FF3D00"/>
</radialGradient>
</defs>
</svg>
