<svg width="109" height="109" viewBox="0 0 109 109" fill="none" xmlns="http://www.w3.org/2000/svg">
<rect width="109" height="109" rx="19" fill="#FFFCFC"/>
<path d="M27.5753 81.2648C25.54 81.2648 23.4162 80.5675 22.0889 79.0859C21.1155 77.9529 20.85 76.9071 20.673 75.5126H25.0975C25.363 76.7328 25.9824 77.6043 27.4868 77.6043C28.5487 77.6043 29.4336 76.9071 29.4336 75.9484C29.4336 75.6869 29.3451 75.3383 29.1681 75.0768C28.5487 74.2925 26.2479 73.7695 25.363 73.5081C22.9738 72.7237 21.2924 71.2421 21.2924 68.8018C21.2924 65.8385 24.2126 63.6597 27.3983 63.6597C30.5839 63.6597 33.2387 65.8385 33.3272 68.7146H29.0796C28.9026 67.8431 28.2832 67.3201 27.3098 67.3201C26.4249 67.3201 25.6285 67.9302 25.6285 68.7146C25.6285 69.5861 26.4249 69.8476 27.1328 70.1091C27.6638 70.2834 28.1947 70.4577 28.7256 70.5448C31.5573 71.3292 33.7696 72.4622 33.7696 75.5126C33.9466 78.7373 31.2034 81.2648 27.5753 81.2648Z" fill="#787878"/>
<path d="M47.8396 80.7418V79.0858H47.7511C46.5123 80.5674 45.1849 81.2647 43.0611 81.2647C40.7604 81.2647 38.2826 80.3931 36.9553 78.6501C35.7164 76.9941 35.6279 74.9024 35.6279 72.9851V64.2697H39.964V72.7236C39.964 75.0767 40.4949 77.6914 43.7691 77.6914C46.7777 77.6914 47.4857 74.9024 47.4857 72.7236V64.2697H51.8217V80.8289H47.8396V80.7418Z" fill="#787878"/>
<path d="M60.3168 81.2648C58.2815 81.2648 56.1577 80.5675 54.8304 79.0859C53.857 77.9529 53.5915 76.9071 53.503 75.5126H57.9275C58.193 76.7328 58.8125 77.6043 60.3168 77.6043C61.3787 77.6043 62.2636 76.9071 62.2636 75.9484C62.2636 75.6869 62.1751 75.3383 61.9981 75.0768C61.3787 74.2925 59.0779 73.7695 58.193 73.5081C55.8038 72.7237 54.1225 71.2421 54.1225 68.8018C54.1225 65.8385 57.0426 63.6597 60.2283 63.6597C63.414 63.6597 66.0687 65.8385 66.1572 68.7146H61.9096C61.7326 67.8431 61.1132 67.3201 60.1398 67.3201C59.2549 67.3201 58.4585 67.9302 58.4585 68.7146C58.4585 69.5861 59.2549 69.8476 59.9628 70.1091C60.4938 70.2834 61.0247 70.4577 61.5557 70.5448C64.3874 71.3292 66.5996 72.4622 66.5996 75.5126C66.6881 78.7373 63.9449 81.2648 60.3168 81.2648Z" fill="#787878"/>
<path d="M79.8732 80.7418V72.2879C79.8732 69.9347 79.4307 67.3201 76.1566 67.3201C72.8824 67.3201 72.5285 70.1091 72.5285 72.3751V80.7418H68.1924V58.5176H72.5285V65.3156C73.8558 64.1826 75.3602 63.5725 77.2185 63.5725C79.2538 63.5725 81.5545 64.6184 82.7934 66.1C83.9438 67.4944 84.2092 69.3247 84.2092 71.0677V80.6547H79.8732V80.7418Z" fill="#787878"/>
<path d="M86.7755 62.701V58.5176H91.1115V62.701H86.7755ZM86.7755 80.7418V64.1826H91.1115V80.7418H86.7755Z" fill="#787878"/>
<path d="M14.0362 64.1826H18.2838V80.7419H14.0362V64.1826Z" fill="#787878"/>
<path d="M18.2838 60.6093C18.2838 61.7423 17.3104 62.701 16.16 62.701C15.0096 62.701 14.0362 61.7423 14.0362 60.6093C14.0362 59.4763 15.0096 58.5176 16.16 58.5176C17.3104 58.5176 18.2838 59.4763 18.2838 60.6093Z" fill="#787878"/>
<path d="M41.5568 45.183C41.7338 44.7472 41.8223 44.2243 41.8223 43.7885C41.9108 41.0868 40.2295 38.4721 37.2208 37.6878C34.743 36.7291 31.8229 36.2061 28.0178 36.0318C25.0091 35.9447 22.5313 36.119 20.4961 36.3804C20.5846 39.7794 23.6817 42.6555 27.7523 43.0913C27.7523 43.1785 27.7523 43.2656 27.7523 43.2656C27.6638 45.8802 29.7876 48.2334 32.7963 49.0178C32.7078 49.1921 32.7078 49.4535 32.7078 49.6278C32.6193 51.4581 33.6812 53.0269 35.3625 54.0727C35.3625 54.0727 36.1589 54.5085 36.7783 54.6828C37.5747 54.9442 38.6366 55.0314 38.8136 55.0314C42.3532 55.1185 45.2734 52.9397 45.3619 50.0636C45.3619 47.8848 43.8576 46.0545 41.5568 45.183ZM34.0351 46.4032C32.2653 46.316 30.8495 45.0087 30.9379 43.4399C31.0264 41.8711 32.4423 40.651 34.3006 40.651C36.0704 40.7381 37.3978 42.0455 37.3978 43.6142C37.3093 45.183 35.8049 46.4032 34.0351 46.4032Z" fill="#787878"/>
<path d="M33.5927 45.9673C32.2653 45.8802 31.2919 44.9215 31.2919 43.7885C31.3804 42.6555 32.4423 41.6968 33.7696 41.784C35.097 41.784 36.0704 42.8298 36.0704 43.9628C36.0704 45.0958 34.92 46.0545 33.5927 45.9673ZM33.7696 42.0454C32.7077 42.0454 31.7344 42.7426 31.7344 43.7885C31.6459 44.7472 32.5308 45.5316 33.5927 45.6187C34.6545 45.6187 35.6279 44.9215 35.6279 43.8757C35.7164 42.917 34.8315 42.1326 33.7696 42.0454Z" fill="#787878"/>
<path d="M34.8316 44.1371C34.8316 44.8344 34.2121 45.3573 33.4157 45.3573C32.6193 45.3573 32.0883 44.7472 32.0883 44.05C32.0883 43.3528 32.7078 42.8298 33.5042 42.8298C34.3006 42.8298 34.8316 43.4399 34.8316 44.1371Z" fill="#787878"/>
<path d="M31.2918 49.7149C28.5486 48.6691 27.0442 46.4902 26.8672 43.9628C22.7967 43.0912 20.0535 40.128 20.0535 36.6418C14.744 37.4262 13.4167 38.6464 13.3282 38.6464C10.6735 39.7794 9.25761 42.5683 10.231 46.4902C11.2044 50.325 13.9476 53.1139 16.4253 52.8525C16.4253 52.8525 16.3369 52.8525 16.4253 52.8525C24.0355 51.6323 28.637 52.1553 32.6191 53.2011C31.7342 52.2424 31.2918 51.0223 31.2918 49.7149ZM15.3635 51.5452C13.4167 51.8066 11.2044 49.5406 10.408 46.4031C9.61158 43.2655 10.585 40.4766 12.4433 40.128C14.3901 39.7794 16.6023 42.0454 17.3987 45.1829C18.1952 48.4076 17.3103 51.1966 15.3635 51.5452Z" fill="#787878"/>
<path d="M101.642 42.2198C98.5447 39.0822 94.0317 36.3804 88.7223 35.3346C88.3683 37.0777 87.8374 38.9079 87.1294 40.7381C85.9791 43.4399 84.3862 45.8802 82.351 48.0591C87.3949 46.1417 89.5187 40.4767 101.642 42.2198Z" fill="#787878"/>
<path d="M87.9259 22C84.6517 31.9356 78.2804 34.1144 73.2364 36.8162C74.0328 36.9905 74.7408 37.4263 75.1832 38.0363C76.2451 37.4263 77.307 36.8162 78.0149 36.3804C80.7581 34.6373 83.4128 32.4585 85.3596 28.9723C84.5632 31.9356 81.0236 35.6832 78.7228 37.4263C77.8379 38.1235 76.776 38.8207 75.7142 39.518C75.7142 40.2152 75.4487 40.8253 75.0062 41.5225C77.7494 39.9537 80.5811 37.6877 82.5279 34.5502C80.9351 38.0363 78.5459 40.3023 76.5991 41.784C76.953 41.9583 77.307 42.1326 77.5725 42.394C79.2538 41.261 80.4042 39.6051 81.3776 38.2106C80.3157 40.4766 78.9883 42.0454 78.0149 43.0041C78.3689 43.7885 78.3689 44.66 77.9264 45.5316C77.9264 45.6187 77.8379 45.7059 77.8379 45.7059C78.8998 46.0545 79.6962 46.6646 80.1387 47.5361C80.3157 47.9719 80.4042 48.4077 80.4042 48.8434C89.2532 41.0867 89.4302 29.5824 87.9259 22Z" fill="#787878"/>
<path d="M76.953 43.3527C76.4221 42.6554 75.3602 42.394 74.1213 42.5683C73.7674 42.9169 73.2364 43.2655 72.7055 43.6141C72.086 43.9627 71.3781 44.2242 70.6702 44.3114C71.4666 44.5728 72.086 45.0086 72.44 45.6187C72.5285 45.5315 72.617 45.4444 72.794 45.3572C73.5019 44.9214 74.2098 44.8343 74.4753 45.0957C74.6523 45.3572 74.2098 45.8801 73.5019 46.3159C73.3249 46.4031 73.0594 46.4902 72.8825 46.5774C72.9709 47.1003 72.8825 47.7104 72.7055 48.3204C73.4134 48.2333 74.2098 47.9718 74.9177 47.5361C76.8645 46.4031 77.8379 44.4857 76.953 43.3527Z" fill="#787878"/>
<path d="M74.3868 38.5593C73.5019 37.3391 71.2011 37.1648 69.2543 38.2106C68.4579 38.6464 67.8385 39.1693 67.4845 39.7794C68.5464 40.0409 69.3428 40.5638 69.7853 41.3482C69.8738 41.261 69.9623 41.261 69.9623 41.1739C70.6702 40.7381 71.4666 40.651 71.6436 40.9996C71.8206 41.261 71.3781 41.8711 70.6702 42.2197C70.4932 42.3069 70.3162 42.394 70.1392 42.4812C70.1392 42.8298 70.1392 43.1784 70.0508 43.4399C70.7587 43.3527 71.5551 43.0913 72.3515 42.7427C74.2983 41.784 75.1832 39.8666 74.3868 38.5593Z" fill="#787878"/>
<path d="M79.0768 48.2333C78.7229 47.5361 78.0149 47.0132 77.0415 46.8389C76.5991 47.3618 76.0681 47.7976 75.3602 48.2333C74.5638 48.7563 73.5904 49.0177 72.7055 49.192C73.2364 49.4535 73.6789 49.8893 73.9444 50.325C74.1214 50.2379 74.2983 50.1507 74.4753 50.0636C75.2717 49.8021 76.0681 49.7149 76.1566 49.9764C76.3336 50.2379 75.7142 50.7608 74.9178 51.0223C74.7408 51.1094 74.5638 51.1966 74.3868 51.1966C74.5638 51.8066 74.4753 52.4167 74.2098 53.0268C74.9178 53.0268 75.6257 52.8525 76.3336 52.591C78.6344 51.6323 79.8732 49.7149 79.0768 48.2333Z" fill="#787878"/>
<path d="M68.9889 41.8711C68.2809 40.3895 65.8032 40.0409 63.4139 40.9996C62.883 41.261 62.3521 41.5225 61.9096 41.8711C63.06 42.3069 63.9449 43.0913 64.2104 44.05C64.2989 43.9628 64.4758 43.9628 64.6528 43.8757C65.4492 43.5271 66.2456 43.4399 66.3341 43.7014C66.5111 43.9628 65.8917 44.4857 65.0953 44.7472C64.8298 44.8344 64.5643 44.9215 64.2989 45.0087C64.2104 45.6187 63.9449 46.2288 63.5024 46.7517C64.2989 46.7517 65.1838 46.5774 66.0687 46.2288C68.4579 45.3573 69.6968 43.3527 68.9889 41.8711Z" fill="#787878"/>
<path d="M73.4134 50.9351C73.1479 50.325 72.5285 49.8893 71.8206 49.715C71.2011 50.4122 70.3162 51.0223 69.2544 51.3709C68.7234 51.6324 68.104 51.7195 67.573 51.8067C67.8385 52.1553 68.104 52.5039 68.1925 52.8525C68.281 52.7654 68.4579 52.7654 68.5464 52.6782C69.3428 52.4167 70.1393 52.3296 70.2277 52.591C70.3162 52.8525 69.7853 53.2883 68.9004 53.5497C68.7234 53.6369 68.4579 53.6369 68.281 53.724C68.281 54.4213 68.104 55.0314 67.75 55.6414C68.6349 55.7286 69.6083 55.5543 70.5817 55.2057C72.8825 54.3341 74.1213 52.4167 73.4134 50.9351Z" fill="#787878"/>
<path d="M71.9091 46.2288C71.5551 45.4444 70.5817 44.9215 69.4313 44.8344C68.8119 45.7059 67.8385 46.4903 66.5111 47.0132C66.1572 47.1875 65.8032 47.2747 65.5378 47.3618C65.8032 47.6233 65.9802 47.9719 66.1572 48.3205C66.1572 48.4077 66.2457 48.4948 66.2457 48.582C66.4227 48.4948 66.6881 48.4077 66.8651 48.3205C67.75 47.9719 68.5464 47.8847 68.6349 48.1462C68.7234 48.4077 68.1925 48.8434 67.3076 49.1921C66.9536 49.3664 66.5996 49.4535 66.3342 49.4535C66.2457 49.9764 66.1572 50.4122 65.8032 50.9351C66.7766 51.1094 67.927 50.9351 68.9889 50.4994C71.2896 49.6278 72.5285 47.7104 71.9091 46.2288Z" fill="#787878"/>
<path d="M46.1583 52.7653C45.8928 52.7653 45.7159 52.6782 45.4504 52.6782C45.2734 52.8525 45.1849 53.0268 45.0079 53.2011C45.1849 53.2011 45.3619 53.2883 45.4504 53.2883C46.5123 53.5497 47.3972 54.0727 47.2202 54.4213C47.1317 54.7699 46.1583 54.7699 45.0079 54.5084C44.5655 54.4213 44.123 54.247 43.8576 54.0726C43.2381 54.4213 42.6187 54.6827 41.9108 54.857C42.6187 55.99 44.0345 56.8616 45.8044 57.2102C46.1583 57.2973 46.4238 57.2973 46.7777 57.2973C46.8662 57.2973 46.8662 57.2973 46.9547 57.2973C47.2202 57.2973 47.4857 57.2973 47.7511 57.2973C47.8396 57.2973 47.8396 57.2973 47.9281 57.2973C48.1936 57.2973 48.5476 57.2102 48.813 57.123C48.9015 57.123 48.99 57.123 48.99 57.0359C49.167 56.9487 49.344 56.9487 49.521 56.8616C49.6094 56.8616 49.6979 56.7744 49.7864 56.7744C49.9634 56.6873 50.0519 56.6001 50.2289 56.6001C50.3174 56.513 50.4059 56.513 50.4944 56.4258C50.5828 56.3387 50.7598 56.2515 50.8483 56.1643C50.9368 56.0772 51.0253 56.0772 51.0253 55.99C51.1138 55.9029 51.2023 55.7286 51.2908 55.6414C51.3793 55.5543 51.3793 55.5543 51.4677 55.4671C51.5562 55.2928 51.6447 55.1185 51.7332 54.857C51.9987 53.8983 51.5562 52.8525 50.6713 51.981C49.6979 52.591 48.3706 52.9397 46.8662 52.8525C46.7777 52.8525 46.4238 52.8525 46.1583 52.7653Z" fill="#787878"/>
<path d="M49.9634 51.5452C50.0516 51.5452 50.0516 51.458 50.1399 51.458C50.0516 51.458 50.0516 51.458 49.9634 51.5452Z" fill="#787878"/>
<path d="M57.9275 52.5039C57.0426 53.2883 55.7153 53.8983 54.2994 54.1598C53.857 54.247 53.326 54.247 52.8836 54.247C52.8836 54.4213 52.8836 54.5084 52.8836 54.6827C53.1491 54.6827 53.503 54.5956 53.857 54.5956C55.0074 54.5956 55.8923 54.9442 55.8923 55.2057C55.8923 55.5543 54.9189 55.8157 53.857 55.7286C53.4145 55.7286 52.9721 55.6414 52.6181 55.5543C52.3526 56.0772 51.9102 56.6001 51.3792 56.9487C51.4677 56.9487 51.5562 57.0359 51.5562 57.0359C51.5562 57.0359 51.5562 57.0359 51.6447 57.0359C51.9102 57.123 52.1757 57.2102 52.4411 57.2974H52.5296C52.7951 57.3845 53.0606 57.3845 53.4145 57.4717H53.503C53.7685 57.4717 54.034 57.5588 54.3879 57.5588C54.4764 57.5588 54.6534 57.5588 54.7419 57.5588C57.6621 57.5588 59.9628 56.1644 59.9628 54.4213C59.9628 54.247 59.9628 54.0727 59.8743 53.8112C59.7858 53.6369 59.6974 53.4626 59.6089 53.2883C59.5204 53.114 59.3434 52.9397 59.1664 52.8525C59.1664 52.8525 59.1664 52.8525 59.0779 52.7653C58.9009 52.591 58.724 52.5039 58.547 52.3296C58.547 52.3296 58.4585 52.3296 58.4585 52.2424C58.37 52.2424 58.2815 52.1553 58.193 52.0681C58.1045 52.4167 58.016 52.5039 57.9275 52.5039Z" fill="#787878"/>
<path d="M67.4846 53.6368C67.3961 52.6782 66.5997 51.8066 65.5378 51.2837C65.5378 51.3708 65.4493 51.3708 65.4493 51.458C64.7413 52.3295 63.591 53.1139 62.2636 53.4625C61.7327 53.6368 61.2017 53.724 60.6708 53.8112C60.7593 54.0726 60.8478 54.4212 60.8478 54.6827C61.0247 54.6827 61.1132 54.6827 61.2902 54.5955C62.4406 54.5084 63.3255 54.6827 63.414 54.9442C63.414 55.2928 62.6176 55.6414 61.4672 55.7285C61.1132 55.7285 60.8478 55.7285 60.5823 55.7285C60.3168 56.2515 59.9629 56.6872 59.4319 57.0359C60.3168 57.3845 61.4672 57.5588 62.7061 57.4716C65.5378 57.2973 67.6615 55.5542 67.4846 53.6368Z" fill="#787878"/>
<path d="M58.37 49.6278C58.37 49.4535 58.2815 49.2792 58.193 49.1049C58.193 49.0178 58.1045 49.0178 58.1045 48.9306C58.016 48.8434 57.9276 48.7563 57.8391 48.582C57.7506 48.4948 57.7506 48.4948 57.6621 48.4077C57.5736 48.3205 57.4851 48.2334 57.3081 48.1462C57.2196 48.0591 57.2196 48.0591 57.1311 48.0591C56.9542 47.9719 56.8657 47.8848 56.6887 47.7976C56.6887 47.7976 56.6002 47.7104 56.5117 47.7104C56.4232 47.7104 56.3347 47.6233 56.2462 47.6233C55.2728 48.3205 53.9455 48.7563 52.4411 48.8434C52.5296 49.1921 52.5296 49.4535 52.4411 49.8021C52.4411 49.8893 52.3526 49.9764 52.3526 50.0636C52.4411 50.0636 52.6181 50.0636 52.7066 50.0636C53.68 50.0636 54.5649 50.3251 54.4764 50.6737V50.7608C54.2994 51.0223 53.5915 51.1966 52.6181 51.1966C52.4411 51.1966 52.1757 51.1966 51.9987 51.1095C51.9102 51.1095 51.8217 51.1095 51.8217 51.1095L51.7332 51.1966C51.6447 51.2838 51.5562 51.3709 51.4677 51.4581C51.5562 51.5452 51.5562 51.5452 51.6447 51.5452C51.7332 51.7195 51.9102 51.8067 51.9987 51.981C52.3526 52.4168 52.6181 52.9397 52.7066 53.4626C52.8836 53.4626 52.9721 53.4626 53.1491 53.4626C53.2376 53.4626 53.326 53.4626 53.4145 53.4626C53.68 53.4626 53.9455 53.4626 54.2994 53.3755C55.5383 53.2011 56.6002 52.6782 57.3966 51.981C57.6621 51.8067 57.8391 51.5452 58.016 51.2838C58.2815 50.7608 58.4585 50.1508 58.37 49.6278Z" fill="#787878"/>
<path d="M65.1838 48.582C64.9183 47.8847 64.2104 47.3618 63.3255 47.1003C62.4406 48.059 61.0247 48.8434 59.3434 49.2792C59.2549 49.2792 59.1664 49.2792 59.1664 49.2792C59.1664 49.3663 59.2549 49.3663 59.2549 49.4535C59.3434 49.8021 59.3434 50.0636 59.2549 50.325C59.3434 50.325 59.5204 50.2379 59.6089 50.2379C60.5823 50.0636 61.3787 50.1507 61.4672 50.4122C61.5557 50.6737 60.8477 51.0223 59.8743 51.1966C59.5204 51.2837 59.1664 51.2837 58.901 51.2837C58.8125 51.3709 58.8125 51.458 58.724 51.5452C59.3434 51.8938 59.8743 52.3296 60.2283 52.8525C60.7593 52.8525 61.3787 52.7653 61.9096 52.591C64.2989 51.8938 65.8032 50.0636 65.1838 48.582Z" fill="#787878"/>
<path d="M56.6887 44.66C56.6887 44.5729 56.6887 44.5729 56.6887 44.66C56.6002 44.4857 56.5117 44.3114 56.4232 44.1371C56.4232 44.1371 56.4232 44.1371 56.4232 44.05C56.3347 43.8757 56.1577 43.7885 56.0693 43.6142L55.9808 43.527C55.8038 43.4399 55.6268 43.2656 55.4498 43.1784C55.4498 43.1784 55.3613 43.1784 55.3613 43.0913C55.1844 43.0041 54.9189 42.8298 54.7419 42.7426H54.6534C54.3879 42.6555 54.211 42.5683 53.9455 42.4812H53.857C53.5915 42.394 53.326 42.394 53.0606 42.3069H52.9721C52.7066 42.3069 52.3527 42.2197 52.0872 42.2197C51.9102 42.2197 51.8217 42.2197 51.7332 42.2197C50.9368 42.2197 50.1404 42.3069 49.4325 42.4812C49.9634 43.1784 50.1404 44.05 50.0519 44.8343C50.3174 44.8343 50.6713 44.8343 51.0253 44.8343C51.9987 44.9215 52.7066 45.2701 52.7066 45.5316C52.7066 45.793 51.9102 45.9673 50.9368 45.8802C50.4944 45.793 50.1404 45.793 49.8749 45.6187V45.7059C50.5828 46.0545 51.2023 46.4031 51.7332 46.926C51.9102 47.1003 52.0872 47.3618 52.2642 47.6233C52.3527 47.7104 52.4411 47.8847 52.4411 47.9719C53.0606 47.8847 53.68 47.7976 54.211 47.6233C54.3879 47.5361 54.5649 47.5361 54.7419 47.449C54.9189 47.3618 55.0959 47.2747 55.2728 47.1875H55.3613H55.0074C55.3613 47.0132 55.7153 46.8389 55.9808 46.5774C56.0693 46.4903 56.1577 46.4031 56.2462 46.316C56.3347 46.2288 56.3347 46.1417 56.4232 46.0545C56.5117 45.8802 56.6887 45.6187 56.6887 45.4444C56.6887 45.3573 56.7772 45.183 56.7772 45.0087C56.7772 45.0087 56.7772 44.8343 56.6887 44.66Z" fill="#787878"/>
<path d="M63.414 44.3114C63.3255 44.1371 63.237 43.9628 63.1485 43.7885C63.1485 43.7013 63.06 43.7013 63.06 43.6142C62.9715 43.527 62.883 43.3527 62.706 43.2656C62.6175 43.2656 62.6175 43.1784 62.5291 43.1784C62.3521 43.0913 62.1751 42.917 61.9981 42.8298H61.9096C61.7326 42.7426 61.5557 42.6555 61.2902 42.5683C61.2017 42.5683 61.1132 42.5683 61.1132 42.4812C60.9362 42.394 60.6708 42.394 60.4938 42.3069C60.4053 42.3069 60.4053 42.3069 60.3168 42.3069C60.0513 42.2197 59.7858 42.2197 59.5204 42.2197C59.2549 42.2197 59.0779 42.2197 58.8125 42.2197C58.724 42.2197 58.6355 42.2197 58.4585 42.2197C58.1045 42.2197 57.7506 42.3069 57.3966 42.394C57.0426 42.4812 56.6002 42.5683 56.3347 42.7426C57.2196 43.3527 57.6621 44.2243 57.6621 45.0958V45.183C57.7506 45.183 57.8391 45.183 57.9275 45.0958C58.9009 44.9215 59.6974 45.0958 59.7858 45.3573C59.8743 45.6187 59.0779 46.0545 58.1045 46.1417C57.8391 46.1417 57.5736 46.2288 57.3081 46.2288C57.2196 46.4031 57.0426 46.6646 56.8657 46.8389C57.6621 47.1875 58.2815 47.7104 58.724 48.3205C58.8125 48.3205 58.9894 48.3205 59.0779 48.2333C61.9981 47.7976 63.8564 45.9673 63.414 44.3114Z" fill="#787878"/>
<path d="M46.6007 47.0132C46.4238 47.1003 46.2468 47.1003 46.0698 47.1875C46.2468 47.1003 46.4238 47.0132 46.6007 47.0132Z" fill="#787878"/>
<path d="M47.3972 46.6646C47.2202 46.7517 47.0432 46.8389 46.9547 46.8389C47.0432 46.8389 47.2202 46.7517 47.3972 46.6646Z" fill="#787878"/>
<path d="M48.0166 46.2288C47.9281 46.3159 47.7511 46.4031 47.6627 46.4902C47.7511 46.4031 47.8396 46.3159 48.0166 46.2288Z" fill="#787878"/>
<path d="M46.5123 50.2379C46.5123 50.8479 46.2468 51.458 45.9813 51.9809C46.0698 51.9809 46.2468 52.0681 46.3353 52.0681C46.6008 52.0681 46.9547 52.1553 47.2202 52.1553C47.3972 52.1553 47.4857 52.1553 47.5742 52.1553C47.7511 52.1553 47.9281 52.1553 48.1051 52.1553C48.1936 52.1553 48.3706 52.1553 48.4591 52.0681C48.636 52.0681 48.813 52.0681 48.9015 51.9809C48.99 51.9809 49.167 51.8938 49.2555 51.8938C49.344 51.8066 49.5209 51.8066 49.6979 51.7195C49.7864 51.7195 49.8749 51.6323 50.0519 51.6323C50.1404 51.6323 50.1404 51.5452 50.2289 51.5452C50.3174 51.5452 50.3174 51.458 50.4059 51.458C50.4943 51.3709 50.5828 51.3709 50.6713 51.2837C50.7598 51.1966 50.8483 51.1094 50.9368 51.0223C51.0253 50.9351 51.0253 50.9351 51.1138 50.8479C51.2023 50.7608 51.2908 50.6736 51.3792 50.4993C51.3792 50.4122 51.4677 50.4122 51.4677 50.325C51.5562 50.1507 51.6447 49.9764 51.6447 49.8021C51.8217 48.5819 50.7598 47.2746 49.0785 46.6646C48.3706 47.4489 47.3972 47.8847 46.0698 48.1462C46.2468 48.4076 46.3353 48.6691 46.3353 48.9306C46.6008 48.9306 46.9547 48.9306 47.3087 49.0177C48.2821 49.192 48.99 49.6278 48.9015 49.9764C48.813 50.325 47.9281 50.325 46.9547 50.1507C46.7777 50.1507 46.6008 50.0636 46.5123 49.9764C46.5123 50.0636 46.5123 50.0636 46.5123 50.1507C46.5123 50.1507 46.5123 50.1507 46.5123 50.2379Z" fill="#787878"/>
<path d="M44.5655 46.2288C44.9194 46.4903 45.2734 46.8389 45.5389 47.1875C45.6274 47.1875 45.7158 47.1875 45.8043 47.1875C45.8928 47.1875 45.9813 47.1875 46.0698 47.1004C46.2468 47.1004 46.4238 47.0132 46.6008 46.9261C46.6892 46.9261 46.7777 46.8389 46.8662 46.8389C47.0432 46.7518 47.2202 46.6646 47.3087 46.6646C47.3972 46.5775 47.4857 46.5775 47.5741 46.4903C47.6626 46.4032 47.8396 46.316 47.9281 46.2288C47.9281 46.2288 47.9281 46.2288 48.0166 46.1417L48.1051 46.0545C48.1936 45.9674 48.2821 45.7931 48.3706 45.7059C48.3706 45.6188 48.4591 45.6188 48.4591 45.5316C48.4591 45.5316 48.4591 45.5316 48.4591 45.4445C48.5475 45.2702 48.636 45.0958 48.7245 44.9215C49.167 43.1785 47.3087 41.1739 44.477 40.5638C44.123 40.4767 43.7691 40.3895 43.4151 40.3895C43.0611 40.3895 42.7957 40.3895 42.4417 40.3895C42.3532 40.3895 42.3532 40.3895 42.2647 40.3895C42.0877 40.3895 41.9992 40.3895 41.8223 40.4767C42.4417 41.2611 42.7957 42.2198 42.8842 43.1785C43.2381 43.1785 43.6806 43.2656 44.0345 43.3528C45.1849 43.6142 46.0698 44.05 45.9813 44.3986C45.8928 44.7472 44.9194 44.8344 43.6806 44.5729C43.3266 44.4858 43.0611 44.3986 42.7957 44.3115C42.7957 44.5729 42.7072 44.9215 42.6187 45.183C42.9726 45.2702 43.3266 45.4445 43.5921 45.6188C44.0345 45.7931 44.3 45.9674 44.5655 46.2288Z" fill="#787878"/>
</svg>
