<svg width="60" height="60" viewBox="0 0 60 60" fill="none" xmlns="http://www.w3.org/2000/svg">
<g clip-path="url(#clip0)">
<path d="M53.2498 18.1244C47.831 15.5751 39.13 13.9585 29.3452 13.9585C19.5604 13.9585 10.8594 15.6062 5.44061 18.1244V30.3731C10.8594 32.8912 19.5294 34.5389 29.3452 34.5389C39.13 34.5389 47.831 32.8912 53.2498 30.3731V18.1244Z" fill="#010101"/>
<path d="M29.3452 33.4508C20.5822 33.4508 12.067 32.0518 6.61726 29.6891L6.52437 29.658V18.8394L6.61726 18.8083C12.067 16.4456 20.5822 15.0466 29.3452 15.0466C38.1081 15.0466 46.6234 16.4456 52.0731 18.8083L52.166 18.8394V29.658L52.0731 29.6891C46.6234 32.0518 38.1081 33.4508 29.3452 33.4508ZM6.80305 29.4404C12.2528 31.772 20.6751 33.1399 29.3452 33.1399C38.0152 33.1399 46.4376 31.772 51.8563 29.4404V19.0259C46.4376 16.7254 38.0152 15.3575 29.3452 15.3575C20.6751 15.3575 12.2528 16.7254 6.83401 19.057V29.4404H6.80305Z" fill="white"/>
<path fill-rule="evenodd" clip-rule="evenodd" d="M38.2939 29.0052L37.8294 26.829C38.5107 27.6062 40.6472 28.2902 41.4213 27.8238C43.8985 26.3005 39.4086 25.8031 40.6472 22.8808C40.7711 22.601 40.9259 22.3834 41.1426 22.1347C41.3594 21.9171 41.6071 21.6995 41.9168 21.544C42.2264 21.3886 42.567 21.2642 42.9386 21.171C43.3102 21.0777 43.7127 21.0466 44.1772 21.0466C44.5797 21.0466 45.0132 21.1088 45.4777 21.2332C45.5396 21.2332 45.5706 21.2642 45.6325 21.2642L45.0751 22.601C44.8893 22.4145 44.6726 22.2591 44.3939 22.1969C44.1462 22.1036 43.8366 22.0725 43.4959 22.0725C43.3102 22.0725 43.1863 22.1036 43.0624 22.1658C41.3594 22.943 44.2391 24.6839 44.4249 25.4611C44.5487 26.114 44.332 27.1088 43.0315 28.0415C41.6381 29.0674 39.8112 29.2228 38.2939 29.0052ZM37.6437 29.0363L37.4888 28.1969L37.4579 28.0415H17.3619L17.3 28.1658L17.0213 28.8497L16.9594 29.0052L37.6437 29.0363ZM13.3056 29.8446C13.2746 29.8446 13.2127 29.8446 13.1817 29.8446C13.1508 29.8446 13.1198 29.8446 13.0888 29.8446C13.1198 29.8135 13.1508 29.8135 13.1817 29.7824C13.2127 29.7513 13.2437 29.7513 13.2746 29.7202C13.5223 29.5648 13.7391 29.3782 13.9249 29.2228C14.1107 29.0363 14.2655 28.8497 14.4203 28.6632C14.5751 28.4456 14.699 28.228 14.7919 27.9482L14.8848 27.7617V27.7306L17.0833 22.4145C17.1452 22.228 17.2071 22.1036 17.2381 21.9793C17.269 21.8549 17.3 21.7306 17.269 21.6373C17.269 21.544 17.2381 21.4197 17.1761 21.2642C17.1761 21.2332 17.1452 21.2021 17.1452 21.171H20.1797C20.1487 21.2021 20.1487 21.2021 20.1178 21.2332C20.0868 21.2332 20.0868 21.2642 20.0558 21.2953C19.8391 21.4508 19.6843 21.6062 19.5604 21.7617C19.4366 21.9171 19.3127 22.0725 19.2198 22.2902C19.1888 22.3212 19.1579 22.3834 19.1269 22.4767L16.9284 27.8238V27.8549L16.8355 28.1036C16.6807 28.4456 16.464 28.7254 16.1853 28.9741C15.9066 29.2228 15.535 29.4093 15.0706 29.5337C14.6061 29.6891 14.0178 29.7824 13.3056 29.8446ZM19.5604 27.4508C19.5604 27.4508 19.5604 27.4197 19.5294 27.4197C19.5294 27.4197 19.5294 27.3886 19.4985 27.3886C19.4366 27.171 19.4366 26.9534 19.5294 26.7668C19.5914 26.6425 19.6533 26.5181 19.7462 26.3938C19.7772 26.3627 19.8081 26.3005 19.8701 26.2073L19.9939 26.0207H21.9756L21.9447 26.2073L21.9137 26.5492V26.5803C21.8518 26.7358 21.7589 26.8912 21.666 27.0155C21.5731 27.1399 21.4492 27.2642 21.3254 27.3575C21.2944 27.3575 21.2635 27.3886 21.2015 27.4508H24.5767C24.5767 27.4508 24.5457 27.4197 24.5147 27.3575C24.3909 27.171 24.3289 26.9845 24.298 26.829C24.267 26.6736 24.236 26.456 24.267 26.2073L24.4528 21.171H22.1924V21.2021V21.2332V21.2642C22.1924 21.4508 22.1614 21.6062 22.0995 21.7306C22.0376 21.9171 21.8827 22.1347 21.635 22.4145L18.4457 26.2073C18.0122 26.7358 17.7335 27.0155 17.5787 27.4819L19.5604 27.4508ZM20.9538 24.8394L22.2853 23.1295L22.1305 24.8394H20.9538ZM32.0081 21.1399L32.2558 21.171L31.6985 22.4767C31.5746 22.3834 31.5127 22.3212 31.4817 22.2902C31.4508 22.2591 31.3888 22.2591 31.3579 22.228C31.3269 22.1969 31.265 22.1969 31.234 22.1658C30.8934 21.9793 30.5218 21.886 30.1503 21.886C29.7787 21.886 29.4381 21.9793 29.0665 22.1347C28.6949 22.2902 28.3853 22.5389 28.0756 22.8497C27.766 23.1606 27.5183 23.5337 27.3015 23.9378C27.2706 24 27.2706 24.0311 27.2396 24.0311C27.2396 24.0622 27.2086 24.0933 27.2086 24.1244C27.0228 24.5907 26.93 24.9948 26.9919 25.3679C27.0538 25.7409 27.2086 25.9896 27.5183 26.2073C27.8279 26.3938 28.2305 26.487 28.7259 26.487C29.531 26.487 29.9025 26.3938 30.6147 25.9275L29.5619 27.4197C29.0665 27.513 28.602 27.5751 28.1376 27.6062C28.0447 27.6062 27.8899 27.6062 27.6731 27.6062C25.9391 27.6062 24.9792 27.0155 24.8244 25.8653C24.7934 25.6166 24.7934 25.3679 24.8244 25.1192C24.8553 24.8394 24.9482 24.5596 25.0721 24.2798C25.134 24.1244 25.1959 23.9689 25.2888 23.8446C25.5366 23.4093 25.8462 23.0052 26.1868 22.6321C26.5274 22.2902 26.93 21.9793 27.3635 21.7306C27.797 21.4819 28.2614 21.2953 28.7569 21.171C29.2523 21.0466 29.8097 20.9845 30.367 20.9845C30.5838 20.9845 30.8315 20.9845 31.1411 21.0155C31.234 21.0155 31.3888 21.0466 31.6675 21.0777L32.0081 21.1399ZM33.3396 27.4508C33.3396 27.4197 33.3086 27.4197 33.3086 27.3886L33.2777 27.3575C33.2157 27.2021 33.1848 27.0466 33.1848 26.8912C33.1848 26.7358 33.2157 26.5803 33.2777 26.3938C33.2777 26.3627 33.3086 26.3005 33.3396 26.2073L34.9498 22.4145C35.0117 22.228 35.1046 22.0725 35.1665 21.9793C35.2284 21.8549 35.3213 21.7306 35.4452 21.6373C35.5381 21.513 35.6929 21.4197 35.8477 21.2642C35.9097 21.2332 35.9406 21.2021 35.9716 21.171H32.999C32.999 21.2021 33.03 21.2642 33.03 21.2642C33.0919 21.4508 33.1228 21.6373 33.0919 21.7927C33.0609 21.9482 32.999 22.1658 32.9061 22.4145L31.2959 26.2073C31.265 26.3005 31.234 26.3627 31.2031 26.3938C31.1102 26.5803 30.9863 26.7668 30.8624 26.8912C30.7386 27.0466 30.5528 27.2021 30.336 27.3575C30.3051 27.3886 30.2741 27.3886 30.2741 27.4197C30.2432 27.4508 30.2432 27.4508 30.2122 27.4819H33.3396V27.4508ZM34.4853 25.2124C34.5472 25.7098 34.6091 26.114 34.6711 26.3938C34.733 26.7047 34.7949 26.9223 34.8878 27.0777C34.9807 27.2332 35.0736 27.3264 35.1665 27.3575C35.2904 27.3886 35.4452 27.4197 35.631 27.4197H36.1264H37.2721C36.8076 26.3316 36.5599 25.3057 36.4051 24.1244L36.3432 23.7202L39.8421 21.1088H37.1792C37.1792 21.1399 37.2102 21.171 37.2102 21.2021C37.2102 21.3264 37.1792 21.4197 37.1482 21.544C37.0863 21.6684 37.0244 21.7927 36.9005 21.9171C36.7767 22.0415 36.6218 22.1969 36.3741 22.3523L34.3924 23.9067C34.3924 24.4041 34.4234 24.8394 34.4853 25.2124ZM40.1208 23.0984L41.2975 21.1399H40.1518L39.1609 23.0984H40.1208Z" fill="white"/>
<path d="M22.5949 17.9378H22.6569L22.533 18.3731C22.502 18.342 22.4711 18.3109 22.4401 18.3109C22.4401 18.3109 22.4091 18.3109 22.4091 18.2798C22.4091 18.2798 22.3782 18.2798 22.3782 18.2487C22.2543 18.1865 22.1305 18.1554 22.0066 18.1554C21.8827 18.1554 21.7898 18.1865 21.666 18.2487C21.5421 18.3109 21.4492 18.3731 21.3873 18.4974C21.2944 18.5907 21.2325 18.715 21.2015 18.8705V18.9016V18.9326C21.1706 19.0881 21.1396 19.2435 21.2015 19.3368C21.2634 19.4301 21.2944 19.5544 21.4183 19.6166C21.5112 19.6788 21.666 19.7098 21.8208 19.7098C21.9137 19.7098 22.0066 19.7098 22.1305 19.6788C22.2853 19.6477 22.4401 19.5855 22.564 19.4922L22.0995 20.0829C21.9447 20.114 21.7898 20.1451 21.635 20.1451C21.6041 20.1451 21.5421 20.1451 21.4802 20.1451C20.9228 20.1451 20.5822 19.9585 20.4893 19.5544C20.4584 19.4611 20.4584 19.399 20.4584 19.3057C20.4584 19.2124 20.4584 19.1192 20.4893 19.0259C20.4893 18.9637 20.5203 18.9326 20.5513 18.8705C20.6132 18.715 20.7061 18.5907 20.799 18.4663C20.8919 18.342 21.0157 18.2487 21.1396 18.1554C21.2635 18.0622 21.4183 18 21.5731 17.9689C21.7279 17.9378 21.9137 17.9067 22.0995 17.9067C22.1614 17.9067 22.2543 17.9067 22.3472 17.9067C22.3782 17.9067 22.4401 17.9067 22.533 17.9378H22.5949Z" fill="#F2F2F3"/>
<path d="M24.2051 20.114C24.1432 20.114 24.0812 20.114 24.0193 20.114C23.7716 20.114 23.5858 20.0518 23.431 19.9585C23.2762 19.8653 23.1523 19.7409 23.1213 19.5544C23.0594 19.399 23.0594 19.2124 23.1213 18.9948C23.1213 18.9637 23.1523 18.9326 23.1523 18.9016C23.1833 18.8394 23.2142 18.7461 23.2452 18.6839C23.2762 18.6218 23.3381 18.5596 23.3691 18.4974C23.431 18.4352 23.4619 18.3731 23.5239 18.3109C23.5858 18.2487 23.6477 18.1865 23.7097 18.1554C23.8335 18.0622 23.9264 18 24.0193 17.9689C24.1122 17.9378 24.2361 17.9067 24.3599 17.8756C24.4528 17.8446 24.5767 17.8446 24.6696 17.8446C24.8553 17.8446 25.0102 17.8756 25.134 17.9378C25.2579 18 25.3817 18.0622 25.4437 18.1554C25.5366 18.2487 25.5675 18.3731 25.5985 18.4974C25.6295 18.6218 25.5985 18.7772 25.5675 18.9326C25.5366 18.9948 25.5366 19.057 25.5056 19.1503C25.4437 19.3057 25.3508 19.4301 25.2579 19.5544C25.134 19.7098 24.9792 19.8342 24.7934 19.9275C24.6076 20.0207 24.4218 20.0829 24.2051 20.114ZM23.8026 18.9637C23.8026 19.057 23.7716 19.1192 23.7716 19.1813C23.7716 19.2435 23.7716 19.3057 23.8026 19.3368C23.8335 19.4922 23.8954 19.5855 23.9574 19.6477C24.0193 19.7098 24.1122 19.7409 24.2361 19.7409C24.329 19.7409 24.4218 19.7098 24.5147 19.6788C24.6076 19.6477 24.6696 19.5544 24.7315 19.4611C24.7934 19.3679 24.8553 19.2435 24.8863 19.0881C24.9482 18.9016 24.9482 18.7461 24.9173 18.6218C24.8553 18.342 24.7315 18.1865 24.4528 18.1865C24.298 18.1865 24.1741 18.2487 24.0812 18.3731C23.9574 18.4663 23.8954 18.6218 23.8335 18.8083C23.8335 18.8394 23.8026 18.9016 23.8026 18.9637Z" fill="#F2F2F3"/>
<path d="M26.3416 17.9067C26.3107 17.8756 26.3107 17.8756 26.3107 17.8756H27.2086L27.2396 19.1503L27.735 18.3109C27.766 18.2487 27.797 18.1865 27.8279 18.1554C27.8279 18.1244 27.8279 18.0933 27.8279 18.0311C27.8279 18 27.797 17.9689 27.797 17.9067C27.797 17.9067 27.797 17.8756 27.766 17.8756H28.5711L28.602 19.1503L29.0975 18.2798C29.1284 18.2176 29.1594 18.1554 29.1594 18.1244C29.1904 18.0622 29.1594 17.9689 29.1284 17.9067C29.1284 17.9067 29.1284 17.9067 29.1284 17.8756C29.1284 17.8756 29.1284 17.8756 29.1284 17.8446H29.8406L28.4782 20.0829H28.4472H28.4163C28.4163 20.0829 28.3853 20.0829 28.3234 20.0518C28.1995 20.0207 28.1066 19.9585 28.0756 19.8964C28.0137 19.8342 27.9828 19.772 27.9828 19.6788V19.5233L27.9208 18.7772L27.1157 20.0829H27.0848H27.0538C26.93 20.0829 26.868 20.0829 26.8371 20.0518C26.7751 20.0207 26.7442 20.0207 26.7132 19.9585C26.6822 19.9275 26.6513 19.8964 26.6513 19.8653C26.6203 19.8342 26.6203 19.772 26.6203 19.7098C26.6203 19.6788 26.6203 19.6788 26.6203 19.6477L26.5274 18.3109C26.5274 18.2176 26.4965 18.1554 26.4965 18.0933C26.4345 18.0311 26.4036 17.9689 26.3416 17.9067Z" fill="#F2F2F3"/>
<path d="M30.8624 20.114H29.6239C29.6239 20.114 29.6548 20.114 29.6548 20.0829C29.6548 20.0829 29.6548 20.0829 29.6858 20.0518C29.7787 19.9896 29.8406 19.9275 29.8716 19.8653C29.9025 19.8031 29.9335 19.7409 29.9645 19.6477L30.336 18.3109C30.336 18.2798 30.336 18.2487 30.336 18.2487C30.336 18.1865 30.367 18.1244 30.367 18.0622C30.367 18 30.336 17.9689 30.336 17.8756V17.8446H31.6056H31.6675H31.7914C31.9152 17.8446 32.0081 17.8756 32.0701 17.9067C32.132 17.9378 32.1939 18 32.2249 18.0933C32.2558 18.1554 32.2558 18.2487 32.2249 18.342C32.2249 18.4041 32.1939 18.4352 32.1629 18.4974C32.101 18.5907 32.0391 18.6839 31.9462 18.7461C31.8533 18.8083 31.6985 18.8705 31.5437 18.9016C31.5127 18.9016 31.4817 18.9016 31.4508 18.9016C31.5127 18.9016 31.5437 18.9016 31.5437 18.9016C31.6675 18.9326 31.7604 18.9637 31.8223 18.9948C31.8843 19.057 31.9462 19.0881 31.9772 19.1813C32.0081 19.2435 32.0081 19.3368 31.9772 19.4301C31.9772 19.4611 31.9462 19.5233 31.9462 19.5544C31.8843 19.7098 31.7604 19.8342 31.6056 19.8964C31.4508 19.9896 31.265 20.0518 31.0173 20.0829C30.8934 20.114 30.8624 20.114 30.8624 20.114ZM30.6147 19.7098H30.6767C30.7386 19.7098 30.8005 19.7098 30.8315 19.7098C30.8934 19.7098 30.9553 19.6788 30.9863 19.6477C31.0173 19.6166 31.0792 19.5855 31.1102 19.5544C31.1411 19.5233 31.1721 19.4611 31.1721 19.399C31.203 19.2746 31.203 19.2124 31.1411 19.1503C31.0792 19.0881 30.9863 19.0881 30.8624 19.0881H30.8315C30.8315 19.0881 30.8315 19.0881 30.8005 19.0881H30.7695H30.7386L30.6147 19.7098ZM30.8934 18.7461C30.9244 18.7461 30.9863 18.7461 31.0173 18.7461C31.1411 18.7461 31.265 18.715 31.3269 18.6839C31.3888 18.6528 31.4508 18.5907 31.4817 18.4974V18.4663C31.4817 18.4041 31.4817 18.342 31.4508 18.3109C31.4198 18.2798 31.3579 18.2487 31.265 18.2487C31.203 18.2487 31.1411 18.2487 31.0792 18.2487H31.0482H31.0173L30.8934 18.7461Z" fill="#F2F2F3"/>
<path d="M33.6802 20.114C33.6183 20.114 33.5563 20.114 33.4944 20.114C33.2467 20.114 33.0609 20.0518 32.9061 19.9585C32.7513 19.8653 32.6584 19.7409 32.5964 19.5544C32.5345 19.399 32.5345 19.2124 32.5964 18.9948C32.5964 18.9637 32.6274 18.9326 32.6274 18.9016C32.6584 18.8394 32.6893 18.7461 32.7203 18.6839C32.7513 18.6218 32.8132 18.5596 32.8442 18.4974C32.9061 18.4352 32.9371 18.3731 32.999 18.3109C33.0609 18.2487 33.1228 18.1865 33.1848 18.1554C33.2777 18.0622 33.4015 18 33.4944 17.9689C33.5873 17.9378 33.7112 17.9067 33.835 17.8756C33.9279 17.8446 34.0518 17.8446 34.1447 17.8446C34.3305 17.8446 34.4853 17.8756 34.6091 17.9378C34.733 18 34.8569 18.0622 34.9188 18.1554C35.0117 18.2487 35.0426 18.3731 35.0736 18.4974C35.1046 18.6218 35.0736 18.7772 35.0426 18.9326C35.0117 18.9948 35.0117 19.057 34.9807 19.1503C34.9188 19.3057 34.8259 19.4301 34.733 19.5544C34.6091 19.7098 34.4543 19.8342 34.2685 19.9275C34.0518 20.0207 33.866 20.0829 33.6802 20.114ZM33.2467 18.9637C33.2467 19.057 33.2157 19.1192 33.2157 19.1813C33.2157 19.2435 33.2157 19.3057 33.2467 19.3368C33.2777 19.4922 33.3396 19.5855 33.4015 19.6477C33.4635 19.7098 33.5563 19.7409 33.6802 19.7409C33.7731 19.7409 33.866 19.7098 33.9589 19.6788C34.0518 19.6477 34.1137 19.5544 34.1756 19.4611C34.2376 19.3679 34.2995 19.2435 34.3305 19.0881C34.3924 18.9016 34.3924 18.7461 34.3614 18.6218C34.2995 18.342 34.1756 18.1865 33.897 18.1865C33.7421 18.1865 33.6183 18.2487 33.5254 18.3731C33.4015 18.4663 33.3396 18.6218 33.2777 18.8083C33.2777 18.8394 33.2467 18.9016 33.2467 18.9637Z" fill="#F2F2F3"/>
<path d="M35.6929 17.9378L35.6619 17.9067H36.6528L36.8076 18.7772L37.1173 18.342C37.2102 18.2487 37.2411 18.1554 37.2721 18.0933C37.2721 18.0622 37.2721 18 37.2721 17.9378V17.9067H38.0462L36.8696 19.3057L36.7767 19.7098C36.7767 19.772 36.7457 19.8031 36.7457 19.8342C36.7457 19.8653 36.7457 19.8964 36.7457 19.9275C36.7457 19.9585 36.7457 19.9896 36.7767 20.0207C36.7767 20.0518 36.8076 20.0829 36.8386 20.114L36.8696 20.1451H35.7548C35.7548 20.1451 35.7548 20.1451 35.7858 20.114C35.7858 20.114 35.7858 20.114 35.8168 20.0829C35.9097 20.0207 35.9716 19.9585 36.0026 19.8964C36.0335 19.8342 36.0645 19.772 36.0954 19.6788L36.1883 19.2746L35.9406 18.3109C35.9097 18.1554 35.8477 18.0311 35.7548 17.9378H35.6929Z" fill="#F2F2F3"/>
<path d="M5.87412 38.7047H4.07818L3.7995 39.7306C3.83046 39.7306 3.89239 39.7306 3.92336 39.7306C3.95432 39.7306 3.98529 39.7306 4.04721 39.7306C4.60457 39.7306 5.06904 39.9482 5.44062 40.3523C5.81219 40.7565 5.99798 41.285 5.99798 41.9067C5.99798 42.5596 5.78122 43.1192 5.37869 43.5233C4.97615 43.9585 4.44975 44.1762 3.7995 44.1762C3.02539 44.1762 2.4061 43.8031 1.9726 43.0259L2.65381 42.4352C2.8396 42.7772 3.02539 42.9948 3.21117 43.1503C3.39696 43.2746 3.61371 43.3368 3.89239 43.3368C4.233 43.3368 4.54265 43.2124 4.79036 42.9326C5.03808 42.6528 5.16194 42.342 5.16194 41.9378C5.16194 41.5337 5.03808 41.2228 4.79036 40.9741C4.54265 40.7254 4.26397 40.5699 3.89239 40.5699C3.48985 40.5699 3.14924 40.7565 2.87056 41.1295H2.59188L3.52082 37.8653H5.93605V38.7047H5.87412Z" fill="#010101"/>
<path d="M7.14365 40.943C7.14365 39.9793 7.3604 39.2021 7.7939 38.6114C8.16547 38.0829 8.62994 37.8342 9.1873 37.8342C9.74466 37.8342 10.2091 38.0829 10.5807 38.6114C11.0142 39.2021 11.231 39.9793 11.231 40.9741C11.231 41.9689 11.0142 42.7772 10.5807 43.3368C10.2091 43.8653 9.74466 44.114 9.1873 44.114C8.62994 44.114 8.16547 43.8653 7.7939 43.3368C7.3604 42.7772 7.14365 41.9689 7.14365 40.943ZM7.97969 40.943C7.97969 41.6269 8.10355 42.1865 8.3203 42.6218C8.53705 43.057 8.81573 43.2746 9.15634 43.2746C9.49695 43.2746 9.77563 43.057 9.99238 42.6218C10.2091 42.1865 10.333 41.6269 10.333 40.9741C10.333 40.3212 10.2091 39.7617 9.99238 39.2953C9.77563 38.8601 9.49695 38.6425 9.15634 38.6425C8.81573 38.6425 8.53705 38.8601 8.3203 39.2953C8.10355 39.7617 7.97969 40.2902 7.97969 40.943Z" fill="#010101"/>
<path d="M12.1599 40.943C12.1599 39.9793 12.3767 39.2021 12.8102 38.6114C13.1817 38.0829 13.6462 37.8342 14.2036 37.8342C14.7609 37.8342 15.2254 38.0829 15.597 38.6114C16.0305 39.2021 16.2472 39.9793 16.2472 40.9741C16.2472 41.9689 16.0305 42.7772 15.597 43.3368C15.2254 43.8653 14.7609 44.114 14.2036 44.114C13.6462 44.114 13.1817 43.8653 12.8102 43.3368C12.3767 42.7772 12.1599 41.9689 12.1599 40.943ZM13.0269 40.943C13.0269 41.6269 13.1508 42.1865 13.3675 42.6218C13.5843 43.057 13.863 43.2746 14.2036 43.2746C14.5442 43.2746 14.8229 43.057 15.0396 42.6218C15.2564 42.1865 15.3802 41.6269 15.3802 40.9741C15.3802 40.3212 15.2564 39.7617 15.0396 39.2953C14.8229 38.8601 14.5442 38.6425 14.2036 38.6425C13.863 38.6425 13.5843 38.8601 13.3675 39.2953C13.1198 39.7617 13.0269 40.2902 13.0269 40.943Z" fill="#010101"/>
<path d="M22.4401 41.5648V44.114H21.5421V37.8031H22.564C23.0594 37.8031 23.431 37.8342 23.6787 37.9275C23.9264 37.9896 24.1741 38.1451 24.3599 38.3316C24.7005 38.6736 24.8863 39.1399 24.8863 39.6684C24.8863 40.2591 24.7005 40.6943 24.3289 41.0363C23.9574 41.3782 23.4619 41.5337 22.8426 41.5337H22.4401V41.5648ZM22.4401 40.6632H22.7807C23.6168 40.6632 24.0193 40.3212 24.0193 39.6684C24.0193 39.0155 23.5858 38.7047 22.7497 38.7047H22.4401V40.6632Z" fill="#010101"/>
<path d="M27.0228 37.8031H26.1249V44.114H27.0228V37.8031Z" fill="#010101"/>
<path d="M29.7787 43.2435H32.6274V44.114H28.3233L31.234 38.7047H28.7878V37.8031H32.6893L29.7787 43.2435Z" fill="#010101"/>
<path d="M35.0426 43.2435H37.8914V44.114H33.5564L36.467 38.7047H34.0208V37.8031H37.9533L35.0426 43.2435Z" fill="#010101"/>
<path d="M42.5051 38.7047H40.1518V40.228H42.4432V41.1295H40.1518V43.2435H42.5051V44.114H39.2538V37.8031H42.5051V38.7047Z" fill="#010101"/>
<path d="M46.035 41.4404L47.8619 44.1451H46.7782L45.0751 41.5648H44.9203V44.1451H44.0223V37.8031H45.0751C45.8492 37.8031 46.4376 37.9585 46.7782 38.2694C47.1498 38.6114 47.3665 39.0777 47.3665 39.6373C47.3665 40.0725 47.2426 40.4767 46.9949 40.7876C46.7472 41.1295 46.4066 41.3471 46.035 41.4404ZM44.9203 40.7254H45.199C46.035 40.7254 46.4685 40.3834 46.4685 39.6995C46.4685 39.0466 46.066 38.7358 45.23 38.7358H44.9203V40.7254Z" fill="#010101"/>
<path d="M49.9675 37.8031H49.0695V44.114H49.9675V37.8031Z" fill="#010101"/>
<path d="M55.2005 42.5907H52.6614L52.0112 44.114H51.0203L53.9619 37.399L56.8107 44.114H55.8198L55.2005 42.5907ZM54.8289 41.6891L53.9619 39.544L53.033 41.6891H54.8289Z" fill="#010101"/>
<path d="M17.6096 39.3575C17.9688 39.3575 18.2599 39.0513 18.2599 38.6736C18.2599 38.2959 17.9688 37.9896 17.6096 37.9896C17.2505 37.9896 16.9594 38.2959 16.9594 38.6736C16.9594 39.0513 17.2505 39.3575 17.6096 39.3575Z" stroke="#010101" stroke-width="1.277" stroke-miterlimit="10"/>
</g>
<defs>
<clipPath id="clip0">
<rect width="60" height="60" fill="white"/>
</clipPath>
</defs>
</svg>
