<svg width="60" height="60" viewBox="0 0 60 60" fill="none" xmlns="http://www.w3.org/2000/svg">
<path d="M56.0343 16.935C50.1366 14.1885 40.6665 12.4375 29.9832 12.5062C19.3335 12.6092 9.89715 14.4631 3.99942 17.3126L4.10052 30.8393C9.99826 33.5858 19.502 35.3367 30.1517 35.2681C40.8013 35.1994 50.2714 33.3112 56.1354 30.4616L56.0343 16.935Z" fill="#010101"/>
<path d="M30.1517 34.0665C20.6142 34.1351 11.3463 32.6245 5.38118 30.084L5.28007 30.0497L5.17897 18.1023L5.28007 18.0679C11.2115 15.4244 20.4457 13.8108 29.9832 13.7421C39.5206 13.6735 48.7885 15.1497 54.7536 17.7246L54.8547 17.7589L54.9558 29.7064L54.8547 29.7407C48.9233 32.3499 39.6891 33.9978 30.1517 34.0665ZM5.58339 29.8094C11.5485 32.3156 20.7153 33.7918 30.1517 33.7232C39.588 33.6545 48.7211 32.0752 54.6525 29.466L54.5851 17.9649C48.6537 15.4587 39.4869 14.0168 30.0506 14.0855C20.5468 14.1198 11.4137 15.7334 5.51598 18.3083L5.58339 29.8094Z" fill="white"/>
<path fill-rule="evenodd" clip-rule="evenodd" d="M39.8239 29.0884L39.2847 26.7195C40.0262 27.5778 42.3852 28.3331 43.1941 27.7838C45.8902 26.0672 41.0035 25.5866 42.3178 22.3251C42.4526 22.0161 42.6212 21.7414 42.8571 21.5011C43.093 21.2608 43.3626 21.0204 43.6996 20.8488C44.0366 20.6771 44.4073 20.5055 44.8117 20.4025C45.2162 20.2995 45.6543 20.2308 46.1598 20.2308C46.5979 20.2308 47.0697 20.2995 47.5752 20.4368C47.6427 20.4368 47.6764 20.4711 47.7438 20.4711L47.1371 21.9474C46.9349 21.7414 46.699 21.5698 46.3957 21.5011C46.1261 21.3981 45.7891 21.3638 45.4184 21.3638C45.2162 21.3638 45.0813 21.4324 44.9465 21.4668C43.1267 22.3251 46.2609 24.2476 46.4294 25.1059C46.5979 25.8269 46.3283 26.9255 44.9465 27.9898C43.4637 29.1227 41.4753 29.2944 39.8239 29.0884ZM39.1162 29.0884L38.9477 28.1614L38.914 27.9898L17.0418 28.1614L16.9744 28.3674L16.6711 29.1227L16.6037 29.3287L39.1162 29.0884ZM12.627 30.187C12.5933 30.187 12.5259 30.187 12.4922 30.187C12.4585 30.187 12.4248 30.187 12.3911 30.187C12.4248 30.1527 12.4585 30.1527 12.4922 30.1183C12.5259 30.084 12.5596 30.084 12.5933 30.0497C12.8629 29.878 13.0988 29.672 13.301 29.5004C13.5032 29.2944 13.6717 29.0884 13.8402 28.8824C14.0087 28.6421 14.1098 28.4017 14.2446 28.0928L14.3457 27.8868V27.8524L16.7048 21.9474C16.7722 21.7414 16.8396 21.6041 16.8733 21.4668C16.907 21.3294 16.907 21.1921 16.907 21.0891C16.907 20.9861 16.8733 20.8488 16.8059 20.6771C16.8059 20.6428 16.7722 20.6085 16.7722 20.5741L20.075 20.5398C20.0413 20.5741 20.0413 20.5741 20.0076 20.6085C19.9739 20.6085 19.9739 20.6428 19.9402 20.6771C19.7042 20.8488 19.5357 21.0204 19.4009 21.1921C19.2661 21.3638 19.1313 21.5354 19.0302 21.7757C18.9965 21.8101 18.9628 21.8787 18.9291 21.9817L16.57 27.8868L16.5026 28.0241L16.4015 28.2988C16.233 28.6764 15.9971 29.0197 15.6938 29.26C15.3905 29.5347 14.9861 29.7407 14.4805 29.9123C14.0424 30.0153 13.4021 30.1527 12.627 30.187ZM19.4346 27.5091C19.4346 27.5091 19.4346 27.4748 19.4009 27.4748C19.4009 27.4748 19.4009 27.4405 19.3672 27.4405C19.2998 27.2001 19.2998 26.9598 19.4009 26.7538C19.4346 26.6165 19.5357 26.4792 19.6368 26.3419C19.6705 26.3075 19.7042 26.2389 19.7716 26.1359L19.9065 25.9299H22.0633L22.0296 26.1359L21.9622 26.4792V26.5135C21.8948 26.6852 21.7937 26.8568 21.6926 26.9942C21.5915 27.1315 21.4567 27.2688 21.3219 27.4061C21.2882 27.4061 21.2545 27.4405 21.1871 27.5091L24.8605 27.4748C24.8605 27.4748 24.8268 27.4405 24.7931 27.3718C24.6583 27.1658 24.5909 26.9598 24.5572 26.7882C24.5235 26.6165 24.4898 26.3762 24.5235 26.1015L24.692 20.5398L22.2318 20.5741V20.6085V20.6428V20.6771C22.2318 20.8831 22.1981 21.0548 22.1307 21.1921C22.0633 21.3981 21.8948 21.6384 21.6252 21.9474L18.1877 26.1359C17.7159 26.7195 17.4126 27.0628 17.244 27.5435L19.4346 27.5091ZM20.9175 24.6253L22.3666 22.737L22.1981 24.6253H20.9175ZM32.9152 20.4368L33.1848 20.4711L32.6119 21.9131C32.4771 21.8101 32.4096 21.7414 32.3759 21.7071C32.3422 21.6727 32.2748 21.6727 32.2411 21.6384C32.2074 21.6041 32.14 21.6041 32.1063 21.5698C31.7356 21.3638 31.3312 21.2608 30.9268 21.2951C30.5224 21.2951 30.1517 21.3981 29.7472 21.5698C29.3765 21.7414 29.0058 22.0161 28.6688 22.3594C28.3318 22.7027 28.0622 23.1147 27.86 23.561C27.8263 23.5953 27.8263 23.664 27.7926 23.664C27.7926 23.6983 27.7589 23.7326 27.7589 23.767C27.5567 24.282 27.4556 24.7626 27.523 25.1402C27.5904 25.5179 27.7926 25.8269 28.0959 26.0672C28.4329 26.2732 28.871 26.3762 29.4102 26.3762C30.2865 26.3762 30.6909 26.2389 31.466 25.7582L30.3202 27.4405C29.7809 27.5435 29.2754 27.6465 28.7699 27.6465C28.6688 27.6465 28.5003 27.6465 28.2981 27.6465C26.4108 27.6465 25.3661 27.0285 25.1976 25.7239C25.1639 25.4492 25.1639 25.1746 25.1976 24.8999C25.2313 24.5909 25.3324 24.282 25.4672 23.973C25.5346 23.8013 25.602 23.6297 25.7031 23.4923C25.9727 22.9774 26.3097 22.531 26.6804 22.1534C27.0511 21.7757 27.4893 21.4324 27.9274 21.1578C28.3992 20.8831 28.9047 20.6771 29.4439 20.5055C29.9832 20.3681 30.5898 20.2652 31.1964 20.2652C31.4323 20.2652 31.7019 20.2652 32.0389 20.2995C32.14 20.2995 32.3085 20.3338 32.6119 20.3681L32.9152 20.4368ZM34.398 27.4061C34.398 27.3718 34.3643 27.3718 34.3643 27.3375L34.3306 27.3031C34.2632 27.1315 34.2295 26.9598 34.2295 26.7882C34.2295 26.6165 34.2632 26.4448 34.3306 26.2389C34.3306 26.2045 34.3643 26.1359 34.398 26.0329L36.1168 21.8444C36.1842 21.6384 36.2853 21.4668 36.3527 21.3294C36.4201 21.1921 36.5212 21.0548 36.6223 20.9518C36.7234 20.8145 36.8919 20.6771 37.0604 20.5398C37.1278 20.5055 37.1615 20.4711 37.1952 20.4368L33.9599 20.4711C33.9936 20.5055 33.9936 20.5741 33.9936 20.5741C34.061 20.7801 34.0947 20.9861 34.061 21.1578C34.0273 21.3294 33.9599 21.5698 33.8588 21.8444L32.14 26.0329C32.1063 26.1359 32.0726 26.2045 32.0389 26.2389C31.9378 26.4448 31.803 26.6508 31.6682 26.7882C31.5334 26.9598 31.3312 27.1315 31.0953 27.3031C31.0616 27.3375 31.0279 27.3375 31.0279 27.3718C30.9942 27.4061 30.9942 27.4061 30.9605 27.4405L34.398 27.4061ZM35.645 24.9343C35.7124 25.4836 35.7798 25.9299 35.8472 26.2389C35.9146 26.5822 35.982 26.8225 36.0831 26.9942C36.1842 27.1658 36.2853 27.2688 36.3864 27.3031C36.4875 27.3375 36.6897 27.3718 36.8919 27.3718H37.4311H38.6781C38.1726 26.1702 37.903 25.0372 37.7008 23.7326L37.6334 23.2863L41.4079 20.4025L38.5096 20.4368C38.5096 20.4711 38.5433 20.5055 38.5433 20.5398C38.5433 20.6771 38.5096 20.7801 38.4759 20.9175C38.4085 21.0548 38.3411 21.1921 38.2063 21.3294C38.0715 21.4668 37.903 21.6384 37.6671 21.8101L35.5102 23.5267C35.5439 24.0416 35.5776 24.5223 35.645 24.9343ZM41.7786 22.5654L43.0256 20.4025H41.7786L40.7002 22.5654H41.7786Z" fill="white"/>
<path d="M22.6363 17.0037H22.7037L22.5689 17.4843C22.5352 17.45 22.5015 17.4156 22.4678 17.4156C22.4678 17.4156 22.4341 17.4156 22.4341 17.3813C22.4341 17.3813 22.4004 17.3813 22.4004 17.347C22.2655 17.2783 22.1307 17.244 21.9959 17.244C21.8611 17.244 21.76 17.2783 21.6252 17.347C21.5241 17.4156 21.3893 17.4843 21.3219 17.6216C21.2208 17.7246 21.1534 17.8619 21.1197 18.0336V18.0679V18.1023C21.086 18.2739 21.086 18.4456 21.1197 18.5829C21.1534 18.7202 21.2208 18.8232 21.3556 18.8919C21.4567 18.9606 21.6252 18.9949 21.7937 18.9949C21.8948 18.9949 21.9959 18.9949 22.1307 18.9606C22.2992 18.9262 22.4678 18.8576 22.6026 18.7546L22.1307 19.3725C21.9622 19.4069 21.7937 19.4412 21.6252 19.4412C21.5915 19.4412 21.5241 19.4412 21.4567 19.4412C20.8501 19.4412 20.4794 19.2352 20.3446 18.7889C20.3109 18.6859 20.3109 18.6172 20.3109 18.5142C20.3109 18.4113 20.3109 18.3083 20.3446 18.2053C20.3446 18.1366 20.3783 18.1023 20.412 18.0336C20.4794 17.8619 20.5805 17.7246 20.6816 17.5873C20.7827 17.45 20.9175 17.347 21.0523 17.244C21.1871 17.141 21.3556 17.0723 21.5241 17.038C21.6926 17.0037 21.8948 16.9693 22.097 16.9693C22.1644 16.9693 22.2655 16.9693 22.3667 16.9693C22.4004 16.9693 22.4678 16.9693 22.5689 17.0037H22.6363Z" fill="#F2F2F3"/>
<path d="M24.4224 19.3725C24.355 19.3725 24.2876 19.3725 24.2202 19.3725C23.9506 19.3725 23.7484 19.3382 23.5799 19.2352C23.4114 19.1322 23.2766 18.9949 23.2429 18.7889C23.1755 18.6172 23.1755 18.4112 23.2429 18.1709C23.2429 18.1366 23.2766 18.1023 23.2766 18.0679C23.3103 17.9993 23.344 17.8963 23.3777 17.8276C23.4114 17.7589 23.4788 17.6903 23.5125 17.6216C23.5799 17.553 23.6136 17.4843 23.681 17.4156C23.7484 17.347 23.8158 17.2783 23.8832 17.244C23.9843 17.141 24.1191 17.0723 24.2202 17.038C24.3213 17.0037 24.4561 16.935 24.5909 16.935C24.692 16.9007 24.8268 16.9007 24.9279 16.9007C25.1301 16.9007 25.2987 16.935 25.4335 16.9693C25.5683 17.038 25.7031 17.1066 25.7705 17.2096C25.8716 17.3126 25.9053 17.45 25.939 17.5873C25.9727 17.7246 25.939 17.8963 25.9053 18.0679C25.8716 18.1366 25.8716 18.2396 25.8379 18.3083C25.7705 18.4799 25.6694 18.6172 25.5683 18.7546C25.4335 18.9262 25.265 19.0636 25.0627 19.1665C24.8605 19.2695 24.6583 19.3382 24.4224 19.3725ZM23.9506 18.1023C23.9506 18.2053 23.9169 18.2739 23.9169 18.3426C23.9169 18.4112 23.9169 18.4799 23.9506 18.5142C23.9843 18.6859 24.0517 18.7889 24.1191 18.8576C24.1865 18.9262 24.2876 18.9606 24.4224 18.9606C24.5235 18.9606 24.6246 18.9262 24.7257 18.8919C24.8268 18.8576 24.8942 18.7546 24.9616 18.6516C25.029 18.5486 25.0964 18.4112 25.1301 18.2396C25.1638 18.0336 25.1976 17.8619 25.1638 17.7246C25.0964 17.4156 24.9616 17.244 24.6583 17.244C24.4898 17.244 24.355 17.3126 24.2539 17.45C24.1191 17.553 24.0517 17.7246 23.9843 17.9306C23.9843 17.9649 23.9843 18.0336 23.9506 18.1023Z" fill="#F2F2F3"/>
<path d="M26.7141 16.935C26.6804 16.9007 26.6804 16.9007 26.6804 16.9007H27.6578L27.6915 18.3083L28.197 17.3813C28.2307 17.3126 28.2644 17.244 28.2644 17.2096C28.2644 17.1753 28.2644 17.141 28.2644 17.0723C28.2644 17.038 28.2307 17.0037 28.2307 16.935C28.2307 16.935 28.2307 16.9007 28.197 16.9007H29.0732L29.1069 18.3083L29.6461 17.347C29.6798 17.2783 29.7135 17.2096 29.7135 17.1753C29.7472 17.1066 29.7135 17.0037 29.6798 16.935C29.6798 16.935 29.6798 16.935 29.6798 16.9007C29.6798 16.9007 29.6798 16.9007 29.6798 16.8663H30.455L28.9721 19.3382H28.9384H28.9047C28.9047 19.3382 28.871 19.3382 28.8036 19.3039C28.6688 19.2695 28.5677 19.2009 28.534 19.1665C28.4666 19.0979 28.4329 19.0292 28.3992 18.9262V18.7546V17.8963L27.5567 19.3382H27.523H27.4893C27.3881 19.3039 27.3207 19.3039 27.287 19.2695C27.2196 19.2352 27.1859 19.2352 27.1522 19.2009C27.1185 19.1665 27.0848 19.1322 27.0848 19.0979C27.0511 19.0635 27.0511 18.9949 27.0511 18.9262C27.0511 18.8919 27.0511 18.8919 27.0511 18.8576L26.95 17.3813C26.95 17.2783 26.9163 17.2096 26.9163 17.141C26.8152 17.0723 26.7815 17.0037 26.7141 16.935Z" fill="#F2F2F3"/>
<path d="M31.6682 19.3382H30.3202C30.3202 19.3382 30.3539 19.3382 30.3539 19.3039C30.3539 19.3039 30.3539 19.3039 30.3876 19.2695C30.4887 19.2009 30.5561 19.1322 30.5898 19.0635C30.6235 18.9949 30.6572 18.9262 30.6909 18.8232L31.0616 17.347C31.0616 17.3126 31.0616 17.2783 31.0616 17.2783C31.0616 17.2096 31.0953 17.141 31.0616 17.0723C31.0616 17.0037 31.0279 16.9693 31.0279 16.8663C31.0279 16.8663 31.0279 16.8663 31.0279 16.832H32.4096H32.477H32.6119C32.7467 16.832 32.8478 16.8663 32.9152 16.9007C32.9826 16.935 33.05 17.0037 33.0837 17.1066C33.1174 17.1753 33.1174 17.2783 33.0837 17.3813C33.0837 17.45 33.05 17.4843 33.0163 17.553C32.9489 17.656 32.8815 17.7589 32.7804 17.8276C32.6793 17.8963 32.5107 17.9649 32.3422 17.9993C32.3085 17.9993 32.2748 17.9993 32.2411 18.0336C32.3085 18.0336 32.3422 18.0336 32.3422 18.0336C32.477 18.0336 32.5781 18.0679 32.6456 18.1366C32.713 18.1709 32.7804 18.2396 32.8141 18.3426C32.8478 18.4112 32.8478 18.5142 32.8141 18.6172C32.8141 18.6516 32.7804 18.7202 32.7804 18.7546C32.713 18.9262 32.5782 19.0635 32.4433 19.1322C32.2748 19.2352 32.0726 19.3039 31.803 19.3382C31.7019 19.3382 31.6682 19.3382 31.6682 19.3382ZM31.3986 18.8919H31.466C31.5334 18.8919 31.6008 18.8919 31.6345 18.8919C31.7019 18.8919 31.7693 18.8576 31.803 18.8232C31.8367 18.7889 31.9041 18.7546 31.9378 18.7202C31.9715 18.6859 32.0052 18.6172 32.0052 18.5486C32.0389 18.4112 32.0389 18.3426 31.9715 18.2739C31.9041 18.2053 31.803 18.2053 31.6682 18.2053H31.6345C31.6345 18.2053 31.6345 18.2053 31.6008 18.2053H31.5671H31.5334L31.3986 18.8919ZM31.6682 17.8276C31.7019 17.8276 31.7693 17.8276 31.803 17.8276C31.9378 17.8276 32.0726 17.7933 32.14 17.7589C32.2074 17.7246 32.2748 17.656 32.3085 17.553V17.5186C32.3085 17.45 32.3085 17.3813 32.2748 17.347C32.2411 17.3126 32.1737 17.2783 32.0726 17.2783C32.0052 17.2783 31.9378 17.2783 31.8704 17.2783H31.8367H31.803L31.6682 17.8276Z" fill="#F2F2F3"/>
<path d="M34.7013 19.3039C34.6339 19.3039 34.5665 19.3039 34.4991 19.3039C34.2295 19.3039 34.0273 19.2695 33.8588 19.1665C33.6903 19.0635 33.5555 18.9262 33.5218 18.7202C33.4544 18.5486 33.4544 18.3426 33.5218 18.1023C33.5218 18.0679 33.5555 18.0336 33.5555 17.9993C33.5892 17.9306 33.6229 17.8276 33.6566 17.7589C33.6903 17.6903 33.7577 17.6216 33.7914 17.553C33.8588 17.4843 33.8925 17.4156 33.9599 17.347C34.0273 17.2783 34.0947 17.2096 34.1621 17.1753C34.2632 17.0723 34.398 17.0037 34.4991 16.9693C34.6002 16.935 34.735 16.8663 34.8698 16.8663C34.9709 16.832 35.1057 16.832 35.2069 16.832C35.4091 16.832 35.5776 16.8663 35.7124 16.9007C35.8472 16.9693 35.982 17.038 36.0494 17.141C36.1505 17.244 36.1842 17.3813 36.2179 17.5186C36.2516 17.656 36.2179 17.8276 36.1842 17.9993C36.1505 18.0679 36.1505 18.1709 36.1168 18.2396C36.0494 18.4112 35.9483 18.5486 35.8472 18.6859C35.7124 18.8576 35.5439 18.9949 35.3417 19.0979C35.1395 19.2009 34.9372 19.2695 34.7013 19.3039ZM34.2632 17.9993C34.2632 18.1023 34.2295 18.1709 34.2295 18.2396C34.2295 18.3083 34.2295 18.3769 34.2632 18.4112C34.2969 18.5829 34.3643 18.6859 34.4317 18.7546C34.4991 18.8232 34.6002 18.8576 34.735 18.8576C34.8361 18.8576 34.9372 18.8232 35.0383 18.7889C35.1394 18.7546 35.2069 18.6516 35.2743 18.5486C35.3417 18.4456 35.4091 18.3083 35.4428 18.1366C35.4765 17.9306 35.5102 17.7589 35.4765 17.6216C35.4091 17.3126 35.2743 17.141 34.9709 17.141C34.8024 17.141 34.6676 17.2096 34.5665 17.347C34.4317 17.45 34.3643 17.6216 34.2969 17.8276C34.2632 17.8963 34.2632 17.9649 34.2632 17.9993Z" fill="#F2F2F3"/>
<path d="M36.8919 16.8663L36.8582 16.832H37.9367L38.1052 17.7933L38.4422 17.3126C38.5433 17.2096 38.577 17.1066 38.6107 17.038C38.6107 17.0037 38.6107 16.935 38.6107 16.8663V16.832H39.4532L38.1726 18.3769L38.0715 18.8232C38.0715 18.8919 38.0378 18.9262 38.0378 18.9606C38.0378 18.9949 38.0378 19.0292 38.0378 19.0635C38.0378 19.0979 38.0378 19.1322 38.0715 19.1665C38.0715 19.2009 38.1052 19.2352 38.1389 19.2695L38.1726 19.3039H36.9593C36.9593 19.3039 36.9593 19.3039 36.993 19.2695C36.993 19.2695 36.993 19.2695 37.0267 19.2352C37.1278 19.1665 37.1615 19.0979 37.2289 19.0292C37.2626 18.9606 37.2963 18.8919 37.33 18.7889L37.4312 18.3426L37.1615 17.2783C37.1278 17.1066 37.0604 17.0037 36.9593 16.8663H36.8919Z" fill="#F2F2F3"/>
<path d="M11.4137 40.3148L10.4364 40.9328C10.3016 40.6925 10.0994 40.4522 9.86346 40.3148C9.39164 40.0402 8.78501 40.1088 8.3469 40.4522C8.14469 40.6238 8.00988 40.8985 8.00988 41.1731C8.00988 41.5851 8.31319 41.8941 8.88612 42.1344L9.69495 42.4434C10.2342 42.6494 10.7397 42.9584 11.1441 43.4047C11.4474 43.8167 11.6159 44.2973 11.6159 44.8123C11.6496 45.4989 11.38 46.1855 10.9082 46.6662C10.4364 47.1468 9.76235 47.4215 9.08833 47.4215C8.448 47.4558 7.84138 47.2498 7.36956 46.8378C6.89774 46.3572 6.59443 45.7392 6.52702 45.0869L7.74027 44.8123C7.74027 45.1556 7.87508 45.4989 8.04358 45.8079C8.31319 46.1512 8.71761 46.3572 9.15573 46.3229C9.86346 46.3229 10.4364 45.7392 10.4364 45.0183C10.4364 44.9839 10.4364 44.9496 10.4364 44.9496C10.4364 44.8123 10.4027 44.6406 10.369 44.5033C10.3353 44.366 10.2679 44.263 10.1668 44.16C10.0657 44.0226 9.93086 43.9197 9.79605 43.851C9.62755 43.748 9.45904 43.645 9.29053 43.5763L8.4817 43.233C7.36956 42.7867 6.83034 42.1001 6.83034 41.1731C6.83034 40.5895 7.06624 40.0059 7.50436 39.6282C7.97618 39.2162 8.58281 38.9759 9.22313 39.0102C10.1331 38.9759 10.9756 39.4909 11.4137 40.3148Z" fill="#010101"/>
<path d="M18.2214 45.2929L14.7839 45.3273L13.8402 47.4215H12.5259L16.5026 38.6326L20.4457 47.3528H19.1313L18.2214 45.2929ZM17.7159 44.16L16.5026 41.4134L15.2894 44.1943L17.7159 44.16Z" fill="#010101"/>
<path d="M23.0744 38.8729L23.1081 46.1855L25.4672 46.1512V47.3185L21.9285 47.3528L21.8948 38.9072L23.0744 38.8729Z" fill="#010101"/>
<path d="M26.4108 43.0614C26.3771 41.9284 26.8152 40.8641 27.6241 40.1088C28.3992 39.2849 29.4439 38.8386 30.5561 38.8386C32.8478 38.8386 34.7013 40.6925 34.7687 43.027C34.8024 44.16 34.3643 45.2586 33.5555 46.0482C31.9715 47.6618 29.4439 47.7305 27.7926 46.2199C26.8826 45.4302 26.3771 44.263 26.4108 43.0614ZM27.6241 43.0614C27.6241 43.9196 27.9274 44.7093 28.534 45.2929C29.6798 46.4602 31.5671 46.4602 32.713 45.2586C33.2859 44.6749 33.5892 43.8853 33.5555 43.0614C33.5555 42.2374 33.2522 41.4478 32.6793 40.8985C31.5334 39.7312 29.6461 39.7312 28.5003 40.8985L28.4666 40.9328C27.9274 41.4821 27.6241 42.2717 27.6241 43.0614Z" fill="#010101"/>
<path d="M36.4201 42.9927C36.3864 41.8597 36.8245 40.7955 37.6334 40.0402C38.4085 39.2162 39.4532 38.7699 40.5654 38.7699C42.8571 38.7699 44.7106 40.6238 44.778 42.9584C44.8117 44.0913 44.3736 45.1899 43.5648 45.9795C41.9808 47.5931 39.4532 47.6618 37.8019 46.1512C36.8919 45.3616 36.3864 44.1943 36.4201 42.9927ZM37.6334 42.9927C37.6334 43.851 37.9704 44.6406 38.577 45.2242C39.7228 46.3915 41.6101 46.3915 42.756 45.1899C43.3289 44.6063 43.6322 43.8166 43.5985 42.9927C43.5985 42.1687 43.2615 41.3791 42.6886 40.7955C42.1493 40.2118 41.3742 39.9028 40.5654 39.9372C39.7565 39.9372 39.0151 40.2462 38.4759 40.8298C37.903 41.4134 37.5997 42.2031 37.6334 42.9927Z" fill="#010101"/>
<path d="M46.8675 47.1811L46.8001 38.2892L52.6642 44.4689L52.6305 38.6669H53.81L53.8774 47.4558L48.0134 41.3104L48.0808 47.1468L46.8675 47.1811Z" fill="#010101"/>
</svg>
