<svg width="109" height="109" viewBox="0 0 109 109" fill="none" xmlns="http://www.w3.org/2000/svg">
<rect width="109" height="109" rx="19" fill="#FFFCFC"/>
<path d="M55.7802 87.7988H54.0456C53.7717 87.7988 53.5891 87.7092 53.4065 87.6195C53.3152 87.5299 53.2239 87.3506 53.2239 87.1713C53.2239 86.992 53.3152 86.8127 53.4065 86.723C53.4978 86.6334 53.7717 86.5437 54.0456 86.5437H55.7802C56.0541 86.5437 56.2367 86.6334 56.4193 86.723C56.5106 86.8127 56.6019 86.992 56.6019 87.1713C56.6019 87.3506 56.5106 87.5299 56.4193 87.6195C56.2367 87.7988 56.0541 87.7988 55.7802 87.7988Z" fill="#787878"/>
<path d="M50.6675 90.2194V84.0334C50.6675 83.6748 50.7588 83.4955 50.8501 83.3162C51.0327 83.1369 51.2153 83.0472 51.3979 83.0472C51.6718 83.0472 51.8544 83.1369 51.9456 83.3162C52.1282 83.4955 52.1282 83.6748 52.1282 84.0334V90.2194C52.1282 90.5781 52.0369 90.7574 51.9456 90.9367C51.7631 91.116 51.5805 91.2056 51.3979 91.2056C51.124 91.2056 50.9414 91.116 50.8501 90.9367C50.7588 90.847 50.6675 90.5781 50.6675 90.2194Z" fill="#787878"/>
<path d="M44.0028 84.1231V86.3644H47.4721V84.1231C47.4721 83.7645 47.5634 83.5852 47.6547 83.4059C47.8373 83.2265 48.0199 83.1369 48.2025 83.1369C48.4764 83.1369 48.659 83.2265 48.7502 83.4059C48.9328 83.5852 48.9328 83.7645 48.9328 84.1231V90.3091C48.9328 90.6677 48.8415 90.847 48.659 91.0263C48.7503 91.116 48.4764 91.2056 48.2938 91.2056C48.0199 91.2056 47.8373 91.116 47.746 90.9367C47.5634 90.7574 47.5634 90.5781 47.5634 90.2194V87.6195H44.0941V90.2194C44.0941 90.5781 44.0028 90.7574 43.9115 90.9367C43.7289 91.116 43.5463 91.2056 43.3637 91.2056C43.0898 91.2056 42.9072 91.116 42.8159 90.9367C42.6333 90.7574 42.6333 90.5781 42.6333 90.2194V84.0334C42.6333 83.6748 42.7246 83.4955 42.8159 83.3162C42.9985 83.1369 43.1811 83.0472 43.3637 83.0472C43.6376 83.0472 43.8202 83.1369 43.9115 83.3162C43.9115 83.4955 44.0028 83.7645 44.0028 84.1231Z" fill="#787878"/>
<path d="M40.7161 88.6057C40.7161 88.8747 40.6248 89.1436 40.5335 89.4126C40.4422 89.6816 40.1683 89.9505 39.9857 90.2195C39.7118 90.4884 39.3466 90.7574 38.9814 90.9367C38.5249 91.116 38.0685 91.2057 37.5207 91.2057C37.0642 91.2057 36.699 91.2057 36.3338 91.116C35.9686 91.0263 35.6947 90.9367 35.4208 90.7574C35.1469 90.5781 34.873 90.3988 34.6904 90.1298C34.5078 89.8609 34.3252 89.5919 34.1426 89.3229C33.9601 89.054 33.8688 88.6954 33.7775 88.3368C33.6862 87.9782 33.6862 87.6195 33.6862 87.2609C33.6862 86.6334 33.7775 86.0954 33.9601 85.5575C34.1426 85.0196 34.4165 84.661 34.7817 84.3024C35.1469 83.9438 35.5121 83.6748 35.9686 83.4955C36.4251 83.3162 36.9729 83.2266 37.4294 83.2266C38.0684 83.2266 38.6162 83.3162 39.164 83.5852C39.7118 83.8541 40.077 84.1231 40.3509 84.4817C40.6248 84.8403 40.7161 85.1989 40.7161 85.5575C40.7161 85.7368 40.6248 85.9161 40.5335 86.0058C40.4422 86.1851 40.2596 86.1851 40.077 86.1851C39.8944 86.1851 39.7118 86.0954 39.6205 86.0058C39.5292 85.9161 39.4379 85.7368 39.2553 85.4679C39.0727 85.1093 38.7988 84.7507 38.5249 84.5714C38.251 84.392 37.8859 84.3024 37.4294 84.3024C36.7903 84.3024 36.2425 84.5714 35.8773 85.0196C35.5121 85.5575 35.3295 86.1851 35.3295 87.0816C35.3295 87.7092 35.4208 88.1575 35.6034 88.6057C35.786 89.054 36.0599 89.3229 36.3338 89.5022C36.6077 89.6816 37.0642 89.7712 37.4294 89.7712C37.8859 89.7712 38.251 89.6816 38.6162 89.4126C38.8901 89.1436 39.164 88.8747 39.3466 88.4264C39.4379 88.2471 39.5292 88.0678 39.6205 87.8885C39.7118 87.7989 39.8944 87.7092 40.077 87.7092C40.2596 87.7092 40.4422 87.7989 40.5335 87.8885C40.7161 88.2471 40.7161 88.4264 40.7161 88.6057Z" fill="#787878"/>
<path d="M30.3994 90.2194V84.0334C30.3994 83.6748 30.4907 83.4955 30.582 83.3162C30.7646 83.1369 30.9472 83.0472 31.1298 83.0472C31.4037 83.0472 31.5863 83.1369 31.6776 83.3162C31.8602 83.4955 31.8602 83.6748 31.8602 84.0334V90.2194C31.8602 90.5781 31.7689 90.7574 31.6776 90.9367C31.495 91.116 31.3124 91.2056 31.1298 91.2056C30.8559 91.2056 30.6733 91.116 30.582 90.9367C30.4907 90.847 30.3994 90.5781 30.3994 90.2194Z" fill="#787878"/>
<path d="M23.6434 84.123V86.9022L26.8388 83.6748C27.0214 83.4954 27.1127 83.4058 27.204 83.3161C27.2953 83.1368 27.3866 83.1368 27.5692 83.1368C27.8431 83.1368 28.0257 83.2265 28.117 83.3161C28.2995 83.4954 28.3908 83.5851 28.3908 83.8541C28.3908 84.123 28.2995 84.3023 28.0257 84.5713L26.1084 86.3643L28.3908 89.5022C28.5734 89.6815 28.6647 89.9504 28.756 90.0401C28.8473 90.2194 28.8473 90.3987 28.8473 90.4884C28.8473 90.6677 28.756 90.847 28.6647 90.9366C28.4821 91.1159 28.2995 91.2056 28.0257 91.2056C27.8431 91.2056 27.6605 91.1159 27.4779 91.0263C27.2953 90.9366 27.204 90.847 27.1127 90.6677C27.0214 90.4884 26.9301 90.3987 26.8388 90.2194L24.9215 87.3505L23.6434 88.6056V90.2194C23.6434 90.578 23.5521 90.7573 23.4608 90.9366C23.2782 91.1159 23.0043 91.2056 22.8217 91.2056C22.7304 91.2056 22.5478 91.2056 22.4565 91.1159C22.3652 91.0263 22.2739 90.9366 22.1826 90.847C22.0913 90.6677 22 90.578 22 90.4884C22 90.3987 22 90.1297 22 89.9504V84.123C22 83.7644 22.0913 83.5851 22.1826 83.4058C22.3652 83.2265 22.5478 83.1368 22.8217 83.1368C23.0956 83.1368 23.2782 83.2265 23.3695 83.4058C23.5521 83.4955 23.6434 83.7644 23.6434 84.123Z" fill="#787878"/>
<path d="M86.1824 90.2194V84.0334C86.1824 83.6748 86.2737 83.4955 86.365 83.3162C86.5476 83.1369 86.7302 83.0472 86.9127 83.0472C87.1866 83.0472 87.3692 83.1369 87.4605 83.3162C87.6431 83.4955 87.6431 83.6748 87.6431 84.0334V90.2194C87.6431 90.5781 87.5518 90.7574 87.4605 90.9367C87.2779 91.116 87.0953 91.2056 86.9127 91.2056C86.6389 91.2056 86.4563 91.116 86.365 90.9367C86.2737 90.847 86.1824 90.5781 86.1824 90.2194Z" fill="#787878"/>
<path d="M79.5176 84.1231V86.3644H82.987V84.1231C82.987 83.7645 83.0783 83.5852 83.1696 83.4059C83.3522 83.2265 83.5348 83.1369 83.7173 83.1369C83.9912 83.1369 84.1738 83.2265 84.2651 83.4059C84.4477 83.5852 84.4477 83.7645 84.4477 84.1231V90.3091C84.4477 90.6677 84.3564 90.847 84.1738 91.0263C83.9912 91.2056 83.8086 91.2953 83.626 91.2953C83.3522 91.2953 83.1696 91.2056 83.0783 91.0263C82.8957 90.847 82.8957 90.6677 82.8957 90.3091V87.6195H79.5176V90.2195C79.5176 90.5781 79.4263 90.7574 79.3351 90.9367C79.1525 91.116 78.9699 91.2056 78.7873 91.2056C78.5134 91.2056 78.3308 91.116 78.2395 90.9367C78.0569 90.7574 78.0569 90.5781 78.0569 90.2195V84.0334C78.0569 83.6748 78.1482 83.4955 78.2395 83.3162C78.4221 83.1369 78.6047 83.0472 78.7873 83.0472C79.0612 83.0472 79.2438 83.1369 79.3351 83.3162C79.4263 83.4955 79.5176 83.7645 79.5176 84.1231Z" fill="#787878"/>
<path d="M76.2309 88.6057C76.2309 88.8747 76.1396 89.1436 76.0483 89.4126C75.957 89.6816 75.6831 89.9505 75.5005 90.2195C75.2266 90.4884 74.8614 90.7574 74.4962 90.9367C74.0397 91.116 73.5832 91.2057 73.0354 91.2057C72.5789 91.2057 72.2138 91.2057 71.8486 91.116C71.4834 91.0263 71.2095 90.9367 70.9356 90.7574C70.6617 90.5781 70.3878 90.3988 70.2052 90.1298C70.0226 89.8609 69.84 89.5919 69.6574 89.3229C69.4748 89.054 69.3835 88.6954 69.2922 88.3368C69.2009 87.9782 69.2009 87.6195 69.2009 87.2609C69.2009 86.6334 69.2922 86.0954 69.4748 85.5575C69.6574 85.0196 69.9313 84.661 70.2965 84.3024C70.6617 83.9438 71.0269 83.6748 71.4834 83.4955C71.9399 83.3162 72.4876 83.2266 72.9441 83.2266C73.5832 83.2266 74.131 83.3162 74.6788 83.5852C75.2266 83.8541 75.5918 84.1231 75.8657 84.4817C76.1396 84.8403 76.2309 85.1989 76.2309 85.5575C76.2309 85.7368 76.1396 85.9161 76.0483 86.0058C75.957 86.1851 75.7744 86.1851 75.5918 86.1851C75.4092 86.1851 75.2266 86.0954 75.1353 86.0058C75.044 85.9161 74.9527 85.7368 74.7701 85.4679C74.5875 85.1093 74.3136 84.7507 74.0397 84.5714C73.7658 84.392 73.4006 84.3024 72.9441 84.3024C72.3051 84.3024 71.7573 84.5714 71.3921 85.0196C71.0269 85.5575 70.8443 86.1851 70.8443 87.0816C70.8443 87.7092 70.9356 88.1575 71.1182 88.6057C71.3008 89.054 71.5747 89.3229 71.8486 89.5022C72.2138 89.6816 72.5789 89.7712 72.9441 89.7712C73.4006 89.7712 73.7658 89.6816 74.131 89.4126C74.4049 89.1436 74.6788 88.8747 74.8614 88.4264C74.9527 88.2471 75.044 88.0678 75.1353 87.8885C75.2266 87.7989 75.4092 87.7092 75.5918 87.7092C75.7744 87.7092 75.957 87.7989 76.0483 87.8885C76.2309 88.2471 76.2309 88.4264 76.2309 88.6057Z" fill="#787878"/>
<path d="M65.9142 90.2194V84.0334C65.9142 83.6748 66.0055 83.4955 66.0968 83.3162C66.2794 83.1369 66.462 83.0472 66.6446 83.0472C66.9185 83.0472 67.1011 83.1369 67.1924 83.3162C67.375 83.4955 67.375 83.6748 67.375 84.0334V90.2194C67.375 90.5781 67.2837 90.7574 67.1924 90.9367C67.1924 91.116 67.0098 91.2056 66.7359 91.2056C66.462 91.2056 66.2794 91.116 66.1881 90.9367C66.0055 90.847 65.9142 90.5781 65.9142 90.2194Z" fill="#787878"/>
<path d="M59.1583 84.123V86.9022L62.3537 83.6748C62.5363 83.4954 62.6276 83.4058 62.7189 83.3161C62.8102 83.1368 62.9015 83.1368 63.0841 83.1368C63.358 83.1368 63.5406 83.2265 63.6319 83.3161C63.8145 83.4058 63.8145 83.5851 63.8145 83.7644C63.8145 84.0334 63.7232 84.2127 63.4493 84.4816L61.4407 86.2747L63.7232 89.4125C63.9058 89.5918 63.997 89.8608 64.0883 89.9504C64.1796 90.1297 64.1796 90.309 64.1796 90.3987C64.1796 90.578 64.0883 90.7573 63.997 90.847C63.997 91.1159 63.7232 91.2056 63.5406 91.2056C63.358 91.2056 63.1754 91.1159 62.9928 91.0263C62.8102 90.9366 62.7189 90.847 62.6276 90.6677C62.5363 90.4884 62.445 90.3987 62.3537 90.2194L60.4364 87.3505L59.1583 88.6056V90.2194C59.1583 90.578 59.067 90.7573 58.8844 90.9366C58.7018 91.1159 58.5192 91.2056 58.3366 91.2056C58.154 91.2056 58.0627 91.2056 57.9714 91.1159C57.8801 91.0263 57.7888 90.9366 57.6975 90.847C57.6062 90.7573 57.6062 90.6677 57.6062 90.4884C57.6062 90.3987 57.6062 90.1297 57.6062 89.9504V84.123C57.6062 83.7644 57.6975 83.5851 57.7888 83.4058C57.9714 83.2265 58.154 83.1368 58.3366 83.1368C58.6105 83.1368 58.7931 83.2265 58.8844 83.4058C59.067 83.4955 59.1583 83.7644 59.1583 84.123Z" fill="#787878"/>
<path d="M69.4749 35.9795C66.0056 31.9451 60.893 28.9866 54.5934 28.9866C54.0456 28.9866 53.4065 28.9866 52.7674 29.0762C46.6505 29.7038 40.7161 33.6485 37.612 40.1931L37.9772 40.3725L37.612 40.2828C36.699 42.6138 36.1512 45.0344 36.1512 47.6343C36.1512 50.8618 37.0642 54.2686 39.438 57.8547C39.7119 57.9444 39.8945 58.034 40.1683 58.1237C40.3509 58.2133 40.4422 58.2133 40.6248 58.303C37.9772 54.5376 36.9729 51.0411 36.9729 47.6343C36.9729 45.2137 37.5207 42.8827 38.4337 40.5518C41.4465 34.2761 47.107 30.421 53.0413 29.8831C53.5891 29.7934 54.2282 29.7934 54.776 29.7934C60.8017 29.7934 65.823 32.6623 69.1098 36.5174C72.1226 40.0138 73.2182 44.1379 73.2182 47.724C73.2182 49.786 72.853 51.6687 72.3052 53.1928C70.3879 59.0202 64.7275 63.5925 59.8887 64.9373L59.98 65.2959L59.8887 64.9373C58.7931 65.2959 57.3323 65.4752 55.5977 65.4752C51.7632 65.4752 46.8331 64.3097 42.9073 60.6339L42.2682 60.9925C46.3766 64.8476 51.4893 66.1027 55.5064 66.1027C57.241 66.1027 58.7931 65.8338 59.98 65.4752C65.0926 64.0407 70.8444 59.4685 72.853 53.3721C73.4007 51.7583 73.7659 49.786 73.7659 47.5447C73.7659 43.8689 72.6704 39.5656 69.4749 35.9795Z" fill="#787878"/>
<path d="M46.2853 59.0204H53.2239V56.7791H46.2853V59.0204Z" fill="#787878"/>
<path d="M49.8458 42.8829C50.0284 43.0622 50.211 43.1518 50.3023 43.2415C50.3936 43.3311 50.3936 43.3311 50.3936 43.3311C50.3936 43.4208 50.3023 43.6001 50.1197 43.7794C50.0284 43.8691 49.9371 43.9587 49.8458 43.9587C49.8458 43.9587 49.7545 43.9587 49.7545 44.0484C49.4807 44.2277 49.3894 44.4966 49.4807 44.7656C49.5719 44.9449 49.7545 45.0345 49.9371 45.0345C50.0284 45.0345 50.1197 45.0345 50.211 44.9449C50.211 44.9449 50.4849 44.7656 50.8501 44.4966C51.124 44.2277 51.4892 43.8691 51.4892 43.2415V43.1518C51.3979 42.7036 51.124 42.4346 50.8501 42.1657C50.4849 41.8071 49.9371 41.5381 49.572 41.1795C49.3894 41.0002 49.2068 40.9105 49.1155 40.8209C49.1155 40.7312 49.0242 40.7312 49.0242 40.7312C49.0242 40.7312 49.0242 40.7312 49.0242 40.6416C49.1155 40.4623 49.5719 40.014 50.1197 39.6554C50.3936 39.4761 50.5762 39.2968 50.7588 39.1175C50.8501 39.0278 50.9414 38.9382 51.0327 38.8485C51.124 38.7589 51.2153 38.5796 51.2153 38.3106C51.2153 37.7727 50.8501 37.5037 50.5762 37.2348C50.3023 36.9658 49.9371 36.8762 49.572 36.6072C49.2981 36.4279 48.9329 36.5175 48.8416 36.7865C48.659 37.0555 48.7503 37.4141 49.0242 37.5037C49.3894 37.7727 49.7545 37.952 49.9371 38.0416C50.0284 38.1313 50.0284 38.1313 50.1197 38.1313C50.0284 38.2209 49.9371 38.3106 49.7545 38.4003C49.4807 38.6692 49.0242 38.9382 48.659 39.2968C48.2938 39.6554 47.9286 40.014 47.9286 40.5519C47.9286 41.0002 48.2025 41.3588 48.4764 41.6277C48.9329 42.2553 49.4807 42.6139 49.8458 42.8829Z" fill="#787878"/>
<path d="M46.5591 42.5242C46.7417 42.7035 46.9243 42.7932 47.0156 42.8829C47.1069 42.9725 47.1069 42.9725 47.1069 42.9725C47.1069 43.0622 47.0156 43.2415 46.833 43.4208C46.7417 43.5104 46.6504 43.6001 46.5591 43.6001C46.5591 43.6001 46.4678 43.6001 46.4678 43.6897C46.1939 43.869 46.1026 44.138 46.1939 44.4069C46.2852 44.5863 46.4678 44.6759 46.7417 44.6759C46.833 44.6759 46.9243 44.6759 47.0156 44.5863C47.0156 44.5863 47.2895 44.4069 47.6547 44.138C47.9286 43.869 48.2938 43.4208 48.2938 42.8829V42.7932C48.2025 42.3449 47.9286 42.076 47.6547 41.807C47.1982 41.4484 46.7417 41.1795 46.2852 40.8208C46.1026 40.6415 45.92 40.5519 45.8287 40.4622C45.8287 40.3726 45.7374 40.3726 45.7374 40.3726C45.7374 40.3726 45.7374 40.3726 45.7374 40.2829C45.8287 40.1036 46.2852 39.6554 46.833 39.2967C47.1069 39.1174 47.2895 38.9381 47.4721 38.7588C47.5634 38.6692 47.6547 38.5795 47.746 38.4899C47.8373 38.4002 47.9286 38.2209 47.9286 37.952C47.9286 37.414 47.5634 37.1451 47.2895 36.8761C47.0156 36.6072 46.6504 36.4279 46.2852 36.2486C46.0113 36.0693 45.6461 36.1589 45.5548 36.4279C45.3722 36.6968 45.4635 37.0554 45.7374 37.1451C46.1026 37.414 46.4678 37.5933 46.6504 37.683C46.7417 37.7727 46.7417 37.7727 46.833 37.7727C46.7417 37.8623 46.6504 37.952 46.4678 38.0416C46.1939 38.3106 45.7374 38.5795 45.3722 38.9381C45.007 39.2967 44.6418 39.6554 44.6418 40.1933C44.6418 40.6415 44.9157 41.0001 45.1896 41.2691C45.6461 41.8967 46.1939 42.1656 46.5591 42.5242Z" fill="#787878"/>
<path d="M52.9499 42.5242C53.1325 42.7035 53.3151 42.8828 53.4064 42.9725C53.4064 43.0621 53.4977 43.0621 53.4977 43.0621C53.4977 43.1518 53.3151 43.3311 53.1325 43.5104C53.0412 43.6 52.9499 43.6 52.8586 43.6897H52.7674C52.4935 43.7793 52.3109 44.1379 52.4022 44.4069C52.4935 44.5862 52.6761 44.7655 52.8586 44.7655C52.9499 44.7655 53.0412 44.7655 53.1325 44.7655C53.1325 44.7655 53.4064 44.6759 53.7716 44.4069C54.1368 44.2276 54.502 43.869 54.5933 43.2414V43.1518C54.5933 42.7035 54.4107 42.3449 54.1368 42.0759C53.7716 41.7173 53.3151 41.2691 52.9499 40.9105C52.7674 40.7311 52.6761 40.5518 52.5848 40.4622C52.5848 40.3725 52.4935 40.3725 52.4935 40.3725C52.4935 40.3725 52.4935 40.3725 52.4935 40.2829C52.5848 40.1036 53.1325 39.745 53.6803 39.476C53.9542 39.2967 54.2281 39.2071 54.4107 39.0277C54.502 38.9381 54.5933 38.8484 54.6846 38.7588C54.7759 38.6691 54.8672 38.4898 54.9585 38.3105C55.0498 37.8623 54.7759 37.414 54.502 37.145C54.2281 36.8761 53.9542 36.6071 53.589 36.4278C53.3151 36.2485 52.9499 36.2485 52.7674 36.5175C52.5848 36.7864 52.5848 37.0554 52.8586 37.3243C53.2238 37.5933 53.4977 37.8623 53.6803 38.0416C53.7716 38.1312 53.7716 38.1312 53.7716 38.2209C53.6803 38.3105 53.589 38.4002 53.4064 38.4898C53.0412 38.6691 52.5848 38.9381 52.2196 39.2071C51.8544 39.476 51.3979 39.8346 51.3066 40.3725C51.2153 40.8208 51.4892 41.1794 51.6718 41.4484C52.1283 41.807 52.5848 42.1656 52.9499 42.5242Z" fill="#787878"/>
<path d="M59.98 59.0203H64.4536V57.2273H59.98V59.0203Z" fill="#787878"/>
<path d="M53.7717 59.0204H59.5235V56.9584H53.7717V59.0204Z" fill="#787878"/>
<path d="M66.7359 49.0688C66.7359 49.3378 66.6446 49.6964 66.5533 49.9654C66.0968 52.0274 65.0012 53.9101 63.4492 55.2549C63.1753 55.4342 62.9927 55.6135 62.7188 55.8824C62.6275 55.9721 60.6189 57.1376 59.6147 57.4065C59.4321 57.4962 59.1582 57.4962 58.9756 57.5858C59.7973 57.8548 60.7102 57.9445 61.6232 57.9445C62.4449 57.9445 63.3579 57.8548 64.0883 57.5858C65.0012 57.3169 65.8229 56.9583 66.5533 56.4204C66.6446 56.4204 66.8272 56.3307 66.8272 56.2411C67.1011 56.0617 67.2837 55.8824 67.4663 55.7031C68.8358 54.448 69.9313 52.8343 70.2965 50.9516C70.3878 50.4136 70.4791 49.7861 70.4791 49.1585H66.7359V49.0688Z" fill="#787878"/>
<path d="M61.1668 47.993C61.1668 48.3517 61.0755 48.7103 60.9842 49.0689C60.5277 51.2205 59.3408 53.1929 57.7888 54.6273C57.6975 54.717 57.6062 54.8066 57.5149 54.8963C57.3323 55.0756 57.0584 55.2549 56.8758 55.4342C56.8758 55.4342 56.8758 55.4342 56.7845 55.5239C56.7845 55.5239 56.5106 55.7928 56.328 55.8825C56.1454 55.9721 55.9628 56.0618 55.7802 56.1514C55.7802 56.1514 55.7802 56.1514 55.6889 56.1514C54.9585 56.5997 54.1368 56.9583 53.3152 57.2273C53.2239 57.2273 53.2239 57.2273 53.1326 57.2273C54.1368 57.5859 55.2324 57.7652 56.328 57.7652C57.0584 57.7652 57.7888 57.6755 58.4278 57.4962C58.6104 57.4962 58.8843 57.4066 59.0669 57.3169C60.0712 57.048 60.9842 56.5997 61.8059 56.0618C61.9885 56.0618 62.6275 55.4342 62.9014 55.2549C64.4535 53.9101 65.5491 52.0274 66.0056 49.9654C66.0969 49.6964 66.0969 49.3378 66.1882 49.0689C66.1882 48.7103 66.2795 48.3517 66.2795 47.993H61.1668Z" fill="#787878"/>
<path d="M49.7546 55.7032C49.6633 55.7032 49.572 55.7929 49.572 55.7929C45.0071 55.7929 41.7204 53.4619 40.8074 49.2483C40.7161 48.8896 40.99 48.531 41.3552 48.4414C41.7204 48.3517 42.0856 48.6207 42.1769 48.9793C42.8159 52.0275 44.9158 53.8205 47.9286 54.3585C48.0199 54.3585 48.1112 54.3585 48.2938 54.3585C48.7503 54.4481 49.1155 54.4481 49.572 54.4481C49.9372 54.4481 50.2111 54.7171 50.2111 55.0757C50.3024 55.4343 50.0285 55.6136 49.7546 55.7032ZM38.8901 46.8276C38.8901 52.7447 43.7289 57.4963 49.7546 57.4963C50.7589 57.4963 51.6718 57.317 52.5848 57.1377C52.6761 57.1377 52.6761 57.1377 52.7674 57.1377C53.5891 56.8687 55.1411 56.0619 55.1411 56.0619C55.1411 56.0619 55.1411 56.0619 55.2324 56.0619C55.2324 56.0619 55.5976 55.8826 55.7802 55.7929C55.8715 55.7032 56.2367 55.5239 56.2367 55.4343C56.2367 55.4343 56.2367 55.4343 56.328 55.3446C56.5106 55.1653 56.7845 54.986 56.9671 54.8067C57.0584 54.7171 57.1497 54.6274 57.241 54.5378C58.7931 53.1033 59.9799 51.131 60.4364 48.9793C60.5277 48.6207 60.5277 48.2621 60.619 47.9035C60.619 47.5449 60.7103 47.1862 60.7103 46.8276H38.8901Z" fill="#787878"/>
<path d="M68.9272 25.9385L68.4707 25.6695L67.9229 26.4764L68.3794 26.7454C68.3794 26.7454 68.562 26.835 68.6533 26.835C68.7446 26.835 68.8359 26.835 68.9272 26.835C69.0185 26.835 69.1098 26.7454 69.1098 26.6557C69.2011 26.5661 69.2011 26.3868 69.2011 26.2971C69.2011 26.1178 69.1098 26.0282 68.9272 25.9385ZM32.5906 35.5313C32.4993 35.4417 32.3168 35.4417 32.2255 35.4417C32.1342 35.4417 32.0429 35.621 31.9516 35.8003L31.6777 36.2486L32.4993 36.6968L32.6819 36.2486C32.6819 36.1589 32.7732 36.0692 32.7732 35.9796C32.7732 35.8899 32.7732 35.8003 32.6819 35.7106C32.7732 35.621 32.6819 35.5313 32.5906 35.5313ZM48.02 69.689C47.7461 69.5993 47.5635 69.689 47.2896 69.7786C47.107 69.9579 46.9244 70.2269 46.7418 70.6752C46.6505 71.1234 46.6505 71.482 46.7418 71.751C46.8331 72.0199 47.0157 72.1993 47.2896 72.1993C47.5635 72.2889 47.8374 72.2889 48.02 72.1096C48.2026 71.9303 48.3852 71.6613 48.5678 71.1234C48.6591 70.6752 48.7504 70.4062 48.6591 70.1372C48.4765 69.9579 48.2939 69.7786 48.02 69.689ZM79.5177 42.1656C79.5177 42.2553 79.609 42.2553 79.7003 42.3449C79.7916 42.3449 79.8829 42.3449 79.9742 42.3449C80.1568 42.3449 80.2481 42.2553 80.2481 42.1656C80.3394 42.076 80.3394 41.8967 80.2481 41.7174L80.1568 41.2691L79.2438 41.4484L79.3351 41.8967C79.3351 41.9863 79.4264 42.076 79.5177 42.1656ZM63.358 69.5097C63.1754 69.3304 62.9015 69.3304 62.6276 69.42C62.3537 69.5097 62.1711 69.689 62.0798 69.9579C61.9885 70.2269 62.0798 70.5855 62.1711 71.0338C62.3537 71.482 62.5363 71.751 62.7189 71.9303C62.9015 72.1096 63.1754 72.1096 63.4493 72.0199C63.7232 71.9303 63.9058 71.751 63.9971 71.482C64.0884 71.2131 63.9971 70.8545 63.8145 70.4062C63.8145 69.8683 63.6319 69.5993 63.358 69.5097ZM72.3052 28.9867C72.0313 29.0763 71.7574 29.2556 71.3922 29.6143C71.027 29.9729 70.8444 30.2418 70.8444 30.5108C70.8444 30.7797 70.8444 30.959 71.027 31.1384C71.2096 31.3177 71.3922 31.4073 71.6661 31.3177C71.94 31.228 72.2139 31.0487 72.5791 30.6901C72.853 30.3315 73.0356 30.0625 73.1269 29.8832C73.1269 29.6143 73.1269 29.435 72.9443 29.2556C72.7617 28.9867 72.5791 28.897 72.3052 28.9867ZM78.6047 29.9729C73.0356 22.442 64.4536 19.2146 58.0627 18.4973C51.5806 17.7801 40.8074 19.3939 32.6819 28.2695C24.5564 37.1451 25.1955 47.993 25.1955 48.531C25.1955 48.7999 25.3781 52.8343 26.3824 56.1514C27.478 59.6479 29.5778 62.6961 29.6691 62.8754C29.6691 62.8754 30.2169 55.7928 31.0386 54.2687C34.5079 55.8825 37.9772 57.2273 37.9772 57.2273C37.9772 57.2273 35.4209 53.3722 35.3296 48.3517C34.9644 44.138 36.5164 39.1174 39.5293 35.5313C46.1027 27.6419 54.8673 28.1798 54.8673 28.1798C54.8673 28.1798 64.271 27.5522 70.8444 36.0692C77.4179 44.6759 73.5834 53.9101 73.5834 53.9101C73.5834 53.9101 72.3965 59.0203 66.5534 63.234C60.7104 67.4477 54.5934 66.9994 54.5934 66.9994C54.5934 66.9994 46.194 66.9097 40.4423 60.7237L40.351 60.6341L41.7204 59.6479C41.7204 59.6479 38.9815 58.6617 36.4252 57.7652C33.8688 56.779 31.6777 55.7928 31.6777 55.7928C31.6777 55.7928 31.1299 59.6479 30.9473 61.5306C30.7647 63.4133 30.5821 67.2684 30.5821 67.2684L31.9516 66.2822C34.6905 69.3304 41.903 76.8612 55.3238 76.8612C69.2011 76.8612 77.2353 66.9994 77.2353 66.9994C77.2353 66.9994 82.0741 62.2478 83.9913 53.9101C85.8173 45.6621 84.0826 37.5037 78.6047 29.9729ZM28.2084 50.593L28.0258 47.5448L29.03 47.4551L29.1213 49.4275L29.8517 49.3378L29.7604 47.5448L30.7647 47.4551L30.856 49.2482L31.769 49.1585L31.6777 47.2758L32.7732 47.1862L32.9558 50.324L28.2084 50.593ZM33.0471 44.2276L31.4038 44.7656L32.8645 45.6621L32.6819 46.9172L30.3995 45.3931L28.0258 46.2896L28.2084 45.0345L29.7604 44.5862L28.3909 43.6897L28.5735 42.4346L30.6734 43.869L33.2297 42.8828L33.0471 44.2276ZM33.321 42.5242L28.7561 41.1794L29.3039 39.3864C29.3952 39.0278 29.6691 38.7588 29.943 38.5795C30.2169 38.4899 30.5821 38.4899 31.0386 38.5795C31.4951 38.7588 31.8603 38.9381 32.0429 39.2071C32.2255 39.476 32.2255 39.8347 32.1342 40.2829L32.0429 40.9105L33.6862 41.4484L33.321 42.5242ZM35.6035 36.8761L34.0514 36.7865C33.8688 36.7865 33.6862 36.7865 33.5949 36.7865C33.5036 36.7865 33.4123 36.8761 33.321 36.9658L33.2297 37.0554L34.9644 37.952L34.4166 38.9381L30.2169 36.7865L31.1299 35.0831C31.3125 34.7245 31.4951 34.5452 31.5864 34.3658C31.769 34.1865 31.9516 34.1865 32.2255 34.1865C32.4993 34.1865 32.6819 34.2762 32.9558 34.3658C33.2297 34.4555 33.4123 34.6348 33.5036 34.8141C33.5949 34.9934 33.6862 35.1727 33.7775 35.352C33.7775 35.4417 33.7775 35.621 33.7775 35.8003C33.8688 35.7106 33.9601 35.621 34.0514 35.621C34.1427 35.621 34.234 35.621 34.3253 35.5313C34.5079 35.5313 34.5992 35.5313 34.6905 35.5313L36.1513 35.621L35.6035 36.8761ZM36.5164 35.4417L32.7732 32.5728L34.6905 30.1522L35.5122 30.7797L34.3253 32.3038L34.9644 32.7521L36.06 31.3177L36.7903 31.8556L35.6948 33.29L36.4252 33.8279L37.612 32.2142L38.4337 32.9314L36.5164 35.4417ZM40.6248 30.6901C40.5336 30.959 40.351 31.228 40.0771 31.4073C39.6206 31.8556 39.1641 32.0349 38.7989 31.9452C38.4337 31.8556 38.0685 31.6763 37.7033 31.4073L38.4337 30.6004C38.6163 30.7797 38.7989 30.8694 38.8902 30.8694C39.0728 30.959 39.3467 30.8694 39.438 30.6901C39.5293 30.6004 39.6206 30.4211 39.6206 30.3315C39.6206 30.2418 39.6206 30.0625 39.5293 29.9729C39.438 29.8832 39.3467 29.7936 39.1641 29.7936C39.0728 29.7936 38.7989 29.8832 38.525 29.9729C38.0685 30.2418 37.612 30.3315 37.3381 30.3315C36.9729 30.3315 36.699 30.1522 36.5164 29.8832C36.3339 29.7039 36.2426 29.5246 36.1513 29.2556C36.06 28.9867 36.06 28.8074 36.1513 28.5384C36.2426 28.2695 36.4252 28.0005 36.699 27.8212C37.0642 27.4626 37.4294 27.3729 37.7033 27.2833C38.0685 27.2833 38.4337 27.4626 38.7989 27.7316L38.0685 28.5384C37.8859 28.3591 37.7946 28.3591 37.612 28.3591C37.5207 28.3591 37.3381 28.3591 37.2468 28.5384C37.1555 28.6281 37.0642 28.7177 37.0642 28.8074C37.0642 28.897 37.0642 28.9867 37.1555 29.0763C37.2468 29.166 37.2468 29.166 37.3381 29.166C37.4294 29.166 37.5207 29.166 37.7033 29.0763C38.1598 28.8074 38.525 28.7177 38.7989 28.6281C39.0728 28.6281 39.2554 28.6281 39.5293 28.7177C39.7119 28.8074 39.9858 28.897 40.0771 29.0763C40.2597 29.2556 40.4423 29.5246 40.5336 29.7936C40.7161 30.2418 40.7161 30.4211 40.6248 30.6901ZM43.729 28.5384C43.6377 28.8074 43.3638 28.9867 43.0899 29.166C42.5421 29.5246 42.0856 29.6143 41.7204 29.5246C41.3552 29.435 40.99 29.166 40.7161 28.8074L41.6291 28.1798C41.8117 28.3591 41.903 28.4488 41.9943 28.5384C42.1769 28.6281 42.3595 28.6281 42.5421 28.5384C42.7247 28.4488 42.7247 28.3591 42.816 28.1798C42.816 28.0902 42.816 27.9109 42.7247 27.8212C42.6334 27.7316 42.5421 27.6419 42.4508 27.6419C42.3595 27.6419 42.0856 27.6419 41.8117 27.7316C41.2639 27.9109 40.8987 27.9109 40.5336 27.8212C40.2597 27.7316 39.9858 27.5522 39.8032 27.2833C39.7119 27.104 39.6206 26.835 39.5293 26.6557C39.5293 26.3868 39.5293 26.2075 39.7119 25.9385C39.8032 25.6695 40.0771 25.4902 40.4423 25.3109C40.8074 24.8627 41.1726 24.773 41.5378 24.8627C41.903 24.9523 42.1769 25.1316 42.5421 25.4902L41.6291 26.1178C41.4465 25.9385 41.3552 25.8488 41.2639 25.8488C41.1726 25.8488 40.99 25.8488 40.8987 25.9385C40.8074 26.0282 40.7161 26.1178 40.7161 26.2075C40.7161 26.2971 40.7161 26.3868 40.8074 26.4764C40.8074 26.5661 40.8987 26.5661 40.99 26.5661C41.0813 26.5661 41.1726 26.5661 41.4465 26.4764C41.9943 26.2971 42.3595 26.2075 42.6334 26.2075C42.9073 26.2075 43.0899 26.2971 43.3638 26.3868C43.5464 26.4764 43.729 26.6557 43.9116 26.9247C44.0942 27.1936 44.1855 27.4626 44.1855 27.7316C43.9116 28.0005 43.9116 28.2695 43.729 28.5384ZM55.7803 24.5937C55.5064 24.9523 55.1412 25.1316 54.6847 25.1316C54.2282 25.1316 53.863 24.9523 53.5891 24.5937C53.3152 24.2351 53.1326 23.7868 53.1326 23.2489C53.1326 22.711 53.2239 22.2627 53.5891 21.9041C53.863 21.5455 54.2282 21.3662 54.6847 21.3662C55.1412 21.3662 55.5064 21.5455 55.7803 21.9041C56.0542 22.2627 56.2368 22.711 56.2368 23.2489C56.1455 23.7868 56.0542 24.2351 55.7803 24.5937ZM41.903 71.1234L42.9073 69.5097L41.6291 68.7925L40.6248 70.4062L39.438 69.7786L41.8117 65.7443L42.9986 66.3718L42.1769 67.8063L43.4551 68.5235L44.2768 67.0891L45.4636 67.7166L42.9986 71.751L41.903 71.1234ZM49.7546 71.5717C49.572 72.1096 49.3894 72.4682 49.1155 72.7372C48.8417 73.0061 48.5678 73.1854 48.2026 73.2751C47.8374 73.3647 47.4722 73.3647 47.0157 73.1854C46.5592 73.0061 46.194 72.8268 45.9201 72.5579C45.6462 72.2889 45.4636 72.0199 45.4636 71.5717C45.3723 71.1234 45.4636 70.6752 45.5549 70.2269C45.7375 69.5097 46.1027 68.9718 46.6505 68.7028C47.107 68.4338 47.7461 68.3442 48.3852 68.5235C49.0242 68.7028 49.4807 69.0614 49.7546 69.5993C50.0285 70.2269 50.0285 70.8545 49.7546 71.5717ZM54.8673 70.9441L53.4978 70.8545L53.2239 74.3509L51.9458 74.1716L52.2197 70.6752L50.8502 70.5855L50.9415 69.42L54.9586 69.7786L54.8673 70.9441ZM59.4322 71.8406C59.2496 72.1096 58.7931 72.2889 58.3366 72.3786L57.6062 72.4682L57.7888 74.1716L56.5107 74.3509L55.8716 69.689L58.0627 69.42C58.5192 69.3304 58.8844 69.42 59.1583 69.689C59.4322 69.8683 59.6148 70.2269 59.6148 70.6752C59.7061 71.2131 59.6148 71.5717 59.4322 71.8406ZM65.3666 71.2131C65.3666 71.5717 65.184 71.9303 64.9101 72.1993C64.6362 72.4682 64.3623 72.7372 63.9058 72.8268C63.4493 73.0061 63.0841 73.0061 62.7189 73.0061C62.3537 72.9165 61.9885 72.8268 61.7146 72.4682C61.4407 72.1993 61.1669 71.751 60.9843 71.3027C60.7104 70.5855 60.7104 69.9579 60.893 69.42C61.0756 68.8821 61.532 68.5235 62.1711 68.2545C62.8102 67.9856 63.4493 68.0752 63.9058 68.3442C64.4536 68.6131 64.8188 69.0614 65.0014 69.7786C65.3666 70.4062 65.4578 70.8545 65.3666 71.2131ZM68.4707 70.7648L66.6447 67.8063L65.4578 68.5235L64.9101 67.5373L68.3794 65.4753L69.0185 66.4615L67.8316 67.1787L69.6575 70.1372L68.4707 70.7648ZM81.3437 41.7174C81.435 42.076 81.435 42.3449 81.435 42.5242C81.435 42.7035 81.2524 42.8828 81.1611 43.0622C80.9785 43.2415 80.7046 43.3311 80.4307 43.4208C80.1568 43.5104 79.9742 43.5104 79.7003 43.4208C79.5177 43.4208 79.3351 43.3311 79.1525 43.1518C79.0612 43.0622 78.9699 42.9725 78.8786 42.7932C78.8786 42.9725 78.7873 43.0622 78.7873 43.1518C78.7873 43.2415 78.696 43.2415 78.6047 43.4208C78.5134 43.5104 78.4221 43.6001 78.3308 43.6001L77.144 44.4069L76.7788 43.2415L78.0569 42.3449C78.2395 42.2553 78.3308 42.1656 78.3308 42.076C78.4221 41.9863 78.4221 41.8967 78.3308 41.807V41.7174L76.4136 42.1656L76.1397 41.0001L80.7959 39.9243L81.3437 41.7174ZM69.1098 27.8212C69.0185 27.8212 68.8359 27.8212 68.6533 27.7316C68.7446 27.8212 68.8359 27.9109 68.8359 28.0005C68.8359 28.0902 68.8359 28.1798 68.8359 28.2695C68.8359 28.4488 68.8359 28.5384 68.8359 28.6281L68.562 30.1522L67.4664 29.435L67.7403 27.9109C67.7403 27.7316 67.7403 27.5522 67.7403 27.4626C67.7403 27.3729 67.649 27.2833 67.5577 27.1936L67.4664 27.104L66.4621 28.7177L65.4578 28.0902L68.0142 24.1454L69.6575 25.1316C69.9314 25.3109 70.2053 25.4902 70.2966 25.6695C70.3879 25.8488 70.4792 26.0282 70.4792 26.2971C70.4792 26.5661 70.3879 26.7454 70.2053 27.0143C70.0227 27.1936 69.9314 27.3729 69.7488 27.5522C69.475 27.7316 69.2924 27.8212 69.1098 27.8212ZM71.3009 32.3935C70.9357 32.3038 70.6618 32.2142 70.2966 31.8556C70.0227 31.5866 69.7488 31.228 69.7488 30.959C69.6575 30.6901 69.6576 30.3315 69.8401 29.8832C69.9314 29.5246 70.2053 29.0763 70.5705 28.7177C71.1183 28.1798 71.6661 27.8212 72.2139 27.8212C72.7617 27.7316 73.2182 27.9109 73.6746 28.3591C74.1311 28.8074 74.3137 29.2556 74.3137 29.7936C74.3137 30.3315 73.9485 30.8694 73.4921 31.4073C73.1269 31.7659 72.7617 32.0349 72.3965 32.2142C72.0313 32.3935 71.6661 32.3935 71.3009 32.3935ZM72.853 34.5452L75.7745 32.5728L75.0441 31.5866L76.0484 30.959L78.0569 33.8279L77.0527 34.4555L76.4136 33.4693L73.4921 35.4417L72.853 34.5452ZM74.3137 36.5175L79.2438 35.8899L79.7916 37.0554L76.0484 40.2829L75.5006 39.2071L76.1397 38.7588L75.5919 37.414L74.7702 37.5933L74.3137 36.5175ZM78.9699 58.6617C78.7873 59.0203 78.4221 59.2893 77.9656 59.3789C77.5092 59.4686 77.0527 59.4686 76.5049 59.1996C76.0484 58.9307 75.6832 58.6617 75.5006 58.2134C75.318 57.7652 75.318 57.4066 75.5006 57.048C75.6832 56.6894 76.0484 56.4204 76.5049 56.3307C76.9614 56.2411 77.4179 56.2411 77.8744 56.51C78.3308 56.779 78.696 57.048 78.8786 57.4962C79.0612 57.9445 79.1525 58.3031 78.9699 58.6617ZM79.1525 47.1862L77.144 47.2758L77.0527 46.1103L79.0612 46.0207L81.8002 44.4966L81.8914 45.7517L80.3394 46.5586L81.9827 47.2758L82.0741 48.531L79.1525 47.1862ZM30.856 39.6554C30.6734 39.6554 30.5821 39.6554 30.4908 39.6554C30.3082 39.745 30.2169 39.8347 30.1256 40.1036L30.0343 40.3726L31.0386 40.6415L31.1299 40.3726C31.2212 40.1933 31.2212 40.014 31.1299 39.9243C31.1299 39.8347 30.9473 39.745 30.856 39.6554ZM58.2453 70.5855C58.154 70.4959 57.9714 70.4959 57.6975 70.4959H57.3323L57.4236 71.5717H57.7888C58.0627 71.5717 58.2453 71.482 58.3366 71.3924C58.4279 71.3027 58.4279 71.1234 58.4279 71.0338C58.3366 70.7648 58.3366 70.6752 58.2453 70.5855ZM78.3308 36.9658L76.5962 37.3244L76.9614 38.0416L78.3308 36.9658Z" fill="#787878"/>
<path d="M54.8673 16.7939C37.612 16.7939 23.5521 30.6004 23.5521 47.5448C23.5521 54.1791 25.7433 60.3651 29.3952 65.3857L29.4865 64.3098C26.1998 59.4686 24.2825 53.7308 24.2825 47.5448C24.2825 30.9591 37.9772 17.4215 54.8673 17.4215C71.7574 17.4215 85.452 30.8694 85.452 47.5448C85.452 64.2202 71.8487 77.6681 54.8673 77.6681C45.8288 77.6681 37.7033 73.813 32.0428 67.627L31.495 67.9856C37.2468 74.3509 45.5549 78.2956 54.8673 78.2956C72.1226 78.2956 86.1824 64.4891 86.1824 47.5448C86.2737 30.6004 72.2139 16.7939 54.8673 16.7939Z" fill="#787878"/>
</svg>
