<svg width="174" height="30" viewBox="0 0 174 30" fill="none" xmlns="http://www.w3.org/2000/svg">
<g clip-path="url(#clip0)">
<path d="M106.533 13.8655H110.003C110.003 13.7395 110.003 13.7395 110.003 13.7395C110.003 13.6134 110.003 13.4874 110.003 13.4874C110.003 12.7311 109.489 12.2269 108.718 12.2269C107.561 12.2269 106.919 12.9832 106.533 13.8655Z" fill="white"/>
<path d="M65.9247 13.8655H69.3944C69.3944 13.7395 69.3944 13.7395 69.3944 13.7395C69.3944 13.6134 69.3944 13.4874 69.3944 13.4874C69.3944 12.7311 68.8804 12.2269 68.1093 12.2269C67.0813 12.2269 66.3102 12.9832 65.9247 13.8655Z" fill="white"/>
<path d="M49.9897 18.0252H51.4033C52.3028 18.0252 53.2024 17.8992 53.9734 17.521C55.9011 16.5126 57.0576 14.2437 57.0576 11.9748C57.0576 10.2101 56.4151 9.20169 55.2585 8.69749C54.7445 8.44539 54.1019 8.31934 53.3309 8.31934H51.9173L49.9897 18.0252Z" fill="white"/>
<path d="M88.2851 5.04204L87.6425 8.06725H83.7873L84.4298 5.04204H88.2851ZM102.935 9.57985L102.421 12.353H101.136L96.1241 21.1765H91.4978L89.9557 12.353H88.6706L89.1846 9.57985H95.353L94.839 12.353H93.8109L94.325 16.5126C94.4535 16.8908 94.325 17.2689 94.325 17.521C94.325 17.6471 94.325 17.8992 94.325 18.0252H94.4535C94.4535 17.8992 94.582 17.6471 94.582 17.521C94.7105 17.2689 94.839 16.7647 95.096 16.5126L97.2806 12.353H96.2526L96.7666 9.57985H102.935ZM53.4594 5.04204C54.873 5.04204 56.0295 5.16809 57.1861 5.54624C59.7563 6.42859 61.1698 8.4454 61.1698 11.5967C61.1698 15.5042 58.8567 19.2857 55.13 20.5462C53.9734 20.9244 52.8168 21.1765 51.4032 21.1765H43.3072L43.8213 18.2773H45.6204L47.6765 8.06725H45.8774L46.6484 5.04204H53.4594ZM87.257 18.2773L86.743 21.0504H86.3574C86.1004 21.0504 85.8434 21.0504 85.4579 21.0504C83.6588 21.0504 81.7311 20.9244 81.7311 18.4034C81.7311 18.0252 81.8597 17.521 81.8597 17.0168L82.7592 12.2269H81.2171L81.7311 9.4538H87.257L85.8434 16.7647C85.7149 17.0168 85.7149 17.2689 85.7149 17.521C85.7149 18.0252 85.9719 18.2773 86.6145 18.2773C86.743 18.2773 86.8715 18.2773 86.8715 18.2773H87.257ZM79.675 18.1513L79.0325 21.1765H78.647C78.3899 21.1765 78.1329 21.1765 77.7474 21.1765C75.9483 21.1765 74.1492 20.7983 74.1492 18.2773C74.1492 17.7731 74.1492 17.2689 74.2777 16.7647L76.0768 7.81515H74.5347L75.1772 5.04204H80.7031L78.3899 16.5126C78.3899 16.8908 78.3899 17.1429 78.3899 17.395C78.3899 17.8992 78.647 18.1513 79.2895 18.1513C79.418 18.1513 79.5465 18.1513 79.675 18.1513ZM111.802 17.0168L112.83 19.916C112.445 20.1681 111.931 20.4202 111.417 20.6723C110.517 21.0504 109.36 21.4286 108.075 21.4286C104.092 21.4286 102.035 19.0336 102.035 16.3866C102.035 12.353 104.991 9.32775 108.846 9.32775C112.188 9.32775 113.858 11.2185 113.858 13.8656C113.858 14.3698 113.73 15 113.601 15.3782C113.473 15.6303 113.473 15.8824 113.344 16.1345H105.891V16.2605C105.891 16.3866 105.891 16.3866 105.891 16.3866C105.891 17.521 106.79 18.2773 108.204 18.2773C109.103 18.2773 110.003 18.0252 110.645 17.6471C111.031 17.395 111.417 17.2689 111.802 17.0168ZM71.1935 17.0168L72.2215 19.916C71.836 20.1681 71.322 20.4202 70.808 20.6723C69.9084 21.0504 68.7518 21.4286 67.4667 21.4286C63.483 21.4286 61.4269 19.0336 61.4269 16.3866C61.4269 12.353 64.3826 9.32775 68.2378 9.32775C71.579 9.32775 73.2496 11.2185 73.2496 13.8656C73.2496 14.3698 73.1211 15 72.9926 15.3782C72.8641 15.6303 72.8641 15.8824 72.7356 16.1345H65.2821V16.2605C65.2821 16.3866 65.2821 16.3866 65.2821 16.3866C65.2821 17.521 66.1817 18.2773 67.5953 18.2773C68.4948 18.2773 69.3944 18.0252 70.0369 17.6471C70.5509 17.395 70.9365 17.2689 71.1935 17.0168ZM32.127 29.3698H141.23H142.387H150.74L151.254 26.2185H146.114L146.756 22.563H157.037L157.551 19.4118H147.27L147.784 16.0084H165.004L165.647 12.479H137.118L131.335 22.1849C129.665 25.0841 127.609 25.8404 125.424 25.8404C124.267 25.8404 123.496 25.5883 122.854 25.3362C122.468 25.2101 122.211 24.958 121.954 24.832L123.625 22.1849C123.753 22.3109 123.882 22.3109 124.139 22.437C124.653 22.6891 125.038 22.6891 125.681 22.6891C126.452 22.6891 127.352 22.437 127.866 21.6807L127.994 21.5546L125.938 12.353H124.653L124.524 13.2353H124.267C124.139 13.2353 124.01 13.2353 123.753 13.2353C122.597 13.2353 120.284 13.9916 119.77 17.1429L118.999 21.3025H115.015L116.685 12.9832C116.814 12.7311 116.685 12.479 116.3 12.479H115.143L115.657 9.7059H119.384C120.284 9.7059 120.798 10.0841 120.798 10.7143C120.798 11.0925 120.669 11.8488 120.541 12.353C121.312 10.8404 122.982 9.4538 124.653 9.4538C124.91 9.4538 125.038 9.4538 125.167 9.4538H125.424V9.57985H131.721L131.207 12.353H129.793L130.436 16.6387C130.564 17.0168 130.436 17.395 130.436 17.6471V18.1513H130.564L130.693 17.6471C130.821 17.395 130.95 17.0168 131.207 16.6387L133.391 12.353H132.363L132.877 9.57985H136.476H173.486L174 6.42859H154.081L154.595 3.52943H160.635L161.149 0.378174H147.399H145.857H37.0103L32.127 29.3698Z" fill="white"/>
<path d="M13.1078 27.7311C17.7341 27.7311 23.9025 26.3445 24.6736 22.1849L26.4727 13.4874H15.935L14.9069 18.4034H19.4047L19.0192 20.1681C18.7622 21.6807 15.8065 22.0588 13.8789 22.0588C8.73855 22.0588 7.06795 19.1597 7.06795 15.5042C7.06795 10.9664 10.4092 5.54622 16.8346 5.54622C18.3767 5.54622 21.2038 5.92437 20.9468 7.56303L20.5613 9.57983H26.6012L27.5007 5.16807C28.4003 1.13445 20.6898 0 16.9631 0C7.58198 0 0.128508 7.05882 0 15.7563V16.0084C0.128508 22.9412 5.26883 27.7311 13.1078 27.7311Z" fill="white"/>
<path d="M15.678 30C20.3043 30 26.4727 28.6134 27.2437 24.4538L29.0428 15.7563H27.2437L25.8301 22.563C24.9306 27.605 18.1196 29.3697 12.7223 29.3697C11.9512 29.3697 11.1802 29.3697 10.5377 29.2437C12.0798 29.7479 13.7504 30 15.678 30Z" fill="white"/>
<path d="M23.0029 11.8487H29.0428L29.9424 7.43697C30.1994 6.05041 29.6854 5.04201 28.6573 4.28571C28.6573 4.66386 28.6573 5.16806 28.5288 5.54621L27.6292 9.83192C27.5007 10.5882 26.8582 11.0924 26.0871 11.0924H23.1314L23.0029 11.8487Z" fill="white"/>
<path d="M9.76658 19.6639C9.63808 19.0336 9.63808 18.4034 9.63808 17.7731C9.63808 13.3613 12.8508 8.06723 18.8907 7.81513V7.56303C18.5051 7.31093 17.6056 7.18488 16.449 7.18488C10.7946 7.18488 8.22449 12.1008 8.22449 15.6303C8.22449 17.6471 8.61001 18.9076 9.76658 19.6639Z" fill="white"/>
</g>
<defs>
<clipPath id="clip0">
<rect width="174" height="30" fill="white"/>
</clipPath>
</defs>
</svg>
