<?xml version="1.0" encoding="utf-8"?>
<!-- Generator: Adobe Illustrator 25.0.0, SVG Export Plug-In . SVG Version: 6.00 Build 0)  -->
<svg version="1.1" id="Layer_1" xmlns="http://www.w3.org/2000/svg" xmlns:xlink="http://www.w3.org/1999/xlink" x="0px" y="0px"
	 viewBox="0 0 200 35" style="enable-background:new 0 0 200 35;" xml:space="preserve">
<style type="text/css">
	.st0{fill:#E56D30;}
	.st1{fill:#FFFFFF;}
	.st2{fill:url(#SVGID_1_);}
	.st3{fill:#D77443;}
	.st4{fill:#DB7443;}
</style>
<g>
	<path class="st1" d="M17.38,2.31C8.54,2.38,1.61,9.24,1.67,17.51c0.05,6.67,4.93,11.23,12.34,11.17
		c4.28-0.03,10.04-1.39,10.76-5.39l1.58-8.28l-9.8,0.07l-0.89,4.64l4.14-0.03l-0.34,1.75c-0.27,1.43-3.02,1.88-4.8,1.89
		c-4.85,0.04-6.36-2.7-6.39-6.12c-0.03-4.31,3.1-9.5,9.05-9.55c1.43-0.01,4.07,0.29,3.79,1.9l-0.34,1.86l5.63-0.04l0.79-4.14
		C28.01,3.27,20.84,2.29,17.38,2.31"/>
	<polygon class="st1" points="30.48,15.22 29.49,20.58 40.68,20.49 41.68,15.14 	"/>
	<path class="st1" d="M64.79,3.2c-1.71-0.56-3.46-0.79-5.75-0.78L48.32,2.51l-0.86,4.64l2.82-0.02l-3.01,16.24l-2.82,0.02
		l-0.86,4.64l12.51-0.09c2.14-0.02,3.88-0.28,5.73-0.97c5.69-2.22,9.32-8.13,9.27-14.33C71.07,7.76,68.83,4.6,64.79,3.2
		 M59.87,22.06c-1.14,0.58-2.45,0.87-3.95,0.88l-2.21,0.02l2.88-15.53l2.21-0.02c1.25-0.01,2.17,0.13,3.07,0.51
		c1.83,0.81,2.8,2.47,2.82,5.22C64.72,16.93,62.85,20.54,59.87,22.06"/>
	<path class="st1" d="M82.98,8.95c-6.06,0.05-10.55,4.89-10.5,11.27c0.03,4.31,3.16,8,9.43,7.95c2.14-0.02,3.95-0.64,5.27-1.25
		c0.78-0.36,1.49-0.76,2.13-1.19l-1.6-4.55c-0.53,0.36-1.1,0.69-1.7,0.94c-1.03,0.47-2.35,0.95-3.74,0.96
		c-2.17,0.02-3.61-1.15-3.62-3c0-0.11,0.03-0.15,0.03-0.25l0-0.11l11.55-0.09c0.14-0.36,0.24-0.75,0.35-1.14
		c0.17-0.68,0.31-1.57,0.3-2.39C90.84,11.85,88.18,8.91,82.98,8.95 M84.85,15.99c-0.04,0.11-0.04,0.18-0.03,0.29l-5.42,0.04
		c0.56-1.47,1.69-2.72,3.51-2.74c1.25-0.01,1.97,0.84,1.98,1.98C84.88,15.67,84.88,15.85,84.85,15.99"/>
	<path class="st1" d="M101.04,22.86c-1,0.01-1.39-0.31-1.4-1.17c0-0.39,0.07-0.86,0.17-1.39l3.36-18.2l-8.66,0.06l-0.82,4.46
		l2.5-0.02l-2.67,14.28c-0.17,0.82-0.24,1.61-0.23,2.32c0.03,4.06,2.92,4.61,5.74,4.59c0.53,0,0.92-0.01,1.32-0.05l0.53-0.08
		l0.92-4.86l-0.21,0C101.44,22.82,101.3,22.86,101.04,22.86"/>
	<path class="st1" d="M109.91,2.05l-0.89,4.82l6.02-0.05L115.93,2L109.91,2.05z M113.77,23.08c-1,0.01-1.39-0.45-1.4-1.27
		c0-0.39,0.03-0.79,0.13-1.18l2.16-11.5L106,9.2l-0.82,4.46l2.5-0.02l-1.41,7.5c-0.17,0.89-0.27,1.61-0.27,2.28
		c0.03,3.99,2.95,4.22,5.77,4.2c0.54,0,0.93-0.01,1.32-0.05l0.53-0.07l0.82-4.46l-0.22,0C114.09,23.05,113.91,23.08,113.77,23.08"/>
	<path class="st1" d="M129.78,9.03l-0.86,4.46l1.64-0.01l-3.34,6.65c-0.28,0.54-0.52,1.18-0.7,1.65c-0.1,0.25-0.17,0.54-0.25,0.79
		l-0.14,0c0.03-0.25,0.03-0.53,0.03-0.79c0-0.46,0.03-1.1-0.08-1.64l-0.87-6.62l1.64-0.01l0.86-4.46l-9.59,0.07l-0.86,4.46
		l2.07-0.02l2.49,13.88l7.27-0.05l7.7-13.96l2.07-0.02l0.86-4.46L129.78,9.03z"/>
	<path class="st1" d="M149.7,8.45c-6.06,0.05-10.55,4.89-10.5,11.27c0.03,4.31,3.16,8,9.43,7.95c2.14-0.02,3.95-0.64,5.27-1.25
		c0.78-0.36,1.49-0.76,2.13-1.19l-1.6-4.55c-0.53,0.36-1.1,0.69-1.7,0.94c-1.03,0.47-2.35,0.95-3.74,0.96
		c-2.17,0.02-3.61-1.15-3.62-3c0-0.11,0.03-0.15,0.03-0.25l0-0.11l11.55-0.09c0.14-0.36,0.24-0.75,0.35-1.14
		c0.17-0.68,0.31-1.57,0.3-2.39C157.56,11.35,154.9,8.41,149.7,8.45 M151.57,15.49c-0.04,0.11-0.03,0.18-0.03,0.29l-5.42,0.04
		c0.56-1.47,1.69-2.72,3.51-2.74c1.25-0.01,1.97,0.84,1.98,1.98C151.6,15.17,151.6,15.35,151.57,15.49"/>
	<path class="st1" d="M175.79,8.4c-0.11-0.04-0.36-0.03-0.75-0.03c-2.6,0.02-5.15,2.11-6.31,4.61l-0.07,0
		c0.24-0.82,0.48-2.04,0.48-2.57c-0.01-1.11-0.76-1.67-2.22-1.66l-5.81,0.04l-0.86,4.46l1.71-0.01c0.61,0,0.75,0.39,0.65,0.78
		l-2.43,13.14l6.17-0.05l1.2-6.57c0.82-4.85,4.41-6.13,6.23-6.14c0.39,0,0.64,0,0.89,0.03l0.32,0.07l1.13-6.07
		C176,8.43,175.9,8.43,175.79,8.4"/>
	<path class="st1" d="M188.83,8.58l-0.82,4.46l1.67-0.01l-3.44,6.83c-0.32,0.61-0.56,1.15-0.73,1.61l-0.28,0.79l-0.14,0l0.07-0.79
		c0.03-0.46,0.06-1.07-0.05-1.6l-0.98-6.8l1.78-0.01l0.82-4.46l-9.91,0.07L176,13.14l2.07-0.02l3.28,14.73l-0.1,0.18
		c-0.7,1.15-2.02,1.51-3.3,1.52c-0.96,0.01-1.78,4.97-0.07,4.95c3.35-0.03,6.48-1.33,9.12-5.95l8.83-15.57l1.89-0.01l0.82-4.46
		L188.83,8.58z"/>
</g>
</svg>
