<svg width="109" height="109" viewBox="0 0 109 109" fill="none" xmlns="http://www.w3.org/2000/svg">
<rect width="109" height="109" rx="19" fill="#FFFCFC"/>
<path d="M60.8583 60.9317C60.8583 60.8537 60.8583 60.8537 60.8583 60.9317C60.8583 60.7756 60.7807 60.7756 60.7807 60.7756C60.0823 60.5415 59.5392 59.9171 59.384 59.2147C59.1512 58.0439 59.8496 56.9512 61.0135 56.639C61.2462 56.561 61.479 56.639 61.7118 56.639C61.7894 56.639 61.7894 56.639 61.867 56.561C61.867 56.483 61.867 56.4049 61.867 56.4049C61.6342 56.1708 61.479 55.9366 61.3238 55.6244C61.3238 55.5464 61.1686 55.4683 61.0911 55.5464L58.2201 57.1854C58.2201 57.1854 58.1425 57.1854 58.1425 57.2634C57.9097 57.6537 57.8322 58.0439 57.8322 58.4342C57.9097 59.3708 58.4529 60.2293 59.3064 60.6976C59.4616 60.7756 59.6168 61.0878 59.4616 61.2439C58.8409 62.1805 59.384 63.039 60.2375 63.5073C60.3151 63.5073 60.3151 63.5073 60.3927 63.5073L62.1774 62.4927C62.255 62.4147 62.255 62.2586 62.1774 62.2586C61.5566 62.1025 61.0135 61.6342 60.8583 60.9317Z" fill="#787878"/>
<path d="M67.9192 58.6683C67.8416 58.3561 67.8416 58.122 67.8416 57.8098C67.5312 57.1854 66.9881 56.7171 66.4449 56.4049C65.7466 56.0147 64.8931 55.9366 64.1947 56.0927C63.8068 56.1708 63.4188 56.3269 63.1084 56.561C62.8756 56.7171 62.7204 56.9512 62.5653 57.1854L62.4877 57.2634C62.1773 57.6537 61.8669 57.5756 61.5566 57.4976C61.4014 57.4976 61.3238 57.4195 61.1686 57.4976C60.8582 57.5756 60.5478 57.7317 60.3927 58.0439C60.2375 58.3561 60.1599 58.6683 60.2375 58.9805C60.3151 59.3708 60.5478 59.683 60.8582 59.8391C60.9358 59.8391 61.0134 59.9171 61.091 59.9171C61.1686 59.9171 61.2462 59.9951 61.3238 59.9951C61.479 60.0732 61.6341 60.2293 61.6341 60.4634C61.7117 60.7756 61.8669 61.0878 62.0997 61.2439C62.3325 61.4 62.5653 61.4781 62.8756 61.4C63.1084 61.322 63.3412 61.2439 63.4188 61.0098C63.4188 61.0098 63.4964 60.9317 63.4964 60.8537C63.574 60.6976 63.6516 60.5415 63.7292 60.4634C63.8843 60.3854 64.1171 60.3854 64.2723 60.4634C64.3499 60.4634 64.3499 60.4634 64.4275 60.4634C64.8155 60.4634 65.2034 60.3073 65.4362 59.9951C65.669 59.683 65.7466 59.2927 65.669 58.9025C65.5914 58.5903 65.4362 58.2781 65.1258 58.122C64.8155 57.9659 64.5051 57.8878 64.1947 57.9659C63.8068 58.0439 63.4964 58.3561 63.4188 58.6683C63.3412 58.8244 63.4188 59.0586 63.574 59.2147C63.7292 59.3708 63.7292 59.683 63.574 59.8391C63.4964 59.9171 63.4188 59.9951 63.2636 59.9951C63.1084 59.9951 63.0308 59.9171 62.9532 59.8391C62.5653 59.4488 62.4101 58.9805 62.5653 58.4342C62.7204 57.8098 63.3412 57.2634 63.9619 57.1073C65.1258 56.8732 66.2121 57.5756 66.5225 58.7464C66.5225 58.9025 66.6001 59.0586 66.6001 59.2147C66.8329 59.2927 67.0657 59.3708 67.2208 59.5269L67.9968 59.0586C67.9968 58.9805 67.9968 58.8244 67.9192 58.6683Z" fill="#787878"/>
<path d="M64.9706 53.8293C64.8931 53.8293 64.7379 53.9854 64.5827 54.0634C64.3499 54.2976 64.2723 54.6878 64.3499 55V55.078C64.5051 55.078 64.6603 55.078 64.8155 55.078C65.5138 55.078 66.2121 55.2341 66.8329 55.5463C67.1432 55.7024 67.4536 55.9366 67.764 56.2488C67.9192 56.4049 68.0744 56.3268 68.152 56.1707C68.3071 55.7805 68.4623 55.4683 68.6951 55.1561L68.7727 55.078L66.1345 53.5171C66.0569 53.439 65.9018 53.5171 65.8242 53.5951C65.7466 53.6732 65.669 53.7512 65.5138 53.7512C65.4362 53.7512 65.3586 53.7512 65.281 53.7512C65.1258 53.8293 65.0482 53.8293 64.9706 53.8293Z" fill="#787878"/>
<path d="M69.1607 57.8097C69.3159 57.1853 69.8591 56.4049 70.635 56.1707L69.7039 55.6244C69.6263 55.5463 69.4711 55.6244 69.3935 55.7024C68.8504 56.4829 68.6176 57.4975 68.7728 58.4341C68.7728 58.5122 68.7728 58.5902 68.8504 58.6683L69.0056 58.5902C69.0056 58.3561 69.0832 58.0439 69.1607 57.8097Z" fill="#787878"/>
<path d="M55.8923 60.2293C56.0475 61.0878 56.6683 61.4781 57.4442 61.7903C57.677 61.8683 57.8321 62.1024 57.7546 62.3366C57.4442 63.1171 57.5994 64.1317 58.0649 64.8342C58.1425 64.9122 58.2977 64.9903 58.3753 64.9122L59.3064 64.3659C59.4616 64.2878 59.4616 64.1317 59.384 63.9756C58.6081 63.2732 58.2201 62.3366 58.6081 61.4C58.6081 61.322 58.6081 61.2439 58.5305 61.1659C57.677 60.4634 57.1338 59.5268 57.1338 58.4342C57.1338 58.4342 57.1338 58.4342 57.1338 58.3561C57.1338 58.2 56.9786 58.0439 56.8234 58.122L56.2803 58.4342L56.2027 58.5122C55.8147 58.9805 55.7371 59.6049 55.8923 60.2293Z" fill="#787878"/>
<path d="M57.3667 65.1464C56.8236 64.3659 56.6684 63.4293 56.8236 62.4927C56.8236 62.4147 56.8236 62.3366 56.746 62.3366C55.8925 61.9464 55.2717 61.322 55.1165 60.3073C55.1165 60.1512 55.0389 60.1512 55.0389 60.1512V63.1171C55.0389 63.1171 55.0389 63.1171 55.0389 63.1951C55.2717 63.8195 55.6597 64.522 55.9701 64.9903C56.1252 65.3025 56.358 65.5366 56.5908 65.7708C56.6684 65.8488 56.746 65.8488 56.8236 65.7708L57.3667 65.4586C57.3667 65.3805 57.4443 65.2244 57.3667 65.1464Z" fill="#787878"/>
<path d="M55.2716 65.5365C55.194 65.3804 55.0388 65.2243 54.9612 65.0682V66.7073L55.8147 66.239C55.6595 66.0829 55.5043 65.8487 55.2716 65.5365Z" fill="#787878"/>
<path d="M62.0997 55.2341C62.1773 55.4683 62.2549 55.6244 62.4101 55.7805C62.4877 55.8585 62.5652 55.8585 62.5652 55.7805C62.8756 55.5463 63.186 55.3902 63.4964 55.3122C63.574 55.3122 63.574 55.3122 63.6516 55.2341V55.1561C63.574 54.8439 63.574 54.6097 63.6516 54.2976C63.6516 54.1415 63.574 54.0634 63.4188 54.1415L62.0997 54.9219C62.0221 54.9219 62.0221 55 62.0221 55.078C62.0997 55.1561 62.0997 55.1561 62.0997 55.2341Z" fill="#787878"/>
<path d="M70.4022 57.1073C70.3246 57.2634 70.0918 57.5756 70.1694 58.0439L71.7989 57.0293L71.1005 56.639C70.7902 56.639 70.5574 56.9512 70.4022 57.1073Z" fill="#787878"/>
<path d="M62.4102 37.283C62.9533 37.5952 63.4965 37.9074 64.5828 37.9074C65.6691 37.9074 66.2898 37.5952 66.7554 37.283C67.2209 36.9708 67.6865 36.7367 68.6176 36.7367C69.5487 36.7367 69.9367 36.9708 70.4798 37.283C70.5574 37.3611 70.635 37.3611 70.7126 37.4391L71.4109 37.0489C71.1782 36.9708 71.023 36.8147 70.7902 36.7367C70.247 36.4245 69.7039 36.1123 68.6176 36.1123C67.5313 36.1123 66.9106 36.4245 66.445 36.7367C65.9794 37.0489 65.5139 37.283 64.5828 37.283C63.6516 37.283 63.2637 37.0489 62.7205 36.7367C62.1774 36.4245 61.6342 36.1123 60.5479 36.1123C60.0824 36.1123 59.6944 36.1904 59.384 36.2684L60.3151 36.8147C60.3927 36.8147 60.4703 36.8147 60.5479 36.8147C61.479 36.7367 61.867 37.0489 62.4102 37.283Z" fill="#787878"/>
<path d="M68.6176 38.3757C68.7728 38.3757 68.928 38.3757 69.0831 38.3757L70.0143 37.8294C69.7039 37.6733 69.2383 37.5952 68.6952 37.5952C67.6089 37.5952 66.9881 37.9074 66.5226 38.2196C66.057 38.5318 65.5914 38.7659 64.6603 38.7659C64.35 38.7659 64.1172 38.7659 63.8844 38.6879L65.2035 39.4684C65.9794 39.3903 66.445 39.0781 66.8329 38.844C67.2985 38.6098 67.6865 38.3757 68.6176 38.3757Z" fill="#787878"/>
<path d="M58.7636 32.444C59.2291 32.1318 59.6947 31.8976 60.6258 31.8976C61.5569 31.8976 61.9449 32.1318 62.488 32.444C63.0312 32.7562 63.5743 33.0684 64.6606 33.0684C65.7469 33.0684 66.2901 32.7562 66.8333 32.444L66.1349 32.0537C65.7469 32.2098 65.359 32.3659 64.6606 32.3659C63.7295 32.3659 63.3416 32.1318 62.7984 31.8196C62.2553 31.5074 61.7121 31.1952 60.6258 31.1952C59.5395 31.1952 58.9188 31.5074 58.4532 31.8196C57.9876 32.1318 57.5221 32.3659 56.591 32.3659C56.0478 32.3659 55.6599 32.2879 55.3495 32.1318V32.9123C55.6599 32.9903 56.0478 33.0684 56.591 33.0684C57.6773 33.1464 58.2204 32.7562 58.7636 32.444Z" fill="#787878"/>
<path d="M58.6084 27.761L57.9101 27.3707C57.5997 27.5268 57.2117 27.6049 56.591 27.6049C56.0478 27.6049 55.6599 27.5268 55.3495 27.3707V28.1512C55.6599 28.2293 56.0478 28.3073 56.591 28.3073C57.5221 28.3073 58.0652 27.9951 58.6084 27.761Z" fill="#787878"/>
<path d="M56.7462 26.6684L55.3495 25.8098V26.4342C55.6599 26.5123 56.0478 26.5903 56.591 26.5903C56.591 26.6684 56.6686 26.6684 56.7462 26.6684Z" fill="#787878"/>
<path d="M60.5479 33.5367C61.479 33.5367 61.867 33.7708 62.4101 34.083C62.9533 34.3952 63.4964 34.7074 64.5827 34.7074C65.669 34.7074 66.2898 34.3952 66.7553 34.083C67.2209 33.7708 67.6865 33.5367 68.54 33.5367L67.5313 32.9123C67.0657 33.0684 66.6777 33.2245 66.3674 33.4586C65.9018 33.7708 65.4363 34.005 64.5051 34.005C63.574 34.005 63.1861 33.7708 62.6429 33.4586C62.0998 33.1464 61.5566 32.8342 60.4703 32.8342C59.384 32.8342 58.7633 33.1464 58.2977 33.4586C57.8321 33.7708 57.3666 34.005 56.4355 34.005C55.8923 34.005 55.5043 33.9269 55.194 33.7708V33.8489L56.6682 34.7074C57.5994 34.6294 58.1425 34.3172 58.6081 34.083C59.2288 33.7708 59.6168 33.5367 60.5479 33.5367Z" fill="#787878"/>
<path d="M58.7636 29.2439C59.2291 29.0098 59.6171 28.7756 60.3154 28.6976L59.3843 28.1512C58.9964 28.3073 58.686 28.4634 58.4532 28.6195C57.9876 28.9317 57.5221 29.1659 56.591 29.1659C56.0478 29.1659 55.6599 29.0878 55.3495 28.9317V29.7122C55.6599 29.7903 56.0478 29.8683 56.591 29.8683C57.6773 29.8683 58.2204 29.5561 58.7636 29.2439Z" fill="#787878"/>
<path d="M60.5479 35.1757C61.479 35.1757 61.867 35.4099 62.4101 35.722C62.9533 36.0342 63.4964 36.3464 64.5827 36.3464C65.669 36.3464 66.2898 36.0342 66.7553 35.722C67.2209 35.4099 67.6864 35.1757 68.6175 35.1757C69.5487 35.1757 69.9366 35.4099 70.4798 35.722C70.9453 36.0342 71.5661 36.3464 72.6524 36.3464L73.0404 36.1123L72.1868 35.644C71.6437 35.566 71.2557 35.3318 70.8677 35.0977C70.3246 34.7855 69.7814 34.4733 68.6951 34.4733C67.6088 34.4733 66.9881 34.7855 66.5225 35.0977C66.057 35.4099 65.5914 35.644 64.6603 35.644C63.7292 35.644 63.3412 35.4099 62.7981 35.0977C62.2549 34.7855 61.7118 34.4733 60.6255 34.4733C59.5392 34.4733 58.9184 34.7855 58.4529 35.0977C58.2977 35.1757 58.1425 35.2538 57.9873 35.3318L58.6856 35.722L58.7632 35.644C59.2288 35.4099 59.6168 35.1757 60.5479 35.1757Z" fill="#787878"/>
<path d="M58.7637 30.883C59.2293 30.5708 59.6949 30.3367 60.626 30.3367C61.5571 30.3367 61.9451 30.5708 62.4882 30.883C63.0314 31.1952 63.5745 31.5074 64.6608 31.5074C64.816 31.5074 64.9712 31.5074 65.1264 31.5074L63.7297 30.7269C63.4193 30.6489 63.109 30.4928 62.8762 30.3367C62.333 30.0245 61.7899 29.7123 60.7036 29.7123C59.6173 29.7123 58.9965 30.0245 58.531 30.3367C58.0654 30.6489 57.5999 30.883 56.6687 30.883C56.1256 30.883 55.7376 30.805 55.4272 30.6489V31.4294C55.7376 31.5074 56.1256 31.5855 56.6687 31.5855C57.6774 31.5074 58.2206 31.1952 58.7637 30.883Z" fill="#787878"/>
<path d="M54.9612 34.7073L45.0293 40.4829V52.0341L54.9612 57.8097L64.8931 52.0341V40.4048L54.9612 34.7073ZM64.35 40.7951V51.6439L54.9612 57.1073L45.5724 51.6439V40.7951L54.9612 35.3317L64.35 40.7951Z" fill="#787878"/>
<path d="M49.1418 60.9317C49.1418 60.8537 49.1418 60.8537 49.1418 60.9317C49.1418 60.7756 49.2194 60.7756 49.2194 60.7756C49.9177 60.5415 50.4609 59.9171 50.6161 59.2147C50.8488 58.0439 50.1505 56.9512 48.9866 56.639C48.7538 56.561 48.5211 56.639 48.2883 56.639C48.2107 56.639 48.2107 56.639 48.1331 56.561C48.1331 56.483 48.1331 56.4049 48.1331 56.4049C48.3659 56.1708 48.5211 55.9366 48.6762 55.6244C48.6762 55.5464 48.8314 55.4683 48.909 55.5464L51.78 57.1854C51.78 57.1854 51.8576 57.1854 51.8576 57.2634C52.0903 57.6537 52.1679 58.0439 52.1679 58.4342C52.0903 59.3708 51.5472 60.2293 50.6937 60.6976C50.5385 60.7756 50.3833 61.0878 50.5385 61.2439C51.1592 62.1805 50.6161 63.039 49.7625 63.5073C49.685 63.5073 49.685 63.5073 49.6074 63.5073L47.8227 62.4927C47.7451 62.4147 47.7451 62.2586 47.8227 62.2586C48.4435 62.1025 48.9866 61.6342 49.1418 60.9317Z" fill="#787878"/>
<path d="M42.0809 58.6683C42.1585 58.3561 42.1585 58.122 42.1585 57.8098C42.4689 57.1854 43.012 56.7171 43.5552 56.4049C44.2535 56.0147 45.107 55.9366 45.8054 56.0927C46.1933 56.1708 46.5813 56.3269 46.8917 56.561C47.1244 56.7171 47.2796 56.9512 47.4348 57.1854L47.5124 57.2634C47.8228 57.6537 48.1331 57.5756 48.4435 57.4976C48.5987 57.4976 48.6763 57.4195 48.8315 57.4976C49.1419 57.5756 49.4522 57.7317 49.6074 58.0439C49.7626 58.3561 49.8402 58.6683 49.7626 58.9805C49.685 59.3708 49.4522 59.683 49.1419 59.8391C49.0643 59.8391 48.9867 59.9171 48.9091 59.9171C48.8315 59.9171 48.7539 59.9951 48.6763 59.9951C48.5211 60.0732 48.3659 60.2293 48.3659 60.4634C48.2883 60.7756 48.1331 61.0878 47.9004 61.2439C47.6676 61.4 47.4348 61.4781 47.1244 61.4C46.8917 61.322 46.6589 61.2439 46.5813 61.0098C46.5813 61.0098 46.5037 60.9317 46.5037 60.8537C46.4261 60.6976 46.3485 60.5415 46.2709 60.4634C46.1157 60.3854 45.8829 60.3854 45.7278 60.4634C45.6502 60.4634 45.6502 60.4634 45.5726 60.4634C45.1846 60.4634 44.7966 60.3073 44.5639 59.9951C44.3311 59.683 44.2535 59.2927 44.3311 58.9025C44.4087 58.5903 44.5639 58.2781 44.8742 58.122C45.1846 57.9659 45.495 57.8878 45.8054 57.9659C46.1933 58.0439 46.5037 58.3561 46.5813 58.6683C46.6589 58.8244 46.5813 59.0586 46.4261 59.2147C46.2709 59.3708 46.2709 59.683 46.4261 59.8391C46.5037 59.9171 46.5813 59.9951 46.7365 59.9951C46.8917 59.9951 46.9692 59.9171 47.0468 59.8391C47.4348 59.4488 47.59 58.9805 47.4348 58.4342C47.2796 57.8098 46.6589 57.2634 46.0381 57.1073C44.8742 56.8732 43.7879 57.5756 43.4776 58.7464C43.4776 58.9025 43.4 59.0586 43.4 59.2147C43.1672 59.2927 42.9344 59.3708 42.7792 59.5269L42.0033 59.0586C42.0033 58.9805 42.0033 58.8244 42.0809 58.6683Z" fill="#787878"/>
<path d="M45.0293 53.8293C45.1069 53.8293 45.2621 53.9854 45.4173 54.0634C45.6501 54.2976 45.7277 54.6878 45.6501 55V55.078C45.4949 55.078 45.3397 55.078 45.1845 55.078C44.4862 55.078 43.7879 55.2341 43.1671 55.5463C42.8567 55.7024 42.5464 55.9366 42.236 56.2488C42.0808 56.4049 41.9256 56.3268 41.848 56.1707C41.6929 55.7805 41.5377 55.4683 41.3049 55.1561L41.2273 55.078L43.8655 53.5171C43.943 53.439 44.0982 53.5171 44.1758 53.5951C44.2534 53.6732 44.331 53.7512 44.4862 53.7512C44.5638 53.7512 44.6414 53.7512 44.719 53.7512C44.8742 53.8293 44.9518 53.8293 45.0293 53.8293Z" fill="#787878"/>
<path d="M40.8394 57.8097C40.6842 57.1853 40.141 56.4049 39.3651 56.1707L40.2962 55.6244C40.3738 55.5463 40.529 55.6244 40.6066 55.7024C41.1497 56.4829 41.3825 57.4975 41.2273 58.4341C41.2273 58.5122 41.2273 58.5902 41.1497 58.6683L40.9946 58.5902C40.9946 58.3561 40.917 58.0439 40.8394 57.8097Z" fill="#787878"/>
<path d="M54.1078 60.2293C53.9527 61.0878 53.3319 61.4781 52.556 61.7903C52.3232 61.8683 52.168 62.1024 52.2456 62.3366C52.556 63.1171 52.4008 64.1317 51.9352 64.8342C51.8576 64.9122 51.7025 64.9903 51.6249 64.9122L50.6937 64.3659C50.5386 64.2878 50.5386 64.1317 50.6162 63.9756C51.3921 63.2732 51.78 62.3366 51.3921 61.4C51.3921 61.322 51.3921 61.2439 51.4697 61.1659C52.3232 60.4634 52.8664 59.5268 52.8664 58.4342C52.8664 58.4342 52.8664 58.4342 52.8664 58.3561C52.8664 58.2 53.0215 58.0439 53.1767 58.122L53.7199 58.4342L53.7975 58.5122C54.1854 58.9805 54.263 59.6049 54.1078 60.2293Z" fill="#787878"/>
<path d="M52.6335 65.1464C53.1766 64.3659 53.3318 63.4293 53.1766 62.4927C53.1766 62.4147 53.1766 62.3366 53.2542 62.3366C54.1078 61.9464 54.7285 61.322 54.8837 60.3073C54.8837 60.1512 54.9613 60.1512 54.9613 60.1512V63.1171C54.9613 63.1171 54.9613 63.1171 54.9613 63.1951C54.7285 63.8195 54.3405 64.522 54.0302 64.9903C53.875 65.3025 53.6422 65.5366 53.4094 65.7708C53.3318 65.8488 53.2542 65.8488 53.1766 65.7708L52.6335 65.4586C52.6335 65.3805 52.5559 65.2244 52.6335 65.1464Z" fill="#787878"/>
<path d="M54.7285 65.5365C54.8061 65.3804 54.9613 65.2243 55.0389 65.0682V66.7073L54.1078 66.239C54.3406 66.0829 54.4958 65.8487 54.7285 65.5365Z" fill="#787878"/>
<path d="M47.9004 55.2341C47.8228 55.4683 47.7452 55.6244 47.59 55.7805C47.5124 55.8585 47.4348 55.8585 47.4348 55.7805C47.1244 55.5463 46.8141 55.3902 46.5037 55.3122C46.4261 55.3122 46.4261 55.3122 46.3485 55.2341V55.1561C46.4261 54.8439 46.4261 54.6097 46.3485 54.2976C46.3485 54.1415 46.4261 54.0634 46.5813 54.1415L47.9004 54.9219C47.9004 55 47.9004 55 47.9004 55.078C47.9004 55.1561 47.9004 55.1561 47.9004 55.2341Z" fill="#787878"/>
<path d="M39.5978 57.1073C39.6754 57.2634 39.9082 57.5756 39.8306 58.0439L38.2012 57.0293L38.8995 56.639C39.2099 56.639 39.4427 56.9512 39.5978 57.1073Z" fill="#787878"/>
<path d="M38.0461 56.2487C37.8133 56.0926 37.5029 56.0146 37.2701 55.9365V55.078C37.8133 55.2341 38.3564 55.4682 38.8996 55.7804L38.0461 56.2487Z" fill="#787878"/>
<path d="M38.8218 41.8878C38.5891 42.0439 38.4339 42.2 38.2787 42.4342C37.9683 42.0439 37.5803 41.8098 37.1924 41.5756V40.639C37.8131 40.9512 38.3563 41.3415 38.8218 41.8878Z" fill="#787878"/>
<path d="M37.1924 42.6682C37.3476 42.8243 37.5028 42.9024 37.6579 43.0585C37.5028 43.2146 37.3476 43.4487 37.1924 43.6048V42.6682Z" fill="#787878"/>
<path d="M40.1411 50.083C39.9083 50.239 39.6755 50.3171 39.5203 50.4732C38.8996 49.6927 38.1237 49.0683 37.2701 48.7561V47.8976C38.3564 48.2878 39.3652 49.0683 40.1411 50.083Z" fill="#787878"/>
<path d="M41.6929 49.4586C41.4602 49.5366 41.2274 49.6147 40.9946 49.6927C39.9859 48.2878 38.6668 47.3512 37.2701 46.883V46.0244C38.9772 46.4927 40.529 47.6634 41.6929 49.4586Z" fill="#787878"/>
<path d="M37.2701 51.7999C37.4253 51.878 37.5029 52.0341 37.6581 52.1121C37.5029 52.2682 37.4253 52.4243 37.2701 52.5804V51.7999Z" fill="#787878"/>
<path d="M37.2701 50.7073V49.7708C37.8133 50.0829 38.3564 50.4732 38.822 51.0195C38.5892 51.1756 38.434 51.3317 38.2789 51.5659C37.9685 51.1756 37.5805 50.9415 37.2701 50.7073Z" fill="#787878"/>
<path d="M42.3911 48.9122C42.7791 48.522 43.3222 48.2098 43.7878 48.1317V49.0683C43.3998 49.0683 42.9343 49.1463 42.5463 49.2244C42.5463 49.0683 42.4687 48.9903 42.3911 48.9122Z" fill="#787878"/>
<path d="M43.7881 41.8097C41.5379 41.8878 39.4429 43.1365 38.0462 45.2439C37.8135 45.1658 37.5807 45.0878 37.3479 45.0097C38.8222 42.5902 41.3051 41.0292 43.8657 40.9512L43.7881 41.8097Z" fill="#787878"/>
<path d="M40.7618 39.078C41.1498 39.4683 41.4602 39.8585 41.7705 40.3268C41.5378 40.4048 41.305 40.4829 41.0722 40.5609C40.0635 39.1561 38.7444 38.1414 37.2701 37.6731V36.9707L40.7618 39.078Z" fill="#787878"/>
<path d="M40.2187 41.0293C39.9859 41.1854 39.7531 41.2634 39.5979 41.4195C38.8996 40.561 38.1237 40.0146 37.2701 39.6244V38.7659C38.3564 39.1561 39.3652 39.9366 40.2187 41.0293Z" fill="#787878"/>
<path d="M40.2185 46.4926C41.1496 45.3219 42.4687 44.6194 43.8654 44.5414V45.3999C42.7791 45.478 41.6152 46.0243 40.8393 46.9609C40.6065 46.8048 40.3737 46.6487 40.2185 46.4926Z" fill="#787878"/>
<path d="M41.3824 47.5853C42.0032 46.8829 42.9343 46.4146 43.7878 46.3365V47.1951C43.0895 47.2731 42.3136 47.6634 41.848 48.2097C41.6928 47.9756 41.5376 47.8195 41.3824 47.5853Z" fill="#787878"/>
<path d="M43.7877 42.7463V43.6049C42.1583 43.6829 40.5288 44.5415 39.4425 45.9463C39.2097 45.7902 39.0546 45.7122 38.8218 45.5561C40.1409 43.9171 41.9255 42.8244 43.7877 42.7463Z" fill="#787878"/>
<path d="M38.8995 54.6878C40.141 52.9707 41.9256 51.9561 43.8654 51.8781V52.7366C42.236 52.8146 40.6065 53.7512 39.5202 55.1561C39.2874 54.922 39.0547 54.8439 38.8995 54.6878C38.8219 54.6878 38.8995 54.6878 38.8995 54.6878Z" fill="#787878"/>
<path d="M37.2701 54.0634C38.822 51.5659 41.2274 50.0829 43.788 50.0049V50.8634C41.5378 50.9415 39.4427 52.1902 38.0461 54.2976C37.8133 54.2195 37.5029 54.1415 37.2701 54.0634Z" fill="#787878"/>
<path d="M51.7798 29.8683C51.8574 29.7122 52.0902 29.6342 52.2454 29.5561C52.7109 29.4781 53.1765 29.4781 53.7196 29.4C53.5644 28.8537 53.2541 28.7756 52.7885 28.7756C51.8574 28.7756 51.3142 29.0878 50.9263 29.8683C50.6935 30.3366 50.6159 30.6488 51.0039 31.0391C51.2367 30.6488 51.4694 30.2586 51.7798 29.8683Z" fill="#787878"/>
<path d="M50.7711 29.1659C51.0039 28.7756 51.0039 28.4634 50.6935 28.1512L50.5384 28.2293C50.3056 28.6195 50.0728 28.9317 49.84 29.322C49.7624 29.4781 49.5296 29.5561 49.3745 29.6342C48.9865 29.7122 48.5209 29.7122 48.133 29.7122L47.9778 29.7903C48.133 30.3366 48.2106 30.3366 48.7537 30.3366C49.6848 30.4147 50.3056 30.0244 50.7711 29.1659Z" fill="#787878"/>
<path d="M53.5645 30.8049C53.9524 30.8049 54.3404 30.7269 54.6508 30.6488V29.7903C54.4956 29.9464 54.3404 30.0244 54.1076 30.0244C53.6421 30.0244 53.1765 30.1025 52.7109 30.1025C52.7885 30.6488 53.0989 30.8049 53.5645 30.8049Z" fill="#787878"/>
<path d="M54.2628 27.9951C54.0301 28.4634 53.9525 28.7756 54.3404 29.1659C54.418 29.0098 54.4956 28.9317 54.5732 28.7756V27.5269C54.4956 27.6049 54.3404 27.761 54.2628 27.9951Z" fill="#787878"/>
<path d="M53.1765 27.2927C53.0989 27.4488 52.8661 27.5268 52.711 27.6049C52.323 27.6829 51.8574 27.6829 51.3919 27.6829L51.2367 27.761C51.3919 28.3073 51.4695 28.3073 52.0126 28.3073C52.9437 28.3854 53.5645 27.9951 54.03 27.1366C54.2628 26.7463 54.2628 26.4341 53.9525 26.1219L53.7973 26.2C53.7197 26.5902 53.4869 26.9805 53.1765 27.2927Z" fill="#787878"/>
<path d="M43.167 39.3122L43.7101 39.6244C43.7101 39.3902 43.6325 39.2341 43.3998 39C43.3222 39.078 43.2446 39.1561 43.167 39.3122Z" fill="#787878"/>
<path d="M44.0206 33.1463C44.2534 32.7561 44.2534 32.4439 43.943 32.1317L43.7102 32.2878C43.555 32.522 43.3223 32.8342 43.1671 33.0683C42.9343 33.4585 42.7015 33.6146 42.3136 33.6146C42.0032 33.6146 41.6928 33.6146 41.3824 33.6927L41.1497 33.8488C41.3048 34.239 41.5376 34.3951 42.0032 34.3951C43.0119 34.3951 43.555 34.0049 44.0206 33.1463Z" fill="#787878"/>
<path d="M40.6065 35.1756C40.8392 34.7854 40.9168 34.4732 40.6065 34.161L40.3737 34.3171C40.1409 34.6293 39.9857 34.9415 39.7529 35.2537C39.5977 35.4878 39.4426 35.5659 39.1322 35.5659C38.7442 35.5659 38.4339 35.6439 38.0459 35.6439L37.8131 35.8C37.9683 36.2683 38.2787 36.2683 38.6666 36.3464C39.5977 36.3464 40.2185 36.0342 40.6065 35.1756Z" fill="#787878"/>
<path d="M40.7617 36.0342C40.5289 36.5025 40.6065 36.7366 40.9169 37.1269C41.1497 36.7366 41.3824 36.3464 41.6152 36.0342C41.7704 35.8001 41.9256 35.644 42.3136 35.644C42.7791 35.644 43.1671 35.5659 43.6326 35.5659C43.4775 34.9415 43.3999 34.9415 42.7791 34.9415C41.7704 34.7854 41.1497 35.1757 40.7617 36.0342Z" fill="#787878"/>
<path d="M48.4434 31.8976C48.521 31.7415 48.7537 31.6635 48.9089 31.6635C49.3745 31.5854 49.9176 31.5854 50.3832 31.5074C50.228 30.961 49.9176 30.883 49.4521 30.8049C48.521 30.8049 47.9778 31.1171 47.5122 31.8976C47.2795 32.3659 47.2795 32.6781 47.5898 32.9903C47.9002 32.6781 48.133 32.2879 48.4434 31.8976Z" fill="#787878"/>
<path d="M47.357 30.1024L47.1243 30.2585C46.8915 30.5707 46.7363 30.8049 46.5811 31.1171C46.3483 31.5073 46.1155 31.6634 45.65 31.6634C45.3396 31.6634 45.0292 31.6634 44.7189 31.7414L44.4861 31.8975C44.7965 32.5219 44.7965 32.5219 45.4948 32.3658C45.5724 32.3658 45.5724 32.3658 45.65 32.3658C46.8915 32.6 47.1243 31.5853 47.5122 30.8829C47.6674 30.6488 47.5122 30.4146 47.357 30.1024Z" fill="#787878"/>
<path d="M45.0293 33.9268C45.1069 33.7707 45.3396 33.6146 45.4948 33.6146C45.9604 33.5365 46.426 33.5365 46.8915 33.4585C46.7363 32.9122 46.5035 32.8341 45.9604 32.8341C45.0293 32.8341 44.4861 33.1463 44.0982 34.0048C43.7878 34.5512 43.7878 34.5512 44.1758 35.0975C44.4861 34.7073 44.7189 34.239 45.0293 33.9268Z" fill="#787878"/>
<path d="M44.0982 37.283C43.1671 37.283 42.6239 37.5952 42.1584 38.4537C42.0808 38.5317 42.0808 38.6098 42.0032 38.6878L42.5463 39C42.7015 38.7659 42.8567 38.5317 43.0119 38.2976C43.0895 38.1415 43.3223 38.0634 43.4774 38.0634C43.943 37.9854 44.4861 37.9854 44.9517 37.9074C44.8741 37.4391 44.6413 37.283 44.0982 37.283Z" fill="#787878"/>
<path d="M40.2185 37.4391C39.9857 36.8147 39.9857 36.8147 39.365 36.8147C39.2098 36.8147 39.0546 36.8147 38.8994 36.8147L39.9857 37.4391C40.0633 37.5171 40.1409 37.4391 40.2185 37.4391Z" fill="#787878"/>
<path d="M54.6507 33.2244V32.6C54.4956 32.6 54.3404 32.6 54.1852 32.6C54.2628 33.0683 54.3404 33.1463 54.6507 33.2244Z" fill="#787878"/>
<path d="M53.2541 32.2878C53.3317 32.1317 53.5645 32.0537 53.7197 32.0537C54.0301 31.9756 54.3404 31.9756 54.6508 31.9756V31.3512C54.4956 31.3512 54.418 31.2732 54.2629 31.2732C53.3317 31.2732 52.7886 31.5854 52.323 32.4439C52.0903 32.9122 52.0903 33.2244 52.4006 33.5366C52.711 33.1464 52.9438 32.6781 53.2541 32.2878Z" fill="#787878"/>
<path d="M46.7363 36.9707C46.4259 37.3609 46.1932 37.8292 45.9604 38.2195C45.8828 38.3756 45.65 38.4536 45.4948 38.5317C45.0293 38.6097 44.5637 38.6097 44.0981 38.6878C44.2533 39.3122 44.3309 39.3122 44.9517 39.3122C45.1069 39.3122 45.262 39.3122 45.4172 39.3122L46.6587 38.5317C46.7363 38.3756 46.8139 38.2975 46.8915 38.1414C47.1243 37.5951 47.1243 37.3609 46.7363 36.9707Z" fill="#787878"/>
<path d="M53.4869 32.9902C53.3317 33.2244 53.0989 33.5366 52.9437 33.7707C52.7109 34.3171 52.2454 34.5512 51.7022 34.4732C51.3919 34.4732 51.0815 34.5512 50.7711 34.5512C50.9263 35.0976 51.1591 35.1756 51.6246 35.1756C51.7798 35.1756 51.8574 35.1756 52.0126 35.1756L53.4869 34.3171C53.5645 34.239 53.6421 34.161 53.6421 34.0049C53.7972 33.6146 53.8748 33.3805 53.4869 32.9902Z" fill="#787878"/>
<path d="M42.0807 37.5951C42.3135 37.1268 42.3911 36.8927 41.9255 36.5024C41.6928 36.8146 41.46 37.1268 41.3048 37.5171C41.1496 37.7512 41.072 37.9073 40.8392 37.9854L41.5376 38.3756C41.6928 38.1415 41.9255 37.9073 42.0807 37.5951Z" fill="#787878"/>
<path d="M50.228 34.9414C50.1504 34.9414 50.1504 34.9414 50.0728 34.9414C49.84 35.3317 49.5297 35.6438 49.3745 36.0341C49.2193 36.3463 48.9865 36.4243 48.6761 36.4243C48.2106 36.4243 47.8226 36.5024 47.3571 36.5024C47.5898 37.2048 47.5898 37.2048 48.2882 37.1268C48.3658 37.1268 48.3658 37.1268 48.4434 37.1268C48.521 37.1268 48.5985 37.1268 48.6761 37.1268L49.9952 36.3463C50.1504 36.1121 50.228 35.878 50.3832 35.6438C50.5384 35.5658 50.3056 35.2536 50.228 34.9414Z" fill="#787878"/>
<path d="M46.5035 36.3463C46.5811 36.1902 46.8139 36.1122 46.9691 36.0342C47.4347 35.9561 47.9002 35.9561 48.3658 35.8781C48.2106 35.2537 48.133 35.2537 47.5122 35.2537C46.5811 35.2537 46.038 35.5659 45.5724 36.4244C45.3396 36.8927 45.3396 37.2049 45.65 37.5171C45.9604 37.1268 46.1932 36.7366 46.5035 36.3463Z" fill="#787878"/>
<path d="M45.4172 35.5658C45.6499 35.0975 45.6499 34.8634 45.262 34.4731C45.0292 34.8634 44.7964 35.2536 44.486 35.6439C44.4085 35.8 44.1757 35.9561 43.9429 35.9561C43.4773 36.0341 43.0118 36.0341 42.4686 36.1122C42.6238 36.5805 42.8566 36.7366 43.3222 36.7366C44.4085 36.8146 45.0292 36.4244 45.4172 35.5658Z" fill="#787878"/>
<path d="M48.8313 33.6147C49.0641 33.2244 49.1417 32.9122 48.7537 32.522C48.5209 32.9122 48.2106 33.3025 47.9778 33.6927C47.8226 33.8488 47.6674 34.0049 47.4346 34.0049C46.9691 34.0829 46.5035 34.0829 46.038 34.161C46.1156 34.7854 46.4259 34.7854 46.8915 34.7854C47.8226 34.7854 48.3658 34.4732 48.8313 33.6147Z" fill="#787878"/>
<path d="M49.8401 34.317C49.9177 34.1609 50.0729 34.0829 50.228 34.0829C50.6936 34.0048 51.2368 34.0048 51.7023 33.9268C51.5471 33.4585 51.3919 33.2243 50.8488 33.3024C49.9953 33.3804 49.3745 33.4585 48.9866 34.317C48.6762 34.9414 48.5986 34.8634 48.9866 35.5658C49.2969 35.0975 49.6073 34.7073 49.8401 34.317Z" fill="#787878"/>
<path d="M52.1679 31.5854C52.4006 31.1171 52.4006 30.8829 52.0127 30.4927C51.7023 30.8829 51.4695 31.3512 51.2367 31.7415C51.1592 31.8976 50.9264 31.9756 50.7712 32.0537C50.3056 32.1317 49.8401 32.1317 49.3745 32.1317C49.5297 32.7561 49.6073 32.7561 50.228 32.7561C51.0816 32.8341 51.7799 32.5219 52.1679 31.5854Z" fill="#787878"/>
<path d="M68.4624 49.4586C68.6952 49.5366 68.928 49.6147 69.1607 49.6927C70.1694 48.2878 71.4885 47.3512 72.8852 46.883V46.0244C71.1782 46.4927 69.5487 47.6634 68.4624 49.4586Z" fill="#787878"/>
<path d="M68.4624 40.3268C68.6952 40.4049 68.928 40.4829 69.1607 40.561C70.1694 39.1561 71.4885 38.2195 72.8852 37.7512V36.8927C72.73 36.9707 72.5748 36.9707 72.4196 37.0488L70.4022 38.2976C69.6263 38.8439 69.0056 39.5464 68.4624 40.3268Z" fill="#787878"/>
<path d="M72.73 56.0927C72.8076 56.0927 72.8076 56.0147 72.8852 56.0147V55.1561C72.3421 55.3122 71.7989 55.5464 71.3334 55.8586L72.1869 56.3269C72.4197 56.2488 72.5749 56.1708 72.73 56.0927Z" fill="#787878"/>
<path d="M70.4022 40.3269C70.247 40.483 70.0918 40.7171 69.9366 40.8732C71.1781 41.5757 72.2644 42.5903 73.0404 43.761V42.5123C72.2644 41.7318 71.4109 40.9513 70.4022 40.3269Z" fill="#787878"/>
<path d="M71.0229 39.7806C71.7989 40.2489 72.4196 40.7952 73.0404 41.4196V40.3269C72.6524 39.9367 72.1868 39.5464 71.7213 39.2343C71.4109 39.3904 71.1781 39.5464 71.0229 39.7806Z" fill="#787878"/>
<path d="M72.9628 39.2343V38.6099C72.7301 38.6879 72.5749 38.766 72.4197 38.844C72.6525 38.9221 72.8076 39.0782 72.9628 39.2343Z" fill="#787878"/>
<path d="M69.1607 52.5805C68.8503 52.4244 68.54 52.2683 68.2296 52.1122C67.6864 52.4244 67.1433 52.7366 66.6777 53.1268L67.4537 53.5951C67.9192 53.1268 68.4624 52.8146 69.1607 52.5805Z" fill="#787878"/>
<path d="M67.4536 51.8781H67.3761C66.9881 51.8001 66.6777 51.722 66.2898 51.722H66.2122V52.5806C66.6001 52.3464 66.9881 52.1123 67.3761 51.9562L67.4536 51.8781Z" fill="#787878"/>
<path d="M71.4886 54.8439C71.3334 54.6098 71.1782 54.3756 70.9454 54.1415C70.4799 54.3756 70.0143 54.6098 69.6263 54.922L70.4799 55.3903C70.7902 55.1561 71.1006 55 71.4886 54.8439Z" fill="#787878"/>
<path d="M70.4798 53.5952C70.2471 53.361 70.0143 53.2049 69.7815 53.0488C69.1608 53.283 68.6176 53.6732 68.0745 53.9854L68.8504 54.4537C69.316 54.0635 69.8591 53.8293 70.4798 53.5952Z" fill="#787878"/>
<path d="M70.9454 48.9123C71.7214 49.3025 72.4197 49.8488 72.9629 50.4732V49.4586C72.4973 49.0684 72.0317 48.7562 71.5662 48.444C71.3334 48.522 71.1006 48.6781 70.9454 48.9123Z" fill="#787878"/>
<path d="M70.2471 49.5366C70.0919 49.6927 69.9367 49.9269 69.7815 50.161C71.023 50.7854 72.1093 51.722 72.9628 52.8927V51.722C72.1869 50.7854 71.3334 50.0049 70.2471 49.5366Z" fill="#787878"/>
<path d="M72.2645 47.9756C72.4973 48.1317 72.7301 48.2878 72.9629 48.4439V47.7415L72.8077 47.8195C72.6525 47.7415 72.4973 47.8195 72.2645 47.9756Z" fill="#787878"/>
<path d="M70.4798 44.3854C70.3246 44.1512 70.0919 43.9951 69.8591 43.761C68.4624 44.3854 67.2985 45.322 66.2898 46.4146V47.8195C67.2209 46.2585 68.6952 45.0878 70.4798 44.3854Z" fill="#787878"/>
<path d="M67.4537 49.1464C68.3848 47.5854 69.7815 46.3366 71.4885 45.6342C71.3333 45.4 71.1781 45.1659 71.0229 45.0098C69.1607 45.8683 67.6088 47.1951 66.6777 48.9122C66.9105 48.9903 67.2209 49.0683 67.4537 49.1464Z" fill="#787878"/>
<path d="M66.2898 42.5122L66.2122 43.2927C66.6001 43.0585 66.9105 42.8244 67.2985 42.6683C66.9881 42.5903 66.6777 42.5903 66.2898 42.5122Z" fill="#787878"/>
<path d="M69.0831 43.3708C68.8504 43.1366 68.54 43.0586 68.2296 42.9025C67.5313 43.2147 66.9105 43.683 66.2898 44.1512V45.2439C67.0657 44.4634 67.9968 43.8391 69.0831 43.3708Z" fill="#787878"/>
<path d="M72.1093 45.244C72.342 45.1659 72.5748 45.0879 72.8076 45.0098C71.3333 42.5903 68.8504 41.0293 66.2898 40.9513V41.8098C68.6176 41.8879 70.7126 43.1367 72.1093 45.244Z" fill="#787878"/>
<path d="M66.2898 50.8635C68.54 50.9415 70.635 52.1903 72.0316 54.2976V54.3757C72.2644 54.2976 72.73 54.1415 72.73 54.1415C71.1781 51.722 68.7727 50.1611 66.2122 50.083L66.2898 50.8635Z" fill="#787878"/>
<path d="M54.8836 23L34.787 34.7073V58.0439L54.8836 69.7512L74.9802 58.0439V34.7073L54.8836 23ZM55.0388 68.1902L36.2613 57.2634V35.4098L55.0388 24.561L73.8163 35.4878V57.3415L55.0388 68.1902Z" fill="#787878"/>
<path d="M52.8666 39.4683V39H54.884C54.8064 38.7659 54.7288 38.6098 54.6512 38.3757L55.1944 38.2976C55.1944 38.4537 55.272 38.6098 55.3496 38.8439C55.3496 38.922 55.4271 39 55.4271 39.0781H57.1342V39.5464H56.4359C56.2807 40.3269 55.9703 40.9513 55.4271 41.4196C55.8927 41.7318 56.4359 41.9659 57.1342 42.122C57.0566 42.2781 56.9014 42.4342 56.8238 42.5903C56.0479 42.3561 55.4271 42.0439 54.9616 41.8098C54.5736 42.0439 54.0305 42.3561 53.1769 42.6683C53.0994 42.5122 53.0218 42.3561 52.8666 42.2C53.5649 42.0439 54.1857 41.7318 54.5736 41.4976C54.1081 41.0293 53.7977 40.4049 53.5649 39.6244H52.8666V39.4683ZM54.9616 41.0293C55.4271 40.6391 55.6599 40.0927 55.8151 39.4683H54.1081C54.2633 40.0927 54.5736 40.6391 54.9616 41.0293Z" fill="#787878"/>
<path d="M53.1766 45.2439V44.8537H56.7459V45.2439H56.2803V45.6342H56.9787V46.0244H56.2803V46.4146H56.7459V46.8049H55.1164V47.1951H56.9787V47.5854H55.1164V48.1317H54.6509V47.5854H52.7887V47.1951H54.6509V46.8049H53.0214V46.4146H53.487V46.0244H52.7111V45.6342H53.487V45.2439H53.1766ZM55.582 44.6976V44.4634H54.4957V44.6976H54.0301V44.4634H53.0214V44.0732H54.0301V43.761H54.4957V44.0732H55.582V43.761H56.0476V44.0732H57.0563V44.4634H56.0476V44.6976H55.582ZM54.1077 45.2439V45.6342H54.7285V45.2439H54.1077ZM54.1077 46.0244V46.4146H54.7285V46.0244H54.1077ZM55.194 45.2439V45.6342H55.8148V45.2439H55.194ZM55.194 46.0244V46.4146H55.8148V46.0244H55.194Z" fill="#787878"/>
<path d="M53.1769 53.5171C53.0218 53.361 52.9442 53.283 52.8666 53.2049C53.0218 52.8927 53.0994 52.6586 53.1769 52.3464C53.2545 52.1122 53.2545 51.644 53.2545 51.1757V49.6147H55.0392L54.884 49.3025H55.4271C55.4271 49.3025 55.4271 49.3805 55.5047 49.5366C55.5047 49.6147 55.5047 49.6927 55.5047 49.6927H57.1342V50.083H53.5649V51.2537C53.5649 51.8781 53.5649 52.2683 53.4873 52.6586C53.4097 52.8147 53.3321 53.2049 53.1769 53.5171ZM53.6425 53.283V52.9708H54.0305V52.7366H53.7977V52.5025H54.0305V52.2683H53.7977V52.0342H54.5736V52.2683H54.3408V52.5025H54.5736V52.7366H54.3408V52.9708H54.5736C54.5736 53.0488 54.5736 53.1269 54.5736 53.2049C54.496 53.2049 54.3408 53.2049 54.1081 53.2049C53.8753 53.283 53.7201 53.283 53.6425 53.283ZM53.7201 50.4732V50.161H55.1168V50.4732H54.9616V53.5171H54.6512V51.8781H53.6425V51.5659H53.8753V50.3952H53.7201V50.4732ZM54.1857 50.4732V50.7074H54.6512V50.4732H54.1857ZM54.1857 50.9415V51.1757H54.6512V50.9415H54.1857ZM54.1857 51.3318V51.5659H54.6512V51.3318H54.1857ZM55.272 53.283L54.9616 53.2049C55.0392 52.9708 55.1168 52.8147 55.1944 52.5805L55.4271 52.6586C55.4271 52.7366 55.3496 52.8927 55.272 53.0488C55.272 53.1269 55.272 53.2049 55.272 53.283ZM55.1168 52.3464V52.0342H57.1342V52.3464H56.2031C56.2807 52.5025 56.3583 52.5805 56.4359 52.7366L56.1255 52.8927C56.0479 52.6586 55.9703 52.5025 55.8927 52.4244L56.0479 52.3464H55.1168ZM55.9703 50.083H56.2807V50.3171H57.1342V50.6293H56.2807V50.8635H57.0566V51.8001H55.272V50.8635H56.0479V50.6293H55.272V50.3171H56.0479V50.083H55.9703ZM55.5047 51.1757V51.5659H55.7375V51.1757H55.5047ZM56.9014 53.2049C56.8238 53.0488 56.8238 52.9708 56.7462 52.8927C56.7462 52.8927 56.7462 52.9708 56.7462 53.0488C56.7462 53.1269 56.7462 53.1269 56.7462 53.2049C56.6686 53.361 56.591 53.4391 56.3583 53.4391H55.9703C55.7375 53.4391 55.5823 53.361 55.5823 53.0488V52.5025H55.8927V52.9708C55.8927 53.0488 55.9703 53.1269 56.0479 53.1269H56.2031C56.3583 53.1269 56.3583 53.1269 56.4359 52.9708C56.4359 52.8927 56.5134 52.8147 56.5134 52.7366C56.591 52.8147 56.6686 52.8147 56.8238 52.8147L56.7462 52.5805L56.979 52.5025C56.979 52.5805 57.0566 52.6586 57.1342 52.7366C57.2118 52.8927 57.2894 52.9708 57.2894 53.0488L56.9014 53.2049ZM55.9703 51.1757V51.5659H56.2031V51.1757H55.9703ZM56.7462 51.1757H56.4359V51.5659H56.6686V51.1757H56.7462Z" fill="#787878"/>
<path d="M75.213 74.2781V87H79.0151V82.3951H82.8947V87H86.7744V74.2781H75.213ZM82.8947 78.883H79.0151V77.7122H82.8947V78.883Z" fill="#787878"/>
<path d="M96.3183 87V82.3951H100.198V87H104V74.2781H100.198V78.883H96.3183V74.2781H92.5162V87H96.3183Z" fill="#787878"/>
<path d="M44.4085 82.161L49.5296 86.7659H52.0902V74.0439H48.2882V78.6488L43.167 74.0439H40.6064V86.7659H44.4085V82.161Z" fill="#787878"/>
<path d="M14.0697 74.0439L11.7419 76.3854L9.41409 74.0439H6V86.7659H9.49169V79.2732L11.7419 81.6147L14.0697 79.2732V86.7659H17.5614V74.0439H14.0697Z" fill="#787878"/>
<path d="M65.9795 87L63.6517 84.6586L61.3239 87H57.9098V74.2781H61.3239V81.7708L63.6517 79.4293L65.9795 81.7708V74.2781H69.3936V87H65.9795Z" fill="#787878"/>
<path d="M23.3032 74.0439V86.7659H27.1053V82.161H30.9849V86.7659H34.8646V74.0439H23.3032ZM30.9849 78.6488H27.1053V77.4781H30.9849V78.6488Z" fill="#787878"/>
</svg>
