<svg width="48" height="32" viewBox="0 0 48 32" fill="none" xmlns="http://www.w3.org/2000/svg">
<g id="mastercard-solid-large">
<path id="Shape" fill-rule="evenodd" clip-rule="evenodd" d="M4 0H44C46.2091 0 48 1.79086 48 4V28C48 30.2091 46.2091 32 44 32H4C1.79086 32 0 30.2091 0 28V4C0 1.79086 1.79086 0 4 0ZM22.22 25.46C19.5053 23.0644 17.9472 19.6205 17.94 16C17.9236 12.3744 19.4859 8.92119 22.22 6.54C17.7565 4.27325 12.316 5.43474 9.16729 9.32658C6.01861 13.2184 6.01861 18.7816 9.16729 22.6734C12.316 26.5653 17.7565 27.7267 22.22 25.46ZM24 7.66C26.558 9.67161 28.0513 12.7458 28.0513 16C28.0513 19.2542 26.558 22.3284 24 24.34C21.4385 22.3306 19.9425 19.2556 19.9425 16C19.9425 12.7444 21.4385 9.6694 24 7.66ZM25.78 25.46C27.2619 26.2095 28.8993 26.6 30.56 26.6C34.9422 26.5926 38.8681 23.8893 40.4382 19.7981C42.0084 15.7069 40.8992 11.0712 37.6472 8.13381C34.3952 5.19645 29.6709 4.56302 25.76 6.54C26.3479 7.03804 26.8839 7.5942 27.36 8.2C31.4818 13.4655 30.7893 21.0303 25.78 25.46Z" fill="white"/>
<g id="mastercard">
<g id="Group" opacity="0.01">
<path id="Shape_2" fill-rule="evenodd" clip-rule="evenodd" d="M4.65 28.8V3.2H43.35V28.8H4.65ZM8.47394 10.2822C5.5367 14.8926 6.58736 20.9807 10.9 24.34C14.1327 26.8874 18.5508 27.3245 22.22 25.46C19.5053 23.0644 17.9472 19.6205 17.94 16C17.9286 12.3712 19.4985 8.91747 22.24 6.54C17.3729 4.05106 11.4112 5.67169 8.47394 10.2822ZM24 24.34C21.4385 22.3306 19.9425 19.2556 19.9425 16C19.9425 12.7444 21.4385 9.6694 24 7.66C26.558 9.67161 28.0513 12.7458 28.0513 16C28.0513 19.2542 26.558 22.3284 24 24.34ZM25.78 25.46C27.2619 26.2095 28.8993 26.6 30.56 26.6C34.9422 26.5926 38.8681 23.8893 40.4383 19.7981C42.0084 15.7069 40.8992 11.0712 37.6472 8.13381C34.3952 5.19644 29.6709 4.56302 25.76 6.54C26.3479 7.03804 26.8839 7.5942 27.36 8.2C31.4818 13.4655 30.7893 21.0303 25.78 25.46Z" fill="white"/>
</g>
<path id="Shape_3" fill-rule="evenodd" clip-rule="evenodd" d="M39.94 22.23V22.16H40.29V22.23H40.14V22.57H40.08V22.23H39.94ZM40.59 22.45L40.72 22.16H40.82V22.57H40.75V22.26L40.64 22.53H40.56L40.44 22.26V22.57H40.36V22.16H40.47L40.59 22.45Z" fill="white"/>
</g>
</g>
</svg>
