<svg width="109" height="109" viewBox="0 0 109 109" fill="none" xmlns="http://www.w3.org/2000/svg">
<rect width="109" height="109" rx="19" fill="#FFFCFC"/>
<path d="M71.2623 31.7619C71.1661 31.2857 70.9736 30.9048 70.5887 30.7143L65.0076 27.2857C64.7189 27.0952 64.4302 27 64.1415 27C63.468 27 62.7944 27.4762 62.6981 28.1429L62.3132 29.7619C60.1963 28.2381 57.6944 27.4762 55.0963 27.4762C46.6283 27.4762 39.7963 36.2381 39.7963 47.0952C39.7963 57.9524 46.6283 66.7143 55.0963 66.7143C63.5642 66.7143 70.3963 57.9524 70.3963 47.0952C70.3963 43 69.434 39.2857 67.7981 36.1429L70.8774 33C71.1661 32.619 71.2623 32.2381 71.2623 31.7619ZM57.2132 40.0476C57.0208 40.0476 56.9246 40.2381 56.9246 40.4286V52.0476C56.9246 56.7143 54.8076 59.4762 50.6698 60.5238C48.4566 61 46.8208 60.5238 45.4736 58.9048C45.3774 58.7143 45.3774 58.5238 45.4736 58.4286L47.4944 55.381C47.6868 55.1905 47.9755 55.1905 48.0717 55.4762C48.5529 56.1429 49.7076 56.9048 50.4774 56.7143C51.8246 56.4286 52.4019 55.2857 52.4019 53.2857V41.6667C52.4019 41.381 52.2095 41.1905 51.9208 41.2857L45.6661 42.8095C45.3774 42.9048 45.1849 42.7143 45.1849 42.4286L45.0887 38.9048C45.0887 38.7143 45.1849 38.5238 45.3774 38.5238L60.8698 34.7143L59.7151 39.4762L57.2132 40.0476ZM65.4887 47.5714C65.2963 47.9524 65.1038 48.3333 64.8151 48.7143C64.5264 49 64.2378 49.2857 63.8529 49.5714C63.468 49.7619 63.1793 49.9524 62.8906 50.1429C62.3132 50.3333 61.8321 50.4286 61.2547 50.4286C60.9661 50.4286 60.5812 50.4286 60.3887 50.3333C60.2925 50.3333 60.2925 50.2381 60.1963 50.1429C60.1 50.0476 60.1963 49.8571 60.2925 49.6667L60.8698 48.7143C60.9661 48.5238 61.2547 48.3333 61.4472 48.3333H61.5434C61.6397 48.3333 61.7359 48.4286 61.9283 48.4286C62.217 48.4286 62.5057 48.4286 62.7944 48.3333C62.9868 48.2381 63.1793 48.0476 63.3717 47.8571C63.468 47.6667 63.5642 47.4762 63.5642 47.1905C63.5642 46.9048 63.468 46.7143 63.1793 46.7143C62.9868 46.7143 62.6019 46.7143 62.217 46.7143C62.0246 46.7143 61.7359 46.7143 61.5434 46.7143C61.351 46.7143 61.1585 46.619 60.9661 46.5238C60.7736 46.4286 60.6774 46.2381 60.5812 46.0476C60.4849 45.8571 60.3887 45.4762 60.3887 45.0952C60.3887 44.619 60.4849 44.2381 60.6774 43.7619C60.8698 43.381 61.0623 43 61.351 42.619C61.5434 42.4286 61.7359 42.2381 61.9283 42.0476C62.0246 41.9524 62.1208 41.8571 62.217 41.7619C62.5057 41.5714 62.8906 41.381 63.1793 41.1905C63.6604 41 64.1415 40.9048 64.6227 40.9048C64.9113 40.9048 65.2 40.9048 65.3925 41C65.4887 41 65.5849 41.0952 65.5849 41.1905C65.6812 41.2857 65.5849 41.4762 65.4887 41.6667L64.9113 42.619C64.7189 42.9048 64.4302 43.0952 64.2378 43C64.1415 43 64.0453 43 63.9491 42.9048C63.7566 42.9048 63.468 42.9048 63.1793 43C62.9868 43.0952 62.7944 43.1905 62.6019 43.381C62.4095 43.5714 62.4095 43.7619 62.4095 44.0476C62.4095 44.2381 62.5057 44.4286 62.6981 44.4286C62.8906 44.4286 63.1793 44.4286 63.5642 44.4286C63.7566 44.4286 64.0453 44.4286 64.334 44.4286C64.6227 44.4286 64.8151 44.5238 65.0076 44.619C65.2 44.7143 65.3925 44.9048 65.4887 45.1905C65.5849 45.381 65.6812 45.7619 65.6812 46.0476C65.7774 46.619 65.6812 47.0952 65.4887 47.5714ZM70.0113 32.1429L67.1246 35L64.2378 37.9524C64.0453 37.7619 63.8529 37.6667 63.5642 37.6667C63.083 37.6667 62.6981 38.0476 62.6981 38.5238C62.6981 38.8095 62.7944 39 62.9868 39.1905L61.4472 40.8095C61.351 40.9048 61.2547 40.9048 61.1585 40.9048C60.9661 40.9048 60.6774 40.7143 60.7736 40.4286L61.1585 39L62.217 34.5238L62.6981 32.5238C62.7944 32.5238 62.7944 32.5238 62.8906 32.5238C63.5642 32.5238 64.1415 32.0476 64.1415 31.381V31.2857C64.1415 30.7143 63.7566 30.2381 63.2755 30.0476L63.6604 28.4286C63.6604 28.2381 63.8529 28.1429 64.0453 28.1429C64.1415 28.1429 64.1415 28.1429 64.2378 28.2381L69.8189 31.6667C70.1076 31.7619 70.1076 32.0476 70.0113 32.1429Z" fill="#787878"/>
<path d="M64.8151 33.4762C64.2378 33.4762 63.6604 33.9524 63.6604 34.6191C63.6604 35.1905 64.1415 35.7619 64.8151 35.7619C65.4887 35.7619 65.9698 35.2857 65.9698 34.6191C65.8736 33.9524 65.3925 33.4762 64.8151 33.4762Z" fill="#787878"/>
<path d="M69.9152 31.5714L64.334 28.1428C64.2378 28.1428 64.2378 28.0476 64.1416 28.0476C63.9491 28.0476 63.8529 28.1428 63.7567 28.3333L63.3717 29.9524C63.8529 30.1428 64.2378 30.619 64.2378 31.1905V31.2857C64.1416 31.9524 63.6604 32.4286 62.9868 32.4286C62.8906 32.4286 62.8906 32.4286 62.7944 32.4286L62.3133 34.619L61.2548 39.0952L60.7736 40.619C60.6774 40.9048 60.9661 41.0952 61.1585 41.0952C61.2548 41.0952 61.351 41.0952 61.4472 41L62.9868 39.3809C62.7944 39.1905 62.6982 39 62.6982 38.7143C62.6982 38.2381 63.0831 37.8571 63.5642 37.8571C63.8529 37.8571 64.0453 37.9524 64.2378 38.1428L67.1246 35.1905L70.0114 32.3333C70.1076 32.0476 70.1076 31.7619 69.9152 31.5714ZM64.8151 35.6667C64.2378 35.6667 63.6604 35.1905 63.6604 34.5238C63.6604 33.8571 64.1416 33.3809 64.8151 33.3809C65.3925 33.3809 65.9699 33.8571 65.9699 34.5238C65.9699 35.1905 65.3925 35.6667 64.8151 35.6667Z" fill="white"/>
<path d="M7.36792 73H9.29245V78.8095C9.29245 79.0952 9.19623 79.381 9.1 79.6667C9.00377 79.9524 8.81132 80.1429 8.52264 80.3333C8.33019 80.5238 7.94528 80.7143 7.6566 80.8095C7.2717 80.9048 6.88679 81 6.40566 81C6.11698 81 5.92453 81 5.63585 80.9048C5.4434 80.9048 5.15472 80.8095 4.96226 80.7143C4.76981 80.6191 4.57736 80.5238 4.38491 80.4286C4.28868 80.3333 4.19245 80.2381 4 80.1429L4.57736 79.4762C4.67358 79.5714 4.76981 79.6667 4.86604 79.7619C4.96226 79.8571 5.15472 79.9524 5.25094 79.9524C5.34717 80.0476 5.53962 80.0476 5.73208 80.1429C5.92453 80.1429 6.02075 80.2381 6.21321 80.2381C6.59811 80.2381 6.79057 80.1429 6.98302 79.9524C7.17547 79.7619 7.2717 79.5714 7.2717 79.1905V73H7.36792Z" fill="#787878"/>
<path d="M15.066 72.8094L18.8189 80.8094H16.7981L15.8359 78.619H12.7566L11.6981 80.8094H10.351L14.2 72.8094H15.066ZM13.0453 77.9523H15.451L14.2962 75.3809L13.0453 77.9523Z" fill="#787878"/>
<path d="M21.8981 76.9047C21.8981 77.3809 21.9943 77.8571 22.0905 78.2381C22.283 78.619 22.4754 79 22.6679 79.1904C22.9566 79.4762 23.2453 79.6666 23.5339 79.7619C23.8226 79.8571 24.2075 79.9524 24.5924 79.9524C24.8811 79.9524 25.1698 79.9524 25.3622 79.8571C25.5547 79.7619 25.8434 79.6666 26.0358 79.4762C26.2283 79.2857 26.4207 79.0952 26.6132 78.9047C26.8056 78.7143 26.9981 78.4285 27.0943 78.2381L27.8641 78.8095C27.6717 79.0952 27.4792 79.3809 27.1905 79.5714C26.9019 79.8571 26.7094 80.0476 26.3245 80.2381C26.0358 80.4285 25.6509 80.619 25.3622 80.7143C24.9773 80.8095 24.5924 80.9047 24.2075 80.9047C23.5339 80.9047 22.8604 80.8095 22.283 80.619C21.7056 80.4285 21.2245 80.1428 20.8396 79.7619C20.4547 79.3809 20.0698 79 19.8773 78.4285C19.6849 77.8571 19.4924 77.3809 19.4924 76.7143C19.4924 76.1428 19.5887 75.5714 19.7811 75.0952C19.9736 74.619 20.3585 74.1428 20.7434 73.7619C21.1283 73.3809 21.6094 73.0952 22.1868 72.9047C22.7641 72.7143 23.3415 72.619 24.0151 72.619C24.4962 72.619 24.8811 72.7143 25.266 72.8095C25.6509 72.9047 26.0358 73.0952 26.3245 73.2857C26.6132 73.4762 26.9019 73.6666 27.1905 73.9524C27.4792 74.2381 27.6717 74.5238 27.8641 74.8095L26.9981 75.3809C26.8056 75.1904 26.6132 74.9047 26.4207 74.7143C26.2283 74.5238 26.0358 74.3333 25.7471 74.1428C25.5547 73.9524 25.266 73.8571 25.0736 73.7619C24.7849 73.6666 24.5924 73.6666 24.3038 73.6666C23.9188 73.6666 23.6302 73.7619 23.2453 73.8571C22.9566 73.9524 22.6679 74.2381 22.3792 74.4285C22.0905 74.7143 21.8981 75 21.8019 75.3809C21.9943 75.9524 21.8981 76.4285 21.8981 76.9047Z" fill="#787878"/>
<path d="M29.6925 73H31.617V75.9524L35.1774 73H36.717L32.7718 76.3333L37.7755 80.9048H35.3699L31.7133 77.4762V80.8095H29.7887V73H29.6925Z" fill="#787878"/>
<path d="M37.9679 75.6666C38.1603 75.6666 38.2566 75.5713 38.449 75.4761C38.6415 75.3809 38.7377 75.2856 38.8339 75.1904C38.9302 75.0952 39.0264 74.9999 39.1226 74.8094C39.2188 74.7142 39.2188 74.619 39.2188 74.4285V74.3333H39.1226C39.1226 74.3333 39.0264 74.3333 39.0264 74.4285C39.0264 74.4285 38.9302 74.4285 38.9302 74.5237C38.9302 74.619 38.8339 74.5237 38.7377 74.5237C38.6415 74.5237 38.5453 74.5237 38.449 74.4285C38.3528 74.4285 38.2566 74.3333 38.2566 74.238C38.2566 74.1428 38.1604 74.0475 38.0641 73.9523C37.9679 73.8571 37.9679 73.7618 37.9679 73.6666C37.9679 73.5714 37.9679 73.4761 38.0641 73.3809C38.1604 73.2856 38.1603 73.1904 38.2566 73.0952C38.3528 72.9999 38.449 72.9999 38.5453 72.9047C38.6415 72.9047 38.7377 72.8094 38.9302 72.8094C39.1226 72.8094 39.2188 72.8095 39.4113 72.9047C39.5075 72.9999 39.7 73.0952 39.7962 73.1904C39.8924 73.2856 39.9887 73.4761 40.0849 73.5714C40.1811 73.7618 40.1811 73.8571 40.1811 74.0475C40.1811 74.3333 40.0849 74.619 39.9887 74.8094C39.8924 74.9999 39.7 75.2856 39.5075 75.3809C39.3151 75.4761 39.1226 75.6666 38.8339 75.7618C38.5453 75.8571 38.3528 75.9523 38.0641 75.9523V75.6666H37.9679Z" fill="#787878"/>
<path d="M44.1265 81C43.6453 81 43.2604 80.9048 42.8755 80.8095C42.4906 80.7143 42.2019 80.5238 42.0095 80.3334C41.7208 80.1429 41.5283 79.9524 41.4321 79.6667C41.2397 79.381 41.1434 79.0953 41.1434 78.8095H42.4906C42.4906 79 42.5868 79.1905 42.6831 79.381C42.7793 79.5715 42.8755 79.6667 43.068 79.8572C43.2604 80.0476 43.3566 80.0476 43.5491 80.1429C43.7415 80.2381 43.934 80.2381 44.2227 80.2381C44.4151 80.2381 44.5114 80.2381 44.7038 80.1429C44.8963 80.1429 44.9925 80.0476 45.1849 79.9524C45.2812 79.8572 45.3774 79.7619 45.4736 79.6667C45.5698 79.5714 45.5698 79.381 45.5698 79.1905C45.5698 79 45.4736 78.7143 45.3774 78.5238C45.2812 78.3334 45.0887 78.1429 44.8963 78.0476C44.7038 77.9524 44.5114 77.7619 44.2227 77.6667C43.934 77.5715 43.7415 77.381 43.4529 77.2857C43.1642 77.1905 42.9717 77 42.6831 76.9048C42.3944 76.8095 42.2019 76.6191 42.0095 76.4286C41.817 76.2381 41.6246 76.0476 41.5283 75.8572C41.4321 75.6667 41.3359 75.381 41.3359 75.0953C41.3359 74.8095 41.4321 74.5238 41.5283 74.2381C41.6246 73.9524 41.9132 73.7619 42.1057 73.5715C42.2981 73.381 42.6831 73.1905 43.068 73.0953C43.4529 73 43.8378 72.9048 44.3189 72.9048C44.7038 72.9048 45.0887 73 45.3774 73.0953C45.6661 73.1905 45.9548 73.381 46.2434 73.5715C46.5321 73.7619 46.7246 73.9524 46.8208 74.2381C47.0132 74.5238 47.1095 74.8095 47.2057 75.0953H45.9548C45.8585 74.9048 45.7623 74.7143 45.6661 74.5238C45.5698 74.3334 45.4736 74.2381 45.2812 74.0476C45.0887 73.8572 44.9925 73.8572 44.8 73.7619C44.6076 73.6667 44.4151 73.6667 44.1265 73.6667C43.8378 73.6667 43.6453 73.6667 43.4529 73.7619C43.2604 73.8572 43.1642 73.9524 43.068 74.0476C42.9717 74.1429 42.8755 74.2381 42.8755 74.4286C42.8755 74.6191 42.7793 74.7143 42.7793 74.8095C42.7793 75 42.8755 75.1905 42.9717 75.381C43.068 75.5715 43.2604 75.6667 43.4529 75.8572C43.6453 76.0476 43.934 76.1429 44.1265 76.2381C44.3189 76.3334 44.6076 76.5238 44.8963 76.6191C45.1849 76.7143 45.4736 76.9048 45.6661 77C45.9548 77.1905 46.1472 77.2857 46.3397 77.4762C46.5321 77.6667 46.7246 77.8572 46.8208 78.0476C46.917 78.2381 47.0132 78.5238 47.0132 78.8095C47.0132 79.0953 46.917 79.381 46.8208 79.6667C46.7246 79.9524 46.5321 80.1429 46.2434 80.4286C45.9548 80.6191 45.6661 80.8095 45.2812 80.9048C45.0887 80.9048 44.6076 81 44.1265 81Z" fill="#787878"/>
<path d="M51.4396 73H54.2301C54.7113 73 55.0962 73 55.4811 73.0952C55.866 73.1905 56.2509 73.2857 56.5396 73.4762C56.8283 73.6667 57.0207 73.8571 57.2132 74.1429C57.4056 74.4286 57.5018 74.7143 57.5018 75.0952C57.5018 75.4762 57.4056 75.7619 57.2132 76.0476C57.0207 76.3333 56.8283 76.5238 56.5396 76.7143C56.2509 76.9048 55.9622 77 55.6735 77.0952C55.2886 77.1905 54.9999 77.1905 54.615 77.1905H53.4603V80.619H51.5358V73H51.4396ZM53.4603 76.7143H54.0377C54.2301 76.7143 54.4226 76.7143 54.615 76.619C54.8075 76.5238 54.9037 76.4286 55 76.3333C55.0962 76.2381 55.1924 76.0476 55.2886 75.8571C55.3849 75.6667 55.3849 75.4762 55.3849 75.2857C55.3849 75.0952 55.3849 74.8095 55.2886 74.619C55.1924 74.4286 55.0962 74.2381 55 74.1429C54.9037 74.0476 54.7113 73.9524 54.5188 73.8571C54.3264 73.7619 54.1339 73.7619 53.9415 73.7619H53.3641V76.7143H53.4603Z" fill="#787878"/>
<path d="M59.0415 73H60.966V80.9048H59.0415V73Z" fill="#787878"/>
<path d="M70.2037 73L64.7188 80.0476H69.9151V80.8095H62.1207V80.4286L67.4132 73.6667H62.5056V72.9048H70.2037V73Z" fill="#787878"/>
<path d="M78.4793 73L72.9944 80.0476H78.1906V80.8095H70.3962V80.4286L75.6887 73.6667H70.7811V72.9048H78.4793V73Z" fill="#787878"/>
<path d="M85.5038 73V73.6667H81.5585V76.2381H84.8302V76.9048H81.5585V80.0476H85.5038V80.8095H79.5377V72.9048H85.5038V73Z" fill="#787878"/>
<path d="M86.7548 73H89.7378C90.2189 73 90.7 73.0952 91.0849 73.1905C91.4699 73.2857 91.7585 73.4762 92.0472 73.6667C92.3359 73.8571 92.5283 74.0476 92.6246 74.3333C92.7208 74.619 92.817 74.9048 92.817 75.1905C92.817 75.381 92.817 75.6667 92.7208 75.8571C92.6246 76.0476 92.5283 76.2381 92.3359 76.4286C92.1434 76.6191 91.951 76.7143 91.7585 76.9048C91.5661 77 91.2774 77.0952 90.9887 77.1905L93.7793 81H91.6623L88.968 77.4762H88.6793V81H86.7548V73ZM88.6793 76.619H89.0642C89.2566 76.619 89.5453 76.619 89.7378 76.5238C89.9302 76.4286 90.1227 76.3333 90.2189 76.2381C90.4114 76.1429 90.5076 75.9524 90.6038 75.7619C90.7 75.5714 90.7 75.381 90.7 75.1905C90.7 75 90.7 74.8095 90.6038 74.619C90.5076 74.4286 90.4114 74.3333 90.3151 74.1429C90.2189 73.9524 90.0265 73.9524 89.9302 73.8571C89.7378 73.7619 89.6416 73.7619 89.4491 73.7619H88.6793V76.619Z" fill="#787878"/>
<path d="M94.5491 73H96.4736V80.9048H94.5491V73Z" fill="#787878"/>
<path d="M102.247 72.8094L106 80.8094H103.979L103.017 78.619H99.9378L98.8793 80.8094H97.5321L101.381 72.8094H102.247ZM100.323 77.9523H102.728L101.574 75.3809L100.323 77.9523Z" fill="#787878"/>
</svg>
