<svg width="65" height="41" viewBox="0 0 65 41" fill="none" xmlns="http://www.w3.org/2000/svg">
<g clip-path="url(#clip0)">
<path d="M24.5241 11.2668L17.5177 27.5661C17.4623 27.694 17.3699 27.8103 17.2476 27.9062C17.1254 28.002 16.9765 28.0747 16.8124 28.1188C16.6484 28.1628 16.4735 28.177 16.3013 28.1603C16.1291 28.1435 15.9641 28.0963 15.819 28.0222L4.74951 22.3517C4.4342 22.1862 4.17896 21.9603 4.00836 21.6958C3.83776 21.4313 3.75753 21.1371 3.77539 20.8415C3.79325 20.546 3.9086 20.2589 4.11035 20.0081C4.31209 19.7572 4.59343 19.5509 4.92732 19.4091L24.5241 11.2668Z" fill="url(#paint0_linear)"/>
<path d="M56.1029 20.8507H7.17164C6.96391 20.8505 6.75879 20.8872 6.57161 20.9581C6.38444 21.0291 6.22005 21.1324 6.09072 21.2603C5.96139 21.3883 5.87046 21.5376 5.82473 21.6972C5.779 21.8567 5.77965 22.0223 5.82663 22.1816L7.19043 23.6603L4.33135 22.1076C3.64257 21.7505 3.12224 21.2248 2.85064 20.6117C2.57905 19.9986 2.57128 19.3322 2.82854 18.7153L10.3764 1.01148C10.5011 0.716665 10.7407 0.46027 11.061 0.278701C11.3813 0.0971331 11.7662 -0.000380652 12.1609 4.8403e-06H63.6545C63.9031 -0.000612429 64.1462 0.0578225 64.352 0.167676C64.5579 0.277529 64.7168 0.433693 64.8081 0.615767C64.8994 0.797841 64.9188 0.997358 64.8638 1.18826C64.8088 1.37915 64.6819 1.55255 64.4998 1.6858L53.5369 9.74215C53.2357 9.96367 53.0276 10.2522 52.9403 10.5693C52.8531 10.8864 52.8908 11.2169 53.0484 11.5167L57.2676 19.5198C57.3422 19.6683 57.3692 19.829 57.3463 19.9877C57.3234 20.1464 57.2512 20.2982 57.1361 20.4297C57.021 20.5613 56.8665 20.6685 56.6863 20.7419C56.5061 20.8153 56.3058 20.8527 56.1029 20.8507Z" fill="url(#paint1_linear)"/>
<path d="M15.482 9.18C15.482 9.552 15.382 9.878 15.182 10.158C14.986 10.434 14.708 10.64 14.348 10.776L15.05 12H13.58L12.986 10.944H12.638L12.428 12H11.012L11.852 7.8H13.736C14.288 7.8 14.716 7.922 15.02 8.166C15.328 8.406 15.482 8.744 15.482 9.18ZM14.048 9.318C14.048 9.034 13.872 8.892 13.52 8.892H13.046L12.848 9.876H13.43C13.626 9.876 13.778 9.828 13.886 9.732C13.994 9.632 14.048 9.494 14.048 9.318ZM17.6007 12.096C17.2247 12.096 16.8987 12.034 16.6227 11.91C16.3507 11.782 16.1407 11.602 15.9927 11.37C15.8487 11.138 15.7767 10.866 15.7767 10.554C15.7767 10.426 15.7927 10.278 15.8247 10.11L16.2867 7.8H17.7027L17.2467 10.086C17.2227 10.198 17.2107 10.3 17.2107 10.392C17.2107 10.58 17.2587 10.72 17.3547 10.812C17.4507 10.904 17.5907 10.95 17.7747 10.95C17.9827 10.95 18.1447 10.884 18.2607 10.752C18.3767 10.62 18.4667 10.398 18.5307 10.086L18.9867 7.8H20.3787L19.9047 10.17C19.7767 10.806 19.5207 11.286 19.1367 11.61C18.7527 11.934 18.2407 12.096 17.6007 12.096ZM19.6407 7.8H19.8807C19.9687 7.8 20.0447 7.766 20.1087 7.698C20.1767 7.63 20.2107 7.542 20.2107 7.434C20.2107 7.298 20.1707 7.184 20.0907 7.092L20.8587 6.822C21.0067 7.01 21.0807 7.232 21.0807 7.488C21.0807 7.848 20.9647 8.128 20.7327 8.328C20.5007 8.528 20.1967 8.628 19.8207 8.628H19.6407V7.8ZM25.783 7.506C25.783 7.774 25.717 8 25.585 8.184C25.453 8.368 25.271 8.5 25.039 8.58C25.223 8.868 25.315 9.202 25.315 9.582C25.315 10.07 25.201 10.506 24.973 10.89C24.749 11.27 24.435 11.566 24.031 11.778C23.631 11.99 23.177 12.096 22.669 12.096C22.241 12.096 21.865 12.018 21.541 11.862C21.221 11.702 20.973 11.48 20.797 11.196C20.625 10.912 20.539 10.586 20.539 10.218C20.539 9.73 20.651 9.296 20.875 8.916C21.103 8.532 21.417 8.234 21.817 8.022C22.221 7.81 22.677 7.704 23.185 7.704C23.453 7.704 23.743 7.73 24.055 7.782C24.255 7.814 24.391 7.83 24.463 7.83C24.603 7.83 24.713 7.794 24.793 7.722C24.873 7.646 24.913 7.55 24.913 7.434C24.913 7.298 24.873 7.184 24.793 7.092L25.561 6.822C25.709 7.01 25.783 7.238 25.783 7.506ZM22.789 10.95C23.013 10.95 23.207 10.892 23.371 10.776C23.539 10.66 23.667 10.504 23.755 10.308C23.843 10.112 23.887 9.898 23.887 9.666C23.887 9.418 23.813 9.22 23.665 9.072C23.521 8.924 23.321 8.85 23.065 8.85C22.841 8.85 22.645 8.908 22.477 9.024C22.313 9.14 22.187 9.296 22.099 9.492C22.011 9.688 21.967 9.902 21.967 10.134C21.967 10.382 22.039 10.58 22.183 10.728C22.331 10.876 22.533 10.95 22.789 10.95ZM22.297 13.356C22.149 13.356 22.027 13.31 21.931 13.218C21.839 13.13 21.793 13.016 21.793 12.876C21.793 12.712 21.851 12.574 21.967 12.462C22.087 12.354 22.225 12.3 22.381 12.3C22.525 12.3 22.645 12.344 22.741 12.432C22.837 12.52 22.885 12.632 22.885 12.768C22.885 12.948 22.829 13.09 22.717 13.194C22.605 13.302 22.465 13.356 22.297 13.356ZM27.5089 12.096C27.1329 12.096 26.8069 12.034 26.5309 11.91C26.2589 11.782 26.0489 11.602 25.9009 11.37C25.7569 11.138 25.6849 10.866 25.6849 10.554C25.6849 10.426 25.7009 10.278 25.7329 10.11L26.1949 7.8H27.6109L27.1549 10.086C27.1309 10.198 27.1189 10.3 27.1189 10.392C27.1189 10.58 27.1669 10.72 27.2629 10.812C27.3589 10.904 27.4989 10.95 27.6829 10.95C27.8909 10.95 28.0529 10.884 28.1689 10.752C28.2849 10.62 28.3749 10.398 28.4389 10.086L28.8949 7.8H30.2869L29.8129 10.17C29.6849 10.806 29.4289 11.286 29.0449 11.61C28.6609 11.934 28.1489 12.096 27.5089 12.096ZM32.2728 9.756H34.0728L33.8688 10.776H32.0688L32.2728 9.756ZM39.8535 9.84C40.0335 9.92 40.1715 10.03 40.2675 10.17C40.3675 10.306 40.4175 10.47 40.4175 10.662C40.4175 11.106 40.2335 11.44 39.8655 11.664C39.5015 11.888 39.0315 12 38.4555 12H36.0315L36.8715 7.8H39.0975C39.5895 7.8 39.9635 7.888 40.2195 8.064C40.4755 8.236 40.6035 8.482 40.6035 8.802C40.6035 9.038 40.5375 9.246 40.4055 9.426C40.2735 9.602 40.0895 9.74 39.8535 9.84ZM38.0655 8.79L37.9395 9.414H38.6595C38.9715 9.414 39.1275 9.292 39.1275 9.048C39.1275 8.964 39.0955 8.9 39.0315 8.856C38.9675 8.812 38.8755 8.79 38.7555 8.79H38.0655ZM38.5335 11.01C38.6775 11.01 38.7935 10.978 38.8815 10.914C38.9695 10.846 39.0135 10.75 39.0135 10.626C39.0135 10.538 38.9795 10.47 38.9115 10.422C38.8475 10.374 38.7655 10.35 38.6655 10.35H37.7535L37.6215 11.01H38.5335ZM41.5122 7.8H42.9282L42.0882 12H40.6722L41.5122 7.8ZM45.8298 11.268H44.2278L43.8078 12H42.3138L44.9898 7.8H46.3818L47.3778 12H45.9678L45.8298 11.268ZM45.6318 10.248L45.4278 9.174L44.8098 10.248H45.6318Z" fill="white"/>
</g>
<defs>
<linearGradient id="paint0_linear" x1="14.1393" y1="30.494" x2="14.1393" y2="20.4831" gradientUnits="userSpaceOnUse">
<stop offset="0.01" stop-color="#BA192D"/>
<stop offset="1" stop-color="#690E19"/>
</linearGradient>
<linearGradient id="paint1_linear" x1="33.7675" y1="-0.245471" x2="33.7675" y2="27.168" gradientUnits="userSpaceOnUse">
<stop stop-color="#FF223E"/>
<stop offset="1" stop-color="#B5182C"/>
</linearGradient>
<clipPath id="clip0">
<rect width="65" height="41" fill="white"/>
</clipPath>
</defs>
</svg>
