<svg width="109" height="109" viewBox="0 0 109 109" fill="none" xmlns="http://www.w3.org/2000/svg">
<rect width="109" height="109" rx="19" fill="#FFFCFC"/>
<path d="M68.5291 31.7619C68.4342 31.2857 68.2443 30.9048 67.8644 30.7143L62.3567 27.2857C62.0718 27.0952 61.8819 27 61.597 27C60.9322 27 60.2675 27.4762 60.1726 28.1429L59.7927 29.7619C57.7036 28.2381 55.2346 27.4762 52.6706 27.4762C44.314 27.4762 37.5718 36.2381 37.5718 47.0952C37.5718 57.9524 44.314 66.7143 52.6706 66.7143C61.0272 66.7143 67.7695 57.9524 67.7695 47.0952C67.7695 43 66.8198 39.2857 65.2055 36.1429L68.2443 33C68.4342 32.619 68.6241 32.2381 68.5291 31.7619ZM54.7598 40.0476C54.5698 40.0476 54.4749 40.2381 54.4749 40.4286V52.0476C54.4749 56.7143 52.3857 59.4762 48.3024 60.5238C46.1183 61 44.504 60.5238 43.1745 58.9048C43.0795 58.7143 43.0795 58.5238 43.1745 58.4286L45.1687 55.381C45.3586 55.1905 45.6435 55.1905 45.7384 55.4762C46.2133 56.1429 47.3528 56.9048 48.1125 56.7143C49.4419 56.4286 50.0117 55.2857 50.0117 53.2857V41.6667C50.0117 41.381 49.8218 41.1905 49.5369 41.2857L43.3644 42.8095C43.0795 42.9048 42.8896 42.7143 42.8896 42.4286L42.7946 38.9048C42.7946 38.7143 42.8896 38.5238 43.0795 38.5238L58.3683 34.7143L57.2288 39.4762L54.7598 40.0476ZM62.9264 47.5714C62.7365 47.9524 62.5466 48.3333 62.2617 48.7143C61.9768 49 61.6919 49.2857 61.3121 49.5714C60.9322 49.7619 60.6474 49.9524 60.3625 50.1429C59.7927 50.3333 59.3179 50.4286 58.7481 50.4286C58.4633 50.4286 58.0834 50.4286 57.8935 50.3333C57.7985 50.3333 57.7985 50.2381 57.7036 50.1429C57.6086 50.0476 57.7036 49.8571 57.7985 49.6667L58.3683 48.7143C58.4633 48.5238 58.7481 48.3333 58.9381 48.3333H59.033C59.128 48.3333 59.2229 48.4286 59.4129 48.4286C59.6978 48.4286 59.9826 48.4286 60.2675 48.3333C60.4574 48.2381 60.6474 48.0476 60.8373 47.8571C60.9322 47.6667 61.0272 47.4762 61.0272 47.1905C61.0272 46.9048 60.9322 46.7143 60.6474 46.7143C60.4574 46.7143 60.0776 46.7143 59.6978 46.7143C59.5078 46.7143 59.2229 46.7143 59.033 46.7143C58.8431 46.7143 58.6532 46.619 58.4633 46.5238C58.2733 46.4286 58.1784 46.2381 58.0834 46.0476C57.9884 45.8571 57.8935 45.4762 57.8935 45.0952C57.8935 44.619 57.9884 44.2381 58.1784 43.7619C58.3683 43.381 58.5582 43 58.8431 42.619C59.033 42.4286 59.2229 42.2381 59.4129 42.0476C59.5078 41.9524 59.6028 41.8571 59.6978 41.7619C59.9826 41.5714 60.3625 41.381 60.6474 41.1905C61.1222 41 61.597 40.9048 62.0718 40.9048C62.3567 40.9048 62.6416 40.9048 62.8315 41C62.9264 41 63.0214 41.0952 63.0214 41.1905C63.1164 41.2857 63.0214 41.4762 62.9264 41.6667L62.3567 42.619C62.1667 42.9048 61.8819 43.0952 61.6919 43C61.597 43 61.502 43 61.4071 42.9048C61.2171 42.9048 60.9322 42.9048 60.6474 43C60.4574 43.0952 60.2675 43.1905 60.0776 43.381C59.8877 43.5714 59.8877 43.7619 59.8877 44.0476C59.8877 44.2381 59.9826 44.4286 60.1726 44.4286C60.3625 44.4286 60.6474 44.4286 61.0272 44.4286C61.2171 44.4286 61.502 44.4286 61.7869 44.4286C62.0718 44.4286 62.2617 44.5238 62.4516 44.619C62.6416 44.7143 62.8315 44.9048 62.9264 45.1905C63.0214 45.381 63.1164 45.7619 63.1164 46.0476C63.2113 46.619 63.1164 47.0952 62.9264 47.5714ZM67.3896 32.1429L64.5408 35L61.6919 37.9524C61.502 37.7619 61.3121 37.6667 61.0272 37.6667C60.5524 37.6667 60.1726 38.0476 60.1726 38.5238C60.1726 38.8095 60.2675 39 60.4574 39.1905L58.9381 40.8095C58.8431 40.9048 58.7481 40.9048 58.6532 40.9048C58.4633 40.9048 58.1784 40.7143 58.2733 40.4286L58.6532 39L59.6978 34.5238L60.1726 32.3333C60.2675 32.3333 60.2675 32.3333 60.3625 32.3333C61.0272 32.3333 61.597 31.8571 61.597 31.1905V31.0952C61.597 30.5238 61.2171 30.0476 60.7423 29.8571L61.1222 28.2381C61.1222 28.0476 61.3121 27.9524 61.502 27.9524C61.597 27.9524 61.597 27.9524 61.6919 28.0476L67.1997 31.4762C67.4846 31.7619 67.4846 32.0476 67.3896 32.1429Z" fill="#787878"/>
<path d="M62.2617 33.4762C61.692 33.4762 61.1222 33.9524 61.1222 34.6191C61.1222 35.1905 61.597 35.7619 62.2617 35.7619C62.9265 35.7619 63.4013 35.2857 63.4013 34.6191C63.3063 33.9524 62.8315 33.4762 62.2617 33.4762Z" fill="#787878"/>
<path d="M67.2946 31.5714L61.7868 28.1428C61.6919 28.1428 61.6919 28.0476 61.5969 28.0476C61.407 28.0476 61.312 28.1428 61.2171 28.3333L60.8372 29.9524C61.312 30.1428 61.6919 30.619 61.6919 31.1905V31.2857C61.5969 31.9524 61.1221 32.4286 60.4574 32.4286C60.3624 32.4286 60.3624 32.4286 60.2675 32.4286L59.7926 34.619L58.7481 39.0952L58.3682 40.5238C58.2733 40.8095 58.5581 41 58.7481 41C58.843 41 58.938 41 59.033 40.9048L60.5523 39.2857C60.3624 39.0952 60.2675 38.9048 60.2675 38.619C60.2675 38.1428 60.6473 37.7619 61.1221 37.7619C61.407 37.7619 61.5969 37.8571 61.7868 38.0476L64.6357 35.0952L67.4845 32.2381C67.4845 32.0476 67.4845 31.7619 67.2946 31.5714ZM62.2616 35.6667C61.6919 35.6667 61.1221 35.1905 61.1221 34.5238C61.1221 33.8571 61.5969 33.3809 62.2616 33.3809C62.8314 33.3809 63.4012 33.8571 63.4012 34.5238C63.4012 35.1905 62.8314 35.6667 62.2616 35.6667Z" fill="white"/>
<path d="M8.32364 71.4336H10.2229V77.2431C10.2229 77.5288 10.1279 77.8145 10.0329 78.1003C9.93798 78.386 9.74806 78.5765 9.46318 78.7669C9.27326 78.9574 8.89341 79.1479 8.60853 79.2431C8.22868 79.3384 7.84884 79.4336 7.37403 79.4336C7.08915 79.4336 6.89922 79.4336 6.61434 79.3384C6.42442 79.3384 6.13953 79.2431 5.94961 79.1479C5.75969 79.0526 5.56977 78.9574 5.37984 78.8622C5.28488 78.7669 5.18992 78.6717 5 78.5765L5.56977 77.9098C5.66473 78.005 5.75969 78.1003 5.85465 78.1955C5.94961 78.2907 6.13953 78.386 6.2345 78.386C6.32946 78.4812 6.51938 78.4812 6.7093 78.5765C6.89922 78.5765 6.99419 78.6717 7.18411 78.6717C7.56395 78.6717 7.75388 78.5765 7.9438 78.386C8.13372 78.1955 8.22868 78.005 8.22868 77.6241V71.4336H8.32364Z" fill="#787878"/>
<path d="M15.9206 71.243L19.624 79.243H17.6299L16.6802 77.0526H13.6415L12.5969 79.243H11.2675L15.0659 71.243H15.9206ZM13.9264 76.3859H16.3004L15.1609 73.8145L13.9264 76.3859Z" fill="#787878"/>
<path d="M22.6627 75.3383C22.6627 75.8145 22.7577 76.2907 22.8526 76.6717C23.0426 77.0526 23.2325 77.4336 23.4224 77.624C23.7073 77.9098 23.9922 78.1002 24.2771 78.1955C24.5619 78.2907 24.9418 78.3859 25.3216 78.3859C25.6065 78.3859 25.8914 78.3859 26.0813 78.2907C26.2713 78.1955 26.5561 78.1002 26.7461 77.9098C26.936 77.7193 27.1259 77.5288 27.3158 77.3383C27.5057 77.1479 27.6957 76.8621 27.7906 76.6717L28.5503 77.2431C28.3604 77.5288 28.1705 77.8145 27.8856 78.005C27.6007 78.2907 27.4108 78.4812 27.0309 78.6717C26.7461 78.8621 26.3662 79.0526 26.0813 79.1479C25.7015 79.2431 25.3216 79.3383 24.9418 79.3383C24.2771 79.3383 23.6123 79.2431 23.0426 79.0526C22.4728 78.8621 21.998 78.5764 21.6182 78.1955C21.2383 77.8145 20.8585 77.4336 20.6685 76.8621C20.4786 76.2907 20.2887 75.8145 20.2887 75.1479C20.2887 74.5764 20.3837 74.005 20.5736 73.5288C20.7635 73.0526 21.1433 72.5764 21.5232 72.1955C21.903 71.8145 22.3778 71.5288 22.9476 71.3383C23.5174 71.1478 24.0871 71.0526 24.7519 71.0526C25.2267 71.0526 25.6065 71.1478 25.9864 71.2431C26.3662 71.3383 26.7461 71.5288 27.0309 71.7193C27.3158 71.9098 27.6007 72.1002 27.8856 72.3859C28.1705 72.6717 28.3604 72.9574 28.5503 73.2431L27.6957 73.8145C27.5057 73.624 27.3158 73.3383 27.1259 73.1478C26.936 72.9574 26.7461 72.7669 26.4612 72.5764C26.2713 72.3859 25.9864 72.2907 25.7964 72.1955C25.5116 72.1002 25.3216 72.1002 25.0368 72.1002C24.6569 72.1002 24.372 72.1955 23.9922 72.2907C23.7073 72.3859 23.4224 72.6717 23.1375 72.8621C22.8526 73.1478 22.6627 73.4336 22.5678 73.8145C22.7577 74.3859 22.6627 74.8621 22.6627 75.3383Z" fill="#787878"/>
<path d="M30.3546 71.4336H32.2538V74.386L35.7674 71.4336H37.2868L33.3934 74.7669L38.3314 79.3384H35.9573L32.3488 75.9098V79.2431H30.4496V71.4336H30.3546Z" fill="#787878"/>
<path d="M38.5214 74.1002C38.7113 74.1002 38.8062 74.005 38.9962 73.9097C39.1861 73.8145 39.2811 73.7192 39.376 73.624C39.471 73.5288 39.5659 73.4335 39.6609 73.243C39.7559 73.1478 39.7559 73.0526 39.7559 72.8621V72.7669H39.6609C39.6609 72.7669 39.5659 72.7669 39.5659 72.8621C39.5659 72.8621 39.471 72.8621 39.471 72.9573C39.471 73.0526 39.376 72.9573 39.2811 72.9573C39.1861 72.9573 39.0911 72.9573 38.9962 72.8621C38.9012 72.8621 38.8062 72.7669 38.8062 72.6716C38.8062 72.5764 38.7113 72.4811 38.6163 72.3859C38.5214 72.2907 38.5214 72.1954 38.5214 72.1002C38.5214 72.0049 38.5214 71.9097 38.6163 71.8145C38.7113 71.7192 38.7113 71.624 38.8062 71.5288C38.9012 71.4335 38.9962 71.4335 39.0911 71.3383C39.1861 71.3383 39.2811 71.243 39.471 71.243C39.6609 71.243 39.7559 71.243 39.9458 71.3383C40.0407 71.4335 40.2307 71.5288 40.3256 71.624C40.4206 71.7192 40.5155 71.9097 40.6105 72.005C40.7055 72.1954 40.7055 72.2907 40.7055 72.4811C40.7055 72.7669 40.6105 73.0526 40.5155 73.243C40.4206 73.4335 40.2307 73.7192 40.0407 73.8145C39.8508 73.9097 39.6609 74.1002 39.376 74.1954C39.0911 74.2907 38.9012 74.3859 38.6163 74.3859V74.1002H38.5214Z" fill="#787878"/>
<path d="M44.5988 79.4336C44.124 79.4336 43.7442 79.3384 43.3643 79.2431C42.9845 79.1479 42.6996 78.9574 42.5097 78.767C42.2248 78.5765 42.0349 78.386 41.9399 78.1003C41.75 77.8146 41.655 77.5289 41.655 77.2431H42.9845C42.9845 77.4336 43.0795 77.6241 43.1744 77.8146C43.2694 78.005 43.3643 78.1003 43.5543 78.2908C43.7442 78.4812 43.8391 78.4812 44.0291 78.5765C44.219 78.6717 44.4089 78.6717 44.6938 78.6717C44.8837 78.6717 44.9787 78.6717 45.1686 78.5765C45.3585 78.5765 45.4535 78.4812 45.6434 78.386C45.7384 78.2908 45.8333 78.1955 45.9283 78.1003C46.0232 78.005 46.0233 77.8146 46.0233 77.6241C46.0233 77.4336 45.9283 77.1479 45.8333 76.9574C45.7384 76.767 45.5484 76.5765 45.3585 76.4812C45.1686 76.386 44.9787 76.1955 44.6938 76.1003C44.4089 76.005 44.219 75.8146 43.9341 75.7193C43.6492 75.6241 43.4593 75.4336 43.1744 75.3384C42.8895 75.2431 42.6996 75.0527 42.5097 74.8622C42.3198 74.6717 42.1298 74.4812 42.0349 74.2908C41.9399 74.1003 41.845 73.8146 41.845 73.5289C41.845 73.2431 41.9399 72.9574 42.0349 72.6717C42.1298 72.386 42.4147 72.1955 42.6046 72.005C42.7946 71.8146 43.1744 71.6241 43.5543 71.5289C43.9341 71.4336 44.3139 71.3384 44.7888 71.3384C45.1686 71.3384 45.5484 71.4336 45.8333 71.5289C46.1182 71.6241 46.4031 71.8146 46.688 72.005C46.9729 72.1955 47.1628 72.386 47.2577 72.6717C47.4477 72.9574 47.5426 73.2431 47.6376 73.5289H46.4031C46.3081 73.3384 46.2132 73.1479 46.1182 72.9574C46.0232 72.767 45.9283 72.6717 45.7384 72.4812C45.5484 72.2908 45.4535 72.2908 45.2636 72.1955C45.0736 72.1003 44.8837 72.1003 44.5988 72.1003C44.3139 72.1003 44.124 72.1003 43.9341 72.1955C43.7442 72.2908 43.6492 72.386 43.5543 72.4812C43.4593 72.5765 43.3643 72.6717 43.3643 72.8622C43.3643 73.0527 43.2694 73.1479 43.2694 73.2431C43.2694 73.4336 43.3643 73.6241 43.4593 73.8146C43.5543 74.005 43.7442 74.1003 43.9341 74.2908C44.124 74.4812 44.4089 74.5765 44.5988 74.6717C44.7888 74.767 45.0736 74.9574 45.3585 75.0527C45.6434 75.1479 45.9283 75.3384 46.1182 75.4336C46.4031 75.6241 46.593 75.7193 46.7829 75.9098C46.9729 76.1003 47.1628 76.2908 47.2577 76.4812C47.3527 76.6717 47.4477 76.9574 47.4477 77.2431C47.4477 77.5289 47.3527 77.8146 47.2577 78.1003C47.1628 78.386 46.9729 78.5765 46.688 78.8622C46.4031 79.0527 46.1182 79.2431 45.7384 79.3384C45.5484 79.3384 45.0736 79.4336 44.5988 79.4336Z" fill="#787878"/>
<path d="M54.6647 79.4336C54.1899 79.4336 53.8101 79.3384 53.4303 79.2431C53.0504 79.1479 52.7655 78.9574 52.5756 78.767C52.2907 78.5765 52.1008 78.386 52.0058 78.1003C51.8159 77.8146 51.7209 77.5289 51.7209 77.2431H53.0504C53.0504 77.4336 53.1454 77.6241 53.2403 77.8146C53.3353 78.005 53.4303 78.1003 53.6202 78.2908C53.8101 78.4812 53.9051 78.4812 54.095 78.5765C54.2849 78.6717 54.4748 78.6717 54.7597 78.6717C54.9496 78.6717 55.0446 78.6717 55.2345 78.5765C55.4244 78.5765 55.5194 78.4812 55.7093 78.386C55.8043 78.2908 55.8992 78.1955 55.9942 78.1003C56.0892 78.005 56.0892 77.8146 56.0892 77.6241C56.0892 77.4336 55.9942 77.1479 55.8992 76.9574C55.8043 76.767 55.6144 76.5765 55.4244 76.4812C55.2345 76.386 55.0446 76.1955 54.7597 76.1003C54.4748 76.005 54.2849 75.8146 54 75.7193C53.7151 75.6241 53.5252 75.4336 53.2403 75.3384C52.9554 75.2431 52.7655 75.0527 52.5756 74.8622C52.3857 74.6717 52.1958 74.4812 52.1008 74.2908C52.0058 74.1003 51.9109 73.8146 51.9109 73.5289C51.9109 73.2431 52.0058 72.9574 52.1008 72.6717C52.1958 72.386 52.4806 72.1955 52.6706 72.005C52.8605 71.8146 53.2403 71.6241 53.6202 71.5289C54 71.4336 54.3799 71.3384 54.8547 71.3384C55.2345 71.3384 55.6144 71.4336 55.8992 71.5289C56.1841 71.6241 56.469 71.8146 56.7539 72.005C57.0388 72.1955 57.2287 72.386 57.3237 72.6717C57.5136 72.9574 57.6085 73.2431 57.7035 73.5289H56.469C56.3741 73.3384 56.2791 73.1479 56.1841 72.9574C56.0892 72.767 55.9942 72.6717 55.8043 72.4812C55.6144 72.2908 55.5194 72.2908 55.3295 72.1955C55.1396 72.1003 54.9496 72.1003 54.6647 72.1003C54.3799 72.1003 54.1899 72.1003 54 72.1955C53.8101 72.2908 53.7151 72.386 53.6202 72.4812C53.5252 72.5765 53.4303 72.6717 53.4303 72.8622C53.4303 73.0527 53.4303 72.8622 53.4303 73.0527C53.4303 73.2431 53.5252 73.4336 53.6202 73.6241C53.7151 73.8146 53.9051 73.9098 54.095 74.1003C54.2849 74.2908 54.5698 74.386 54.7597 74.4812C54.9496 74.5765 55.2345 74.767 55.5194 74.8622C55.8043 74.9574 56.0892 75.1479 56.2791 75.2431C56.564 75.4336 56.7539 75.5289 56.9438 75.7193C57.1337 75.9098 57.3237 76.1003 57.4186 76.2908C57.5136 76.4812 57.6086 76.767 57.6086 77.0527C57.6086 77.3384 57.5136 77.6241 57.4186 77.9098C57.3237 78.1955 57.1337 78.386 56.8489 78.6717C56.564 78.8622 56.2791 79.0527 55.8992 79.1479C55.6144 79.3384 55.1396 79.4336 54.6647 79.4336Z" fill="#787878"/>
<path d="M63.2112 71.243L66.9147 79.243H64.9205L63.9709 77.0526H60.9321L59.8876 79.243H58.5581L62.3566 71.243H63.2112ZM61.217 76.3859H63.5911L62.4515 73.8145L61.217 76.3859Z" fill="#787878"/>
<path d="M67.9594 71.4336H69.8586V78.4812H73.8469V79.2431H67.9594V71.4336Z" fill="#787878"/>
<path d="M79.3547 79.4335C78.6899 79.4335 78.1202 79.3383 77.5504 79.1478C76.9806 78.9573 76.5058 78.6716 76.126 78.2907C75.7461 77.9097 75.3663 77.5288 75.1764 76.9573C74.9864 76.4811 74.7965 75.9097 74.7965 75.243C74.7965 74.6716 74.8915 74.1002 75.1764 73.624C75.3663 73.1478 75.7461 72.6716 76.126 72.3859C76.5058 72.0049 76.9806 71.7192 77.5504 71.5288C78.1202 71.3383 78.6899 71.243 79.3547 71.243C80.0194 71.243 80.5891 71.3383 81.1589 71.5288C81.7287 71.7192 82.2035 72.0049 82.5833 72.3859C82.9632 72.7669 83.343 73.1478 83.5329 73.624C83.7229 74.1002 83.9128 74.6716 83.9128 75.243C83.9128 75.624 83.8178 76.1002 83.7229 76.3859C83.6279 76.7669 83.438 77.0526 83.2481 77.4335C83.0581 77.7192 82.8682 78.0049 82.5833 78.2907C82.2985 78.5764 82.0136 78.7669 81.6337 78.9573C81.2539 79.1478 80.969 79.243 80.5891 79.3383C80.2093 79.4335 79.8295 79.4335 79.3547 79.4335ZM79.3547 78.7669C79.7345 78.7669 80.1143 78.6716 80.3992 78.4811C80.6841 78.2907 80.969 78.1002 81.1589 77.7192C81.3488 77.3383 81.5388 77.0526 81.6337 76.5764C81.7287 76.1954 81.8236 75.7192 81.8236 75.1478C81.8236 74.6716 81.7287 74.1954 81.6337 73.8145C81.5388 73.4335 81.3488 73.0526 81.1589 72.7669C80.969 72.4811 80.6841 72.1954 80.3992 72.1002C80.1143 71.9097 79.7345 71.8145 79.3547 71.8145C78.9748 71.8145 78.595 71.9097 78.3101 72.1002C78.0252 72.2907 77.7403 72.4811 77.5504 72.7669C77.3605 73.0526 77.1705 73.4335 77.0756 73.8145C76.9806 74.1954 76.8857 74.6716 76.8857 75.1478C76.8857 75.624 76.9806 76.1002 77.0756 76.5764C77.1705 76.9573 77.3605 77.3383 77.5504 77.7192C77.7403 78.005 78.0252 78.2907 78.3101 78.4811C78.6899 78.6716 78.9748 78.7669 79.3547 78.7669Z" fill="#787878"/>
<path d="M89.8953 79.4335C89.2306 79.4335 88.6608 79.3383 88.091 79.1478C87.5213 78.9573 87.0465 78.6716 86.6666 78.2907C86.2868 77.9097 85.9069 77.5288 85.717 76.9573C85.5271 76.4811 85.3372 75.9097 85.3372 75.243C85.3372 74.6716 85.4321 74.1002 85.717 73.624C85.9069 73.1478 86.2868 72.6716 86.6666 72.3859C87.0465 72.0049 87.5213 71.7192 88.091 71.5288C88.6608 71.3383 89.2306 71.243 89.8953 71.243C90.56 71.243 91.1298 71.3383 91.6996 71.5288C92.2694 71.7192 92.7442 72.0049 93.124 72.3859C93.5039 72.7669 93.8837 73.1478 94.0736 73.624C94.2635 74.1002 94.4535 74.6716 94.4535 75.243C94.4535 75.624 94.3585 76.1002 94.2635 76.3859C94.1686 76.7669 93.9787 77.0526 93.7887 77.4335C93.5988 77.7192 93.4089 78.0049 93.124 78.2907C92.8391 78.5764 92.5542 78.7669 92.1744 78.9573C91.7945 79.1478 91.5097 79.243 91.1298 79.3383C90.75 79.4335 90.2752 79.4335 89.8953 79.4335ZM89.8953 78.7669C90.2752 78.7669 90.655 78.6716 90.9399 78.4811C91.2248 78.2907 91.5097 78.1002 91.6996 77.7192C91.8895 77.3383 92.0794 77.0526 92.1744 76.5764C92.2694 76.1954 92.3643 75.7192 92.3643 75.1478C92.3643 74.6716 92.2694 74.1954 92.1744 73.8145C92.0794 73.4335 91.8895 73.0526 91.6996 72.7669C91.5097 72.4811 91.2248 72.1954 90.9399 72.1002C90.655 71.9097 90.2752 71.8145 89.8953 71.8145C89.5155 71.8145 89.1356 71.9097 88.8507 72.1002C88.5659 72.2907 88.281 72.4811 88.091 72.7669C87.9011 73.0526 87.7112 73.4335 87.6162 73.8145C87.5213 74.1954 87.4263 74.6716 87.4263 75.1478C87.4263 75.624 87.5213 76.1002 87.6162 76.5764C87.7112 76.9573 87.9011 77.3383 88.091 77.7192C88.281 78.005 88.5659 78.2907 88.8507 78.4811C89.1356 78.6716 89.4205 78.7669 89.8953 78.7669Z" fill="#787878"/>
<path d="M96.0679 71.4336H97.3024L101.766 76.386V71.4336H103V79.4336H102.145L97.3024 73.9098V79.3384H96.0679V71.4336Z" fill="#787878"/>
</svg>
