<svg width="109" height="109" viewBox="0 0 109 109" fill="none" xmlns="http://www.w3.org/2000/svg">
<rect width="109" height="109" rx="19" fill="#FFFCFC"/>
<path d="M28.1175 78.3865C27.7312 77.9051 28.3106 77.5199 28.4071 77.1348C28.214 76.7496 28.1175 76.3645 28.214 75.9793C27.9244 75.7868 28.0209 75.4016 27.6347 75.3053C27.5381 74.8239 26.9588 74.535 26.8623 74.0536C26.5726 73.861 26.5726 73.2833 26.0899 73.4759C25.8967 73.3796 25.8002 73.0908 25.6071 73.0908C25.0278 72.6093 24.2553 72.513 23.4829 72.6093C23.1933 72.0316 22.6139 71.839 22.1312 71.4539C21.1657 70.8762 20.1036 70.6836 19.0415 70.3947C18.1725 70.3947 17.4966 70.2985 16.6277 70.2985C16.0484 70.5873 15.3725 70.491 14.7932 70.8762C13.6345 71.165 12.669 71.6465 11.8 72.6093C11.6069 73.0908 11.1242 73.4759 10.9311 73.861L11.1242 73.9573C11.1242 74.3425 10.9311 74.7276 11.0276 75.2091C10.738 75.7868 11.2207 76.1719 11.1242 76.7496C11.2207 77.4236 11.3173 78.0013 11.5104 78.5791C11.3173 79.2531 12.1862 79.5419 12.0897 80.2159C12.5725 80.6974 12.9587 81.2751 13.4414 81.5639C13.9242 81.6602 14.2139 82.1417 14.6966 82.3342C14.7932 82.7194 15.3725 82.5268 15.7587 82.7194C15.8553 82.9119 15.9518 83.1045 16.1449 83.1045C16.5311 83.1045 16.7242 83.3934 17.1104 83.3934C17.8829 83.6822 18.8484 84.2599 18.9449 85.2228C18.5587 85.608 18.3656 86.282 17.6898 86.282C17.3035 85.9931 16.8208 86.0894 16.4346 85.9931C16.2415 85.8968 15.9518 85.8005 16.0484 85.5117C15.6621 85.5117 15.3725 85.5117 15.1794 85.2228C14.407 84.6451 13.8276 83.6822 12.8621 83.4897C12.669 83.2008 12.3793 83.2008 12.1862 83.0082C12.0897 83.0082 11.9931 83.1045 11.9931 83.1045C11.2207 83.0082 10.8345 83.8748 10.1586 84.2599L9.86898 84.1637C9.67587 84.2599 9.86898 84.4525 9.86898 84.5488C9.86898 85.0302 9.28966 84.934 9.19311 85.3191C9.48276 85.5117 9.09655 85.7042 9.19311 85.8968C9.57932 86.0894 9.09655 86.1857 9 86.3782C9 86.7634 9 87.2448 9 87.63C9.28966 87.8225 9.57932 88.1114 9.67587 88.4002C10.0621 88.5928 10.1586 89.1705 10.6414 89.1705C11.2207 88.5928 11.7035 89.4594 12.1862 89.5557C12.669 89.5557 13.0552 90.2297 13.6345 89.8445C13.8276 89.8445 14.0207 90.0371 14.2139 89.9408C14.407 89.7483 14.6001 90.0371 14.7932 90.0371C14.9863 90.2297 15.1794 89.9408 15.3725 90.0371C15.7587 90.6148 16.2415 90.326 16.6277 90.326C18.8484 90.4223 21.4553 90.2297 22.4208 87.9188C22.4208 87.5337 22.3243 87.0522 22.3243 86.6671C22.3243 86.8597 22.4208 87.2448 22.2277 87.3411C22.0346 87.2448 22.2277 86.956 22.1312 86.8597C21.9381 86.8597 22.1312 87.0522 22.0346 87.1485C22.0346 87.4374 22.2277 87.7262 22.0346 87.9188L21.9381 87.8225H21.8415C21.6484 88.1114 21.4553 88.4002 21.1657 88.4965C21.0691 88.4002 21.2622 88.304 21.1657 88.2077C21.0691 88.1114 21.2622 87.9188 21.0691 87.8225C21.0691 87.4374 21.3588 87.0522 21.4553 86.6671C21.2622 86.0894 21.2622 85.4154 21.0691 84.8377C20.6829 84.3562 20.2967 83.7785 20.2967 83.1045C19.8139 82.7194 19.4277 82.0454 18.8484 81.6602C18.3656 80.5048 16.9173 80.4085 16.5311 79.2531C16.2415 78.8679 16.8208 78.4828 16.4346 78.0976C16.4346 77.9051 16.5311 77.6162 16.7242 77.5199C16.7242 77.1348 16.9173 76.8459 17.207 76.4608C17.7863 76.0756 18.2691 75.4979 19.0415 75.6905C19.5243 76.0756 20.1036 75.9793 20.4898 76.4608C21.1657 76.7496 21.1657 77.5199 21.745 78.0014C21.745 78.5791 22.6139 78.6754 22.6139 79.2531C23.0002 79.9271 23.5795 80.3122 24.2553 80.5048C24.6416 80.6011 25.2209 80.7936 25.5105 80.4085C26.0898 80.5048 26.4761 79.8308 27.0554 79.8308C27.6347 79.4456 27.6347 78.8679 28.1175 78.3865ZM21.8415 88.0151C21.8415 88.0151 21.9381 88.1114 21.8415 88.0151C21.8415 88.1114 21.745 88.2077 21.745 88.2077C21.6484 88.1114 21.8415 88.1114 21.8415 88.0151ZM21.5519 88.4002C21.4553 88.8817 20.9726 88.978 20.6829 89.1705C19.7174 89.4594 18.7518 89.9408 17.7863 89.9408C17.7863 89.7483 17.9794 89.7483 18.076 89.652C18.5587 89.652 18.9449 89.2668 19.5243 89.3631C20.2967 89.2668 20.9726 88.8817 21.5519 88.4002ZM20.2967 88.304H20.3932C20.2967 88.4965 20.007 88.5928 19.8139 88.7854C19.5243 88.6891 19.3312 89.0743 19.138 88.8817C18.9449 88.8817 18.8484 88.978 18.6553 88.978C18.7518 88.6891 19.138 88.6891 19.4277 88.5928C19.8139 88.5928 20.1036 88.5928 20.2967 88.304ZM19.2346 87.7262H19.0415C19.138 87.4374 19.5243 87.2448 19.8139 87.2448C19.8139 87.5337 19.4277 87.63 19.2346 87.7262ZM18.9449 82.2379C19.3312 82.2379 19.3312 82.7194 19.6208 82.9119C19.6208 83.0082 19.6208 83.1045 19.6208 83.1045C19.3312 82.8157 18.9449 82.6231 18.9449 82.2379Z" fill="#787878"/>
<path d="M38.3521 80.8899C38.2555 80.6011 37.9659 80.6974 37.6762 80.6011C37.3866 80.3122 36.8072 80.4085 36.421 80.3122C36.1314 80.6011 35.6486 80.4085 35.4555 80.8899C35.4555 80.9862 35.4555 81.0825 35.5521 81.1788C35.4555 81.7565 35.359 82.2379 35.2624 82.8157C35.0693 83.1045 34.6831 83.0082 34.3934 83.0082C33.8141 82.9119 32.9451 83.1045 32.4624 82.8157C32.3658 82.6231 32.2693 82.5268 32.4624 82.3342C32.5589 81.7565 32.8486 81.3714 33.1382 80.8899C33.1382 80.6974 33.5245 80.6974 33.3313 80.5048C33.4279 80.2159 33.9107 80.3122 33.9107 80.0234C33.9107 79.5419 34.49 79.4456 34.6831 79.0605C34.49 78.7716 34.8762 78.5791 34.9727 78.2902C35.0693 78.0976 34.9727 77.9051 35.1658 77.8088C35.5521 77.7125 35.6486 77.3273 35.8417 77.0385C35.7452 76.9422 35.5521 76.9422 35.5521 76.7496C35.7452 76.3645 35.8417 75.9793 35.8417 75.5942C35.4555 75.3053 36.0348 75.1128 35.9383 74.7276C36.0348 74.535 36.1314 74.2462 36.3245 74.1499C36.9038 74.1499 36.5176 73.4759 36.8072 73.2833C36.7107 73.187 36.5176 73.0908 36.7107 72.9945C36.9038 72.8019 36.5176 72.6093 36.6141 72.513C36.7107 72.3205 36.5176 72.2242 36.421 72.0316C36.3245 71.6465 35.8417 71.7428 35.6486 71.4539C35.5521 71.0688 35.0693 71.165 34.8762 70.7799C34.7796 70.5873 34.7796 70.3947 34.5865 70.2985C34.49 70.2985 34.3934 70.3947 34.2003 70.3947C33.7176 70.2022 33.2348 70.491 32.8486 70.6836C32.6555 70.6836 32.5589 70.9725 32.3658 70.8762C32.2693 71.0687 32.1727 71.2613 31.9796 71.2613C32.0762 71.3576 32.0762 71.4539 31.9796 71.5502C31.5934 71.6465 31.5934 72.0316 31.4968 72.3205C31.6899 72.6093 31.3037 72.7056 31.2072 72.8982C31.1106 73.0908 31.4003 73.187 31.4003 73.3796C31.7865 73.9573 30.9175 74.0536 30.9175 74.535C30.821 74.7276 30.4348 74.8239 30.6279 75.1128C30.5313 75.2091 30.4348 75.2091 30.4348 75.3053C30.5313 75.4979 30.2417 75.5942 30.3382 75.7868C29.8554 75.9793 30.3382 76.4608 30.0485 76.7496C29.6623 77.0385 29.5658 77.4236 29.5658 77.9051C29.7589 78.1939 29.3727 78.3865 29.3727 78.5791C29.4692 78.6754 29.5658 78.6754 29.5658 78.7716C29.3727 78.9642 29.5658 79.2531 29.3727 79.4456C29.3727 79.8308 29.2761 80.2159 29.1796 80.6011C28.9865 80.9862 28.9865 81.4677 28.7934 81.9491C28.6003 82.0454 28.6968 82.2379 28.6968 82.4305C28.4071 82.8157 28.6003 82.1417 28.4072 82.1417C28.214 82.3342 28.3106 82.6231 28.214 82.8157C28.1175 83.1045 28.3106 83.3934 28.214 83.6822C28.3106 83.9711 28.0209 84.0674 28.0209 84.3562C27.8278 84.6451 27.5382 84.934 27.4416 85.3191H27.3451C27.2485 85.1265 27.3451 84.9339 27.3451 84.7414C27.2485 84.8377 27.152 85.0302 27.0554 85.2228C26.9589 85.608 26.8623 86.0894 26.8623 86.5708C26.8623 86.956 26.8623 87.4374 27.0554 87.8225C27.2485 88.2077 26.9589 88.7854 27.2485 89.0743C27.6347 89.1705 27.6347 89.652 28.0209 89.9408C28.3106 89.8445 28.5037 90.326 28.7934 90.1334C29.1796 90.2297 29.3727 89.9408 29.6623 89.7483C30.0485 89.652 30.2417 89.2668 30.6279 89.0743C30.9175 88.7854 30.821 88.304 30.6279 88.0151C30.7244 87.2448 30.821 86.282 31.5934 85.8968C31.6899 85.8968 31.8831 85.8005 31.9796 85.8968C32.0762 85.8005 32.2693 85.8968 32.3658 85.7042C32.5589 85.608 32.8486 85.4154 33.0417 85.608C33.3313 85.3191 33.8141 85.4154 34.2003 85.5117C34.2969 85.3191 34.49 85.3191 34.6831 85.3191C34.7796 85.5117 34.7796 85.8968 34.6831 86.0894C34.5865 86.4745 34.6831 87.0522 34.5865 87.4374C34.6831 87.9188 34.5865 88.4965 34.9727 88.7854C35.0693 88.6891 35.2624 88.6891 35.359 88.4965C35.6486 88.4003 35.5521 88.8817 35.8417 88.8817C36.8072 88.5928 36.5176 87.5337 36.8072 86.8597C37.0004 86.4745 36.9038 85.9931 37.0969 85.7042C37.0969 85.4154 37.3866 85.1265 37.5797 84.8377C37.6762 84.6451 37.4831 84.4525 37.4831 84.1637C37.5797 83.7785 37.6762 83.3934 37.7728 83.0082C37.6762 82.3342 38.6418 82.1417 38.6418 81.4677C38.3521 81.2751 38.2555 81.0825 38.3521 80.8899Z" fill="#787878"/>
<path d="M48.9729 83.8748C48.6832 83.0082 48.297 82.2379 47.5246 81.5639C47.428 81.275 47.2349 81.1788 46.9453 81.0825C46.4625 80.5048 45.6901 80.601 45.3039 79.927C45.497 79.8308 45.4004 79.6382 45.497 79.4456C45.4004 79.0605 44.8211 79.4456 44.628 79.1568C44.4349 78.7716 44.1452 78.2902 43.6625 78.2902C43.3728 78.2902 43.0831 78.0976 42.7935 78.2902C42.5038 78.3865 41.828 78.2902 41.828 78.7716C40.959 79.1568 40.2831 79.927 39.6072 80.601C38.8348 81.275 38.6417 82.2379 38.5452 83.2008C38.4486 83.9711 38.8348 84.5488 38.8348 85.2228C38.9314 85.5116 38.9314 85.8968 39.1245 86.1856C39.1245 86.6671 39.5107 86.9559 39.7038 87.2448C40.6693 88.0151 41.6348 88.6891 42.7935 88.9779C44.3383 89.6519 45.9797 88.9779 47.2349 88.4002C47.8142 88.1114 47.7177 87.5336 48.1039 87.1485C47.8142 86.9559 47.9108 87.3411 47.6211 87.4374C47.5246 87.4374 47.5246 87.4374 47.428 87.3411C47.5246 87.0522 47.6211 86.6671 47.7177 86.3782C48.1039 86.1856 47.8142 85.8005 48.1039 85.6079C48.297 85.8005 48.0073 85.8968 48.1039 86.0893C48.3935 86.4745 48.2004 85.8005 48.4901 85.8005C48.5867 85.8968 48.6832 85.8968 48.7798 85.8968C49.0694 85.8005 48.9729 85.4153 49.166 85.2228C49.3591 84.6451 48.7798 84.4525 48.9729 83.8748ZM43.0831 79.927C42.7935 80.0233 42.5038 80.2159 42.2142 80.2159C42.5038 79.927 42.7935 79.7345 43.0831 79.927ZM39.3176 83.6822C39.221 83.6822 39.3176 83.5859 39.221 83.4896C38.9314 81.8528 40.2831 80.6973 41.5383 79.8308C41.6349 79.7345 41.828 79.6382 41.9245 79.7345C41.9245 79.8308 41.7314 79.8308 41.9245 79.927C42.1176 79.8308 42.4073 79.6382 42.6004 79.6382C42.5038 79.8308 42.2142 79.8308 42.2142 80.1196C41.9245 80.3122 41.6348 80.4085 41.3452 80.601C41.5383 80.4085 41.7314 80.2159 41.9245 80.0233C41.828 79.927 41.6349 80.1196 41.5383 80.2159C40.8624 80.6973 40.2831 81.3713 39.8969 82.0453L39.9934 82.1416C40.1866 81.8528 40.3797 81.4676 40.7659 81.1788C40.8624 81.275 40.7659 81.4676 40.7659 81.5639C39.8969 82.0453 39.6072 82.9119 39.3176 83.6822ZM46.3659 86.1856C45.9797 86.3782 45.5935 86.9559 45.0142 86.8596C43.2762 86.5708 40.959 86.7634 40.1866 84.7413C40.09 84.5488 40.1866 84.2599 39.9934 84.0673C40.09 83.7785 40.09 83.3933 40.2831 83.1045C40.4762 83.1045 40.6693 83.3933 40.7659 83.1045C40.959 83.1045 40.959 83.1045 41.0555 83.1045C41.1521 83.2971 41.3452 83.1045 41.4417 83.2971L41.7314 83.5859L41.5383 83.7785C41.6349 83.9711 41.828 83.8748 42.0211 83.9711C42.3107 83.9711 42.5038 83.6822 42.7935 83.7785C43.6625 83.7785 44.5314 84.0673 45.3039 84.4525C45.5935 84.9339 46.1728 85.2228 46.0763 85.8968C46.4625 85.8968 46.4625 86.0893 46.3659 86.1856ZM47.5246 86.2819C47.3315 86.4745 47.3315 86.7634 47.2349 87.0522C47.1384 86.8596 47.3315 86.6671 47.3315 86.4745C47.428 86.2819 47.428 86.1856 47.6211 85.9931C47.6211 86.0894 47.5246 86.1856 47.5246 86.2819Z" fill="#787878"/>
<path d="M20.7794 83.8748C20.876 83.9711 21.0691 83.9711 21.1656 83.8748C21.0691 83.5859 20.7794 83.6822 20.5863 83.4896C20.3932 83.6822 20.6829 83.7785 20.7794 83.8748Z" fill="#787878"/>
<path d="M21.8416 85.0302C21.8416 85.2227 21.9381 85.4153 22.1312 85.6079V85.5116C22.0347 85.2227 22.0347 85.0302 21.8416 85.0302Z" fill="#787878"/>
<path d="M66.9317 80.7936C66.7386 80.2159 66.1592 80.0233 65.8696 79.5419C65.6765 79.5419 65.4834 79.3493 65.2903 79.3493C65.0972 79.4456 65.0006 79.253 64.9041 79.0605C64.5178 79.1567 64.2282 78.6753 63.9385 78.7716C63.842 78.7716 63.842 78.6753 63.7454 78.579C63.4558 78.579 63.2627 78.3865 62.8764 78.4827C62.5868 78.0976 62.104 78.4827 61.7178 78.2902C61.6213 78.2902 61.5247 78.0976 61.4282 78.0976C61.1385 78.2902 60.9454 77.905 60.5592 78.0013V78.0976C60.0764 78.4827 59.5937 78.0013 59.1109 78.2902C58.435 77.905 58.2419 78.7716 57.6626 78.7716C57.2764 78.9642 57.0833 79.3493 56.7936 79.6382C56.6005 79.8307 56.7936 80.1196 56.6005 80.4085C56.2143 80.8899 56.6971 81.275 56.8902 81.7565C56.9867 81.949 56.7936 82.1416 57.0833 82.2379C56.8902 82.7193 57.4695 82.8156 57.7592 83.1045C57.8557 83.1045 58.0488 83.1045 58.1454 83.1045C58.3385 83.3933 58.7247 83.297 59.0143 83.3933C59.2074 83.4896 59.304 83.6822 59.304 83.8748C59.2074 84.0673 59.1109 84.2599 58.9178 84.3562C58.435 84.3562 57.9523 84.3562 57.566 84.0673C57.1798 84.1636 56.8902 83.8748 56.6005 83.8748C56.3109 83.4896 55.8281 83.6822 55.5384 83.3933C55.4419 83.297 55.4419 83.0082 55.2488 83.1045C54.766 82.7193 54.2833 82.5268 53.8005 82.1416C53.8005 81.949 53.5108 81.8528 53.5108 81.6602C52.835 81.275 53.1246 80.4085 52.7384 79.927C52.7384 79.7345 52.6418 79.6382 52.7384 79.4456C52.7384 79.253 52.7384 78.9642 52.7384 78.7716C52.835 78.4827 52.7384 78.0976 52.835 77.8087C52.9315 77.8087 52.9315 77.905 53.0281 77.905C53.0281 77.5199 52.9315 77.231 53.1246 76.8459C54.1867 75.5942 55.4419 75.1127 56.8902 74.8239C57.0833 75.0164 57.4695 74.9202 57.6626 75.0164C57.7592 74.7276 58.1454 75.0164 58.2419 74.7276C58.3385 74.7276 58.435 74.8239 58.5316 74.9202C58.6281 74.9202 58.6281 75.0164 58.7247 74.9202H58.5316C58.5316 74.9202 58.6281 74.8239 58.7247 74.8239C58.5316 74.2462 57.6626 74.535 57.2764 74.1499L57.3729 74.0536C58.5316 74.1499 59.6902 74.535 60.3661 75.4979C60.3661 75.6904 60.0764 75.883 59.9799 75.9793C59.7868 76.4607 60.3661 76.2682 60.5592 76.4607C60.5592 76.557 60.3661 76.6533 60.3661 76.7496C60.0764 77.1347 60.7523 77.231 60.8488 77.5199C61.1385 77.1347 61.4282 77.7125 61.7178 77.6162C62.104 77.4236 62.3937 77.7125 62.6833 77.8087C63.0696 77.5199 63.1661 77.0384 63.5523 76.8459L63.842 75.9793C63.2627 75.4979 63.2627 74.8239 62.7799 74.3424C62.7799 73.7647 62.2971 73.187 61.8144 72.8981C61.8144 73.0907 62.104 73.2833 62.2006 73.4759C62.2971 73.6684 62.3937 73.861 62.2971 74.0536C61.6213 73.5721 61.1385 72.8019 60.4626 72.513C59.5937 72.2241 58.7247 71.839 57.566 72.0316C57.4695 72.1279 57.2764 72.0316 57.3729 72.2241C56.9867 72.2241 56.6005 72.2241 56.2143 72.2241C55.635 72.3204 55.0557 72.4167 54.4764 72.513C52.5453 73.3796 50.228 74.535 49.2625 76.6533C48.6832 78.1939 48.7797 79.927 49.2625 81.4676L49.4556 81.7565C49.8418 83.0082 50.4211 84.0673 51.3867 85.0302C51.8694 85.4153 52.2556 86.0893 53.0281 85.9931C53.897 86.3782 54.766 86.7633 55.635 87.1485C56.1178 87.0522 56.2143 87.7262 56.6005 87.5336C56.7936 87.8225 57.1798 87.7262 57.4695 88.0151C57.566 87.9188 57.6626 88.1113 57.8557 88.0151C58.2419 88.3039 58.7247 88.3039 59.1109 88.4965C59.6902 88.2076 59.4005 89.0742 59.7868 89.1705C59.6902 89.4594 60.0764 89.7482 59.9799 90.0371C60.3661 90.2296 59.8833 90.5185 60.173 90.7111C60.4626 90.9999 60.9454 90.9999 61.3316 90.9999L61.4282 90.9036C62.0075 90.9999 62.2006 90.4222 62.6833 90.1334C62.5868 89.9408 62.8764 89.9408 62.8764 89.7482C62.973 89.4594 63.2627 89.2668 63.0696 88.8816C63.3592 88.5928 63.3592 88.1114 63.7454 87.9188C63.7454 87.8225 63.5523 87.6299 63.7454 87.5336C63.6489 87.2448 63.6489 86.7633 63.7454 86.4745C63.5523 85.9931 63.7454 85.4153 63.9385 85.0302C63.9385 84.8376 63.9385 84.5488 64.2282 84.4525C64.5178 84.2599 64.8075 83.7785 65.1937 83.7785C65.4834 83.4896 65.9661 83.6822 66.1592 83.4896C66.2558 83.3933 66.2558 83.1045 66.4489 83.1045C66.8351 82.8156 66.642 82.3342 67.0282 81.949C66.7386 81.4676 67.0282 81.1787 66.9317 80.7936Z" fill="#787878"/>
<path d="M77.5526 81.8527C77.7457 81.6601 77.7457 81.275 77.8422 80.9861C77.7457 80.7936 77.7457 80.601 77.9388 80.5047C78.1319 80.1196 77.5526 79.8307 77.6491 79.4456C77.6491 79.1567 77.8422 78.8678 77.8422 78.579C77.3595 78.0013 76.6836 77.8087 76.1043 77.3273H75.9112C75.8146 77.3273 75.6215 77.4235 75.5249 77.5198C75.6215 77.6161 75.5249 77.6161 75.4284 77.7124C75.2353 77.7124 75.1387 78.0013 74.9456 78.0976C75.0422 78.3864 74.5594 78.579 74.4629 78.7716C74.5594 79.3493 74.4629 79.927 74.3663 80.5047C74.0767 80.6973 73.9801 81.0824 73.787 81.275C73.3042 81.5638 72.8215 81.7564 72.3387 81.949C72.049 81.949 71.7594 82.0453 71.4697 81.949C71.2766 81.8527 71.5663 81.6601 71.3732 81.5639C71.5663 81.4676 71.6628 81.275 71.7594 80.9861C72.3387 80.4084 72.1456 79.4456 72.6284 78.7716C72.5318 78.579 72.7249 78.2901 72.8215 78.0976C72.918 77.7124 72.8215 77.4235 72.918 77.0384C72.6284 76.3644 71.8559 76.2681 71.3732 75.5941C71.2766 75.5941 71.0835 75.7867 70.987 75.5941C70.8904 75.6904 70.7939 75.5941 70.6973 75.5941C70.5042 75.4978 70.4076 75.6904 70.3111 75.7867C70.0214 75.7867 69.8283 76.1718 69.6352 76.2681C69.5387 76.3644 69.5387 76.557 69.7318 76.557C69.5387 76.9421 69.1525 77.1347 68.9594 77.5198C69.0559 77.6161 69.1525 77.7124 69.3456 77.7124C69.3456 77.8087 69.5387 77.8087 69.4421 77.905C69.3456 78.4827 68.8628 78.9641 68.5731 79.4456C68.2835 79.7344 68.2835 80.0233 67.9938 80.3121C67.8973 80.5047 67.9938 80.6973 67.8007 80.7936C67.8973 81.0824 67.5111 81.275 67.6076 81.6601C67.4145 82.7193 67.6076 83.7784 67.9938 84.645C68.38 85.319 69.0559 85.8967 69.7318 86.2819C70.0214 86.2819 70.3111 86.4744 70.6008 86.3782C71.1801 86.5707 71.7594 86.2819 72.4353 86.3782C73.3042 85.993 74.2698 85.8004 75.0422 85.319V85.1264C75.4284 84.645 76.0077 84.2599 76.3939 83.7784C76.7801 83.4896 76.7801 82.9119 77.2629 82.623C77.2629 82.2379 77.456 82.0453 77.5526 81.8527Z" fill="#787878"/>
<path d="M96.1872 72.1278C95.8976 71.7427 95.9941 71.165 95.5114 70.9724C94.8355 70.8761 94.4493 70.3947 93.7734 70.3947C93.4838 70.0096 93.0975 70.1058 92.7113 69.9133C92.132 70.0096 91.1665 69.3356 90.7803 70.0096C90.7803 70.491 90.201 70.8761 89.8147 70.9724C89.332 71.0687 89.4285 71.7427 89.2354 72.0316C89.6216 72.3204 89.332 72.513 89.332 72.8981C88.6561 73.0907 89.4285 73.6684 89.0423 74.1499C88.6561 74.6313 88.5596 75.1127 88.3665 75.6904C88.463 75.5941 88.463 75.4979 88.5596 75.4016C88.7527 75.1127 88.8492 75.4979 89.0423 75.4979C89.1389 75.5941 89.1389 75.6904 89.2354 75.7867C88.2699 77.3273 87.4975 78.9642 86.9182 80.7936C86.6285 80.9862 86.8216 80.601 86.532 80.5047C86.1457 80.3122 85.9526 80.601 85.663 80.7936C86.3388 81.1787 85.7595 81.949 86.0492 82.3342C86.4354 82.623 86.0492 82.9119 85.9526 83.1045C85.663 83.0082 85.8561 82.623 85.663 82.3342C84.9871 82.4305 85.2768 83.297 84.794 83.5859C84.4078 83.297 84.5043 82.7193 84.4078 82.2379C84.5043 81.5639 84.3112 80.9862 84.2147 80.4085C84.3112 80.2159 84.3112 79.927 84.1181 79.8307H84.0216C83.925 79.7345 84.0216 79.6382 84.0216 79.5419C83.925 79.3493 83.8285 79.1567 83.6354 79.1567C83.5388 79.0605 83.4423 78.9642 83.5388 78.8679C82.8629 78.2902 83.5388 77.5199 83.2492 76.8459C82.7664 76.1719 82.5733 75.4016 81.8974 74.8239C81.6078 74.535 81.4146 75.0164 81.0284 74.7276C80.8353 74.8239 80.6422 75.0164 80.6422 75.209C80.6422 75.6904 80.5457 76.0756 80.3526 76.4607C80.3526 76.9422 80.0629 77.4236 80.0629 77.905C79.6767 79.1567 79.5801 80.5047 79.1939 81.6602C78.9043 83.0082 79.0008 84.5488 78.4215 85.7042C78.2284 85.8968 78.0353 85.993 77.9388 86.2819C77.8422 86.4745 77.5525 86.4745 77.5525 86.667C77.1663 86.7633 77.3594 87.341 77.3594 87.6299C77.456 88.0151 77.8422 88.1113 78.0353 88.4965C77.9387 89.0742 78.6146 89.3631 78.8077 89.8445C79.5802 90.5185 80.5457 90.5185 81.4147 90.4222C81.8974 90.2296 81.6078 89.3631 82.1871 89.1705C82.1871 89.0742 82.2836 88.9779 82.1871 88.9779C82.7664 88.5928 81.994 88.0151 82.2836 87.4373C81.8009 86.3782 82.2836 85.319 82.4767 84.4525C82.6698 84.0673 82.4767 83.4896 82.7664 83.2008C82.8629 83.3933 83.1526 83.6822 83.1526 84.0673C83.4423 84.7413 83.5388 85.5116 83.7319 86.2819L84.6009 87.9188C85.0837 88.4965 85.1802 89.2668 85.7595 89.6519C86.0492 89.8445 86.4354 89.8445 86.6285 89.7482C87.0147 90.2296 87.4009 89.7482 87.7871 89.7482C88.2699 89.4593 88.6561 89.0742 88.7527 88.5928C89.1389 88.4965 89.0423 88.0151 89.0423 87.7262C88.7527 87.2448 88.9458 86.5708 89.0423 86.0893C89.2354 85.6079 89.2354 85.0302 89.4285 84.5488C89.6216 83.5859 89.8147 82.623 90.0079 81.6602C90.3941 80.9862 90.3941 80.0233 90.7803 79.253C91.3596 78.1939 91.7458 76.9422 92.9044 76.2682C93.2907 76.557 93.4838 76.2682 93.7734 76.1719C93.9665 76.0756 94.4493 76.4607 94.2562 75.9793C94.2562 75.883 94.4493 75.7867 94.5458 75.883C95.1252 75.4979 95.801 75.4016 96.2838 75.0164C96.2838 74.6313 96.4769 74.4387 96.5734 74.0536C96.2838 73.2833 96.4769 72.7056 96.1872 72.1278Z" fill="#787878"/>
<path d="M88.463 75.6904C88.463 75.7867 88.2698 75.883 88.3664 76.0756L88.463 75.6904Z" fill="#787878"/>
<path d="M87.4974 76.8459C87.4009 76.557 87.7871 76.6533 87.6905 76.3645C87.6905 76.3645 87.6905 76.2682 87.594 76.2682C87.4974 76.3645 87.3043 76.6533 87.4974 76.8459Z" fill="#787878"/>
<path d="M86.7251 78.0975C86.7251 78.2901 86.6285 78.4827 86.532 78.6753C86.4354 78.8678 86.4354 79.0604 86.4354 79.253C86.6285 78.9641 86.7251 78.7715 86.8216 78.3864C86.8216 78.2901 86.8216 78.0975 86.7251 78.0975Z" fill="#787878"/>
<path d="M86.4349 79.7339C86.4349 79.6379 86.4349 79.6379 86.4349 79.5419V79.7339C86.3389 79.7339 86.3389 79.7339 86.4349 79.7339Z" fill="#787878"/>
<path d="M80.3525 68.3727C80.4491 68.3727 80.4491 68.3727 80.5456 68.469C80.7387 68.5653 80.9318 68.5653 81.125 68.5653C81.125 68.469 81.125 68.2765 81.125 68.1802C80.8353 68.1802 80.6422 68.1802 80.4491 68.2765C80.4491 68.2765 80.4491 68.2765 80.3525 68.3727Z" fill="#787878"/>
<path d="M81.8009 68.5653H82.1871C82.3802 68.5653 82.4768 68.6616 82.4768 68.7579C82.4768 68.8542 82.3802 68.9505 82.1871 68.9505C82.0906 68.9505 81.8975 68.9505 81.8009 68.9505C81.8009 69.0467 81.8009 69.2393 81.8009 69.3356C81.8975 69.3356 81.994 69.3356 82.0906 69.3356C82.1871 69.3356 82.1871 69.3356 82.2837 69.3356C82.2837 69.2393 82.3802 69.143 82.5733 68.8542C82.6699 68.6616 82.7664 68.5653 82.7664 68.469C82.7664 68.2765 82.4768 68.1802 81.8975 68.1802C81.8009 68.2765 81.8009 68.469 81.8009 68.5653Z" fill="#787878"/>
<path d="M80.5457 69.2394C80.6423 69.2394 80.7388 69.2394 80.8354 69.3357C80.9319 69.3357 81.0285 69.3357 81.2216 69.3357C81.2216 69.2394 81.2216 69.1431 81.2216 68.9505C80.9319 68.9505 80.7388 68.8542 80.4492 68.8542C80.3526 68.9505 80.4492 69.1431 80.5457 69.2394Z" fill="#787878"/>
<path d="M89.5251 64.8102C89.5251 64.7139 89.5251 64.4251 89.6217 64.5214C89.6217 64.4251 89.5251 64.1362 89.5251 64.0399C89.5251 64.0399 89.5251 64.1362 89.6217 64.2325L89.5251 63.8474V63.9436C89.5251 63.6548 89.332 63.4622 89.2354 63.2696C89.332 63.2696 89.332 63.4622 89.4285 63.6548C89.4285 63.4622 89.332 63.5585 89.332 63.3659L89.1389 63.0771C88.9458 62.7882 89.0423 63.0771 88.8492 62.6919C88.9458 62.9808 88.9458 62.8845 89.0423 63.0771C89.0423 63.1734 88.9458 62.8845 88.8492 62.7882C88.7527 62.5956 88.8492 62.4994 88.7527 62.3068C88.8492 62.4994 88.8492 62.3068 88.9458 62.4993C89.0423 62.5956 88.9458 62.4031 88.9458 62.4031C88.9458 62.3068 88.8492 62.4994 88.8492 62.3068C88.8492 62.3068 88.8492 62.2105 88.7527 62.2105C88.6561 62.1142 88.6561 62.1142 88.6561 62.1142C88.5596 62.0179 88.5596 61.8253 88.463 61.7291C88.3665 61.6328 88.2699 61.4402 88.2699 61.3439V61.4402C88.1734 61.2476 88.0768 61.0551 87.9803 60.9588C88.0768 60.9588 88.0768 61.0551 88.1734 61.1513C88.0768 60.9588 87.9803 60.8625 87.8837 60.7662C87.7871 60.6699 87.6906 60.5736 87.594 60.4773C87.6906 60.6699 87.6906 60.6699 87.6906 60.7662C87.4975 60.6699 87.594 60.4773 87.4009 60.3811C87.4009 60.2848 87.4975 60.3811 87.4975 60.2848C87.4009 60.1885 87.3044 60.0922 87.1113 59.9959C87.1113 59.8996 87.2078 59.9959 87.4009 60.1885C87.4975 60.3811 87.6906 60.4773 87.7871 60.6699V60.5736C87.9803 60.7662 87.9803 60.8625 88.1734 60.9588H88.2699L88.1734 60.8625L88.2699 60.9588C88.1734 60.8625 88.0768 60.8625 87.9803 60.7662C87.7872 60.5736 87.8837 60.3811 87.6906 60.2848C87.6906 60.2848 87.594 60.0922 87.6906 60.1885C87.7871 60.2848 87.8837 60.3811 87.8837 60.3811C87.7871 60.2848 87.8837 60.2848 87.6906 60.0922C87.594 60.0922 87.4009 59.9959 87.3044 59.8996C87.2078 59.8033 87.1113 59.8033 87.1113 59.7071C87.0147 59.6108 86.9182 59.6108 86.9182 59.5145C87.1113 59.6108 87.2078 59.7071 87.2078 59.7071C87.1113 59.7071 86.9182 59.4182 86.9182 59.5145C86.7251 59.3219 86.4354 59.1293 86.532 59.0331C86.7251 59.1293 86.8216 59.3219 87.0147 59.4182C87.0147 59.4182 86.9182 59.3219 87.0147 59.3219L87.2078 59.5145C87.1113 59.3219 87.1113 59.3219 86.9182 59.2256C86.8216 59.2256 86.8216 59.1293 86.7251 59.1293V59.0331C86.532 58.9368 86.3389 58.6479 85.9526 58.4553C85.7595 58.2628 85.663 58.359 85.3733 58.2628C85.4699 58.2628 85.4699 58.2628 85.4699 58.1665C85.2768 58.0702 85.2768 58.0702 85.1802 57.9739C85.3733 58.0702 85.0837 57.9739 85.1802 58.0702C85.1802 58.1665 84.8906 57.9739 84.6975 57.8776C84.6009 57.7813 85.1802 58.0702 84.9871 57.8776C84.794 57.7813 84.794 57.7813 84.8906 57.8776C84.6975 57.7813 84.4078 57.685 84.3112 57.5888C84.0216 57.5888 83.925 57.4925 83.8285 57.5888C83.925 57.5888 84.0216 57.5888 84.1181 57.685C84.1181 57.685 84.1181 57.685 84.0216 57.685H83.925C83.7319 57.5888 83.5388 57.4925 83.3457 57.4925H83.5388C83.6354 57.4925 83.8285 57.5888 83.8285 57.4925C83.6354 57.4925 83.5388 57.3962 83.3457 57.3962C82.9595 57.3962 82.7664 57.2036 82.4767 57.2999C82.5733 57.2999 82.6699 57.3962 82.6699 57.3962C82.5733 57.2999 82.3802 57.2999 82.3802 57.2999H82.4767C82.2836 57.2999 82.1871 57.2999 82.0905 57.2999C81.994 57.2999 82.0905 57.3962 81.8974 57.3962C81.5112 57.3962 82.0905 57.2999 81.8009 57.2036L81.5112 57.2999H81.4147C80.9319 57.2999 80.5457 57.4925 80.0629 57.5888C80.0629 57.5888 80.1595 57.4925 80.256 57.4925C80.3526 57.4925 80.4491 57.3962 80.5457 57.3962C80.3526 57.3962 80.1595 57.4925 79.9664 57.4925C79.7733 57.4925 79.5802 57.5888 79.6767 57.685C79.4836 57.7813 79.4836 57.685 79.4836 57.685C79.3871 57.7813 79.0974 57.8776 78.9043 57.9739C78.9043 57.9739 78.8077 57.9739 78.8077 58.0702C78.7112 58.0702 78.7112 58.1665 78.7112 58.1665C78.8077 58.1665 78.7112 58.1665 78.7112 58.2628H78.6146C78.7112 58.2628 78.8077 58.2628 78.8077 58.1665C78.9043 58.1665 79.0008 58.0702 79.0008 58.0702C79.194 57.9739 79.2905 57.8776 79.4836 57.9739C79.3871 57.9739 79.4836 57.9739 79.4836 58.0702C79.3871 58.0702 79.3871 58.0702 79.3871 58.0702C79.3871 58.1665 79.2905 58.1665 79.3871 58.1665C79.3871 58.2628 79.0974 58.359 78.9043 58.4553C78.7112 58.4553 79.0008 58.2628 79.0974 58.2628C79.0008 58.2628 79.0008 58.359 78.8077 58.359V58.2628C78.5181 58.4553 78.7112 58.359 78.7112 58.4553C78.7112 58.5516 78.4215 58.5516 78.4215 58.6479L78.5181 58.5516C78.325 58.6479 78.2284 58.7442 78.0353 58.8405H77.9388C78.2284 58.7442 78.2284 58.5516 78.325 58.5516C77.9388 58.6479 78.325 58.359 78.4215 58.2628C78.2284 58.359 78.1319 58.4553 78.0353 58.4553C77.8422 58.6479 77.5526 58.7442 77.3595 58.9368C77.2629 59.0331 77.456 58.8405 77.3595 58.9368C77.1663 59.1293 76.8767 59.2256 76.6836 59.5145C76.587 59.6108 76.587 59.6108 76.4905 59.6108C76.3939 59.7071 76.2008 59.8033 76.1043 59.8996C76.0077 59.9959 75.9112 60.0922 75.9112 60.1885C75.8146 60.2848 75.718 60.3811 75.718 60.4773C75.6215 60.5736 75.5249 60.7662 75.4284 60.8625V60.7662C75.3318 60.8625 75.2353 60.9588 75.2353 61.0551C75.1387 61.1513 75.0422 61.2476 74.9456 61.4402C74.9456 61.5365 74.8491 61.6328 74.8491 61.6328C74.8491 61.7291 74.7525 61.7291 74.7525 61.8253C74.5594 62.1142 74.656 62.2105 74.5594 62.4031C74.5594 62.4031 74.5594 62.3068 74.4629 62.4031C74.1732 63.2696 73.9801 64.0399 73.9801 65.0028V64.9065C73.9801 65.0991 73.9801 65.1954 73.9801 65.3879C73.9801 65.5805 73.9801 65.6768 74.0767 65.8694C74.0767 66.1582 74.1732 66.4471 74.1732 66.7359C74.1732 66.8322 74.2698 67.1211 74.2698 67.0248C74.2698 66.9285 74.2698 66.8322 74.3663 66.8322C74.4629 67.2174 74.3663 67.0248 74.4629 67.3137C74.3663 67.4099 74.3663 67.1211 74.2698 67.1211L74.4629 67.5062C74.4629 67.7951 74.656 67.9877 74.656 68.1802C74.656 68.0839 74.5594 68.1802 74.5594 67.9877C74.4629 67.6025 74.4629 67.7951 74.3663 67.5062C74.4629 67.6025 74.4629 67.7951 74.5594 67.9877C74.656 68.1802 74.656 68.2765 74.7525 68.3728C74.7525 68.2765 74.8491 68.5654 74.9456 68.5654C74.9456 68.5654 75.0422 68.6617 75.0422 68.7579V68.8542C75.1387 68.9505 75.0422 68.8542 75.1387 68.9505C75.2353 69.0468 75.5249 69.5282 75.5249 69.6245C75.6215 69.8171 75.718 69.8171 75.8146 70.0097H75.718C75.8146 70.106 75.8146 70.2022 75.9112 70.2985C76.0077 70.3948 76.1043 70.4911 76.1043 70.5874C76.2974 70.78 76.3939 70.9725 76.587 71.0688C76.6836 71.1651 76.8767 71.2614 76.9732 71.3577C77.0698 71.454 77.1663 71.454 77.2629 71.5502C77.1663 71.5502 76.9732 71.3577 77.1663 71.3577C77.2629 71.3577 77.3594 71.454 77.456 71.5502C77.3594 71.5502 77.7457 71.7428 77.456 71.6465C77.456 71.7428 77.9388 71.9354 77.9388 72.0317C77.9388 72.0317 78.0353 72.128 78.2284 72.128C78.325 72.2242 78.4215 72.2242 78.5181 72.2242C78.5181 72.3205 78.325 72.128 78.325 72.2242L78.5181 72.3205C78.8077 72.5131 78.9043 72.4168 79.0974 72.5131H79.1939H79.0008C79.194 72.6094 79.2905 72.5131 79.5802 72.6094H79.6767C79.8698 72.6094 80.1595 72.7057 80.256 72.6094C80.3526 72.6094 80.4491 72.7057 80.5457 72.7057V72.802C80.256 72.7057 80.4491 72.7057 80.0629 72.7057C80.1595 72.802 80.3526 72.8983 80.6422 72.8983C80.9319 72.9945 81.2216 72.9945 81.4147 72.9945C81.6078 72.9945 81.8974 72.9945 82.0905 72.9945C82.2836 72.9945 82.4767 72.9945 82.5733 72.8983V72.9945C82.5733 72.9945 82.5733 72.9945 82.6699 72.9945C82.7664 72.9945 82.7664 72.9945 82.863 72.9945C83.0561 72.9945 83.1526 72.9945 83.1526 72.9945C83.2492 72.9945 83.4423 72.9945 83.5388 72.8983C83.6354 72.8983 83.8285 72.802 83.925 72.802C84.0216 72.802 84.2147 72.7057 84.3112 72.7057C84.4078 72.7057 84.5044 72.6094 84.6009 72.5131H84.6975C84.8906 72.4168 85.1802 72.2242 85.4699 72.0317C85.7595 71.8391 86.0492 71.6465 86.0492 71.5502C86.2423 71.454 86.0492 71.6465 86.0492 71.6465C86.2423 71.5502 86.3389 71.2614 86.532 71.2614C86.532 71.2614 86.3389 71.454 86.4354 71.3577C86.532 71.3577 86.532 71.1651 86.7251 71.1651C86.6285 71.1651 86.8216 70.9725 87.0147 70.78C86.9182 70.78 87.1113 70.6837 87.1113 70.5874C87.3044 70.3948 87.4975 70.2022 87.6906 69.9134C87.8837 69.7208 87.9803 69.432 88.1734 69.2394C88.463 68.7579 88.7527 68.2765 88.9458 67.6988V67.8914C88.9458 67.6988 89.1389 67.5062 89.1389 67.4099C89.332 67.1211 89.1389 67.0248 89.332 66.8322C89.4285 66.4471 89.5251 66.2545 89.5251 65.8694C89.6217 65.5805 89.6217 65.5805 89.6217 65.3879C89.6217 65.1954 89.6217 65.0991 89.5251 65.0991V65.1954C89.4285 65.2916 89.5251 65.0028 89.5251 64.9065C89.4285 65.0028 89.332 65.0028 89.2354 65.1954C89.2354 65.0991 89.2354 65.0028 89.2354 64.9065C89.2354 64.8102 89.2354 64.7139 89.2354 64.7139C89.2354 64.7139 89.2354 64.7139 89.2354 64.6176C89.2354 64.7139 89.332 64.9065 89.332 64.9065C89.332 64.7139 89.332 64.7139 89.332 64.5214C89.332 64.5214 89.4285 64.5214 89.4285 64.6176C89.4285 64.4251 89.4285 64.3288 89.5251 64.2325C89.5251 64.3288 89.5251 64.4251 89.5251 64.4251C89.5251 64.3288 89.5251 64.1362 89.5251 64.0399C89.6217 64.0399 89.4285 63.6548 89.5251 63.7511C89.5251 63.7511 89.4285 63.5585 89.4285 63.4622C89.4285 63.4622 89.5251 63.6548 89.6217 63.7511C89.7182 64.2325 89.5251 63.7511 89.5251 63.8474C89.5251 63.8474 89.5251 63.9436 89.5251 64.0399C89.5251 64.1362 89.5251 64.2325 89.5251 64.2325C89.5251 64.2325 89.6217 64.3288 89.6217 64.1362C89.7182 64.2325 89.7182 64.4251 89.7182 64.6176C89.4285 65.0028 89.4285 64.9065 89.5251 64.8102C89.5251 64.9065 89.6217 65.0991 89.5251 64.8102C89.6217 64.9065 89.5251 64.7139 89.5251 64.8102ZM81.2216 58.9368C81.3181 58.9368 81.5112 59.033 81.8974 59.1293C82.3802 59.2256 82.7664 59.3219 83.3457 59.3219H83.925C84.2147 59.3219 84.3112 59.4182 84.3112 59.5145C84.3112 59.6108 84.2147 59.8033 83.925 59.8033C83.6354 59.8033 83.3457 59.8996 82.9595 59.8996C82.4767 59.8996 81.994 59.8033 81.5112 59.7071C81.125 59.6108 80.9319 59.4182 80.9319 59.2256C80.8353 59.0331 80.9319 58.9368 81.2216 58.9368ZM82.863 60.8625C82.863 61.0551 82.7664 61.1513 82.5733 61.1513C82.4767 61.1513 82.3802 61.0551 82.2836 60.8625C82.1871 60.6699 82.1871 60.5736 82.1871 60.4773C82.1871 60.3811 82.1871 60.2848 82.2836 60.1885C82.2836 60.1885 82.3802 60.0922 82.4767 60.0922C82.5733 60.0922 82.5733 60.0922 82.5733 60.1885C82.6698 60.1885 82.6699 60.2848 82.7664 60.3811C82.863 60.6699 82.863 60.7662 82.863 60.8625ZM80.9319 60.0922C81.0285 60.0922 81.0285 59.9959 81.125 59.9959C81.2216 59.9959 81.3181 59.9959 81.4147 60.0922C81.5112 60.0922 81.6078 60.2848 81.7043 60.3811C81.8009 60.5736 81.8974 60.7662 81.8974 60.9588C81.8974 61.1513 81.8009 61.2476 81.6078 61.2476C81.4147 61.2476 81.3181 61.1513 81.125 60.8625C81.0285 60.6699 80.9319 60.4773 80.9319 60.3811C80.8353 60.2848 80.8353 60.1885 80.9319 60.0922ZM78.5181 63.0771C78.5181 62.9808 78.7112 62.8845 79.0008 62.7882C79.2905 62.6919 79.5802 62.5956 79.8698 62.3068C79.8698 62.0179 79.8698 61.6328 79.8698 61.3439C79.7733 61.3439 79.6767 61.2476 79.5802 61.1513C79.2905 60.9588 79.0974 60.7662 78.9043 60.4773C78.8077 60.2848 78.7112 60.1885 78.7112 59.9959C78.7112 59.8033 78.8077 59.7071 79.0008 59.7071C79.194 59.7071 79.2905 59.8033 79.4836 59.9959C79.6767 60.1885 79.8698 60.3811 79.9664 60.4773C79.9664 60.3811 79.9664 60.3811 79.9664 60.2848C80.0629 59.7071 80.1595 59.2256 80.256 59.0331C80.3526 58.8405 80.4491 58.8405 80.5457 58.8405C80.7388 58.8405 80.8353 58.9368 80.8353 59.2256C80.8353 59.3219 80.8354 59.5145 80.7388 59.8033C80.6422 60.5736 80.5457 61.6328 80.5457 62.7882V64.1362C80.5457 64.4251 80.4491 64.6176 80.3526 64.6176C80.1595 64.6176 80.0629 64.4251 79.9664 64.1362C79.8698 63.7511 79.8698 63.3659 79.8698 62.8845C79.4836 63.1734 79.194 63.2696 78.9043 63.2696C78.6146 63.3659 78.5181 63.2696 78.5181 63.0771ZM83.6354 67.5062C83.3457 67.5062 83.0561 67.6025 82.6699 67.6025C82.3802 67.6025 82.1871 67.6025 81.8974 67.6025C81.8974 67.6988 81.8974 67.6988 81.8974 67.7951C82.1871 67.7951 82.3802 67.7951 82.6699 67.8914C83.1526 67.9877 83.4423 68.1802 83.4423 68.4691C83.4423 68.6617 83.3457 68.8542 83.0561 69.1431C82.9595 69.2394 82.863 69.3357 82.7664 69.432C82.863 69.432 82.9595 69.5282 82.9595 69.6245C82.9595 69.7208 82.863 69.8171 82.6699 69.9134C82.4767 70.0097 82.1871 70.0097 81.7043 70.0097C81.7043 70.106 81.7043 70.2022 81.7043 70.2985C81.8974 70.2985 82.0905 70.2985 82.2836 70.2985C82.6699 70.2985 83.0561 70.2985 83.4423 70.2985C83.7319 70.2985 83.925 70.3948 83.925 70.4911C83.925 70.5874 83.8285 70.6837 83.5388 70.78C83.2492 70.8762 82.7664 70.8762 81.994 70.8762C81.8974 70.8762 81.8009 70.8762 81.7043 70.8762C81.7043 70.9725 81.7043 70.9725 81.7043 70.9725C81.7043 70.9725 81.7043 70.9725 81.7043 71.0688C81.7043 71.1651 81.7043 71.2614 81.6078 71.3577C81.5112 71.454 81.4147 71.5502 81.4147 71.5502C81.3181 71.5502 81.2216 71.454 81.2216 71.2614C81.2216 71.1651 81.2216 71.0688 81.2216 70.9725C80.6422 70.9725 80.0629 70.8762 79.7733 70.8762C79.194 70.78 78.9043 70.6837 78.9043 70.4911C78.9043 70.2985 79.0008 70.2022 79.2905 70.2022C79.3871 70.2022 79.6767 70.2022 80.0629 70.2985C80.3526 70.2985 80.7388 70.3948 81.2216 70.3948C81.2216 70.2985 81.2216 70.2022 81.2216 70.106C81.0285 70.106 80.9319 70.106 80.8353 70.106C80.8353 70.2022 80.7388 70.2022 80.5457 70.2022C80.256 70.2022 80.0629 70.0097 79.8698 69.7208C79.5802 69.3357 79.4836 68.9505 79.4836 68.6617C79.4836 68.3728 79.5802 68.1802 79.8698 68.0839C80.1595 67.8914 80.6422 67.8914 81.3181 67.8914C81.3181 67.7951 81.3181 67.7951 81.3181 67.6988C80.8353 67.6988 80.4491 67.6025 79.9664 67.5062C79.0974 67.4099 78.7112 67.2174 78.7112 67.0248C78.7112 66.8322 78.8077 66.7359 79.0974 66.7359C79.1939 66.7359 79.194 66.7359 79.2905 66.7359C79.2905 66.6397 79.2905 66.6397 79.2905 66.5434C79.2905 66.2545 79.4836 66.0619 79.8698 65.9657C80.1595 65.8694 80.8354 65.7731 81.7043 65.7731C82.1871 65.7731 82.6698 65.7731 83.0561 65.8694C83.5388 65.9656 83.8285 66.1582 83.8285 66.3508C83.8285 66.4471 83.7319 66.5434 83.6354 66.7359C83.4423 66.9285 83.2492 67.0248 83.1526 67.0248C83.0561 67.0248 82.9595 66.9285 82.9595 66.8322C82.9595 66.8322 82.9595 66.7359 83.0561 66.6397C83.0561 66.5434 83.1526 66.5434 83.1526 66.4471C83.1526 66.2545 82.6699 66.1582 81.7043 66.1582C81.2216 66.1582 80.8353 66.1582 80.5457 66.2545C80.256 66.3508 80.1595 66.4471 80.1595 66.5434C80.1595 66.6397 80.1595 66.6397 80.256 66.7359C80.3526 66.7359 80.3526 66.7359 80.4491 66.7359C80.8353 66.8322 81.125 66.8322 81.5112 66.8322C81.6078 66.5434 81.7043 66.4471 81.8009 66.4471C81.994 66.4471 82.0905 66.5434 82.0905 66.8322V66.9285C82.2836 66.9285 82.5733 66.9285 82.7664 66.9285H83.7319C84.0216 66.9285 84.1181 67.0248 84.1181 67.1211C84.0216 67.3137 83.925 67.4099 83.6354 67.5062ZM81.2216 63.2696C81.2216 63.0771 81.3181 62.9808 81.5112 62.9808C81.6078 62.9808 81.7043 63.0771 81.994 63.2696C82.1871 63.3659 82.2836 63.5585 82.2836 63.6548C82.2836 63.7511 82.1871 63.8474 81.994 63.8474C81.8974 63.8474 81.7043 63.7511 81.5112 63.6548C81.2216 63.4622 81.2216 63.3659 81.2216 63.2696ZM83.925 62.4031C83.8285 62.4994 83.5388 62.4993 83.3457 62.4993C83.2492 62.9808 83.2492 63.5585 83.2492 64.0399C83.2492 64.3288 83.1526 64.5214 83.0561 64.5214C82.9595 64.5214 82.863 64.4251 82.7664 64.3288C82.6699 64.2325 82.5733 64.1362 82.5733 64.0399C82.5733 63.9436 82.5733 63.9436 82.6699 63.9436C82.6699 63.9436 82.6699 63.9436 82.7664 63.9436C82.863 63.9436 82.863 63.9436 82.863 63.9436C82.863 63.9436 82.9595 63.9436 82.9595 63.8474C82.9595 63.8474 82.9595 63.6548 82.9595 63.4622C82.9595 63.1734 82.9595 62.8845 82.9595 62.4993V62.4031C82.2836 62.4031 81.8974 62.3068 81.6078 62.3068C81.2216 62.2105 81.0285 62.0179 81.0285 61.8253C81.0285 61.6328 81.2216 61.5365 81.5112 61.5365C81.6078 61.5365 81.7043 61.5365 81.994 61.6328C82.2836 61.6328 82.5733 61.7291 83.0561 61.7291C83.0561 61.5365 83.1526 61.3439 83.2492 61.2476C83.3457 61.1513 83.4423 61.0551 83.5388 61.0551C83.7319 61.0551 83.8285 61.1513 83.8285 61.4402C83.8285 61.4402 83.8285 61.5365 83.8285 61.6328C83.925 61.6328 84.0216 61.6328 84.0216 61.6328C84.4078 61.6328 84.6009 61.7291 84.6009 61.9216C84.2147 62.2105 84.1181 62.4031 83.925 62.4031ZM84.2147 60.2848C83.925 60.4773 83.8285 60.6699 83.6354 60.9588C83.6354 61.0551 83.5388 61.1513 83.4423 61.1513C83.3457 61.1513 83.3457 61.0551 83.3457 61.0551C83.3457 60.9588 83.4423 60.7662 83.5388 60.5736C83.6354 60.3811 83.7319 60.1885 83.925 60.0922C84.0216 59.9959 84.1181 59.8996 84.2147 59.8996C84.3112 59.8996 84.3112 59.9959 84.3112 60.0922C84.3112 60.1885 84.3112 60.1885 84.2147 60.2848ZM84.0216 58.2628C84.1181 58.2628 84.3112 58.2628 84.4078 58.2628C84.4078 58.2628 84.4078 58.2628 84.4078 58.359C84.4078 58.359 84.5044 58.359 84.6009 58.359C84.6975 58.359 84.794 58.359 84.794 58.359C84.8906 58.4553 84.8906 58.4553 84.794 58.4553C84.8906 58.5516 84.9871 58.5516 85.0837 58.5516C85.1802 58.5516 85.2768 58.6479 85.2768 58.6479C84.8906 58.5516 84.5044 58.359 84.0216 58.2628ZM85.7595 59.0331C85.663 59.0331 85.663 59.0331 85.7595 59.0331C85.5664 58.9368 85.4699 58.9368 85.3733 58.8405C85.5664 58.9368 85.2768 58.7442 85.2768 58.7442L84.9871 58.6479C84.9871 58.5516 85.2768 58.8405 85.3733 58.7442C85.4699 58.6479 85.663 59.0331 85.8561 59.0331C85.8561 59.0331 85.8561 59.0331 85.7595 59.0331ZM89.0423 64.5214C89.0423 64.5214 89.0423 64.4251 89.0423 64.5214C89.0423 64.4251 89.0423 64.4251 89.0423 64.5214ZM88.9458 63.7511C88.9458 63.9436 89.0423 64.0399 89.0423 64.2325C89.0423 64.3288 88.9458 64.3288 88.9458 64.2325C88.9458 64.0399 88.9458 63.8474 88.9458 63.7511C88.9458 63.5585 88.8492 63.5585 88.8492 63.4622C88.7527 63.1734 88.7527 62.9808 88.6561 62.6919C88.6561 62.5956 88.5596 62.4994 88.5596 62.3068C88.5596 62.2105 88.5596 62.2105 88.463 62.2105C88.6561 62.4994 88.6561 62.3068 88.8492 62.6919C88.8492 62.6919 88.9458 62.7882 88.9458 62.8845C88.9458 62.9808 89.0423 63.1734 89.0423 63.2696V63.1734C89.2354 63.3659 88.9458 63.2696 89.1389 63.5585C89.1389 63.6548 89.0423 63.9436 88.9458 63.7511Z" fill="#787878"/>
<path d="M88.3665 61.0551L88.4625 61.1511L88.3665 61.0551Z" fill="#787878"/>
<path d="M73.0145 46.6121C72.918 46.227 72.6283 45.9381 72.2421 46.0344C72.2421 46.0344 66.9317 46.5158 66.3524 46.6121C66.3524 46.5158 66.3524 46.5158 66.3524 46.4195C66.8352 46.1307 67.1248 45.553 67.1248 44.9752C67.1248 44.1087 66.3524 43.3384 65.4834 43.2421C65.3869 42.9532 65.2903 42.6644 65.0972 42.3755C65.9662 41.5089 66.7386 40.5461 67.511 39.5832C69.4421 36.7909 69.7317 34.0949 69.7317 32.3618C69.7317 30.8212 69.4421 29.2806 68.9593 28.0289C67.8007 25.3329 66.1593 23.4072 64.0351 22.2517C62.2972 21.1926 60.5592 21 59.4971 21C58.7247 21 58.1454 21.0963 58.1454 21.0963C57.8557 21.1926 57.6626 21.3851 57.5661 21.674C57.5661 21.674 57.5661 21.674 57.5661 21.7703C57.5661 22.0591 57.7592 22.2517 58.0489 22.4443C59.9799 23.3109 61.4282 24.4663 62.3937 25.9106C63.0696 26.9697 63.5524 28.2215 63.7455 29.6658C63.842 30.1472 63.842 30.5323 63.842 31.0138C63.842 32.1692 63.5524 33.2283 62.973 34.3838C62.4903 35.2503 61.911 36.1169 61.042 37.0798C60.5592 36.6946 60.173 36.4058 59.6903 36.1169C59.6903 36.0206 59.6903 36.0206 59.6903 35.9243C59.6903 34.9615 58.9178 34.1912 57.9523 34.1912C57.4695 34.1912 56.9868 34.3838 56.6971 34.7689C56.1178 34.5763 55.5385 34.3838 54.9592 34.2875C54.3798 33.1321 53.1247 32.3618 51.7729 32.3618C50.4212 32.3618 49.166 33.1321 48.5867 34.2875C48.0074 34.3838 47.428 34.5763 46.9453 34.7689C46.5591 34.3838 46.1729 34.1912 45.6901 34.1912C44.7246 34.1912 43.9521 34.9615 43.9521 35.9243C43.9521 36.0206 43.9521 36.0206 43.9521 36.1169C43.4694 36.4058 42.9866 36.7909 42.6004 37.0798C41.7314 36.2132 41.1521 35.3466 40.6693 34.3838C40.09 33.3246 39.8969 32.1692 39.8969 31.0138C39.8969 30.5323 39.8969 30.1472 39.9935 29.6658C40.2831 28.2215 40.7659 27.066 41.3452 25.9106C42.3107 24.4663 43.8556 23.2146 45.6901 22.4443C45.9797 22.348 46.1729 22.0591 46.1729 21.7703C46.1729 21.7703 46.1729 21.7703 46.1729 21.674C46.1729 21.3851 45.8832 21.0963 45.5935 21.0963C45.497 21.0963 45.0142 21 44.2418 21C43.1797 21 41.4418 21.1926 39.6073 22.2517C37.4831 23.4072 35.8417 25.3329 34.6831 28.0289C34.2003 29.2806 33.9106 30.8212 33.9106 32.3618C33.9106 34.0949 34.2969 36.7909 36.1314 39.5832C36.8072 40.5461 37.5797 41.5089 38.5452 42.4718C38.4486 42.7607 38.3521 43.0495 38.159 43.2421C37.1934 43.3384 36.5176 44.0124 36.5176 44.9752C36.5176 45.553 36.8072 46.0344 37.29 46.4195C37.29 46.5158 37.29 46.5158 37.29 46.6121C36.6141 46.5158 31.0141 45.9381 31.0141 45.9381C30.821 45.9381 30.6278 45.9381 30.5313 46.1307C30.4347 46.227 30.3382 46.4195 30.3382 46.6121L28.9865 59.6107V59.707C28.9865 59.8996 28.9864 59.9959 29.1796 60.1884C29.2761 60.381 29.4692 60.381 29.6623 60.4773C29.6623 60.4773 35.6486 61.055 36.421 61.1513C36.2279 61.8253 35.3589 65.1953 35.3589 65.1953C35.3589 65.2916 35.3589 65.2916 35.3589 65.3879C35.3589 65.5805 35.4555 65.6768 35.552 65.773C35.6486 65.9656 35.8417 66.0619 36.0348 66.0619C36.0348 66.0619 42.1176 66.0619 42.4073 66.0619C43.759 67.2173 45.6901 68.1802 47.8143 68.6616C47.6211 69.1431 47.2349 70.3948 47.2349 70.3948C47.2349 70.4911 47.2349 70.5873 47.2349 70.5873C47.2349 70.6836 47.3315 70.7799 47.3315 70.9725C47.428 71.1651 47.6211 71.2614 47.8143 71.2614L49.4557 71.5502C49.6488 71.5502 49.8419 71.5502 50.035 71.4539C50.2281 71.3576 50.2281 71.1651 50.3246 70.9725C50.3246 70.9725 50.4212 70.2022 50.5177 69.7208C50.9039 69.8171 51.1936 69.8171 51.4833 69.6245C51.5798 69.6245 51.5798 69.6245 51.5798 69.6245C51.7729 69.7208 52.0626 69.7208 52.2557 69.7208C52.3522 70.2022 52.4488 70.9725 52.4488 70.9725C52.4488 71.1651 52.6419 71.3576 52.7384 71.4539C52.9316 71.5502 53.0281 71.6465 53.2212 71.5502L54.9592 71.2614C55.1523 71.1651 55.3454 71.0688 55.4419 70.9725C55.5385 70.8762 55.5385 70.7799 55.5385 70.5873C55.5385 70.4911 55.5385 70.3948 55.5385 70.3948C55.5385 70.3948 55.2488 69.3356 55.0557 68.7579C57.6626 68.3728 59.7868 67.4099 61.6213 65.9656C61.8144 65.9656 67.1248 65.9656 67.1248 65.9656C67.3179 65.9656 67.511 65.8693 67.7041 65.6768C67.8007 65.5805 67.8972 65.3879 67.8972 65.2916C67.8972 65.1953 67.8972 65.1953 67.8972 65.099C67.8972 65.099 67.0283 61.729 66.8352 61.055C67.6076 60.9587 73.9801 60.2847 73.9801 60.2847C74.1732 60.2847 74.3663 60.1884 74.4628 59.9959C74.5594 59.8996 74.6559 59.707 74.6559 59.5144C74.6559 59.5144 74.6559 59.5144 74.6559 59.4182L73.0145 46.6121ZM66.1593 44.9752C66.1593 45.2641 65.9662 45.4567 65.7731 45.6492C65.6765 45.1678 65.58 44.6864 65.3869 44.3012C65.7731 44.3012 66.1593 44.5901 66.1593 44.9752ZM65.1938 45.7455C65.1938 45.8418 65.2903 45.9381 65.2903 46.0344C65.2903 46.1307 65.2903 46.227 65.3869 46.3232C65.3869 46.5158 65.4834 46.8047 65.4834 46.9972L64.4213 47.0935C64.3248 46.9973 64.2282 46.901 64.1317 46.8047C63.9386 46.7084 63.842 46.6121 63.6489 46.4195C63.4558 46.3232 63.3593 46.227 63.1662 46.1307C62.5868 45.7455 62.0075 45.3604 61.2351 44.9752C61.6213 44.7827 61.911 44.4938 62.2972 44.205C62.3937 44.1087 62.4903 44.1087 62.4903 44.0124C62.5868 43.9161 62.6834 43.9161 62.7799 43.8198C62.8765 43.7235 62.8765 43.7235 62.973 43.6272C63.3593 43.3384 63.7455 42.9532 64.2282 42.5681C64.4213 42.9532 64.5179 43.2421 64.6144 43.6272C64.6144 43.7235 64.711 43.8198 64.711 43.9161C64.711 44.0124 64.8076 44.1087 64.8076 44.205C65.0007 44.879 65.0972 45.2641 65.1938 45.7455ZM63.9386 52.6781C63.7455 51.3301 63.6489 50.0784 63.5524 49.2118C63.7455 49.2118 63.9386 49.2118 64.1317 49.1155C64.2282 49.1155 64.3248 49.1155 64.4213 49.1155C64.5179 49.1155 64.6144 49.1155 64.711 49.1155C65.0007 49.1155 65.2903 49.0193 65.6765 49.0193C65.7731 49.0193 65.8696 49.0193 65.9662 49.0193C66.0627 49.0193 66.1593 49.0193 66.2558 49.0193C68.2835 48.8267 70.6973 48.5378 70.9869 48.5378C70.9869 48.8267 71.2766 51.3301 71.4697 53.641L66.0627 54.2187H65.9662H65.8696H65.6765H65.58H65.3869H65.2903H65.0972H64.9041H64.6144H64.4213H64.3248H64.1317H63.9386C63.9386 53.8336 63.842 53.5447 63.842 53.2558C63.842 53.1596 63.842 53.0633 63.842 52.8707C63.842 52.8707 63.842 52.8707 63.842 52.7744C63.9386 52.8707 63.9386 52.7744 63.9386 52.6781ZM39.5107 48.249C39.3176 48.1527 39.3176 48.1527 39.3176 48.0564C39.3176 47.9601 39.3176 47.9601 39.4142 47.8638C39.4142 47.8638 39.4142 47.8638 39.4142 47.7675C39.4142 47.6713 39.5107 47.575 39.6073 47.575C39.6073 47.575 39.6073 47.575 39.7038 47.575L39.8004 47.4787C39.8004 47.4787 39.8004 47.4787 39.8969 47.3824L39.9935 47.2861C39.9935 47.2861 39.9935 47.2861 40.09 47.2861C40.6693 46.8047 41.6349 46.227 42.7935 45.553C42.7935 45.6492 42.7935 45.7455 42.8901 45.7455C44.9177 47.9601 48.9729 49.0193 51.966 49.1155C54.9592 49.1155 59.0144 47.9601 61.042 45.7455C61.042 45.6492 61.1385 45.553 61.1385 45.553C62.2972 46.1307 63.2627 46.7084 63.842 47.1898C63.842 47.1898 63.842 47.1898 63.9386 47.2861C63.9386 47.2861 63.9386 47.2861 64.0351 47.2861C64.1317 47.3824 64.1317 47.4787 64.2282 47.4787C64.2282 47.4787 64.2282 47.4787 64.3248 47.4787C64.3248 47.4787 64.3248 47.4787 64.4213 47.575C64.5179 47.6713 64.5179 47.6713 64.6144 47.7675C64.711 47.8638 64.711 47.9601 64.711 47.9601C64.711 47.9601 64.6144 48.0564 64.5179 48.0564C64.4213 48.1527 64.3248 48.1527 64.2282 48.249C64.1317 48.3453 63.9386 48.3453 63.7455 48.4415C63.6489 48.4415 63.5524 48.5378 63.4558 48.5378C63.3593 48.5378 63.2627 48.6341 63.1662 48.6341C62.4903 48.8267 61.7179 48.923 60.6558 49.1155L60.173 48.7304L59.7868 47.8638L56.6971 49.3081L56.504 49.4044C56.0212 49.4044 55.5385 49.5007 54.9592 49.5007C53.9936 49.5007 52.9316 49.597 51.7729 49.597C50.3246 49.597 49.0694 49.5007 47.8143 49.5007C47.3315 49.5007 46.8487 49.4044 46.4625 49.4044L46.2694 49.3081L43.2763 47.8638L42.8901 48.7304L42.7935 49.0193C41.7314 48.8267 40.8624 48.6341 40.2831 48.5378C40.1866 48.5378 40.09 48.4415 39.9935 48.4415C39.8969 48.3453 39.8004 48.3453 39.7038 48.3453C39.7038 48.249 39.6073 48.249 39.5107 48.249ZM39.7038 49.2118C39.6073 49.6933 39.6073 50.3673 39.5107 51.0413C39.4142 51.5227 39.4142 52.1004 39.3176 52.6781C39.3176 52.7744 39.3176 52.8707 39.3176 52.967C39.3176 53.0633 39.3176 53.1596 39.3176 53.2558C39.3176 53.4484 39.3176 53.5447 39.221 53.641C39.221 53.8336 39.2211 54.1224 39.1245 54.315H38.9314H38.6417L38.3521 54.2187H38.0624H37.9659H37.7728H37.5797H37.4831H37.3865H37.1934L31.6899 53.641C31.883 51.2338 32.1727 48.8267 32.1727 48.5378C32.4624 48.6341 35.0693 48.8267 37.1934 49.0193C37.29 49.0193 37.3865 49.0193 37.4831 49.0193C37.5797 49.0193 37.6762 49.0193 37.7728 49.0193C38.159 49.0193 38.4486 49.1155 38.7383 49.1155C38.8348 49.1155 38.9314 49.1155 39.0279 49.1155C39.1245 49.1155 39.2211 49.1155 39.3176 49.1155C39.5107 49.1155 39.6073 49.2118 39.7038 49.2118ZM46.6556 43.8198C46.5591 43.6272 46.5591 43.6272 46.5591 43.531C46.4625 43.3384 46.4625 43.0495 46.4625 42.7607C46.4625 42.4718 46.5591 42.1829 46.6556 41.9904C46.7522 41.7978 46.8487 41.6052 46.9453 41.5089C47.0418 41.4127 47.1384 41.3164 47.1384 41.3164C47.2349 41.2201 47.3315 41.2201 47.428 41.1238C47.428 41.1238 47.5246 41.1238 47.5246 41.0275L47.6211 41.1238C47.7177 41.2201 47.7177 41.2201 47.8143 41.3164C47.9108 41.4127 48.0074 41.4127 48.0074 41.5089C48.2005 41.7015 48.3936 41.7978 48.5867 41.8941C48.7798 41.9904 48.8763 42.0867 49.0694 42.1829C49.5522 42.4718 50.1315 42.6644 50.7108 42.7607C50.7108 42.7607 50.7108 42.7607 50.8074 42.7607C51.1936 42.8569 51.5798 42.8569 51.966 42.8569C52.3522 42.8569 52.6419 42.8569 53.0281 42.7607C53.5109 42.6644 54.0902 42.5681 54.573 42.2792C54.7661 42.1829 54.8626 42.0867 55.0557 41.9904C55.2488 41.8941 55.4419 41.7978 55.635 41.6052C55.8281 41.5089 55.9247 41.4127 56.1178 41.2201C56.1178 41.2201 56.2144 41.2201 56.2144 41.1238C56.3109 41.0275 56.4075 41.0275 56.4075 40.9312H56.504C56.6006 41.0275 56.6971 41.0275 56.7937 41.1238C56.8902 41.2201 56.9868 41.3164 57.0833 41.3164C57.1799 41.5089 57.2764 41.7015 57.373 41.7978C57.4695 42.0867 57.5661 42.3755 57.5661 42.5681C57.5661 42.8569 57.4695 43.0495 57.373 43.3384C57.373 43.4347 57.2764 43.531 57.2764 43.531V43.6272V43.7235C57.2764 43.8198 57.2764 43.8198 57.2764 43.9161C57.373 44.0124 57.4695 44.1087 57.4695 44.1087C58.5316 44.205 59.6903 44.4938 60.2696 45.0715C60.3661 45.1678 60.4627 45.2641 60.4627 45.3604C60.4627 45.3604 60.5592 45.4567 60.5592 45.553C60.3661 45.7455 60.0765 45.9381 59.8834 46.1307C58.9178 46.901 57.6626 47.4787 56.3109 47.8638C55.5385 48.0564 54.7661 48.249 54.0902 48.3453C53.9936 48.3453 53.8971 48.3453 53.8971 48.3453H53.8005C53.704 48.3453 53.6074 48.3453 53.5109 48.4415C53.0281 48.4415 52.5453 48.5378 52.1591 48.5378C51.6764 48.5378 51.2902 48.5378 50.8074 48.4415C50.7108 48.4415 50.6143 48.4415 50.5177 48.4415C50.4212 48.4415 50.4212 48.4415 50.3246 48.4415H50.1315C49.3591 48.249 48.4901 48.1527 47.7177 47.8638C46.4625 47.4787 45.3039 46.901 44.4349 46.227C44.1452 46.0344 43.9521 45.7455 43.6625 45.553C43.6625 45.4567 43.759 45.4567 43.759 45.4567C43.759 45.3604 43.8556 45.2641 43.9521 45.1678C44.5315 44.5901 45.6901 44.205 46.7522 44.1087C46.8487 44.1087 46.9453 44.0124 46.9453 43.9161C46.6556 44.0124 46.6556 43.9161 46.6556 43.8198ZM49.166 41.5089L49.6488 38.4278V38.1389L49.7453 37.8501L49.8419 37.5612L49.9384 37.1761V37.0798L50.3246 34.8652C50.5177 34.8652 50.8074 34.7689 51.097 34.7689V42.1829C50.3246 42.0867 49.6488 41.8941 49.166 41.5089ZM51.4833 42.1829V34.6726H52.0626V42.1829H51.8695C51.6764 42.2792 51.5798 42.2792 51.4833 42.1829ZM53.8005 38.1389V38.4278L54.2833 41.6052C53.704 41.8941 53.1247 42.0867 52.5453 42.0867V34.6726C52.7384 34.6726 53.0281 34.6726 53.2212 34.6726L53.6074 36.9835V37.1761L53.704 37.5612V37.7538V37.8501L53.8005 38.1389ZM61.1385 38.3315C61.2351 38.2352 61.2351 38.1389 61.3316 38.1389C61.4282 38.0426 61.5248 37.9464 61.5248 37.9464C61.6213 37.9464 61.6213 37.8501 61.6213 37.8501C62.4903 36.9835 63.2627 35.9243 63.842 34.8652C64.4213 33.7098 64.8076 32.458 64.8076 31.0138C64.8076 30.5323 64.8076 30.0509 64.711 29.5695C64.5179 28.414 64.1317 26.9697 63.1662 25.5254C62.3937 24.1774 61.1385 22.9257 59.4006 22.0591H59.4971C60.5592 22.0591 62.0075 22.2517 63.6489 23.1183C65.1938 23.9849 66.8352 25.6217 68.0903 28.5103C68.4766 29.4732 68.8628 30.8212 68.8628 32.3618C68.8628 34.3838 68.38 36.6946 66.7386 39.1018C66.2558 39.7758 65.7731 40.4498 65.2903 41.0275C65.1938 41.1238 65.0972 41.2201 65.0007 41.3164C64.8076 41.5089 64.711 41.7015 64.5179 41.7978C64.4213 41.8941 64.3248 41.9904 64.3248 41.9904C64.2282 42.0867 64.1317 42.0867 64.1317 42.1829C64.0351 42.2792 63.9386 42.3755 63.842 42.4718C63.5524 42.7607 63.1662 43.0495 62.8765 43.3384L62.7799 43.4347C62.6834 43.5309 62.5868 43.6272 62.4903 43.6272C62.3937 43.7235 62.2972 43.7235 62.2972 43.8198C61.8144 44.205 61.4282 44.4938 60.9454 44.7827C60.9454 44.7827 60.8489 44.7827 60.8489 44.879C60.7523 44.7827 60.6558 44.6864 60.6558 44.6864C59.8834 44.0124 58.7247 43.8198 58.0489 43.7235C58.1454 43.4347 58.242 43.2421 58.242 42.9532C58.242 42.5681 58.1454 42.2792 58.0489 41.8941C57.9523 41.7015 57.8557 41.4127 57.6626 41.3164C58.1454 41.0275 58.5316 40.7387 59.0144 40.4498C59.1109 40.3535 59.2075 40.3535 59.304 40.2572C59.4006 40.1609 59.4971 40.0646 59.5937 40.0646C59.5937 40.0646 59.6903 40.0647 59.6903 39.9684C59.8834 39.3906 60.5592 38.9092 61.1385 38.3315ZM57.9523 35.0578C58.4351 35.0578 58.7247 35.4429 58.7247 35.8281C58.242 35.6355 57.8557 35.4429 57.373 35.2503C57.5661 35.1541 57.7592 35.0578 57.9523 35.0578ZM54.9592 35.0578C55.5385 35.2503 56.1178 35.3466 56.6006 35.5392C56.6971 35.5392 56.7937 35.6355 56.8902 35.6355C56.9868 35.6355 57.0833 35.7318 57.1799 35.7318C57.6626 35.9243 58.0489 36.1169 58.5316 36.3095C58.6282 36.4058 58.7247 36.4058 58.8213 36.5021C58.9178 36.5984 59.0144 36.5983 59.1109 36.6946C59.6903 37.0798 60.2696 37.4649 60.7523 37.9464C60.173 38.5241 59.4971 39.1018 58.8213 39.5832L58.7247 39.6795C58.6282 39.7758 58.5316 39.7758 58.4351 39.8721C58.3385 39.9684 58.242 39.9684 58.1454 40.0646C57.7592 40.3535 57.373 40.6424 56.8902 40.8349C56.6971 40.6424 56.4075 40.5461 56.2144 40.4498C56.1178 40.4498 56.0212 40.4498 55.9247 40.5461C55.9247 40.6424 55.8281 40.6424 55.7316 40.7387L55.4419 38.9092V38.6204L55.3454 38.2352L55.2488 37.6575L54.9592 35.8281V35.0578C54.8626 35.0578 54.8626 35.0578 54.9592 35.0578ZM54.3798 35.4429L54.573 36.4058L54.6695 36.8872L54.7661 37.3686L54.8626 38.0426L54.9592 38.3315L55.0557 38.6204L55.4419 40.9312C55.2488 41.1238 55.0557 41.2201 54.9592 41.3164L54.4764 38.5241L54.3798 38.2352L54.2833 37.9464L54.1867 37.5612L54.0902 37.1761L53.9936 36.7909L53.704 34.8652V34.7689L54.2833 34.8652V34.9615L54.3798 35.4429ZM51.7729 33.2283C52.7384 33.2283 53.5109 33.7098 53.9936 34.3838C53.2212 34.2875 52.5453 34.1912 51.7729 34.1912C51.0005 34.1912 50.3246 34.1912 49.5522 34.3838C49.9384 33.6135 50.8074 33.2283 51.7729 33.2283ZM48.7798 37.3686L48.8763 36.7909L48.9729 36.2132L49.166 34.9615V34.8652H49.2625L49.7453 34.7689V34.8652L49.4557 36.6946L49.3591 37.1761V37.2724L49.2625 37.5612L49.166 38.0426L49.0694 38.3315L48.9729 38.6204L48.4901 41.3164C48.297 41.1238 48.1039 41.0275 48.0074 40.9312L48.3936 38.7166L48.4901 38.4278L48.5867 38.1389L48.7798 37.3686ZM44.8211 35.8281C44.8211 35.3466 45.2073 35.0578 45.5935 35.0578C45.7866 35.0578 45.9797 35.1541 46.1729 35.2503C45.6901 35.4429 45.2073 35.6355 44.8211 35.8281ZM44.5315 36.6946C44.628 36.5983 44.7246 36.5984 44.8211 36.5021C44.9177 36.5021 45.0142 36.4058 45.1108 36.3095C45.497 36.1169 45.9797 35.8281 46.366 35.7318C46.4625 35.7318 46.5591 35.6355 46.6556 35.6355C46.7522 35.6355 46.8487 35.5392 46.9453 35.5392C47.428 35.3466 48.0074 35.1541 48.5867 35.0578L48.2005 37.5612L48.1039 38.2352L48.0074 38.5241V38.8129L47.7177 40.4498C47.6211 40.3535 47.5246 40.3535 47.428 40.3535C47.2349 40.4498 46.9453 40.5461 46.7522 40.7387C46.2694 40.4498 45.8832 40.2572 45.4004 39.8721C45.3039 39.7758 45.2073 39.7758 45.1108 39.6795C45.0142 39.5832 44.9177 39.4869 44.8211 39.4869C44.7246 39.4869 44.628 39.3906 44.628 39.2944C43.9521 38.8129 43.3728 38.3315 42.7935 37.8501C43.3728 37.4649 43.9521 37.0798 44.5315 36.6946ZM38.3521 40.8349C37.8693 40.2572 37.3865 39.5832 36.9038 39.0055C35.3589 36.6946 34.7796 34.2875 34.7796 32.2655C34.7796 30.7249 35.0693 29.3769 35.552 28.414C36.8072 25.5254 38.4486 23.8886 39.9935 23.022C41.6349 22.1554 43.0832 21.9629 44.1452 21.9629C44.1452 21.9629 44.1452 21.9629 44.2418 21.9629V22.0591C42.5038 23.022 41.2487 24.1774 40.4762 25.4292C39.5107 26.8735 39.1245 28.3177 38.9314 29.4732C38.8348 29.9546 38.7383 30.5323 38.7383 30.9175C38.7383 32.3618 39.1245 33.6135 39.7038 34.7689C40.2831 35.9243 41.0556 36.8872 41.9245 37.7538C41.9245 37.8501 42.0211 37.8501 42.0211 37.8501C42.1176 37.9464 42.2142 38.0426 42.2142 38.0426C42.3107 38.1389 42.4073 38.2352 42.4073 38.2352C42.9866 38.7166 43.5659 39.2944 44.1452 39.6795C44.2418 39.6795 44.2418 39.7758 44.3383 39.7758C44.4349 39.8721 44.5315 39.8721 44.628 39.9684C44.7246 40.0647 44.8211 40.0646 44.9177 40.1609C45.4004 40.4498 45.8832 40.8349 46.366 41.1238C46.2694 41.3164 46.1729 41.5089 46.0763 41.7015C45.8832 41.9904 45.8832 42.3755 45.8832 42.7607C45.8832 43.0495 45.9797 43.3384 46.0763 43.531C45.4004 43.6272 44.1452 43.9161 43.4694 44.5901C43.3728 44.6864 43.2763 44.7827 43.2763 44.7827L43.1797 44.6864C42.697 44.3975 42.2142 44.0124 41.7314 43.6272C41.6349 43.531 41.5383 43.5309 41.5383 43.4347C41.4418 43.3384 41.3452 43.3384 41.2487 43.2421C41.1521 43.1458 41.0556 43.1458 41.0556 43.0495C40.7659 42.7607 40.4762 42.5681 40.1866 42.2792C40.09 42.1829 39.9935 42.0867 39.8969 41.9904C39.8004 41.8941 39.7038 41.7978 39.7038 41.7978C39.6073 41.7015 39.5107 41.6052 39.5107 41.6052C39.3176 41.4127 39.1245 41.2201 38.9314 41.0275C38.5452 41.1238 38.4486 40.9312 38.3521 40.8349ZM38.2555 46.0344C38.2555 45.9381 38.3521 45.8418 38.3521 45.7455C38.4486 45.2641 38.5452 44.7827 38.7383 44.3975C38.8348 44.3012 38.8348 44.205 38.8348 44.1087C38.8348 44.0124 38.9314 43.9161 38.9314 43.8198C39.1245 43.4347 39.2211 43.0495 39.4142 42.7607C39.8004 43.0495 40.09 43.4347 40.4762 43.7235C40.5728 43.8198 40.6693 43.9161 40.7659 43.9161C40.8624 44.0124 40.959 44.1087 40.959 44.1087C41.0556 44.205 41.1521 44.205 41.1521 44.3012C41.5383 44.5901 41.9245 44.879 42.3107 45.0715C41.4418 45.553 40.7659 45.9381 40.1866 46.3232C39.9935 46.4195 39.8969 46.5158 39.7038 46.7084C39.5107 46.8047 39.4142 46.901 39.3176 47.0935C39.3176 47.0935 39.3176 47.1898 39.221 47.1898C39.221 47.1898 39.2211 47.1898 39.1245 47.2861L37.9659 47.1898C38.0624 46.9973 38.0624 46.7084 38.159 46.4195C38.2555 46.227 38.2555 46.1307 38.2555 46.0344ZM38.159 44.205C37.9659 44.6864 37.8693 45.1678 37.7728 45.553C37.5797 45.3604 37.4831 45.1678 37.4831 44.879C37.3865 44.5901 37.7728 44.3012 38.159 44.205ZM37.7728 63.4622C37.5797 64.2325 37.4831 64.8102 37.4831 65.0028H36.2279C36.3245 64.7139 36.5176 63.751 36.8072 62.6919H37.8693C37.8693 62.8845 37.7728 63.1733 37.7728 63.4622ZM37.9659 62.3067H36.9038C36.9038 62.1142 37.0003 61.9216 37.0003 61.8253H38.0624L37.9659 62.3067ZM38.159 61.3439H37.0969C37.0969 61.2476 37.0969 61.2476 37.0969 61.1513C37.0969 60.9587 37.1934 60.8624 37.1934 60.6699H37.3865H37.6762L38.159 60.7662C38.2555 61.055 38.159 61.1513 38.159 61.3439ZM38.6417 59.8033C38.6417 59.9959 38.6417 60.0922 38.5452 60.2847V60.381C38.5452 60.381 38.5452 60.381 38.4486 60.381H38.3521C38.159 60.381 37.9659 60.2847 37.7728 60.2847C37.6762 60.2847 37.5797 60.2847 37.4831 60.2847C37.3865 60.2847 37.29 60.2847 37.1934 60.2847C37.0969 60.2847 37.0003 60.2847 36.9038 60.2847C34.49 60.0922 30.2416 59.6107 29.8554 59.5144C29.8554 59.5144 29.8554 59.5144 29.8554 59.4182C29.952 58.359 31.1106 47.575 31.1106 47.0935C31.4968 47.0935 34.8762 47.4787 37.3865 47.7675C37.4831 47.7675 37.5797 47.7675 37.6762 47.7675C37.7728 47.7675 37.8693 47.7675 37.9659 47.7675C38.2555 47.7675 38.5452 47.8638 38.8348 47.8638C38.8348 47.8638 38.8348 47.8638 38.8348 47.9601C38.8348 48.0564 38.8348 48.1527 38.8348 48.1527C38.8348 48.249 38.9314 48.4415 39.0279 48.5378L39.1245 48.6341H38.9314C38.6417 48.6341 38.2555 48.5378 37.8693 48.5378C37.7728 48.5378 37.6762 48.5378 37.5797 48.5378C37.4831 48.5378 37.3865 48.5378 37.29 48.5378C35.0693 48.3453 31.9796 47.9601 31.9796 47.9601C31.883 47.9601 31.7865 47.9601 31.7865 48.0564C31.6899 48.1527 31.6899 48.249 31.6899 48.249L30.7244 57.7813L30.6278 58.5516V58.6479C30.6278 58.8404 30.7244 58.9367 30.9175 58.9367C30.9175 58.9367 34.7796 59.3219 37.0969 59.6107H37.29C37.3865 59.6107 37.3865 59.6107 37.4831 59.6107H37.6762C37.7728 59.6107 37.7728 59.6107 37.8693 59.6107H38.0624C38.159 59.6107 38.2555 59.6107 38.4486 59.707C38.4486 59.707 38.4486 59.707 38.5452 59.707C38.6417 59.707 38.7383 59.707 38.8348 59.707H38.9314C38.6417 59.6107 38.6417 59.707 38.6417 59.8033ZM32.1727 54.7964L31.9796 56.0481L31.3037 55.9519C31.4003 55.3741 31.4003 54.8927 31.4968 54.7001C31.6899 54.7001 31.883 54.7001 32.1727 54.7964ZM31.3037 56.9147L31.9796 57.011L31.883 58.1664C31.4968 58.1664 31.3037 58.0702 31.2072 58.0702V57.8776C31.2072 57.8776 31.2072 57.8776 31.2072 57.7813C31.2072 57.685 31.2072 57.5887 31.3037 57.3961V57.2036V57.1073C31.3037 57.1073 31.3037 57.011 31.3037 56.9147ZM32.1727 58.1664L32.2692 57.011L32.9451 57.1073L32.8486 58.2627C32.5589 58.1664 32.3658 58.1664 32.1727 58.1664ZM33.1382 58.2627L33.2348 57.1073L34.0072 57.2036L33.9106 58.359C33.621 58.359 33.3313 58.2627 33.1382 58.2627ZM34.1037 58.359L34.2003 57.2036L34.8762 57.2999L34.7796 58.4553C34.5865 58.4553 34.3934 58.359 34.1037 58.359ZM35.1658 58.4553L35.2624 57.2999L36.0348 57.3961L35.8417 58.5516C35.6486 58.5516 35.3589 58.4553 35.1658 58.4553ZM36.1314 58.5516L36.2279 57.3961H36.6141L36.9038 57.4924L36.8072 58.0702L36.7107 58.6479C36.6141 58.6479 36.421 58.6479 36.1314 58.5516ZM37.0969 58.6479V58.4553V58.2627V57.9739L37.1934 57.4924H37.3865H37.5797H37.6762H37.8693L37.7728 58.359V58.5516V58.6479C37.7728 58.6479 37.7728 58.6479 37.6762 58.6479H37.5797C37.4831 58.6479 37.4831 58.6479 37.3865 58.6479H37.29H37.0969ZM38.7383 57.7813C38.7383 57.9739 38.6417 58.1664 38.6417 58.359C38.6417 58.5516 38.6417 58.6479 38.6417 58.7442C38.6417 58.8404 38.6417 58.8404 38.6417 58.9367C38.6417 58.9367 38.6417 58.9367 38.5452 58.9367C38.4486 58.9367 38.3521 58.9367 38.2555 58.9367H38.159V58.8404V58.6479L38.2555 57.7813H38.3521H38.7383ZM38.9314 57.2999C38.9314 57.2999 38.9314 57.3962 38.9314 57.2999L38.7383 57.3961H38.6417H38.5452C38.4486 57.3961 38.3521 57.3961 38.2555 57.3961C38.2555 57.3961 38.2555 57.3961 38.159 57.3961C38.0624 57.3961 37.9659 57.3961 37.9659 57.3961C37.8693 57.3961 37.8693 57.3961 37.7728 57.3961H37.5797C37.4831 57.3961 37.4831 57.3961 37.3865 57.3961C37.29 57.3961 37.29 57.3961 37.1934 57.3961C37.1934 57.3961 37.1934 57.3961 37.0969 57.3961C37.0969 57.3961 37.0969 57.3961 37.0003 57.3961C36.9038 57.3961 36.9038 57.3961 36.8072 57.3961H36.7107C36.6141 57.3961 36.5176 57.3961 36.421 57.3961C36.3245 57.3961 36.2279 57.3961 36.1314 57.3961C36.0348 57.3961 35.9383 57.3961 35.8417 57.3961C35.6486 57.3961 35.3589 57.2999 35.0693 57.2999C34.9727 57.2999 34.8762 57.2999 34.7796 57.2999C34.5865 57.2999 34.2969 57.2999 34.1037 57.2036C34.0072 57.2036 33.9106 57.2036 33.8141 57.2036C33.5244 57.2036 33.3313 57.1073 33.0417 57.1073C32.9451 57.1073 32.8486 57.1073 32.752 57.1073C32.4624 57.1073 32.2692 57.011 32.0761 57.011C31.9796 57.011 31.883 57.011 31.7865 57.011C31.4968 57.011 31.3037 56.9147 31.2072 56.9147C31.2072 56.7221 31.2072 56.6259 31.2072 56.5296C31.3037 56.5296 31.4968 56.5296 31.7865 56.6259C31.883 56.6259 31.9796 56.6259 32.0761 56.6259C32.2692 56.6259 32.5589 56.7221 32.8486 56.7221C32.9451 56.7221 33.0417 56.7221 33.1382 56.7221C33.3313 56.7221 33.621 56.7221 33.8141 56.8184C33.9106 56.8184 34.0072 56.8184 34.1037 56.8184C34.2969 56.8184 34.5865 56.9147 34.8762 56.9147C34.9727 56.9147 35.0693 56.9147 35.1658 56.9147C35.3589 56.9147 35.6486 56.9147 35.8417 57.011C35.9383 57.011 36.0348 57.011 36.1314 57.011C36.2279 57.011 36.3245 57.011 36.3245 57.011C36.421 57.011 36.5176 57.011 36.6141 57.011C36.7107 57.011 36.7107 57.011 36.8072 57.011H36.9038C37.0003 57.011 37.0003 57.011 37.0969 57.011H37.1934H37.29H37.4831C37.4831 57.011 37.4831 57.011 37.5797 57.011H37.7728H37.8693H38.0624H38.159H38.3521C38.4486 57.011 38.4486 57.011 38.5452 57.011H38.6417C38.6417 57.011 38.6417 57.011 38.7383 57.011H38.8348C38.9314 57.1073 38.9314 57.2036 38.9314 57.2999ZM32.3658 56.0481L32.5589 54.7964C32.752 54.7964 33.0417 54.8927 33.2348 54.8927L33.1382 56.1444L32.3658 56.0481ZM33.3313 56.1444L33.4279 54.8927C33.621 54.8927 33.9106 54.8927 34.2003 54.989L34.1037 56.2407L33.3313 56.1444ZM34.3934 56.2407L34.5865 54.989C34.7796 54.989 35.0693 55.0853 35.2624 55.0853L35.0693 56.337L34.3934 56.2407ZM35.3589 56.337L35.4555 55.0853C35.6486 55.0853 35.9383 55.1816 36.2279 55.1816L36.0348 56.4333L35.3589 56.337ZM36.3245 56.4333L36.5176 55.1816H36.6141C36.7107 55.1816 36.8072 55.1816 36.9038 55.1816C37.0003 55.1816 37.0969 55.1816 37.1934 55.1816V55.2779L37.0969 56.1444V56.4333H36.8072H36.5176H36.3245ZM37.3865 56.5296V56.2407V55.9519L37.4831 55.1816H37.6762C37.7728 55.1816 37.8693 55.1816 37.9659 55.1816C38.0624 55.1816 38.159 55.1816 38.159 55.1816L38.0624 55.8556L37.9659 56.337V56.6259H37.7728H37.4831H37.3865V56.5296ZM39.0279 55.5667C38.9314 55.663 38.9314 55.663 39.0279 55.5667C39.0279 55.7593 38.9314 56.0481 38.9314 56.2407C38.9314 56.337 38.9314 56.4333 38.9314 56.5296V56.7221H38.8348H38.6417H38.5452H38.3521V56.6259V56.337V56.0481L38.4486 55.4704H38.6417C38.8348 55.4704 38.8348 55.4704 38.9314 55.4704V55.5667H39.0279ZM38.9314 54.989C38.8348 54.989 38.7383 54.989 38.6417 54.989C38.5452 54.989 38.4486 54.989 38.3521 54.989C38.2555 54.989 38.2555 54.989 38.159 54.989C38.0624 54.989 37.9659 54.989 37.9659 54.989H37.8693C37.7728 54.989 37.7728 54.989 37.6762 54.989H37.4831H37.3865H37.29C37.1934 54.989 37.0969 54.989 37.0969 54.989C37.0003 54.989 36.9038 54.989 36.8072 54.989C34.6831 54.7964 31.883 54.5076 31.6899 54.5076V54.4113C31.6899 54.315 31.6899 54.2187 31.6899 54.1224C31.883 54.1224 34.7796 54.4113 36.9038 54.7001C37.0003 54.7001 37.0969 54.7001 37.1934 54.7001H37.29H37.4831H37.5797H37.7728C37.8693 54.7001 37.8693 54.7001 37.9659 54.7001C38.0624 54.7001 38.159 54.7001 38.159 54.7001C38.2555 54.7001 38.3521 54.7001 38.4486 54.7001C38.5452 54.7001 38.6417 54.7001 38.7383 54.7001C38.8348 54.7001 38.9314 54.7001 38.9314 54.7001H39.0279V54.8927C39.0279 54.8927 39.0279 54.989 39.0279 55.0853V55.1816H38.9314V54.989ZM43.2763 65.5805C43.1797 65.4842 42.9866 65.3879 42.8901 65.2916C42.697 65.1953 42.6004 65.099 42.5038 65.0028C42.1176 64.7139 41.7314 64.3288 41.4418 63.9436C40.4762 62.8845 39.7038 61.729 39.1245 60.381V60.0922L39.221 59.8033V59.5144V59.4182C39.221 59.5144 39.2211 59.5144 39.3176 59.5144C39.3176 59.6107 39.4142 59.707 39.5107 59.8996C39.5107 59.9959 39.6073 60.0922 39.6073 60.2847C40.1866 61.5365 40.8624 62.5956 41.7314 63.5585C42.2142 64.1362 42.7935 64.7139 43.4694 65.1953C43.6625 65.2916 43.759 65.3879 43.8556 65.4842C44.0487 65.5805 44.1452 65.6768 44.3383 65.773C45.8832 66.7359 47.6211 67.3136 49.5522 67.5062V67.6025C49.5522 67.6988 49.5522 67.7951 49.4557 67.8913C49.4557 67.9876 49.4557 68.0839 49.4557 68.0839C49.166 68.0839 48.7798 67.9876 48.4901 67.8913C46.5591 67.4099 44.8211 66.6396 43.2763 65.5805ZM49.3591 70.5873C49.0694 70.4911 48.5867 70.3948 48.297 70.3948C48.3936 70.0096 48.7798 69.0468 48.8763 68.4691C49.0694 68.4691 49.3591 68.5653 49.5522 68.5653V68.6616C49.5522 69.2393 49.4557 70.2022 49.3591 70.5873ZM51.2902 68.3728C51.2902 68.4691 51.2902 68.4691 51.1936 68.5653C51.1936 68.6616 51.1936 68.6616 51.097 68.7579L51.0005 68.8542C50.9039 68.9505 50.7108 68.8542 50.6143 68.8542C50.5177 68.8542 50.4212 68.7579 50.3246 68.6616C50.2281 68.6616 50.2281 68.5653 50.2281 68.5653C50.1315 68.4691 50.1315 68.3728 50.035 68.3728C49.9384 68.2765 49.9384 68.1802 49.9384 68.0839V67.8913C49.9384 67.7951 49.9384 67.6988 49.9384 67.6988C49.9384 67.6988 49.9384 67.6025 50.035 67.5062C50.2281 67.5062 50.4212 67.5062 50.6143 67.5062H50.9039C51.0005 67.6025 51.0005 67.6988 51.097 67.795C51.1936 67.8913 51.1936 67.9876 51.1936 68.0839V68.3728H51.2902ZM52.7384 68.3728C52.7384 68.4691 52.6419 68.5653 52.5453 68.6616C52.4488 68.6616 52.4488 68.7579 52.3522 68.7579C52.1591 68.8542 51.966 68.8542 51.8695 68.7579C51.8695 68.7579 51.7729 68.7579 51.6764 68.6616C51.6764 68.5653 51.7729 68.4691 51.7729 68.3728C51.7729 68.3728 51.7729 68.2765 51.7729 68.1802C51.7729 68.1802 51.7729 68.0839 51.7729 67.9876C51.7729 67.7951 51.6764 67.6025 51.5798 67.4099C51.8695 67.4099 52.1591 67.4099 52.5453 67.4099V67.5062C52.6419 67.6025 52.6419 67.6988 52.6419 67.6988C52.6419 67.7951 52.6419 67.8913 52.6419 67.8913C52.7384 68.1802 52.7384 68.2765 52.7384 68.3728ZM52.9316 66.8322C52.7384 66.8322 52.6419 66.8322 52.5453 66.8322C52.2557 66.8322 51.966 66.8322 51.7729 66.8322C51.5798 66.8322 51.4833 66.8322 51.2902 66.8322H51.1936H50.9039C50.6143 66.8322 50.2281 66.8322 49.9384 66.7359C48.297 66.5433 46.8487 66.1582 45.497 65.4842C45.3039 65.3879 45.1108 65.2916 44.9177 65.1953C44.7246 65.099 44.628 65.0028 44.4349 64.9065C43.5659 64.3288 42.7935 63.751 42.1176 62.9807C41.7314 62.5956 41.4418 62.2105 41.1521 61.729C40.8624 61.2476 40.6693 60.8625 40.3797 60.381C40.2831 60.2847 40.2831 60.1884 40.2831 60.1884C40.1866 60.0922 40.1866 59.9959 40.09 59.8996C39.9935 59.8033 39.9935 59.707 39.8969 59.5144C39.8004 59.3219 39.7038 59.1293 39.7038 59.033C39.5107 58.5516 39.4142 58.1664 39.3176 57.7813L39.4142 56.9147V56.6259V56.337L39.5107 55.7593L39.8004 53.1596V52.8707V52.5818L40.1866 49.2118C40.8624 49.4044 41.6349 49.597 42.5038 49.6933L42.2142 50.271L48.3936 53.1596L49.4557 50.945L47.8143 50.1747C49.8419 50.271 51.4833 50.271 51.6764 50.271C51.8695 50.271 53.2212 50.271 55.0557 50.1747L53.4143 50.945L54.4764 53.1596L60.6558 50.271L60.4627 49.7895C61.3316 49.6933 62.1041 49.597 62.7799 49.4044L63.1662 52.6781L63.2627 53.3521L63.5524 56.5296V56.8184V56.9147V57.1073L63.6489 57.9739L63.7455 58.4553C63.6489 58.9367 63.4558 59.3219 63.3593 59.8033C63.3593 59.8996 63.2627 59.9959 63.2627 60.0922V60.1884C63.2627 60.2847 63.1662 60.381 63.1662 60.4773C62.973 60.7662 62.8765 61.1513 62.6834 61.4402C62.4903 61.9216 62.2006 62.3067 61.911 62.6919C61.7179 63.077 61.4282 63.3659 61.1385 63.751C60.5592 64.425 59.8834 64.9065 59.2075 65.3879C59.0144 65.4842 58.8213 65.5805 58.7247 65.6768C58.5316 65.773 58.3385 65.8693 58.1454 65.9656C56.6006 66.3508 54.8626 66.7359 52.9316 66.8322ZM53.4143 70.5873C53.3178 70.2022 53.2212 69.4319 53.2212 68.8542C53.2212 68.7579 53.3178 68.7579 53.3178 68.6616C53.5109 68.6616 53.8005 68.5653 53.9936 68.5653C54.1867 69.0468 54.3798 70.0096 54.4764 70.3948C54.1867 70.3948 53.704 70.4911 53.4143 70.5873ZM64.0351 61.055C63.4558 62.2105 62.7799 63.2696 61.911 64.2325C61.7179 64.5213 61.4282 64.7139 61.1385 65.0028C61.042 65.099 60.9454 65.1953 60.7523 65.2916C60.6558 65.3879 60.4627 65.4842 60.3661 65.5805C58.7247 66.8322 56.6006 67.6025 54.2833 67.8913C54.1867 67.8913 54.0902 67.8913 53.9936 67.9876C53.8005 67.9876 53.5109 67.9876 53.2212 68.0839C53.2212 67.9876 53.2212 67.8913 53.2212 67.795C53.2212 67.6988 53.2212 67.6025 53.1247 67.5062C55.5385 67.3136 57.5661 66.7359 59.2075 65.6768C59.4006 65.5805 59.4971 65.4842 59.6903 65.3879C59.8834 65.2916 59.9799 65.1953 60.0765 65.099C60.5592 64.7139 61.042 64.3288 61.4282 63.8473C62.3937 62.7882 63.1662 61.6327 63.6489 60.1884C63.6489 60.0922 63.7455 59.9959 63.7455 59.8996V60.0922V60.1884L63.842 60.8625C63.842 60.9587 63.9386 60.9587 63.9386 61.055C64.1317 60.9587 64.1317 61.055 64.0351 61.055ZM64.1317 54.989C64.0351 54.989 64.0351 54.989 64.0351 54.989V54.8927C64.0351 54.7964 64.0351 54.7001 64.0351 54.6039H64.2282H64.3248H64.5179H64.6144C64.711 54.6039 64.8076 54.6039 64.8076 54.6039C64.9041 54.6039 65.0007 54.6039 65.0972 54.6039C65.1938 54.6039 65.2903 54.6039 65.4834 54.6039C65.4834 54.6039 65.4834 54.6039 65.58 54.6039C65.58 54.6039 65.58 54.6039 65.6765 54.6039C65.7731 54.6039 65.7731 54.6039 65.8696 54.6039H65.9662C66.0627 54.6039 66.0627 54.6039 66.1593 54.6039H66.2558C68.4766 54.4113 71.4697 54.1224 71.6628 54.0261C71.6628 54.1224 71.6628 54.2187 71.6628 54.315V54.4113C71.4697 54.4113 68.5731 54.7001 66.449 54.989H66.2558H66.1593H65.9662C65.8696 54.989 65.8696 54.989 65.8696 54.989H65.7731H65.58C65.4834 54.989 65.4834 54.989 65.3869 54.989C65.2903 54.989 65.1938 54.989 65.0972 54.989C65.0007 54.989 64.9041 54.989 64.8076 54.989C64.711 54.989 64.6144 54.989 64.6144 54.989C64.6144 54.989 64.6144 54.989 64.5179 54.989C64.3248 54.989 64.2282 54.989 64.1317 54.989ZM71.6628 54.7001C71.6628 54.8927 71.7594 55.3741 71.7594 55.9519L71.0835 56.0481L70.9869 54.7964C71.3731 54.7001 71.5663 54.7001 71.6628 54.7001ZM70.8904 56.0481L70.2145 56.1444L70.0214 54.8927C70.3111 54.8927 70.5042 54.7964 70.7938 54.7964L70.8904 56.0481ZM69.8283 56.1444L69.0559 56.2407L68.9593 54.989C69.1524 54.989 69.4421 54.989 69.6352 54.8927L69.8283 56.1444ZM68.8628 56.2407L68.1869 56.337L67.9938 55.0853C68.2835 55.0853 68.4766 54.989 68.7662 54.989L68.8628 56.2407ZM67.8972 56.337L67.2214 56.4333L67.0283 55.1816C67.2214 55.1816 67.511 55.1816 67.7041 55.0853L67.8972 56.337ZM66.8352 56.4333H66.5455H66.2558H66.0627V55.663V55.2779C66.0627 55.2779 66.0627 55.2779 66.1593 55.2779H66.2558C66.3524 55.2779 66.4489 55.2779 66.5455 55.2779C66.6421 55.2779 66.7386 55.2779 66.7386 55.2779L66.8352 56.4333ZM65.8696 56.5296H65.6765H65.4834H65.3869H65.1938V56.4333V56.1444V55.7593L65.0007 55.3741C65.0972 55.3741 65.1938 55.3741 65.1938 55.3741C65.2903 55.3741 65.3869 55.3741 65.4834 55.3741C65.4834 55.3741 65.4834 55.3741 65.58 55.3741C65.6765 55.3741 65.6765 55.3741 65.7731 55.3741L65.8696 55.7593L65.9662 56.4333L65.8696 56.5296ZM64.3248 56.2407V56.1444C64.3248 55.8556 64.2282 55.5667 64.2282 55.3741H64.4213H64.5179H64.8076L64.9041 56.2407V56.4333V56.5296V56.6259H64.8076H64.5179H64.3248C64.3248 56.5296 64.3248 56.337 64.3248 56.2407ZM64.3248 57.3961H64.2282V57.2036V57.1073H64.3248H64.4213C64.5179 57.1073 64.6144 57.1073 64.711 57.1073C64.8076 57.1073 64.8076 57.1073 64.9041 57.1073H65.0972H65.1938H65.3869C65.4834 57.1073 65.58 57.1073 65.58 57.1073C65.58 57.1073 65.58 57.1073 65.6765 57.1073H65.8696C65.8696 57.1073 65.8696 57.1073 65.9662 57.1073H66.1593H66.2558C66.3524 57.1073 66.4489 57.1073 66.5455 57.1073C66.6421 57.1073 66.7386 57.1073 66.8352 57.1073C66.9317 57.1073 67.0283 57.1073 67.1248 57.1073C67.3179 57.1073 67.6076 57.1073 67.8007 57.011C67.8972 57.011 67.9938 57.011 68.0903 57.011C68.2835 57.011 68.5731 56.9147 68.7662 56.9147C68.8628 56.9147 68.9593 56.9147 69.0559 56.9147C69.3455 56.9147 69.5386 56.8184 69.8283 56.8184C69.9249 56.8184 70.0214 56.8184 70.118 56.8184C70.4076 56.8184 70.6007 56.7221 70.7938 56.7221C70.8904 56.7221 70.9869 56.7221 71.0835 56.7221C71.3731 56.7221 71.6628 56.6259 71.6628 56.6259C71.6628 56.7221 71.6628 56.8184 71.6628 57.011C71.6628 57.011 71.4697 57.011 71.0835 57.1073C70.9869 57.1073 70.8904 57.1073 70.7938 57.1073C70.6007 57.1073 70.3111 57.1073 70.0214 57.2036C69.9249 57.2036 69.8283 57.2036 69.7317 57.2036L69.0559 57.2999C68.9593 57.2999 68.8628 57.2999 68.7662 57.2999C68.5731 57.2999 68.2835 57.2999 67.9938 57.3961C67.8972 57.3961 67.8007 57.3961 67.7041 57.3961L67.0283 57.4924C66.9317 57.4924 66.8352 57.4924 66.7386 57.4924C66.5455 57.4924 66.4489 57.4924 66.2558 57.4924C66.1593 57.4924 66.0627 57.4924 65.9662 57.4924C65.8696 57.4924 65.7731 57.4924 65.7731 57.4924H65.6765H65.4834H65.3869H65.1938C65.1938 57.4924 65.0972 57.4924 65.0007 57.4924C64.9041 57.4924 64.8076 57.4924 64.711 57.4924C64.6144 57.4924 64.5179 57.4924 64.5179 57.4924H64.4213C64.5179 57.3962 64.4213 57.3961 64.3248 57.3961ZM71.8559 56.9147C71.9525 57.3961 71.9525 57.8776 71.9525 58.0702C71.8559 58.0702 71.6628 58.0702 71.2766 58.1664L71.18 57.011L71.8559 56.9147ZM71.0835 58.1664C70.8904 58.1664 70.6007 58.1664 70.3111 58.2627L70.2145 57.1073L70.9869 57.011L71.0835 58.1664ZM70.0214 58.2627C69.8283 58.2627 69.5386 58.359 69.3455 58.359L69.249 57.2036L69.9249 57.1073L70.0214 58.2627ZM69.0559 58.359C68.8628 58.359 68.5731 58.4553 68.38 58.4553L68.1869 57.2999L68.9593 57.2036L69.0559 58.359ZM68.0903 58.4553C67.8972 58.4553 67.6076 58.4553 67.4145 58.5516L67.3179 57.3961L67.9938 57.2999L68.0903 58.4553ZM67.0283 58.5516C66.8352 58.5516 66.5455 58.6479 66.3524 58.6479L66.2558 57.8776L66.1593 57.4924H66.3524L66.8352 57.3961L67.0283 58.5516ZM65.2903 58.359L65.1938 57.5887H65.3869H65.4834H65.6765H65.7731H65.9662L66.0627 57.8776V58.4553V58.7442C66.0627 58.7442 66.0627 58.7442 65.9662 58.7442H65.7731C65.7731 58.7442 65.6765 58.7442 65.58 58.7442H65.4834C65.4834 58.7442 65.4834 58.7442 65.3869 58.7442H65.2903V58.6479V58.359ZM64.5179 58.6479C64.5179 58.5516 64.5179 58.4553 64.5179 58.2627C64.5179 58.1664 64.5179 58.1664 64.5179 58.0702C64.5179 57.8776 64.5179 57.7813 64.5179 57.5887C64.5179 57.5887 64.5179 57.5887 64.5179 57.4924H64.6144H64.8076H65.0007H65.1938V57.8776V58.2627L65.2903 58.6479V58.7442H65.1938H65.0972C64.9041 58.7442 64.8076 58.7442 64.8076 58.7442C64.5179 58.8404 64.5179 58.7442 64.5179 58.6479ZM64.711 61.1513C64.8076 61.055 64.8076 60.9587 64.9041 60.8625L65.4834 60.7662H65.6765C65.6765 60.8624 65.7731 60.9587 65.7731 61.055C65.7731 61.1513 65.8696 61.2476 65.8696 61.3439H64.8076C64.711 61.3439 64.711 61.2476 64.711 61.1513ZM64.8076 61.729H65.8696C65.9662 61.9216 65.9662 62.0179 66.0627 62.2105C66.0627 62.2105 66.0627 62.2105 66.0627 62.3067H65.0007C64.9041 62.1142 64.8076 61.9216 64.8076 61.729ZM66.6421 65.0028H65.3869C65.3869 65.0028 65.3869 64.9065 65.3869 64.8102C65.2903 64.425 65.1938 63.5585 65.0007 62.6919H66.0627C66.3524 63.751 66.6421 64.7139 66.6421 65.0028ZM73.4008 59.4182C73.0145 59.5144 68.4766 59.8996 66.0627 60.1884H65.9662H65.7731H65.6765C65.58 60.1884 65.4834 60.1884 65.4834 60.1884H65.3869C65.2903 60.1884 65.1938 60.1884 65.0972 60.1884C64.9041 60.1884 64.8076 60.1884 64.8076 60.1884H64.711C64.711 60.1884 64.711 60.1884 64.711 60.0922C64.711 59.8996 64.711 59.8033 64.711 59.6107C64.711 59.5144 64.711 59.5144 64.711 59.4182H64.8076C64.9041 59.4182 65.0007 59.4182 65.0972 59.4182C65.1938 59.4182 65.2903 59.4182 65.3869 59.4182C65.3869 59.4182 65.3869 59.4182 65.4834 59.4182C65.58 59.4182 65.58 59.4182 65.6765 59.4182H65.7731C65.8696 59.4182 65.9662 59.4182 65.9662 59.4182C68.1869 59.2256 72.3387 58.7442 72.3387 58.7442C72.4352 58.7442 72.5318 58.6479 72.5318 58.6479C72.6283 58.5516 72.6283 58.5516 72.6283 58.4553L71.5663 48.0564C71.5663 47.8638 71.3731 47.7675 71.2766 47.7675C71.2766 47.7675 68.4766 48.0564 66.2558 48.249C66.1593 48.249 66.0627 48.249 65.9662 48.249C65.8696 48.249 65.7731 48.249 65.6765 48.249C65.3869 48.249 65.0007 48.3453 64.8076 48.3453C65.0007 48.249 65.0007 48.0564 65.0007 47.8638C65.0007 47.7675 65.0007 47.6713 64.9041 47.575C65.0972 47.575 65.3869 47.4787 65.6765 47.4787C65.7731 47.4787 65.8696 47.4787 65.9662 47.4787C66.0627 47.4787 66.1593 47.4787 66.2558 47.4787C68.6697 47.1898 71.8559 46.901 72.2421 46.901C72.1456 47.4787 73.3042 58.2627 73.4008 59.4182C73.4008 59.3219 73.4008 59.4182 73.4008 59.4182Z" fill="#787878"/>
<path d="M54.4764 44.4938C53.9936 44.4938 53.704 44.7826 53.6074 45.2641V45.3603C53.6074 45.4566 53.6074 45.5529 53.704 45.5529C53.8005 45.9381 54.0902 46.2269 54.4764 46.2269C54.9592 46.2269 55.3454 45.8418 55.3454 45.3603C55.2488 44.8789 54.8626 44.4938 54.4764 44.4938ZM54.4764 45.5529C54.2833 45.5529 54.1867 45.4566 54.1867 45.2641C54.1867 45.0715 54.2833 44.9752 54.4764 44.9752C54.6695 44.9752 54.7661 45.0715 54.7661 45.2641C54.6695 45.4566 54.5729 45.5529 54.4764 45.5529Z" fill="#787878"/>
<path d="M59.4971 45.2641C59.0144 44.7826 57.6626 44.5901 56.2144 44.4938C56.3109 44.3012 56.4075 44.1086 56.4075 43.9161C56.4075 43.8198 56.504 43.7235 56.504 43.6272C56.504 43.5309 56.6006 43.4346 56.6006 43.3383C56.6971 43.0495 56.6971 42.7606 56.6971 42.5681C56.6971 42.3755 56.6971 42.1829 56.6006 42.0866C56.504 41.8941 56.4075 41.7978 56.3109 41.7015C56.2143 41.7015 56.1178 41.6052 56.1178 41.6052C56.0212 41.6052 55.9247 41.6052 55.9247 41.6052C55.9247 41.6052 55.8281 41.6052 55.8281 41.7015C55.7316 41.7978 55.635 41.8941 55.4419 41.9903C55.3454 42.0866 55.2488 42.1829 55.0557 42.1829C54.573 42.4718 53.9936 42.6643 53.3178 42.8569C53.2212 42.8569 53.1247 42.8569 53.1247 42.9532H53.0281C52.9316 42.9532 52.835 43.0495 52.7384 43.0495C52.6419 43.1458 52.4488 43.1458 52.2557 43.1458C52.0626 43.1458 51.966 43.1458 51.7729 43.1458C51.5798 43.1458 51.4833 43.1458 51.2902 43.1458C51.097 43.1458 50.9039 43.0495 50.7108 43.0495C50.6143 43.0495 50.5177 42.9532 50.4212 42.9532C50.3246 42.9532 50.2281 42.9532 50.2281 42.8569C49.6488 42.6643 49.0694 42.4718 48.5867 42.1829C48.5867 42.2792 48.5867 42.1829 48.4901 42.1829C48.297 42.0866 48.1039 41.9903 47.9108 41.7978C47.8143 41.7978 47.8143 41.7015 47.7177 41.6052C47.7177 41.5089 47.6211 41.5089 47.5246 41.5089H47.3315C47.2349 41.5089 47.1384 41.6052 47.0418 41.7015C46.9453 41.7978 46.8487 41.8941 46.7522 42.0866C46.6556 42.2792 46.6556 42.4718 46.6556 42.5681C46.6556 42.8569 46.6556 43.0495 46.7522 43.3383C46.7522 43.4346 46.8487 43.5309 46.8487 43.6272C46.8487 43.7235 46.9453 43.8198 46.9453 43.9161C47.0418 44.1086 47.1384 44.3012 47.1384 44.4938C45.6901 44.5901 44.3383 44.7826 43.8556 45.2641C43.759 45.3604 43.759 45.3604 43.759 45.4566C43.759 45.5529 43.759 45.6492 43.8556 45.6492C44.0487 45.8418 44.1452 45.9381 44.3383 46.1306C45.1108 46.7084 46.0763 47.1898 47.1384 47.4787C47.9108 47.7675 48.6832 47.9601 49.4557 48.0564C49.5522 48.0564 49.6488 48.0564 49.7453 48.0564H49.8419C49.9384 48.0564 50.035 48.0564 50.1315 48.0564C50.6143 48.1527 51.097 48.1527 51.4833 48.1527H51.5798C51.966 48.1527 52.4488 48.1527 52.9316 48.0564C53.0281 48.0564 53.1247 48.0564 53.2212 48.0564C53.2212 48.0564 53.2212 48.0564 53.3178 48.0564C53.4143 48.0564 53.5109 48.0564 53.6074 48.0564C54.3798 47.8638 55.1523 47.7675 55.9247 47.4787C57.0833 47.0935 58.1454 46.6121 58.9178 46.0344C59.1109 45.9381 59.2075 45.8418 59.304 45.6492C59.4006 45.5529 59.4006 45.5529 59.4006 45.4566C59.4006 45.4566 59.4006 45.4566 59.4006 45.3604C59.5937 45.3604 59.4971 45.3604 59.4971 45.2641ZM53.8005 47.4787C53.704 47.4787 53.6074 47.4787 53.5109 47.5749C53.4143 47.5749 53.3178 47.5749 53.2212 47.6712C52.7384 47.7675 52.3522 47.7675 51.966 47.7675C51.5798 47.7675 51.1936 47.7675 50.6143 47.6712C50.5177 47.6712 50.4212 47.6712 50.3246 47.6712C50.2281 47.6712 50.1315 47.6712 50.035 47.5749C48.2005 47.2861 46.0763 46.5158 45.0142 45.6492C45.6901 45.3604 47.0418 45.2641 47.8143 45.1678H48.1039C48.2005 45.1678 48.297 45.0715 48.297 44.9752C48.297 44.8789 48.297 44.8789 48.297 44.7826C48.297 44.6864 48.297 44.6864 48.297 44.5901C48.1039 44.3012 48.0074 44.1086 47.9108 43.8198C47.9108 43.7235 47.8143 43.6272 47.8143 43.5309C47.8143 43.4346 47.7177 43.3383 47.7177 43.2421C47.6211 43.0495 47.6211 42.7606 47.6211 42.5681C47.6211 42.4718 47.6211 42.3755 47.7177 42.2792C47.7177 42.2792 47.7177 42.1829 47.8143 42.1829C48.2005 42.4718 48.5867 42.7606 49.166 42.9532C49.3591 43.0495 49.5522 43.1458 49.7453 43.1458C49.9384 43.2421 50.2281 43.3383 50.4212 43.3383C50.5177 43.3383 50.6143 43.3383 50.7108 43.4346C50.8074 43.4346 50.9039 43.5309 51.0005 43.5309C51.3867 43.6272 51.7729 43.7235 52.0626 43.7235C52.3522 43.7235 52.6419 43.6272 53.0281 43.6272C53.1247 43.6272 53.2212 43.5309 53.3178 43.5309C53.4143 43.5309 53.5109 43.5309 53.6074 43.4346C53.8005 43.3383 54.0902 43.2421 54.2833 43.2421C54.4764 43.1458 54.6695 43.0495 54.8626 43.0495C55.3454 42.8569 55.9247 42.5681 56.2144 42.2792C56.2144 42.2792 56.2143 42.3755 56.3109 42.3755C56.3109 42.4718 56.3109 42.5681 56.3109 42.6643C56.3109 42.8569 56.3109 43.1458 56.2144 43.3383C56.2144 43.4346 56.1178 43.5309 56.1178 43.6272C56.1178 43.7235 56.0212 43.8198 56.0212 43.9161C55.9247 44.2049 55.8281 44.4938 55.635 44.6864C55.635 44.6864 55.635 44.7826 55.635 44.8789C55.635 44.8789 55.635 44.9752 55.7316 45.0715C55.7316 45.1678 55.8281 45.2641 55.9247 45.2641H56.2144C56.9868 45.3604 58.3385 45.4566 59.0144 45.7455C57.7592 46.5158 55.5385 47.1898 53.8005 47.4787Z" fill="#787878"/>
<path d="M49.166 44.3976C48.6832 44.3976 48.297 44.7827 48.297 45.2642C48.297 45.7456 48.6832 46.1307 49.166 46.1307C49.6487 46.1307 50.0349 45.7456 50.0349 45.2642C49.9384 44.7827 49.6487 44.3976 49.166 44.3976ZM49.166 45.553C48.9729 45.553 48.8763 45.4567 48.8763 45.2642C48.8763 45.0716 48.9729 44.9753 49.166 44.9753C49.3591 44.9753 49.4556 45.0716 49.4556 45.2642C49.3591 45.4567 49.2625 45.553 49.166 45.553Z" fill="#787878"/>
<path d="M51.8695 44.7827C51.7729 44.7827 51.7729 44.7827 51.8695 44.7827C51.2901 44.7827 50.8074 45.1679 50.8074 45.7456C50.8074 46.227 51.2901 46.7084 51.7729 46.7084C52.2557 46.7084 52.6419 46.227 52.6419 45.7456C52.7384 45.1679 52.3522 44.7827 51.8695 44.7827ZM51.8695 46.0344C51.7729 46.0344 51.7729 46.0344 51.8695 46.0344C51.7729 46.0344 51.7729 46.0344 51.8695 46.0344C51.5798 46.0344 51.3867 45.8419 51.3867 45.6493C51.3867 45.4567 51.5798 45.2641 51.7729 45.2641C51.966 45.2641 52.0626 45.4567 52.0626 45.6493C52.1591 45.8419 52.0626 46.0344 51.8695 46.0344Z" fill="#787878"/>
<path d="M57.1798 52.3893C55.8281 52.3893 54.6694 53.5447 54.6694 54.8927C54.6694 55.3742 54.8625 55.8556 55.1522 56.2407C55.2488 56.337 55.3453 56.4333 55.3453 56.5296C55.4419 56.6259 55.5384 56.7222 55.635 56.8184C56.0212 57.1073 56.6005 57.2999 57.1798 57.2999C57.7591 57.2999 58.2419 57.1073 58.7247 56.8184C58.8212 56.7222 58.9178 56.6259 59.0143 56.5296C59.1109 56.4333 59.2074 56.337 59.2074 56.2407C59.4971 55.8556 59.6902 55.3742 59.6902 54.8927C59.6902 53.5447 58.5316 52.3893 57.1798 52.3893ZM58.2419 56.2407C58.0488 56.4333 57.8557 56.4333 57.566 56.5296C57.3729 56.6259 57.2764 56.6259 57.1798 56.6259C57.0833 56.6259 56.8902 56.6259 56.7936 56.5296C56.6005 56.4333 56.3108 56.337 56.1177 56.2407C55.7315 55.9519 55.4419 55.4704 55.4419 54.8927C55.4419 53.9299 56.2143 53.1596 57.1798 53.1596C58.1453 53.1596 58.9178 53.9299 58.9178 54.8927C58.9178 55.4704 58.6281 55.9519 58.2419 56.2407Z" fill="#787878"/>
<path d="M58.0489 54.8927C58.0489 55.3741 57.6627 55.7593 57.1799 55.7593C56.6971 55.7593 56.3109 55.3741 56.3109 54.8927C56.3109 54.4113 56.6971 54.0261 57.1799 54.0261C57.6627 54.0261 58.0489 54.4113 58.0489 54.8927Z" fill="#787878"/>
<path d="M45.8832 52.3893C44.5314 52.3893 43.3728 53.5447 43.3728 54.8927C43.3728 55.3742 43.5659 55.8556 43.8556 56.2407C43.9521 56.337 44.0487 56.4333 44.0487 56.5296C44.1452 56.6259 44.2418 56.7222 44.3383 56.8184C44.8211 57.1073 45.3039 57.2999 45.8832 57.2999C46.4625 57.2999 46.9453 57.1073 47.428 56.8184C47.5246 56.7222 47.6211 56.6259 47.7177 56.5296C47.8142 56.4333 47.9108 56.337 48.0073 56.2407C48.297 55.8556 48.3935 55.3742 48.3935 54.8927C48.3935 53.5447 47.3315 52.3893 45.8832 52.3893ZM46.9453 56.2407C46.7522 56.4333 46.559 56.4333 46.2694 56.5296C46.1728 56.5296 45.9797 56.6259 45.8832 56.6259C45.7866 56.6259 45.5935 56.6259 45.497 56.5296C45.3039 56.4333 45.0142 56.337 44.9177 56.2407C44.4349 55.9519 44.1452 55.4704 44.1452 54.8927C44.1452 53.9299 44.9177 53.1596 45.8832 53.1596C46.8487 53.1596 47.6211 53.9299 47.6211 54.8927C47.6211 55.4704 47.428 55.9519 46.9453 56.2407Z" fill="#787878"/>
<path d="M46.8487 54.8927C46.8487 55.3741 46.4625 55.7593 45.9797 55.7593C45.4969 55.7593 45.1107 55.3741 45.1107 54.8927C45.1107 54.4113 45.4969 54.0261 45.9797 54.0261C46.3659 54.0261 46.8487 54.4113 46.8487 54.8927Z" fill="#787878"/>
<path d="M53.8005 56.9147C53.704 56.8184 53.6074 56.7221 53.4143 56.6258C53.2212 56.5295 53.0281 56.4332 52.835 56.337C52.4488 56.1444 51.966 56.0481 51.4833 56.0481C51.0005 56.0481 50.5177 56.1444 50.1315 56.337C49.9384 56.4332 49.7453 56.5295 49.5522 56.6258C49.4557 56.7221 49.3591 56.8184 49.166 56.9147C48.8763 57.2035 48.7798 57.5887 48.7798 57.9738C48.7798 59.033 49.9384 59.8033 51.4833 59.8033C53.0281 59.8033 54.1867 59.033 54.1867 57.9738C54.2833 57.4924 54.0902 57.2035 53.8005 56.9147ZM51.5798 58.9367C50.5177 58.9367 49.6488 58.4552 49.6488 57.8775C49.6488 57.3961 50.1315 57.011 50.9039 56.8184C51.0971 56.7221 51.3867 56.7221 51.6764 56.7221C51.8695 56.7221 52.1591 56.7221 52.3522 56.8184C53.1247 57.011 53.6074 57.3961 53.6074 57.8775C53.5109 58.4552 52.5453 58.9367 51.5798 58.9367Z" fill="#787878"/>
<path d="M55.7316 62.0179C55.5385 61.9216 55.3454 61.9216 55.1523 62.1142C54.4764 62.9808 53.0281 63.5585 51.4833 63.5585C49.8419 63.5585 48.3936 62.9808 47.8142 62.0179C47.7177 61.8254 47.428 61.8254 47.3315 61.9216C47.1384 62.0179 47.1384 62.3068 47.2349 62.4031C48.0074 63.5585 49.7453 64.2325 51.5798 64.2325C53.4143 64.2325 55.0557 63.5585 55.8281 62.4031C55.9247 62.4031 55.9247 62.1142 55.7316 62.0179Z" fill="#787878"/>
<path d="M51.1936 59.9958C51.1936 59.9958 44.9177 59.4181 41.6349 57.3961C41.6349 57.3961 41.0556 61.729 50.035 62.1141C51.3867 62.2104 51.1936 59.9958 51.1936 59.9958Z" fill="#787878"/>
<path d="M51.8694 59.9958C51.8694 59.9958 51.6763 62.2104 53.1246 62.1141C62.0074 61.729 61.5247 57.3961 61.5247 57.3961C58.1453 59.5144 51.8694 59.9958 51.8694 59.9958Z" fill="#787878"/>
</svg>
