<svg width="47" height="31" viewBox="0 0 47 31" fill="none" xmlns="http://www.w3.org/2000/svg">
<path d="M32.5867 0.523133L8.05854 3.75876C8.05854 3.75876 6.97167 3.8847 6.97167 5.17313C6.97167 6.46157 6.97167 28.2197 6.97167 28.2197C6.97167 28.2197 7.11854 30.9128 10.2323 30.9128C13.346 30.9128 38.0308 30.9128 38.0308 30.9128C38.0308 30.9128 40.5081 30.3219 40.5081 27.8709C40.5081 25.42 40.5081 8.8447 40.5081 8.8447C40.5081 8.8447 40.5571 6.15157 37.2867 6.15157C34.0163 6.15157 10.4771 6.15157 10.4771 6.15157C10.4771 6.15157 9.43917 5.9772 9.17479 4.8922C9.09646 4.48532 9.27271 4.43688 9.73292 4.43688C10.1931 4.43688 34.3492 4.43688 34.3492 4.43688V1.81157C34.3492 1.81157 34.261 0.406883 32.5867 0.523133Z" fill="#7A7A7A"/>
<path d="M24.2442 27.0184C22.2075 27.0184 20.7094 26.195 18.5063 24.0347C18.1146 23.6472 18.1048 23.0175 18.4965 22.63C18.8881 22.2425 19.5246 22.2328 19.9163 22.6203C22.2369 24.8969 23.3238 25.4587 25.1842 24.9647C26.2612 24.6741 27.2306 23.3081 27.2894 21.7484C27.3285 20.5375 26.4669 19.7431 24.7142 19.3944C21.571 18.7744 19.7106 17.5828 19.2015 15.8584C18.7902 14.4731 19.3288 12.9231 20.6898 11.6056L20.7485 11.5572C23.6763 9.13531 27.0837 10.9372 28.4742 12.2353C28.8756 12.6131 28.8952 13.2428 28.5133 13.64C28.1315 14.0372 27.5048 14.0566 27.0935 13.6884C26.976 13.5819 24.3421 11.2084 22.0606 13.0684C21.2773 13.8337 20.9248 14.6669 21.1206 15.3062C21.4046 16.2362 22.8146 17.0016 25.1058 17.4569C28.9931 18.2222 29.326 20.77 29.2869 21.8259C29.1987 24.1316 27.26 26.7084 25.429 26.9409C25.0079 26.9894 24.6163 27.0184 24.2442 27.0184Z" fill="white"/>
</svg>
