<svg width="49" height="32" viewBox="0 0 49 32" fill="none" xmlns="http://www.w3.org/2000/svg">
<rect width="49" height="32" fill="white"/>
<path d="M35.6 32H13.52C12.1939 32 10.9222 31.4732 9.98449 30.5355C9.0468 29.5979 8.52002 28.3261 8.52002 27V5C8.52002 3.67392 9.0468 2.40215 9.98449 1.46447C10.9222 0.526784 12.1939 0 13.52 0L35.6 0C36.9261 0 38.1979 0.526784 39.1356 1.46447C40.0732 2.40215 40.6 3.67392 40.6 5V27C40.6 28.3261 40.0732 29.5979 39.1356 30.5355C38.1979 31.4732 36.9261 32 35.6 32" fill="white"/>
<path d="M17.2 6.49001H11.69C11.6105 6.49001 11.5341 6.4584 11.4779 6.40214C11.4216 6.34588 11.39 6.26957 11.39 6.19001C11.3819 6.16887 11.3791 6.14608 11.3817 6.1236C11.3844 6.10113 11.3925 6.07963 11.4052 6.06095C11.418 6.04227 11.4351 6.02697 11.4551 6.01635C11.4751 6.00574 11.4974 6.00013 11.52 6.00001H16.46C16.4971 6.00001 16.5328 5.98526 16.559 5.959C16.5853 5.93275 16.6 5.89714 16.6 5.86001V5.36001C16.6002 5.31795 16.5916 5.27633 16.5747 5.23782C16.5578 5.19932 16.5329 5.16481 16.5018 5.13652C16.4707 5.10823 16.434 5.0868 16.3941 5.07362C16.3541 5.06044 16.3119 5.0558 16.27 5.06001L11.27 5.50001C11.0976 5.51505 10.9372 5.59434 10.8205 5.72215C10.7038 5.84995 10.6394 6.01694 10.64 6.19001V11C10.64 11.183 10.7127 11.3585 10.8421 11.4879C10.9715 11.6173 11.147 11.69 11.33 11.69H17.2C17.383 11.69 17.5585 11.6173 17.6879 11.4879C17.8173 11.3585 17.89 11.183 17.89 11V7.18001C17.89 6.99701 17.8173 6.8215 17.6879 6.6921C17.5585 6.5627 17.383 6.49001 17.2 6.49001V6.49001ZM15.5 10.1C15.4757 10.2707 15.4077 10.4322 15.3026 10.5689C15.1975 10.7056 15.0588 10.8128 14.9 10.88C14.6972 10.9627 14.4788 11.0002 14.26 10.99C13.9574 10.9812 13.6604 10.9061 13.39 10.77C13.2658 10.7016 13.1486 10.6212 13.04 10.53C13.04 10.53 13.04 10.53 13.04 10.46L13.18 10.25C13.1857 10.2436 13.1926 10.2385 13.2003 10.235C13.2081 10.2315 13.2165 10.2297 13.225 10.2297C13.2335 10.2297 13.2419 10.2315 13.2497 10.235C13.2575 10.2385 13.2644 10.2436 13.27 10.25V10.25C13.5543 10.4787 13.9054 10.6085 14.27 10.62C14.74 10.62 15.08 10.41 15.14 10.08C15.2 9.75001 14.92 9.42001 14.38 9.25001C14.1421 9.17997 13.9084 9.0965 13.68 9.00001C13.5141 8.92551 13.3747 8.80251 13.2801 8.64721C13.1855 8.49191 13.1401 8.31159 13.15 8.13001C13.1826 7.8716 13.3148 7.63611 13.5183 7.47364C13.7219 7.31116 13.9808 7.23452 14.24 7.26001C14.5047 7.26185 14.7665 7.31624 15.01 7.42001C15.1144 7.46473 15.2147 7.51825 15.31 7.58001C15.3164 7.58564 15.3215 7.59256 15.325 7.60032C15.3285 7.60808 15.3303 7.61649 15.3303 7.62501C15.3303 7.63352 15.3285 7.64193 15.325 7.64969C15.3215 7.65745 15.3164 7.66438 15.31 7.67001L15.19 7.86001C15.19 7.86001 15.19 7.86001 15.11 7.86001C14.8459 7.68548 14.5366 7.59166 14.22 7.59001C14.05 7.57545 13.8808 7.62633 13.747 7.73225C13.6132 7.83818 13.5249 7.99117 13.5 8.16001C13.5 8.45001 13.72 8.67001 14.19 8.83001C15.19 9.14001 15.54 9.51001 15.47 10.09" fill="#323130"/>
<path d="M21.1201 8.4C20.5701 8.22 20.3201 7.99 20.3201 7.67C20.3474 7.48177 20.4452 7.31095 20.5937 7.19212C20.7423 7.0733 20.9304 7.01535 21.1201 7.03C21.4756 7.02961 21.8234 7.13395 22.1201 7.33C22.1304 7.34256 22.1433 7.35268 22.158 7.35963C22.1727 7.36658 22.1888 7.37018 22.2051 7.37018C22.2213 7.37018 22.2374 7.36658 22.2521 7.35963C22.2668 7.35268 22.2797 7.34256 22.2901 7.33L22.3701 7.21L22.4501 7.09C22.4501 7.02 22.4501 6.98 22.4501 6.92C22.3079 6.83155 22.1571 6.75783 22.0001 6.7C21.7018 6.57802 21.3822 6.51683 21.0601 6.52C20.7406 6.50207 20.4261 6.60541 20.1795 6.80936C19.9329 7.0133 19.7724 7.30282 19.7301 7.62C19.722 7.84617 19.7827 8.06947 19.9041 8.26048C20.0255 8.45148 20.2019 8.60124 20.4101 8.69C20.6832 8.81375 20.9638 8.92062 21.2501 9.01C21.8801 9.19 22.2501 9.53 22.1401 9.92C22.0301 10.31 21.7001 10.51 21.1401 10.53C20.7348 10.5133 20.3442 10.3738 20.0201 10.13C19.9501 10.08 19.8901 10.08 19.8401 10.13L19.7601 10.26L19.6801 10.38C19.6801 10.44 19.6801 10.48 19.6801 10.53C19.8139 10.6371 19.9579 10.7309 20.1101 10.81C20.4408 10.9699 20.8027 11.0553 21.1701 11.06C21.4554 11.0714 21.7394 11.0167 22.0001 10.9C22.2018 10.8163 22.3766 10.6788 22.5053 10.5024C22.6341 10.326 22.7118 10.1176 22.7301 9.9C22.8101 9.18 22.3401 8.74 21.1401 8.38" fill="#323130"/>
<path d="M24.47 8.22C24.1823 8.21855 23.9019 8.30971 23.67 8.48V6.63C23.67 6.56 23.67 6.53 23.57 6.53H23.23C23.15 6.53 23.13 6.53 23.13 6.63V10.94C23.13 11.01 23.13 11.04 23.23 11.04H23.57C23.64 11.04 23.67 11.04 23.67 10.94V9.53C23.692 9.33452 23.7852 9.15398 23.9318 9.02288C24.0785 8.89178 24.2683 8.8193 24.465 8.8193C24.6617 8.8193 24.8515 8.89178 24.9982 9.02288C25.1448 9.15398 25.238 9.33452 25.26 9.53V10.93C25.26 11.01 25.26 11.03 25.36 11.03H25.69C25.77 11.03 25.79 11.03 25.79 10.93V9.53C25.7848 9.18074 25.6423 8.84756 25.3935 8.60245C25.1446 8.35733 24.8093 8.21996 24.46 8.22" fill="#323130"/>
<path d="M27.67 8.22001C27.3925 8.22591 27.1229 8.3136 26.895 8.47208C26.6671 8.63056 26.4911 8.85278 26.389 9.11089C26.2868 9.36899 26.2631 9.65151 26.3209 9.92301C26.3786 10.1945 26.5152 10.4429 26.7136 10.6371C26.9119 10.8313 27.1631 10.9627 27.4358 11.0147C27.7085 11.0667 27.9904 11.0371 28.2463 10.9296C28.5022 10.822 28.7207 10.6413 28.8743 10.4102C29.028 10.179 29.11 9.90759 29.11 9.63001C29.1048 9.25249 28.9504 8.89237 28.6806 8.62822C28.4109 8.36407 28.0476 8.21733 27.67 8.22001V8.22001ZM27.67 10.53C27.4949 10.5261 27.3249 10.4705 27.1811 10.3704C27.0374 10.2702 26.9265 10.1299 26.8622 9.96696C26.7979 9.80403 26.7831 9.62574 26.8196 9.45444C26.8562 9.28313 26.9425 9.12643 27.0677 9.00395C27.193 8.88148 27.3516 8.79868 27.5236 8.76593C27.6957 8.73318 27.8736 8.75193 28.0351 8.81984C28.1966 8.88775 28.3344 9.0018 28.4313 9.14769C28.5283 9.29359 28.58 9.46484 28.58 9.64001C28.5787 9.7582 28.5542 9.87498 28.5077 9.98367C28.4613 10.0924 28.3939 10.1908 28.3094 10.2735C28.2249 10.3561 28.1249 10.4213 28.0152 10.4653C27.9055 10.5094 27.7882 10.5313 27.67 10.53Z" fill="#323130"/>
<path d="M38.57 9.81999C38.6133 9.81744 38.654 9.79841 38.6838 9.7668C38.7135 9.73519 38.7301 9.6934 38.73 9.64999V9.64999C38.7462 9.46092 38.7229 9.27054 38.6617 9.09093C38.6005 8.91131 38.5026 8.74638 38.3742 8.60659C38.2459 8.46679 38.0899 8.35518 37.9162 8.27883C37.7425 8.20248 37.5548 8.16306 37.365 8.16306C37.1752 8.16306 36.9875 8.20248 36.8138 8.27883C36.6401 8.35518 36.4841 8.46679 36.3558 8.60659C36.2274 8.74638 36.1295 8.91131 36.0683 9.09093C36.0071 9.27054 35.9838 9.46092 36 9.64999C35.9968 9.70662 35.9968 9.76337 36 9.81999V9.81999C36.0372 10.0999 36.1593 10.3617 36.35 10.57V10.57C36.5635 10.8045 36.848 10.9626 37.16 11.02H37.22C37.5922 11.073 37.9717 11.0138 38.31 10.85L38.52 10.72H38.57C38.65 10.64 38.65 10.61 38.57 10.54L38.4 10.29C38.4 10.24 38.32 10.23 38.27 10.29C38.1215 10.4159 37.9454 10.505 37.756 10.5501C37.5667 10.5953 37.3693 10.5953 37.18 10.55L37 10.43C36.8798 10.3728 36.7742 10.2891 36.6911 10.1852C36.6079 10.0812 36.5494 9.95979 36.52 9.83H38.52L38.57 9.81999ZM36.52 9.31C36.572 9.14215 36.6772 8.99578 36.8197 8.89296C36.9622 8.79014 37.1343 8.73645 37.31 8.74C37.4866 8.74273 37.6583 8.79856 37.8028 8.90022C37.9473 9.00188 38.0578 9.14466 38.12 9.31H36.52Z" fill="#323130"/>
<path d="M31 8.21C30.6719 8.2087 30.3536 8.32187 30.1 8.53V8.31C30.1 8.23 30.1 8.21 30 8.21H29.68C29.6 8.21 29.58 8.21 29.58 8.31V12.38C29.58 12.45 29.58 12.48 29.68 12.48H30C30.08 12.48 30.1 12.48 30.1 12.38V10.72C30.2754 10.8665 30.4836 10.9684 30.7069 11.0172C30.9302 11.066 31.162 11.0602 31.3825 11.0002C31.6031 10.9403 31.8059 10.828 31.9738 10.6729C32.1416 10.5177 32.2695 10.3244 32.3467 10.1092C32.4238 9.8941 32.4479 9.66351 32.4169 9.43707C32.3858 9.21063 32.3006 8.99504 32.1684 8.80859C32.0362 8.62215 31.8609 8.47038 31.6575 8.36616C31.4541 8.26195 31.2285 8.20838 31 8.21V8.21ZM31 10.52C30.7664 10.5201 30.5419 10.4294 30.3739 10.2671C30.206 10.1047 30.1077 9.88345 30.1 9.65V9.65C30.1039 9.4729 30.16 9.3009 30.2613 9.15555C30.3625 9.0102 30.5044 8.89796 30.6692 8.8329C30.8339 8.76784 31.0142 8.75284 31.1875 8.7898C31.3607 8.82675 31.5192 8.914 31.6431 9.04063C31.767 9.16726 31.8507 9.32763 31.8838 9.50164C31.917 9.67566 31.898 9.85558 31.8294 10.0189C31.7607 10.1822 31.6454 10.3216 31.4978 10.4196C31.3503 10.5176 31.1771 10.57 31 10.57" fill="#323130"/>
<path d="M35.57 9.63001C35.5862 9.44093 35.5629 9.25055 35.5017 9.07094C35.4404 8.89132 35.3425 8.72639 35.2142 8.5866C35.0859 8.4468 34.9299 8.33519 34.7562 8.25884C34.5824 8.18249 34.3947 8.14307 34.205 8.14307C34.0152 8.14307 33.8275 8.18249 33.6538 8.25884C33.48 8.33519 33.3241 8.4468 33.1957 8.5866C33.0674 8.72639 32.9695 8.89132 32.9083 9.07094C32.847 9.25055 32.8238 9.44093 32.84 9.63001C32.8367 9.68663 32.8367 9.74339 32.84 9.80001C32.8771 10.0799 32.9993 10.3417 33.19 10.55V10.55C33.4035 10.7846 33.688 10.9426 34 11H34.06C34.4321 11.053 34.8116 10.9938 35.15 10.83L35.36 10.7H35.41C35.49 10.62 35.49 10.59 35.41 10.52L35.24 10.27C35.24 10.22 35.16 10.21 35.11 10.27C34.9614 10.3959 34.7854 10.485 34.596 10.5302C34.4066 10.5753 34.2093 10.5753 34.02 10.53L33.81 10.45C33.6898 10.3928 33.5842 10.3091 33.501 10.2052C33.4179 10.1012 33.3594 9.9798 33.33 9.85001H35.33C35.3733 9.84745 35.414 9.82842 35.4438 9.79681C35.4735 9.7652 35.49 9.72341 35.49 9.68001L35.57 9.63001ZM33.33 9.35001C33.382 9.18216 33.4872 9.03579 33.6297 8.93297C33.7722 8.83015 33.9443 8.77647 34.12 8.78001C34.2966 8.78274 34.4683 8.83857 34.6128 8.94023C34.7572 9.04189 34.8678 9.18468 34.93 9.35001H33.33Z" fill="#323130"/>
<path fill-rule="evenodd" clip-rule="evenodd" d="M15.21 20.23C15.5188 20.2506 15.8284 20.2075 16.1199 20.1035C16.4113 19.9995 16.6783 19.8367 16.9043 19.6253C17.1302 19.4139 17.3104 19.1584 17.4335 18.8745C17.5567 18.5906 17.6202 18.2845 17.6202 17.975C17.6202 17.6656 17.5567 17.3594 17.4335 17.0755C17.3104 16.7917 17.1302 16.5361 16.9043 16.3247C16.6783 16.1133 16.4113 15.9505 16.1199 15.8465C15.8284 15.7425 15.5188 15.6994 15.21 15.72H12.46V20.23H15.21ZM12.46 22V25.11C12.46 25.2214 12.4157 25.3282 12.337 25.407C12.2582 25.4858 12.1514 25.53 12.04 25.53H11.04C10.9286 25.53 10.8218 25.4858 10.743 25.407C10.6642 25.3282 10.62 25.2214 10.62 25.11V14.37C10.6272 14.2726 10.6698 14.1811 10.7399 14.113C10.8099 14.0448 10.9024 14.0046 11 14H15.2C16.2899 13.9782 17.3448 14.3852 18.1377 15.1332C18.9307 15.8813 19.3983 16.9107 19.44 18C19.3983 19.0893 18.9307 20.1187 18.1377 20.8668C17.3448 21.6148 16.2899 22.0218 15.2 22H12.46Z" fill="#323130"/>
<path fill-rule="evenodd" clip-rule="evenodd" d="M26.19 21.3C26.19 20.6608 25.9361 20.0478 25.4841 19.5959C25.0321 19.1439 24.4191 18.89 23.78 18.89C23.1408 18.89 22.5278 19.1439 22.0758 19.5959C21.6239 20.0478 21.37 20.6608 21.37 21.3C21.37 21.9392 21.6239 22.5522 22.0758 23.0041C22.5278 23.4561 23.1408 23.71 23.78 23.71C24.4191 23.71 25.0321 23.4561 25.4841 23.0041C25.9361 22.5522 26.19 21.9392 26.19 21.3V21.3ZM26.52 18.21V17.64C26.52 17.5313 26.5632 17.427 26.6401 17.3501C26.717 17.2732 26.8212 17.23 26.93 17.23H28.17V25.42H26.93C26.8212 25.42 26.717 25.3768 26.6401 25.2999C26.5632 25.223 26.52 25.1187 26.52 25.01V24.44C25.7558 25.0839 24.7892 25.438 23.79 25.44C22.69 25.4427 21.6332 25.0118 20.8488 24.2405C20.0645 23.4693 19.6158 22.4199 19.6 21.32C19.6184 20.2264 20.0699 19.1847 20.8554 18.4236C21.6409 17.6624 22.6963 17.244 23.79 17.26C24.7892 17.262 25.7558 17.6161 26.52 18.26" fill="#323130"/>
<path fill-rule="evenodd" clip-rule="evenodd" d="M36.57 17.23H38.48C38.5151 17.2324 38.549 17.2436 38.5787 17.2626C38.6084 17.2815 38.6328 17.3077 38.6497 17.3385C38.6666 17.3694 38.6755 17.404 38.6756 17.4392C38.6756 17.4744 38.6668 17.5091 38.65 17.54L32.49 29H30.6C30.32 29 30.48 28.73 30.48 28.73L32.7 24.62L29 17.54C28.9831 17.5091 28.9743 17.4744 28.9744 17.4392C28.9744 17.404 28.9833 17.3694 29.0002 17.3385C29.0172 17.3077 29.0416 17.2815 29.0712 17.2626C29.1009 17.2436 29.1348 17.2324 29.17 17.23H31.1L33.86 22.33L36.57 17.23Z" fill="#323130"/>
</svg>
