<svg width="140" height="169" viewBox="0 0 140 169" fill="none" xmlns="http://www.w3.org/2000/svg">
<circle cx="70" cy="70" r="70" fill="#F3F3F3"/>
<circle cx="70" cy="148" r="19" fill="#E96E34" stroke="white" stroke-width="4"/>
<path d="M71.978 146.862C72.5567 147.03 73 147.324 73.308 147.744C73.6253 148.164 73.784 148.677 73.784 149.284C73.784 149.863 73.6253 150.367 73.308 150.796C73 151.216 72.552 151.543 71.964 151.776C71.376 152 70.69 152.112 69.906 152.112C69.206 152.112 68.5247 152.019 67.862 151.832C67.2087 151.636 66.686 151.375 66.294 151.048L67.12 149.186C67.988 149.783 68.8747 150.082 69.78 150.082C70.34 150.082 70.7367 150.003 70.97 149.844C71.2033 149.676 71.32 149.396 71.32 149.004C71.32 148.631 71.2033 148.365 70.97 148.206C70.746 148.047 70.368 147.968 69.836 147.968H68.282V145.952H69.57C70.0927 145.952 70.466 145.882 70.69 145.742C70.9233 145.593 71.04 145.355 71.04 145.028C71.04 144.673 70.928 144.403 70.704 144.216C70.4893 144.029 70.186 143.936 69.794 143.936C69.3927 143.936 68.968 144.015 68.52 144.174C68.0813 144.323 67.6613 144.543 67.26 144.832L66.434 142.97C66.8353 142.653 67.358 142.396 68.002 142.2C68.6553 142.004 69.3133 141.906 69.976 141.906C70.6853 141.906 71.306 142.018 71.838 142.242C72.37 142.466 72.7807 142.788 73.07 143.208C73.3687 143.619 73.518 144.099 73.518 144.65C73.5273 145.173 73.3967 145.625 73.126 146.008C72.8553 146.391 72.4727 146.675 71.978 146.862Z" fill="white"/>
<path d="M55 47H86V80H76.5H71H63H55V47Z" fill="white"/>
<rect x="76" y="72" width="9" height="18" rx="4.5" fill="white"/>
<path d="M62 55H78" stroke="#605E5C" stroke-width="2" stroke-miterlimit="10" stroke-linecap="round" stroke-linejoin="round"/>
<path d="M62 63H78" stroke="#605E5C" stroke-width="2" stroke-miterlimit="10" stroke-linecap="round" stroke-linejoin="round"/>
<path d="M62 71H78" stroke="#605E5C" stroke-width="2" stroke-miterlimit="10" stroke-linecap="round" stroke-linejoin="round"/>
<path d="M42 84V90H66V84.833C66 82.072 68.239 80 71 80H46C43.791 80 42 81.791 42 84Z" stroke="#605E5C" stroke-width="2" stroke-miterlimit="10" stroke-linecap="round" stroke-linejoin="round"/>
<path d="M71 80C73.587 80 76 81.847 76 85C76 87.761 78.239 90 81 90C83.761 90 86 87.761 86 85V46H54V80" stroke="#605E5C" stroke-width="2" stroke-miterlimit="10" stroke-linecap="round" stroke-linejoin="round"/>
<g clip-path="url(#clip0)">
<ellipse cx="88.5" cy="46.5" rx="9.5" ry="8.5" fill="white"/>
<path d="M88 35C85.6266 35 83.3066 35.7038 81.3332 37.0224C79.3598 38.3409 77.8217 40.2151 76.9135 42.4078C76.0052 44.6005 75.7676 47.0133 76.2306 49.3411C76.6936 51.6689 77.8365 53.8071 79.5147 55.4853C81.193 57.1635 83.3312 58.3064 85.6589 58.7694C87.9867 59.2324 90.3995 58.9948 92.5922 58.0866C94.7849 57.1783 96.6591 55.6402 97.9776 53.6668C99.2962 51.6935 100 49.3734 100 47C99.9908 43.8202 98.7235 40.7734 96.4751 38.5249C94.2266 36.2765 91.1798 35.0092 88 35V35ZM86 52.414L80.586 47L82 45.586L86 49.586L94 41.586L95.414 43L86 52.414Z" fill="#E96E34"/>
</g>
<defs>
<clipPath id="clip0">
<rect width="24" height="24" fill="white" transform="translate(76 35)"/>
</clipPath>
</defs>
</svg>
