<svg width="140" height="169" viewBox="0 0 140 169" fill="none" xmlns="http://www.w3.org/2000/svg">
<circle cx="70" cy="70" r="70" fill="#F3F3F3"/>
<circle cx="70" cy="148" r="19" fill="#E96E34" stroke="white" stroke-width="4"/>
<path d="M73.204 149.914V152H66.288V149.914H68.43V144.888L66.428 146.036V143.782L69.508 142.032H71.048V149.914H73.204Z" fill="white"/>
<path d="M56.3541 83H83.6459C84.0548 83 84.4225 83.249 84.5744 83.6286L92.9744 104.629C93.2372 105.285 92.7534 106 92.0459 106H47.9541C47.2466 106 46.7628 105.285 47.0256 104.629L55.4256 83.6286C55.5775 83.249 55.9452 83 56.3541 83Z" stroke="#605E5C" stroke-width="2"/>
<rect x="34" y="40" width="72" height="18" rx="9" fill="white"/>
<line x1="47.5" y1="46" x2="47.5" y2="53" stroke="black"/>
<path d="M56 102L82 97L72.5 92.5L84.5 86.5" stroke="#E0E0E0" stroke-width="2"/>
<path d="M81 75.5C81 81.8513 69.5 92 69.5 92C69.5 92 58 81.8513 58 75.5C58 69.1487 63.1487 64 69.5 64C75.8513 64 81 69.1487 81 75.5Z" fill="#E96E34"/>
<path d="M53.8086 52V49.3086H52.8242V48.9102H53.8086V46.3125H55.1836C55.5482 46.3177 55.8737 46.3893 56.1602 46.5273C56.4466 46.6654 56.6888 46.8503 56.8867 47.082C57.0846 47.3138 57.2357 47.5846 57.3398 47.8945C57.444 48.2018 57.4987 48.5299 57.5039 48.8789V49.4375C57.4987 49.7865 57.444 50.1159 57.3398 50.4258C57.2357 50.7331 57.0846 51.0026 56.8867 51.2344C56.6888 51.4661 56.4466 51.651 56.1602 51.7891C55.8737 51.9245 55.5482 51.9948 55.1836 52H53.8086ZM55.2148 49.3086H54.2773V51.6055H55.1836C55.4883 51.6003 55.7552 51.5378 55.9844 51.418C56.2161 51.2982 56.4089 51.1393 56.5625 50.9414C56.7161 50.7409 56.832 50.5117 56.9102 50.2539C56.9909 49.9935 57.0326 49.7214 57.0352 49.4375V48.8672C57.0326 48.5859 56.9909 48.3164 56.9102 48.0586C56.832 47.8008 56.7161 47.5729 56.5625 47.375C56.4089 47.1771 56.2161 47.0182 55.9844 46.8984C55.7552 46.7786 55.4883 46.7161 55.1836 46.7109H54.2773V48.9102H55.2148V49.3086ZM58.7852 47.7734H60.7461V51.5859H62.1836V52H58.7852V51.5859H60.2773V48.1914H58.7852V47.7734ZM60.1406 46.6172C60.1406 46.5208 60.168 46.4375 60.2227 46.3672C60.2773 46.2969 60.3685 46.2617 60.4961 46.2617C60.6211 46.2617 60.7109 46.2969 60.7656 46.3672C60.8229 46.4375 60.8516 46.5208 60.8516 46.6172C60.8516 46.7083 60.8229 46.7891 60.7656 46.8594C60.7109 46.9271 60.6211 46.9609 60.4961 46.9609C60.3685 46.9609 60.2773 46.9271 60.2227 46.8594C60.168 46.7891 60.1406 46.7083 60.1406 46.6172ZM60.3398 52.8438C60.3372 52.7526 60.3659 52.6758 60.4258 52.6133C60.4883 52.5508 60.5703 52.5195 60.6719 52.5195C60.7734 52.5195 60.8555 52.5508 60.918 52.6133C60.9805 52.6758 61.0117 52.7526 61.0117 52.8438C61.0117 52.9323 60.9805 53.0078 60.918 53.0703C60.8555 53.1328 60.7734 53.1641 60.6719 53.1641C60.5703 53.1641 60.4896 53.1328 60.4297 53.0703C60.3698 53.0078 60.3398 52.9323 60.3398 52.8438ZM66.3867 52C66.3581 51.9141 66.3359 51.819 66.3203 51.7148C66.3047 51.6081 66.2943 51.5 66.2891 51.3906C66.2083 51.4896 66.1146 51.5807 66.0078 51.6641C65.901 51.7474 65.7839 51.8203 65.6562 51.8828C65.5312 51.9427 65.3958 51.9896 65.25 52.0234C65.1042 52.0599 64.9518 52.0781 64.793 52.0781C64.5951 52.0781 64.4102 52.0495 64.2383 51.9922C64.069 51.9349 63.9206 51.8542 63.793 51.75C63.668 51.6458 63.569 51.5208 63.4961 51.375C63.4258 51.2266 63.3906 51.0612 63.3906 50.8789C63.3906 50.6367 63.444 50.431 63.5508 50.2617C63.6576 50.0924 63.8021 49.9557 63.9844 49.8516C64.1667 49.7448 64.3776 49.6667 64.6172 49.6172C64.8568 49.5677 65.1081 49.543 65.3711 49.543H66.2852V49.0625C66.2826 48.9036 66.2513 48.7643 66.1914 48.6445C66.1315 48.5221 66.0495 48.4206 65.9453 48.3398C65.8438 48.2565 65.7214 48.194 65.5781 48.1523C65.4375 48.1107 65.2839 48.0898 65.1172 48.0898C64.9661 48.0898 64.8216 48.1094 64.6836 48.1484C64.5482 48.1875 64.4271 48.2435 64.3203 48.3164C64.2161 48.3893 64.1315 48.4792 64.0664 48.5859C64.0013 48.6901 63.9661 48.8086 63.9609 48.9414L63.4922 48.9375C63.5 48.7578 63.5469 48.5924 63.6328 48.4414C63.7214 48.2904 63.8398 48.1602 63.9883 48.0508C64.1367 47.9388 64.3086 47.8516 64.5039 47.7891C64.7018 47.7266 64.9128 47.6953 65.1367 47.6953C65.3607 47.6953 65.5703 47.724 65.7656 47.7812C65.9635 47.8385 66.1341 47.9245 66.2773 48.0391C66.4232 48.1536 66.5378 48.2969 66.6211 48.4688C66.707 48.6406 66.7513 48.8411 66.7539 49.0703V51.1172C66.7539 51.2578 66.7656 51.3997 66.7891 51.543C66.8151 51.6862 66.8464 51.8229 66.8828 51.9531L66.8867 52H66.3867ZM64.8438 51.6641C65.0078 51.6667 65.1641 51.6471 65.3125 51.6055C65.4635 51.5638 65.6016 51.5065 65.7266 51.4336C65.8516 51.3581 65.9622 51.2695 66.0586 51.168C66.1549 51.0638 66.2305 50.9505 66.2852 50.8281V49.9023H65.4336C65.2279 49.9023 65.0299 49.918 64.8398 49.9492C64.6497 49.9805 64.4818 50.0326 64.3359 50.1055C64.1901 50.1758 64.0729 50.2708 63.9844 50.3906C63.8984 50.5104 63.8555 50.6602 63.8555 50.8398C63.8555 50.9674 63.8815 51.082 63.9336 51.1836C63.9857 51.2852 64.056 51.3724 64.1445 51.4453C64.2331 51.5156 64.3372 51.5703 64.457 51.6094C64.5768 51.6458 64.7057 51.6641 64.8438 51.6641ZM74.8047 51.6836C74.9609 51.6836 75.1094 51.6615 75.25 51.6172C75.3932 51.5703 75.5195 51.5039 75.6289 51.418C75.7383 51.332 75.8268 51.2292 75.8945 51.1094C75.9648 50.987 76.0052 50.849 76.0156 50.6953H76.4648C76.4544 50.8958 76.4023 51.0807 76.3086 51.25C76.2148 51.4193 76.0924 51.5651 75.9414 51.6875C75.7904 51.8099 75.6172 51.9062 75.4219 51.9766C75.2266 52.0443 75.0208 52.0781 74.8047 52.0781C74.4948 52.0781 74.2253 52.0195 73.9961 51.9023C73.7669 51.7852 73.5755 51.6289 73.4219 51.4336C73.2708 51.2383 73.1562 51.0143 73.0781 50.7617C73.0026 50.5065 72.9648 50.2422 72.9648 49.9688V49.8047C72.9648 49.5312 73.0026 49.2682 73.0781 49.0156C73.1562 48.7604 73.2708 48.5352 73.4219 48.3398C73.5755 48.1445 73.7669 47.9883 73.9961 47.8711C74.2253 47.7539 74.4935 47.6953 74.8008 47.6953C75.0352 47.6953 75.2513 47.7331 75.4492 47.8086C75.6497 47.8815 75.8229 47.9857 75.9688 48.1211C76.1172 48.2539 76.2344 48.4128 76.3203 48.5977C76.4062 48.7799 76.4544 48.9805 76.4648 49.1992H76.0156C76.0078 49.0404 75.9714 48.8932 75.9062 48.7578C75.8411 48.6224 75.7552 48.5052 75.6484 48.4062C75.5417 48.3073 75.4154 48.2305 75.2695 48.1758C75.1263 48.1211 74.9701 48.0938 74.8008 48.0938C74.556 48.0938 74.3464 48.1432 74.1719 48.2422C74 48.3411 73.8594 48.4714 73.75 48.6328C73.6406 48.7943 73.5599 48.9779 73.5078 49.1836C73.4583 49.3867 73.4336 49.5938 73.4336 49.8047V49.9688C73.4336 50.1823 73.4583 50.3919 73.5078 50.5977C73.5599 50.8034 73.6406 50.987 73.75 51.1484C73.8594 51.3073 74 51.4362 74.1719 51.5352C74.3464 51.6341 74.5573 51.6836 74.8047 51.6836ZM78.3633 48.5898C78.5117 48.319 78.7096 48.1029 78.957 47.9414C79.2044 47.7799 79.487 47.6979 79.8047 47.6953C80.0365 47.6953 80.2409 47.7318 80.418 47.8047C80.5977 47.875 80.7474 47.9792 80.8672 48.1172C80.9896 48.2526 81.082 48.4206 81.1445 48.6211C81.2096 48.819 81.2422 49.0456 81.2422 49.3008V52H80.7734V49.3008C80.7734 49.1133 80.7513 48.9453 80.707 48.7969C80.6628 48.6484 80.5951 48.5234 80.5039 48.4219C80.4154 48.3177 80.3034 48.2383 80.168 48.1836C80.0326 48.1289 79.8737 48.1016 79.6914 48.1016C79.543 48.1016 79.401 48.125 79.2656 48.1719C79.1302 48.2188 79.0052 48.2839 78.8906 48.3672C78.776 48.4505 78.6732 48.5495 78.582 48.6641C78.4935 48.776 78.4206 48.8997 78.3633 49.0352V52H77.8945V46H78.3633V48.5898ZM82.8086 47.7734H84.7695V51.5859H86.207V52H82.8086V51.5859H84.3008V48.1914H82.8086V47.7734ZM84.3633 47.0273L84.3594 46.5391C84.4401 46.5312 84.5195 46.5221 84.5977 46.5117C84.6758 46.4987 84.7448 46.4805 84.8047 46.457C84.8672 46.431 84.9167 46.3958 84.9531 46.3516C84.9922 46.3047 85.0117 46.2448 85.0117 46.1719C85.0117 46.0938 84.9844 46.0312 84.9297 45.9844C84.8776 45.9349 84.8125 45.8971 84.7344 45.8711C84.6562 45.8424 84.5716 45.8242 84.4805 45.8164C84.3893 45.806 84.3047 45.8008 84.2266 45.8008L84.2539 45.5C84.3945 45.5026 84.5339 45.5169 84.6719 45.543C84.8099 45.5664 84.9323 45.6055 85.0391 45.6602C85.1484 45.7122 85.2357 45.7812 85.3008 45.8672C85.3685 45.9505 85.4023 46.0534 85.4023 46.1758C85.4023 46.2799 85.3815 46.3685 85.3398 46.4414C85.3008 46.5143 85.2487 46.5755 85.1836 46.625C85.1185 46.6719 85.0443 46.7083 84.9609 46.7344C84.8802 46.7578 84.7982 46.7747 84.7148 46.7852V47.0273H84.3633Z" fill="black"/>
</svg>
