<svg width="109" height="109" viewBox="0 0 109 109" fill="none" xmlns="http://www.w3.org/2000/svg">
<rect width="109" height="109" rx="19" fill="#FFFCFC"/>
<path d="M84.1189 48.7297C83.9378 48.4561 83.7568 48.1824 83.6662 48.0912C83.0324 47.3615 82.2176 46.6318 81.2216 45.902L81.1311 45.8108C80.95 45.6284 80.7689 45.5372 80.6784 45.4459L80.5878 45.3547C79.4108 44.4426 78.1432 43.4392 76.423 42.7095C76.3324 42.7095 76.3324 42.6182 76.2419 42.6182C73.9784 41.4324 70.0851 40.6115 68.2743 40.2466C68.1838 39.7905 68.0932 39.3345 68.0027 38.9696C67.7311 38.0574 67.4595 37.1453 67.0973 36.3243C67.3689 35.777 67.4595 35.3209 67.55 34.7736C67.7311 33.6791 67.6405 32.6757 67.3689 31.9459C66.8257 30.6689 65.6486 29.7568 64.3811 29.7568C64.2 29.7568 64.1095 29.7568 63.9284 29.7568C63.6568 29.3919 63.3851 28.9358 62.9324 28.5709C61.5743 27.0203 59.9446 26.1993 58.4959 25.7432C58.677 25.5608 58.7676 25.2872 58.9486 25.0135L59.0392 24.9223C59.3108 24.1926 59.3108 23.4628 58.9486 22.8243C58.2243 21.5473 56.2324 21 52.8824 21C52.6108 21 52.4297 21 52.1581 21C49.2608 21.0912 47.5405 21.5473 46.6351 22.4595C46.1824 23.0068 45.9108 23.6453 46.0014 24.375C46.0014 24.9223 46.273 25.5608 46.5446 26.2905C44.7338 27.2027 43.3757 28.3885 42.5608 29.9392C41.927 30.0304 41.2932 30.3953 40.8405 30.9426C40.2068 31.6723 39.573 32.9493 39.9351 35.1385C40.0257 35.5946 40.2068 36.0507 40.3878 36.4155C39.7541 37.5101 39.4824 38.6959 39.2108 39.7905L38.0338 39.8818H37.9432L33.5973 40.4291H33.5068H33.4162C33.3257 40.4291 33.2351 40.4291 33.1446 40.5203L32.3297 40.7027C32.2392 40.7027 32.2392 40.7027 32.1486 40.7939L31.5149 40.9764C31.4243 40.9764 31.4243 40.9764 31.3338 41.0676L30.7 41.3412C30.7 41.3412 30.7 41.3412 30.6095 41.3412C30.5189 41.3412 30.5189 41.3412 30.4284 41.4324L29.8851 41.7061L29.4324 41.9797C29.4324 41.9797 29.3419 41.9797 29.3419 42.0709L28.8892 42.3446C28.8892 42.3446 28.8892 42.3446 28.7986 42.3446L28.7081 42.4358L28.2554 42.7095C28.1649 42.7095 28.1649 42.8007 28.1649 42.8007L27.8027 43.1655C27.7122 43.1655 27.7122 43.2568 27.6216 43.348L27.2595 43.7128L27.1689 43.8041L26.8068 44.2601L26.7162 44.3514L26.3541 44.7162L26.2635 44.8074L25.9919 45.1723L25.9014 45.2635L25.6297 45.6284C25.6297 45.6284 25.5392 45.7196 25.5392 45.8108L25.3581 46.1757C25.3581 46.2669 25.2676 46.2669 25.2676 46.3581L25.0865 46.723L24.9054 47.1791C24.9054 47.2703 24.9054 47.2703 24.8149 47.3615L24.6338 47.8176C24.6338 47.8176 24.6338 47.8176 24.6338 47.9088L24.3622 48.7297C24.3622 48.7297 24.3622 48.8209 24.3622 48.9122L24.1811 49.6419V49.7331L24 50.6453C24 50.7365 24 50.7365 24 50.7365V51.0101V51.1014V51.8311C24 51.9223 24 51.9223 24 52.0135V52.0135V52.2872V52.4696V52.5608V52.7432C24 52.8345 24 52.9257 24 52.9257V53.1081C24 53.1993 24 53.1993 24 53.2905L24.2716 53.8378V53.9291L24.5432 54.8412C24.5432 54.9324 24.5432 54.9324 24.6338 55.0236L24.7243 55.2061C24.7243 55.2973 24.8149 55.2973 24.8149 55.3885L24.9054 55.4797C24.9054 55.5709 24.9054 55.6622 24.9959 55.7534L25.177 56.1182C25.177 56.2095 25.2676 56.2095 25.2676 56.3007L25.5392 56.6655C25.5392 56.6655 25.5392 56.7568 25.6297 56.7568C25.6297 56.7568 25.7203 56.848 25.7203 56.9392L25.9919 57.2128C26.0824 57.3041 26.0824 57.3041 26.173 57.3953L26.4446 57.6689C26.5351 57.7601 26.6257 57.8514 26.7162 57.8514L26.9878 58.0338C27.0784 58.125 27.1689 58.125 27.2595 58.2162L27.5311 58.3987H27.6216C27.7122 58.3987 27.7122 58.4899 27.8027 58.4899L28.0743 58.5811C28.1649 58.5811 28.2554 58.6723 28.3459 58.6723L28.6176 58.7635C28.6176 58.7635 28.7081 58.7635 28.7986 58.7635C28.7986 58.8547 28.7986 58.9459 28.7986 58.9459C28.2554 59.3108 27.7122 59.8581 27.35 60.4054C26.2635 62.0473 26.2635 64.0541 27.2595 65.6959C27.6216 66.3345 28.1649 66.7905 28.7986 67.2466V81.6588C28.7986 83.1182 28.7986 85.2162 30.3378 86.7669C31.5149 87.9527 33.3257 88.5 35.7703 88.5H72.077C75.0649 88.5 77.0568 87.5878 78.1432 85.8547C79.0486 84.3953 79.0486 82.6622 79.0486 81.4764V67.3378C79.8635 66.7905 80.5878 66.152 81.0405 65.3311C82.0365 63.598 81.7649 61.5 80.2257 59.7669C79.9541 59.4932 79.5919 59.1284 79.2297 58.9459C80.0446 58.6723 80.7689 58.3074 81.4027 57.8514C81.4932 57.7601 81.6743 57.6689 81.7649 57.6689H81.8554H81.9459C82.127 57.5777 82.3081 57.4865 82.3986 57.4865C82.9419 57.3041 83.3946 56.9392 83.7568 56.4831C86.0203 53.6554 84.9338 50.098 84.1189 48.7297C84.1189 48.8209 84.1189 48.7297 84.1189 48.7297ZM79.8635 60.7703C81.5838 62.8682 80.7689 64.7838 79.1392 65.7872C78.777 66.0608 78.3243 66.2432 77.8716 66.3345V66.6081V81.4764C77.8716 83.7568 77.9622 87.3142 72.077 87.3142H35.7703C29.7946 87.3142 29.9757 83.7568 29.9757 81.4764V66.5169V66.2432C29.6135 66.152 29.2514 65.9696 28.8892 65.7872C28.527 65.6047 28.1649 65.2399 27.8932 64.7838C26.7162 62.6858 27.8932 60.5878 29.7041 59.8581C30.4284 59.5845 31.2432 59.4932 32.0581 59.6757C32.873 59.8581 33.5068 60.3142 34.05 60.9527C34.7743 60.7703 35.4081 60.6791 36.1324 60.8615C36.8568 61.0439 37.3095 61.5 37.7622 61.9561C39.3014 61.4088 40.5689 61.6824 41.7459 62.6858C43.2851 62.0473 44.5527 62.2297 45.7297 63.2331C47.2689 62.4122 48.627 62.6858 49.8041 63.5068C51.1622 62.6858 52.6108 62.6858 53.8784 63.598C55.2365 62.6858 56.5946 62.6858 57.9527 63.5068C59.2203 62.5946 60.5784 62.5034 62.027 63.2331C63.2041 62.2297 64.5622 62.0473 66.0108 62.6858L66.1014 62.5946C67.1878 61.5912 68.3649 61.4088 69.723 61.8649C69.8135 61.8649 69.9946 61.8649 70.0851 61.7737C70.6284 61.2264 71.1716 60.8615 71.9865 60.7703C72.6203 60.7703 73.1635 60.7703 73.7973 60.8615C74.25 60.4966 74.6122 60.1318 75.0649 59.8581C75.6987 59.402 77.4189 59.3108 78.6865 59.8581C79.1392 60.1318 79.5919 60.4054 79.8635 60.7703ZM83.8473 53.0169C83.8473 53.1993 83.7568 53.473 83.7568 53.6554C83.6662 54.0203 83.4851 54.3851 83.3041 54.75C83.2135 55.0237 83.0324 55.2061 82.8514 55.4797C82.5797 55.7534 82.3081 55.9358 81.9459 56.1182C81.8554 56.2095 81.5838 56.3007 81.4027 56.3919C81.3122 56.3919 81.2216 56.4831 81.1311 56.4831V56.5743C81.0405 56.6655 80.95 56.6655 80.8595 56.7568C80.6784 56.9392 80.4068 57.0304 80.2257 57.2128C79.9541 57.3041 79.773 57.4865 79.5014 57.5777H79.4108C79.1392 57.6689 78.9581 57.7601 78.6865 57.8514C78.4149 57.9426 78.1432 58.0338 77.8716 58.125C76.6041 58.4899 75.0649 58.5811 73.5257 58.6723C68.9081 58.7635 63.7473 57.4865 60.3068 55.9358C55.4176 53.6554 52.2486 53.6554 52.1581 53.6554C51.977 53.6554 51.8865 53.6554 51.7959 53.5642L49.9851 53.8378L42.3797 56.7568H42.2892L39.4824 57.4865L38.4865 57.6689C38.4865 57.6689 38.4865 57.6689 38.3959 57.6689L35.4081 58.0338L33.9595 58.125H33.3257H32.7824L31.3338 57.9426L30.1568 57.6689H30.0662H29.9757H29.7946H29.7041H29.4324C29.3419 57.6689 29.3419 57.6689 29.3419 57.6689H29.0703C29.0703 57.6689 28.9797 57.6689 28.8892 57.6689L28.7081 57.4865C28.6176 57.4865 28.6176 57.4865 28.527 57.4865L28.2554 57.3953C28.2554 57.3953 28.1649 57.3953 28.1649 57.3041L27.8932 57.1216C27.8027 57.1216 27.8027 57.0304 27.7122 57.0304L27.4405 56.848L27.35 56.7568L27.0784 56.4831L26.9878 56.3919L26.7162 56.1182L26.6257 56.027L26.3541 55.6622C26.3541 55.6622 26.3541 55.5709 26.2635 55.5709L25.9919 55.2061C25.9919 55.2061 25.9919 55.1149 25.9014 55.1149L25.8108 54.9324V54.8412V54.5676V54.4764L25.5392 53.5642L25.4486 53.1081C25.4486 53.1081 25.4486 53.1081 25.4486 53.0169V52.8345V52.7432V52.5608V52.4696V52.2872V52.1959V52.0135V51.9223V51.1014V50.8277V50.7365L25.6297 49.8243L25.8108 49.0946C25.8108 49.0946 25.8108 49.0946 25.8108 49.0034L26.0824 48.2736L26.2635 47.8176V47.7264L26.4446 47.3615C26.4446 47.3615 26.4446 47.3615 26.4446 47.2703L26.6257 46.9054C26.6257 46.9054 26.6257 46.9054 26.6257 46.8142L26.7162 46.4493V46.3581L26.9878 45.9932L27.2595 45.6284C27.2595 45.6284 27.2595 45.5372 27.35 45.5372L27.6216 45.0811C27.6216 45.0811 27.6216 45.0811 27.6216 44.9899L27.9838 44.625L28.0743 44.5338L28.4365 44.1689C28.4365 44.1689 28.527 44.1689 28.527 44.0777L28.8892 43.8041C28.8892 43.8041 28.8892 43.8041 28.9797 43.8041L29.4324 43.4392C29.4324 43.4392 29.523 43.4392 29.523 43.348L29.9757 43.0743C29.9757 43.0743 29.9757 43.0743 30.0662 43.0743L30.6095 42.8007H30.7L31.2432 42.527H31.3338L31.9676 42.2534H32.0581L32.6014 41.9797C32.6014 41.9797 32.6014 41.9797 32.6919 41.9797L33.3257 41.7973H33.4162C33.5068 41.7973 33.5068 41.7973 33.5973 41.7973H33.6878C33.6878 41.7973 33.6878 41.7973 33.7784 41.7973L38.1243 41.25L40.2973 41.0676C40.4784 39.7905 40.8405 37.9662 41.7459 36.598C41.4743 36.1419 41.2932 35.5946 41.1122 34.9561C40.75 33.3142 41.2027 32.402 41.6554 31.8547C41.8365 31.6723 42.4703 31.125 43.2851 31.2162C44.0095 29.3007 45.7297 27.8412 48.2649 26.9291C48.2649 26.9291 48.2649 26.9291 48.1743 26.8378C48.1743 26.8378 48.0838 26.7466 48.0838 26.6554C47.9027 26.473 47.8122 26.2905 47.7216 26.0169C47.45 25.4696 47.1784 24.8311 47.0878 24.1926C46.9973 23.098 47.9027 22.277 52.0676 22.1858C57.2284 22.0946 58.3149 23.2804 57.7716 24.1926V24.2838C57.2284 25.1959 56.5946 25.8345 56.5041 26.3818C56.5946 26.3818 56.5946 26.3818 56.5946 26.3818C58.4054 26.9291 60.3973 27.6588 62.027 29.3919C62.5703 30.0304 63.023 30.5777 63.2946 31.2162C63.3851 31.125 63.4757 31.125 63.5662 31.125C64.6527 30.7601 65.6486 31.2162 66.1014 32.402C66.373 32.9493 66.373 33.6791 66.2824 34.5912C66.1919 35.3209 65.9203 35.8682 65.6486 36.4155C66.1014 37.3277 66.4635 38.3311 66.7351 39.3345C66.9162 39.973 67.0068 40.7027 67.0068 41.3412C67.4595 41.4324 72.8919 42.3446 75.6081 43.8041C75.6081 43.8041 75.6081 43.8041 75.5176 43.8041C77.2378 44.4426 78.5054 45.4459 79.6824 46.4493C79.8635 46.6318 80.0446 46.723 80.3162 46.9054L80.4068 46.9966C81.2216 47.6351 82.127 48.3649 82.6703 49.0034C82.7608 49.0946 82.9419 49.277 83.0324 49.4595C83.2135 49.6419 83.3041 50.0068 83.4851 50.3716C83.4851 50.4628 83.5757 50.5541 83.5757 50.6453V50.7365V50.8277C83.5757 50.6453 83.4851 50.5541 83.3946 50.3716C83.4851 50.7365 83.6662 51.1014 83.6662 51.5574C83.6662 51.375 83.5757 51.1926 83.5757 51.1014C83.5757 51.2838 83.6662 51.375 83.6662 51.5574V51.6486C83.7568 51.9223 83.7568 52.2872 83.7568 52.652C83.8473 52.7432 83.8473 52.9257 83.8473 53.0169ZM42.1986 41.7061C42.1986 41.7973 42.1986 42.6182 42.4703 42.6182C43.3757 42.527 46.1824 42.4358 49.1703 42.2534C47.9932 41.7061 46.9068 40.8851 46.0014 39.8818C45.8203 39.973 45.5486 40.1554 45.3676 40.1554C45.277 40.1554 45.277 40.1554 45.277 40.0642L45.1865 39.8818C45.1865 39.7905 45.1865 39.7905 45.1865 39.6993C45.3676 39.5169 45.4581 39.4257 45.6392 39.3345C45.7297 39.2432 45.8203 39.152 45.9108 39.152C46.0014 39.0608 46.0919 38.9696 46.1824 38.8784C46.273 38.7872 46.4541 38.6047 46.5446 38.5135H46.6351H46.7257L46.9068 38.6047C46.9973 38.6047 46.9973 38.6959 46.9973 38.7872C46.9068 39.0608 46.7257 39.2432 46.5446 39.4257C46.9068 39.7905 47.3595 40.1554 47.8122 40.5203C48.3554 40.8851 48.9892 41.25 49.623 41.5236C49.8946 41.6149 50.0757 41.7061 50.3473 41.7973C50.4378 41.7973 50.5284 41.8885 50.6189 41.8885C50.7095 41.8885 50.8 41.9797 50.8905 41.9797C50.9811 41.9797 51.0716 42.0709 51.2527 42.0709L56.7757 41.7973C57.0473 41.7061 57.4095 41.6149 57.6811 41.4324C58.3149 41.1588 58.9487 40.7939 59.4919 40.4291C60.0351 40.0642 60.4878 39.6993 60.85 39.3345C60.6689 39.152 60.5784 38.8784 60.4878 38.6959C60.4878 38.6047 60.4878 38.6047 60.5784 38.5135L60.7595 38.4223C60.7595 38.4223 60.7595 38.4223 60.85 38.4223H60.9405C61.1216 38.6047 61.2122 38.6959 61.3027 38.7872C61.3932 38.8784 61.4838 38.9696 61.5743 39.0608C61.6649 39.152 61.7554 39.2432 61.8459 39.3345C61.9365 39.4257 62.1176 39.6081 62.2081 39.6993C62.2081 39.6993 62.2986 39.7905 62.2081 39.8818L61.8459 40.1554L61.7554 40.2466C61.4838 40.1554 61.3027 40.0642 61.1216 39.8818C60.3973 40.6115 59.5824 41.1588 58.7676 41.7061H58.8581C63.1135 41.4324 64.2905 42.6182 64.9243 42.3446C65.1054 42.2534 65.0149 41.9797 65.0149 41.7973C64.9243 39.6993 64.2905 37.7838 63.7473 36.598C63.8378 36.5068 63.9284 36.3243 64.0189 36.2331C64.4716 35.5946 64.7432 35.4122 64.8338 34.6824C65.0149 33.6791 64.8338 33.223 64.5622 33.0405C64.2905 32.7669 63.9284 32.8581 63.5662 33.1318C63.2041 33.4054 62.9324 33.7703 62.7514 34.0439C62.2986 31.7635 61.3932 30.4865 60.4878 29.848C59.2203 28.9358 57.1378 28.5709 55.8703 29.6655C54.9649 30.3953 54.6932 31.3986 53.3351 31.3074C52.0676 31.2162 51.6149 30.2128 50.5284 29.6655C49.4419 29.1182 48.627 28.9358 47.5405 29.4831C45.5486 30.4865 44.7338 32.6757 44.5527 34.1351C44.2811 33.7703 44.0095 33.4966 43.6473 33.223C43.2851 32.9493 42.8324 33.0405 42.6514 33.3142C42.4703 33.5878 42.2892 33.9527 42.5608 34.9561C42.7419 35.5946 43.3757 36.4155 43.5568 36.6892C41.927 38.5135 42.1081 40.7939 42.1986 41.7061ZM60.4878 34.4088C60.7595 34.4088 60.9405 34.5912 60.9405 34.8649V34.9561C60.9405 35.2297 60.6689 35.5034 60.3973 35.4122C59.4014 35.2297 57.1378 35.1385 54.7838 38.3311C54.7838 38.2399 55.9608 33.9527 60.4878 34.4088ZM46.1824 34.9561C46.1824 34.6824 46.3635 34.5 46.6351 34.5C51.1622 34.0439 52.4297 38.2399 52.4297 38.2399C50.0757 35.2297 47.8122 35.2297 46.8162 35.5034C46.4541 35.5946 46.1824 35.3209 46.1824 34.9561ZM81.4027 50.5541C81.7649 51.1014 82.3081 53.0169 81.3122 54.2027C81.3122 54.2027 80.8595 54.3851 80.5878 54.4764C80.3162 54.5676 80.2257 54.6588 79.9541 54.8412C79.8635 54.9324 79.6824 54.9324 79.5919 55.0236C76.0608 57.6689 66.5541 56.5743 61.1216 54.0203C55.6892 51.4662 51.6149 51.5574 51.6149 51.5574C51.6149 51.5574 56.0514 48.5473 57.8622 47.6351C59.1297 47.0878 60.5784 46.1757 62.5703 45.5372C62.8419 45.4459 63.1135 45.3547 63.3851 45.2635C46.0919 48.7297 38.3959 59.5845 31.0622 54.5676C29.4324 56.1182 27.4405 54.0203 27.4405 54.0203C27.4405 54.0203 27.1689 53.7466 27.0784 53.5642C26.8068 53.0169 26.4446 45.8108 33.5973 44.0777C33.6878 43.9865 37.6716 43.348 41.927 43.2568C42.923 43.2568 43.9189 43.1655 44.8243 43.0743C46.6351 42.8919 48.3554 42.8007 50.1662 42.7095C52.7919 42.6182 55.327 42.527 57.6811 42.2534C57.9527 42.2534 58.3149 42.1622 58.5865 42.1622C60.2162 42.0709 61.4838 42.1622 63.7473 42.6182C65.377 42.9831 67.1878 43.6216 68.5459 44.625C70.6284 44.4426 72.8014 44.5338 74.6122 45.1723C76.423 45.8108 77.6 47.3615 79.0486 48.5473C79.773 49.1858 80.6784 49.8243 81.1311 50.3716C81.2216 50.3716 81.3122 50.4628 81.4027 50.5541ZM50.5284 68.4324C50.4378 68.4324 50.4378 68.3412 50.3473 68.3412C50.4378 68.4324 50.5284 68.4324 50.5284 68.4324ZM55.6892 65.9696C54.8743 66.6993 54.15 67.4291 53.4257 68.1588C52.7014 68.7973 51.7054 68.9797 50.8905 68.6149C50.8 68.6149 50.7095 68.5236 50.6189 68.5236C51.1622 67.9764 51.7959 67.3378 52.3392 66.7905C52.7919 66.3345 53.3351 65.8784 53.7878 65.4223C54.0595 65.2399 54.2405 64.9662 54.5122 64.7838C55.327 64.0541 56.323 63.9628 57.2284 64.5101C56.8662 64.875 56.5041 65.2399 56.2324 65.5135C56.0513 65.6959 55.8703 65.8784 55.6892 65.9696ZM48.8986 65.7872C49.3514 65.4223 49.8041 65.0574 50.2568 64.6926C51.0716 64.0541 52.1581 63.9628 53.0635 64.6014C52.5203 65.0574 51.977 65.5135 51.4338 65.9696C50.8905 66.4257 50.3473 66.8818 49.8041 67.4291C49.5324 67.7027 49.1703 67.9764 48.8081 68.1588C47.9932 68.7061 46.8162 68.7061 46.0014 68.0676C46.4541 67.7027 46.9068 67.4291 47.2689 67.0642C47.8122 66.6993 48.3554 66.2432 48.8986 65.7872ZM76.8757 61.5C76.2419 62.777 75.6081 64.1453 74.9743 65.4223C74.5216 66.3345 73.2541 66.7905 72.1676 66.4257C72.6203 65.6959 73.073 64.9662 73.4351 64.2365C73.8878 63.5068 74.25 62.777 74.6122 61.9561C74.6122 61.8649 74.7027 61.8649 74.7027 61.7737C74.7932 61.5912 74.8838 61.4088 75.0649 61.3176C75.3365 61.0439 75.6987 60.8615 76.0608 60.7703C76.3324 60.6791 76.6041 60.6791 76.9662 60.6791C77.0568 60.6791 77.1473 60.6791 77.2378 60.6791C77.0568 61.0439 77.0568 61.2264 76.8757 61.5ZM43.9189 65.9696C44.2811 65.6959 44.6432 65.5135 44.9149 65.2399C45.277 64.9662 45.7297 64.6926 46.0919 64.3277C46.9068 63.6892 48.1743 63.6892 48.8986 64.4189C48.3554 64.7838 47.9027 65.2399 47.3595 65.6047C46.4541 66.3345 45.4581 67.0642 44.4622 67.7027C43.6473 68.3412 42.4703 68.1588 41.5649 67.5203C42.4703 67.0642 43.1946 66.5169 43.9189 65.9696ZM56.323 66.973C56.6851 66.6081 57.0473 66.2432 57.4095 65.8784C57.8622 65.4223 58.2243 65.0574 58.677 64.6014C59.4014 63.8716 60.4878 63.6892 61.4838 64.2365C61.0311 64.6926 60.5784 65.1487 60.1257 65.6047C59.3108 66.4257 58.4959 67.3378 57.6811 68.1588C56.9568 68.8885 55.6892 68.8885 54.8743 68.3412C55.327 67.9764 55.7797 67.4291 56.323 66.973ZM37.3095 66.7905C37.6716 66.6081 38.0338 66.4257 38.3054 66.2432C39.2108 65.6959 40.1162 65.1487 41.0216 64.5101C41.2932 64.3277 41.6554 64.1453 41.927 63.9628C42.8324 63.4155 43.9189 63.4155 44.7338 64.1453C44.2811 64.5101 43.8284 64.7838 43.3757 65.0574C43.2851 65.1486 43.1041 65.2399 43.0135 65.3311C42.1081 65.9696 41.1122 66.6081 40.2068 67.1554C39.3919 67.7027 38.0338 67.5203 37.3095 66.7905ZM59.2203 68.3412C60.0351 67.3378 60.9405 66.4257 61.7554 65.5135C61.9365 65.3311 62.1176 65.1487 62.2986 64.9662C62.5703 64.6926 62.7514 64.3277 63.1135 64.1453C63.7473 63.598 64.6527 63.5068 65.4676 63.8716C65.1959 64.2365 64.8338 64.6926 64.5622 65.0574C64.4716 65.2399 64.2905 65.3311 64.2 65.5135C63.5662 66.3345 62.8419 67.1554 62.1176 67.8851C61.3027 68.6149 60.1257 68.7973 59.2203 68.3412ZM63.5662 67.9764C64.4716 66.8818 65.2865 65.7872 66.1919 64.6014C66.1919 64.6014 66.1919 64.6014 66.1919 64.5101C66.4635 64.2365 66.6446 63.8716 66.8257 63.598C67.0068 63.4155 67.1878 63.2331 67.3689 63.1419C67.4595 63.1419 67.55 63.0507 67.55 63.0507C67.6405 63.0507 67.7311 62.9595 67.8216 62.9595C68.3649 62.777 68.9081 62.777 69.4514 63.0507C69.2703 63.3243 69.0892 63.598 68.9081 63.8716C68.2743 64.7838 67.6405 65.6047 67.0068 66.5169C66.7351 66.7905 66.5541 67.1554 66.2824 67.4291C65.6486 68.1588 64.3811 68.4324 63.5662 67.9764ZM72.5297 63.6892C71.9865 64.6014 71.3527 65.6047 70.7189 66.5169C70.1757 67.4291 68.8176 67.7939 67.9122 67.3378C68.2743 66.7905 68.727 66.2432 69.0892 65.6959C69.6324 64.9662 70.0851 64.1453 70.6284 63.4155C70.7189 63.2331 70.8095 63.1419 70.9 63.0507C71.4432 62.2297 72.4392 61.7736 73.5257 62.1385C73.4351 62.2297 73.3446 62.4122 73.3446 62.5034C72.9824 62.8682 72.7108 63.3243 72.5297 63.6892ZM39.1203 64.4189C38.0338 65.0574 37.0378 65.6047 35.9514 66.2432C34.9554 66.7905 33.6878 66.4257 33.2351 65.6959C34.05 65.2399 34.8649 64.875 35.6797 64.4189C36.3135 64.0541 36.8568 63.7804 37.4 63.4155C37.5811 63.3243 37.7622 63.2331 37.9432 63.1419C38.9392 62.5946 40.0257 62.6858 40.75 63.4155C40.3878 63.598 40.0257 63.8716 39.7541 64.0541C39.4824 64.2365 39.3014 64.3277 39.1203 64.4189ZM33.2351 64.4189C32.7824 64.6926 32.2392 64.875 31.7865 65.0574C31.2432 65.3311 30.6095 65.2399 30.0662 65.0574C29.9757 65.0574 29.8851 64.9662 29.7946 64.9662C29.6135 64.875 29.523 64.875 29.4324 64.7838C29.2514 64.6014 29.0703 64.5101 28.8892 64.2365C29.2514 64.1453 29.6135 63.9628 29.9757 63.8716C31.3338 63.3243 32.6919 62.6858 34.05 62.1385C35.0459 61.6824 36.0419 61.8649 36.6757 62.5946C36.4946 62.6858 36.223 62.8682 36.0419 62.9595C35.1365 63.5068 34.2311 63.9628 33.2351 64.4189ZM79.2297 61.2264C80.2257 61.7736 80.6784 62.9595 80.1351 63.9628C80.1351 64.0541 80.0446 64.1453 79.9541 64.2365C79.9541 64.3277 79.8635 64.3277 79.8635 64.4189C79.8635 64.5101 79.773 64.5101 79.6824 64.6014C79.5919 64.6926 79.5919 64.6926 79.5014 64.7838C79.3203 64.9662 79.1392 65.0574 78.9581 65.1487C78.8676 65.1487 78.777 65.2399 78.777 65.2399C78.3243 65.4223 77.8716 65.5135 77.4189 65.3311C77.8716 64.3277 78.3243 63.3243 78.777 62.2297C78.8676 61.8649 79.0486 61.5 79.2297 61.2264ZM30.0662 62.6858C29.6135 62.8682 29.1608 63.0507 28.6176 63.2331C28.2554 62.5034 28.9797 61.4088 29.9757 60.8615H30.0662C30.3378 60.7703 30.6095 60.6791 30.8811 60.6791C31.6959 60.5878 32.5108 60.8615 33.0541 61.5C32.873 61.5912 32.6919 61.5912 32.6014 61.6824C31.6959 62.0473 30.8811 62.4122 30.0662 62.6858ZM37.5811 83.3007C36.5851 83.3007 35.6797 83.1182 35.0459 82.6622C34.5932 82.3885 34.1405 82.0237 33.8689 81.4764C33.5973 81.0203 33.4162 80.473 33.4162 80.0169C33.4162 79.7432 33.5068 79.4696 33.6878 79.2872C33.8689 79.1047 34.1405 79.0135 34.5027 79.0135C34.7743 79.0135 34.9554 79.1047 35.1365 79.2872C35.3176 79.4696 35.4081 79.652 35.5892 79.9257C35.6797 80.1993 35.8608 80.473 35.9514 80.7466C36.0419 80.9291 36.3135 81.1115 36.4946 81.2027C36.7662 81.2939 37.0378 81.3851 37.4905 81.3851C38.0338 81.3851 38.577 81.2939 38.8486 81.0203C39.2108 80.7466 39.3919 80.473 39.3919 80.1081C39.3919 79.8345 39.3014 79.5608 39.1203 79.3784C38.9392 79.1959 38.6676 79.0135 38.3959 78.9223C38.0338 78.8311 37.6716 78.7399 37.1284 78.5574C36.4041 78.375 35.7703 78.1926 35.227 77.9189C34.6838 77.6453 34.3216 77.3716 33.9595 76.9155C33.6878 76.4595 33.5068 76.0034 33.5068 75.3649C33.5068 74.7264 33.6878 74.2703 33.9595 73.8142C34.3216 73.3581 34.7743 72.9932 35.3176 72.7196C35.9514 72.4459 36.5851 72.3547 37.4 72.3547C38.0338 72.3547 38.577 72.4459 39.0297 72.6284C39.4824 72.8108 39.9351 72.9932 40.2068 73.2669C40.4784 73.5405 40.75 73.8142 40.9311 74.0878C41.1122 74.3615 41.1122 74.7264 41.1122 75C41.1122 75.2737 41.0216 75.5473 40.8405 75.7297C40.6595 76.0034 40.3878 76.0946 40.1162 76.0946C39.8446 76.0946 39.6635 76.0034 39.4824 75.9122C39.3919 75.8209 39.2108 75.5473 39.0297 75.2737C38.8486 74.9088 38.6676 74.6351 38.3959 74.4527C38.1243 74.2703 37.7622 74.1791 37.2189 74.1791C36.7662 74.1791 36.3135 74.2703 36.0419 74.5439C35.7703 74.7264 35.5892 75 35.5892 75.2737C35.5892 75.4561 35.5892 75.5473 35.6797 75.7297C35.7703 75.8209 35.9514 76.0034 36.0419 76.0946C36.223 76.1858 36.4041 76.277 36.5851 76.3682C36.7662 76.4595 37.1284 76.5507 37.5811 76.6419C38.1243 76.7331 38.6676 76.9155 39.1203 77.098C39.573 77.2804 40.0257 77.4628 40.3878 77.7365C40.75 78.0101 41.0216 78.2838 41.2027 78.6487C41.3838 79.0135 41.4743 79.4696 41.4743 80.0169C41.4743 80.6554 41.2932 81.2939 40.9311 81.75C40.5689 82.2973 40.1162 82.6622 39.4824 82.9358C39.2108 83.1182 38.3959 83.3007 37.5811 83.3007ZM47.5405 83.3007C46.7257 83.3007 46.0919 83.2095 45.4581 83.027C44.9149 82.8446 44.3716 82.5709 44.0095 82.2061C43.6473 81.8412 43.3757 81.3851 43.1946 80.7466C43.0135 80.1993 42.923 79.4696 42.923 78.7399V73.8142C42.923 73.3581 43.0135 72.9932 43.2851 72.7196C43.4662 72.4459 43.8284 72.3547 44.1 72.3547C44.4622 72.3547 44.7338 72.4459 45.0054 72.7196C45.1865 72.9932 45.3676 73.2669 45.3676 73.8142V78.8311C45.3676 79.3784 45.4581 79.8345 45.5486 80.1993C45.6392 80.5642 45.9108 80.8378 46.1824 81.0203C46.4541 81.2027 46.9068 81.2939 47.45 81.2939C48.1743 81.2939 48.7176 81.1115 49.0797 80.7466C49.3514 80.3818 49.5324 79.7432 49.5324 78.9223V73.8142C49.5324 73.3581 49.623 72.9932 49.8946 72.7196C50.0757 72.4459 50.4378 72.3547 50.8 72.3547C51.1622 72.3547 51.4338 72.4459 51.7054 72.7196C51.8865 72.9932 52.0676 73.2669 52.0676 73.8142V78.7399C52.0676 79.5608 51.977 80.1993 51.7959 80.8378C51.6149 81.3851 51.3432 81.9324 50.8905 82.2973C50.2568 82.6622 49.8041 82.8446 49.3514 83.027C48.8081 83.2095 48.2649 83.3007 47.5405 83.3007ZM70.5378 83.3007C69.723 83.3007 68.9986 83.2095 68.3649 82.9358C67.7311 82.6622 67.1878 82.2973 66.7351 81.8412C66.2824 81.3851 66.0108 80.7466 65.7392 80.1081C65.5581 79.4696 65.377 78.6487 65.377 77.9189C65.377 77.098 65.4676 76.3682 65.7392 75.7297C66.0108 75.0912 66.2824 74.4527 66.7351 73.9966C67.1878 73.5405 67.7311 73.1757 68.3649 72.902C68.9986 72.6284 69.723 72.5372 70.5378 72.5372C71.6243 72.5372 72.5297 72.7196 73.3446 73.1757C74.1595 73.6318 74.7027 74.2703 75.1554 75.0912C75.5176 75.9122 75.7892 76.9155 75.7892 77.9189C75.7892 78.7399 75.6986 79.4696 75.427 80.1081C75.2459 80.7466 74.8838 81.3851 74.4311 81.8412C73.9784 82.2973 73.4351 82.7534 72.8014 82.9358C72.077 83.2095 71.3527 83.3007 70.5378 83.3007ZM70.5378 74.3615C70.1757 74.3615 69.8135 74.4527 69.4514 74.5439C69.0892 74.7264 68.8176 74.9088 68.6365 75.1824C68.3649 75.4561 68.1838 75.8209 68.0932 76.277C67.9122 76.7331 67.9122 77.1892 67.9122 77.8277C67.9122 78.375 68.0027 78.9223 68.0932 79.3784C68.2743 79.8345 68.4554 80.1993 68.6365 80.473C68.9081 80.7466 69.1797 81.0203 69.5419 81.1115C69.9041 81.2939 70.2662 81.2939 70.6284 81.2939C71.0811 81.2939 71.6243 81.2027 71.9865 80.9291C72.4392 80.6554 72.7108 80.2905 72.9824 79.7432C73.2541 79.1959 73.3446 78.5574 73.3446 77.7365C73.3446 77.0068 73.2541 76.3682 72.9824 75.8209C72.8013 75.2736 72.4392 74.9088 71.9865 74.6351C71.5338 74.4527 71.0811 74.3615 70.5378 74.3615ZM62.8419 83.3007C62.4797 83.3007 62.2081 83.2095 61.9365 82.9358C61.7554 82.7534 61.5743 82.3885 61.5743 82.0237C61.5743 81.0203 61.5743 78.0101 61.5743 78.0101V76.5507C60.9405 77.5541 59.673 79.7432 59.673 79.7432V79.8345L59.5824 79.9257C59.2203 80.473 58.8581 80.5642 58.5865 80.5642C58.3149 80.5642 57.9527 80.473 57.5905 79.9257C57.1378 79.1047 56.5946 78.2838 56.1419 77.4628C56.1419 77.4628 55.8703 76.9155 55.5986 76.5507C55.5986 78.1014 55.5986 82.0237 55.5986 82.0237C55.5986 82.8446 55.1459 83.3007 54.4216 83.3007C53.6973 83.3007 53.2446 82.8446 53.2446 82.0237C53.2446 79.2872 53.2446 76.7331 53.2446 73.9966C53.2446 73.1757 53.6068 72.6284 54.15 72.4459C54.3311 72.3547 54.5122 72.3547 54.6932 72.3547C55.327 72.3547 55.7797 72.6284 56.1419 73.1757C56.6851 73.9966 57.1378 74.9088 57.6811 75.7297C57.6811 75.7297 58.4959 77.098 58.4959 77.1892L59.0392 76.277C59.5824 75.3649 60.2162 74.3615 60.7595 73.3581C61.1216 72.7196 61.5743 72.4459 62.2081 72.4459C62.3892 72.4459 62.5703 72.4459 62.8419 72.5372C63.4757 72.6284 63.8378 73.1757 63.8378 73.9054C63.8378 73.9054 63.8378 81.6588 63.8378 82.0237C64.0189 82.8446 63.5662 83.3007 62.8419 83.3007Z" fill="#787878"/>
</svg>
