<svg width="21" height="15" viewBox="0 0 21 15" fill="none" xmlns="http://www.w3.org/2000/svg">
<path d="M7.5 15C11.6421 15 15 11.6421 15 7.5C15 3.35786 11.6421 0 7.5 0C3.35786 0 0 3.35786 0 7.5C0 11.6421 3.35786 15 7.5 15Z" fill="white"/>
<mask id="mask0" mask-type="alpha" maskUnits="userSpaceOnUse" x="3" y="6" width="18" height="4">
<path d="M20.0522 7.45507C19.9167 7.22768 19.6998 7.11396 19.4286 7.10135C19.2795 7.0887 19.144 7.10135 18.9949 7.10135C18.9 7.10135 18.8051 7.10135 18.7102 7.11396C18.5882 7.1266 18.4662 7.13925 18.3577 7.13925C18.2493 7.15186 18.1408 7.15189 18.0189 7.1645C17.8969 7.17714 17.7748 7.18979 17.6529 7.18979C17.5444 7.2024 17.436 7.2024 17.3275 7.21504C17.2055 7.22768 17.0971 7.2403 16.9751 7.2403C16.8802 7.25294 16.7853 7.25294 16.6904 7.26558C16.6768 7.26558 16.6497 7.26558 16.6362 7.26558H16.6226C16.6091 7.26558 16.6091 7.26558 16.5955 7.26558C16.5819 7.26558 16.5548 7.26558 16.5413 7.26558C16.3922 7.27819 16.243 7.29084 16.0804 7.30348C15.9991 7.31612 15.9177 7.31612 15.8364 7.32874C15.7144 7.34138 15.6059 7.35402 15.4839 7.35402C15.3755 7.36663 15.267 7.36663 15.145 7.37928C15.0231 7.39192 14.901 7.40453 14.779 7.40453C14.6841 7.41717 14.5892 7.41717 14.4944 7.42982C14.4808 7.42982 14.4537 7.42982 14.4401 7.42982H14.4266C14.413 7.42982 14.413 7.42982 14.3995 7.42982C14.3724 7.42982 14.3453 7.42982 14.3317 7.44246C14.3181 7.44246 14.3181 7.44246 14.3046 7.44246C14.291 7.44246 14.2639 7.44246 14.2504 7.44246C14.2368 7.44246 14.2368 7.44246 14.2232 7.44246C14.2097 7.44246 14.2097 7.44246 14.1962 7.44246C14.1826 7.44246 14.1555 7.44246 14.1419 7.44246H14.1284C14.1148 7.44246 14.1148 7.44246 14.1013 7.44246C14.0606 7.44246 14.0335 7.44246 13.9928 7.45507C13.8437 7.46771 13.6946 7.48036 13.5455 7.49297C13.3557 7.50561 13.1795 7.51826 12.9897 7.54351C12.827 7.55615 12.6643 7.5688 12.5152 7.58141C12.4745 7.58141 12.4339 7.58141 12.3932 7.59405C12.3254 7.59405 12.2577 7.60669 12.1899 7.60669C12.0543 7.61931 11.9188 7.63195 11.7832 7.63195C11.6477 7.64459 11.5121 7.64459 11.363 7.6572C11.3359 7.6572 11.3088 7.6572 11.2817 7.6572C11.2681 7.6572 11.2546 7.6572 11.2546 7.6572C11.241 7.6572 11.2274 7.6572 11.2139 7.6572C11.1868 7.6572 11.1597 7.6572 11.119 7.6572C11.1054 7.6572 11.0919 7.6572 11.0783 7.6572C11.0648 7.6572 11.0512 7.6572 11.0376 7.6572C11.0106 7.6572 10.9699 7.6572 10.9428 7.6572C10.9292 7.6572 10.9157 7.6572 10.9021 7.6572C10.8885 7.6572 10.875 7.6572 10.8614 7.6572C10.8208 7.6572 10.7937 7.6572 10.753 7.6572C10.7394 7.6572 10.7259 7.6572 10.7123 7.6572C10.6988 7.6572 10.6716 7.6572 10.6581 7.6572C10.6446 7.6572 10.6174 7.6572 10.6039 7.6572C10.4819 7.6572 10.3463 7.6572 10.2243 7.64459C10.0888 7.63195 9.9803 7.5688 9.91252 7.46771C9.88543 7.42982 9.85831 7.37928 9.83118 7.32874C9.66854 7.01291 9.42453 6.76024 9.11275 6.57071C8.86873 6.41912 8.61119 6.31804 8.34006 6.24225C8.09605 6.17909 7.8656 6.12855 7.62162 6.1033C7.4996 6.09065 7.36405 6.07801 7.24206 6.06537C7.07939 6.05276 6.93028 6.05276 6.7676 6.06537C6.72695 6.06537 6.69983 6.06537 6.65914 6.06537C6.64561 6.06537 6.63205 6.06537 6.61849 6.06537C6.60493 6.06537 6.59137 6.06537 6.57784 6.06537C6.55071 6.06537 6.53715 6.06537 6.51003 6.06537C6.4965 6.06537 6.4965 6.06537 6.48294 6.06537C6.46938 6.06537 6.46938 6.06537 6.45582 6.06537C6.44225 6.06537 6.41516 6.06537 6.4016 6.06537H6.38804H6.37448C6.36092 6.06537 6.34739 6.06537 6.33383 6.06537H6.32027H6.3067C6.29314 6.06537 6.26605 6.06537 6.25249 6.07801H6.23893C6.22537 6.07801 6.21181 6.07801 6.19827 6.09065H6.18471C6.17115 6.09065 6.15759 6.09065 6.14403 6.1033H6.13047C6.11694 6.1033 6.10338 6.1033 6.08982 6.11591H6.07626C6.06269 6.11591 6.04916 6.11591 6.0356 6.12855H6.02204C6.00848 6.12855 6.00848 6.12855 5.99492 6.12855C5.87293 6.15381 5.73738 6.17909 5.61536 6.20435C5.2087 6.29279 4.80202 6.43177 4.4089 6.58336C4.32756 6.60861 4.24622 6.64654 4.17845 6.68444C4.16492 6.68444 4.16492 6.68444 4.15136 6.69705C3.98868 6.77288 3.83957 6.84867 3.70402 6.94972C3.54135 7.06345 3.4058 7.17714 3.28378 7.32874C3.16179 7.48036 3.09401 7.63195 3.06689 7.82147C3.03977 8.0615 3.10757 8.27628 3.25668 8.46577C3.41933 8.68054 3.62268 8.84478 3.85313 8.98376C4.05646 9.09745 4.27335 9.19853 4.49023 9.28697C4.95113 9.47646 5.41203 9.61544 5.90005 9.70388C6.17115 9.75439 6.42872 9.77967 6.69983 9.79229C6.8625 9.80493 7.02517 9.79229 7.18782 9.79229C7.37761 9.77967 7.56738 9.76703 7.74361 9.74178C7.97406 9.71649 8.19095 9.66595 8.40784 9.6028C8.50273 9.57754 8.61119 9.53961 8.70606 9.50171H8.71962C9.08562 9.35012 9.39741 9.1227 9.65498 8.83213C9.69563 8.78162 9.73632 8.73108 9.76341 8.68054C9.76341 8.68054 9.76341 8.68054 9.77697 8.6679C9.77697 8.6679 9.77697 8.65529 9.79053 8.65529C9.79053 8.65529 9.79053 8.65529 9.79053 8.64264C9.79053 8.64264 9.79053 8.63 9.80409 8.63L9.81765 8.61739C9.81765 8.61739 9.81765 8.61736 9.81765 8.60475C9.81765 8.60475 9.81765 8.5921 9.83118 8.5921L9.84474 8.57946C9.89899 8.50366 9.93964 8.42787 9.9803 8.33943L9.99386 8.32679C10.0345 8.27628 10.1023 8.25099 10.1701 8.25099C10.3192 8.23838 10.4548 8.22574 10.6039 8.23838C10.7394 8.23838 10.8614 8.25099 10.997 8.25099C11.0512 8.25099 11.119 8.26363 11.1732 8.26363C11.241 8.26363 11.3088 8.27628 11.3766 8.27628C11.3901 8.27628 11.3901 8.27628 11.4037 8.27628C11.4172 8.27628 11.4172 8.27628 11.4308 8.27628C11.4443 8.27628 11.4714 8.27628 11.485 8.27628C11.4985 8.27628 11.4985 8.27628 11.5121 8.27628C11.5257 8.27628 11.5257 8.27628 11.5392 8.27628C11.5528 8.27628 11.5799 8.27628 11.5934 8.27628C11.607 8.27628 11.607 8.27628 11.6206 8.27628C11.6341 8.27628 11.6341 8.27628 11.6477 8.27628C11.6612 8.27628 11.6883 8.27628 11.7019 8.27628C11.7154 8.27628 11.7154 8.27628 11.729 8.27628C11.7426 8.27628 11.7426 8.27628 11.7561 8.27628C11.7697 8.27628 11.7968 8.27628 11.8103 8.27628C11.8239 8.27628 11.8239 8.27628 11.8374 8.27628C11.851 8.27628 11.851 8.27628 11.8645 8.27628C11.8781 8.27628 11.9052 8.27628 11.9188 8.27628C12.0137 8.28889 12.1086 8.28889 12.217 8.30153C12.339 8.31417 12.4475 8.31417 12.5694 8.32679C12.6915 8.33943 12.8135 8.35207 12.9354 8.35207C13.0168 8.36471 13.0981 8.36471 13.1795 8.37733C13.2472 8.37733 13.3286 8.38997 13.3963 8.38997C13.4099 8.38997 13.4099 8.38997 13.4235 8.38997C13.4641 8.40261 13.5048 8.40261 13.5455 8.40261C13.7217 8.41522 13.8979 8.42787 14.0741 8.45312C14.2232 8.46577 14.3724 8.47841 14.5079 8.49105C14.6841 8.50366 14.8468 8.51631 15.0231 8.54156C15.1857 8.5542 15.3348 8.56685 15.4975 8.57946C15.5517 8.57946 15.6059 8.5921 15.6602 8.5921C15.7279 8.60475 15.7957 8.60475 15.8635 8.61739C15.9855 8.63 16.1075 8.64264 16.2295 8.64264C16.3379 8.65529 16.4464 8.65529 16.5548 8.6679C16.6768 8.68054 16.7988 8.69318 16.9073 8.69318C17.0157 8.7058 17.1242 8.7058 17.2326 8.71844C17.3546 8.73108 17.4766 8.74369 17.5851 8.74369C17.7071 8.75634 17.8291 8.76898 17.9511 8.76898C18.0189 8.76898 18.0866 8.78162 18.168 8.78162C18.2764 8.79424 18.3984 8.79424 18.5068 8.80688C18.6424 8.81952 18.7915 8.81952 18.9271 8.83213C18.9949 8.83213 19.0762 8.84478 19.144 8.84478C19.266 8.84478 19.388 8.87003 19.51 8.84478C19.6727 8.81952 19.8218 8.76898 19.9438 8.64264C20.1336 8.45312 20.2149 8.22573 20.2284 7.97306C20.2284 7.84672 20.1742 7.64459 20.0522 7.45507Z" fill="white"/>
</mask>
<g mask="url(#mask0)">
<path d="M20.0522 7.45507C19.9167 7.22768 19.6998 7.11396 19.4286 7.10135C19.2795 7.0887 19.144 7.10135 18.9949 7.10135C18.9 7.10135 18.8051 7.10135 18.7102 7.11396C18.5882 7.1266 18.4662 7.13925 18.3577 7.13925C18.2493 7.15186 18.1408 7.15189 18.0189 7.1645C17.8969 7.17714 17.7748 7.18979 17.6529 7.18979C17.5444 7.2024 17.436 7.2024 17.3275 7.21504C17.2055 7.22768 17.0971 7.2403 16.9751 7.2403C16.8802 7.25294 16.7853 7.25294 16.6904 7.26558C16.6768 7.26558 16.6497 7.26558 16.6362 7.26558H16.6226C16.6091 7.26558 16.6091 7.26558 16.5955 7.26558C16.5819 7.26558 16.5548 7.26558 16.5413 7.26558C16.3922 7.27819 16.243 7.29084 16.0804 7.30348C15.9991 7.31612 15.9177 7.31612 15.8364 7.32874C15.7144 7.34138 15.6059 7.35402 15.4839 7.35402C15.3755 7.36663 15.267 7.36663 15.145 7.37928C15.0231 7.39192 14.901 7.40453 14.779 7.40453C14.6841 7.41717 14.5892 7.41717 14.4944 7.42982C14.4808 7.42982 14.4537 7.42982 14.4401 7.42982H14.4266C14.413 7.42982 14.413 7.42982 14.3995 7.42982C14.3724 7.42982 14.3453 7.42982 14.3317 7.44246C14.3181 7.44246 14.3181 7.44246 14.3046 7.44246C14.291 7.44246 14.2639 7.44246 14.2504 7.44246C14.2368 7.44246 14.2368 7.44246 14.2232 7.44246C14.2097 7.44246 14.2097 7.44246 14.1962 7.44246C14.1826 7.44246 14.1555 7.44246 14.1419 7.44246H14.1284C14.1148 7.44246 14.1148 7.44246 14.1013 7.44246C14.0606 7.44246 14.0335 7.44246 13.9928 7.45507C13.8437 7.46771 13.6946 7.48036 13.5455 7.49297C13.3557 7.50561 13.1795 7.51826 12.9897 7.54351C12.827 7.55615 12.6643 7.5688 12.5152 7.58141C12.4745 7.58141 12.4339 7.58141 12.3932 7.59405C12.3254 7.59405 12.2577 7.60669 12.1899 7.60669C12.0543 7.61931 11.9188 7.63195 11.7832 7.63195C11.6477 7.64459 11.5121 7.64459 11.363 7.6572C11.3359 7.6572 11.3088 7.6572 11.2817 7.6572C11.2681 7.6572 11.2546 7.6572 11.2546 7.6572C11.241 7.6572 11.2274 7.6572 11.2139 7.6572C11.1868 7.6572 11.1597 7.6572 11.119 7.6572C11.1054 7.6572 11.0919 7.6572 11.0783 7.6572C11.0648 7.6572 11.0512 7.6572 11.0376 7.6572C11.0106 7.6572 10.9699 7.6572 10.9428 7.6572C10.9292 7.6572 10.9157 7.6572 10.9021 7.6572C10.8885 7.6572 10.875 7.6572 10.8614 7.6572C10.8208 7.6572 10.7937 7.6572 10.753 7.6572C10.7394 7.6572 10.7259 7.6572 10.7123 7.6572C10.6988 7.6572 10.6716 7.6572 10.6581 7.6572C10.6446 7.6572 10.6174 7.6572 10.6039 7.6572C10.4819 7.6572 10.3463 7.6572 10.2243 7.64459C10.0888 7.63195 9.9803 7.5688 9.91252 7.46771C9.88543 7.42982 9.85831 7.37928 9.83118 7.32874C9.66854 7.01291 9.42453 6.76024 9.11275 6.57071C8.86873 6.41912 8.61119 6.31804 8.34006 6.24225C8.09605 6.17909 7.8656 6.12855 7.62162 6.1033C7.4996 6.09065 7.36405 6.07801 7.24206 6.06537C7.07939 6.05276 6.93028 6.05276 6.7676 6.06537C6.72695 6.06537 6.69983 6.06537 6.65914 6.06537C6.64561 6.06537 6.63205 6.06537 6.61849 6.06537C6.60493 6.06537 6.59137 6.06537 6.57784 6.06537C6.55071 6.06537 6.53715 6.06537 6.51003 6.06537C6.4965 6.06537 6.4965 6.06537 6.48294 6.06537C6.46938 6.06537 6.46938 6.06537 6.45582 6.06537C6.44225 6.06537 6.41516 6.06537 6.4016 6.06537H6.38804H6.37448C6.36092 6.06537 6.34739 6.06537 6.33383 6.06537H6.32027H6.3067C6.29314 6.06537 6.26605 6.06537 6.25249 6.07801H6.23893C6.22537 6.07801 6.21181 6.07801 6.19827 6.09065H6.18471C6.17115 6.09065 6.15759 6.09065 6.14403 6.1033H6.13047C6.11694 6.1033 6.10338 6.1033 6.08982 6.11591H6.07626C6.06269 6.11591 6.04916 6.11591 6.0356 6.12855H6.02204C6.00848 6.12855 6.00848 6.12855 5.99492 6.12855C5.87293 6.15381 5.73738 6.17909 5.61536 6.20435C5.2087 6.29279 4.80202 6.43177 4.4089 6.58336C4.32756 6.60861 4.24622 6.64654 4.17845 6.68444C4.16492 6.68444 4.16492 6.68444 4.15136 6.69705C3.98868 6.77288 3.83957 6.84867 3.70402 6.94972C3.54135 7.06345 3.4058 7.17714 3.28378 7.32874C3.16179 7.48036 3.09401 7.63195 3.06689 7.82147C3.03977 8.0615 3.10757 8.27628 3.25668 8.46577C3.41933 8.68054 3.62268 8.84478 3.85313 8.98376C4.05646 9.09745 4.27335 9.19853 4.49023 9.28697C4.95113 9.47646 5.41203 9.61544 5.90005 9.70388C6.17115 9.75439 6.42872 9.77967 6.69983 9.79229C6.8625 9.80493 7.02517 9.79229 7.18782 9.79229C7.37761 9.77967 7.56738 9.76703 7.74361 9.74178C7.97406 9.71649 8.19095 9.66595 8.40784 9.6028C8.50273 9.57754 8.61119 9.53961 8.70606 9.50171H8.71962C9.08562 9.35012 9.39741 9.1227 9.65498 8.83213C9.69563 8.78162 9.73632 8.73108 9.76341 8.68054C9.76341 8.68054 9.76341 8.68054 9.77697 8.6679C9.77697 8.6679 9.77697 8.65529 9.79053 8.65529C9.79053 8.65529 9.79053 8.65529 9.79053 8.64264C9.79053 8.64264 9.79053 8.63 9.80409 8.63L9.81765 8.61739C9.81765 8.61739 9.81765 8.61736 9.81765 8.60475C9.81765 8.60475 9.81765 8.5921 9.83118 8.5921L9.84474 8.57946C9.89899 8.50366 9.93964 8.42787 9.9803 8.33943L9.99386 8.32679C10.0345 8.27628 10.1023 8.25099 10.1701 8.25099C10.3192 8.23838 10.4548 8.22574 10.6039 8.23838C10.7394 8.23838 10.8614 8.25099 10.997 8.25099C11.0512 8.25099 11.119 8.26363 11.1732 8.26363C11.241 8.26363 11.3088 8.27628 11.3766 8.27628C11.3901 8.27628 11.3901 8.27628 11.4037 8.27628C11.4172 8.27628 11.4172 8.27628 11.4308 8.27628C11.4443 8.27628 11.4714 8.27628 11.485 8.27628C11.4985 8.27628 11.4985 8.27628 11.5121 8.27628C11.5257 8.27628 11.5257 8.27628 11.5392 8.27628C11.5528 8.27628 11.5799 8.27628 11.5934 8.27628C11.607 8.27628 11.607 8.27628 11.6206 8.27628C11.6341 8.27628 11.6341 8.27628 11.6477 8.27628C11.6612 8.27628 11.6883 8.27628 11.7019 8.27628C11.7154 8.27628 11.7154 8.27628 11.729 8.27628C11.7426 8.27628 11.7426 8.27628 11.7561 8.27628C11.7697 8.27628 11.7968 8.27628 11.8103 8.27628C11.8239 8.27628 11.8239 8.27628 11.8374 8.27628C11.851 8.27628 11.851 8.27628 11.8645 8.27628C11.8781 8.27628 11.9052 8.27628 11.9188 8.27628C12.0137 8.28889 12.1086 8.28889 12.217 8.30153C12.339 8.31417 12.4475 8.31417 12.5694 8.32679C12.6915 8.33943 12.8135 8.35207 12.9354 8.35207C13.0168 8.36471 13.0981 8.36471 13.1795 8.37733C13.2472 8.37733 13.3286 8.38997 13.3963 8.38997C13.4099 8.38997 13.4099 8.38997 13.4235 8.38997C13.4641 8.40261 13.5048 8.40261 13.5455 8.40261C13.7217 8.41522 13.8979 8.42787 14.0741 8.45312C14.2232 8.46577 14.3724 8.47841 14.5079 8.49105C14.6841 8.50366 14.8468 8.51631 15.0231 8.54156C15.1857 8.5542 15.3348 8.56685 15.4975 8.57946C15.5517 8.57946 15.6059 8.5921 15.6602 8.5921C15.7279 8.60475 15.7957 8.60475 15.8635 8.61739C15.9855 8.63 16.1075 8.64264 16.2295 8.64264C16.3379 8.65529 16.4464 8.65529 16.5548 8.6679C16.6768 8.68054 16.7988 8.69318 16.9073 8.69318C17.0157 8.7058 17.1242 8.7058 17.2326 8.71844C17.3546 8.73108 17.4766 8.74369 17.5851 8.74369C17.7071 8.75634 17.8291 8.76898 17.9511 8.76898C18.0189 8.76898 18.0866 8.78162 18.168 8.78162C18.2764 8.79424 18.3984 8.79424 18.5068 8.80688C18.6424 8.81952 18.7915 8.81952 18.9271 8.83213C18.9949 8.83213 19.0762 8.84478 19.144 8.84478C19.266 8.84478 19.388 8.87003 19.51 8.84478C19.6727 8.81952 19.8218 8.76898 19.9438 8.64264C20.1336 8.45312 20.2149 8.22573 20.2284 7.97306C20.2284 7.84672 20.1742 7.64459 20.0522 7.45507Z" fill="#D47565" stroke="#D47565" stroke-width="2" stroke-linejoin="round"/>
</g>
</svg>
