<svg width="47" height="47" viewBox="0 0 47 47" fill="none" xmlns="http://www.w3.org/2000/svg">
<path d="M7 5.5C7 3.567 8.567 2 10.5 2H43.5C45.433 2 47 3.567 47 5.5V27.5C47 29.433 45.433 31 43.5 31H10.5C8.567 31 7 29.433 7 27.5V5.5Z" fill="white"/>
<rect y="8.22498" width="41.125" height="29.375" rx="3" fill="#797979"/>
<rect x="6" y="17" width="34" height="16" fill="#797979"/>
<rect x="26" y="24" width="7.45652" height="7.45652" rx="3.72826" fill="black"/>
<rect opacity="0.5" x="30.2935" y="24" width="7.45652" height="7.45652" rx="3.72826" fill="#DEDEDE"/>
<rect x="3" y="12" width="22" height="1" fill="white"/>
<rect x="3" y="14" width="11" height="1" fill="white"/>
<path d="M10.74 23.88L7.5 31H6.01L2.77 23.88H4.72L6.77 28.66L8.85 23.88H10.74ZM11.0498 25.92H12.8598V31H11.0498V25.92ZM12.8898 23.43V25.06H10.9998V23.43H12.8898ZM15.9904 31.08C14.9771 31.08 14.1771 30.8767 13.5904 30.47L14.0504 29.24C14.3237 29.4267 14.6337 29.5733 14.9804 29.68C15.3271 29.78 15.6671 29.83 16.0004 29.83C16.2071 29.83 16.3671 29.8 16.4804 29.74C16.5937 29.68 16.6504 29.5967 16.6504 29.49C16.6504 29.3967 16.6071 29.3233 16.5204 29.27C16.4404 29.21 16.2837 29.1567 16.0504 29.11L15.2304 28.92C14.7104 28.8133 14.3337 28.6467 14.1004 28.42C13.8737 28.1867 13.7604 27.8667 13.7604 27.46C13.7604 27.1333 13.8571 26.8433 14.0504 26.59C14.2437 26.3367 14.5104 26.14 14.8504 26C15.1971 25.8533 15.5937 25.78 16.0404 25.78C16.4071 25.78 16.7671 25.8333 17.1204 25.94C17.4737 26.0467 17.8037 26.1967 18.1104 26.39L17.6304 27.59C17.3637 27.4167 17.0904 27.2833 16.8104 27.19C16.5304 27.0967 16.2671 27.05 16.0204 27.05C15.8204 27.05 15.6637 27.0833 15.5504 27.15C15.4371 27.21 15.3804 27.3 15.3804 27.42C15.3804 27.4933 15.4137 27.5533 15.4804 27.6C15.5471 27.64 15.6737 27.6833 15.8604 27.73L16.7104 27.92C17.2504 28.0467 17.6371 28.2333 17.8704 28.48C18.1104 28.72 18.2304 29.05 18.2304 29.47C18.2304 29.97 18.0304 30.3633 17.6304 30.65C17.2371 30.9367 16.6904 31.08 15.9904 31.08ZM24.3588 25.92V31H22.5788V30.31C22.4321 30.55 22.2188 30.74 21.9388 30.88C21.6588 31.0133 21.3521 31.08 21.0188 31.08C20.5854 31.08 20.1988 30.9733 19.8588 30.76C19.5188 30.5467 19.2521 30.2433 19.0588 29.85C18.8721 29.45 18.7788 28.99 18.7788 28.47C18.7788 27.9433 18.8754 27.4767 19.0688 27.07C19.2621 26.6633 19.5288 26.3467 19.8688 26.12C20.2088 25.8933 20.5921 25.78 21.0188 25.78C21.3521 25.78 21.6554 25.8533 21.9288 26C22.2088 26.14 22.4254 26.33 22.5788 26.57V25.92H24.3588ZM21.5788 29.73C21.8988 29.73 22.1454 29.62 22.3188 29.4C22.4921 29.18 22.5788 28.8633 22.5788 28.45C22.5788 28.03 22.4921 27.71 22.3188 27.49C22.1454 27.2633 21.8988 27.15 21.5788 27.15C21.2654 27.15 21.0188 27.2667 20.8388 27.5C20.6588 27.7267 20.5688 28.05 20.5688 28.47C20.5688 28.8767 20.6554 29.19 20.8288 29.41C21.0021 29.6233 21.2521 29.73 21.5788 29.73Z" fill="white"/>
</svg>
