<svg width="109" height="109" viewBox="0 0 109 109" fill="none" xmlns="http://www.w3.org/2000/svg">
<rect width="109" height="109" rx="19" fill="#FFFCFC"/>
<path d="M72.5848 62.8054C72.5848 62.9931 72.5848 63.087 72.4896 63.1809C72.4896 63.2748 72.2993 63.4625 72.1091 63.5564C71.9188 63.7442 71.7285 63.8381 71.5382 63.9319C71.3479 64.0258 71.1576 64.0258 70.8722 64.0258C70.6819 64.0258 70.4916 64.0258 70.3965 63.9319C70.3013 63.8381 70.2062 63.7442 70.2062 63.6503C70.2062 63.5564 70.2062 63.3687 70.3013 63.2748C70.3965 63.1809 70.5867 62.9931 70.8722 62.8054C71.1576 62.6176 71.443 62.5237 71.7285 62.5237C71.9188 62.5237 72.1091 62.5237 72.2993 62.5237C72.4896 62.6176 72.5848 62.7115 72.5848 62.8054ZM90.1865 47.7845C90.567 50.1315 90.1865 52.3846 89.0447 54.45C88.3787 55.5766 87.5224 56.7031 86.2856 57.2664C85.0487 57.8297 83.7167 57.7358 82.4798 57.3603C80.9575 71.2546 69.0644 82.1448 54.6025 82.1448C40.7114 82.1448 29.1038 72.2873 26.8204 59.2379L23.3952 61.1155C22.4437 61.6788 21.0166 62.4299 19.8748 61.9604C19.3991 61.7727 19.1137 61.3972 18.9234 61.0216C18.7331 60.4584 18.638 59.8951 18.638 59.3318C18.638 58.5807 18.8283 57.8297 19.3991 57.3603C19.6846 57.1725 19.97 56.9848 20.2554 56.8909C21.5874 56.5154 23.0146 56.3276 24.3466 55.8582C25.0126 55.6704 25.6786 55.3888 26.3447 55.201C26.3447 54.9194 26.3447 54.7316 26.3447 54.45C26.3447 39.1475 38.9037 26.6613 54.4122 26.5675C64.0218 26.5675 72.4896 31.2615 77.6274 38.4903C78.2934 37.7393 78.8643 36.8943 79.34 35.9555C79.5303 35.58 80.8623 35.1106 80.8623 35.8616C80.8623 36.1433 80.8623 36.331 80.7672 36.6127V36.7066C80.7672 36.8004 80.7672 36.9882 80.7672 37.0821C80.7672 37.176 80.7672 37.2699 80.7672 37.3637C80.7672 37.6454 80.7672 37.927 80.672 38.3025C80.672 38.3964 80.672 38.4903 80.672 38.5842C80.672 38.9597 80.5769 39.3352 80.5769 39.7107C80.5769 39.9924 80.5769 40.3679 80.4818 40.6496C80.4818 40.7434 80.4818 40.8373 80.4818 40.9312C80.4818 41.0251 80.4818 41.2128 80.4818 41.3067C80.4818 41.4006 80.4818 41.4006 80.4818 41.4945C80.4818 41.4945 80.4818 41.4945 80.4818 41.5884C80.4818 41.6822 80.4818 41.7761 80.4818 41.87C80.4818 41.9639 80.4818 42.0578 80.4818 42.1516C80.4818 42.2455 80.4818 42.4333 80.4818 42.5272C80.4818 42.8088 80.4818 43.0904 80.4818 43.466C80.4818 43.466 80.4818 43.466 80.4818 43.5599C80.4818 44.4048 80.5769 45.2497 80.672 46.0007C80.9575 47.9722 81.1478 50.2254 82.4798 51.9152C82.4798 52.0091 82.5749 52.0091 82.6701 52.103C82.7652 52.1969 82.7652 52.1969 82.8604 52.2907C83.0507 52.4785 83.2409 52.6663 83.4312 52.7602C83.6215 52.9479 83.8118 53.1357 84.0972 53.2296C84.1924 53.2296 84.1924 53.3234 84.2875 53.3234C84.2875 53.3234 84.3827 53.3234 84.3827 53.4173C84.3827 53.4173 84.4778 53.4173 84.4778 53.5112C84.4778 53.5112 84.4778 53.5112 84.573 53.5112C84.573 53.5112 84.6681 53.5112 84.6681 53.6051H84.7632C84.7632 53.6051 84.8584 53.6051 84.8584 53.699H84.9535C84.9535 53.699 84.9535 53.699 85.0487 53.699C85.0487 53.699 85.0487 53.699 85.1438 53.699H85.239H85.3341H85.4293H85.5244H85.6195H85.7147H85.8098H85.905H86.0001C86.0001 53.699 86.0001 53.699 86.0953 53.699H86.1904H86.2856H86.3807H86.4758H86.571C86.571 53.699 86.571 53.699 86.6661 53.699C86.6661 53.699 86.6661 53.699 86.7613 53.699H86.8564H86.9516C86.9516 53.699 86.9516 53.699 87.0467 53.699C87.0467 53.699 87.0467 53.699 87.1419 53.699C87.1419 53.699 87.237 53.699 87.237 53.6051L87.3321 53.5112C87.3321 53.5112 87.3321 53.5112 87.4273 53.4173L87.5224 53.3234C87.5224 53.3234 87.5224 53.3234 87.6176 53.2296L87.7127 53.1357C87.7127 53.1357 87.7127 53.0418 87.8079 53.0418V52.9479C87.8079 52.9479 87.8079 52.9479 87.8079 52.854C87.8079 52.854 87.8079 52.854 87.8079 52.7602V52.6663C87.8079 52.6663 87.8079 52.6663 87.8079 52.5724V52.4785C87.8079 52.4785 87.8079 52.4785 87.8079 52.3846V52.2907C87.8079 52.1969 87.903 52.103 87.903 52.0091C87.9981 51.7275 87.9982 51.4458 88.0933 51.1642C88.6642 46.9396 86.8564 40.6496 83.0507 38.3025L82.9555 38.2087C82.9555 38.2087 82.9555 38.2087 82.8604 38.1148V38.0209V37.927C82.8604 37.927 82.8604 37.927 82.8604 37.8331C82.8604 37.8331 82.9555 37.8331 82.9555 37.7393C83.2409 37.5515 83.6215 37.3637 83.907 37.5515C85.0487 38.3025 86.0001 39.4291 86.7613 40.5557C88.6642 42.621 89.7107 45.1558 90.1865 47.7845ZM34.1465 55.3888C38.428 54.1684 42.8998 53.5112 47.3715 53.2296C48.7987 53.1357 50.2259 53.0418 51.653 53.0418C53.7462 53.0418 55.9345 53.0418 58.0277 53.0418C59.0743 52.2907 60.1209 50.7887 60.1209 47.9722C59.9306 47.9722 59.8354 48.0661 59.6452 48.0661C53.2705 49.9437 46.7055 50.7887 40.2357 52.0091C38.9037 52.1969 37.6668 52.5724 36.3348 52.9479C35.9542 53.0418 35.5737 53.1357 35.0979 53.3234C34.6222 54.0745 34.0513 55.0133 34.1465 55.3888ZM33.6708 53.7928C32.9096 54.0745 32.0533 54.3561 31.2922 54.6378C29.5796 55.201 27.9621 55.8582 26.2495 56.4215C25.4884 56.7031 24.7272 56.9848 23.966 57.1725C23.2049 57.4542 22.4437 57.7358 21.6826 57.8297C21.302 57.8297 20.8263 57.9236 20.5409 58.2052C19.97 58.6746 20.0651 59.6134 20.4457 60.1767C21.0166 61.1155 22.2534 60.74 23.0146 60.3645C23.966 59.989 24.7272 59.4257 25.5835 58.9563C26.7252 58.393 27.7718 57.8297 28.9135 57.3603C29.865 56.797 31.1019 56.2337 32.529 55.9521C32.529 55.9521 33.5756 54.6378 33.6708 53.7928ZM37.2862 63.2748C38.0474 62.2421 38.7134 61.3972 39.3794 60.74C39.9503 60.0828 40.3309 59.7073 40.5212 59.6134C40.6163 59.4257 40.7114 59.3318 40.6163 59.2379C40.5212 59.144 40.426 59.0501 40.3309 58.9563C40.2357 58.9563 40.0454 58.9563 39.8551 58.9563C39.6649 58.9563 39.4746 59.0502 39.1891 59.144C38.9037 59.2379 38.428 59.8951 37.5717 61.0216C36.7154 62.1482 36.2397 62.7115 36.1445 62.8054C36.0494 62.8993 35.9542 62.9931 35.8591 63.087C35.7639 63.1809 35.6688 63.1809 35.6688 63.1809C35.5737 63.1809 35.5737 63.087 35.5737 62.9931V62.8054C35.5737 60.8339 35.4785 59.7073 35.3834 59.3318C35.2882 58.9563 35.0979 58.6746 35.0028 58.6746C34.8125 58.6746 34.7174 58.6746 34.5271 58.6746C34.4319 58.6746 34.3368 58.7685 34.2416 58.8624C34.2416 58.9563 34.1465 59.0501 34.1465 59.2379C34.1465 59.4257 34.0513 59.8951 34.0513 60.6461C34.0513 61.3972 34.0513 62.1482 34.1465 62.8993C34.2416 63.6503 34.3368 64.1197 34.3368 64.4013V64.9646C34.3368 65.0585 34.4319 65.1524 34.6222 65.3401C34.8125 65.434 35.0028 65.5279 35.2882 65.434C35.5736 65.434 35.7639 65.3402 35.9542 65.1524C36.1445 64.8708 36.5251 64.3075 37.2862 63.2748ZM43.9463 63.9319C43.8512 63.6503 43.6609 63.3687 43.6609 63.087C43.6609 62.8993 43.5658 62.6176 43.4706 62.4299C43.3755 62.336 43.3755 62.2421 43.2803 62.1482C43.1852 62.0543 42.9949 61.9604 42.8046 61.9604C42.6143 61.9604 42.5192 62.0543 42.424 62.1482C42.3289 62.2421 42.3289 62.336 42.3289 62.5237C42.3289 62.6176 42.3289 62.8054 42.3289 62.9931C42.3289 63.1809 42.2337 63.2748 42.2337 63.4625C42.1386 63.5564 42.0435 63.7442 41.758 63.8381C41.4726 63.9319 41.2823 64.0258 41.1872 63.9319C40.9969 63.9319 40.9017 63.8381 40.7114 63.7442C40.6163 63.6503 40.5212 63.4625 40.426 63.087C40.426 62.8993 40.5212 62.8054 40.5212 62.8054L40.6163 62.7115C40.6163 62.7115 40.6163 62.6176 40.5212 62.4299C40.426 62.336 40.3309 62.2421 40.2357 62.1482C40.1406 62.0543 39.9503 62.0543 39.8551 62.1482C39.76 62.1482 39.5697 62.2421 39.4746 62.4299C39.3794 62.6176 39.2843 62.8054 39.2843 63.087C39.2843 63.3687 39.2843 63.6503 39.4746 63.9319C39.6649 64.2136 39.8551 64.4013 40.2357 64.5891C40.5212 64.7769 40.9017 64.8707 41.092 64.9646C41.3775 65.0585 41.6629 64.9646 41.9483 64.9646C42.2337 64.8707 42.5192 64.7769 42.7095 64.683C42.8046 64.5891 42.8998 64.4952 42.9949 64.4013C42.9949 64.4952 43.09 64.4952 43.09 64.5891C43.1852 64.8707 43.4706 64.9646 43.7561 64.8707C43.9463 64.5891 44.1366 64.2136 43.9463 63.9319ZM50.1307 61.5849C50.0356 61.491 49.8453 61.3972 49.7501 61.3033C49.5599 61.3033 49.4647 61.3033 49.2744 61.3033C49.0841 61.3033 48.989 61.3972 48.8938 61.491C48.7987 61.5849 48.7987 61.6788 48.7036 61.7727C48.6084 61.8666 48.1327 62.336 47.1813 63.2748C46.991 63.4625 46.8007 63.5564 46.7055 63.6503C46.6104 63.7442 46.5152 63.7442 46.4201 63.7442C46.325 63.7442 46.2298 63.6503 46.1347 63.4625C45.9444 63.2748 45.8492 63.087 45.7541 62.8054C45.6589 62.5237 45.4687 62.336 45.3735 62.1482C45.2784 61.9604 45.0881 61.9604 44.9929 61.8666C44.8026 61.8666 44.7075 61.8666 44.5172 61.9604C44.3269 62.0543 44.2318 62.1482 44.2318 62.2421C44.1366 62.4299 44.2318 62.5237 44.3269 62.6176C44.4221 62.7115 44.7075 63.1809 45.2784 63.8381C45.7541 64.5891 46.1347 64.9646 46.325 64.9646C46.5152 64.9646 46.7055 65.0585 46.8958 64.9646C47.0861 64.9646 47.1813 64.8707 47.3715 64.7769C47.5618 64.683 47.8473 64.4013 48.1327 63.9319C48.5133 63.4625 48.8938 63.087 49.1793 62.6176C49.4647 62.2421 49.7501 61.9604 49.9404 61.8666C50.1307 61.7727 50.2259 61.6788 50.321 61.5849C50.2259 61.8666 50.2259 61.6788 50.1307 61.5849ZM54.9831 63.9319C54.8879 63.6503 54.6977 63.3687 54.6977 63.087C54.6977 62.8993 54.6025 62.6176 54.5074 62.4299C54.4122 62.336 54.4122 62.2421 54.3171 62.1482C54.2219 62.0543 54.0316 61.9604 53.8414 61.9604C53.6511 61.9604 53.5559 62.0543 53.4608 62.1482C53.3656 62.2421 53.3656 62.336 53.3656 62.5237C53.3656 62.6176 53.3656 62.8054 53.3656 62.9931C53.3656 63.1809 53.2705 63.2748 53.2705 63.4625C53.1753 63.5564 53.0802 63.7442 52.7948 63.8381C52.5093 63.9319 52.319 64.0258 52.2239 63.9319C52.0336 63.9319 51.9385 63.8381 51.7482 63.7442C51.653 63.6503 51.5579 63.4625 51.4627 63.087C51.4627 62.8993 51.5579 62.8054 51.5579 62.8054L51.653 62.7115C51.653 62.7115 51.653 62.6176 51.5579 62.4299C51.4627 62.336 51.3676 62.2421 51.2725 62.1482C51.1773 62.0543 50.987 62.0543 50.8919 62.1482C50.7967 62.1482 50.6064 62.2421 50.5113 62.4299C50.4162 62.6176 50.321 62.8054 50.321 63.087C50.321 63.3687 50.321 63.6503 50.5113 63.9319C50.7016 64.2136 50.8919 64.4013 51.2725 64.5891C51.5579 64.7769 51.9385 64.8707 52.1288 64.9646C52.4142 65.0585 52.6996 64.9646 52.9851 64.9646C53.2705 64.8707 53.5559 64.7769 53.7462 64.683C53.8414 64.5891 53.9365 64.4952 54.0316 64.4013C54.0316 64.4952 54.1268 64.4952 54.1268 64.5891C54.2219 64.8707 54.5074 64.9646 54.7928 64.8707C54.8879 64.5891 55.0782 64.2136 54.9831 63.9319ZM61.1675 63.8381C61.1675 63.7442 61.0723 63.6503 60.9772 63.6503C60.882 63.6503 60.5966 63.6503 60.0257 63.6503C59.4549 63.6503 59.1694 63.6503 58.9791 63.5564C58.7889 63.5564 58.7889 63.4625 58.884 63.4625C58.9791 63.4625 59.0743 63.2748 59.3597 63.1809C59.6452 62.9931 59.9306 62.8054 60.216 62.5237C60.5014 62.2421 60.6917 62.0543 60.7869 61.9604C60.7869 61.8666 60.7869 61.6788 60.7869 61.6788C60.7869 61.5849 60.5966 61.491 60.4063 61.491C60.216 61.491 59.2646 61.3972 57.552 61.3972C57.1714 61.3972 56.7908 61.491 56.6005 61.491C56.4102 61.5849 56.22 61.5849 56.1248 61.6788C56.0297 61.7727 55.9345 61.8666 55.9345 61.9604C55.9345 62.0543 55.9345 62.1482 56.0297 62.1482C56.1248 62.2421 56.3151 62.2421 56.5054 62.2421C56.6957 62.2421 57.0763 62.2421 57.7423 62.2421C58.4083 62.2421 58.7889 62.2421 58.884 62.2421C59.0743 62.2421 59.0743 62.336 59.1694 62.336C59.1694 62.336 59.1694 62.4299 59.0743 62.5237C58.9791 62.6176 58.884 62.6176 58.7889 62.7115C58.6937 62.8054 58.218 63.087 57.2665 63.4625C56.4102 63.9319 55.8394 64.1197 55.7442 64.2136C55.5539 64.3075 55.5539 64.4013 55.5539 64.4952C55.5539 64.5891 55.6491 64.683 55.7442 64.683C55.8394 64.683 56.0297 64.683 56.5054 64.683C56.886 64.683 57.3617 64.5891 57.9326 64.5891C58.5034 64.5891 59.0743 64.5891 59.7403 64.5891C60.4063 64.5891 60.7869 64.5891 60.882 64.4952C60.9772 64.4952 61.0723 64.4013 61.1675 64.2136C61.2626 64.1197 61.2626 64.0258 61.1675 63.8381ZM66.0198 64.4952C66.0198 64.4013 65.9247 64.3075 65.8295 64.2136C65.7344 64.1197 65.5441 64.1197 65.3538 64.1197C65.1635 64.1197 64.9732 64.1197 64.6878 64.1197C64.4975 64.1197 64.2121 64.0258 63.9266 63.9319C63.6412 63.8381 63.5461 63.7442 63.5461 63.6503C63.5461 63.5564 63.5461 63.5564 63.6412 63.5564C63.7364 63.5564 63.8315 63.5564 64.0218 63.5564C64.2121 63.5564 64.4024 63.5564 64.6878 63.5564C64.9732 63.5564 65.1635 63.4625 65.2587 63.3687C65.3538 63.2748 65.449 63.1809 65.449 62.9931C65.449 62.8054 65.449 62.6176 65.3538 62.4299C65.2587 62.2421 65.0684 62.1482 64.8781 61.9604C64.6878 61.8666 64.4024 61.7727 64.1169 61.6788C63.8315 61.6788 63.4509 61.6788 63.0703 61.7727C62.6898 61.8666 62.4043 62.0543 62.214 62.2421C62.0238 62.4299 61.9286 62.7115 61.9286 62.8993C61.9286 63.087 62.0238 63.3687 62.1189 63.5564C62.3092 63.9319 62.5946 64.2136 62.9752 64.3075C63.2606 64.4013 63.6412 64.4952 64.0218 64.5891C64.4024 64.683 64.7829 64.683 65.0684 64.683C65.3538 64.683 65.6392 64.5891 65.8295 64.5891C65.9247 64.683 66.0198 64.5891 66.0198 64.4952ZM68.5887 59.3318C68.4936 59.2379 68.3984 59.144 68.3033 59.144C68.113 59.144 68.0178 59.144 67.9227 59.144C67.8276 59.144 67.7324 59.2379 67.6373 59.3318C67.5421 59.4257 67.5421 59.7073 67.5421 59.989C67.5421 60.2706 67.5421 60.8339 67.447 61.5849C67.3518 62.2421 67.2567 63.087 66.9713 63.9319C66.9713 64.0258 66.9713 64.0258 66.9713 64.1197C66.9713 64.1197 66.9713 64.2136 66.8761 64.2136C66.8761 64.3075 66.781 64.4013 66.781 64.4013C66.781 64.4952 66.6858 64.5891 66.781 64.683C66.781 64.7769 66.8761 64.8707 66.9713 64.9646C67.0664 65.0585 67.2567 65.0585 67.3518 65.0585C67.447 65.0585 67.6373 65.0585 67.8276 64.9646C68.0178 64.8707 68.113 64.7769 68.2081 64.5891C68.3033 64.4013 68.3984 64.0258 68.4936 63.4625C68.5887 62.8993 68.6839 62.0543 68.779 61.0216C68.6839 59.989 68.6839 59.4257 68.5887 59.3318ZM74.5828 64.9646C74.5828 64.7769 74.4877 64.4013 74.2974 63.7442C74.1071 63.1809 73.9168 62.7115 73.6314 62.336C73.3459 62.0543 73.0605 61.8666 72.7751 61.7727C72.4896 61.7727 72.2042 61.6788 72.0139 61.6788C71.7285 61.6788 71.443 61.6788 71.1576 61.8666C70.8722 61.9604 70.5867 62.1482 70.3013 62.336C69.8256 62.7115 69.5402 63.087 69.445 63.3687C69.3499 63.6503 69.3499 63.9319 69.3499 64.1197C69.3499 64.3075 69.5402 64.4013 69.7304 64.5891C69.9207 64.683 70.2062 64.7769 70.3965 64.7769C70.5867 64.7769 70.9673 64.7769 71.443 64.683C71.9188 64.5891 72.2993 64.4952 72.6799 64.3075C72.9654 64.1197 73.1556 64.1197 73.1556 64.2136C73.1556 64.3075 73.2508 64.5891 73.4411 64.7769C73.6314 65.0585 73.7265 65.1524 73.9168 65.2463C74.1071 65.2463 74.2974 65.2463 74.3925 65.2463C74.4877 65.2463 74.5828 65.1524 74.5828 64.9646ZM87.8079 55.0133C85.239 56.6093 82.3846 55.201 80.9575 52.6663C78.4837 48.4416 78.7692 43.466 79.1497 38.7719C75.2488 43.3721 68.2081 45.7191 62.214 47.5028C61.6432 48.4416 60.5014 50.7887 60.3112 53.1357C61.3577 53.1357 62.4043 53.2296 63.4509 53.2296C67.3518 53.4173 71.1576 53.699 75.0585 54.0745C77.4371 54.3561 79.8157 54.7316 82.0041 55.4827C82.5749 55.6704 83.1458 56.046 83.8118 56.2337C84.573 56.5154 85.4293 56.5154 86.1904 56.2337C86.571 56.1399 86.8564 55.9521 87.237 55.7643C87.4273 55.6704 87.5224 55.5766 87.7127 55.3888C87.5224 55.2949 87.7127 55.1072 87.8079 55.0133ZM64.1169 62.8993C64.2121 62.8993 64.2121 62.8054 64.2121 62.7115C64.2121 62.6176 64.1169 62.6176 64.0218 62.5237C63.9266 62.5237 63.8315 62.4299 63.7364 62.4299C63.6412 62.4299 63.5461 62.4299 63.4509 62.4299C63.3558 62.4299 63.3558 62.5237 63.3558 62.5237C63.3558 62.5237 63.3558 62.6176 63.5461 62.7115C63.7364 62.8993 64.0218 62.8993 64.1169 62.8993ZM89.235 59.8012C88.0933 60.3645 87.0467 60.6461 86.1904 60.8339C83.1458 75.1976 70.3013 85.9 54.8879 85.9C40.9017 85.9 29.0087 76.9813 24.7272 64.5891L22.1583 65.8096C20.7311 66.3728 17.6865 65.6218 17.1157 64.2136L15.1176 59.2379C14.5468 57.8297 16.1642 54.9194 17.5914 54.3561L23.1097 52.7602C24.0612 36.1433 37.9523 23 54.8879 23C63.9266 23 72.1091 26.7552 77.9129 32.7636C78.1031 32.6697 78.3886 32.5758 78.5789 32.4819C83.2409 30.6982 89.4253 35.2984 92.3748 42.7149C95.3243 50.1315 93.7068 57.6419 89.235 59.8012ZM92.2796 48.8172C92.2796 48.3478 92.1845 47.9722 92.1845 47.5028C91.7088 43.8415 89.9962 40.3679 87.0467 36.9882C85.905 35.6739 83.6215 33.4207 80.9575 33.4207C80.2915 33.4207 79.6255 33.5146 79.0546 33.7963C78.3886 34.0779 78.008 34.5473 77.6274 35.0167C71.9188 28.3512 63.5461 24.5021 54.6025 24.5021H54.5074C53.6511 24.5021 52.7948 24.5021 51.9385 24.596C36.7154 25.9103 24.7272 38.3964 24.4418 53.699C24.2515 53.8867 24.0612 53.9806 23.8709 53.9806C23.3 54.1684 22.634 54.2622 21.968 54.45C21.2069 54.6378 20.5409 54.7316 19.7797 55.0133C19.2088 55.201 18.638 55.4827 18.1622 55.9521C17.2108 56.797 16.7351 58.0175 16.7351 59.4257C16.7351 60.0828 18.2574 63.5564 19.2088 63.9319C19.6846 64.1197 20.1603 64.2136 20.7311 64.2136C22.1583 64.2136 23.4903 63.5564 24.3466 62.9931L25.4884 62.336C29.0087 75.1037 40.9017 84.2101 54.6025 84.2101H54.6977C69.445 84.1163 81.8138 73.6955 84.2875 59.6134C84.3827 59.6134 84.4778 59.6134 84.4778 59.6134C85.4293 59.6134 86.3807 59.4257 87.237 59.0502C90.567 57.5481 92.4699 53.699 92.2796 48.8172Z" fill="#787878"/>
</svg>
