<svg width="109" height="109" viewBox="0 0 109 109" fill="none" xmlns="http://www.w3.org/2000/svg">
<rect width="109" height="109" rx="19" fill="#FFFCFC"/>
<path d="M83.7326 37.1883C83.6485 36.8179 83.5925 36.5045 83.5925 36.248C83.5925 35.6212 83.8027 35.3078 84.223 35.3078C84.8255 35.3078 85.1198 35.9346 85.1198 37.2025C85.1198 37.7438 84.9656 38.157 84.6574 38.4561C84.1109 38.969 83.004 39.3679 81.3226 39.6243C80.1036 39.8095 78.8986 39.9092 77.7216 39.9092C76.6287 39.9092 76.0823 39.6813 76.0823 39.2111C76.0823 38.8265 76.6848 38.5843 77.8898 38.4846C79.0948 38.3849 80.2858 38.3137 81.4767 38.2567C82.7938 38.0857 83.5504 37.7296 83.7326 37.1883ZM88.0482 35.0514C88.5105 35.0514 88.7347 35.7209 88.7347 37.0458V41.0204C90.9626 41.0204 93.0643 41.1343 95.054 41.3765C97.2958 41.6472 98.6129 42.8438 99.0192 44.9379C99.2014 45.8782 99.3695 47.8726 99.5096 50.9069C99.6918 54.682 99.8039 58.158 99.8319 61.3205V61.5485C99.8459 62.7594 99.6357 63.3577 99.2014 63.3577C98.767 63.3577 98.5148 62.6881 98.4588 61.3348C98.4027 58.9273 98.2906 55.3373 98.1085 50.5508C98.0664 49.639 98.0244 48.7416 97.9684 47.8583C97.8983 46.8041 97.7722 45.9209 97.6181 45.2229C97.2678 43.8125 96.371 43.0005 94.9138 42.7726C93.4566 42.5447 91.1727 42.4449 88.0482 42.4449C84.9516 42.4449 82.6817 42.5589 81.2385 42.7726C79.7953 43.0005 78.8706 43.8125 78.4923 45.2229C78.3241 45.8497 78.17 47.4594 78.0019 50.0237C77.9318 52.5167 77.8057 56.2918 77.6516 61.3348C77.6095 62.6881 77.3713 63.3577 76.909 63.3577C76.4886 63.3577 76.2784 62.7166 76.2784 61.4345V61.3205C76.2924 57.5169 76.3905 54.0267 76.5587 50.8499C76.6287 49.3541 76.6848 48.3569 76.7268 47.8726C76.8109 46.7471 76.951 45.7642 77.1051 44.9237C77.5115 42.8296 78.8426 41.6472 81.0984 41.3623C83.1021 41.1201 85.1898 41.0061 87.3616 41.0061V37.06C87.3476 35.7209 87.5718 35.0514 88.0482 35.0514ZM81.3787 49.055C81.3787 48.8555 81.3646 48.5564 81.3226 48.1575C81.2806 47.7586 81.2666 47.4594 81.2666 47.26C81.2666 47.0606 81.2806 46.7471 81.2946 46.334C81.3086 45.9209 81.3226 45.5932 81.3226 45.3796C81.3226 44.3396 81.5048 43.8268 81.8691 43.8268C82.3314 43.8268 82.5977 44.5391 82.6957 45.9636C84.4752 45.9066 86.2407 45.8782 87.9921 45.8782C89.7155 45.8782 91.439 45.9066 93.1344 45.9636C93.2044 44.5391 93.4707 43.8268 93.919 43.8268C94.3814 43.8268 94.6056 45.1374 94.6056 47.7443C94.6056 49.9097 94.1712 51.2773 93.3165 51.8614C92.728 52.2318 91.2148 52.4882 88.7487 52.6164V54.7817C90.4722 54.8245 92.1676 54.9242 93.8069 55.0809C95.2081 55.2091 95.9087 55.5225 95.9087 55.9926C95.9087 56.3488 95.4743 56.5197 94.6196 56.5197C93.947 56.5197 92.9662 56.477 91.6912 56.3773C90.304 56.2633 89.3232 56.2063 88.7347 56.1778V59.6823C90.248 59.6965 91.7192 59.782 93.1624 59.9387C95.5864 60.1951 96.7914 60.6083 96.7914 61.1638C96.7914 61.4772 96.4551 61.6339 95.7826 61.6339C95.5023 61.6339 95.138 61.6055 94.6897 61.5485C92.3077 61.2208 90.0939 61.0499 88.0482 61.0499C85.9464 61.0499 83.8447 61.2208 81.7009 61.5485C81.1685 61.6197 80.7621 61.6624 80.4679 61.6624C79.8794 61.6624 79.5852 61.52 79.5852 61.2208C79.5852 60.3518 82.1633 59.839 87.3196 59.6965V56.1921C85.9184 56.2348 84.2931 56.3345 82.4575 56.4912C82.1353 56.534 81.841 56.5482 81.6169 56.5482C80.7762 56.5482 80.3558 56.363 80.3558 55.9926C80.3558 55.2946 82.6817 54.8815 87.3196 54.7675V52.6021C86.3528 52.5594 85.4 52.5309 84.4472 52.4882C83.4384 52.4027 82.7098 52.132 82.2334 51.6904C81.6869 51.1348 81.3787 50.2658 81.3787 49.055ZM87.5858 51.2203C89.5894 51.2203 90.8505 51.1776 91.3829 51.0779C92.5879 50.8499 93.1904 50.1661 93.1904 48.998C93.1904 48.3284 93.1764 47.7871 93.1344 47.3597C91.439 47.2885 89.7296 47.2457 87.9921 47.2457C86.2407 47.2457 84.4752 47.2885 82.6957 47.3597C82.7658 49.5963 83.3823 50.8499 84.5313 51.1063C84.8956 51.1918 85.9184 51.2203 87.5858 51.2203ZM100 39.1969C100 39.667 99.4536 39.8949 98.3607 39.8949C97.8843 39.8949 96.8334 39.8095 95.1941 39.6385C92.3497 39.3536 90.9346 38.5843 90.9346 37.3022C90.9346 35.9631 91.2428 35.3078 91.8593 35.3078C92.2797 35.3078 92.4898 35.6212 92.4898 36.248C92.4898 36.5045 92.4478 36.8179 92.3497 37.1883C92.4618 37.7011 93.1764 38.043 94.5075 38.2139C95.7125 38.2852 96.9315 38.3706 98.1505 38.4704C99.3835 38.5701 100 38.798 100 39.1969Z" fill="#787878"/>
<path d="M20.5964 46.3482C23.8331 46.3482 26.3271 46.4337 28.0506 46.6189C29.4517 46.7614 30.1523 47.0748 30.1523 47.5306C30.1523 47.8868 29.732 48.0577 28.8632 48.0577C27.9525 48.0577 26.5793 48.0007 24.7298 47.901C22.8943 47.8013 21.5072 47.7443 20.5824 47.7443V59.2691C22.544 59.2834 24.6458 59.4258 26.8736 59.6822C30.1523 60.0669 31.7917 60.594 31.7917 61.235C31.7917 61.5342 31.4974 61.6766 30.9229 61.6766C30.6847 61.6766 30.2784 61.6339 29.6899 61.5342C26.117 60.9644 22.8523 60.6794 19.8818 60.6794C16.9534 60.6794 13.6887 60.9644 10.1017 61.5342C9.51325 61.6339 9.0929 61.6766 8.81267 61.6766C8.26622 61.6766 8 61.5342 8 61.2635C8 60.7649 8.70058 60.3803 10.1017 60.1239C12.5257 59.6537 15.5522 59.3688 19.2093 59.2549V47.7301C18.2985 47.7301 16.9114 47.787 15.0618 47.8868C13.2123 47.9865 11.8252 48.0435 10.9004 48.0435C10.0457 48.0435 9.61133 47.8725 9.61133 47.5164C9.61133 47.0605 10.3119 46.7471 11.7131 46.6046C13.5206 46.4195 16.0146 46.334 19.2093 46.334V38.0999C18.2284 38.0999 16.6872 38.1712 14.6135 38.2994C12.6098 38.4133 11.0825 38.4846 10.0457 38.4846C9.17697 38.4846 8.7286 38.3136 8.7286 37.9575C8.7286 37.4731 9.42918 37.174 10.8303 37.0458C13.1422 36.8178 16.1687 36.7039 19.9098 36.7039C23.749 36.7039 26.7755 36.8178 28.9613 37.0315C30.3625 37.174 31.0631 37.4874 31.0631 37.9432C31.0631 38.2994 30.6287 38.4703 29.746 38.4703C28.7091 38.4703 27.1818 38.3991 25.1782 38.2709C23.1045 38.1427 21.5772 38.0714 20.5824 38.0714V46.3482H20.5964Z" fill="#787878"/>
<path d="M25.2482 54.6393C26.2291 54.3686 26.9997 53.5851 27.2659 52.5879C27.2939 52.4739 27.4481 52.4739 27.4761 52.5879C27.7423 53.5851 28.5129 54.3686 29.4938 54.6393C29.5918 54.6678 29.5918 54.8245 29.4938 54.853C28.5129 55.1237 27.7423 55.9072 27.4761 56.9044C27.4481 57.0183 27.2939 57.0183 27.2659 56.9044C26.9997 55.9072 26.2291 55.1237 25.2482 54.853C25.1502 54.8245 25.1502 54.6678 25.2482 54.6393Z" fill="#787878"/>
<path d="M43.3652 49.1974H43.4633C43.4353 49.2116 43.3933 49.2116 43.3652 49.1974Z" fill="#787878"/>
<path d="M53.8879 49.1974H53.986C53.958 49.2116 53.93 49.2116 53.8879 49.1974Z" fill="#787878"/>
<path d="M54 49.1974H54.0981C54.0701 49.2116 54.028 49.2116 54 49.1974Z" fill="#787878"/>
<path d="M43.2532 49.1974H43.3513C43.3232 49.2116 43.2952 49.2116 43.2532 49.1974Z" fill="#787878"/>
<path d="M48.6756 54.6108C45.7332 54.6108 43.3652 52.189 43.3652 49.2117C46.2937 49.2117 48.6756 51.6192 48.6756 54.6108Z" fill="#787878"/>
<path d="M48.6757 54.6108C51.6041 54.6108 53.986 52.189 53.986 49.2117C51.0576 49.2117 48.6757 51.6192 48.6757 54.6108Z" fill="#787878"/>
<path d="M43.3652 49.2116C43.3652 46.22 45.7472 43.8125 48.6756 43.8125C48.6756 46.7899 46.2937 49.2116 43.3652 49.2116Z" fill="#787878"/>
<path d="M54 49.2116C54 46.22 51.6181 43.8125 48.6896 43.8125C48.6756 46.7899 51.0576 49.2116 54 49.2116Z" fill="#787878"/>
<path d="M59.3104 54.5965C56.368 54.5965 54 52.1747 54 49.1974C56.9284 49.1974 59.3104 51.6192 59.3104 54.5965Z" fill="#787878"/>
<path d="M59.3104 54.5965C62.2529 54.5965 64.6208 52.1747 64.6208 49.1974C61.6924 49.1974 59.3104 51.6192 59.3104 54.5965Z" fill="#787878"/>
<path d="M54 49.2116C54 46.22 56.382 43.8125 59.3104 43.8125C59.3104 46.7899 56.9284 49.2116 54 49.2116Z" fill="#787878"/>
<path d="M64.6208 49.2116C64.6208 46.22 62.2388 43.8125 59.3104 43.8125C59.3104 46.7899 61.6924 49.2116 64.6208 49.2116Z" fill="#787878"/>
<path d="M48.6756 43.8125C45.7332 43.8125 43.3652 41.3908 43.3652 38.4134C46.2937 38.3991 48.6756 40.8209 48.6756 43.8125Z" fill="#787878"/>
<path d="M48.6757 43.8125C51.6041 43.8125 53.986 41.3908 53.986 38.4134C51.0576 38.3991 48.6757 40.8209 48.6757 43.8125Z" fill="#787878"/>
<path d="M54 38.4134C54 35.4218 51.6181 33.0143 48.6896 33.0143C48.6756 35.9916 51.0576 38.4134 54 38.4134Z" fill="#787878"/>
<path d="M59.3104 43.7983C56.368 43.7983 54 41.3765 54 38.3992C56.9284 38.3992 59.3104 40.8209 59.3104 43.7983Z" fill="#787878"/>
<path d="M59.3104 43.7983C62.2529 43.7983 64.6208 41.3765 64.6208 38.3992C61.6924 38.3992 59.3104 40.8209 59.3104 43.7983Z" fill="#787878"/>
<path d="M54 38.3991C54 35.4075 56.382 33 59.3104 33C59.3104 35.9916 56.9284 38.3991 54 38.3991Z" fill="#787878"/>
<path d="M48.6757 65.4234C51.6181 65.4234 53.986 63.0016 53.986 60.0242C51.0576 60.01 48.6757 62.4318 48.6757 65.4234Z" fill="#787878"/>
<path d="M43.3652 60.0241C43.3652 57.0325 45.7472 54.625 48.6756 54.625C48.6756 57.6024 46.2937 60.0241 43.3652 60.0241Z" fill="#787878"/>
<path d="M54 60.0241C54 57.0325 51.6181 54.625 48.6896 54.625C48.6756 57.6024 51.0576 60.0241 54 60.0241Z" fill="#787878"/>
<path d="M59.3104 65.409C56.368 65.409 54 62.9872 54 60.0099C56.9284 60.0099 59.3104 62.4317 59.3104 65.409Z" fill="#787878"/>
<path d="M54 60.01C54 57.0184 56.382 54.6108 59.3104 54.6108C59.3104 57.6024 56.9284 60.01 54 60.01Z" fill="#787878"/>
<path d="M64.6208 60.01C64.6208 57.0184 62.2388 54.6108 59.3104 54.6108C59.3104 57.6024 61.6924 60.01 64.6208 60.01Z" fill="#787878"/>
<path d="M35.4346 84.9404C35.4346 85.268 35.4486 85.268 33.9214 85.268V79.8689L31.3433 72.2047C31.2732 71.9625 31.3012 71.9625 33.0667 71.9625L33.8093 74.5695C34.1876 75.7804 34.692 77.9885 34.72 78.5441C34.7761 77.9885 35.2945 75.7804 35.6588 74.5695L36.3174 72.2474C36.4154 71.9625 36.4154 71.9625 37.9707 71.9625L35.4486 79.7977V84.9404H35.4346Z" fill="#787878"/>
<path d="M42.4124 85.4528C40.1846 85.4528 39.6101 84.4271 39.6101 82.2903V76.0506C39.6101 75.7515 39.6101 75.7515 41.1794 75.7515V82.4327C41.1794 83.6721 41.4176 84.1137 42.4264 84.1137C42.7627 84.1137 43.2811 84.0425 43.6735 83.7718V76.0649C43.6735 75.7657 43.6875 75.7657 45.1867 75.7657V84.7833C44.4861 85.1679 43.4213 85.4528 42.4124 85.4528Z" fill="#787878"/>
<path d="M57.3207 71.9479V73.0733C57.3207 73.3155 57.2226 73.4009 56.9984 73.4009H54.7006V84.9685C54.7006 85.2676 54.6865 85.2676 53.1873 85.2676V73.4009H50.6372V72.2613C50.6372 72.0476 50.7353 71.9621 50.9595 71.9621H57.3207V71.9479Z" fill="#787878"/>
<path d="M57.4888 76.0648C57.8111 75.8512 58.904 75.552 60.3332 75.552C61.9445 75.552 62.6591 76.1646 62.6591 77.8741V78.8855C62.6591 81.0793 62.6451 83.3587 62.547 84.7975C62.0426 85.0966 61.1599 85.4385 59.9409 85.4385C58.5817 85.4528 57.2646 85.1536 57.2646 82.5467C57.2646 79.8969 58.4977 79.4268 59.7587 79.4268C60.165 79.4268 60.7535 79.4838 61.1178 79.669V78.1732C61.1178 77.2757 60.7115 77.0478 59.9549 77.0478C59.0161 77.0478 58.0213 77.233 57.4888 77.4609C57.3207 77.1618 57.2787 76.8199 57.2787 76.5919C57.2927 76.3925 57.3487 76.1646 57.4888 76.0648ZM60.2491 80.595C59.5065 80.595 58.862 80.8657 58.862 82.5182C58.862 83.9 59.3524 84.1564 60.081 84.1564C60.4873 84.1564 60.9076 83.9997 61.0758 83.8288C61.1318 83.202 61.1318 81.7916 61.1318 80.7659C60.8796 80.652 60.5013 80.595 60.2491 80.595Z" fill="#787878"/>
<path d="M67.8994 75.552C69.861 75.552 70.5336 76.25 70.5336 78.102V84.9257C70.5336 85.2534 70.4916 85.2534 68.9643 85.2534V78.5579C68.9643 77.3612 68.7822 76.9053 67.8574 76.9053C67.4511 76.9053 66.8626 77.0193 66.4562 77.2472V84.9257C66.4562 85.2534 66.4142 85.2534 64.943 85.2534V76.1931C65.6716 75.8797 66.9046 75.552 67.8994 75.552Z" fill="#787878"/>
<path d="M78.6324 77.0336C78.4503 77.0336 78.198 76.9909 77.9598 76.9339C78.4082 77.3755 78.6744 78.0593 78.6744 78.9853C78.6744 81.0082 77.8197 82.3188 75.6479 82.3188C75.3257 82.3188 75.0735 82.3046 74.8072 82.2476C74.569 82.4898 74.3168 82.8317 74.3168 83.0881C74.3168 83.43 75.2696 83.5012 76.5307 83.6722C78.0019 83.9001 78.9967 84.3987 78.9967 85.8945C78.9967 87.5328 77.9178 89.0001 75.4237 89.0001C72.9017 89.0001 72.4113 87.9174 72.4113 86.9202C72.4113 86.0085 73.0278 85.168 73.8544 84.6124C73.1258 84.3987 72.6775 84.0853 72.6915 83.5867C72.7055 83.0596 73.1539 82.447 73.8825 81.8487C72.9997 81.2789 72.7195 80.2389 72.7195 79.0138C72.7195 76.4781 73.9946 75.5378 75.8301 75.5378C76.0683 75.5378 76.4326 75.5806 76.7408 75.6945H79.0107C79.0808 75.8228 79.1648 76.0792 79.1648 76.4211C79.1648 76.8484 78.9547 77.0336 78.6324 77.0336ZM75.3257 84.8973C75.2136 84.883 75.1015 84.883 75.0034 84.8546C74.4429 85.2677 73.9806 85.9372 73.9806 86.564C73.9806 87.1481 74.2748 87.5755 75.5499 87.5755C76.881 87.5755 77.4554 86.7777 77.4554 86.1082C77.4554 85.2534 76.965 85.0113 75.3257 84.8973ZM77.1332 78.6434C77.1332 77.2616 76.6708 76.706 75.774 76.706C74.9754 76.706 74.3308 77.3328 74.3308 79.0138C74.3308 80.3671 74.555 81.1649 75.718 81.1649C76.7128 81.1507 77.1332 80.2959 77.1332 78.6434Z" fill="#787878"/>
</svg>
