<svg width="49" height="32" viewBox="0 0 49 32" fill="none" xmlns="http://www.w3.org/2000/svg">
<rect width="49" height="32" rx="3" fill="white"/>
<path d="M27.9996 7.71551C27.8268 7.53591 27.6038 7.44611 27.3362 7.44611C26.9404 7.44611 26.6561 7.63694 26.4722 8.01859C26.0875 7.56397 25.558 7.33386 24.8891 7.33386C24.0863 7.33386 23.4118 7.64816 22.86 8.27115C22.3137 8.89414 22.0405 9.65744 22.0405 10.5554C22.0405 11.4534 22.3137 12.2167 22.86 12.8397C23.4063 13.4627 24.0863 13.777 24.8891 13.777C25.558 13.777 26.0875 13.5469 26.4722 13.0923C26.6506 13.4739 26.9404 13.6648 27.3362 13.6648C27.6038 13.6648 27.8268 13.575 27.9996 13.3954C28.1724 13.2158 28.2616 12.9969 28.2616 12.7387V8.37779C28.256 8.114 28.1724 7.89511 27.9996 7.71551ZM26.0764 11.633C25.8534 11.9249 25.5413 12.0708 25.151 12.0708C24.7553 12.0708 24.4487 11.9249 24.2257 11.633C24.0027 11.3412 23.8912 10.982 23.8912 10.5498C23.8912 10.1177 24.0027 9.75846 24.2257 9.46661C24.4487 9.17476 24.7608 9.02884 25.151 9.02884C25.5468 9.02884 25.8534 9.17476 26.0764 9.46661C26.2994 9.75846 26.4109 10.1177 26.4109 10.5498C26.4164 10.982 26.305 11.3412 26.0764 11.633Z" fill="#000B17"/>
<path d="M30.347 13.3897C30.1742 13.5693 29.9512 13.6591 29.6837 13.6591C29.4161 13.6591 29.1931 13.5693 29.0203 13.3897C28.8475 13.2101 28.7583 12.9912 28.7583 12.733V4.92606C28.7583 4.66789 28.8475 4.449 29.0203 4.2694C29.1931 4.0898 29.4161 4 29.6837 4C29.9512 4 30.1742 4.0898 30.347 4.2694C30.5198 4.449 30.609 4.66789 30.609 4.92606V12.733C30.609 12.9912 30.5198 13.2101 30.347 13.3897Z" fill="#000B17"/>
<path d="M36.4561 8.27115C35.8652 7.64816 35.1126 7.33386 34.1984 7.33386C33.2842 7.33386 32.5372 7.64255 31.9575 8.25993C31.3778 8.8773 31.0879 9.6406 31.0879 10.5554C31.0879 11.4703 31.3778 12.2336 31.9575 12.851C32.5372 13.4683 33.2842 13.777 34.1984 13.777C35.1126 13.777 35.8652 13.4627 36.4561 12.8397C37.0246 12.228 37.3089 11.4703 37.3089 10.5554C37.3034 9.6406 37.0191 8.8773 36.4561 8.27115ZM35.1238 11.633C34.9008 11.9249 34.5886 12.0708 34.1984 12.0708C33.8026 12.0708 33.496 11.9249 33.2731 11.633C33.0501 11.3412 32.9386 10.982 32.9386 10.5498C32.9386 10.1177 33.0501 9.75846 33.2731 9.46661C33.496 9.17476 33.8082 9.02884 34.1984 9.02884C34.5942 9.02884 34.9008 9.17476 35.1238 9.46661C35.3467 9.75846 35.4582 10.1177 35.4582 10.5498C35.4582 10.982 35.3467 11.3412 35.1238 11.633Z" fill="#000B17"/>
<path d="M21.0206 7.54701C21.6728 6.69952 21.9962 6.13266 21.9962 5.8352C21.9962 5.15609 21.5725 4.81934 20.7252 4.81934H16.249C15.8978 4.81934 15.6246 4.90352 15.4351 5.0719C15.24 5.24027 15.1452 5.45916 15.1452 5.72295C15.1452 5.99235 15.24 6.20562 15.4351 6.374C15.6302 6.54237 15.8978 6.62656 16.249 6.62656H19.3204L15.3905 11.7452C15.1341 12.0819 15.0059 12.3794 15.0059 12.6375C15.0059 13.384 15.4964 13.7544 16.4719 13.7544H21.0875C21.8234 13.7544 22.1913 13.4401 22.1913 12.8171C22.1913 12.1942 21.8234 11.8799 21.0875 11.8799H17.6927L21.0206 7.54701Z" fill="#000B17"/>
<path fill-rule="evenodd" clip-rule="evenodd" d="M16.009 15.1407H32.6709C33.2283 15.1407 33.6798 15.5897 33.6798 16.151V25.9785C33.6798 26.5397 33.2283 26.9943 32.6709 26.9943H30.246C30.3408 26.8933 30.43 26.7586 30.4969 26.5846L33.0332 20.3716C33.0834 20.2481 33.1113 20.1134 33.1113 19.9675C33.1113 19.7823 33.0276 19.6195 32.8716 19.4904C32.7155 19.3613 32.5482 19.294 32.3754 19.294C32.0019 19.294 31.7455 19.4792 31.6006 19.8496L30.4578 22.7906L29.3876 19.8496C29.2538 19.4792 28.9918 19.294 28.6127 19.294C28.4399 19.294 28.2727 19.3613 28.1166 19.4904C27.9549 19.6195 27.8769 19.7767 27.8769 19.9675C27.8769 20.1134 27.9048 20.2481 27.9549 20.3716L29.6663 24.6932L29.0475 26.0795C28.9862 26.2366 28.9527 26.3882 28.9527 26.5341C28.9527 26.7137 29.0196 26.8652 29.159 26.9999H16.009C15.4515 26.9999 15 26.5453 15 25.9841V16.1566C15 15.5954 15.4515 15.1407 16.009 15.1407ZM18.9188 22.4763C19.716 22.4763 20.3793 22.2349 20.9033 21.7523C21.4607 21.2528 21.7395 20.5961 21.7506 19.7879C21.7506 18.9853 21.4775 18.3343 20.9312 17.8291C20.3849 17.3296 19.6992 17.0771 18.8631 17.0771H16.8674C16.2821 17.0771 15.9867 17.3745 15.9867 17.9638V24.334C15.9867 24.6146 16.0647 24.8279 16.2208 24.9851C16.3769 25.1366 16.5831 25.2152 16.8284 25.2152C17.0737 25.2152 17.2799 25.1422 17.436 24.9851C17.5921 24.8335 17.6701 24.6146 17.6701 24.334V22.4763H18.9188ZM27.1912 24.8672C27.3529 24.7044 27.4309 24.5024 27.4309 24.261V20.2201C27.4309 19.9843 27.3529 19.7823 27.1912 19.6139C27.0296 19.4511 26.8233 19.367 26.578 19.367C26.2157 19.367 25.9481 19.5409 25.7809 19.8945C25.4241 19.4736 24.9336 19.2603 24.3148 19.2603C23.5679 19.2603 22.9435 19.5466 22.4363 20.1246C21.929 20.7027 21.6781 21.4099 21.6781 22.2405C21.6781 23.0712 21.929 23.7784 22.4363 24.3565C22.9435 24.9345 23.5734 25.2208 24.3148 25.2208C24.9336 25.2208 25.4241 25.0075 25.7809 24.5866C25.9481 24.9402 26.2157 25.1141 26.578 25.1141C26.8289 25.1141 27.0296 25.0356 27.1912 24.8672ZM18.8178 18.5757H17.6694V20.9778H18.8178C19.1634 20.9778 19.4421 20.8656 19.6595 20.6355C19.8713 20.411 19.9828 20.1191 19.9828 19.7711C19.9828 19.4232 19.8769 19.1369 19.6595 18.9068C19.4421 18.6879 19.1634 18.5757 18.8178 18.5757ZM24.5539 20.8374C24.1916 20.8374 23.9017 20.9721 23.6955 21.2415C23.4892 21.5109 23.3833 21.8477 23.3833 22.2405C23.3833 22.639 23.4892 22.9702 23.6955 23.2396C23.9017 23.509 24.1916 23.6437 24.5539 23.6437C24.9163 23.6437 25.2061 23.509 25.4124 23.2396C25.6186 22.9702 25.7246 22.6334 25.7246 22.2405C25.7246 21.842 25.6186 21.5109 25.4124 21.2415C25.2006 20.9721 24.9163 20.8374 24.5539 20.8374Z" fill="#000B17"/>
</svg>
