<svg width="24" height="24" viewBox="0 0 24 24" fill="none" xmlns="http://www.w3.org/2000/svg">
<rect width="24" height="24" fill="white"/>
<g clip-path="url(#clip0)">
<path d="M21.72 5.6H3.48998C3.22477 5.6 2.97041 5.49464 2.78288 5.30711C2.59534 5.11957 2.48998 4.86522 2.48998 4.6C2.48998 4.478 2.53845 4.361 2.62472 4.27473C2.71098 4.18846 2.82799 4.14 2.94998 4.14H19.27C19.392 4.14 19.509 4.09154 19.5953 4.00527C19.6815 3.919 19.73 3.802 19.73 3.68V2C19.7305 1.86075 19.702 1.72292 19.6462 1.59533C19.5905 1.46774 19.5086 1.35321 19.406 1.25907C19.3034 1.16493 19.1823 1.09326 19.0504 1.04865C18.9184 1.00404 18.7787 0.987466 18.64 1L2.08998 2.5C1.52053 2.54762 0.989712 2.80734 0.60265 3.22774C0.215589 3.64814 0.000503437 4.19855 -1.52805e-05 4.77V20.68C-0.00532773 20.9828 0.0497227 21.2836 0.161923 21.5648C0.274122 21.8461 0.441224 22.1022 0.653473 22.3181C0.865722 22.5341 1.11887 22.7056 1.39813 22.8227C1.67739 22.9398 1.97718 23 2.27998 23H21.72C22.0228 23 22.3226 22.9398 22.6018 22.8227C22.8811 22.7056 23.1342 22.5341 23.3465 22.3181C23.5587 22.1022 23.7258 21.8461 23.838 21.5648C23.9502 21.2836 24.0053 20.9828 24 20.68V7.89C24.0013 7.58975 23.9433 7.29219 23.8293 7.01441C23.7153 6.73663 23.5476 6.48411 23.3357 6.27133C23.1239 6.05855 22.8721 5.88971 22.5948 5.77451C22.3175 5.6593 22.0202 5.6 21.72 5.6V5.6ZM16.09 17.6C16.0226 18.1724 15.801 18.7158 15.4487 19.172C15.0964 19.6282 14.6268 19.9801 14.09 20.19C13.4209 20.4609 12.7011 20.5837 11.98 20.55C10.9807 20.5161 10.0011 20.2635 9.10998 19.81C8.71491 19.5762 8.3432 19.3049 7.99998 19C7.91998 18.93 7.87998 18.87 7.99998 18.76L8.46999 18.08C8.48671 18.0573 8.50855 18.0388 8.53374 18.026C8.55893 18.0133 8.58676 18.0067 8.61498 18.0067C8.64321 18.0067 8.67104 18.0133 8.69623 18.026C8.72142 18.0388 8.74326 18.0573 8.75998 18.08L8.89998 18.19C9.79071 18.8854 10.8719 19.2935 12 19.36C13.54 19.36 14.66 18.65 14.86 17.59C15.06 16.53 14.14 15.41 12.34 14.85C11.5634 14.5899 10.8022 14.2861 10.06 13.94C9.5132 13.6926 9.0532 13.2868 8.73944 12.7752C8.42569 12.2635 8.27261 11.6695 8.29998 11.07C8.4263 10.2271 8.86638 9.46308 9.53209 8.93089C10.1978 8.39869 11.04 8.13763 11.89 8.2C12.7662 8.20157 13.6332 8.37837 14.44 8.72C14.7879 8.87148 15.1225 9.05213 15.44 9.26C15.4648 9.27331 15.4865 9.29171 15.5038 9.314C15.521 9.33628 15.5333 9.36196 15.5399 9.38933C15.5465 9.41671 15.5473 9.44517 15.5421 9.47286C15.5369 9.50055 15.526 9.52683 15.51 9.55L15.11 10.18C15.04 10.28 14.96 10.29 14.84 10.18C13.9715 9.60172 12.9533 9.28898 11.91 9.28C11.3467 9.22794 10.7849 9.39387 10.3403 9.74362C9.89563 10.0934 9.60205 10.6003 9.51999 11.16C9.51999 12.16 10.24 12.83 11.82 13.37C15.07 14.37 16.3 15.62 16.06 17.53" fill="#EE4D2D"/>
</g>
<defs>
<clipPath id="clip0">
<rect width="24" height="24" fill="white"/>
</clipPath>
</defs>
</svg>
